<?xml version="1.0" encoding="utf-8" standalone="no"?>
<!DOCTYPE svg PUBLIC "-//W3C//DTD SVG 1.1//EN"
  "http://www.w3.org/Graphics/SVG/1.1/DTD/svg11.dtd">
<svg xmlns:xlink="http://www.w3.org/1999/xlink" width="460.8pt" height="312pt" viewBox="0 0 460.8 312" xmlns="http://www.w3.org/2000/svg" version="1.1">
 <metadata>
  <rdf:RDF xmlns:dc="http://purl.org/dc/elements/1.1/" xmlns:cc="http://creativecommons.org/ns#" xmlns:rdf="http://www.w3.org/1999/02/22-rdf-syntax-ns#">
   <cc:Work>
    <dc:type rdf:resource="http://purl.org/dc/dcmitype/StillImage"/>
    <dc:date>2022-05-19T12:23:20.933468</dc:date>
    <dc:format>image/svg+xml</dc:format>
    <dc:creator>
     <cc:Agent>
      <dc:title>Matplotlib v3.5.1, https://matplotlib.org/</dc:title>
     </cc:Agent>
    </dc:creator>
   </cc:Work>
  </rdf:RDF>
 </metadata>
 <defs>
  <style type="text/css">*{stroke-linejoin: round; stroke-linecap: butt}</style>
 </defs>
 <g id="figure_1">
  <g id="patch_1">
   <path d="M 0 312 
L 460.8 312 
L 460.8 0 
L 0 0 
z
" style="fill: #ffffff"/>
  </g>
  <g id="axes_1">
   <g id="patch_2">
    <path d="M 136.19375 284.942188 
L 450 284.942188 
L 450 25.408125 
L 136.19375 25.408125 
z
" style="fill: #ffffff"/>
   </g>
   <g id="patch_3">
    <path d="M 136.19375 273.145185 
L 435.056845 273.145185 
L 435.056845 253.884772 
L 136.19375 253.884772 
z
" clip-path="url(#p362c82adc2)" style="fill: #1f77b4"/>
   </g>
   <g id="patch_4">
    <path d="M 136.19375 249.069669 
L 368.642824 249.069669 
L 368.642824 229.809256 
L 136.19375 229.809256 
z
" clip-path="url(#p362c82adc2)" style="fill: #1f77b4"/>
   </g>
   <g id="patch_5">
    <path d="M 136.19375 224.994153 
L 302.228803 224.994153 
L 302.228803 205.73374 
L 136.19375 205.73374 
z
" clip-path="url(#p362c82adc2)" style="fill: #1f77b4"/>
   </g>
   <g id="patch_6">
    <path d="M 136.19375 200.918637 
L 269.021792 200.918637 
L 269.021792 181.658224 
L 136.19375 181.658224 
z
" clip-path="url(#p362c82adc2)" style="fill: #1f77b4"/>
   </g>
   <g id="patch_7">
    <path d="M 136.19375 176.843121 
L 202.607771 176.843121 
L 202.607771 157.582708 
L 136.19375 157.582708 
z
" clip-path="url(#p362c82adc2)" style="fill: #1f77b4"/>
   </g>
   <g id="patch_8">
    <path d="M 136.19375 152.767605 
L 169.400761 152.767605 
L 169.400761 133.507192 
L 136.19375 133.507192 
z
" clip-path="url(#p362c82adc2)" style="fill: #1f77b4"/>
   </g>
   <g id="patch_9">
    <path d="M 136.19375 128.692089 
L 169.400761 128.692089 
L 169.400761 109.431676 
L 136.19375 109.431676 
z
" clip-path="url(#p362c82adc2)" style="fill: #1f77b4"/>
   </g>
   <g id="patch_10">
    <path d="M 136.19375 104.616573 
L 169.400761 104.616573 
L 169.400761 85.35616 
L 136.19375 85.35616 
z
" clip-path="url(#p362c82adc2)" style="fill: #1f77b4"/>
   </g>
   <g id="patch_11">
    <path d="M 136.19375 80.541057 
L 169.400761 80.541057 
L 169.400761 61.280644 
L 136.19375 61.280644 
z
" clip-path="url(#p362c82adc2)" style="fill: #1f77b4"/>
   </g>
   <g id="patch_12">
    <path d="M 136.19375 56.465541 
L 169.400761 56.465541 
L 169.400761 37.205128 
L 136.19375 37.205128 
z
" clip-path="url(#p362c82adc2)" style="fill: #1f77b4"/>
   </g>
   <g id="matplotlib.axis_1">
    <g id="xtick_1">
     <g id="line2d_1">
      <defs>
       <path id="m4c99cd72f3" d="M 0 0 
L 0 3.5 
" style="stroke: #000000; stroke-width: 0.8"/>
      </defs>
      <g>
       <use xlink:href="#m4c99cd72f3" x="136.19375" y="284.942188" style="stroke: #000000; stroke-width: 0.8"/>
      </g>
     </g>
     <g id="text_1">
      <!-- 0 -->
      <g transform="translate(133.413281 299.115625)scale(0.1 -0.1)">
       <defs>
        <path id="Helvetica-30" d="M 1731 4475 
Q 2600 4475 2988 3759 
Q 3288 3206 3288 2244 
Q 3288 1331 3016 734 
Q 2622 -122 1728 -122 
Q 922 -122 528 578 
Q 200 1163 200 2147 
Q 200 2909 397 3456 
Q 766 4475 1731 4475 
z
M 1725 391 
Q 2163 391 2422 778 
Q 2681 1166 2681 2222 
Q 2681 2984 2493 3476 
Q 2306 3969 1766 3969 
Q 1269 3969 1039 3501 
Q 809 3034 809 2125 
Q 809 1441 956 1025 
Q 1181 391 1725 391 
z
" transform="scale(0.015625)"/>
       </defs>
       <use xlink:href="#Helvetica-30"/>
      </g>
     </g>
    </g>
    <g id="xtick_2">
     <g id="line2d_2">
      <g>
       <use xlink:href="#m4c99cd72f3" x="189.324967" y="284.942188" style="stroke: #000000; stroke-width: 0.8"/>
      </g>
     </g>
     <g id="text_2">
      <!-- 5 -->
      <g transform="translate(186.544498 299.115625)scale(0.1 -0.1)">
       <defs>
        <path id="Helvetica-35" d="M 791 1141 
Q 847 659 1238 475 
Q 1438 381 1700 381 
Q 2200 381 2440 700 
Q 2681 1019 2681 1406 
Q 2681 1875 2395 2131 
Q 2109 2388 1709 2388 
Q 1419 2388 1211 2275 
Q 1003 2163 856 1963 
L 369 1991 
L 709 4400 
L 3034 4400 
L 3034 3856 
L 1131 3856 
L 941 2613 
Q 1097 2731 1238 2791 
Q 1488 2894 1816 2894 
Q 2431 2894 2859 2497 
Q 3288 2100 3288 1491 
Q 3288 856 2895 371 
Q 2503 -113 1644 -113 
Q 1097 -113 676 195 
Q 256 503 206 1141 
L 791 1141 
z
" transform="scale(0.015625)"/>
       </defs>
       <use xlink:href="#Helvetica-35"/>
      </g>
     </g>
    </g>
    <g id="xtick_3">
     <g id="line2d_3">
      <g>
       <use xlink:href="#m4c99cd72f3" x="242.456184" y="284.942188" style="stroke: #000000; stroke-width: 0.8"/>
      </g>
     </g>
     <g id="text_3">
      <!-- 10 -->
      <g transform="translate(236.895246 299.115625)scale(0.1 -0.1)">
       <defs>
        <path id="Helvetica-31" d="M 613 3169 
L 613 3600 
Q 1222 3659 1462 3798 
Q 1703 3938 1822 4456 
L 2266 4456 
L 2266 0 
L 1666 0 
L 1666 3169 
L 613 3169 
z
" transform="scale(0.015625)"/>
       </defs>
       <use xlink:href="#Helvetica-31"/>
       <use xlink:href="#Helvetica-30" x="55.615234"/>
      </g>
     </g>
    </g>
    <g id="xtick_4">
     <g id="line2d_4">
      <g>
       <use xlink:href="#m4c99cd72f3" x="295.587401" y="284.942188" style="stroke: #000000; stroke-width: 0.8"/>
      </g>
     </g>
     <g id="text_4">
      <!-- 15 -->
      <g transform="translate(290.026463 299.115625)scale(0.1 -0.1)">
       <use xlink:href="#Helvetica-31"/>
       <use xlink:href="#Helvetica-35" x="55.615234"/>
      </g>
     </g>
    </g>
    <g id="xtick_5">
     <g id="line2d_5">
      <g>
       <use xlink:href="#m4c99cd72f3" x="348.718618" y="284.942188" style="stroke: #000000; stroke-width: 0.8"/>
      </g>
     </g>
     <g id="text_5">
      <!-- 20 -->
      <g transform="translate(343.15768 299.115625)scale(0.1 -0.1)">
       <defs>
        <path id="Helvetica-32" d="M 200 0 
Q 231 578 439 1006 
Q 647 1434 1250 1784 
L 1850 2131 
Q 2253 2366 2416 2531 
Q 2672 2791 2672 3125 
Q 2672 3516 2437 3745 
Q 2203 3975 1813 3975 
Q 1234 3975 1013 3538 
Q 894 3303 881 2888 
L 309 2888 
Q 319 3472 525 3841 
Q 891 4491 1816 4491 
Q 2584 4491 2939 4075 
Q 3294 3659 3294 3150 
Q 3294 2613 2916 2231 
Q 2697 2009 2131 1694 
L 1703 1456 
Q 1397 1288 1222 1134 
Q 909 863 828 531 
L 3272 531 
L 3272 0 
L 200 0 
z
" transform="scale(0.015625)"/>
       </defs>
       <use xlink:href="#Helvetica-32"/>
       <use xlink:href="#Helvetica-30" x="55.615234"/>
      </g>
     </g>
    </g>
    <g id="xtick_6">
     <g id="line2d_6">
      <g>
       <use xlink:href="#m4c99cd72f3" x="401.849835" y="284.942188" style="stroke: #000000; stroke-width: 0.8"/>
      </g>
     </g>
     <g id="text_6">
      <!-- 25 -->
      <g transform="translate(396.288897 299.115625)scale(0.1 -0.1)">
       <use xlink:href="#Helvetica-32"/>
       <use xlink:href="#Helvetica-35" x="55.615234"/>
      </g>
     </g>
    </g>
   </g>
   <g id="matplotlib.axis_2">
    <g id="ytick_1">
     <g id="line2d_7">
      <defs>
       <path id="m8e343aef83" d="M 0 0 
L -3.5 0 
" style="stroke: #000000; stroke-width: 0.8"/>
      </defs>
      <g>
       <use xlink:href="#m8e343aef83" x="136.19375" y="263.514978" style="stroke: #000000; stroke-width: 0.8"/>
      </g>
     </g>
     <g id="text_7">
      <!-- Physical sciences -->
      <g transform="translate(50.275 267.113416)scale(0.1 -0.1)">
       <defs>
        <path id="Helvetica-50" d="M 547 4591 
L 2613 4591 
Q 3225 4591 3600 4245 
Q 3975 3900 3975 3275 
Q 3975 2738 3640 2339 
Q 3306 1941 2613 1941 
L 1169 1941 
L 1169 0 
L 547 0 
L 547 4591 
z
M 3347 3272 
Q 3347 3778 2972 3959 
Q 2766 4056 2406 4056 
L 1169 4056 
L 1169 2466 
L 2406 2466 
Q 2825 2466 3086 2644 
Q 3347 2822 3347 3272 
z
" transform="scale(0.015625)"/>
        <path id="Helvetica-68" d="M 413 4606 
L 975 4606 
L 975 2894 
Q 1175 3147 1334 3250 
Q 1606 3428 2013 3428 
Q 2741 3428 3000 2919 
Q 3141 2641 3141 2147 
L 3141 0 
L 2563 0 
L 2563 2109 
Q 2563 2478 2469 2650 
Q 2316 2925 1894 2925 
Q 1544 2925 1259 2684 
Q 975 2444 975 1775 
L 975 0 
L 413 0 
L 413 4606 
z
" transform="scale(0.015625)"/>
        <path id="Helvetica-79" d="M 2503 3347 
L 3125 3347 
Q 3006 3025 2597 1878 
Q 2291 1016 2084 472 
Q 1597 -809 1397 -1090 
Q 1197 -1372 709 -1372 
Q 591 -1372 527 -1362 
Q 463 -1353 369 -1328 
L 369 -816 
Q 516 -856 581 -865 
Q 647 -875 697 -875 
Q 853 -875 926 -823 
Q 1000 -772 1050 -697 
Q 1066 -672 1162 -440 
Q 1259 -209 1303 -97 
L 66 3347 
L 703 3347 
L 1600 622 
L 2503 3347 
z
M 1597 3428 
L 1597 3428 
z
" transform="scale(0.015625)"/>
        <path id="Helvetica-73" d="M 747 1050 
Q 772 769 888 619 
Q 1100 347 1625 347 
Q 1938 347 2175 483 
Q 2413 619 2413 903 
Q 2413 1119 2222 1231 
Q 2100 1300 1741 1391 
L 1294 1503 
Q 866 1609 663 1741 
Q 300 1969 300 2372 
Q 300 2847 642 3140 
Q 984 3434 1563 3434 
Q 2319 3434 2653 2991 
Q 2863 2709 2856 2384 
L 2325 2384 
Q 2309 2575 2191 2731 
Q 1997 2953 1519 2953 
Q 1200 2953 1036 2831 
Q 872 2709 872 2509 
Q 872 2291 1088 2159 
Q 1213 2081 1456 2022 
L 1828 1931 
Q 2434 1784 2641 1647 
Q 2969 1431 2969 969 
Q 2969 522 2630 197 
Q 2291 -128 1597 -128 
Q 850 -128 539 211 
Q 228 550 206 1050 
L 747 1050 
z
M 1578 3428 
L 1578 3428 
z
" transform="scale(0.015625)"/>
        <path id="Helvetica-69" d="M 413 3331 
L 984 3331 
L 984 0 
L 413 0 
L 413 3331 
z
M 413 4591 
L 984 4591 
L 984 3953 
L 413 3953 
L 413 4591 
z
" transform="scale(0.015625)"/>
        <path id="Helvetica-63" d="M 1703 3444 
Q 2269 3444 2623 3169 
Q 2978 2894 3050 2222 
L 2503 2222 
Q 2453 2531 2275 2736 
Q 2097 2941 1703 2941 
Q 1166 2941 934 2416 
Q 784 2075 784 1575 
Q 784 1072 996 728 
Q 1209 384 1666 384 
Q 2016 384 2220 598 
Q 2425 813 2503 1184 
L 3050 1184 
Q 2956 519 2581 211 
Q 2206 -97 1622 -97 
Q 966 -97 575 383 
Q 184 863 184 1581 
Q 184 2463 612 2953 
Q 1041 3444 1703 3444 
z
M 1616 3428 
L 1616 3428 
z
" transform="scale(0.015625)"/>
        <path id="Helvetica-61" d="M 844 891 
Q 844 647 1022 506 
Q 1200 366 1444 366 
Q 1741 366 2019 503 
Q 2488 731 2488 1250 
L 2488 1703 
Q 2384 1638 2221 1594 
Q 2059 1550 1903 1531 
L 1563 1488 
Q 1256 1447 1103 1359 
Q 844 1213 844 891 
z
M 2206 2028 
Q 2400 2053 2466 2191 
Q 2503 2266 2503 2406 
Q 2503 2694 2298 2823 
Q 2094 2953 1713 2953 
Q 1272 2953 1088 2716 
Q 984 2584 953 2325 
L 428 2325 
Q 444 2944 830 3186 
Q 1216 3428 1725 3428 
Q 2316 3428 2684 3203 
Q 3050 2978 3050 2503 
L 3050 575 
Q 3050 488 3086 434 
Q 3122 381 3238 381 
Q 3275 381 3322 386 
Q 3369 391 3422 400 
L 3422 -16 
Q 3291 -53 3222 -62 
Q 3153 -72 3034 -72 
Q 2744 -72 2613 134 
Q 2544 244 2516 444 
Q 2344 219 2022 53 
Q 1700 -113 1313 -113 
Q 847 -113 551 170 
Q 256 453 256 878 
Q 256 1344 547 1600 
Q 838 1856 1309 1916 
L 2206 2028 
z
M 1741 3428 
L 1741 3428 
z
" transform="scale(0.015625)"/>
        <path id="Helvetica-6c" d="M 428 4591 
L 991 4591 
L 991 0 
L 428 0 
L 428 4591 
z
" transform="scale(0.015625)"/>
        <path id="Helvetica-20" transform="scale(0.015625)"/>
        <path id="Helvetica-65" d="M 1806 3422 
Q 2163 3422 2497 3255 
Q 2831 3088 3006 2822 
Q 3175 2569 3231 2231 
Q 3281 2000 3281 1494 
L 828 1494 
Q 844 984 1069 676 
Q 1294 369 1766 369 
Q 2206 369 2469 659 
Q 2619 828 2681 1050 
L 3234 1050 
Q 3213 866 3089 639 
Q 2966 413 2813 269 
Q 2556 19 2178 -69 
Q 1975 -119 1719 -119 
Q 1094 -119 659 336 
Q 225 791 225 1609 
Q 225 2416 662 2919 
Q 1100 3422 1806 3422 
z
M 2703 1941 
Q 2669 2306 2544 2525 
Q 2313 2931 1772 2931 
Q 1384 2931 1121 2651 
Q 859 2372 844 1941 
L 2703 1941 
z
M 1753 3428 
L 1753 3428 
z
" transform="scale(0.015625)"/>
        <path id="Helvetica-6e" d="M 413 3347 
L 947 3347 
L 947 2872 
Q 1184 3166 1450 3294 
Q 1716 3422 2041 3422 
Q 2753 3422 3003 2925 
Q 3141 2653 3141 2147 
L 3141 0 
L 2569 0 
L 2569 2109 
Q 2569 2416 2478 2603 
Q 2328 2916 1934 2916 
Q 1734 2916 1606 2875 
Q 1375 2806 1200 2600 
Q 1059 2434 1017 2257 
Q 975 2081 975 1753 
L 975 0 
L 413 0 
L 413 3347 
z
M 1734 3428 
L 1734 3428 
z
" transform="scale(0.015625)"/>
       </defs>
       <use xlink:href="#Helvetica-50"/>
       <use xlink:href="#Helvetica-68" x="66.699219"/>
       <use xlink:href="#Helvetica-79" x="122.314453"/>
       <use xlink:href="#Helvetica-73" x="172.314453"/>
       <use xlink:href="#Helvetica-69" x="222.314453"/>
       <use xlink:href="#Helvetica-63" x="244.53125"/>
       <use xlink:href="#Helvetica-61" x="294.53125"/>
       <use xlink:href="#Helvetica-6c" x="350.146484"/>
       <use xlink:href="#Helvetica-20" x="372.363281"/>
       <use xlink:href="#Helvetica-73" x="400.146484"/>
       <use xlink:href="#Helvetica-63" x="450.146484"/>
       <use xlink:href="#Helvetica-69" x="500.146484"/>
       <use xlink:href="#Helvetica-65" x="522.363281"/>
       <use xlink:href="#Helvetica-6e" x="577.978516"/>
       <use xlink:href="#Helvetica-63" x="633.59375"/>
       <use xlink:href="#Helvetica-65" x="683.59375"/>
       <use xlink:href="#Helvetica-73" x="739.208984"/>
      </g>
     </g>
    </g>
    <g id="ytick_2">
     <g id="line2d_8">
      <g>
       <use xlink:href="#m8e343aef83" x="136.19375" y="239.439462" style="stroke: #000000; stroke-width: 0.8"/>
      </g>
     </g>
     <g id="text_8">
      <!-- Information and computing -->
      <g transform="translate(10.8 238.383994)scale(0.1 -0.1)">
       <defs>
        <path id="Helvetica-49" d="M 628 4591 
L 1256 4591 
L 1256 0 
L 628 0 
L 628 4591 
z
" transform="scale(0.015625)"/>
        <path id="Helvetica-66" d="M 553 3856 
Q 566 4206 675 4369 
Q 872 4656 1434 4656 
Q 1488 4656 1544 4653 
Q 1600 4650 1672 4644 
L 1672 4131 
Q 1584 4138 1545 4139 
Q 1506 4141 1472 4141 
Q 1216 4141 1166 4008 
Q 1116 3875 1116 3331 
L 1672 3331 
L 1672 2888 
L 1109 2888 
L 1109 0 
L 553 0 
L 553 2888 
L 88 2888 
L 88 3331 
L 553 3331 
L 553 3856 
z
" transform="scale(0.015625)"/>
        <path id="Helvetica-6f" d="M 1741 363 
Q 2300 363 2508 786 
Q 2716 1209 2716 1728 
Q 2716 2197 2566 2491 
Q 2328 2953 1747 2953 
Q 1231 2953 997 2559 
Q 763 2166 763 1609 
Q 763 1075 997 719 
Q 1231 363 1741 363 
z
M 1763 3444 
Q 2409 3444 2856 3012 
Q 3303 2581 3303 1744 
Q 3303 934 2909 406 
Q 2516 -122 1688 -122 
Q 997 -122 590 345 
Q 184 813 184 1600 
Q 184 2444 612 2944 
Q 1041 3444 1763 3444 
z
M 1744 3428 
L 1744 3428 
z
" transform="scale(0.015625)"/>
        <path id="Helvetica-72" d="M 428 3347 
L 963 3347 
L 963 2769 
Q 1028 2938 1284 3180 
Q 1541 3422 1875 3422 
Q 1891 3422 1928 3419 
Q 1966 3416 2056 3406 
L 2056 2813 
Q 2006 2822 1964 2825 
Q 1922 2828 1872 2828 
Q 1447 2828 1219 2554 
Q 991 2281 991 1925 
L 991 0 
L 428 0 
L 428 3347 
z
" transform="scale(0.015625)"/>
        <path id="Helvetica-6d" d="M 413 3347 
L 969 3347 
L 969 2872 
Q 1169 3119 1331 3231 
Q 1609 3422 1963 3422 
Q 2363 3422 2606 3225 
Q 2744 3113 2856 2894 
Q 3044 3163 3297 3292 
Q 3550 3422 3866 3422 
Q 4541 3422 4784 2934 
Q 4916 2672 4916 2228 
L 4916 0 
L 4331 0 
L 4331 2325 
Q 4331 2659 4164 2784 
Q 3997 2909 3756 2909 
Q 3425 2909 3186 2687 
Q 2947 2466 2947 1947 
L 2947 0 
L 2375 0 
L 2375 2184 
Q 2375 2525 2294 2681 
Q 2166 2916 1816 2916 
Q 1497 2916 1236 2669 
Q 975 2422 975 1775 
L 975 0 
L 413 0 
L 413 3347 
z
" transform="scale(0.015625)"/>
        <path id="Helvetica-74" d="M 525 4281 
L 1094 4281 
L 1094 3347 
L 1628 3347 
L 1628 2888 
L 1094 2888 
L 1094 703 
Q 1094 528 1213 469 
Q 1278 434 1431 434 
Q 1472 434 1519 436 
Q 1566 438 1628 444 
L 1628 0 
Q 1531 -28 1426 -40 
Q 1322 -53 1200 -53 
Q 806 -53 665 148 
Q 525 350 525 672 
L 525 2888 
L 72 2888 
L 72 3347 
L 525 3347 
L 525 4281 
z
" transform="scale(0.015625)"/>
        <path id="Helvetica-64" d="M 769 1634 
Q 769 1097 997 734 
Q 1225 372 1728 372 
Q 2119 372 2370 708 
Q 2622 1044 2622 1672 
Q 2622 2306 2362 2611 
Q 2103 2916 1722 2916 
Q 1297 2916 1033 2591 
Q 769 2266 769 1634 
z
M 1616 3406 
Q 2000 3406 2259 3244 
Q 2409 3150 2600 2916 
L 2600 4606 
L 3141 4606 
L 3141 0 
L 2634 0 
L 2634 466 
Q 2438 156 2169 18 
Q 1900 -119 1553 -119 
Q 994 -119 584 351 
Q 175 822 175 1603 
Q 175 2334 548 2870 
Q 922 3406 1616 3406 
z
" transform="scale(0.015625)"/>
        <path id="Helvetica-70" d="M 1825 378 
Q 2219 378 2480 708 
Q 2741 1038 2741 1694 
Q 2741 2094 2625 2381 
Q 2406 2934 1825 2934 
Q 1241 2934 1025 2350 
Q 909 2038 909 1556 
Q 909 1169 1025 897 
Q 1244 378 1825 378 
z
M 369 3331 
L 916 3331 
L 916 2888 
Q 1084 3116 1284 3241 
Q 1569 3428 1953 3428 
Q 2522 3428 2919 2992 
Q 3316 2556 3316 1747 
Q 3316 653 2744 184 
Q 2381 -113 1900 -113 
Q 1522 -113 1266 53 
Q 1116 147 931 375 
L 931 -1334 
L 369 -1334 
L 369 3331 
z
" transform="scale(0.015625)"/>
        <path id="Helvetica-75" d="M 975 3347 
L 975 1125 
Q 975 869 1056 706 
Q 1206 406 1616 406 
Q 2203 406 2416 931 
Q 2531 1213 2531 1703 
L 2531 3347 
L 3094 3347 
L 3094 0 
L 2563 0 
L 2569 494 
Q 2459 303 2297 172 
Q 1975 -91 1516 -91 
Q 800 -91 541 388 
Q 400 644 400 1072 
L 400 3347 
L 975 3347 
z
M 1747 3428 
L 1747 3428 
z
" transform="scale(0.015625)"/>
        <path id="Helvetica-67" d="M 1594 3406 
Q 1988 3406 2281 3213 
Q 2441 3103 2606 2894 
L 2606 3316 
L 3125 3316 
L 3125 272 
Q 3125 -366 2938 -734 
Q 2588 -1416 1616 -1416 
Q 1075 -1416 706 -1173 
Q 338 -931 294 -416 
L 866 -416 
Q 906 -641 1028 -763 
Q 1219 -950 1628 -950 
Q 2275 -950 2475 -494 
Q 2594 -225 2584 466 
Q 2416 209 2178 84 
Q 1941 -41 1550 -41 
Q 1006 -41 598 345 
Q 191 731 191 1622 
Q 191 2463 602 2934 
Q 1013 3406 1594 3406 
z
M 2606 1688 
Q 2606 2309 2350 2609 
Q 2094 2909 1697 2909 
Q 1103 2909 884 2353 
Q 769 2056 769 1575 
Q 769 1009 998 714 
Q 1228 419 1616 419 
Q 2222 419 2469 966 
Q 2606 1275 2606 1688 
z
M 1659 3428 
L 1659 3428 
z
" transform="scale(0.015625)"/>
       </defs>
       <use xlink:href="#Helvetica-49"/>
       <use xlink:href="#Helvetica-6e" x="27.783203"/>
       <use xlink:href="#Helvetica-66" x="83.398438"/>
       <use xlink:href="#Helvetica-6f" x="111.181641"/>
       <use xlink:href="#Helvetica-72" x="166.796875"/>
       <use xlink:href="#Helvetica-6d" x="200.097656"/>
       <use xlink:href="#Helvetica-61" x="283.398438"/>
       <use xlink:href="#Helvetica-74" x="339.013672"/>
       <use xlink:href="#Helvetica-69" x="366.796875"/>
       <use xlink:href="#Helvetica-6f" x="389.013672"/>
       <use xlink:href="#Helvetica-6e" x="444.628906"/>
       <use xlink:href="#Helvetica-20" x="500.244141"/>
       <use xlink:href="#Helvetica-61" x="528.027344"/>
       <use xlink:href="#Helvetica-6e" x="583.642578"/>
       <use xlink:href="#Helvetica-64" x="639.257812"/>
       <use xlink:href="#Helvetica-20" x="694.873047"/>
       <use xlink:href="#Helvetica-63" x="722.65625"/>
       <use xlink:href="#Helvetica-6f" x="772.65625"/>
       <use xlink:href="#Helvetica-6d" x="828.271484"/>
       <use xlink:href="#Helvetica-70" x="911.572266"/>
       <use xlink:href="#Helvetica-75" x="967.1875"/>
       <use xlink:href="#Helvetica-74" x="1022.802734"/>
       <use xlink:href="#Helvetica-69" x="1050.585938"/>
       <use xlink:href="#Helvetica-6e" x="1072.802734"/>
       <use xlink:href="#Helvetica-67" x="1128.417969"/>
      </g>
      <!-- sciences -->
      <g transform="translate(90.289062 249.204619)scale(0.1 -0.1)">
       <use xlink:href="#Helvetica-73"/>
       <use xlink:href="#Helvetica-63" x="50"/>
       <use xlink:href="#Helvetica-69" x="100"/>
       <use xlink:href="#Helvetica-65" x="122.216797"/>
       <use xlink:href="#Helvetica-6e" x="177.832031"/>
       <use xlink:href="#Helvetica-63" x="233.447266"/>
       <use xlink:href="#Helvetica-65" x="283.447266"/>
       <use xlink:href="#Helvetica-73" x="339.0625"/>
      </g>
     </g>
    </g>
    <g id="ytick_3">
     <g id="line2d_9">
      <g>
       <use xlink:href="#m8e343aef83" x="136.19375" y="215.363946" style="stroke: #000000; stroke-width: 0.8"/>
      </g>
     </g>
     <g id="text_9">
      <!-- Earth sciences -->
      <g transform="translate(63.610937 218.950665)scale(0.1 -0.1)">
       <defs>
        <path id="Helvetica-45" d="M 547 4591 
L 3894 4591 
L 3894 4028 
L 1153 4028 
L 1153 2634 
L 3688 2634 
L 3688 2103 
L 1153 2103 
L 1153 547 
L 3941 547 
L 3941 0 
L 547 0 
L 547 4591 
z
M 2244 4591 
L 2244 4591 
z
" transform="scale(0.015625)"/>
       </defs>
       <use xlink:href="#Helvetica-45"/>
       <use xlink:href="#Helvetica-61" x="66.699219"/>
       <use xlink:href="#Helvetica-72" x="122.314453"/>
       <use xlink:href="#Helvetica-74" x="155.615234"/>
       <use xlink:href="#Helvetica-68" x="183.398438"/>
       <use xlink:href="#Helvetica-20" x="239.013672"/>
       <use xlink:href="#Helvetica-73" x="266.796875"/>
       <use xlink:href="#Helvetica-63" x="316.796875"/>
       <use xlink:href="#Helvetica-69" x="366.796875"/>
       <use xlink:href="#Helvetica-65" x="389.013672"/>
       <use xlink:href="#Helvetica-6e" x="444.628906"/>
       <use xlink:href="#Helvetica-63" x="500.244141"/>
       <use xlink:href="#Helvetica-65" x="550.244141"/>
       <use xlink:href="#Helvetica-73" x="605.859375"/>
      </g>
     </g>
    </g>
    <g id="ytick_4">
     <g id="line2d_10">
      <g>
       <use xlink:href="#m8e343aef83" x="136.19375" y="191.28843" style="stroke: #000000; stroke-width: 0.8"/>
      </g>
     </g>
     <g id="text_10">
      <!-- Engineering -->
      <g transform="translate(75.823437 194.875149)scale(0.1 -0.1)">
       <use xlink:href="#Helvetica-45"/>
       <use xlink:href="#Helvetica-6e" x="66.699219"/>
       <use xlink:href="#Helvetica-67" x="122.314453"/>
       <use xlink:href="#Helvetica-69" x="177.929688"/>
       <use xlink:href="#Helvetica-6e" x="200.146484"/>
       <use xlink:href="#Helvetica-65" x="255.761719"/>
       <use xlink:href="#Helvetica-65" x="311.376953"/>
       <use xlink:href="#Helvetica-72" x="366.992188"/>
       <use xlink:href="#Helvetica-69" x="400.292969"/>
       <use xlink:href="#Helvetica-6e" x="422.509766"/>
       <use xlink:href="#Helvetica-67" x="478.125"/>
      </g>
     </g>
    </g>
    <g id="ytick_5">
     <g id="line2d_11">
      <g>
       <use xlink:href="#m8e343aef83" x="136.19375" y="167.212914" style="stroke: #000000; stroke-width: 0.8"/>
      </g>
     </g>
     <g id="text_11">
      <!-- Biological sciences -->
      <g transform="translate(44.709375 170.799633)scale(0.1 -0.1)">
       <defs>
        <path id="Helvetica-42" d="M 2213 2650 
Q 2606 2650 2825 2759 
Q 3169 2931 3169 3378 
Q 3169 3828 2803 3984 
Q 2597 4072 2191 4072 
L 1081 4072 
L 1081 2650 
L 2213 2650 
z
M 2422 531 
Q 2994 531 3238 863 
Q 3391 1072 3391 1369 
Q 3391 1869 2944 2050 
Q 2706 2147 2316 2147 
L 1081 2147 
L 1081 531 
L 2422 531 
z
M 472 4591 
L 2444 4591 
Q 3250 4591 3591 4109 
Q 3791 3825 3791 3453 
Q 3791 3019 3544 2741 
Q 3416 2594 3175 2472 
Q 3528 2338 3703 2169 
Q 4013 1869 4013 1341 
Q 4013 897 3734 538 
Q 3319 0 2413 0 
L 472 0 
L 472 4591 
z
" transform="scale(0.015625)"/>
       </defs>
       <use xlink:href="#Helvetica-42"/>
       <use xlink:href="#Helvetica-69" x="66.699219"/>
       <use xlink:href="#Helvetica-6f" x="88.916016"/>
       <use xlink:href="#Helvetica-6c" x="144.53125"/>
       <use xlink:href="#Helvetica-6f" x="166.748047"/>
       <use xlink:href="#Helvetica-67" x="222.363281"/>
       <use xlink:href="#Helvetica-69" x="277.978516"/>
       <use xlink:href="#Helvetica-63" x="300.195312"/>
       <use xlink:href="#Helvetica-61" x="350.195312"/>
       <use xlink:href="#Helvetica-6c" x="405.810547"/>
       <use xlink:href="#Helvetica-20" x="428.027344"/>
       <use xlink:href="#Helvetica-73" x="455.810547"/>
       <use xlink:href="#Helvetica-63" x="505.810547"/>
       <use xlink:href="#Helvetica-69" x="555.810547"/>
       <use xlink:href="#Helvetica-65" x="578.027344"/>
       <use xlink:href="#Helvetica-6e" x="633.642578"/>
       <use xlink:href="#Helvetica-63" x="689.257812"/>
       <use xlink:href="#Helvetica-65" x="739.257812"/>
       <use xlink:href="#Helvetica-73" x="794.873047"/>
      </g>
     </g>
    </g>
    <g id="ytick_6">
     <g id="line2d_12">
      <g>
       <use xlink:href="#m8e343aef83" x="136.19375" y="143.137398" style="stroke: #000000; stroke-width: 0.8"/>
      </g>
     </g>
     <g id="text_12">
      <!-- Language, communication -->
      <g transform="translate(11.903125 142.031148)scale(0.1 -0.1)">
       <defs>
        <path id="Helvetica-4c" d="M 488 4591 
L 1109 4591 
L 1109 547 
L 3434 547 
L 3434 0 
L 488 0 
L 488 4591 
z
" transform="scale(0.015625)"/>
        <path id="Helvetica-2c" d="M 531 -653 
Q 747 -616 834 -350 
Q 881 -209 881 -78 
Q 881 -56 879 -39 
Q 878 -22 872 0 
L 531 0 
L 531 681 
L 1200 681 
L 1200 50 
Q 1200 -322 1050 -603 
Q 900 -884 531 -950 
L 531 -653 
z
" transform="scale(0.015625)"/>
       </defs>
       <use xlink:href="#Helvetica-4c"/>
       <use xlink:href="#Helvetica-61" x="55.615234"/>
       <use xlink:href="#Helvetica-6e" x="111.230469"/>
       <use xlink:href="#Helvetica-67" x="166.845703"/>
       <use xlink:href="#Helvetica-75" x="222.460938"/>
       <use xlink:href="#Helvetica-61" x="278.076172"/>
       <use xlink:href="#Helvetica-67" x="333.691406"/>
       <use xlink:href="#Helvetica-65" x="389.306641"/>
       <use xlink:href="#Helvetica-2c" x="444.921875"/>
       <use xlink:href="#Helvetica-20" x="472.705078"/>
       <use xlink:href="#Helvetica-63" x="500.488281"/>
       <use xlink:href="#Helvetica-6f" x="550.488281"/>
       <use xlink:href="#Helvetica-6d" x="606.103516"/>
       <use xlink:href="#Helvetica-6d" x="689.404297"/>
       <use xlink:href="#Helvetica-75" x="772.705078"/>
       <use xlink:href="#Helvetica-6e" x="828.320312"/>
       <use xlink:href="#Helvetica-69" x="883.935547"/>
       <use xlink:href="#Helvetica-63" x="906.152344"/>
       <use xlink:href="#Helvetica-61" x="956.152344"/>
       <use xlink:href="#Helvetica-74" x="1011.767578"/>
       <use xlink:href="#Helvetica-69" x="1039.550781"/>
       <use xlink:href="#Helvetica-6f" x="1061.767578"/>
       <use xlink:href="#Helvetica-6e" x="1117.382812"/>
      </g>
      <!-- and culture -->
      <g transform="translate(79.720312 152.851773)scale(0.1 -0.1)">
       <use xlink:href="#Helvetica-61"/>
       <use xlink:href="#Helvetica-6e" x="55.615234"/>
       <use xlink:href="#Helvetica-64" x="111.230469"/>
       <use xlink:href="#Helvetica-20" x="166.845703"/>
       <use xlink:href="#Helvetica-63" x="194.628906"/>
       <use xlink:href="#Helvetica-75" x="244.628906"/>
       <use xlink:href="#Helvetica-6c" x="300.244141"/>
       <use xlink:href="#Helvetica-74" x="322.460938"/>
       <use xlink:href="#Helvetica-75" x="350.244141"/>
       <use xlink:href="#Helvetica-72" x="405.859375"/>
       <use xlink:href="#Helvetica-65" x="439.160156"/>
      </g>
     </g>
    </g>
    <g id="ytick_7">
     <g id="line2d_13">
      <g>
       <use xlink:href="#m8e343aef83" x="136.19375" y="119.061882" style="stroke: #000000; stroke-width: 0.8"/>
      </g>
     </g>
     <g id="text_13">
      <!-- Environmental sciences -->
      <g transform="translate(23.59375 122.648601)scale(0.1 -0.1)">
       <defs>
        <path id="Helvetica-76" d="M 688 3347 
L 1581 622 
L 2516 3347 
L 3131 3347 
L 1869 0 
L 1269 0 
L 34 3347 
L 688 3347 
z
" transform="scale(0.015625)"/>
       </defs>
       <use xlink:href="#Helvetica-45"/>
       <use xlink:href="#Helvetica-6e" x="66.699219"/>
       <use xlink:href="#Helvetica-76" x="122.314453"/>
       <use xlink:href="#Helvetica-69" x="172.314453"/>
       <use xlink:href="#Helvetica-72" x="194.53125"/>
       <use xlink:href="#Helvetica-6f" x="227.832031"/>
       <use xlink:href="#Helvetica-6e" x="283.447266"/>
       <use xlink:href="#Helvetica-6d" x="339.0625"/>
       <use xlink:href="#Helvetica-65" x="422.363281"/>
       <use xlink:href="#Helvetica-6e" x="477.978516"/>
       <use xlink:href="#Helvetica-74" x="533.59375"/>
       <use xlink:href="#Helvetica-61" x="561.376953"/>
       <use xlink:href="#Helvetica-6c" x="616.992188"/>
       <use xlink:href="#Helvetica-20" x="639.208984"/>
       <use xlink:href="#Helvetica-73" x="666.992188"/>
       <use xlink:href="#Helvetica-63" x="716.992188"/>
       <use xlink:href="#Helvetica-69" x="766.992188"/>
       <use xlink:href="#Helvetica-65" x="789.208984"/>
       <use xlink:href="#Helvetica-6e" x="844.824219"/>
       <use xlink:href="#Helvetica-63" x="900.439453"/>
       <use xlink:href="#Helvetica-65" x="950.439453"/>
       <use xlink:href="#Helvetica-73" x="1006.054688"/>
      </g>
     </g>
    </g>
    <g id="ytick_8">
     <g id="line2d_14">
      <g>
       <use xlink:href="#m8e343aef83" x="136.19375" y="94.986366" style="stroke: #000000; stroke-width: 0.8"/>
      </g>
     </g>
     <g id="text_14">
      <!-- Biomedical and clinical -->
      <g transform="translate(28.035937 93.944179)scale(0.1 -0.1)">
       <use xlink:href="#Helvetica-42"/>
       <use xlink:href="#Helvetica-69" x="66.699219"/>
       <use xlink:href="#Helvetica-6f" x="88.916016"/>
       <use xlink:href="#Helvetica-6d" x="144.53125"/>
       <use xlink:href="#Helvetica-65" x="227.832031"/>
       <use xlink:href="#Helvetica-64" x="283.447266"/>
       <use xlink:href="#Helvetica-69" x="339.0625"/>
       <use xlink:href="#Helvetica-63" x="361.279297"/>
       <use xlink:href="#Helvetica-61" x="411.279297"/>
       <use xlink:href="#Helvetica-6c" x="466.894531"/>
       <use xlink:href="#Helvetica-20" x="489.111328"/>
       <use xlink:href="#Helvetica-61" x="516.894531"/>
       <use xlink:href="#Helvetica-6e" x="572.509766"/>
       <use xlink:href="#Helvetica-64" x="628.125"/>
       <use xlink:href="#Helvetica-20" x="683.740234"/>
       <use xlink:href="#Helvetica-63" x="711.523438"/>
       <use xlink:href="#Helvetica-6c" x="761.523438"/>
       <use xlink:href="#Helvetica-69" x="783.740234"/>
       <use xlink:href="#Helvetica-6e" x="805.957031"/>
       <use xlink:href="#Helvetica-69" x="861.572266"/>
       <use xlink:href="#Helvetica-63" x="883.789062"/>
       <use xlink:href="#Helvetica-61" x="933.789062"/>
       <use xlink:href="#Helvetica-6c" x="989.404297"/>
      </g>
      <!-- sciences -->
      <g transform="translate(90.289062 104.636679)scale(0.1 -0.1)">
       <use xlink:href="#Helvetica-73"/>
       <use xlink:href="#Helvetica-63" x="50"/>
       <use xlink:href="#Helvetica-69" x="100"/>
       <use xlink:href="#Helvetica-65" x="122.216797"/>
       <use xlink:href="#Helvetica-6e" x="177.832031"/>
       <use xlink:href="#Helvetica-63" x="233.447266"/>
       <use xlink:href="#Helvetica-65" x="283.447266"/>
       <use xlink:href="#Helvetica-73" x="339.0625"/>
      </g>
     </g>
    </g>
    <g id="ytick_9">
     <g id="line2d_15">
      <g>
       <use xlink:href="#m8e343aef83" x="136.19375" y="70.91085" style="stroke: #000000; stroke-width: 0.8"/>
      </g>
     </g>
     <g id="text_15">
      <!-- Psychology -->
      <g transform="translate(78.057812 74.509288)scale(0.1 -0.1)">
       <use xlink:href="#Helvetica-50"/>
       <use xlink:href="#Helvetica-73" x="66.699219"/>
       <use xlink:href="#Helvetica-79" x="116.699219"/>
       <use xlink:href="#Helvetica-63" x="166.699219"/>
       <use xlink:href="#Helvetica-68" x="216.699219"/>
       <use xlink:href="#Helvetica-6f" x="272.314453"/>
       <use xlink:href="#Helvetica-6c" x="327.929688"/>
       <use xlink:href="#Helvetica-6f" x="350.146484"/>
       <use xlink:href="#Helvetica-67" x="405.761719"/>
       <use xlink:href="#Helvetica-79" x="461.376953"/>
      </g>
     </g>
    </g>
    <g id="ytick_10">
     <g id="line2d_16">
      <g>
       <use xlink:href="#m8e343aef83" x="136.19375" y="46.835334" style="stroke: #000000; stroke-width: 0.8"/>
      </g>
     </g>
     <g id="text_16">
      <!-- Health sciences -->
      <g transform="translate(58.60625 50.422053)scale(0.1 -0.1)">
       <defs>
        <path id="Helvetica-48" d="M 503 4591 
L 1131 4591 
L 1131 2694 
L 3519 2694 
L 3519 4591 
L 4147 4591 
L 4147 0 
L 3519 0 
L 3519 2147 
L 1131 2147 
L 1131 0 
L 503 0 
L 503 4591 
z
" transform="scale(0.015625)"/>
       </defs>
       <use xlink:href="#Helvetica-48"/>
       <use xlink:href="#Helvetica-65" x="72.216797"/>
       <use xlink:href="#Helvetica-61" x="127.832031"/>
       <use xlink:href="#Helvetica-6c" x="183.447266"/>
       <use xlink:href="#Helvetica-74" x="205.664062"/>
       <use xlink:href="#Helvetica-68" x="233.447266"/>
       <use xlink:href="#Helvetica-20" x="289.0625"/>
       <use xlink:href="#Helvetica-73" x="316.845703"/>
       <use xlink:href="#Helvetica-63" x="366.845703"/>
       <use xlink:href="#Helvetica-69" x="416.845703"/>
       <use xlink:href="#Helvetica-65" x="439.0625"/>
       <use xlink:href="#Helvetica-6e" x="494.677734"/>
       <use xlink:href="#Helvetica-63" x="550.292969"/>
       <use xlink:href="#Helvetica-65" x="600.292969"/>
       <use xlink:href="#Helvetica-73" x="655.908203"/>
      </g>
     </g>
    </g>
   </g>
   <g id="text_17">
    <!-- Field of education, Australia -->
    <g transform="translate(219.059687 19.408125)scale(0.12 -0.12)">
     <defs>
      <path id="Helvetica-46" d="M 547 4591 
L 3731 4591 
L 3731 4028 
L 1169 4028 
L 1169 2634 
L 3422 2634 
L 3422 2088 
L 1169 2088 
L 1169 0 
L 547 0 
L 547 4591 
z
" transform="scale(0.015625)"/>
      <path id="Helvetica-41" d="M 2844 1881 
L 2147 3909 
L 1406 1881 
L 2844 1881 
z
M 1822 4591 
L 2525 4591 
L 4191 0 
L 3509 0 
L 3044 1375 
L 1228 1375 
L 731 0 
L 94 0 
L 1822 4591 
z
M 2144 4591 
L 2144 4591 
z
" transform="scale(0.015625)"/>
     </defs>
     <use xlink:href="#Helvetica-46"/>
     <use xlink:href="#Helvetica-69" x="61.083984"/>
     <use xlink:href="#Helvetica-65" x="83.300781"/>
     <use xlink:href="#Helvetica-6c" x="138.916016"/>
     <use xlink:href="#Helvetica-64" x="161.132812"/>
     <use xlink:href="#Helvetica-20" x="216.748047"/>
     <use xlink:href="#Helvetica-6f" x="244.53125"/>
     <use xlink:href="#Helvetica-66" x="300.146484"/>
     <use xlink:href="#Helvetica-20" x="327.929688"/>
     <use xlink:href="#Helvetica-65" x="355.712891"/>
     <use xlink:href="#Helvetica-64" x="411.328125"/>
     <use xlink:href="#Helvetica-75" x="466.943359"/>
     <use xlink:href="#Helvetica-63" x="522.558594"/>
     <use xlink:href="#Helvetica-61" x="572.558594"/>
     <use xlink:href="#Helvetica-74" x="628.173828"/>
     <use xlink:href="#Helvetica-69" x="655.957031"/>
     <use xlink:href="#Helvetica-6f" x="678.173828"/>
     <use xlink:href="#Helvetica-6e" x="733.789062"/>
     <use xlink:href="#Helvetica-2c" x="789.404297"/>
     <use xlink:href="#Helvetica-20" x="817.1875"/>
     <use xlink:href="#Helvetica-41" x="844.970703"/>
     <use xlink:href="#Helvetica-75" x="911.669922"/>
     <use xlink:href="#Helvetica-73" x="967.285156"/>
     <use xlink:href="#Helvetica-74" x="1017.285156"/>
     <use xlink:href="#Helvetica-72" x="1045.068359"/>
     <use xlink:href="#Helvetica-61" x="1078.369141"/>
     <use xlink:href="#Helvetica-6c" x="1133.984375"/>
     <use xlink:href="#Helvetica-69" x="1156.201172"/>
     <use xlink:href="#Helvetica-61" x="1178.417969"/>
    </g>
   </g>
  </g>
 </g>
 <defs>
  <clipPath id="p362c82adc2">
   <rect x="136.19375" y="25.408125" width="313.80625" height="259.534063"/>
  </clipPath>
 </defs>
</svg>
