<?xml version="1.0" encoding="utf-8" standalone="no"?>
<!DOCTYPE svg PUBLIC "-//W3C//DTD SVG 1.1//EN"
  "http://www.w3.org/Graphics/SVG/1.1/DTD/svg11.dtd">
<svg xmlns:xlink="http://www.w3.org/1999/xlink" width="460.8pt" height="456pt" viewBox="0 0 460.8 456" xmlns="http://www.w3.org/2000/svg" version="1.1">
 <metadata>
  <rdf:RDF xmlns:dc="http://purl.org/dc/elements/1.1/" xmlns:cc="http://creativecommons.org/ns#" xmlns:rdf="http://www.w3.org/1999/02/22-rdf-syntax-ns#">
   <cc:Work>
    <dc:type rdf:resource="http://purl.org/dc/dcmitype/StillImage"/>
    <dc:date>2022-05-19T12:23:27.080766</dc:date>
    <dc:format>image/svg+xml</dc:format>
    <dc:creator>
     <cc:Agent>
      <dc:title>Matplotlib v3.5.1, https://matplotlib.org/</dc:title>
     </cc:Agent>
    </dc:creator>
   </cc:Work>
  </rdf:RDF>
 </metadata>
 <defs>
  <style type="text/css">*{stroke-linejoin: round; stroke-linecap: butt}</style>
 </defs>
 <g id="figure_1">
  <g id="patch_1">
   <path d="M 0 456 
L 460.8 456 
L 460.8 0 
L 0 0 
z
" style="fill: #ffffff"/>
  </g>
  <g id="axes_1">
   <g id="patch_2">
    <path d="M 148.978125 428.942187 
L 388.661407 428.942187 
L 388.661407 25.408125 
L 148.978125 25.408125 
z
" style="fill: #ffffff"/>
   </g>
   <g id="patch_3">
    <path d="M 148.978125 410.59973 
L 163.244987 410.59973 
L 163.244987 392.02509 
L 148.978125 392.02509 
z
" clip-path="url(#p7b7391430e)" style="fill: #1f77b4"/>
   </g>
   <g id="patch_4">
    <path d="M 148.978125 387.38143 
L 163.244987 387.38143 
L 163.244987 368.806789 
L 148.978125 368.806789 
z
" clip-path="url(#p7b7391430e)" style="fill: #1f77b4"/>
   </g>
   <g id="patch_5">
    <path d="M 148.978125 364.163129 
L 163.244987 364.163129 
L 163.244987 345.588489 
L 148.978125 345.588489 
z
" clip-path="url(#p7b7391430e)" style="fill: #1f77b4"/>
   </g>
   <g id="patch_6">
    <path d="M 148.978125 340.944829 
L 163.244987 340.944829 
L 163.244987 322.370188 
L 148.978125 322.370188 
z
" clip-path="url(#p7b7391430e)" style="fill: #1f77b4"/>
   </g>
   <g id="patch_7">
    <path d="M 148.978125 317.726528 
L 163.244987 317.726528 
L 163.244987 299.151888 
L 148.978125 299.151888 
z
" clip-path="url(#p7b7391430e)" style="fill: #1f77b4"/>
   </g>
   <g id="patch_8">
    <path d="M 148.978125 294.508228 
L 177.511849 294.508228 
L 177.511849 275.933587 
L 148.978125 275.933587 
z
" clip-path="url(#p7b7391430e)" style="fill: #1f77b4"/>
   </g>
   <g id="patch_9">
    <path d="M 148.978125 271.289927 
L 177.511849 271.289927 
L 177.511849 252.715287 
L 148.978125 252.715287 
z
" clip-path="url(#p7b7391430e)" style="fill: #1f77b4"/>
   </g>
   <g id="patch_10">
    <path d="M 148.978125 248.071627 
L 177.511849 248.071627 
L 177.511849 229.496986 
L 148.978125 229.496986 
z
" clip-path="url(#p7b7391430e)" style="fill: #1f77b4"/>
   </g>
   <g id="patch_11">
    <path d="M 148.978125 224.853326 
L 177.511849 224.853326 
L 177.511849 206.278686 
L 148.978125 206.278686 
z
" clip-path="url(#p7b7391430e)" style="fill: #1f77b4"/>
   </g>
   <g id="patch_12">
    <path d="M 148.978125 201.635026 
L 177.511849 201.635026 
L 177.511849 183.060385 
L 148.978125 183.060385 
z
" clip-path="url(#p7b7391430e)" style="fill: #1f77b4"/>
   </g>
   <g id="patch_13">
    <path d="M 148.978125 178.416725 
L 191.778711 178.416725 
L 191.778711 159.842085 
L 148.978125 159.842085 
z
" clip-path="url(#p7b7391430e)" style="fill: #1f77b4"/>
   </g>
   <g id="patch_14">
    <path d="M 148.978125 155.198425 
L 206.045573 155.198425 
L 206.045573 136.623784 
L 148.978125 136.623784 
z
" clip-path="url(#p7b7391430e)" style="fill: #1f77b4"/>
   </g>
   <g id="patch_15">
    <path d="M 148.978125 131.980124 
L 206.045573 131.980124 
L 206.045573 113.405484 
L 148.978125 113.405484 
z
" clip-path="url(#p7b7391430e)" style="fill: #1f77b4"/>
   </g>
   <g id="patch_16">
    <path d="M 148.978125 108.761824 
L 291.646745 108.761824 
L 291.646745 90.187183 
L 148.978125 90.187183 
z
" clip-path="url(#p7b7391430e)" style="fill: #1f77b4"/>
   </g>
   <g id="patch_17">
    <path d="M 148.978125 85.543523 
L 348.714193 85.543523 
L 348.714193 66.968883 
L 148.978125 66.968883 
z
" clip-path="url(#p7b7391430e)" style="fill: #1f77b4"/>
   </g>
   <g id="patch_18">
    <path d="M 148.978125 62.325223 
L 377.247917 62.325223 
L 377.247917 43.750582 
L 148.978125 43.750582 
z
" clip-path="url(#p7b7391430e)" style="fill: #1f77b4"/>
   </g>
   <g id="matplotlib.axis_1">
    <g id="xtick_1">
     <g id="line2d_1">
      <defs>
       <path id="m4c99cd72f3" d="M 0 0 
L 0 3.5 
" style="stroke: #000000; stroke-width: 0.8"/>
      </defs>
      <g>
       <use xlink:href="#m4c99cd72f3" x="148.978125" y="428.942187" style="stroke: #000000; stroke-width: 0.8"/>
      </g>
     </g>
     <g id="text_1">
      <!-- 0 -->
      <g transform="translate(146.197656 443.115625)scale(0.1 -0.1)">
       <defs>
        <path id="Helvetica-30" d="M 1731 4475 
Q 2600 4475 2988 3759 
Q 3288 3206 3288 2244 
Q 3288 1331 3016 734 
Q 2622 -122 1728 -122 
Q 922 -122 528 578 
Q 200 1163 200 2147 
Q 200 2909 397 3456 
Q 766 4475 1731 4475 
z
M 1725 391 
Q 2163 391 2422 778 
Q 2681 1166 2681 2222 
Q 2681 2984 2493 3476 
Q 2306 3969 1766 3969 
Q 1269 3969 1039 3501 
Q 809 3034 809 2125 
Q 809 1441 956 1025 
Q 1181 391 1725 391 
z
" transform="scale(0.015625)"/>
       </defs>
       <use xlink:href="#Helvetica-30"/>
      </g>
     </g>
    </g>
    <g id="xtick_2">
     <g id="line2d_2">
      <g>
       <use xlink:href="#m4c99cd72f3" x="196.05877" y="428.942187" style="stroke: #000000; stroke-width: 0.8"/>
      </g>
     </g>
     <g id="text_2">
      <!-- 5 -->
      <g transform="translate(193.278301 443.115625)scale(0.1 -0.1)">
       <defs>
        <path id="Helvetica-35" d="M 791 1141 
Q 847 659 1238 475 
Q 1438 381 1700 381 
Q 2200 381 2440 700 
Q 2681 1019 2681 1406 
Q 2681 1875 2395 2131 
Q 2109 2388 1709 2388 
Q 1419 2388 1211 2275 
Q 1003 2163 856 1963 
L 369 1991 
L 709 4400 
L 3034 4400 
L 3034 3856 
L 1131 3856 
L 941 2613 
Q 1097 2731 1238 2791 
Q 1488 2894 1816 2894 
Q 2431 2894 2859 2497 
Q 3288 2100 3288 1491 
Q 3288 856 2895 371 
Q 2503 -113 1644 -113 
Q 1097 -113 676 195 
Q 256 503 206 1141 
L 791 1141 
z
" transform="scale(0.015625)"/>
       </defs>
       <use xlink:href="#Helvetica-35"/>
      </g>
     </g>
    </g>
    <g id="xtick_3">
     <g id="line2d_3">
      <g>
       <use xlink:href="#m4c99cd72f3" x="243.139414" y="428.942187" style="stroke: #000000; stroke-width: 0.8"/>
      </g>
     </g>
     <g id="text_3">
      <!-- 10 -->
      <g transform="translate(237.578477 443.115625)scale(0.1 -0.1)">
       <defs>
        <path id="Helvetica-31" d="M 613 3169 
L 613 3600 
Q 1222 3659 1462 3798 
Q 1703 3938 1822 4456 
L 2266 4456 
L 2266 0 
L 1666 0 
L 1666 3169 
L 613 3169 
z
" transform="scale(0.015625)"/>
       </defs>
       <use xlink:href="#Helvetica-31"/>
       <use xlink:href="#Helvetica-30" x="55.615234"/>
      </g>
     </g>
    </g>
    <g id="xtick_4">
     <g id="line2d_4">
      <g>
       <use xlink:href="#m4c99cd72f3" x="290.220059" y="428.942187" style="stroke: #000000; stroke-width: 0.8"/>
      </g>
     </g>
     <g id="text_4">
      <!-- 15 -->
      <g transform="translate(284.659121 443.115625)scale(0.1 -0.1)">
       <use xlink:href="#Helvetica-31"/>
       <use xlink:href="#Helvetica-35" x="55.615234"/>
      </g>
     </g>
    </g>
    <g id="xtick_5">
     <g id="line2d_5">
      <g>
       <use xlink:href="#m4c99cd72f3" x="337.300704" y="428.942187" style="stroke: #000000; stroke-width: 0.8"/>
      </g>
     </g>
     <g id="text_5">
      <!-- 20 -->
      <g transform="translate(331.739766 443.115625)scale(0.1 -0.1)">
       <defs>
        <path id="Helvetica-32" d="M 200 0 
Q 231 578 439 1006 
Q 647 1434 1250 1784 
L 1850 2131 
Q 2253 2366 2416 2531 
Q 2672 2791 2672 3125 
Q 2672 3516 2437 3745 
Q 2203 3975 1813 3975 
Q 1234 3975 1013 3538 
Q 894 3303 881 2888 
L 309 2888 
Q 319 3472 525 3841 
Q 891 4491 1816 4491 
Q 2584 4491 2939 4075 
Q 3294 3659 3294 3150 
Q 3294 2613 2916 2231 
Q 2697 2009 2131 1694 
L 1703 1456 
Q 1397 1288 1222 1134 
Q 909 863 828 531 
L 3272 531 
L 3272 0 
L 200 0 
z
" transform="scale(0.015625)"/>
       </defs>
       <use xlink:href="#Helvetica-32"/>
       <use xlink:href="#Helvetica-30" x="55.615234"/>
      </g>
     </g>
    </g>
    <g id="xtick_6">
     <g id="line2d_6">
      <g>
       <use xlink:href="#m4c99cd72f3" x="384.381348" y="428.942187" style="stroke: #000000; stroke-width: 0.8"/>
      </g>
     </g>
     <g id="text_6">
      <!-- 25 -->
      <g transform="translate(378.820411 443.115625)scale(0.1 -0.1)">
       <use xlink:href="#Helvetica-32"/>
       <use xlink:href="#Helvetica-35" x="55.615234"/>
      </g>
     </g>
    </g>
   </g>
   <g id="matplotlib.axis_2">
    <g id="ytick_1">
     <g id="line2d_7">
      <defs>
       <path id="m8e343aef83" d="M 0 0 
L -3.5 0 
" style="stroke: #000000; stroke-width: 0.8"/>
      </defs>
      <g>
       <use xlink:href="#m8e343aef83" x="148.978125" y="401.31241" style="stroke: #000000; stroke-width: 0.8"/>
      </g>
     </g>
     <g id="text_7">
      <!-- Civil Engineering -->
      <g transform="translate(66.942187 404.996785)scale(0.1 -0.1)">
       <defs>
        <path id="Helvetica-43" d="M 2422 4716 
Q 3294 4716 3775 4256 
Q 4256 3797 4309 3213 
L 3703 3213 
Q 3600 3656 3292 3915 
Q 2984 4175 2428 4175 
Q 1750 4175 1333 3698 
Q 916 3222 916 2238 
Q 916 1431 1292 929 
Q 1669 428 2416 428 
Q 3103 428 3463 956 
Q 3653 1234 3747 1688 
L 4353 1688 
Q 4272 963 3816 472 
Q 3269 -119 2341 -119 
Q 1541 -119 997 366 
Q 281 1006 281 2344 
Q 281 3359 819 4009 
Q 1400 4716 2422 4716 
z
M 2297 4716 
L 2297 4716 
z
" transform="scale(0.015625)"/>
        <path id="Helvetica-69" d="M 413 3331 
L 984 3331 
L 984 0 
L 413 0 
L 413 3331 
z
M 413 4591 
L 984 4591 
L 984 3953 
L 413 3953 
L 413 4591 
z
" transform="scale(0.015625)"/>
        <path id="Helvetica-76" d="M 688 3347 
L 1581 622 
L 2516 3347 
L 3131 3347 
L 1869 0 
L 1269 0 
L 34 3347 
L 688 3347 
z
" transform="scale(0.015625)"/>
        <path id="Helvetica-6c" d="M 428 4591 
L 991 4591 
L 991 0 
L 428 0 
L 428 4591 
z
" transform="scale(0.015625)"/>
        <path id="Helvetica-20" transform="scale(0.015625)"/>
        <path id="Helvetica-45" d="M 547 4591 
L 3894 4591 
L 3894 4028 
L 1153 4028 
L 1153 2634 
L 3688 2634 
L 3688 2103 
L 1153 2103 
L 1153 547 
L 3941 547 
L 3941 0 
L 547 0 
L 547 4591 
z
M 2244 4591 
L 2244 4591 
z
" transform="scale(0.015625)"/>
        <path id="Helvetica-6e" d="M 413 3347 
L 947 3347 
L 947 2872 
Q 1184 3166 1450 3294 
Q 1716 3422 2041 3422 
Q 2753 3422 3003 2925 
Q 3141 2653 3141 2147 
L 3141 0 
L 2569 0 
L 2569 2109 
Q 2569 2416 2478 2603 
Q 2328 2916 1934 2916 
Q 1734 2916 1606 2875 
Q 1375 2806 1200 2600 
Q 1059 2434 1017 2257 
Q 975 2081 975 1753 
L 975 0 
L 413 0 
L 413 3347 
z
M 1734 3428 
L 1734 3428 
z
" transform="scale(0.015625)"/>
        <path id="Helvetica-67" d="M 1594 3406 
Q 1988 3406 2281 3213 
Q 2441 3103 2606 2894 
L 2606 3316 
L 3125 3316 
L 3125 272 
Q 3125 -366 2938 -734 
Q 2588 -1416 1616 -1416 
Q 1075 -1416 706 -1173 
Q 338 -931 294 -416 
L 866 -416 
Q 906 -641 1028 -763 
Q 1219 -950 1628 -950 
Q 2275 -950 2475 -494 
Q 2594 -225 2584 466 
Q 2416 209 2178 84 
Q 1941 -41 1550 -41 
Q 1006 -41 598 345 
Q 191 731 191 1622 
Q 191 2463 602 2934 
Q 1013 3406 1594 3406 
z
M 2606 1688 
Q 2606 2309 2350 2609 
Q 2094 2909 1697 2909 
Q 1103 2909 884 2353 
Q 769 2056 769 1575 
Q 769 1009 998 714 
Q 1228 419 1616 419 
Q 2222 419 2469 966 
Q 2606 1275 2606 1688 
z
M 1659 3428 
L 1659 3428 
z
" transform="scale(0.015625)"/>
        <path id="Helvetica-65" d="M 1806 3422 
Q 2163 3422 2497 3255 
Q 2831 3088 3006 2822 
Q 3175 2569 3231 2231 
Q 3281 2000 3281 1494 
L 828 1494 
Q 844 984 1069 676 
Q 1294 369 1766 369 
Q 2206 369 2469 659 
Q 2619 828 2681 1050 
L 3234 1050 
Q 3213 866 3089 639 
Q 2966 413 2813 269 
Q 2556 19 2178 -69 
Q 1975 -119 1719 -119 
Q 1094 -119 659 336 
Q 225 791 225 1609 
Q 225 2416 662 2919 
Q 1100 3422 1806 3422 
z
M 2703 1941 
Q 2669 2306 2544 2525 
Q 2313 2931 1772 2931 
Q 1384 2931 1121 2651 
Q 859 2372 844 1941 
L 2703 1941 
z
M 1753 3428 
L 1753 3428 
z
" transform="scale(0.015625)"/>
        <path id="Helvetica-72" d="M 428 3347 
L 963 3347 
L 963 2769 
Q 1028 2938 1284 3180 
Q 1541 3422 1875 3422 
Q 1891 3422 1928 3419 
Q 1966 3416 2056 3406 
L 2056 2813 
Q 2006 2822 1964 2825 
Q 1922 2828 1872 2828 
Q 1447 2828 1219 2554 
Q 991 2281 991 1925 
L 991 0 
L 428 0 
L 428 3347 
z
" transform="scale(0.015625)"/>
       </defs>
       <use xlink:href="#Helvetica-43"/>
       <use xlink:href="#Helvetica-69" x="72.216797"/>
       <use xlink:href="#Helvetica-76" x="94.433594"/>
       <use xlink:href="#Helvetica-69" x="144.433594"/>
       <use xlink:href="#Helvetica-6c" x="166.650391"/>
       <use xlink:href="#Helvetica-20" x="188.867188"/>
       <use xlink:href="#Helvetica-45" x="216.650391"/>
       <use xlink:href="#Helvetica-6e" x="283.349609"/>
       <use xlink:href="#Helvetica-67" x="338.964844"/>
       <use xlink:href="#Helvetica-69" x="394.580078"/>
       <use xlink:href="#Helvetica-6e" x="416.796875"/>
       <use xlink:href="#Helvetica-65" x="472.412109"/>
       <use xlink:href="#Helvetica-65" x="528.027344"/>
       <use xlink:href="#Helvetica-72" x="583.642578"/>
       <use xlink:href="#Helvetica-69" x="616.943359"/>
       <use xlink:href="#Helvetica-6e" x="639.160156"/>
       <use xlink:href="#Helvetica-67" x="694.775391"/>
      </g>
     </g>
    </g>
    <g id="ytick_2">
     <g id="line2d_8">
      <g>
       <use xlink:href="#m8e343aef83" x="148.978125" y="378.094109" style="stroke: #000000; stroke-width: 0.8"/>
      </g>
     </g>
     <g id="text_8">
      <!-- Sociology -->
      <g transform="translate(98.620312 381.778484)scale(0.1 -0.1)">
       <defs>
        <path id="Helvetica-53" d="M 894 1481 
Q 916 1091 1078 847 
Q 1388 391 2169 391 
Q 2519 391 2806 491 
Q 3363 684 3363 1184 
Q 3363 1559 3128 1719 
Q 2891 1875 2384 1991 
L 1763 2131 
Q 1153 2269 900 2434 
Q 463 2722 463 3294 
Q 463 3913 891 4309 
Q 1319 4706 2103 4706 
Q 2825 4706 3329 4357 
Q 3834 4009 3834 3244 
L 3250 3244 
Q 3203 3613 3050 3809 
Q 2766 4169 2084 4169 
Q 1534 4169 1293 3937 
Q 1053 3706 1053 3400 
Q 1053 3063 1334 2906 
Q 1519 2806 2169 2656 
L 2813 2509 
Q 3278 2403 3531 2219 
Q 3969 1897 3969 1284 
Q 3969 522 3414 194 
Q 2859 -134 2125 -134 
Q 1269 -134 784 303 
Q 300 738 309 1481 
L 894 1481 
z
M 2150 4716 
L 2150 4716 
z
" transform="scale(0.015625)"/>
        <path id="Helvetica-6f" d="M 1741 363 
Q 2300 363 2508 786 
Q 2716 1209 2716 1728 
Q 2716 2197 2566 2491 
Q 2328 2953 1747 2953 
Q 1231 2953 997 2559 
Q 763 2166 763 1609 
Q 763 1075 997 719 
Q 1231 363 1741 363 
z
M 1763 3444 
Q 2409 3444 2856 3012 
Q 3303 2581 3303 1744 
Q 3303 934 2909 406 
Q 2516 -122 1688 -122 
Q 997 -122 590 345 
Q 184 813 184 1600 
Q 184 2444 612 2944 
Q 1041 3444 1763 3444 
z
M 1744 3428 
L 1744 3428 
z
" transform="scale(0.015625)"/>
        <path id="Helvetica-63" d="M 1703 3444 
Q 2269 3444 2623 3169 
Q 2978 2894 3050 2222 
L 2503 2222 
Q 2453 2531 2275 2736 
Q 2097 2941 1703 2941 
Q 1166 2941 934 2416 
Q 784 2075 784 1575 
Q 784 1072 996 728 
Q 1209 384 1666 384 
Q 2016 384 2220 598 
Q 2425 813 2503 1184 
L 3050 1184 
Q 2956 519 2581 211 
Q 2206 -97 1622 -97 
Q 966 -97 575 383 
Q 184 863 184 1581 
Q 184 2463 612 2953 
Q 1041 3444 1703 3444 
z
M 1616 3428 
L 1616 3428 
z
" transform="scale(0.015625)"/>
        <path id="Helvetica-79" d="M 2503 3347 
L 3125 3347 
Q 3006 3025 2597 1878 
Q 2291 1016 2084 472 
Q 1597 -809 1397 -1090 
Q 1197 -1372 709 -1372 
Q 591 -1372 527 -1362 
Q 463 -1353 369 -1328 
L 369 -816 
Q 516 -856 581 -865 
Q 647 -875 697 -875 
Q 853 -875 926 -823 
Q 1000 -772 1050 -697 
Q 1066 -672 1162 -440 
Q 1259 -209 1303 -97 
L 66 3347 
L 703 3347 
L 1600 622 
L 2503 3347 
z
M 1597 3428 
L 1597 3428 
z
" transform="scale(0.015625)"/>
       </defs>
       <use xlink:href="#Helvetica-53"/>
       <use xlink:href="#Helvetica-6f" x="66.699219"/>
       <use xlink:href="#Helvetica-63" x="122.314453"/>
       <use xlink:href="#Helvetica-69" x="172.314453"/>
       <use xlink:href="#Helvetica-6f" x="194.53125"/>
       <use xlink:href="#Helvetica-6c" x="250.146484"/>
       <use xlink:href="#Helvetica-6f" x="272.363281"/>
       <use xlink:href="#Helvetica-67" x="327.978516"/>
       <use xlink:href="#Helvetica-79" x="383.59375"/>
      </g>
     </g>
    </g>
    <g id="ytick_3">
     <g id="line2d_9">
      <g>
       <use xlink:href="#m8e343aef83" x="148.978125" y="354.875809" style="stroke: #000000; stroke-width: 0.8"/>
      </g>
     </g>
     <g id="text_9">
      <!-- Fashion -->
      <g transform="translate(106.404687 358.462528)scale(0.1 -0.1)">
       <defs>
        <path id="Helvetica-46" d="M 547 4591 
L 3731 4591 
L 3731 4028 
L 1169 4028 
L 1169 2634 
L 3422 2634 
L 3422 2088 
L 1169 2088 
L 1169 0 
L 547 0 
L 547 4591 
z
" transform="scale(0.015625)"/>
        <path id="Helvetica-61" d="M 844 891 
Q 844 647 1022 506 
Q 1200 366 1444 366 
Q 1741 366 2019 503 
Q 2488 731 2488 1250 
L 2488 1703 
Q 2384 1638 2221 1594 
Q 2059 1550 1903 1531 
L 1563 1488 
Q 1256 1447 1103 1359 
Q 844 1213 844 891 
z
M 2206 2028 
Q 2400 2053 2466 2191 
Q 2503 2266 2503 2406 
Q 2503 2694 2298 2823 
Q 2094 2953 1713 2953 
Q 1272 2953 1088 2716 
Q 984 2584 953 2325 
L 428 2325 
Q 444 2944 830 3186 
Q 1216 3428 1725 3428 
Q 2316 3428 2684 3203 
Q 3050 2978 3050 2503 
L 3050 575 
Q 3050 488 3086 434 
Q 3122 381 3238 381 
Q 3275 381 3322 386 
Q 3369 391 3422 400 
L 3422 -16 
Q 3291 -53 3222 -62 
Q 3153 -72 3034 -72 
Q 2744 -72 2613 134 
Q 2544 244 2516 444 
Q 2344 219 2022 53 
Q 1700 -113 1313 -113 
Q 847 -113 551 170 
Q 256 453 256 878 
Q 256 1344 547 1600 
Q 838 1856 1309 1916 
L 2206 2028 
z
M 1741 3428 
L 1741 3428 
z
" transform="scale(0.015625)"/>
        <path id="Helvetica-73" d="M 747 1050 
Q 772 769 888 619 
Q 1100 347 1625 347 
Q 1938 347 2175 483 
Q 2413 619 2413 903 
Q 2413 1119 2222 1231 
Q 2100 1300 1741 1391 
L 1294 1503 
Q 866 1609 663 1741 
Q 300 1969 300 2372 
Q 300 2847 642 3140 
Q 984 3434 1563 3434 
Q 2319 3434 2653 2991 
Q 2863 2709 2856 2384 
L 2325 2384 
Q 2309 2575 2191 2731 
Q 1997 2953 1519 2953 
Q 1200 2953 1036 2831 
Q 872 2709 872 2509 
Q 872 2291 1088 2159 
Q 1213 2081 1456 2022 
L 1828 1931 
Q 2434 1784 2641 1647 
Q 2969 1431 2969 969 
Q 2969 522 2630 197 
Q 2291 -128 1597 -128 
Q 850 -128 539 211 
Q 228 550 206 1050 
L 747 1050 
z
M 1578 3428 
L 1578 3428 
z
" transform="scale(0.015625)"/>
        <path id="Helvetica-68" d="M 413 4606 
L 975 4606 
L 975 2894 
Q 1175 3147 1334 3250 
Q 1606 3428 2013 3428 
Q 2741 3428 3000 2919 
Q 3141 2641 3141 2147 
L 3141 0 
L 2563 0 
L 2563 2109 
Q 2563 2478 2469 2650 
Q 2316 2925 1894 2925 
Q 1544 2925 1259 2684 
Q 975 2444 975 1775 
L 975 0 
L 413 0 
L 413 4606 
z
" transform="scale(0.015625)"/>
       </defs>
       <use xlink:href="#Helvetica-46"/>
       <use xlink:href="#Helvetica-61" x="61.083984"/>
       <use xlink:href="#Helvetica-73" x="116.699219"/>
       <use xlink:href="#Helvetica-68" x="166.699219"/>
       <use xlink:href="#Helvetica-69" x="222.314453"/>
       <use xlink:href="#Helvetica-6f" x="244.53125"/>
       <use xlink:href="#Helvetica-6e" x="300.146484"/>
      </g>
     </g>
    </g>
    <g id="ytick_4">
     <g id="line2d_10">
      <g>
       <use xlink:href="#m8e343aef83" x="148.978125" y="331.657508" style="stroke: #000000; stroke-width: 0.8"/>
      </g>
     </g>
    </g>
    <g id="ytick_5">
     <g id="line2d_11">
      <g>
       <use xlink:href="#m8e343aef83" x="148.978125" y="308.439208" style="stroke: #000000; stroke-width: 0.8"/>
      </g>
     </g>
     <g id="text_10">
      <!-- Aeronautical &amp; Manufacturing -->
      <g transform="translate(10.8 307.383739)scale(0.1 -0.1)">
       <defs>
        <path id="Helvetica-41" d="M 2844 1881 
L 2147 3909 
L 1406 1881 
L 2844 1881 
z
M 1822 4591 
L 2525 4591 
L 4191 0 
L 3509 0 
L 3044 1375 
L 1228 1375 
L 731 0 
L 94 0 
L 1822 4591 
z
M 2144 4591 
L 2144 4591 
z
" transform="scale(0.015625)"/>
        <path id="Helvetica-75" d="M 975 3347 
L 975 1125 
Q 975 869 1056 706 
Q 1206 406 1616 406 
Q 2203 406 2416 931 
Q 2531 1213 2531 1703 
L 2531 3347 
L 3094 3347 
L 3094 0 
L 2563 0 
L 2569 494 
Q 2459 303 2297 172 
Q 1975 -91 1516 -91 
Q 800 -91 541 388 
Q 400 644 400 1072 
L 400 3347 
L 975 3347 
z
M 1747 3428 
L 1747 3428 
z
" transform="scale(0.015625)"/>
        <path id="Helvetica-74" d="M 525 4281 
L 1094 4281 
L 1094 3347 
L 1628 3347 
L 1628 2888 
L 1094 2888 
L 1094 703 
Q 1094 528 1213 469 
Q 1278 434 1431 434 
Q 1472 434 1519 436 
Q 1566 438 1628 444 
L 1628 0 
Q 1531 -28 1426 -40 
Q 1322 -53 1200 -53 
Q 806 -53 665 148 
Q 525 350 525 672 
L 525 2888 
L 72 2888 
L 72 3347 
L 525 3347 
L 525 4281 
z
" transform="scale(0.015625)"/>
        <path id="Helvetica-26" d="M 1828 2806 
Q 2125 3016 2238 3147 
Q 2422 3359 2422 3619 
Q 2422 3822 2287 3969 
Q 2153 4116 1925 4116 
Q 1578 4116 1444 3884 
Q 1375 3766 1375 3625 
Q 1375 3434 1479 3259 
Q 1584 3084 1828 2806 
z
M 1684 388 
Q 2031 388 2281 547 
Q 2531 706 2666 903 
L 1628 2169 
Q 1188 1875 1053 1719 
Q 847 1484 847 1147 
Q 847 781 1114 584 
Q 1381 388 1684 388 
z
M 1316 2553 
Q 1025 2888 926 3116 
Q 828 3344 828 3556 
Q 828 4000 1128 4292 
Q 1428 4584 1931 4584 
Q 2409 4584 2678 4312 
Q 2947 4041 2947 3663 
Q 2947 3222 2669 2891 
Q 2506 2697 2125 2444 
L 2963 1444 
Q 3047 1694 3080 1817 
Q 3113 1941 3147 2163 
L 3681 2163 
Q 3628 1722 3468 1317 
Q 3309 913 3309 991 
L 4125 0 
L 3400 0 
L 2969 525 
Q 2713 247 2500 119 
Q 2128 -106 1644 -106 
Q 928 -106 603 280 
Q 278 666 278 1150 
Q 278 1672 594 2022 
Q 788 2234 1316 2553 
z
" transform="scale(0.015625)"/>
        <path id="Helvetica-4d" d="M 472 4591 
L 1363 4591 
L 2681 709 
L 3991 4591 
L 4872 4591 
L 4872 0 
L 4281 0 
L 4281 2709 
Q 4281 2850 4287 3175 
Q 4294 3500 4294 3872 
L 2984 0 
L 2369 0 
L 1050 3872 
L 1050 3731 
Q 1050 3563 1058 3217 
Q 1066 2872 1066 2709 
L 1066 0 
L 472 0 
L 472 4591 
z
" transform="scale(0.015625)"/>
        <path id="Helvetica-66" d="M 553 3856 
Q 566 4206 675 4369 
Q 872 4656 1434 4656 
Q 1488 4656 1544 4653 
Q 1600 4650 1672 4644 
L 1672 4131 
Q 1584 4138 1545 4139 
Q 1506 4141 1472 4141 
Q 1216 4141 1166 4008 
Q 1116 3875 1116 3331 
L 1672 3331 
L 1672 2888 
L 1109 2888 
L 1109 0 
L 553 0 
L 553 2888 
L 88 2888 
L 88 3331 
L 553 3331 
L 553 3856 
z
" transform="scale(0.015625)"/>
       </defs>
       <use xlink:href="#Helvetica-41"/>
       <use xlink:href="#Helvetica-65" x="66.699219"/>
       <use xlink:href="#Helvetica-72" x="122.314453"/>
       <use xlink:href="#Helvetica-6f" x="155.615234"/>
       <use xlink:href="#Helvetica-6e" x="211.230469"/>
       <use xlink:href="#Helvetica-61" x="266.845703"/>
       <use xlink:href="#Helvetica-75" x="322.460938"/>
       <use xlink:href="#Helvetica-74" x="378.076172"/>
       <use xlink:href="#Helvetica-69" x="405.859375"/>
       <use xlink:href="#Helvetica-63" x="428.076172"/>
       <use xlink:href="#Helvetica-61" x="478.076172"/>
       <use xlink:href="#Helvetica-6c" x="533.691406"/>
       <use xlink:href="#Helvetica-20" x="555.908203"/>
       <use xlink:href="#Helvetica-26" x="583.691406"/>
       <use xlink:href="#Helvetica-20" x="650.390625"/>
       <use xlink:href="#Helvetica-4d" x="678.173828"/>
       <use xlink:href="#Helvetica-61" x="761.474609"/>
       <use xlink:href="#Helvetica-6e" x="817.089844"/>
       <use xlink:href="#Helvetica-75" x="872.705078"/>
       <use xlink:href="#Helvetica-66" x="928.320312"/>
       <use xlink:href="#Helvetica-61" x="956.103516"/>
       <use xlink:href="#Helvetica-63" x="1011.71875"/>
       <use xlink:href="#Helvetica-74" x="1061.71875"/>
       <use xlink:href="#Helvetica-75" x="1089.501953"/>
       <use xlink:href="#Helvetica-72" x="1145.117188"/>
       <use xlink:href="#Helvetica-69" x="1178.417969"/>
       <use xlink:href="#Helvetica-6e" x="1200.634766"/>
       <use xlink:href="#Helvetica-67" x="1256.25"/>
      </g>
      <!-- Engineering -->
      <g transform="translate(88.607812 318.204364)scale(0.1 -0.1)">
       <use xlink:href="#Helvetica-45"/>
       <use xlink:href="#Helvetica-6e" x="66.699219"/>
       <use xlink:href="#Helvetica-67" x="122.314453"/>
       <use xlink:href="#Helvetica-69" x="177.929688"/>
       <use xlink:href="#Helvetica-6e" x="200.146484"/>
       <use xlink:href="#Helvetica-65" x="255.761719"/>
       <use xlink:href="#Helvetica-65" x="311.376953"/>
       <use xlink:href="#Helvetica-72" x="366.992188"/>
       <use xlink:href="#Helvetica-69" x="400.292969"/>
       <use xlink:href="#Helvetica-6e" x="422.509766"/>
       <use xlink:href="#Helvetica-67" x="478.125"/>
      </g>
     </g>
    </g>
    <g id="ytick_6">
     <g id="line2d_12">
      <g>
       <use xlink:href="#m8e343aef83" x="148.978125" y="285.220907" style="stroke: #000000; stroke-width: 0.8"/>
      </g>
     </g>
     <g id="text_11">
      <!-- Communication &amp; Media -->
      <g transform="translate(33.048437 284.17872)scale(0.1 -0.1)">
       <defs>
        <path id="Helvetica-6d" d="M 413 3347 
L 969 3347 
L 969 2872 
Q 1169 3119 1331 3231 
Q 1609 3422 1963 3422 
Q 2363 3422 2606 3225 
Q 2744 3113 2856 2894 
Q 3044 3163 3297 3292 
Q 3550 3422 3866 3422 
Q 4541 3422 4784 2934 
Q 4916 2672 4916 2228 
L 4916 0 
L 4331 0 
L 4331 2325 
Q 4331 2659 4164 2784 
Q 3997 2909 3756 2909 
Q 3425 2909 3186 2687 
Q 2947 2466 2947 1947 
L 2947 0 
L 2375 0 
L 2375 2184 
Q 2375 2525 2294 2681 
Q 2166 2916 1816 2916 
Q 1497 2916 1236 2669 
Q 975 2422 975 1775 
L 975 0 
L 413 0 
L 413 3347 
z
" transform="scale(0.015625)"/>
        <path id="Helvetica-64" d="M 769 1634 
Q 769 1097 997 734 
Q 1225 372 1728 372 
Q 2119 372 2370 708 
Q 2622 1044 2622 1672 
Q 2622 2306 2362 2611 
Q 2103 2916 1722 2916 
Q 1297 2916 1033 2591 
Q 769 2266 769 1634 
z
M 1616 3406 
Q 2000 3406 2259 3244 
Q 2409 3150 2600 2916 
L 2600 4606 
L 3141 4606 
L 3141 0 
L 2634 0 
L 2634 466 
Q 2438 156 2169 18 
Q 1900 -119 1553 -119 
Q 994 -119 584 351 
Q 175 822 175 1603 
Q 175 2334 548 2870 
Q 922 3406 1616 3406 
z
" transform="scale(0.015625)"/>
       </defs>
       <use xlink:href="#Helvetica-43"/>
       <use xlink:href="#Helvetica-6f" x="72.216797"/>
       <use xlink:href="#Helvetica-6d" x="127.832031"/>
       <use xlink:href="#Helvetica-6d" x="211.132812"/>
       <use xlink:href="#Helvetica-75" x="294.433594"/>
       <use xlink:href="#Helvetica-6e" x="350.048828"/>
       <use xlink:href="#Helvetica-69" x="405.664062"/>
       <use xlink:href="#Helvetica-63" x="427.880859"/>
       <use xlink:href="#Helvetica-61" x="477.880859"/>
       <use xlink:href="#Helvetica-74" x="533.496094"/>
       <use xlink:href="#Helvetica-69" x="561.279297"/>
       <use xlink:href="#Helvetica-6f" x="583.496094"/>
       <use xlink:href="#Helvetica-6e" x="639.111328"/>
       <use xlink:href="#Helvetica-20" x="694.726562"/>
       <use xlink:href="#Helvetica-26" x="722.509766"/>
       <use xlink:href="#Helvetica-20" x="789.208984"/>
       <use xlink:href="#Helvetica-4d" x="816.992188"/>
       <use xlink:href="#Helvetica-65" x="900.292969"/>
       <use xlink:href="#Helvetica-64" x="955.908203"/>
       <use xlink:href="#Helvetica-69" x="1011.523438"/>
       <use xlink:href="#Helvetica-61" x="1033.740234"/>
      </g>
      <!-- Studies -->
      <g transform="translate(108.625 294.87122)scale(0.1 -0.1)">
       <use xlink:href="#Helvetica-53"/>
       <use xlink:href="#Helvetica-74" x="66.699219"/>
       <use xlink:href="#Helvetica-75" x="94.482422"/>
       <use xlink:href="#Helvetica-64" x="150.097656"/>
       <use xlink:href="#Helvetica-69" x="205.712891"/>
       <use xlink:href="#Helvetica-65" x="227.929688"/>
       <use xlink:href="#Helvetica-73" x="283.544922"/>
      </g>
     </g>
    </g>
    <g id="ytick_7">
     <g id="line2d_13">
      <g>
       <use xlink:href="#m8e343aef83" x="148.978125" y="262.002607" style="stroke: #000000; stroke-width: 0.8"/>
      </g>
     </g>
     <g id="text_12">
      <!-- Medicine -->
      <g transform="translate(101.960937 265.589326)scale(0.1 -0.1)">
       <use xlink:href="#Helvetica-4d"/>
       <use xlink:href="#Helvetica-65" x="83.300781"/>
       <use xlink:href="#Helvetica-64" x="138.916016"/>
       <use xlink:href="#Helvetica-69" x="194.53125"/>
       <use xlink:href="#Helvetica-63" x="216.748047"/>
       <use xlink:href="#Helvetica-69" x="266.748047"/>
       <use xlink:href="#Helvetica-6e" x="288.964844"/>
       <use xlink:href="#Helvetica-65" x="344.580078"/>
      </g>
     </g>
    </g>
    <g id="ytick_8">
     <g id="line2d_14">
      <g>
       <use xlink:href="#m8e343aef83" x="148.978125" y="238.784306" style="stroke: #000000; stroke-width: 0.8"/>
      </g>
     </g>
     <g id="text_13">
      <!-- Linguistics -->
      <g transform="translate(95.290625 242.371025)scale(0.1 -0.1)">
       <defs>
        <path id="Helvetica-4c" d="M 488 4591 
L 1109 4591 
L 1109 547 
L 3434 547 
L 3434 0 
L 488 0 
L 488 4591 
z
" transform="scale(0.015625)"/>
       </defs>
       <use xlink:href="#Helvetica-4c"/>
       <use xlink:href="#Helvetica-69" x="55.615234"/>
       <use xlink:href="#Helvetica-6e" x="77.832031"/>
       <use xlink:href="#Helvetica-67" x="133.447266"/>
       <use xlink:href="#Helvetica-75" x="189.0625"/>
       <use xlink:href="#Helvetica-69" x="244.677734"/>
       <use xlink:href="#Helvetica-73" x="266.894531"/>
       <use xlink:href="#Helvetica-74" x="316.894531"/>
       <use xlink:href="#Helvetica-69" x="344.677734"/>
       <use xlink:href="#Helvetica-63" x="366.894531"/>
       <use xlink:href="#Helvetica-73" x="416.894531"/>
      </g>
     </g>
    </g>
    <g id="ytick_9">
     <g id="line2d_15">
      <g>
       <use xlink:href="#m8e343aef83" x="148.978125" y="215.566006" style="stroke: #000000; stroke-width: 0.8"/>
      </g>
     </g>
     <g id="text_14">
      <!-- Electrical &amp; Electronic -->
      <g transform="translate(45.28125 214.523819)scale(0.1 -0.1)">
       <use xlink:href="#Helvetica-45"/>
       <use xlink:href="#Helvetica-6c" x="66.699219"/>
       <use xlink:href="#Helvetica-65" x="88.916016"/>
       <use xlink:href="#Helvetica-63" x="144.53125"/>
       <use xlink:href="#Helvetica-74" x="194.53125"/>
       <use xlink:href="#Helvetica-72" x="222.314453"/>
       <use xlink:href="#Helvetica-69" x="255.615234"/>
       <use xlink:href="#Helvetica-63" x="277.832031"/>
       <use xlink:href="#Helvetica-61" x="327.832031"/>
       <use xlink:href="#Helvetica-6c" x="383.447266"/>
       <use xlink:href="#Helvetica-20" x="405.664062"/>
       <use xlink:href="#Helvetica-26" x="433.447266"/>
       <use xlink:href="#Helvetica-20" x="500.146484"/>
       <use xlink:href="#Helvetica-45" x="527.929688"/>
       <use xlink:href="#Helvetica-6c" x="594.628906"/>
       <use xlink:href="#Helvetica-65" x="616.845703"/>
       <use xlink:href="#Helvetica-63" x="672.460938"/>
       <use xlink:href="#Helvetica-74" x="722.460938"/>
       <use xlink:href="#Helvetica-72" x="750.244141"/>
       <use xlink:href="#Helvetica-6f" x="783.544922"/>
       <use xlink:href="#Helvetica-6e" x="839.160156"/>
       <use xlink:href="#Helvetica-69" x="894.775391"/>
       <use xlink:href="#Helvetica-63" x="916.992188"/>
      </g>
      <!-- Engineering -->
      <g transform="translate(88.607812 225.216319)scale(0.1 -0.1)">
       <use xlink:href="#Helvetica-45"/>
       <use xlink:href="#Helvetica-6e" x="66.699219"/>
       <use xlink:href="#Helvetica-67" x="122.314453"/>
       <use xlink:href="#Helvetica-69" x="177.929688"/>
       <use xlink:href="#Helvetica-6e" x="200.146484"/>
       <use xlink:href="#Helvetica-65" x="255.761719"/>
       <use xlink:href="#Helvetica-65" x="311.376953"/>
       <use xlink:href="#Helvetica-72" x="366.992188"/>
       <use xlink:href="#Helvetica-69" x="400.292969"/>
       <use xlink:href="#Helvetica-6e" x="422.509766"/>
       <use xlink:href="#Helvetica-67" x="478.125"/>
      </g>
     </g>
    </g>
    <g id="ytick_10">
     <g id="line2d_16">
      <g>
       <use xlink:href="#m8e343aef83" x="148.978125" y="192.347706" style="stroke: #000000; stroke-width: 0.8"/>
      </g>
     </g>
     <g id="text_15">
      <!-- Mathematics -->
      <g transform="translate(85.296875 195.934424)scale(0.1 -0.1)">
       <use xlink:href="#Helvetica-4d"/>
       <use xlink:href="#Helvetica-61" x="83.300781"/>
       <use xlink:href="#Helvetica-74" x="138.916016"/>
       <use xlink:href="#Helvetica-68" x="166.699219"/>
       <use xlink:href="#Helvetica-65" x="222.314453"/>
       <use xlink:href="#Helvetica-6d" x="277.929688"/>
       <use xlink:href="#Helvetica-61" x="361.230469"/>
       <use xlink:href="#Helvetica-74" x="416.845703"/>
       <use xlink:href="#Helvetica-69" x="444.628906"/>
       <use xlink:href="#Helvetica-63" x="466.845703"/>
       <use xlink:href="#Helvetica-73" x="516.845703"/>
      </g>
     </g>
    </g>
    <g id="ytick_11">
     <g id="line2d_17">
      <g>
       <use xlink:href="#m8e343aef83" x="148.978125" y="169.129405" style="stroke: #000000; stroke-width: 0.8"/>
      </g>
     </g>
     <g id="text_16">
      <!-- Psychology -->
      <g transform="translate(90.842187 172.727843)scale(0.1 -0.1)">
       <defs>
        <path id="Helvetica-50" d="M 547 4591 
L 2613 4591 
Q 3225 4591 3600 4245 
Q 3975 3900 3975 3275 
Q 3975 2738 3640 2339 
Q 3306 1941 2613 1941 
L 1169 1941 
L 1169 0 
L 547 0 
L 547 4591 
z
M 3347 3272 
Q 3347 3778 2972 3959 
Q 2766 4056 2406 4056 
L 1169 4056 
L 1169 2466 
L 2406 2466 
Q 2825 2466 3086 2644 
Q 3347 2822 3347 3272 
z
" transform="scale(0.015625)"/>
       </defs>
       <use xlink:href="#Helvetica-50"/>
       <use xlink:href="#Helvetica-73" x="66.699219"/>
       <use xlink:href="#Helvetica-79" x="116.699219"/>
       <use xlink:href="#Helvetica-63" x="166.699219"/>
       <use xlink:href="#Helvetica-68" x="216.699219"/>
       <use xlink:href="#Helvetica-6f" x="272.314453"/>
       <use xlink:href="#Helvetica-6c" x="327.929688"/>
       <use xlink:href="#Helvetica-6f" x="350.146484"/>
       <use xlink:href="#Helvetica-67" x="405.761719"/>
       <use xlink:href="#Helvetica-79" x="461.376953"/>
      </g>
     </g>
    </g>
    <g id="ytick_12">
     <g id="line2d_18">
      <g>
       <use xlink:href="#m8e343aef83" x="148.978125" y="145.911105" style="stroke: #000000; stroke-width: 0.8"/>
      </g>
     </g>
     <g id="text_17">
      <!-- Geography &amp; Environmental -->
      <g transform="translate(16.360937 144.902511)scale(0.1 -0.1)">
       <defs>
        <path id="Helvetica-47" d="M 2472 4709 
Q 3119 4709 3591 4459 
Q 4275 4100 4428 3200 
L 3813 3200 
Q 3700 3703 3347 3933 
Q 2994 4163 2456 4163 
Q 1819 4163 1383 3684 
Q 947 3206 947 2259 
Q 947 1441 1306 927 
Q 1666 413 2478 413 
Q 3100 413 3508 773 
Q 3916 1134 3925 1941 
L 2488 1941 
L 2488 2456 
L 4503 2456 
L 4503 0 
L 4103 0 
L 3953 591 
Q 3638 244 3394 109 
Q 2984 -122 2353 -122 
Q 1538 -122 950 406 
Q 309 1069 309 2225 
Q 309 3378 934 4059 
Q 1528 4709 2472 4709 
z
M 2369 4716 
L 2369 4716 
z
" transform="scale(0.015625)"/>
        <path id="Helvetica-70" d="M 1825 378 
Q 2219 378 2480 708 
Q 2741 1038 2741 1694 
Q 2741 2094 2625 2381 
Q 2406 2934 1825 2934 
Q 1241 2934 1025 2350 
Q 909 2038 909 1556 
Q 909 1169 1025 897 
Q 1244 378 1825 378 
z
M 369 3331 
L 916 3331 
L 916 2888 
Q 1084 3116 1284 3241 
Q 1569 3428 1953 3428 
Q 2522 3428 2919 2992 
Q 3316 2556 3316 1747 
Q 3316 653 2744 184 
Q 2381 -113 1900 -113 
Q 1522 -113 1266 53 
Q 1116 147 931 375 
L 931 -1334 
L 369 -1334 
L 369 3331 
z
" transform="scale(0.015625)"/>
       </defs>
       <use xlink:href="#Helvetica-47"/>
       <use xlink:href="#Helvetica-65" x="77.783203"/>
       <use xlink:href="#Helvetica-6f" x="133.398438"/>
       <use xlink:href="#Helvetica-67" x="189.013672"/>
       <use xlink:href="#Helvetica-72" x="244.628906"/>
       <use xlink:href="#Helvetica-61" x="277.929688"/>
       <use xlink:href="#Helvetica-70" x="333.544922"/>
       <use xlink:href="#Helvetica-68" x="389.160156"/>
       <use xlink:href="#Helvetica-79" x="444.775391"/>
       <use xlink:href="#Helvetica-20" x="494.775391"/>
       <use xlink:href="#Helvetica-26" x="522.558594"/>
       <use xlink:href="#Helvetica-20" x="589.257812"/>
       <use xlink:href="#Helvetica-45" x="617.041016"/>
       <use xlink:href="#Helvetica-6e" x="683.740234"/>
       <use xlink:href="#Helvetica-76" x="739.355469"/>
       <use xlink:href="#Helvetica-69" x="789.355469"/>
       <use xlink:href="#Helvetica-72" x="811.572266"/>
       <use xlink:href="#Helvetica-6f" x="844.873047"/>
       <use xlink:href="#Helvetica-6e" x="900.488281"/>
       <use xlink:href="#Helvetica-6d" x="956.103516"/>
       <use xlink:href="#Helvetica-65" x="1039.404297"/>
       <use xlink:href="#Helvetica-6e" x="1095.019531"/>
       <use xlink:href="#Helvetica-74" x="1150.634766"/>
       <use xlink:href="#Helvetica-61" x="1178.417969"/>
       <use xlink:href="#Helvetica-6c" x="1234.033203"/>
      </g>
      <!-- Sciences -->
      <g transform="translate(101.403125 155.723136)scale(0.1 -0.1)">
       <use xlink:href="#Helvetica-53"/>
       <use xlink:href="#Helvetica-63" x="66.699219"/>
       <use xlink:href="#Helvetica-69" x="116.699219"/>
       <use xlink:href="#Helvetica-65" x="138.916016"/>
       <use xlink:href="#Helvetica-6e" x="194.53125"/>
       <use xlink:href="#Helvetica-63" x="250.146484"/>
       <use xlink:href="#Helvetica-65" x="300.146484"/>
       <use xlink:href="#Helvetica-73" x="355.761719"/>
      </g>
     </g>
    </g>
    <g id="ytick_13">
     <g id="line2d_19">
      <g>
       <use xlink:href="#m8e343aef83" x="148.978125" y="122.692804" style="stroke: #000000; stroke-width: 0.8"/>
      </g>
     </g>
     <g id="text_18">
      <!-- Chemistry -->
      <g transform="translate(96.975 126.377179)scale(0.1 -0.1)">
       <use xlink:href="#Helvetica-43"/>
       <use xlink:href="#Helvetica-68" x="72.216797"/>
       <use xlink:href="#Helvetica-65" x="127.832031"/>
       <use xlink:href="#Helvetica-6d" x="183.447266"/>
       <use xlink:href="#Helvetica-69" x="266.748047"/>
       <use xlink:href="#Helvetica-73" x="288.964844"/>
       <use xlink:href="#Helvetica-74" x="338.964844"/>
       <use xlink:href="#Helvetica-72" x="366.748047"/>
       <use xlink:href="#Helvetica-79" x="400.048828"/>
      </g>
     </g>
    </g>
    <g id="ytick_14">
     <g id="line2d_20">
      <g>
       <use xlink:href="#m8e343aef83" x="148.978125" y="99.474504" style="stroke: #000000; stroke-width: 0.8"/>
      </g>
     </g>
     <g id="text_19">
      <!-- Biological Sciences -->
      <g transform="translate(55.823437 103.158879)scale(0.1 -0.1)">
       <defs>
        <path id="Helvetica-42" d="M 2213 2650 
Q 2606 2650 2825 2759 
Q 3169 2931 3169 3378 
Q 3169 3828 2803 3984 
Q 2597 4072 2191 4072 
L 1081 4072 
L 1081 2650 
L 2213 2650 
z
M 2422 531 
Q 2994 531 3238 863 
Q 3391 1072 3391 1369 
Q 3391 1869 2944 2050 
Q 2706 2147 2316 2147 
L 1081 2147 
L 1081 531 
L 2422 531 
z
M 472 4591 
L 2444 4591 
Q 3250 4591 3591 4109 
Q 3791 3825 3791 3453 
Q 3791 3019 3544 2741 
Q 3416 2594 3175 2472 
Q 3528 2338 3703 2169 
Q 4013 1869 4013 1341 
Q 4013 897 3734 538 
Q 3319 0 2413 0 
L 472 0 
L 472 4591 
z
" transform="scale(0.015625)"/>
       </defs>
       <use xlink:href="#Helvetica-42"/>
       <use xlink:href="#Helvetica-69" x="66.699219"/>
       <use xlink:href="#Helvetica-6f" x="88.916016"/>
       <use xlink:href="#Helvetica-6c" x="144.53125"/>
       <use xlink:href="#Helvetica-6f" x="166.748047"/>
       <use xlink:href="#Helvetica-67" x="222.363281"/>
       <use xlink:href="#Helvetica-69" x="277.978516"/>
       <use xlink:href="#Helvetica-63" x="300.195312"/>
       <use xlink:href="#Helvetica-61" x="350.195312"/>
       <use xlink:href="#Helvetica-6c" x="405.810547"/>
       <use xlink:href="#Helvetica-20" x="428.027344"/>
       <use xlink:href="#Helvetica-53" x="455.810547"/>
       <use xlink:href="#Helvetica-63" x="522.509766"/>
       <use xlink:href="#Helvetica-69" x="572.509766"/>
       <use xlink:href="#Helvetica-65" x="594.726562"/>
       <use xlink:href="#Helvetica-6e" x="650.341797"/>
       <use xlink:href="#Helvetica-63" x="705.957031"/>
       <use xlink:href="#Helvetica-65" x="755.957031"/>
       <use xlink:href="#Helvetica-73" x="811.572266"/>
      </g>
     </g>
    </g>
    <g id="ytick_15">
     <g id="line2d_21">
      <g>
       <use xlink:href="#m8e343aef83" x="148.978125" y="76.256203" style="stroke: #000000; stroke-width: 0.8"/>
      </g>
     </g>
     <g id="text_20">
      <!-- Physics and Astronomy -->
      <g transform="translate(37.495312 79.854641)scale(0.1 -0.1)">
       <use xlink:href="#Helvetica-50"/>
       <use xlink:href="#Helvetica-68" x="66.699219"/>
       <use xlink:href="#Helvetica-79" x="122.314453"/>
       <use xlink:href="#Helvetica-73" x="172.314453"/>
       <use xlink:href="#Helvetica-69" x="222.314453"/>
       <use xlink:href="#Helvetica-63" x="244.53125"/>
       <use xlink:href="#Helvetica-73" x="294.53125"/>
       <use xlink:href="#Helvetica-20" x="344.53125"/>
       <use xlink:href="#Helvetica-61" x="372.314453"/>
       <use xlink:href="#Helvetica-6e" x="427.929688"/>
       <use xlink:href="#Helvetica-64" x="483.544922"/>
       <use xlink:href="#Helvetica-20" x="539.160156"/>
       <use xlink:href="#Helvetica-41" x="566.943359"/>
       <use xlink:href="#Helvetica-73" x="633.642578"/>
       <use xlink:href="#Helvetica-74" x="683.642578"/>
       <use xlink:href="#Helvetica-72" x="711.425781"/>
       <use xlink:href="#Helvetica-6f" x="744.726562"/>
       <use xlink:href="#Helvetica-6e" x="800.341797"/>
       <use xlink:href="#Helvetica-6f" x="855.957031"/>
       <use xlink:href="#Helvetica-6d" x="911.572266"/>
       <use xlink:href="#Helvetica-79" x="994.873047"/>
      </g>
     </g>
    </g>
    <g id="ytick_16">
     <g id="line2d_22">
      <g>
       <use xlink:href="#m8e343aef83" x="148.978125" y="53.037903" style="stroke: #000000; stroke-width: 0.8"/>
      </g>
     </g>
     <g id="text_21">
      <!-- Computer Science -->
      <g transform="translate(59.721875 56.722278)scale(0.1 -0.1)">
       <use xlink:href="#Helvetica-43"/>
       <use xlink:href="#Helvetica-6f" x="72.216797"/>
       <use xlink:href="#Helvetica-6d" x="127.832031"/>
       <use xlink:href="#Helvetica-70" x="211.132812"/>
       <use xlink:href="#Helvetica-75" x="266.748047"/>
       <use xlink:href="#Helvetica-74" x="322.363281"/>
       <use xlink:href="#Helvetica-65" x="350.146484"/>
       <use xlink:href="#Helvetica-72" x="405.761719"/>
       <use xlink:href="#Helvetica-20" x="439.0625"/>
       <use xlink:href="#Helvetica-53" x="466.845703"/>
       <use xlink:href="#Helvetica-63" x="533.544922"/>
       <use xlink:href="#Helvetica-69" x="583.544922"/>
       <use xlink:href="#Helvetica-65" x="605.761719"/>
       <use xlink:href="#Helvetica-6e" x="661.376953"/>
       <use xlink:href="#Helvetica-63" x="716.992188"/>
       <use xlink:href="#Helvetica-65" x="766.992188"/>
      </g>
     </g>
    </g>
   </g>
   <g id="patch_19">
    <path d="M 148.978125 428.942187 
L 388.661407 428.942187 
" style="fill: none; stroke: #000000; stroke-width: 0.8; stroke-linejoin: miter; stroke-linecap: square"/>
   </g>
   <g id="text_22">
    <!-- 2% -->
    <g transform="translate(171.018425 403.856941)scale(0.1 -0.1)">
     <defs>
      <path id="Helvetica-25" d="M 4363 2175 
Q 4813 2175 5131 1856 
Q 5450 1538 5450 1088 
Q 5450 638 5131 319 
Q 4813 0 4363 0 
Q 3909 0 3590 319 
Q 3272 638 3272 1088 
Q 3272 1538 3590 1856 
Q 3909 2175 4363 2175 
z
M 3909 4456 
L 4256 4456 
L 1753 -119 
L 1406 -119 
L 3909 4456 
z
M 1294 2606 
Q 1563 2606 1752 2795 
Q 1941 2984 1941 3250 
Q 1941 3516 1752 3705 
Q 1563 3894 1294 3894 
Q 1028 3894 839 3706 
Q 650 3519 650 3250 
Q 650 2984 839 2795 
Q 1028 2606 1294 2606 
z
M 1294 4341 
Q 1747 4341 2065 4020 
Q 2384 3700 2384 3250 
Q 2384 2800 2065 2481 
Q 1747 2163 1294 2163 
Q 844 2163 525 2481 
Q 206 2800 206 3250 
Q 206 3700 525 4020 
Q 844 4341 1294 4341 
z
M 4363 444 
Q 4628 444 4817 633 
Q 5006 822 5006 1088 
Q 5006 1353 4817 1542 
Q 4628 1731 4363 1731 
Q 4094 1731 3905 1542 
Q 3716 1353 3716 1088 
Q 3716 822 3905 633 
Q 4094 444 4363 444 
z
" transform="scale(0.015625)"/>
     </defs>
     <use xlink:href="#Helvetica-32"/>
     <use xlink:href="#Helvetica-25" x="55.615234"/>
    </g>
   </g>
   <g id="text_23">
    <!-- 2% -->
    <g transform="translate(171.018425 380.638641)scale(0.1 -0.1)">
     <use xlink:href="#Helvetica-32"/>
     <use xlink:href="#Helvetica-25" x="55.615234"/>
    </g>
   </g>
   <g id="text_24">
    <!-- 2% -->
    <g transform="translate(171.018425 357.42034)scale(0.1 -0.1)">
     <use xlink:href="#Helvetica-32"/>
     <use xlink:href="#Helvetica-25" x="55.615234"/>
    </g>
   </g>
   <g id="text_25">
    <!-- 2% -->
    <g transform="translate(171.018425 334.20204)scale(0.1 -0.1)">
     <use xlink:href="#Helvetica-32"/>
     <use xlink:href="#Helvetica-25" x="55.615234"/>
    </g>
   </g>
   <g id="text_26">
    <!-- 2% -->
    <g transform="translate(171.018425 310.983739)scale(0.1 -0.1)">
     <use xlink:href="#Helvetica-32"/>
     <use xlink:href="#Helvetica-25" x="55.615234"/>
    </g>
   </g>
   <g id="text_27">
    <!-- 3% -->
    <g transform="translate(185.285287 287.765439)scale(0.1 -0.1)">
     <defs>
      <path id="Helvetica-33" d="M 1663 -122 
Q 869 -122 511 314 
Q 153 750 153 1375 
L 741 1375 
Q 778 941 903 744 
Q 1122 391 1694 391 
Q 2138 391 2406 628 
Q 2675 866 2675 1241 
Q 2675 1703 2392 1887 
Q 2109 2072 1606 2072 
Q 1550 2072 1492 2070 
Q 1434 2069 1375 2066 
L 1375 2563 
Q 1463 2553 1522 2550 
Q 1581 2547 1650 2547 
Q 1966 2547 2169 2647 
Q 2525 2822 2525 3272 
Q 2525 3606 2287 3787 
Q 2050 3969 1734 3969 
Q 1172 3969 956 3594 
Q 838 3388 822 3006 
L 266 3006 
Q 266 3506 466 3856 
Q 809 4481 1675 4481 
Q 2359 4481 2734 4176 
Q 3109 3872 3109 3294 
Q 3109 2881 2888 2625 
Q 2750 2466 2531 2375 
Q 2884 2278 3082 2001 
Q 3281 1725 3281 1325 
Q 3281 684 2859 281 
Q 2438 -122 1663 -122 
z
" transform="scale(0.015625)"/>
     </defs>
     <use xlink:href="#Helvetica-33"/>
     <use xlink:href="#Helvetica-25" x="55.615234"/>
    </g>
   </g>
   <g id="text_28">
    <!-- 3% -->
    <g transform="translate(185.285287 264.547138)scale(0.1 -0.1)">
     <use xlink:href="#Helvetica-33"/>
     <use xlink:href="#Helvetica-25" x="55.615234"/>
    </g>
   </g>
   <g id="text_29">
    <!-- 3% -->
    <g transform="translate(185.285287 241.328838)scale(0.1 -0.1)">
     <use xlink:href="#Helvetica-33"/>
     <use xlink:href="#Helvetica-25" x="55.615234"/>
    </g>
   </g>
   <g id="text_30">
    <!-- 3% -->
    <g transform="translate(185.285287 218.110537)scale(0.1 -0.1)">
     <use xlink:href="#Helvetica-33"/>
     <use xlink:href="#Helvetica-25" x="55.615234"/>
    </g>
   </g>
   <g id="text_31">
    <!-- 3% -->
    <g transform="translate(185.285287 194.892237)scale(0.1 -0.1)">
     <use xlink:href="#Helvetica-33"/>
     <use xlink:href="#Helvetica-25" x="55.615234"/>
    </g>
   </g>
   <g id="text_32">
    <!-- 5% -->
    <g transform="translate(199.552149 171.673936)scale(0.1 -0.1)">
     <use xlink:href="#Helvetica-35"/>
     <use xlink:href="#Helvetica-25" x="55.615234"/>
    </g>
   </g>
   <g id="text_33">
    <!-- 6% -->
    <g transform="translate(213.819011 148.455636)scale(0.1 -0.1)">
     <defs>
      <path id="Helvetica-36" d="M 1872 4494 
Q 2622 4494 2917 4105 
Q 3213 3716 3213 3303 
L 2656 3303 
Q 2606 3569 2497 3719 
Q 2294 4000 1881 4000 
Q 1409 4000 1131 3564 
Q 853 3128 822 2316 
Q 1016 2600 1309 2741 
Q 1578 2866 1909 2866 
Q 2472 2866 2890 2506 
Q 3309 2147 3309 1434 
Q 3309 825 2912 354 
Q 2516 -116 1781 -116 
Q 1153 -116 697 361 
Q 241 838 241 1966 
Q 241 2800 444 3381 
Q 834 4494 1872 4494 
z
M 1831 384 
Q 2275 384 2495 682 
Q 2716 981 2716 1388 
Q 2716 1731 2519 2042 
Q 2322 2353 1803 2353 
Q 1441 2353 1167 2112 
Q 894 1872 894 1388 
Q 894 963 1142 673 
Q 1391 384 1831 384 
z
" transform="scale(0.015625)"/>
     </defs>
     <use xlink:href="#Helvetica-36"/>
     <use xlink:href="#Helvetica-25" x="55.615234"/>
    </g>
   </g>
   <g id="text_34">
    <!-- 6% -->
    <g transform="translate(213.819011 125.237335)scale(0.1 -0.1)">
     <use xlink:href="#Helvetica-36"/>
     <use xlink:href="#Helvetica-25" x="55.615234"/>
    </g>
   </g>
   <g id="text_35">
    <!-- 15% -->
    <g transform="translate(296.639714 102.019035)scale(0.1 -0.1)">
     <use xlink:href="#Helvetica-31"/>
     <use xlink:href="#Helvetica-35" x="55.615234"/>
     <use xlink:href="#Helvetica-25" x="111.230469"/>
    </g>
   </g>
   <g id="text_36">
    <!-- 21% -->
    <g transform="translate(353.707162 78.800734)scale(0.1 -0.1)">
     <use xlink:href="#Helvetica-32"/>
     <use xlink:href="#Helvetica-31" x="55.615234"/>
     <use xlink:href="#Helvetica-25" x="111.230469"/>
    </g>
   </g>
   <g id="text_37">
    <!-- 24% -->
    <g transform="translate(382.240886 55.582434)scale(0.1 -0.1)">
     <defs>
      <path id="Helvetica-34" d="M 2116 1584 
L 2116 3613 
L 681 1584 
L 2116 1584 
z
M 2125 0 
L 2125 1094 
L 163 1094 
L 163 1644 
L 2213 4488 
L 2688 4488 
L 2688 1584 
L 3347 1584 
L 3347 1094 
L 2688 1094 
L 2688 0 
L 2125 0 
z
" transform="scale(0.015625)"/>
     </defs>
     <use xlink:href="#Helvetica-32"/>
     <use xlink:href="#Helvetica-34" x="55.615234"/>
     <use xlink:href="#Helvetica-25" x="111.230469"/>
    </g>
   </g>
   <g id="text_38">
    <!-- Field of education, Netherlands -->
    <g transform="translate(185.775078 19.408125)scale(0.12 -0.12)">
     <defs>
      <path id="Helvetica-2c" d="M 531 -653 
Q 747 -616 834 -350 
Q 881 -209 881 -78 
Q 881 -56 879 -39 
Q 878 -22 872 0 
L 531 0 
L 531 681 
L 1200 681 
L 1200 50 
Q 1200 -322 1050 -603 
Q 900 -884 531 -950 
L 531 -653 
z
" transform="scale(0.015625)"/>
      <path id="Helvetica-4e" d="M 488 4591 
L 1222 4591 
L 3541 872 
L 3541 4591 
L 4131 4591 
L 4131 0 
L 3434 0 
L 1081 3716 
L 1081 0 
L 488 0 
L 488 4591 
z
M 2269 4591 
L 2269 4591 
z
" transform="scale(0.015625)"/>
     </defs>
     <use xlink:href="#Helvetica-46"/>
     <use xlink:href="#Helvetica-69" x="61.083984"/>
     <use xlink:href="#Helvetica-65" x="83.300781"/>
     <use xlink:href="#Helvetica-6c" x="138.916016"/>
     <use xlink:href="#Helvetica-64" x="161.132812"/>
     <use xlink:href="#Helvetica-20" x="216.748047"/>
     <use xlink:href="#Helvetica-6f" x="244.53125"/>
     <use xlink:href="#Helvetica-66" x="300.146484"/>
     <use xlink:href="#Helvetica-20" x="327.929688"/>
     <use xlink:href="#Helvetica-65" x="355.712891"/>
     <use xlink:href="#Helvetica-64" x="411.328125"/>
     <use xlink:href="#Helvetica-75" x="466.943359"/>
     <use xlink:href="#Helvetica-63" x="522.558594"/>
     <use xlink:href="#Helvetica-61" x="572.558594"/>
     <use xlink:href="#Helvetica-74" x="628.173828"/>
     <use xlink:href="#Helvetica-69" x="655.957031"/>
     <use xlink:href="#Helvetica-6f" x="678.173828"/>
     <use xlink:href="#Helvetica-6e" x="733.789062"/>
     <use xlink:href="#Helvetica-2c" x="789.404297"/>
     <use xlink:href="#Helvetica-20" x="817.1875"/>
     <use xlink:href="#Helvetica-4e" x="844.970703"/>
     <use xlink:href="#Helvetica-65" x="917.1875"/>
     <use xlink:href="#Helvetica-74" x="972.802734"/>
     <use xlink:href="#Helvetica-68" x="1000.585938"/>
     <use xlink:href="#Helvetica-65" x="1056.201172"/>
     <use xlink:href="#Helvetica-72" x="1111.816406"/>
     <use xlink:href="#Helvetica-6c" x="1145.117188"/>
     <use xlink:href="#Helvetica-61" x="1167.333984"/>
     <use xlink:href="#Helvetica-6e" x="1222.949219"/>
     <use xlink:href="#Helvetica-64" x="1278.564453"/>
     <use xlink:href="#Helvetica-73" x="1334.179688"/>
    </g>
   </g>
  </g>
  <g id="axes_2">
   <g id="patch_20">
    <path d="M 415.759531 428.942187 
L 450 428.942187 
L 450 25.408125 
L 415.759531 25.408125 
z
" style="fill: #ffffff"/>
   </g>
   <g id="patch_21">
    <path d="M 440.907435 410.59973 
L 436.647855 410.59973 
L 436.647855 392.02509 
L 440.907435 392.02509 
z
" clip-path="url(#p06664602ee)" style="fill: #ffa500"/>
   </g>
   <g id="patch_22">
    <path d="M 0 0 
z
" clip-path="url(#p06664602ee)" style="fill: #ffa500"/>
   </g>
   <g id="patch_23">
    <path d="M 0 0 
z
" clip-path="url(#p06664602ee)" style="fill: #ffa500"/>
   </g>
   <g id="patch_24">
    <path d="M 0 0 
z
" clip-path="url(#p06664602ee)" style="fill: #ffa500"/>
   </g>
   <g id="patch_25">
    <path d="M 440.907435 317.726528 
L 440.252115 317.726528 
L 440.252115 299.151888 
L 440.907435 299.151888 
z
" clip-path="url(#p06664602ee)" style="fill: #ffa500"/>
   </g>
   <g id="patch_26">
    <path d="M 440.907435 294.508228 
L 443.201055 294.508228 
L 443.201055 275.933587 
L 440.907435 275.933587 
z
" clip-path="url(#p06664602ee)" style="fill: #008000"/>
   </g>
   <g id="patch_27">
    <path d="M 0 0 
z
" clip-path="url(#p06664602ee)" style="fill: #ffa500"/>
   </g>
   <g id="patch_28">
    <path d="M 0 0 
z
" clip-path="url(#p06664602ee)" style="fill: #ffa500"/>
   </g>
   <g id="patch_29">
    <path d="M 440.907435 224.853326 
L 439.596795 224.853326 
L 439.596795 206.278686 
L 440.907435 206.278686 
z
" clip-path="url(#p06664602ee)" style="fill: #ffa500"/>
   </g>
   <g id="patch_30">
    <path d="M 440.907435 201.635026 
L 443.201055 201.635026 
L 443.201055 183.060385 
L 440.907435 183.060385 
z
" clip-path="url(#p06664602ee)" style="fill: #008000"/>
   </g>
   <g id="patch_31">
    <path d="M 440.907435 178.416725 
L 446.149995 178.416725 
L 446.149995 159.842085 
L 440.907435 159.842085 
z
" clip-path="url(#p06664602ee)" style="fill: #008000"/>
   </g>
   <g id="patch_32">
    <path d="M 440.907435 155.198425 
L 445.494675 155.198425 
L 445.494675 136.623784 
L 440.907435 136.623784 
z
" clip-path="url(#p06664602ee)" style="fill: #008000"/>
   </g>
   <g id="patch_33">
    <path d="M 440.907435 131.980124 
L 441.890415 131.980124 
L 441.890415 113.405484 
L 440.907435 113.405484 
z
" clip-path="url(#p06664602ee)" style="fill: #008000"/>
   </g>
   <g id="patch_34">
    <path d="M 440.907435 108.761824 
L 441.562755 108.761824 
L 441.562755 90.187183 
L 440.907435 90.187183 
z
" clip-path="url(#p06664602ee)" style="fill: #008000"/>
   </g>
   <g id="patch_35">
    <path d="M 440.907435 85.543523 
L 417.315916 85.543523 
L 417.315916 66.968883 
L 440.907435 66.968883 
z
" clip-path="url(#p06664602ee)" style="fill: #ffa500"/>
   </g>
   <g id="patch_36">
    <path d="M 440.907435 62.325223 
L 448.443615 62.325223 
L 448.443615 43.750582 
L 440.907435 43.750582 
z
" clip-path="url(#p06664602ee)" style="fill: #008000"/>
   </g>
   <g id="matplotlib.axis_3">
    <g id="xtick_7">
     <g id="line2d_23">
      <g>
       <use xlink:href="#m4c99cd72f3" x="421.444432" y="428.942187" style="stroke: #000000; stroke-width: 0.8"/>
      </g>
     </g>
     <g id="text_39">
      <!-- 10 -->
      <g transform="translate(412.963182 443.115625)scale(0.1 -0.1)">
       <defs>
        <path id="Helvetica-2212" d="M 3547 1894 
L 3547 1369 
L 288 1369 
L 288 1894 
L 3547 1894 
z
" transform="scale(0.015625)"/>
       </defs>
       <use xlink:href="#Helvetica-2212"/>
       <use xlink:href="#Helvetica-31" x="58.398438"/>
       <use xlink:href="#Helvetica-30" x="114.013672"/>
      </g>
     </g>
    </g>
    <g id="xtick_8">
     <g id="line2d_24">
      <g>
       <use xlink:href="#m4c99cd72f3" x="440.907435" y="428.942187" style="stroke: #000000; stroke-width: 0.8"/>
      </g>
     </g>
     <g id="text_40">
      <!-- 0 -->
      <g transform="translate(438.126967 443.115625)scale(0.1 -0.1)">
       <use xlink:href="#Helvetica-30"/>
      </g>
     </g>
    </g>
   </g>
   <g id="matplotlib.axis_4">
    <g id="ytick_17">
     <g id="line2d_25">
      <g>
       <use xlink:href="#m8e343aef83" x="415.759531" y="401.31241" style="stroke: #000000; stroke-width: 0.8"/>
      </g>
     </g>
    </g>
    <g id="ytick_18">
     <g id="line2d_26">
      <g>
       <use xlink:href="#m8e343aef83" x="415.759531" y="378.094109" style="stroke: #000000; stroke-width: 0.8"/>
      </g>
     </g>
    </g>
    <g id="ytick_19">
     <g id="line2d_27">
      <g>
       <use xlink:href="#m8e343aef83" x="415.759531" y="354.875809" style="stroke: #000000; stroke-width: 0.8"/>
      </g>
     </g>
    </g>
    <g id="ytick_20">
     <g id="line2d_28">
      <g>
       <use xlink:href="#m8e343aef83" x="415.759531" y="331.657508" style="stroke: #000000; stroke-width: 0.8"/>
      </g>
     </g>
    </g>
    <g id="ytick_21">
     <g id="line2d_29">
      <g>
       <use xlink:href="#m8e343aef83" x="415.759531" y="308.439208" style="stroke: #000000; stroke-width: 0.8"/>
      </g>
     </g>
    </g>
    <g id="ytick_22">
     <g id="line2d_30">
      <g>
       <use xlink:href="#m8e343aef83" x="415.759531" y="285.220907" style="stroke: #000000; stroke-width: 0.8"/>
      </g>
     </g>
    </g>
    <g id="ytick_23">
     <g id="line2d_31">
      <g>
       <use xlink:href="#m8e343aef83" x="415.759531" y="262.002607" style="stroke: #000000; stroke-width: 0.8"/>
      </g>
     </g>
    </g>
    <g id="ytick_24">
     <g id="line2d_32">
      <g>
       <use xlink:href="#m8e343aef83" x="415.759531" y="238.784306" style="stroke: #000000; stroke-width: 0.8"/>
      </g>
     </g>
    </g>
    <g id="ytick_25">
     <g id="line2d_33">
      <g>
       <use xlink:href="#m8e343aef83" x="415.759531" y="215.566006" style="stroke: #000000; stroke-width: 0.8"/>
      </g>
     </g>
    </g>
    <g id="ytick_26">
     <g id="line2d_34">
      <g>
       <use xlink:href="#m8e343aef83" x="415.759531" y="192.347706" style="stroke: #000000; stroke-width: 0.8"/>
      </g>
     </g>
    </g>
    <g id="ytick_27">
     <g id="line2d_35">
      <g>
       <use xlink:href="#m8e343aef83" x="415.759531" y="169.129405" style="stroke: #000000; stroke-width: 0.8"/>
      </g>
     </g>
    </g>
    <g id="ytick_28">
     <g id="line2d_36">
      <g>
       <use xlink:href="#m8e343aef83" x="415.759531" y="145.911105" style="stroke: #000000; stroke-width: 0.8"/>
      </g>
     </g>
    </g>
    <g id="ytick_29">
     <g id="line2d_37">
      <g>
       <use xlink:href="#m8e343aef83" x="415.759531" y="122.692804" style="stroke: #000000; stroke-width: 0.8"/>
      </g>
     </g>
    </g>
    <g id="ytick_30">
     <g id="line2d_38">
      <g>
       <use xlink:href="#m8e343aef83" x="415.759531" y="99.474504" style="stroke: #000000; stroke-width: 0.8"/>
      </g>
     </g>
    </g>
    <g id="ytick_31">
     <g id="line2d_39">
      <g>
       <use xlink:href="#m8e343aef83" x="415.759531" y="76.256203" style="stroke: #000000; stroke-width: 0.8"/>
      </g>
     </g>
    </g>
    <g id="ytick_32">
     <g id="line2d_40">
      <g>
       <use xlink:href="#m8e343aef83" x="415.759531" y="53.037903" style="stroke: #000000; stroke-width: 0.8"/>
      </g>
     </g>
    </g>
   </g>
   <g id="patch_37">
    <path d="M 415.759531 428.942187 
L 450 428.942187 
" style="fill: none; stroke: #000000; stroke-width: 0.8; stroke-linejoin: miter; stroke-linecap: square"/>
   </g>
   <g id="text_41">
    <!--  -->
    <g transform="translate(428.546641 19.408125)scale(0.12 -0.12)">
     <defs>
      <path id="Helvetica-394" d="M 922 500 
L 3672 500 
L 2278 3941 
L 922 500 
z
M 1966 4519 
L 2631 4519 
L 4494 0 
L 128 0 
L 1966 4519 
z
" transform="scale(0.015625)"/>
     </defs>
     <use xlink:href="#Helvetica-394"/>
    </g>
   </g>
  </g>
 </g>
 <defs>
  <clipPath id="p7b7391430e">
   <rect x="148.978125" y="25.408125" width="239.683282" height="403.534063"/>
  </clipPath>
  <clipPath id="p06664602ee">
   <rect x="415.759531" y="25.408125" width="34.240469" height="403.534063"/>
  </clipPath>
 </defs>
</svg>
