<?xml version="1.0" encoding="utf-8" standalone="no"?>
<!DOCTYPE svg PUBLIC "-//W3C//DTD SVG 1.1//EN"
  "http://www.w3.org/Graphics/SVG/1.1/DTD/svg11.dtd">
<svg xmlns:xlink="http://www.w3.org/1999/xlink" width="460.8pt" height="384pt" viewBox="0 0 460.8 384" xmlns="http://www.w3.org/2000/svg" version="1.1">
 <metadata>
  <rdf:RDF xmlns:dc="http://purl.org/dc/elements/1.1/" xmlns:cc="http://creativecommons.org/ns#" xmlns:rdf="http://www.w3.org/1999/02/22-rdf-syntax-ns#">
   <cc:Work>
    <dc:type rdf:resource="http://purl.org/dc/dcmitype/StillImage"/>
    <dc:date>2022-05-19T12:18:20.904889</dc:date>
    <dc:format>image/svg+xml</dc:format>
    <dc:creator>
     <cc:Agent>
      <dc:title>Matplotlib v3.5.1, https://matplotlib.org/</dc:title>
     </cc:Agent>
    </dc:creator>
   </cc:Work>
  </rdf:RDF>
 </metadata>
 <defs>
  <style type="text/css">*{stroke-linejoin: round; stroke-linecap: butt}</style>
 </defs>
 <g id="figure_1">
  <g id="patch_1">
   <path d="M 0 384 
L 460.8 384 
L 460.8 0 
L 0 0 
z
" style="fill: #ffffff"/>
  </g>
  <g id="axes_1">
   <g id="patch_2">
    <path d="M 81.748437 356.942187 
L 380.221531 356.942187 
L 380.221531 25.6425 
L 81.748437 25.6425 
z
" style="fill: #ffffff"/>
   </g>
   <g id="patch_3">
    <path d="M 81.748437 341.883111 
L 84.022518 341.883111 
L 84.022518 323.059265 
L 81.748437 323.059265 
z
" clip-path="url(#pa6d5b79ec1)" style="fill: #1f77b4"/>
   </g>
   <g id="patch_4">
    <path d="M 81.748437 318.353303 
L 84.022518 318.353303 
L 84.022518 299.529458 
L 81.748437 299.529458 
z
" clip-path="url(#pa6d5b79ec1)" style="fill: #1f77b4"/>
   </g>
   <g id="patch_5">
    <path d="M 81.748437 294.823496 
L 84.022518 294.823496 
L 84.022518 275.99965 
L 81.748437 275.99965 
z
" clip-path="url(#pa6d5b79ec1)" style="fill: #1f77b4"/>
   </g>
   <g id="patch_6">
    <path d="M 81.748437 271.293689 
L 88.57068 271.293689 
L 88.57068 252.469843 
L 81.748437 252.469843 
z
" clip-path="url(#pa6d5b79ec1)" style="fill: #1f77b4"/>
   </g>
   <g id="patch_7">
    <path d="M 81.748437 247.763881 
L 84.022518 247.763881 
L 84.022518 228.940036 
L 81.748437 228.940036 
z
" clip-path="url(#pa6d5b79ec1)" style="fill: #1f77b4"/>
   </g>
   <g id="patch_8">
    <path d="M 81.748437 224.234074 
L 97.667002 224.234074 
L 97.667002 205.410228 
L 81.748437 205.410228 
z
" clip-path="url(#pa6d5b79ec1)" style="fill: #1f77b4"/>
   </g>
   <g id="patch_9">
    <path d="M 81.748437 200.704267 
L 90.84476 200.704267 
L 90.84476 181.880421 
L 81.748437 181.880421 
z
" clip-path="url(#pa6d5b79ec1)" style="fill: #1f77b4"/>
   </g>
   <g id="patch_10">
    <path d="M 81.748437 177.174459 
L 84.022518 177.174459 
L 84.022518 158.350613 
L 81.748437 158.350613 
z
" clip-path="url(#pa6d5b79ec1)" style="fill: #1f77b4"/>
   </g>
   <g id="patch_11">
    <path d="M 81.748437 153.644652 
L 99.941083 153.644652 
L 99.941083 134.820806 
L 81.748437 134.820806 
z
" clip-path="url(#pa6d5b79ec1)" style="fill: #1f77b4"/>
   </g>
   <g id="patch_12">
    <path d="M 81.748437 130.114845 
L 197.726554 130.114845 
L 197.726554 111.290999 
L 81.748437 111.290999 
z
" clip-path="url(#pa6d5b79ec1)" style="fill: #1f77b4"/>
   </g>
   <g id="patch_13">
    <path d="M 81.748437 106.585037 
L 86.296599 106.585037 
L 86.296599 87.761191 
L 81.748437 87.761191 
z
" clip-path="url(#pa6d5b79ec1)" style="fill: #1f77b4"/>
   </g>
   <g id="patch_14">
    <path d="M 81.748437 83.05523 
L 366.008526 83.05523 
L 366.008526 64.231384 
L 81.748437 64.231384 
z
" clip-path="url(#pa6d5b79ec1)" style="fill: #1f77b4"/>
   </g>
   <g id="patch_15">
    <path d="M 81.748437 59.525423 
L 106.763325 59.525423 
L 106.763325 40.701577 
L 81.748437 40.701577 
z
" clip-path="url(#pa6d5b79ec1)" style="fill: #1f77b4"/>
   </g>
   <g id="matplotlib.axis_1">
    <g id="xtick_1">
     <g id="line2d_1">
      <defs>
       <path id="m4c99cd72f3" d="M 0 0 
L 0 3.5 
" style="stroke: #000000; stroke-width: 0.8"/>
      </defs>
      <g>
       <use xlink:href="#m4c99cd72f3" x="81.748437" y="356.942187" style="stroke: #000000; stroke-width: 0.8"/>
      </g>
     </g>
     <g id="text_1">
      <!-- 0 -->
      <g transform="translate(78.967969 371.115625)scale(0.1 -0.1)">
       <defs>
        <path id="Helvetica-30" d="M 1731 4475 
Q 2600 4475 2988 3759 
Q 3288 3206 3288 2244 
Q 3288 1331 3016 734 
Q 2622 -122 1728 -122 
Q 922 -122 528 578 
Q 200 1163 200 2147 
Q 200 2909 397 3456 
Q 766 4475 1731 4475 
z
M 1725 391 
Q 2163 391 2422 778 
Q 2681 1166 2681 2222 
Q 2681 2984 2493 3476 
Q 2306 3969 1766 3969 
Q 1269 3969 1039 3501 
Q 809 3034 809 2125 
Q 809 1441 956 1025 
Q 1181 391 1725 391 
z
" transform="scale(0.015625)"/>
       </defs>
       <use xlink:href="#Helvetica-30"/>
      </g>
     </g>
    </g>
    <g id="xtick_2">
     <g id="line2d_2">
      <g>
       <use xlink:href="#m4c99cd72f3" x="130.868581" y="356.942187" style="stroke: #000000; stroke-width: 0.8"/>
      </g>
     </g>
     <g id="text_2">
      <!-- 10 -->
      <g transform="translate(125.307643 371.115625)scale(0.1 -0.1)">
       <defs>
        <path id="Helvetica-31" d="M 613 3169 
L 613 3600 
Q 1222 3659 1462 3798 
Q 1703 3938 1822 4456 
L 2266 4456 
L 2266 0 
L 1666 0 
L 1666 3169 
L 613 3169 
z
" transform="scale(0.015625)"/>
       </defs>
       <use xlink:href="#Helvetica-31"/>
       <use xlink:href="#Helvetica-30" x="55.615234"/>
      </g>
     </g>
    </g>
    <g id="xtick_3">
     <g id="line2d_3">
      <g>
       <use xlink:href="#m4c99cd72f3" x="179.988724" y="356.942187" style="stroke: #000000; stroke-width: 0.8"/>
      </g>
     </g>
     <g id="text_3">
      <!-- 20 -->
      <g transform="translate(174.427787 371.115625)scale(0.1 -0.1)">
       <defs>
        <path id="Helvetica-32" d="M 200 0 
Q 231 578 439 1006 
Q 647 1434 1250 1784 
L 1850 2131 
Q 2253 2366 2416 2531 
Q 2672 2791 2672 3125 
Q 2672 3516 2437 3745 
Q 2203 3975 1813 3975 
Q 1234 3975 1013 3538 
Q 894 3303 881 2888 
L 309 2888 
Q 319 3472 525 3841 
Q 891 4491 1816 4491 
Q 2584 4491 2939 4075 
Q 3294 3659 3294 3150 
Q 3294 2613 2916 2231 
Q 2697 2009 2131 1694 
L 1703 1456 
Q 1397 1288 1222 1134 
Q 909 863 828 531 
L 3272 531 
L 3272 0 
L 200 0 
z
" transform="scale(0.015625)"/>
       </defs>
       <use xlink:href="#Helvetica-32"/>
       <use xlink:href="#Helvetica-30" x="55.615234"/>
      </g>
     </g>
    </g>
    <g id="xtick_4">
     <g id="line2d_4">
      <g>
       <use xlink:href="#m4c99cd72f3" x="229.108867" y="356.942187" style="stroke: #000000; stroke-width: 0.8"/>
      </g>
     </g>
     <g id="text_4">
      <!-- 30 -->
      <g transform="translate(223.54793 371.115625)scale(0.1 -0.1)">
       <defs>
        <path id="Helvetica-33" d="M 1663 -122 
Q 869 -122 511 314 
Q 153 750 153 1375 
L 741 1375 
Q 778 941 903 744 
Q 1122 391 1694 391 
Q 2138 391 2406 628 
Q 2675 866 2675 1241 
Q 2675 1703 2392 1887 
Q 2109 2072 1606 2072 
Q 1550 2072 1492 2070 
Q 1434 2069 1375 2066 
L 1375 2563 
Q 1463 2553 1522 2550 
Q 1581 2547 1650 2547 
Q 1966 2547 2169 2647 
Q 2525 2822 2525 3272 
Q 2525 3606 2287 3787 
Q 2050 3969 1734 3969 
Q 1172 3969 956 3594 
Q 838 3388 822 3006 
L 266 3006 
Q 266 3506 466 3856 
Q 809 4481 1675 4481 
Q 2359 4481 2734 4176 
Q 3109 3872 3109 3294 
Q 3109 2881 2888 2625 
Q 2750 2466 2531 2375 
Q 2884 2278 3082 2001 
Q 3281 1725 3281 1325 
Q 3281 684 2859 281 
Q 2438 -122 1663 -122 
z
" transform="scale(0.015625)"/>
       </defs>
       <use xlink:href="#Helvetica-33"/>
       <use xlink:href="#Helvetica-30" x="55.615234"/>
      </g>
     </g>
    </g>
    <g id="xtick_5">
     <g id="line2d_5">
      <g>
       <use xlink:href="#m4c99cd72f3" x="278.229011" y="356.942187" style="stroke: #000000; stroke-width: 0.8"/>
      </g>
     </g>
     <g id="text_5">
      <!-- 40 -->
      <g transform="translate(272.668073 371.115625)scale(0.1 -0.1)">
       <defs>
        <path id="Helvetica-34" d="M 2116 1584 
L 2116 3613 
L 681 1584 
L 2116 1584 
z
M 2125 0 
L 2125 1094 
L 163 1094 
L 163 1644 
L 2213 4488 
L 2688 4488 
L 2688 1584 
L 3347 1584 
L 3347 1094 
L 2688 1094 
L 2688 0 
L 2125 0 
z
" transform="scale(0.015625)"/>
       </defs>
       <use xlink:href="#Helvetica-34"/>
       <use xlink:href="#Helvetica-30" x="55.615234"/>
      </g>
     </g>
    </g>
    <g id="xtick_6">
     <g id="line2d_6">
      <g>
       <use xlink:href="#m4c99cd72f3" x="327.349154" y="356.942187" style="stroke: #000000; stroke-width: 0.8"/>
      </g>
     </g>
     <g id="text_6">
      <!-- 50 -->
      <g transform="translate(321.788217 371.115625)scale(0.1 -0.1)">
       <defs>
        <path id="Helvetica-35" d="M 791 1141 
Q 847 659 1238 475 
Q 1438 381 1700 381 
Q 2200 381 2440 700 
Q 2681 1019 2681 1406 
Q 2681 1875 2395 2131 
Q 2109 2388 1709 2388 
Q 1419 2388 1211 2275 
Q 1003 2163 856 1963 
L 369 1991 
L 709 4400 
L 3034 4400 
L 3034 3856 
L 1131 3856 
L 941 2613 
Q 1097 2731 1238 2791 
Q 1488 2894 1816 2894 
Q 2431 2894 2859 2497 
Q 3288 2100 3288 1491 
Q 3288 856 2895 371 
Q 2503 -113 1644 -113 
Q 1097 -113 676 195 
Q 256 503 206 1141 
L 791 1141 
z
" transform="scale(0.015625)"/>
       </defs>
       <use xlink:href="#Helvetica-35"/>
       <use xlink:href="#Helvetica-30" x="55.615234"/>
      </g>
     </g>
    </g>
    <g id="xtick_7">
     <g id="line2d_7">
      <g>
       <use xlink:href="#m4c99cd72f3" x="376.469297" y="356.942187" style="stroke: #000000; stroke-width: 0.8"/>
      </g>
     </g>
     <g id="text_7">
      <!-- 60 -->
      <g transform="translate(370.90836 371.115625)scale(0.1 -0.1)">
       <defs>
        <path id="Helvetica-36" d="M 1872 4494 
Q 2622 4494 2917 4105 
Q 3213 3716 3213 3303 
L 2656 3303 
Q 2606 3569 2497 3719 
Q 2294 4000 1881 4000 
Q 1409 4000 1131 3564 
Q 853 3128 822 2316 
Q 1016 2600 1309 2741 
Q 1578 2866 1909 2866 
Q 2472 2866 2890 2506 
Q 3309 2147 3309 1434 
Q 3309 825 2912 354 
Q 2516 -116 1781 -116 
Q 1153 -116 697 361 
Q 241 838 241 1966 
Q 241 2800 444 3381 
Q 834 4494 1872 4494 
z
M 1831 384 
Q 2275 384 2495 682 
Q 2716 981 2716 1388 
Q 2716 1731 2519 2042 
Q 2322 2353 1803 2353 
Q 1441 2353 1167 2112 
Q 894 1872 894 1388 
Q 894 963 1142 673 
Q 1391 384 1831 384 
z
" transform="scale(0.015625)"/>
       </defs>
       <use xlink:href="#Helvetica-36"/>
       <use xlink:href="#Helvetica-30" x="55.615234"/>
      </g>
     </g>
    </g>
   </g>
   <g id="matplotlib.axis_2">
    <g id="ytick_1">
     <g id="line2d_8">
      <defs>
       <path id="m8e343aef83" d="M 0 0 
L -3.5 0 
" style="stroke: #000000; stroke-width: 0.8"/>
      </defs>
      <g>
       <use xlink:href="#m8e343aef83" x="81.748437" y="332.471188" style="stroke: #000000; stroke-width: 0.8"/>
      </g>
     </g>
     <g id="text_8">
      <!-- 9999999999.0 -->
      <g transform="translate(10.8 336.057907)scale(0.1 -0.1)">
       <defs>
        <path id="Helvetica-39" d="M 850 1081 
Q 875 616 1209 438 
Q 1381 344 1597 344 
Q 2000 344 2284 680 
Q 2569 1016 2688 2044 
Q 2500 1747 2223 1626 
Q 1947 1506 1628 1506 
Q 981 1506 604 1909 
Q 228 2313 228 2947 
Q 228 3556 600 4018 
Q 972 4481 1697 4481 
Q 2675 4481 3047 3600 
Q 3253 3116 3253 2388 
Q 3253 1566 3006 931 
Q 2597 -125 1619 -125 
Q 963 -125 622 219 
Q 281 563 281 1081 
L 850 1081 
z
M 1703 2000 
Q 2038 2000 2314 2220 
Q 2591 2441 2591 2991 
Q 2591 3484 2342 3726 
Q 2094 3969 1709 3969 
Q 1297 3969 1055 3692 
Q 813 3416 813 2953 
Q 813 2516 1025 2258 
Q 1238 2000 1703 2000 
z
" transform="scale(0.015625)"/>
        <path id="Helvetica-2e" d="M 547 681 
L 1200 681 
L 1200 0 
L 547 0 
L 547 681 
z
" transform="scale(0.015625)"/>
       </defs>
       <use xlink:href="#Helvetica-39"/>
       <use xlink:href="#Helvetica-39" x="55.615234"/>
       <use xlink:href="#Helvetica-39" x="111.230469"/>
       <use xlink:href="#Helvetica-39" x="166.845703"/>
       <use xlink:href="#Helvetica-39" x="222.460938"/>
       <use xlink:href="#Helvetica-39" x="278.076172"/>
       <use xlink:href="#Helvetica-39" x="333.691406"/>
       <use xlink:href="#Helvetica-39" x="389.306641"/>
       <use xlink:href="#Helvetica-39" x="444.921875"/>
       <use xlink:href="#Helvetica-39" x="500.537109"/>
       <use xlink:href="#Helvetica-2e" x="556.152344"/>
       <use xlink:href="#Helvetica-30" x="583.935547"/>
      </g>
     </g>
    </g>
    <g id="ytick_2">
     <g id="line2d_9">
      <g>
       <use xlink:href="#m8e343aef83" x="81.748437" y="308.941381" style="stroke: #000000; stroke-width: 0.8"/>
      </g>
     </g>
     <g id="text_9">
      <!-- 20.0 -->
      <g transform="translate(55.2875 312.528099)scale(0.1 -0.1)">
       <use xlink:href="#Helvetica-32"/>
       <use xlink:href="#Helvetica-30" x="55.615234"/>
       <use xlink:href="#Helvetica-2e" x="111.230469"/>
       <use xlink:href="#Helvetica-30" x="139.013672"/>
      </g>
     </g>
    </g>
    <g id="ytick_3">
     <g id="line2d_10">
      <g>
       <use xlink:href="#m8e343aef83" x="81.748437" y="285.411573" style="stroke: #000000; stroke-width: 0.8"/>
      </g>
     </g>
     <g id="text_10">
      <!-- 18.0 -->
      <g transform="translate(55.2875 288.998292)scale(0.1 -0.1)">
       <defs>
        <path id="Helvetica-38" d="M 1741 2600 
Q 2113 2600 2322 2808 
Q 2531 3016 2531 3303 
Q 2531 3553 2331 3762 
Q 2131 3972 1722 3972 
Q 1316 3972 1134 3762 
Q 953 3553 953 3272 
Q 953 2956 1187 2778 
Q 1422 2600 1741 2600 
z
M 1775 384 
Q 2166 384 2423 595 
Q 2681 806 2681 1225 
Q 2681 1659 2415 1884 
Q 2150 2109 1734 2109 
Q 1331 2109 1076 1879 
Q 822 1650 822 1244 
Q 822 894 1055 639 
Q 1288 384 1775 384 
z
M 975 2384 
Q 741 2484 609 2619 
Q 363 2869 363 3269 
Q 363 3769 725 4128 
Q 1088 4488 1753 4488 
Q 2397 4488 2762 4148 
Q 3128 3809 3128 3356 
Q 3128 2938 2916 2678 
Q 2797 2531 2547 2391 
Q 2825 2263 2984 2097 
Q 3281 1784 3281 1284 
Q 3281 694 2884 283 
Q 2488 -128 1763 -128 
Q 1109 -128 657 226 
Q 206 581 206 1256 
Q 206 1653 400 1942 
Q 594 2231 975 2384 
z
" transform="scale(0.015625)"/>
       </defs>
       <use xlink:href="#Helvetica-31"/>
       <use xlink:href="#Helvetica-38" x="55.615234"/>
       <use xlink:href="#Helvetica-2e" x="111.230469"/>
       <use xlink:href="#Helvetica-30" x="139.013672"/>
      </g>
     </g>
    </g>
    <g id="ytick_4">
     <g id="line2d_11">
      <g>
       <use xlink:href="#m8e343aef83" x="81.748437" y="261.881766" style="stroke: #000000; stroke-width: 0.8"/>
      </g>
     </g>
     <g id="text_11">
      <!-- 10.0 -->
      <g transform="translate(55.2875 265.468485)scale(0.1 -0.1)">
       <use xlink:href="#Helvetica-31"/>
       <use xlink:href="#Helvetica-30" x="55.615234"/>
       <use xlink:href="#Helvetica-2e" x="111.230469"/>
       <use xlink:href="#Helvetica-30" x="139.013672"/>
      </g>
     </g>
    </g>
    <g id="ytick_5">
     <g id="line2d_12">
      <g>
       <use xlink:href="#m8e343aef83" x="81.748437" y="238.351958" style="stroke: #000000; stroke-width: 0.8"/>
      </g>
     </g>
     <g id="text_12">
      <!-- 8.0 -->
      <g transform="translate(60.848437 241.938677)scale(0.1 -0.1)">
       <use xlink:href="#Helvetica-38"/>
       <use xlink:href="#Helvetica-2e" x="55.615234"/>
       <use xlink:href="#Helvetica-30" x="83.398438"/>
      </g>
     </g>
    </g>
    <g id="ytick_6">
     <g id="line2d_13">
      <g>
       <use xlink:href="#m8e343aef83" x="81.748437" y="214.822151" style="stroke: #000000; stroke-width: 0.8"/>
      </g>
     </g>
     <g id="text_13">
      <!-- 5.0 -->
      <g transform="translate(60.848437 218.40887)scale(0.1 -0.1)">
       <use xlink:href="#Helvetica-35"/>
       <use xlink:href="#Helvetica-2e" x="55.615234"/>
       <use xlink:href="#Helvetica-30" x="83.398438"/>
      </g>
     </g>
    </g>
    <g id="ytick_7">
     <g id="line2d_14">
      <g>
       <use xlink:href="#m8e343aef83" x="81.748437" y="191.292344" style="stroke: #000000; stroke-width: 0.8"/>
      </g>
     </g>
     <g id="text_14">
      <!-- 4.0 -->
      <g transform="translate(60.848437 194.879062)scale(0.1 -0.1)">
       <use xlink:href="#Helvetica-34"/>
       <use xlink:href="#Helvetica-2e" x="55.615234"/>
       <use xlink:href="#Helvetica-30" x="83.398438"/>
      </g>
     </g>
    </g>
    <g id="ytick_8">
     <g id="line2d_15">
      <g>
       <use xlink:href="#m8e343aef83" x="81.748437" y="167.762536" style="stroke: #000000; stroke-width: 0.8"/>
      </g>
     </g>
     <g id="text_15">
      <!-- 3.5 -->
      <g transform="translate(60.848437 171.349255)scale(0.1 -0.1)">
       <use xlink:href="#Helvetica-33"/>
       <use xlink:href="#Helvetica-2e" x="55.615234"/>
       <use xlink:href="#Helvetica-35" x="83.398438"/>
      </g>
     </g>
    </g>
    <g id="ytick_9">
     <g id="line2d_16">
      <g>
       <use xlink:href="#m8e343aef83" x="81.748437" y="144.232729" style="stroke: #000000; stroke-width: 0.8"/>
      </g>
     </g>
     <g id="text_16">
      <!-- 3.0 -->
      <g transform="translate(60.848437 147.819448)scale(0.1 -0.1)">
       <use xlink:href="#Helvetica-33"/>
       <use xlink:href="#Helvetica-2e" x="55.615234"/>
       <use xlink:href="#Helvetica-30" x="83.398438"/>
      </g>
     </g>
    </g>
    <g id="ytick_10">
     <g id="line2d_17">
      <g>
       <use xlink:href="#m8e343aef83" x="81.748437" y="120.702922" style="stroke: #000000; stroke-width: 0.8"/>
      </g>
     </g>
     <g id="text_17">
      <!-- 2.0 -->
      <g transform="translate(60.848437 124.28964)scale(0.1 -0.1)">
       <use xlink:href="#Helvetica-32"/>
       <use xlink:href="#Helvetica-2e" x="55.615234"/>
       <use xlink:href="#Helvetica-30" x="83.398438"/>
      </g>
     </g>
    </g>
    <g id="ytick_11">
     <g id="line2d_18">
      <g>
       <use xlink:href="#m8e343aef83" x="81.748437" y="97.173114" style="stroke: #000000; stroke-width: 0.8"/>
      </g>
     </g>
     <g id="text_18">
      <!-- 1.5 -->
      <g transform="translate(60.848437 100.759833)scale(0.1 -0.1)">
       <use xlink:href="#Helvetica-31"/>
       <use xlink:href="#Helvetica-2e" x="55.615234"/>
       <use xlink:href="#Helvetica-35" x="83.398438"/>
      </g>
     </g>
    </g>
    <g id="ytick_12">
     <g id="line2d_19">
      <g>
       <use xlink:href="#m8e343aef83" x="81.748437" y="73.643307" style="stroke: #000000; stroke-width: 0.8"/>
      </g>
     </g>
     <g id="text_19">
      <!-- 1.0 -->
      <g transform="translate(60.848437 77.230026)scale(0.1 -0.1)">
       <use xlink:href="#Helvetica-31"/>
       <use xlink:href="#Helvetica-2e" x="55.615234"/>
       <use xlink:href="#Helvetica-30" x="83.398438"/>
      </g>
     </g>
    </g>
    <g id="ytick_13">
     <g id="line2d_20">
      <g>
       <use xlink:href="#m8e343aef83" x="81.748437" y="50.1135" style="stroke: #000000; stroke-width: 0.8"/>
      </g>
     </g>
     <g id="text_20">
      <!-- 0.0 -->
      <g transform="translate(60.848437 53.700218)scale(0.1 -0.1)">
       <use xlink:href="#Helvetica-30"/>
       <use xlink:href="#Helvetica-2e" x="55.615234"/>
       <use xlink:href="#Helvetica-30" x="83.398438"/>
      </g>
     </g>
    </g>
   </g>
   <g id="patch_16">
    <path d="M 81.748437 356.942187 
L 380.221531 356.942187 
" style="fill: none; stroke: #000000; stroke-width: 0.8; stroke-linejoin: miter; stroke-linecap: square"/>
   </g>
   <g id="text_21">
    <!-- 0% -->
    <g transform="translate(91.795956 335.015719)scale(0.1 -0.1)">
     <defs>
      <path id="Helvetica-25" d="M 4363 2175 
Q 4813 2175 5131 1856 
Q 5450 1538 5450 1088 
Q 5450 638 5131 319 
Q 4813 0 4363 0 
Q 3909 0 3590 319 
Q 3272 638 3272 1088 
Q 3272 1538 3590 1856 
Q 3909 2175 4363 2175 
z
M 3909 4456 
L 4256 4456 
L 1753 -119 
L 1406 -119 
L 3909 4456 
z
M 1294 2606 
Q 1563 2606 1752 2795 
Q 1941 2984 1941 3250 
Q 1941 3516 1752 3705 
Q 1563 3894 1294 3894 
Q 1028 3894 839 3706 
Q 650 3519 650 3250 
Q 650 2984 839 2795 
Q 1028 2606 1294 2606 
z
M 1294 4341 
Q 1747 4341 2065 4020 
Q 2384 3700 2384 3250 
Q 2384 2800 2065 2481 
Q 1747 2163 1294 2163 
Q 844 2163 525 2481 
Q 206 2800 206 3250 
Q 206 3700 525 4020 
Q 844 4341 1294 4341 
z
M 4363 444 
Q 4628 444 4817 633 
Q 5006 822 5006 1088 
Q 5006 1353 4817 1542 
Q 4628 1731 4363 1731 
Q 4094 1731 3905 1542 
Q 3716 1353 3716 1088 
Q 3716 822 3905 633 
Q 4094 444 4363 444 
z
" transform="scale(0.015625)"/>
     </defs>
     <use xlink:href="#Helvetica-30"/>
     <use xlink:href="#Helvetica-25" x="55.615234"/>
    </g>
   </g>
   <g id="text_22">
    <!-- 0% -->
    <g transform="translate(91.795956 311.485912)scale(0.1 -0.1)">
     <use xlink:href="#Helvetica-30"/>
     <use xlink:href="#Helvetica-25" x="55.615234"/>
    </g>
   </g>
   <g id="text_23">
    <!-- 0% -->
    <g transform="translate(91.795956 287.956104)scale(0.1 -0.1)">
     <use xlink:href="#Helvetica-30"/>
     <use xlink:href="#Helvetica-25" x="55.615234"/>
    </g>
   </g>
   <g id="text_24">
    <!-- 1% -->
    <g transform="translate(96.344117 264.426297)scale(0.1 -0.1)">
     <use xlink:href="#Helvetica-31"/>
     <use xlink:href="#Helvetica-25" x="55.615234"/>
    </g>
   </g>
   <g id="text_25">
    <!-- 0% -->
    <g transform="translate(91.795956 240.89649)scale(0.1 -0.1)">
     <use xlink:href="#Helvetica-30"/>
     <use xlink:href="#Helvetica-25" x="55.615234"/>
    </g>
   </g>
   <g id="text_26">
    <!-- 3% -->
    <g transform="translate(105.44044 217.366682)scale(0.1 -0.1)">
     <use xlink:href="#Helvetica-33"/>
     <use xlink:href="#Helvetica-25" x="55.615234"/>
    </g>
   </g>
   <g id="text_27">
    <!-- 2% -->
    <g transform="translate(98.618198 193.836875)scale(0.1 -0.1)">
     <use xlink:href="#Helvetica-32"/>
     <use xlink:href="#Helvetica-25" x="55.615234"/>
    </g>
   </g>
   <g id="text_28">
    <!-- 0% -->
    <g transform="translate(91.795956 170.307068)scale(0.1 -0.1)">
     <use xlink:href="#Helvetica-30"/>
     <use xlink:href="#Helvetica-25" x="55.615234"/>
    </g>
   </g>
   <g id="text_29">
    <!-- 4% -->
    <g transform="translate(107.714521 146.77726)scale(0.1 -0.1)">
     <use xlink:href="#Helvetica-34"/>
     <use xlink:href="#Helvetica-25" x="55.615234"/>
    </g>
   </g>
   <g id="text_30">
    <!-- 24% -->
    <g transform="translate(202.719522 123.247453)scale(0.1 -0.1)">
     <use xlink:href="#Helvetica-32"/>
     <use xlink:href="#Helvetica-34" x="55.615234"/>
     <use xlink:href="#Helvetica-25" x="111.230469"/>
    </g>
   </g>
   <g id="text_31">
    <!-- 1% -->
    <g transform="translate(94.070036 99.717646)scale(0.1 -0.1)">
     <use xlink:href="#Helvetica-31"/>
     <use xlink:href="#Helvetica-25" x="55.615234"/>
    </g>
   </g>
   <g id="text_32">
    <!-- 58% -->
    <g transform="translate(371.001495 76.187838)scale(0.1 -0.1)">
     <use xlink:href="#Helvetica-35"/>
     <use xlink:href="#Helvetica-38" x="55.615234"/>
     <use xlink:href="#Helvetica-25" x="111.230469"/>
    </g>
   </g>
   <g id="text_33">
    <!-- 5% -->
    <g transform="translate(114.536763 52.658031)scale(0.1 -0.1)">
     <use xlink:href="#Helvetica-35"/>
     <use xlink:href="#Helvetica-25" x="55.615234"/>
    </g>
   </g>
   <g id="text_34">
    <!-- Bus factor, Germany -->
    <g transform="translate(175.968734 19.6425)scale(0.12 -0.12)">
     <defs>
      <path id="Helvetica-42" d="M 2213 2650 
Q 2606 2650 2825 2759 
Q 3169 2931 3169 3378 
Q 3169 3828 2803 3984 
Q 2597 4072 2191 4072 
L 1081 4072 
L 1081 2650 
L 2213 2650 
z
M 2422 531 
Q 2994 531 3238 863 
Q 3391 1072 3391 1369 
Q 3391 1869 2944 2050 
Q 2706 2147 2316 2147 
L 1081 2147 
L 1081 531 
L 2422 531 
z
M 472 4591 
L 2444 4591 
Q 3250 4591 3591 4109 
Q 3791 3825 3791 3453 
Q 3791 3019 3544 2741 
Q 3416 2594 3175 2472 
Q 3528 2338 3703 2169 
Q 4013 1869 4013 1341 
Q 4013 897 3734 538 
Q 3319 0 2413 0 
L 472 0 
L 472 4591 
z
" transform="scale(0.015625)"/>
      <path id="Helvetica-75" d="M 975 3347 
L 975 1125 
Q 975 869 1056 706 
Q 1206 406 1616 406 
Q 2203 406 2416 931 
Q 2531 1213 2531 1703 
L 2531 3347 
L 3094 3347 
L 3094 0 
L 2563 0 
L 2569 494 
Q 2459 303 2297 172 
Q 1975 -91 1516 -91 
Q 800 -91 541 388 
Q 400 644 400 1072 
L 400 3347 
L 975 3347 
z
M 1747 3428 
L 1747 3428 
z
" transform="scale(0.015625)"/>
      <path id="Helvetica-73" d="M 747 1050 
Q 772 769 888 619 
Q 1100 347 1625 347 
Q 1938 347 2175 483 
Q 2413 619 2413 903 
Q 2413 1119 2222 1231 
Q 2100 1300 1741 1391 
L 1294 1503 
Q 866 1609 663 1741 
Q 300 1969 300 2372 
Q 300 2847 642 3140 
Q 984 3434 1563 3434 
Q 2319 3434 2653 2991 
Q 2863 2709 2856 2384 
L 2325 2384 
Q 2309 2575 2191 2731 
Q 1997 2953 1519 2953 
Q 1200 2953 1036 2831 
Q 872 2709 872 2509 
Q 872 2291 1088 2159 
Q 1213 2081 1456 2022 
L 1828 1931 
Q 2434 1784 2641 1647 
Q 2969 1431 2969 969 
Q 2969 522 2630 197 
Q 2291 -128 1597 -128 
Q 850 -128 539 211 
Q 228 550 206 1050 
L 747 1050 
z
M 1578 3428 
L 1578 3428 
z
" transform="scale(0.015625)"/>
      <path id="Helvetica-20" transform="scale(0.015625)"/>
      <path id="Helvetica-66" d="M 553 3856 
Q 566 4206 675 4369 
Q 872 4656 1434 4656 
Q 1488 4656 1544 4653 
Q 1600 4650 1672 4644 
L 1672 4131 
Q 1584 4138 1545 4139 
Q 1506 4141 1472 4141 
Q 1216 4141 1166 4008 
Q 1116 3875 1116 3331 
L 1672 3331 
L 1672 2888 
L 1109 2888 
L 1109 0 
L 553 0 
L 553 2888 
L 88 2888 
L 88 3331 
L 553 3331 
L 553 3856 
z
" transform="scale(0.015625)"/>
      <path id="Helvetica-61" d="M 844 891 
Q 844 647 1022 506 
Q 1200 366 1444 366 
Q 1741 366 2019 503 
Q 2488 731 2488 1250 
L 2488 1703 
Q 2384 1638 2221 1594 
Q 2059 1550 1903 1531 
L 1563 1488 
Q 1256 1447 1103 1359 
Q 844 1213 844 891 
z
M 2206 2028 
Q 2400 2053 2466 2191 
Q 2503 2266 2503 2406 
Q 2503 2694 2298 2823 
Q 2094 2953 1713 2953 
Q 1272 2953 1088 2716 
Q 984 2584 953 2325 
L 428 2325 
Q 444 2944 830 3186 
Q 1216 3428 1725 3428 
Q 2316 3428 2684 3203 
Q 3050 2978 3050 2503 
L 3050 575 
Q 3050 488 3086 434 
Q 3122 381 3238 381 
Q 3275 381 3322 386 
Q 3369 391 3422 400 
L 3422 -16 
Q 3291 -53 3222 -62 
Q 3153 -72 3034 -72 
Q 2744 -72 2613 134 
Q 2544 244 2516 444 
Q 2344 219 2022 53 
Q 1700 -113 1313 -113 
Q 847 -113 551 170 
Q 256 453 256 878 
Q 256 1344 547 1600 
Q 838 1856 1309 1916 
L 2206 2028 
z
M 1741 3428 
L 1741 3428 
z
" transform="scale(0.015625)"/>
      <path id="Helvetica-63" d="M 1703 3444 
Q 2269 3444 2623 3169 
Q 2978 2894 3050 2222 
L 2503 2222 
Q 2453 2531 2275 2736 
Q 2097 2941 1703 2941 
Q 1166 2941 934 2416 
Q 784 2075 784 1575 
Q 784 1072 996 728 
Q 1209 384 1666 384 
Q 2016 384 2220 598 
Q 2425 813 2503 1184 
L 3050 1184 
Q 2956 519 2581 211 
Q 2206 -97 1622 -97 
Q 966 -97 575 383 
Q 184 863 184 1581 
Q 184 2463 612 2953 
Q 1041 3444 1703 3444 
z
M 1616 3428 
L 1616 3428 
z
" transform="scale(0.015625)"/>
      <path id="Helvetica-74" d="M 525 4281 
L 1094 4281 
L 1094 3347 
L 1628 3347 
L 1628 2888 
L 1094 2888 
L 1094 703 
Q 1094 528 1213 469 
Q 1278 434 1431 434 
Q 1472 434 1519 436 
Q 1566 438 1628 444 
L 1628 0 
Q 1531 -28 1426 -40 
Q 1322 -53 1200 -53 
Q 806 -53 665 148 
Q 525 350 525 672 
L 525 2888 
L 72 2888 
L 72 3347 
L 525 3347 
L 525 4281 
z
" transform="scale(0.015625)"/>
      <path id="Helvetica-6f" d="M 1741 363 
Q 2300 363 2508 786 
Q 2716 1209 2716 1728 
Q 2716 2197 2566 2491 
Q 2328 2953 1747 2953 
Q 1231 2953 997 2559 
Q 763 2166 763 1609 
Q 763 1075 997 719 
Q 1231 363 1741 363 
z
M 1763 3444 
Q 2409 3444 2856 3012 
Q 3303 2581 3303 1744 
Q 3303 934 2909 406 
Q 2516 -122 1688 -122 
Q 997 -122 590 345 
Q 184 813 184 1600 
Q 184 2444 612 2944 
Q 1041 3444 1763 3444 
z
M 1744 3428 
L 1744 3428 
z
" transform="scale(0.015625)"/>
      <path id="Helvetica-72" d="M 428 3347 
L 963 3347 
L 963 2769 
Q 1028 2938 1284 3180 
Q 1541 3422 1875 3422 
Q 1891 3422 1928 3419 
Q 1966 3416 2056 3406 
L 2056 2813 
Q 2006 2822 1964 2825 
Q 1922 2828 1872 2828 
Q 1447 2828 1219 2554 
Q 991 2281 991 1925 
L 991 0 
L 428 0 
L 428 3347 
z
" transform="scale(0.015625)"/>
      <path id="Helvetica-2c" d="M 531 -653 
Q 747 -616 834 -350 
Q 881 -209 881 -78 
Q 881 -56 879 -39 
Q 878 -22 872 0 
L 531 0 
L 531 681 
L 1200 681 
L 1200 50 
Q 1200 -322 1050 -603 
Q 900 -884 531 -950 
L 531 -653 
z
" transform="scale(0.015625)"/>
      <path id="Helvetica-47" d="M 2472 4709 
Q 3119 4709 3591 4459 
Q 4275 4100 4428 3200 
L 3813 3200 
Q 3700 3703 3347 3933 
Q 2994 4163 2456 4163 
Q 1819 4163 1383 3684 
Q 947 3206 947 2259 
Q 947 1441 1306 927 
Q 1666 413 2478 413 
Q 3100 413 3508 773 
Q 3916 1134 3925 1941 
L 2488 1941 
L 2488 2456 
L 4503 2456 
L 4503 0 
L 4103 0 
L 3953 591 
Q 3638 244 3394 109 
Q 2984 -122 2353 -122 
Q 1538 -122 950 406 
Q 309 1069 309 2225 
Q 309 3378 934 4059 
Q 1528 4709 2472 4709 
z
M 2369 4716 
L 2369 4716 
z
" transform="scale(0.015625)"/>
      <path id="Helvetica-65" d="M 1806 3422 
Q 2163 3422 2497 3255 
Q 2831 3088 3006 2822 
Q 3175 2569 3231 2231 
Q 3281 2000 3281 1494 
L 828 1494 
Q 844 984 1069 676 
Q 1294 369 1766 369 
Q 2206 369 2469 659 
Q 2619 828 2681 1050 
L 3234 1050 
Q 3213 866 3089 639 
Q 2966 413 2813 269 
Q 2556 19 2178 -69 
Q 1975 -119 1719 -119 
Q 1094 -119 659 336 
Q 225 791 225 1609 
Q 225 2416 662 2919 
Q 1100 3422 1806 3422 
z
M 2703 1941 
Q 2669 2306 2544 2525 
Q 2313 2931 1772 2931 
Q 1384 2931 1121 2651 
Q 859 2372 844 1941 
L 2703 1941 
z
M 1753 3428 
L 1753 3428 
z
" transform="scale(0.015625)"/>
      <path id="Helvetica-6d" d="M 413 3347 
L 969 3347 
L 969 2872 
Q 1169 3119 1331 3231 
Q 1609 3422 1963 3422 
Q 2363 3422 2606 3225 
Q 2744 3113 2856 2894 
Q 3044 3163 3297 3292 
Q 3550 3422 3866 3422 
Q 4541 3422 4784 2934 
Q 4916 2672 4916 2228 
L 4916 0 
L 4331 0 
L 4331 2325 
Q 4331 2659 4164 2784 
Q 3997 2909 3756 2909 
Q 3425 2909 3186 2687 
Q 2947 2466 2947 1947 
L 2947 0 
L 2375 0 
L 2375 2184 
Q 2375 2525 2294 2681 
Q 2166 2916 1816 2916 
Q 1497 2916 1236 2669 
Q 975 2422 975 1775 
L 975 0 
L 413 0 
L 413 3347 
z
" transform="scale(0.015625)"/>
      <path id="Helvetica-6e" d="M 413 3347 
L 947 3347 
L 947 2872 
Q 1184 3166 1450 3294 
Q 1716 3422 2041 3422 
Q 2753 3422 3003 2925 
Q 3141 2653 3141 2147 
L 3141 0 
L 2569 0 
L 2569 2109 
Q 2569 2416 2478 2603 
Q 2328 2916 1934 2916 
Q 1734 2916 1606 2875 
Q 1375 2806 1200 2600 
Q 1059 2434 1017 2257 
Q 975 2081 975 1753 
L 975 0 
L 413 0 
L 413 3347 
z
M 1734 3428 
L 1734 3428 
z
" transform="scale(0.015625)"/>
      <path id="Helvetica-79" d="M 2503 3347 
L 3125 3347 
Q 3006 3025 2597 1878 
Q 2291 1016 2084 472 
Q 1597 -809 1397 -1090 
Q 1197 -1372 709 -1372 
Q 591 -1372 527 -1362 
Q 463 -1353 369 -1328 
L 369 -816 
Q 516 -856 581 -865 
Q 647 -875 697 -875 
Q 853 -875 926 -823 
Q 1000 -772 1050 -697 
Q 1066 -672 1162 -440 
Q 1259 -209 1303 -97 
L 66 3347 
L 703 3347 
L 1600 622 
L 2503 3347 
z
M 1597 3428 
L 1597 3428 
z
" transform="scale(0.015625)"/>
     </defs>
     <use xlink:href="#Helvetica-42"/>
     <use xlink:href="#Helvetica-75" x="66.699219"/>
     <use xlink:href="#Helvetica-73" x="122.314453"/>
     <use xlink:href="#Helvetica-20" x="172.314453"/>
     <use xlink:href="#Helvetica-66" x="200.097656"/>
     <use xlink:href="#Helvetica-61" x="227.880859"/>
     <use xlink:href="#Helvetica-63" x="283.496094"/>
     <use xlink:href="#Helvetica-74" x="333.496094"/>
     <use xlink:href="#Helvetica-6f" x="361.279297"/>
     <use xlink:href="#Helvetica-72" x="416.894531"/>
     <use xlink:href="#Helvetica-2c" x="450.195312"/>
     <use xlink:href="#Helvetica-20" x="477.978516"/>
     <use xlink:href="#Helvetica-47" x="505.761719"/>
     <use xlink:href="#Helvetica-65" x="583.544922"/>
     <use xlink:href="#Helvetica-72" x="639.160156"/>
     <use xlink:href="#Helvetica-6d" x="672.460938"/>
     <use xlink:href="#Helvetica-61" x="755.761719"/>
     <use xlink:href="#Helvetica-6e" x="811.376953"/>
     <use xlink:href="#Helvetica-79" x="866.992188"/>
    </g>
   </g>
  </g>
  <g id="axes_2">
   <g id="patch_17">
    <path d="M 407.360987 356.942187 
L 450 356.942187 
L 450 25.6425 
L 407.360987 25.6425 
z
" style="fill: #ffffff"/>
   </g>
   <g id="patch_18">
    <path d="M 0 0 
z
" clip-path="url(#p910dec3675)" style="fill: #ffa500"/>
   </g>
   <g id="patch_19">
    <path d="M 0 0 
z
" clip-path="url(#p910dec3675)" style="fill: #ffa500"/>
   </g>
   <g id="patch_20">
    <path d="M 0 0 
z
" clip-path="url(#p910dec3675)" style="fill: #ffa500"/>
   </g>
   <g id="patch_21">
    <path d="M 0 0 
z
" clip-path="url(#p910dec3675)" style="fill: #ffa500"/>
   </g>
   <g id="patch_22">
    <path d="M 0 0 
z
" clip-path="url(#p910dec3675)" style="fill: #ffa500"/>
   </g>
   <g id="patch_23">
    <path d="M 431.00385 224.234074 
L 448.061863 224.234074 
L 448.061863 205.410228 
L 431.00385 205.410228 
z
" clip-path="url(#p910dec3675)" style="fill: #008000"/>
   </g>
   <g id="patch_24">
    <path d="M 431.00385 200.704267 
L 437.408129 200.704267 
L 437.408129 181.880421 
L 431.00385 181.880421 
z
" clip-path="url(#p910dec3675)" style="fill: #008000"/>
   </g>
   <g id="patch_25">
    <path d="M 0 0 
z
" clip-path="url(#p910dec3675)" style="fill: #ffa500"/>
   </g>
   <g id="patch_26">
    <path d="M 431.00385 153.644652 
L 415.20984 153.644652 
L 415.20984 134.820806 
L 431.00385 134.820806 
z
" clip-path="url(#p910dec3675)" style="fill: #ffa500"/>
   </g>
   <g id="patch_27">
    <path d="M 431.00385 130.114845 
L 409.299124 130.114845 
L 409.299124 111.290999 
L 431.00385 111.290999 
z
" clip-path="url(#p910dec3675)" style="fill: #ffa500"/>
   </g>
   <g id="patch_28">
    <path d="M 431.00385 106.585037 
L 432.905873 106.585037 
L 432.905873 87.761191 
L 431.00385 87.761191 
z
" clip-path="url(#p910dec3675)" style="fill: #008000"/>
   </g>
   <g id="patch_29">
    <path d="M 431.00385 83.05523 
L 435.469992 83.05523 
L 435.469992 64.231384 
L 431.00385 64.231384 
z
" clip-path="url(#p910dec3675)" style="fill: #008000"/>
   </g>
   <g id="patch_30">
    <path d="M 431.00385 59.525423 
L 425.863574 59.525423 
L 425.863574 40.701577 
L 431.00385 40.701577 
z
" clip-path="url(#p910dec3675)" style="fill: #ffa500"/>
   </g>
   <g id="matplotlib.axis_3">
    <g id="xtick_8">
     <g id="line2d_21">
      <g>
       <use xlink:href="#m4c99cd72f3" x="411.827128" y="356.942187" style="stroke: #000000; stroke-width: 0.8"/>
      </g>
     </g>
     <g id="text_35">
      <!-- −2.5 -->
      <g transform="translate(401.956816 371.115625)scale(0.1 -0.1)">
       <defs>
        <path id="Helvetica-2212" d="M 3547 1894 
L 3547 1369 
L 288 1369 
L 288 1894 
L 3547 1894 
z
" transform="scale(0.015625)"/>
       </defs>
       <use xlink:href="#Helvetica-2212"/>
       <use xlink:href="#Helvetica-32" x="58.398438"/>
       <use xlink:href="#Helvetica-2e" x="114.013672"/>
       <use xlink:href="#Helvetica-35" x="141.796875"/>
      </g>
     </g>
    </g>
    <g id="xtick_9">
     <g id="line2d_22">
      <g>
       <use xlink:href="#m4c99cd72f3" x="431.00385" y="356.942187" style="stroke: #000000; stroke-width: 0.8"/>
      </g>
     </g>
     <g id="text_36">
      <!-- 0.0 -->
      <g transform="translate(424.05385 371.115625)scale(0.1 -0.1)">
       <use xlink:href="#Helvetica-30"/>
       <use xlink:href="#Helvetica-2e" x="55.615234"/>
       <use xlink:href="#Helvetica-30" x="83.398438"/>
      </g>
     </g>
    </g>
   </g>
   <g id="matplotlib.axis_4">
    <g id="ytick_14">
     <g id="line2d_23">
      <g>
       <use xlink:href="#m8e343aef83" x="407.360987" y="332.471188" style="stroke: #000000; stroke-width: 0.8"/>
      </g>
     </g>
    </g>
    <g id="ytick_15">
     <g id="line2d_24">
      <g>
       <use xlink:href="#m8e343aef83" x="407.360987" y="308.941381" style="stroke: #000000; stroke-width: 0.8"/>
      </g>
     </g>
    </g>
    <g id="ytick_16">
     <g id="line2d_25">
      <g>
       <use xlink:href="#m8e343aef83" x="407.360987" y="285.411573" style="stroke: #000000; stroke-width: 0.8"/>
      </g>
     </g>
    </g>
    <g id="ytick_17">
     <g id="line2d_26">
      <g>
       <use xlink:href="#m8e343aef83" x="407.360987" y="261.881766" style="stroke: #000000; stroke-width: 0.8"/>
      </g>
     </g>
    </g>
    <g id="ytick_18">
     <g id="line2d_27">
      <g>
       <use xlink:href="#m8e343aef83" x="407.360987" y="238.351958" style="stroke: #000000; stroke-width: 0.8"/>
      </g>
     </g>
    </g>
    <g id="ytick_19">
     <g id="line2d_28">
      <g>
       <use xlink:href="#m8e343aef83" x="407.360987" y="214.822151" style="stroke: #000000; stroke-width: 0.8"/>
      </g>
     </g>
    </g>
    <g id="ytick_20">
     <g id="line2d_29">
      <g>
       <use xlink:href="#m8e343aef83" x="407.360987" y="191.292344" style="stroke: #000000; stroke-width: 0.8"/>
      </g>
     </g>
    </g>
    <g id="ytick_21">
     <g id="line2d_30">
      <g>
       <use xlink:href="#m8e343aef83" x="407.360987" y="167.762536" style="stroke: #000000; stroke-width: 0.8"/>
      </g>
     </g>
    </g>
    <g id="ytick_22">
     <g id="line2d_31">
      <g>
       <use xlink:href="#m8e343aef83" x="407.360987" y="144.232729" style="stroke: #000000; stroke-width: 0.8"/>
      </g>
     </g>
    </g>
    <g id="ytick_23">
     <g id="line2d_32">
      <g>
       <use xlink:href="#m8e343aef83" x="407.360987" y="120.702922" style="stroke: #000000; stroke-width: 0.8"/>
      </g>
     </g>
    </g>
    <g id="ytick_24">
     <g id="line2d_33">
      <g>
       <use xlink:href="#m8e343aef83" x="407.360987" y="97.173114" style="stroke: #000000; stroke-width: 0.8"/>
      </g>
     </g>
    </g>
    <g id="ytick_25">
     <g id="line2d_34">
      <g>
       <use xlink:href="#m8e343aef83" x="407.360987" y="73.643307" style="stroke: #000000; stroke-width: 0.8"/>
      </g>
     </g>
    </g>
    <g id="ytick_26">
     <g id="line2d_35">
      <g>
       <use xlink:href="#m8e343aef83" x="407.360987" y="50.1135" style="stroke: #000000; stroke-width: 0.8"/>
      </g>
     </g>
    </g>
   </g>
   <g id="patch_31">
    <path d="M 407.360987 356.942187 
L 450 356.942187 
" style="fill: none; stroke: #000000; stroke-width: 0.8; stroke-linejoin: miter; stroke-linecap: square"/>
   </g>
   <g id="text_37">
    <!-- Δ -->
    <g transform="translate(424.347368 19.6425)scale(0.12 -0.12)">
     <defs>
      <path id="Helvetica-394" d="M 922 500 
L 3672 500 
L 2278 3941 
L 922 500 
z
M 1966 4519 
L 2631 4519 
L 4494 0 
L 128 0 
L 1966 4519 
z
" transform="scale(0.015625)"/>
     </defs>
     <use xlink:href="#Helvetica-394"/>
    </g>
   </g>
  </g>
 </g>
 <defs>
  <clipPath id="pa6d5b79ec1">
   <rect x="81.748437" y="25.6425" width="298.473093" height="331.299688"/>
  </clipPath>
  <clipPath id="p910dec3675">
   <rect x="407.360987" y="25.6425" width="42.639013" height="331.299688"/>
  </clipPath>
 </defs>
</svg>
