<?xml version="1.0" encoding="utf-8" standalone="no"?>
<!DOCTYPE svg PUBLIC "-//W3C//DTD SVG 1.1//EN"
  "http://www.w3.org/Graphics/SVG/1.1/DTD/svg11.dtd">
<svg xmlns:xlink="http://www.w3.org/1999/xlink" width="648pt" height="252pt" viewBox="0 0 648 252" xmlns="http://www.w3.org/2000/svg" version="1.1">
 <metadata>
  <rdf:RDF xmlns:dc="http://purl.org/dc/elements/1.1/" xmlns:cc="http://creativecommons.org/ns#" xmlns:rdf="http://www.w3.org/1999/02/22-rdf-syntax-ns#">
   <cc:Work>
    <dc:type rdf:resource="http://purl.org/dc/dcmitype/StillImage"/>
    <dc:date>2022-05-19T12:20:30.486193</dc:date>
    <dc:format>image/svg+xml</dc:format>
    <dc:creator>
     <cc:Agent>
      <dc:title>Matplotlib v3.5.1, https://matplotlib.org/</dc:title>
     </cc:Agent>
    </dc:creator>
   </cc:Work>
  </rdf:RDF>
 </metadata>
 <defs>
  <style type="text/css">*{stroke-linejoin: round; stroke-linecap: butt}</style>
 </defs>
 <g id="figure_1">
  <g id="patch_1">
   <path d="M 0 252 
L 648 252 
L 648 0 
L 0 0 
z
" style="fill: #ffffff"/>
  </g>
  <g id="axes_1">
   <g id="patch_2">
    <path d="M 240.964219 211.55625 
L 628.858594 211.55625 
L 628.858594 47.94 
L 240.964219 47.94 
z
" style="fill: #ffffff"/>
   </g>
   <g id="line2d_1">
    <path d="M 435.395065 211.55625 
L 435.395065 47.94 
" clip-path="url(#pb2f03cf4cd)" style="fill: none; stroke-dasharray: 5.55,2.4; stroke-dashoffset: 0; stroke: #000000; stroke-opacity: 0.5; stroke-width: 1.5"/>
   </g>
   <g id="patch_3">
    <path d="M 316.092556 99.608289 
L 316.092556 99.608289 
L 316.092556 168.499342 
L 316.092556 168.499342 
z
" clip-path="url(#pb2f03cf4cd)" style="fill: #67001f"/>
   </g>
   <g id="patch_4">
    <path d="M 316.092556 99.608289 
L 351.560869 99.608289 
L 351.560869 168.499342 
L 316.092556 168.499342 
z
" clip-path="url(#pb2f03cf4cd)" style="fill: #b61f2e"/>
   </g>
   <g id="patch_5">
    <path d="M 351.560869 99.608289 
L 390.253575 99.608289 
L 390.253575 168.499342 
L 351.560869 168.499342 
z
" clip-path="url(#pb2f03cf4cd)" style="fill: #dc6e57"/>
   </g>
   <g id="patch_6">
    <path d="M 390.253575 99.608289 
L 409.599928 99.608289 
L 409.599928 168.499342 
L 390.253575 168.499342 
z
" clip-path="url(#pb2f03cf4cd)" style="fill: #f7b799"/>
   </g>
   <g id="patch_7">
    <path d="M 409.599928 99.608289 
L 435.395065 99.608289 
L 435.395065 168.499342 
L 409.599928 168.499342 
z
" clip-path="url(#pb2f03cf4cd)" style="fill: #fae7dc"/>
   </g>
   <g id="patch_8">
    <path d="M 435.395065 99.608289 
L 454.741418 99.608289 
L 454.741418 168.499342 
L 435.395065 168.499342 
z
" clip-path="url(#pb2f03cf4cd)" style="fill: #e1edf3"/>
   </g>
   <g id="patch_9">
    <path d="M 454.741418 99.608289 
L 480.536555 99.608289 
L 480.536555 168.499342 
L 454.741418 168.499342 
z
" clip-path="url(#pb2f03cf4cd)" style="fill: #a7d0e4"/>
   </g>
   <g id="patch_10">
    <path d="M 480.536555 99.608289 
L 501.495104 99.608289 
L 501.495104 168.499342 
L 480.536555 168.499342 
z
" clip-path="url(#pb2f03cf4cd)" style="fill: #529dc8"/>
   </g>
   <g id="patch_11">
    <path d="M 501.495104 99.608289 
L 509.556084 99.608289 
L 509.556084 168.499342 
L 501.495104 168.499342 
z
" clip-path="url(#pb2f03cf4cd)" style="fill: #246aae"/>
   </g>
   <g id="patch_12">
    <path d="M 509.556084 99.608289 
L 509.556084 99.608289 
L 509.556084 168.499342 
L 509.556084 168.499342 
z
" clip-path="url(#pb2f03cf4cd)" style="fill: #053061"/>
   </g>
   <g id="matplotlib.axis_1">
    <g id="xtick_1">
     <g id="line2d_2">
      <defs>
       <path id="m4c99cd72f3" d="M 0 0 
L 0 3.5 
" style="stroke: #000000; stroke-width: 0.8"/>
      </defs>
      <g>
       <use xlink:href="#m4c99cd72f3" x="241.931536" y="211.55625" style="stroke: #000000; stroke-width: 0.8"/>
      </g>
     </g>
     <g id="text_1">
      <!-- 100 -->
      <g transform="translate(233.59013 225.729688)scale(0.1 -0.1)">
       <defs>
        <path id="Helvetica-31" d="M 613 3169 
L 613 3600 
Q 1222 3659 1462 3798 
Q 1703 3938 1822 4456 
L 2266 4456 
L 2266 0 
L 1666 0 
L 1666 3169 
L 613 3169 
z
" transform="scale(0.015625)"/>
        <path id="Helvetica-30" d="M 1731 4475 
Q 2600 4475 2988 3759 
Q 3288 3206 3288 2244 
Q 3288 1331 3016 734 
Q 2622 -122 1728 -122 
Q 922 -122 528 578 
Q 200 1163 200 2147 
Q 200 2909 397 3456 
Q 766 4475 1731 4475 
z
M 1725 391 
Q 2163 391 2422 778 
Q 2681 1166 2681 2222 
Q 2681 2984 2493 3476 
Q 2306 3969 1766 3969 
Q 1269 3969 1039 3501 
Q 809 3034 809 2125 
Q 809 1441 956 1025 
Q 1181 391 1725 391 
z
" transform="scale(0.015625)"/>
       </defs>
       <use xlink:href="#Helvetica-31"/>
       <use xlink:href="#Helvetica-30" x="55.615234"/>
       <use xlink:href="#Helvetica-30" x="111.230469"/>
      </g>
     </g>
    </g>
    <g id="xtick_2">
     <g id="line2d_3">
      <g>
       <use xlink:href="#m4c99cd72f3" x="261.277889" y="211.55625" style="stroke: #000000; stroke-width: 0.8"/>
      </g>
     </g>
     <g id="text_2">
      <!-- 90 -->
      <g transform="translate(255.716952 225.729688)scale(0.1 -0.1)">
       <defs>
        <path id="Helvetica-39" d="M 850 1081 
Q 875 616 1209 438 
Q 1381 344 1597 344 
Q 2000 344 2284 680 
Q 2569 1016 2688 2044 
Q 2500 1747 2223 1626 
Q 1947 1506 1628 1506 
Q 981 1506 604 1909 
Q 228 2313 228 2947 
Q 228 3556 600 4018 
Q 972 4481 1697 4481 
Q 2675 4481 3047 3600 
Q 3253 3116 3253 2388 
Q 3253 1566 3006 931 
Q 2597 -125 1619 -125 
Q 963 -125 622 219 
Q 281 563 281 1081 
L 850 1081 
z
M 1703 2000 
Q 2038 2000 2314 2220 
Q 2591 2441 2591 2991 
Q 2591 3484 2342 3726 
Q 2094 3969 1709 3969 
Q 1297 3969 1055 3692 
Q 813 3416 813 2953 
Q 813 2516 1025 2258 
Q 1238 2000 1703 2000 
z
" transform="scale(0.015625)"/>
       </defs>
       <use xlink:href="#Helvetica-39"/>
       <use xlink:href="#Helvetica-30" x="55.615234"/>
      </g>
     </g>
    </g>
    <g id="xtick_3">
     <g id="line2d_4">
      <g>
       <use xlink:href="#m4c99cd72f3" x="280.624242" y="211.55625" style="stroke: #000000; stroke-width: 0.8"/>
      </g>
     </g>
     <g id="text_3">
      <!-- 80 -->
      <g transform="translate(275.063305 225.729688)scale(0.1 -0.1)">
       <defs>
        <path id="Helvetica-38" d="M 1741 2600 
Q 2113 2600 2322 2808 
Q 2531 3016 2531 3303 
Q 2531 3553 2331 3762 
Q 2131 3972 1722 3972 
Q 1316 3972 1134 3762 
Q 953 3553 953 3272 
Q 953 2956 1187 2778 
Q 1422 2600 1741 2600 
z
M 1775 384 
Q 2166 384 2423 595 
Q 2681 806 2681 1225 
Q 2681 1659 2415 1884 
Q 2150 2109 1734 2109 
Q 1331 2109 1076 1879 
Q 822 1650 822 1244 
Q 822 894 1055 639 
Q 1288 384 1775 384 
z
M 975 2384 
Q 741 2484 609 2619 
Q 363 2869 363 3269 
Q 363 3769 725 4128 
Q 1088 4488 1753 4488 
Q 2397 4488 2762 4148 
Q 3128 3809 3128 3356 
Q 3128 2938 2916 2678 
Q 2797 2531 2547 2391 
Q 2825 2263 2984 2097 
Q 3281 1784 3281 1284 
Q 3281 694 2884 283 
Q 2488 -128 1763 -128 
Q 1109 -128 657 226 
Q 206 581 206 1256 
Q 206 1653 400 1942 
Q 594 2231 975 2384 
z
" transform="scale(0.015625)"/>
       </defs>
       <use xlink:href="#Helvetica-38"/>
       <use xlink:href="#Helvetica-30" x="55.615234"/>
      </g>
     </g>
    </g>
    <g id="xtick_4">
     <g id="line2d_5">
      <g>
       <use xlink:href="#m4c99cd72f3" x="299.970595" y="211.55625" style="stroke: #000000; stroke-width: 0.8"/>
      </g>
     </g>
     <g id="text_4">
      <!-- 70 -->
      <g transform="translate(294.409657 225.729688)scale(0.1 -0.1)">
       <defs>
        <path id="Helvetica-37" d="M 3347 4400 
L 3347 3909 
Q 3131 3700 2773 3181 
Q 2416 2663 2141 2063 
Q 1869 1478 1728 997 
Q 1638 688 1494 0 
L 872 0 
Q 1084 1281 1809 2550 
Q 2238 3294 2709 3834 
L 234 3834 
L 234 4400 
L 3347 4400 
z
" transform="scale(0.015625)"/>
       </defs>
       <use xlink:href="#Helvetica-37"/>
       <use xlink:href="#Helvetica-30" x="55.615234"/>
      </g>
     </g>
    </g>
    <g id="xtick_5">
     <g id="line2d_6">
      <g>
       <use xlink:href="#m4c99cd72f3" x="319.316948" y="211.55625" style="stroke: #000000; stroke-width: 0.8"/>
      </g>
     </g>
     <g id="text_5">
      <!-- 60 -->
      <g transform="translate(313.75601 225.729688)scale(0.1 -0.1)">
       <defs>
        <path id="Helvetica-36" d="M 1872 4494 
Q 2622 4494 2917 4105 
Q 3213 3716 3213 3303 
L 2656 3303 
Q 2606 3569 2497 3719 
Q 2294 4000 1881 4000 
Q 1409 4000 1131 3564 
Q 853 3128 822 2316 
Q 1016 2600 1309 2741 
Q 1578 2866 1909 2866 
Q 2472 2866 2890 2506 
Q 3309 2147 3309 1434 
Q 3309 825 2912 354 
Q 2516 -116 1781 -116 
Q 1153 -116 697 361 
Q 241 838 241 1966 
Q 241 2800 444 3381 
Q 834 4494 1872 4494 
z
M 1831 384 
Q 2275 384 2495 682 
Q 2716 981 2716 1388 
Q 2716 1731 2519 2042 
Q 2322 2353 1803 2353 
Q 1441 2353 1167 2112 
Q 894 1872 894 1388 
Q 894 963 1142 673 
Q 1391 384 1831 384 
z
" transform="scale(0.015625)"/>
       </defs>
       <use xlink:href="#Helvetica-36"/>
       <use xlink:href="#Helvetica-30" x="55.615234"/>
      </g>
     </g>
    </g>
    <g id="xtick_6">
     <g id="line2d_7">
      <g>
       <use xlink:href="#m4c99cd72f3" x="338.663301" y="211.55625" style="stroke: #000000; stroke-width: 0.8"/>
      </g>
     </g>
     <g id="text_6">
      <!-- 50 -->
      <g transform="translate(333.102363 225.729688)scale(0.1 -0.1)">
       <defs>
        <path id="Helvetica-35" d="M 791 1141 
Q 847 659 1238 475 
Q 1438 381 1700 381 
Q 2200 381 2440 700 
Q 2681 1019 2681 1406 
Q 2681 1875 2395 2131 
Q 2109 2388 1709 2388 
Q 1419 2388 1211 2275 
Q 1003 2163 856 1963 
L 369 1991 
L 709 4400 
L 3034 4400 
L 3034 3856 
L 1131 3856 
L 941 2613 
Q 1097 2731 1238 2791 
Q 1488 2894 1816 2894 
Q 2431 2894 2859 2497 
Q 3288 2100 3288 1491 
Q 3288 856 2895 371 
Q 2503 -113 1644 -113 
Q 1097 -113 676 195 
Q 256 503 206 1141 
L 791 1141 
z
" transform="scale(0.015625)"/>
       </defs>
       <use xlink:href="#Helvetica-35"/>
       <use xlink:href="#Helvetica-30" x="55.615234"/>
      </g>
     </g>
    </g>
    <g id="xtick_7">
     <g id="line2d_8">
      <g>
       <use xlink:href="#m4c99cd72f3" x="358.009654" y="211.55625" style="stroke: #000000; stroke-width: 0.8"/>
      </g>
     </g>
     <g id="text_7">
      <!-- 40 -->
      <g transform="translate(352.448716 225.729688)scale(0.1 -0.1)">
       <defs>
        <path id="Helvetica-34" d="M 2116 1584 
L 2116 3613 
L 681 1584 
L 2116 1584 
z
M 2125 0 
L 2125 1094 
L 163 1094 
L 163 1644 
L 2213 4488 
L 2688 4488 
L 2688 1584 
L 3347 1584 
L 3347 1094 
L 2688 1094 
L 2688 0 
L 2125 0 
z
" transform="scale(0.015625)"/>
       </defs>
       <use xlink:href="#Helvetica-34"/>
       <use xlink:href="#Helvetica-30" x="55.615234"/>
      </g>
     </g>
    </g>
    <g id="xtick_8">
     <g id="line2d_9">
      <g>
       <use xlink:href="#m4c99cd72f3" x="377.356006" y="211.55625" style="stroke: #000000; stroke-width: 0.8"/>
      </g>
     </g>
     <g id="text_8">
      <!-- 30 -->
      <g transform="translate(371.795069 225.729688)scale(0.1 -0.1)">
       <defs>
        <path id="Helvetica-33" d="M 1663 -122 
Q 869 -122 511 314 
Q 153 750 153 1375 
L 741 1375 
Q 778 941 903 744 
Q 1122 391 1694 391 
Q 2138 391 2406 628 
Q 2675 866 2675 1241 
Q 2675 1703 2392 1887 
Q 2109 2072 1606 2072 
Q 1550 2072 1492 2070 
Q 1434 2069 1375 2066 
L 1375 2563 
Q 1463 2553 1522 2550 
Q 1581 2547 1650 2547 
Q 1966 2547 2169 2647 
Q 2525 2822 2525 3272 
Q 2525 3606 2287 3787 
Q 2050 3969 1734 3969 
Q 1172 3969 956 3594 
Q 838 3388 822 3006 
L 266 3006 
Q 266 3506 466 3856 
Q 809 4481 1675 4481 
Q 2359 4481 2734 4176 
Q 3109 3872 3109 3294 
Q 3109 2881 2888 2625 
Q 2750 2466 2531 2375 
Q 2884 2278 3082 2001 
Q 3281 1725 3281 1325 
Q 3281 684 2859 281 
Q 2438 -122 1663 -122 
z
" transform="scale(0.015625)"/>
       </defs>
       <use xlink:href="#Helvetica-33"/>
       <use xlink:href="#Helvetica-30" x="55.615234"/>
      </g>
     </g>
    </g>
    <g id="xtick_9">
     <g id="line2d_10">
      <g>
       <use xlink:href="#m4c99cd72f3" x="396.702359" y="211.55625" style="stroke: #000000; stroke-width: 0.8"/>
      </g>
     </g>
     <g id="text_9">
      <!-- 20 -->
      <g transform="translate(391.141422 225.729688)scale(0.1 -0.1)">
       <defs>
        <path id="Helvetica-32" d="M 200 0 
Q 231 578 439 1006 
Q 647 1434 1250 1784 
L 1850 2131 
Q 2253 2366 2416 2531 
Q 2672 2791 2672 3125 
Q 2672 3516 2437 3745 
Q 2203 3975 1813 3975 
Q 1234 3975 1013 3538 
Q 894 3303 881 2888 
L 309 2888 
Q 319 3472 525 3841 
Q 891 4491 1816 4491 
Q 2584 4491 2939 4075 
Q 3294 3659 3294 3150 
Q 3294 2613 2916 2231 
Q 2697 2009 2131 1694 
L 1703 1456 
Q 1397 1288 1222 1134 
Q 909 863 828 531 
L 3272 531 
L 3272 0 
L 200 0 
z
" transform="scale(0.015625)"/>
       </defs>
       <use xlink:href="#Helvetica-32"/>
       <use xlink:href="#Helvetica-30" x="55.615234"/>
      </g>
     </g>
    </g>
    <g id="xtick_10">
     <g id="line2d_11">
      <g>
       <use xlink:href="#m4c99cd72f3" x="416.048712" y="211.55625" style="stroke: #000000; stroke-width: 0.8"/>
      </g>
     </g>
     <g id="text_10">
      <!-- 10 -->
      <g transform="translate(410.487775 225.729688)scale(0.1 -0.1)">
       <use xlink:href="#Helvetica-31"/>
       <use xlink:href="#Helvetica-30" x="55.615234"/>
      </g>
     </g>
    </g>
    <g id="xtick_11">
     <g id="line2d_12">
      <g>
       <use xlink:href="#m4c99cd72f3" x="435.395065" y="211.55625" style="stroke: #000000; stroke-width: 0.8"/>
      </g>
     </g>
     <g id="text_11">
      <!-- 0 -->
      <g transform="translate(432.614596 225.729688)scale(0.1 -0.1)">
       <use xlink:href="#Helvetica-30"/>
      </g>
     </g>
    </g>
    <g id="xtick_12">
     <g id="line2d_13">
      <g>
       <use xlink:href="#m4c99cd72f3" x="454.741418" y="211.55625" style="stroke: #000000; stroke-width: 0.8"/>
      </g>
     </g>
     <g id="text_12">
      <!-- 10 -->
      <g transform="translate(449.18048 225.729688)scale(0.1 -0.1)">
       <use xlink:href="#Helvetica-31"/>
       <use xlink:href="#Helvetica-30" x="55.615234"/>
      </g>
     </g>
    </g>
    <g id="xtick_13">
     <g id="line2d_14">
      <g>
       <use xlink:href="#m4c99cd72f3" x="474.087771" y="211.55625" style="stroke: #000000; stroke-width: 0.8"/>
      </g>
     </g>
     <g id="text_13">
      <!-- 20 -->
      <g transform="translate(468.526833 225.729688)scale(0.1 -0.1)">
       <use xlink:href="#Helvetica-32"/>
       <use xlink:href="#Helvetica-30" x="55.615234"/>
      </g>
     </g>
    </g>
    <g id="xtick_14">
     <g id="line2d_15">
      <g>
       <use xlink:href="#m4c99cd72f3" x="493.434124" y="211.55625" style="stroke: #000000; stroke-width: 0.8"/>
      </g>
     </g>
     <g id="text_14">
      <!-- 30 -->
      <g transform="translate(487.873186 225.729688)scale(0.1 -0.1)">
       <use xlink:href="#Helvetica-33"/>
       <use xlink:href="#Helvetica-30" x="55.615234"/>
      </g>
     </g>
    </g>
    <g id="xtick_15">
     <g id="line2d_16">
      <g>
       <use xlink:href="#m4c99cd72f3" x="512.780477" y="211.55625" style="stroke: #000000; stroke-width: 0.8"/>
      </g>
     </g>
     <g id="text_15">
      <!-- 40 -->
      <g transform="translate(507.219539 225.729688)scale(0.1 -0.1)">
       <use xlink:href="#Helvetica-34"/>
       <use xlink:href="#Helvetica-30" x="55.615234"/>
      </g>
     </g>
    </g>
    <g id="xtick_16">
     <g id="line2d_17">
      <g>
       <use xlink:href="#m4c99cd72f3" x="532.126829" y="211.55625" style="stroke: #000000; stroke-width: 0.8"/>
      </g>
     </g>
     <g id="text_16">
      <!-- 50 -->
      <g transform="translate(526.565892 225.729688)scale(0.1 -0.1)">
       <use xlink:href="#Helvetica-35"/>
       <use xlink:href="#Helvetica-30" x="55.615234"/>
      </g>
     </g>
    </g>
    <g id="xtick_17">
     <g id="line2d_18">
      <g>
       <use xlink:href="#m4c99cd72f3" x="551.473182" y="211.55625" style="stroke: #000000; stroke-width: 0.8"/>
      </g>
     </g>
     <g id="text_17">
      <!-- 60 -->
      <g transform="translate(545.912245 225.729688)scale(0.1 -0.1)">
       <use xlink:href="#Helvetica-36"/>
       <use xlink:href="#Helvetica-30" x="55.615234"/>
      </g>
     </g>
    </g>
    <g id="xtick_18">
     <g id="line2d_19">
      <g>
       <use xlink:href="#m4c99cd72f3" x="570.819535" y="211.55625" style="stroke: #000000; stroke-width: 0.8"/>
      </g>
     </g>
     <g id="text_18">
      <!-- 70 -->
      <g transform="translate(565.258598 225.729688)scale(0.1 -0.1)">
       <use xlink:href="#Helvetica-37"/>
       <use xlink:href="#Helvetica-30" x="55.615234"/>
      </g>
     </g>
    </g>
    <g id="xtick_19">
     <g id="line2d_20">
      <g>
       <use xlink:href="#m4c99cd72f3" x="590.165888" y="211.55625" style="stroke: #000000; stroke-width: 0.8"/>
      </g>
     </g>
     <g id="text_19">
      <!-- 80 -->
      <g transform="translate(584.604951 225.729688)scale(0.1 -0.1)">
       <use xlink:href="#Helvetica-38"/>
       <use xlink:href="#Helvetica-30" x="55.615234"/>
      </g>
     </g>
    </g>
    <g id="xtick_20">
     <g id="line2d_21">
      <g>
       <use xlink:href="#m4c99cd72f3" x="609.512241" y="211.55625" style="stroke: #000000; stroke-width: 0.8"/>
      </g>
     </g>
     <g id="text_20">
      <!-- 90 -->
      <g transform="translate(603.951303 225.729688)scale(0.1 -0.1)">
       <use xlink:href="#Helvetica-39"/>
       <use xlink:href="#Helvetica-30" x="55.615234"/>
      </g>
     </g>
    </g>
    <g id="xtick_21">
     <g id="line2d_22">
      <g>
       <use xlink:href="#m4c99cd72f3" x="628.858594" y="211.55625" style="stroke: #000000; stroke-width: 0.8"/>
      </g>
     </g>
     <g id="text_21">
      <!-- 100 -->
      <g transform="translate(620.517188 225.729688)scale(0.1 -0.1)">
       <use xlink:href="#Helvetica-31"/>
       <use xlink:href="#Helvetica-30" x="55.615234"/>
       <use xlink:href="#Helvetica-30" x="111.230469"/>
      </g>
     </g>
    </g>
    <g id="text_22">
     <!-- Percentage -->
     <g transform="translate(409.339531 238.9875)scale(0.1 -0.1)">
      <defs>
       <path id="Helvetica-50" d="M 547 4591 
L 2613 4591 
Q 3225 4591 3600 4245 
Q 3975 3900 3975 3275 
Q 3975 2738 3640 2339 
Q 3306 1941 2613 1941 
L 1169 1941 
L 1169 0 
L 547 0 
L 547 4591 
z
M 3347 3272 
Q 3347 3778 2972 3959 
Q 2766 4056 2406 4056 
L 1169 4056 
L 1169 2466 
L 2406 2466 
Q 2825 2466 3086 2644 
Q 3347 2822 3347 3272 
z
" transform="scale(0.015625)"/>
       <path id="Helvetica-65" d="M 1806 3422 
Q 2163 3422 2497 3255 
Q 2831 3088 3006 2822 
Q 3175 2569 3231 2231 
Q 3281 2000 3281 1494 
L 828 1494 
Q 844 984 1069 676 
Q 1294 369 1766 369 
Q 2206 369 2469 659 
Q 2619 828 2681 1050 
L 3234 1050 
Q 3213 866 3089 639 
Q 2966 413 2813 269 
Q 2556 19 2178 -69 
Q 1975 -119 1719 -119 
Q 1094 -119 659 336 
Q 225 791 225 1609 
Q 225 2416 662 2919 
Q 1100 3422 1806 3422 
z
M 2703 1941 
Q 2669 2306 2544 2525 
Q 2313 2931 1772 2931 
Q 1384 2931 1121 2651 
Q 859 2372 844 1941 
L 2703 1941 
z
M 1753 3428 
L 1753 3428 
z
" transform="scale(0.015625)"/>
       <path id="Helvetica-72" d="M 428 3347 
L 963 3347 
L 963 2769 
Q 1028 2938 1284 3180 
Q 1541 3422 1875 3422 
Q 1891 3422 1928 3419 
Q 1966 3416 2056 3406 
L 2056 2813 
Q 2006 2822 1964 2825 
Q 1922 2828 1872 2828 
Q 1447 2828 1219 2554 
Q 991 2281 991 1925 
L 991 0 
L 428 0 
L 428 3347 
z
" transform="scale(0.015625)"/>
       <path id="Helvetica-63" d="M 1703 3444 
Q 2269 3444 2623 3169 
Q 2978 2894 3050 2222 
L 2503 2222 
Q 2453 2531 2275 2736 
Q 2097 2941 1703 2941 
Q 1166 2941 934 2416 
Q 784 2075 784 1575 
Q 784 1072 996 728 
Q 1209 384 1666 384 
Q 2016 384 2220 598 
Q 2425 813 2503 1184 
L 3050 1184 
Q 2956 519 2581 211 
Q 2206 -97 1622 -97 
Q 966 -97 575 383 
Q 184 863 184 1581 
Q 184 2463 612 2953 
Q 1041 3444 1703 3444 
z
M 1616 3428 
L 1616 3428 
z
" transform="scale(0.015625)"/>
       <path id="Helvetica-6e" d="M 413 3347 
L 947 3347 
L 947 2872 
Q 1184 3166 1450 3294 
Q 1716 3422 2041 3422 
Q 2753 3422 3003 2925 
Q 3141 2653 3141 2147 
L 3141 0 
L 2569 0 
L 2569 2109 
Q 2569 2416 2478 2603 
Q 2328 2916 1934 2916 
Q 1734 2916 1606 2875 
Q 1375 2806 1200 2600 
Q 1059 2434 1017 2257 
Q 975 2081 975 1753 
L 975 0 
L 413 0 
L 413 3347 
z
M 1734 3428 
L 1734 3428 
z
" transform="scale(0.015625)"/>
       <path id="Helvetica-74" d="M 525 4281 
L 1094 4281 
L 1094 3347 
L 1628 3347 
L 1628 2888 
L 1094 2888 
L 1094 703 
Q 1094 528 1213 469 
Q 1278 434 1431 434 
Q 1472 434 1519 436 
Q 1566 438 1628 444 
L 1628 0 
Q 1531 -28 1426 -40 
Q 1322 -53 1200 -53 
Q 806 -53 665 148 
Q 525 350 525 672 
L 525 2888 
L 72 2888 
L 72 3347 
L 525 3347 
L 525 4281 
z
" transform="scale(0.015625)"/>
       <path id="Helvetica-61" d="M 844 891 
Q 844 647 1022 506 
Q 1200 366 1444 366 
Q 1741 366 2019 503 
Q 2488 731 2488 1250 
L 2488 1703 
Q 2384 1638 2221 1594 
Q 2059 1550 1903 1531 
L 1563 1488 
Q 1256 1447 1103 1359 
Q 844 1213 844 891 
z
M 2206 2028 
Q 2400 2053 2466 2191 
Q 2503 2266 2503 2406 
Q 2503 2694 2298 2823 
Q 2094 2953 1713 2953 
Q 1272 2953 1088 2716 
Q 984 2584 953 2325 
L 428 2325 
Q 444 2944 830 3186 
Q 1216 3428 1725 3428 
Q 2316 3428 2684 3203 
Q 3050 2978 3050 2503 
L 3050 575 
Q 3050 488 3086 434 
Q 3122 381 3238 381 
Q 3275 381 3322 386 
Q 3369 391 3422 400 
L 3422 -16 
Q 3291 -53 3222 -62 
Q 3153 -72 3034 -72 
Q 2744 -72 2613 134 
Q 2544 244 2516 444 
Q 2344 219 2022 53 
Q 1700 -113 1313 -113 
Q 847 -113 551 170 
Q 256 453 256 878 
Q 256 1344 547 1600 
Q 838 1856 1309 1916 
L 2206 2028 
z
M 1741 3428 
L 1741 3428 
z
" transform="scale(0.015625)"/>
       <path id="Helvetica-67" d="M 1594 3406 
Q 1988 3406 2281 3213 
Q 2441 3103 2606 2894 
L 2606 3316 
L 3125 3316 
L 3125 272 
Q 3125 -366 2938 -734 
Q 2588 -1416 1616 -1416 
Q 1075 -1416 706 -1173 
Q 338 -931 294 -416 
L 866 -416 
Q 906 -641 1028 -763 
Q 1219 -950 1628 -950 
Q 2275 -950 2475 -494 
Q 2594 -225 2584 466 
Q 2416 209 2178 84 
Q 1941 -41 1550 -41 
Q 1006 -41 598 345 
Q 191 731 191 1622 
Q 191 2463 602 2934 
Q 1013 3406 1594 3406 
z
M 2606 1688 
Q 2606 2309 2350 2609 
Q 2094 2909 1697 2909 
Q 1103 2909 884 2353 
Q 769 2056 769 1575 
Q 769 1009 998 714 
Q 1228 419 1616 419 
Q 2222 419 2469 966 
Q 2606 1275 2606 1688 
z
M 1659 3428 
L 1659 3428 
z
" transform="scale(0.015625)"/>
      </defs>
      <use xlink:href="#Helvetica-50"/>
      <use xlink:href="#Helvetica-65" x="66.699219"/>
      <use xlink:href="#Helvetica-72" x="122.314453"/>
      <use xlink:href="#Helvetica-63" x="155.615234"/>
      <use xlink:href="#Helvetica-65" x="205.615234"/>
      <use xlink:href="#Helvetica-6e" x="261.230469"/>
      <use xlink:href="#Helvetica-74" x="316.845703"/>
      <use xlink:href="#Helvetica-61" x="344.628906"/>
      <use xlink:href="#Helvetica-67" x="400.244141"/>
      <use xlink:href="#Helvetica-65" x="455.859375"/>
     </g>
    </g>
   </g>
   <g id="matplotlib.axis_2">
    <g id="ytick_1">
     <g id="line2d_23">
      <defs>
       <path id="m8e343aef83" d="M 0 0 
L -3.5 0 
" style="stroke: #000000; stroke-width: 0.8"/>
      </defs>
      <g>
       <use xlink:href="#m8e343aef83" x="240.964219" y="134.053816" style="stroke: #000000; stroke-width: 0.8"/>
      </g>
     </g>
     <g id="text_23">
      <!-- turnOver3. How often do you consider leaving -->
      <g transform="translate(10.8 132.89366)scale(0.11 -0.11)">
       <defs>
        <path id="Helvetica-75" d="M 975 3347 
L 975 1125 
Q 975 869 1056 706 
Q 1206 406 1616 406 
Q 2203 406 2416 931 
Q 2531 1213 2531 1703 
L 2531 3347 
L 3094 3347 
L 3094 0 
L 2563 0 
L 2569 494 
Q 2459 303 2297 172 
Q 1975 -91 1516 -91 
Q 800 -91 541 388 
Q 400 644 400 1072 
L 400 3347 
L 975 3347 
z
M 1747 3428 
L 1747 3428 
z
" transform="scale(0.015625)"/>
        <path id="Helvetica-4f" d="M 2469 4716 
Q 3684 4716 4269 3934 
Q 4725 3325 4725 2375 
Q 4725 1347 4203 666 
Q 3591 -134 2456 -134 
Q 1397 -134 791 566 
Q 250 1241 250 2272 
Q 250 3203 713 3866 
Q 1306 4716 2469 4716 
z
M 2531 422 
Q 3353 422 3720 1011 
Q 4088 1600 4088 2366 
Q 4088 3175 3664 3669 
Q 3241 4163 2506 4163 
Q 1794 4163 1344 3673 
Q 894 3184 894 2231 
Q 894 1469 1280 945 
Q 1666 422 2531 422 
z
M 2488 4716 
L 2488 4716 
z
" transform="scale(0.015625)"/>
        <path id="Helvetica-76" d="M 688 3347 
L 1581 622 
L 2516 3347 
L 3131 3347 
L 1869 0 
L 1269 0 
L 34 3347 
L 688 3347 
z
" transform="scale(0.015625)"/>
        <path id="Helvetica-2e" d="M 547 681 
L 1200 681 
L 1200 0 
L 547 0 
L 547 681 
z
" transform="scale(0.015625)"/>
        <path id="Helvetica-20" transform="scale(0.015625)"/>
        <path id="Helvetica-48" d="M 503 4591 
L 1131 4591 
L 1131 2694 
L 3519 2694 
L 3519 4591 
L 4147 4591 
L 4147 0 
L 3519 0 
L 3519 2147 
L 1131 2147 
L 1131 0 
L 503 0 
L 503 4591 
z
" transform="scale(0.015625)"/>
        <path id="Helvetica-6f" d="M 1741 363 
Q 2300 363 2508 786 
Q 2716 1209 2716 1728 
Q 2716 2197 2566 2491 
Q 2328 2953 1747 2953 
Q 1231 2953 997 2559 
Q 763 2166 763 1609 
Q 763 1075 997 719 
Q 1231 363 1741 363 
z
M 1763 3444 
Q 2409 3444 2856 3012 
Q 3303 2581 3303 1744 
Q 3303 934 2909 406 
Q 2516 -122 1688 -122 
Q 997 -122 590 345 
Q 184 813 184 1600 
Q 184 2444 612 2944 
Q 1041 3444 1763 3444 
z
M 1744 3428 
L 1744 3428 
z
" transform="scale(0.015625)"/>
        <path id="Helvetica-77" d="M 672 3347 
L 1316 709 
L 1969 3347 
L 2600 3347 
L 3256 725 
L 3941 3347 
L 4503 3347 
L 3531 0 
L 2947 0 
L 2266 2591 
L 1606 0 
L 1022 0 
L 56 3347 
L 672 3347 
z
" transform="scale(0.015625)"/>
        <path id="Helvetica-66" d="M 553 3856 
Q 566 4206 675 4369 
Q 872 4656 1434 4656 
Q 1488 4656 1544 4653 
Q 1600 4650 1672 4644 
L 1672 4131 
Q 1584 4138 1545 4139 
Q 1506 4141 1472 4141 
Q 1216 4141 1166 4008 
Q 1116 3875 1116 3331 
L 1672 3331 
L 1672 2888 
L 1109 2888 
L 1109 0 
L 553 0 
L 553 2888 
L 88 2888 
L 88 3331 
L 553 3331 
L 553 3856 
z
" transform="scale(0.015625)"/>
        <path id="Helvetica-64" d="M 769 1634 
Q 769 1097 997 734 
Q 1225 372 1728 372 
Q 2119 372 2370 708 
Q 2622 1044 2622 1672 
Q 2622 2306 2362 2611 
Q 2103 2916 1722 2916 
Q 1297 2916 1033 2591 
Q 769 2266 769 1634 
z
M 1616 3406 
Q 2000 3406 2259 3244 
Q 2409 3150 2600 2916 
L 2600 4606 
L 3141 4606 
L 3141 0 
L 2634 0 
L 2634 466 
Q 2438 156 2169 18 
Q 1900 -119 1553 -119 
Q 994 -119 584 351 
Q 175 822 175 1603 
Q 175 2334 548 2870 
Q 922 3406 1616 3406 
z
" transform="scale(0.015625)"/>
        <path id="Helvetica-79" d="M 2503 3347 
L 3125 3347 
Q 3006 3025 2597 1878 
Q 2291 1016 2084 472 
Q 1597 -809 1397 -1090 
Q 1197 -1372 709 -1372 
Q 591 -1372 527 -1362 
Q 463 -1353 369 -1328 
L 369 -816 
Q 516 -856 581 -865 
Q 647 -875 697 -875 
Q 853 -875 926 -823 
Q 1000 -772 1050 -697 
Q 1066 -672 1162 -440 
Q 1259 -209 1303 -97 
L 66 3347 
L 703 3347 
L 1600 622 
L 2503 3347 
z
M 1597 3428 
L 1597 3428 
z
" transform="scale(0.015625)"/>
        <path id="Helvetica-73" d="M 747 1050 
Q 772 769 888 619 
Q 1100 347 1625 347 
Q 1938 347 2175 483 
Q 2413 619 2413 903 
Q 2413 1119 2222 1231 
Q 2100 1300 1741 1391 
L 1294 1503 
Q 866 1609 663 1741 
Q 300 1969 300 2372 
Q 300 2847 642 3140 
Q 984 3434 1563 3434 
Q 2319 3434 2653 2991 
Q 2863 2709 2856 2384 
L 2325 2384 
Q 2309 2575 2191 2731 
Q 1997 2953 1519 2953 
Q 1200 2953 1036 2831 
Q 872 2709 872 2509 
Q 872 2291 1088 2159 
Q 1213 2081 1456 2022 
L 1828 1931 
Q 2434 1784 2641 1647 
Q 2969 1431 2969 969 
Q 2969 522 2630 197 
Q 2291 -128 1597 -128 
Q 850 -128 539 211 
Q 228 550 206 1050 
L 747 1050 
z
M 1578 3428 
L 1578 3428 
z
" transform="scale(0.015625)"/>
        <path id="Helvetica-69" d="M 413 3331 
L 984 3331 
L 984 0 
L 413 0 
L 413 3331 
z
M 413 4591 
L 984 4591 
L 984 3953 
L 413 3953 
L 413 4591 
z
" transform="scale(0.015625)"/>
        <path id="Helvetica-6c" d="M 428 4591 
L 991 4591 
L 991 0 
L 428 0 
L 428 4591 
z
" transform="scale(0.015625)"/>
       </defs>
       <use xlink:href="#Helvetica-74"/>
       <use xlink:href="#Helvetica-75" x="27.783203"/>
       <use xlink:href="#Helvetica-72" x="83.398438"/>
       <use xlink:href="#Helvetica-6e" x="116.699219"/>
       <use xlink:href="#Helvetica-4f" x="172.314453"/>
       <use xlink:href="#Helvetica-76" x="250.097656"/>
       <use xlink:href="#Helvetica-65" x="300.097656"/>
       <use xlink:href="#Helvetica-72" x="355.712891"/>
       <use xlink:href="#Helvetica-33" x="389.013672"/>
       <use xlink:href="#Helvetica-2e" x="444.628906"/>
       <use xlink:href="#Helvetica-20" x="472.412109"/>
       <use xlink:href="#Helvetica-48" x="500.195312"/>
       <use xlink:href="#Helvetica-6f" x="572.412109"/>
       <use xlink:href="#Helvetica-77" x="628.027344"/>
       <use xlink:href="#Helvetica-20" x="700.244141"/>
       <use xlink:href="#Helvetica-6f" x="728.027344"/>
       <use xlink:href="#Helvetica-66" x="783.642578"/>
       <use xlink:href="#Helvetica-74" x="811.425781"/>
       <use xlink:href="#Helvetica-65" x="839.208984"/>
       <use xlink:href="#Helvetica-6e" x="894.824219"/>
       <use xlink:href="#Helvetica-20" x="950.439453"/>
       <use xlink:href="#Helvetica-64" x="978.222656"/>
       <use xlink:href="#Helvetica-6f" x="1033.837891"/>
       <use xlink:href="#Helvetica-20" x="1089.453125"/>
       <use xlink:href="#Helvetica-79" x="1117.236328"/>
       <use xlink:href="#Helvetica-6f" x="1167.236328"/>
       <use xlink:href="#Helvetica-75" x="1222.851562"/>
       <use xlink:href="#Helvetica-20" x="1278.466797"/>
       <use xlink:href="#Helvetica-63" x="1306.25"/>
       <use xlink:href="#Helvetica-6f" x="1356.25"/>
       <use xlink:href="#Helvetica-6e" x="1411.865234"/>
       <use xlink:href="#Helvetica-73" x="1467.480469"/>
       <use xlink:href="#Helvetica-69" x="1517.480469"/>
       <use xlink:href="#Helvetica-64" x="1539.697266"/>
       <use xlink:href="#Helvetica-65" x="1595.3125"/>
       <use xlink:href="#Helvetica-72" x="1650.927734"/>
       <use xlink:href="#Helvetica-20" x="1684.228516"/>
       <use xlink:href="#Helvetica-6c" x="1712.011719"/>
       <use xlink:href="#Helvetica-65" x="1734.228516"/>
       <use xlink:href="#Helvetica-61" x="1789.84375"/>
       <use xlink:href="#Helvetica-76" x="1845.458984"/>
       <use xlink:href="#Helvetica-69" x="1895.458984"/>
       <use xlink:href="#Helvetica-6e" x="1917.675781"/>
       <use xlink:href="#Helvetica-67" x="1973.291016"/>
      </g>
      <!-- your job? -->
      <g transform="translate(188.716406 144.918035)scale(0.11 -0.11)">
       <defs>
        <path id="Helvetica-6a" d="M 975 3941 
L 413 3941 
L 413 4591 
L 975 4591 
L 975 3941 
z
M -119 -847 
Q 259 -834 336 -779 
Q 413 -725 413 -438 
L 413 3331 
L 975 3331 
L 975 -497 
Q 975 -863 856 -1044 
Q 659 -1350 109 -1350 
Q 69 -1350 23 -1347 
Q -22 -1344 -119 -1334 
L -119 -847 
z
" transform="scale(0.015625)"/>
        <path id="Helvetica-62" d="M 369 4606 
L 916 4606 
L 916 2941 
Q 1100 3181 1356 3307 
Q 1613 3434 1913 3434 
Q 2538 3434 2927 3004 
Q 3316 2575 3316 1738 
Q 3316 944 2931 419 
Q 2547 -106 1866 -106 
Q 1484 -106 1222 78 
Q 1066 188 888 428 
L 888 0 
L 369 0 
L 369 4606 
z
M 1831 391 
Q 2288 391 2514 753 
Q 2741 1116 2741 1709 
Q 2741 2238 2514 2584 
Q 2288 2931 1847 2931 
Q 1463 2931 1173 2647 
Q 884 2363 884 1709 
Q 884 1238 1003 944 
Q 1225 391 1831 391 
z
" transform="scale(0.015625)"/>
        <path id="Helvetica-3f" d="M 1541 650 
L 2163 650 
L 2163 0 
L 1541 0 
L 1541 650 
z
M 488 3153 
Q 488 3828 869 4239 
Q 1250 4650 1916 4650 
Q 2531 4650 2901 4298 
Q 3272 3947 3272 3400 
Q 3272 3069 3136 2862 
Q 3000 2656 2588 2256 
Q 2288 1966 2198 1764 
Q 2109 1563 2109 1169 
L 1553 1169 
Q 1553 1616 1659 1889 
Q 1766 2163 2125 2516 
L 2375 2763 
Q 2488 2869 2556 2984 
Q 2681 3188 2681 3406 
Q 2681 3713 2498 3938 
Q 2316 4163 1894 4163 
Q 1372 4163 1172 3775 
Q 1059 3559 1044 3153 
L 488 3153 
z
" transform="scale(0.015625)"/>
       </defs>
       <use xlink:href="#Helvetica-79"/>
       <use xlink:href="#Helvetica-6f" x="50"/>
       <use xlink:href="#Helvetica-75" x="105.615234"/>
       <use xlink:href="#Helvetica-72" x="161.230469"/>
       <use xlink:href="#Helvetica-20" x="194.53125"/>
       <use xlink:href="#Helvetica-6a" x="222.314453"/>
       <use xlink:href="#Helvetica-6f" x="244.53125"/>
       <use xlink:href="#Helvetica-62" x="300.146484"/>
       <use xlink:href="#Helvetica-3f" x="355.761719"/>
      </g>
     </g>
    </g>
   </g>
   <g id="patch_13">
    <path d="M 240.964219 211.55625 
L 628.858594 211.55625 
" style="fill: none; stroke: #000000; stroke-width: 0.8; stroke-linejoin: miter; stroke-linecap: square"/>
   </g>
   <g id="text_24">
    <!-- 18 -->
    <g transform="translate(328.265775 134.053816)scale(0.1 -0.1)">
     <use xlink:href="#Helvetica-31"/>
     <use xlink:href="#Helvetica-38" x="55.615234"/>
    </g>
   </g>
   <g id="text_25">
    <!-- 20 -->
    <g transform="translate(365.346285 134.053816)scale(0.1 -0.1)">
     <use xlink:href="#Helvetica-32"/>
     <use xlink:href="#Helvetica-30" x="55.615234"/>
    </g>
   </g>
   <g id="text_26">
    <!-- 10 -->
    <g transform="translate(394.365814 134.053816)scale(0.1 -0.1)">
     <use xlink:href="#Helvetica-31"/>
     <use xlink:href="#Helvetica-30" x="55.615234"/>
    </g>
   </g>
   <g id="text_27">
    <!-- 13 -->
    <g transform="translate(416.936559 134.053816)scale(0.1 -0.1)">
     <use xlink:href="#Helvetica-31"/>
     <use xlink:href="#Helvetica-33" x="55.615234"/>
    </g>
   </g>
   <g id="text_28">
    <!-- 10 -->
    <g transform="translate(439.507304 134.053816)scale(0.1 -0.1)">
     <use xlink:href="#Helvetica-31"/>
     <use xlink:href="#Helvetica-30" x="55.615234"/>
    </g>
   </g>
   <g id="text_29">
    <!-- 13 -->
    <g transform="translate(462.078049 134.053816)scale(0.1 -0.1)">
     <use xlink:href="#Helvetica-31"/>
     <use xlink:href="#Helvetica-33" x="55.615234"/>
    </g>
   </g>
   <g id="text_30">
    <!-- 11 -->
    <g transform="translate(485.454892 134.053816)scale(0.1 -0.1)">
     <use xlink:href="#Helvetica-31"/>
     <use xlink:href="#Helvetica-31" x="55.615234"/>
    </g>
   </g>
   <g id="text_31">
    <!-- Consider leaving job -->
    <g transform="translate(380.548594 41.94)scale(0.12 -0.12)">
     <defs>
      <path id="Helvetica-43" d="M 2422 4716 
Q 3294 4716 3775 4256 
Q 4256 3797 4309 3213 
L 3703 3213 
Q 3600 3656 3292 3915 
Q 2984 4175 2428 4175 
Q 1750 4175 1333 3698 
Q 916 3222 916 2238 
Q 916 1431 1292 929 
Q 1669 428 2416 428 
Q 3103 428 3463 956 
Q 3653 1234 3747 1688 
L 4353 1688 
Q 4272 963 3816 472 
Q 3269 -119 2341 -119 
Q 1541 -119 997 366 
Q 281 1006 281 2344 
Q 281 3359 819 4009 
Q 1400 4716 2422 4716 
z
M 2297 4716 
L 2297 4716 
z
" transform="scale(0.015625)"/>
     </defs>
     <use xlink:href="#Helvetica-43"/>
     <use xlink:href="#Helvetica-6f" x="72.216797"/>
     <use xlink:href="#Helvetica-6e" x="127.832031"/>
     <use xlink:href="#Helvetica-73" x="183.447266"/>
     <use xlink:href="#Helvetica-69" x="233.447266"/>
     <use xlink:href="#Helvetica-64" x="255.664062"/>
     <use xlink:href="#Helvetica-65" x="311.279297"/>
     <use xlink:href="#Helvetica-72" x="366.894531"/>
     <use xlink:href="#Helvetica-20" x="400.195312"/>
     <use xlink:href="#Helvetica-6c" x="427.978516"/>
     <use xlink:href="#Helvetica-65" x="450.195312"/>
     <use xlink:href="#Helvetica-61" x="505.810547"/>
     <use xlink:href="#Helvetica-76" x="561.425781"/>
     <use xlink:href="#Helvetica-69" x="611.425781"/>
     <use xlink:href="#Helvetica-6e" x="633.642578"/>
     <use xlink:href="#Helvetica-67" x="689.257812"/>
     <use xlink:href="#Helvetica-20" x="744.873047"/>
     <use xlink:href="#Helvetica-6a" x="772.65625"/>
     <use xlink:href="#Helvetica-6f" x="794.873047"/>
     <use xlink:href="#Helvetica-62" x="850.488281"/>
    </g>
   </g>
   <g id="legend_1">
    <g id="patch_14">
     <path d="M 247.964219 206.55625 
L 621.858594 206.55625 
Q 623.858594 206.55625 623.858594 204.55625 
L 623.858594 191.298438 
Q 623.858594 189.298438 621.858594 189.298438 
L 247.964219 189.298438 
Q 245.964219 189.298438 245.964219 191.298438 
L 245.964219 204.55625 
Q 245.964219 206.55625 247.964219 206.55625 
z
" style="fill: #ffffff; opacity: 0.8; stroke: #cccccc; stroke-linejoin: miter"/>
    </g>
    <g id="patch_15">
     <path d="M 249.964219 200.471875 
L 269.964219 200.471875 
L 269.964219 193.471875 
L 249.964219 193.471875 
z
" style="fill: #67001f"/>
    </g>
    <g id="text_32">
     <!-- 1 -->
     <g transform="translate(277.964219 200.471875)scale(0.1 -0.1)">
      <use xlink:href="#Helvetica-31"/>
     </g>
    </g>
    <g id="patch_16">
     <path d="M 286.716719 200.471875 
L 306.716719 200.471875 
L 306.716719 193.471875 
L 286.716719 193.471875 
z
" style="fill: #b61f2e"/>
    </g>
    <g id="text_33">
     <!-- 2 -->
     <g transform="translate(314.716719 200.471875)scale(0.1 -0.1)">
      <use xlink:href="#Helvetica-32"/>
     </g>
    </g>
    <g id="patch_17">
     <path d="M 323.469219 200.471875 
L 343.469219 200.471875 
L 343.469219 193.471875 
L 323.469219 193.471875 
z
" style="fill: #dc6e57"/>
    </g>
    <g id="text_34">
     <!-- 3 -->
     <g transform="translate(351.469219 200.471875)scale(0.1 -0.1)">
      <use xlink:href="#Helvetica-33"/>
     </g>
    </g>
    <g id="patch_18">
     <path d="M 360.221719 200.471875 
L 380.221719 200.471875 
L 380.221719 193.471875 
L 360.221719 193.471875 
z
" style="fill: #f7b799"/>
    </g>
    <g id="text_35">
     <!-- 4 -->
     <g transform="translate(388.221719 200.471875)scale(0.1 -0.1)">
      <use xlink:href="#Helvetica-34"/>
     </g>
    </g>
    <g id="patch_19">
     <path d="M 396.974219 200.471875 
L 416.974219 200.471875 
L 416.974219 193.471875 
L 396.974219 193.471875 
z
" style="fill: #fae7dc"/>
    </g>
    <g id="text_36">
     <!-- 5 -->
     <g transform="translate(424.974219 200.471875)scale(0.1 -0.1)">
      <use xlink:href="#Helvetica-35"/>
     </g>
    </g>
    <g id="patch_20">
     <path d="M 433.726719 200.471875 
L 453.726719 200.471875 
L 453.726719 193.471875 
L 433.726719 193.471875 
z
" style="fill: #e1edf3"/>
    </g>
    <g id="text_37">
     <!-- 6 -->
     <g transform="translate(461.726719 200.471875)scale(0.1 -0.1)">
      <use xlink:href="#Helvetica-36"/>
     </g>
    </g>
    <g id="patch_21">
     <path d="M 470.479219 200.471875 
L 490.479219 200.471875 
L 490.479219 193.471875 
L 470.479219 193.471875 
z
" style="fill: #a7d0e4"/>
    </g>
    <g id="text_38">
     <!-- 7 -->
     <g transform="translate(498.479219 200.471875)scale(0.1 -0.1)">
      <use xlink:href="#Helvetica-37"/>
     </g>
    </g>
    <g id="patch_22">
     <path d="M 507.231719 200.471875 
L 527.231719 200.471875 
L 527.231719 193.471875 
L 507.231719 193.471875 
z
" style="fill: #529dc8"/>
    </g>
    <g id="text_39">
     <!-- 8 -->
     <g transform="translate(535.231719 200.471875)scale(0.1 -0.1)">
      <use xlink:href="#Helvetica-38"/>
     </g>
    </g>
    <g id="patch_23">
     <path d="M 543.984219 200.471875 
L 563.984219 200.471875 
L 563.984219 193.471875 
L 543.984219 193.471875 
z
" style="fill: #246aae"/>
    </g>
    <g id="text_40">
     <!-- 9 -->
     <g transform="translate(571.984219 200.471875)scale(0.1 -0.1)">
      <use xlink:href="#Helvetica-39"/>
     </g>
    </g>
    <g id="patch_24">
     <path d="M 580.736719 200.471875 
L 600.736719 200.471875 
L 600.736719 193.471875 
L 580.736719 193.471875 
z
" style="fill: #053061"/>
    </g>
    <g id="text_41">
     <!-- 10 -->
     <g transform="translate(608.736719 200.471875)scale(0.1 -0.1)">
      <use xlink:href="#Helvetica-31"/>
      <use xlink:href="#Helvetica-30" x="55.615234"/>
     </g>
    </g>
   </g>
  </g>
  <g id="text_42">
   <!-- Consider leaving job: United Kingdom -->
   <g transform="translate(223.614375 13.8825)scale(0.12 -0.12)">
    <defs>
     <path id="Helvetica-3a" d="M 709 3303 
L 1363 3303 
L 1363 2622 
L 709 2622 
L 709 3303 
z
M 709 681 
L 1363 681 
L 1363 0 
L 709 0 
L 709 681 
z
" transform="scale(0.015625)"/>
     <path id="Helvetica-55" d="M 1163 4591 
L 1163 1753 
Q 1163 1253 1350 922 
Q 1628 422 2288 422 
Q 3078 422 3363 963 
Q 3516 1256 3516 1753 
L 3516 4591 
L 4147 4591 
L 4147 2013 
Q 4147 1166 3919 709 
Q 3500 -122 2338 -122 
Q 1175 -122 759 709 
Q 531 1166 531 2013 
L 531 4591 
L 1163 4591 
z
M 2341 4591 
L 2341 4591 
z
" transform="scale(0.015625)"/>
     <path id="Helvetica-4b" d="M 488 4591 
L 1094 4591 
L 1094 2353 
L 3331 4591 
L 4191 4591 
L 2281 2741 
L 4244 0 
L 3434 0 
L 1828 2303 
L 1094 1600 
L 1094 0 
L 488 0 
L 488 4591 
z
" transform="scale(0.015625)"/>
     <path id="Helvetica-6d" d="M 413 3347 
L 969 3347 
L 969 2872 
Q 1169 3119 1331 3231 
Q 1609 3422 1963 3422 
Q 2363 3422 2606 3225 
Q 2744 3113 2856 2894 
Q 3044 3163 3297 3292 
Q 3550 3422 3866 3422 
Q 4541 3422 4784 2934 
Q 4916 2672 4916 2228 
L 4916 0 
L 4331 0 
L 4331 2325 
Q 4331 2659 4164 2784 
Q 3997 2909 3756 2909 
Q 3425 2909 3186 2687 
Q 2947 2466 2947 1947 
L 2947 0 
L 2375 0 
L 2375 2184 
Q 2375 2525 2294 2681 
Q 2166 2916 1816 2916 
Q 1497 2916 1236 2669 
Q 975 2422 975 1775 
L 975 0 
L 413 0 
L 413 3347 
z
" transform="scale(0.015625)"/>
    </defs>
    <use xlink:href="#Helvetica-43"/>
    <use xlink:href="#Helvetica-6f" x="72.216797"/>
    <use xlink:href="#Helvetica-6e" x="127.832031"/>
    <use xlink:href="#Helvetica-73" x="183.447266"/>
    <use xlink:href="#Helvetica-69" x="233.447266"/>
    <use xlink:href="#Helvetica-64" x="255.664062"/>
    <use xlink:href="#Helvetica-65" x="311.279297"/>
    <use xlink:href="#Helvetica-72" x="366.894531"/>
    <use xlink:href="#Helvetica-20" x="400.195312"/>
    <use xlink:href="#Helvetica-6c" x="427.978516"/>
    <use xlink:href="#Helvetica-65" x="450.195312"/>
    <use xlink:href="#Helvetica-61" x="505.810547"/>
    <use xlink:href="#Helvetica-76" x="561.425781"/>
    <use xlink:href="#Helvetica-69" x="611.425781"/>
    <use xlink:href="#Helvetica-6e" x="633.642578"/>
    <use xlink:href="#Helvetica-67" x="689.257812"/>
    <use xlink:href="#Helvetica-20" x="744.873047"/>
    <use xlink:href="#Helvetica-6a" x="772.65625"/>
    <use xlink:href="#Helvetica-6f" x="794.873047"/>
    <use xlink:href="#Helvetica-62" x="850.488281"/>
    <use xlink:href="#Helvetica-3a" x="906.103516"/>
    <use xlink:href="#Helvetica-20" x="933.886719"/>
    <use xlink:href="#Helvetica-55" x="961.669922"/>
    <use xlink:href="#Helvetica-6e" x="1033.886719"/>
    <use xlink:href="#Helvetica-69" x="1089.501953"/>
    <use xlink:href="#Helvetica-74" x="1111.71875"/>
    <use xlink:href="#Helvetica-65" x="1139.501953"/>
    <use xlink:href="#Helvetica-64" x="1195.117188"/>
    <use xlink:href="#Helvetica-20" x="1250.732422"/>
    <use xlink:href="#Helvetica-4b" x="1278.515625"/>
    <use xlink:href="#Helvetica-69" x="1345.214844"/>
    <use xlink:href="#Helvetica-6e" x="1367.431641"/>
    <use xlink:href="#Helvetica-67" x="1423.046875"/>
    <use xlink:href="#Helvetica-64" x="1478.662109"/>
    <use xlink:href="#Helvetica-6f" x="1534.277344"/>
    <use xlink:href="#Helvetica-6d" x="1589.892578"/>
   </g>
  </g>
 </g>
 <defs>
  <clipPath id="pb2f03cf4cd">
   <rect x="240.964219" y="47.94" width="387.894375" height="163.61625"/>
  </clipPath>
 </defs>
</svg>
