<?xml version="1.0" encoding="utf-8" standalone="no"?>
<!DOCTYPE svg PUBLIC "-//W3C//DTD SVG 1.1//EN"
  "http://www.w3.org/Graphics/SVG/1.1/DTD/svg11.dtd">
<svg xmlns:xlink="http://www.w3.org/1999/xlink" width="576pt" height="432pt" viewBox="0 0 576 432" xmlns="http://www.w3.org/2000/svg" version="1.1">
 <metadata>
  <rdf:RDF xmlns:dc="http://purl.org/dc/elements/1.1/" xmlns:cc="http://creativecommons.org/ns#" xmlns:rdf="http://www.w3.org/1999/02/22-rdf-syntax-ns#">
   <cc:Work>
    <dc:type rdf:resource="http://purl.org/dc/dcmitype/StillImage"/>
    <dc:date>2022-08-22T11:30:04.366604</dc:date>
    <dc:format>image/svg+xml</dc:format>
    <dc:creator>
     <cc:Agent>
      <dc:title>Matplotlib v3.5.2, https://matplotlib.org/</dc:title>
     </cc:Agent>
    </dc:creator>
   </cc:Work>
  </rdf:RDF>
 </metadata>
 <defs>
  <style type="text/css">*{stroke-linejoin: round; stroke-linecap: butt}</style>
 </defs>
 <g id="figure_1">
  <g id="patch_1">
   <path d="M 0 432 
L 576 432 
L 576 0 
L 0 0 
z
" style="fill: #ffffff"/>
  </g>
  <g id="axes_1">
   <g id="patch_2">
    <path d="M 52.28125 381.582812 
L 285.43125 381.582812 
L 285.43125 33.015 
L 52.28125 33.015 
z
" style="fill: #ffffff"/>
   </g>
   <g id="patch_3">
    <path d="M 63.93875 286.518864 
L 157.19875 286.518864 
L 157.19875 139.396086 
L 63.93875 139.396086 
L 63.93875 286.518864 
z
" clip-path="url(#p52da6227e1)" style="fill: #3274a1; stroke: #3f3f3f; stroke-width: 1.5; stroke-linejoin: miter"/>
   </g>
   <g id="patch_4">
    <path d="M 180.51375 343.104547 
L 273.77375 343.104547 
L 273.77375 323.299558 
L 180.51375 323.299558 
L 180.51375 343.104547 
z
" clip-path="url(#p52da6227e1)" style="fill: #e1812c; stroke: #3f3f3f; stroke-width: 1.5; stroke-linejoin: miter"/>
   </g>
   <g id="matplotlib.axis_1">
    <g id="xtick_1">
     <g id="line2d_1">
      <defs>
       <path id="m4c99cd72f3" d="M 0 0 
L 0 3.5 
" style="stroke: #000000; stroke-width: 0.8"/>
      </defs>
      <g>
       <use xlink:href="#m4c99cd72f3" x="110.56875" y="391.582812" style="stroke: #000000; stroke-width: 0.8"/>
      </g>
     </g>
     <g id="text_1">
      <!-- 2018 -->
      <g transform="translate(99.446875 405.75625)scale(0.1 -0.1)">
       <defs>
        <path id="Helvetica-32" d="M 200 0 
Q 231 578 439 1006 
Q 647 1434 1250 1784 
L 1850 2131 
Q 2253 2366 2416 2531 
Q 2672 2791 2672 3125 
Q 2672 3516 2437 3745 
Q 2203 3975 1813 3975 
Q 1234 3975 1013 3538 
Q 894 3303 881 2888 
L 309 2888 
Q 319 3472 525 3841 
Q 891 4491 1816 4491 
Q 2584 4491 2939 4075 
Q 3294 3659 3294 3150 
Q 3294 2613 2916 2231 
Q 2697 2009 2131 1694 
L 1703 1456 
Q 1397 1288 1222 1134 
Q 909 863 828 531 
L 3272 531 
L 3272 0 
L 200 0 
z
" transform="scale(0.015625)"/>
        <path id="Helvetica-30" d="M 1731 4475 
Q 2600 4475 2988 3759 
Q 3288 3206 3288 2244 
Q 3288 1331 3016 734 
Q 2622 -122 1728 -122 
Q 922 -122 528 578 
Q 200 1163 200 2147 
Q 200 2909 397 3456 
Q 766 4475 1731 4475 
z
M 1725 391 
Q 2163 391 2422 778 
Q 2681 1166 2681 2222 
Q 2681 2984 2493 3476 
Q 2306 3969 1766 3969 
Q 1269 3969 1039 3501 
Q 809 3034 809 2125 
Q 809 1441 956 1025 
Q 1181 391 1725 391 
z
" transform="scale(0.015625)"/>
        <path id="Helvetica-31" d="M 613 3169 
L 613 3600 
Q 1222 3659 1462 3798 
Q 1703 3938 1822 4456 
L 2266 4456 
L 2266 0 
L 1666 0 
L 1666 3169 
L 613 3169 
z
" transform="scale(0.015625)"/>
        <path id="Helvetica-38" d="M 1741 2600 
Q 2113 2600 2322 2808 
Q 2531 3016 2531 3303 
Q 2531 3553 2331 3762 
Q 2131 3972 1722 3972 
Q 1316 3972 1134 3762 
Q 953 3553 953 3272 
Q 953 2956 1187 2778 
Q 1422 2600 1741 2600 
z
M 1775 384 
Q 2166 384 2423 595 
Q 2681 806 2681 1225 
Q 2681 1659 2415 1884 
Q 2150 2109 1734 2109 
Q 1331 2109 1076 1879 
Q 822 1650 822 1244 
Q 822 894 1055 639 
Q 1288 384 1775 384 
z
M 975 2384 
Q 741 2484 609 2619 
Q 363 2869 363 3269 
Q 363 3769 725 4128 
Q 1088 4488 1753 4488 
Q 2397 4488 2762 4148 
Q 3128 3809 3128 3356 
Q 3128 2938 2916 2678 
Q 2797 2531 2547 2391 
Q 2825 2263 2984 2097 
Q 3281 1784 3281 1284 
Q 3281 694 2884 283 
Q 2488 -128 1763 -128 
Q 1109 -128 657 226 
Q 206 581 206 1256 
Q 206 1653 400 1942 
Q 594 2231 975 2384 
z
" transform="scale(0.015625)"/>
       </defs>
       <use xlink:href="#Helvetica-32"/>
       <use xlink:href="#Helvetica-30" x="55.615234"/>
       <use xlink:href="#Helvetica-31" x="111.230469"/>
       <use xlink:href="#Helvetica-38" x="166.845703"/>
      </g>
     </g>
    </g>
    <g id="xtick_2">
     <g id="line2d_2">
      <g>
       <use xlink:href="#m4c99cd72f3" x="227.14375" y="391.582812" style="stroke: #000000; stroke-width: 0.8"/>
      </g>
     </g>
     <g id="text_2">
      <!-- 2022 -->
      <g transform="translate(216.021875 405.75625)scale(0.1 -0.1)">
       <use xlink:href="#Helvetica-32"/>
       <use xlink:href="#Helvetica-30" x="55.615234"/>
       <use xlink:href="#Helvetica-32" x="111.230469"/>
       <use xlink:href="#Helvetica-32" x="166.845703"/>
      </g>
     </g>
    </g>
    <g id="text_3">
     <!-- Year -->
     <g transform="translate(158.295312 419.014063)scale(0.1 -0.1)">
      <defs>
       <path id="Helvetica-59" d="M 131 4591 
L 856 4591 
L 2175 2384 
L 3494 4591 
L 4222 4591 
L 2488 1850 
L 2488 0 
L 1866 0 
L 1866 1850 
L 131 4591 
z
M 2184 4591 
L 2184 4591 
z
" transform="scale(0.015625)"/>
       <path id="Helvetica-65" d="M 1806 3422 
Q 2163 3422 2497 3255 
Q 2831 3088 3006 2822 
Q 3175 2569 3231 2231 
Q 3281 2000 3281 1494 
L 828 1494 
Q 844 984 1069 676 
Q 1294 369 1766 369 
Q 2206 369 2469 659 
Q 2619 828 2681 1050 
L 3234 1050 
Q 3213 866 3089 639 
Q 2966 413 2813 269 
Q 2556 19 2178 -69 
Q 1975 -119 1719 -119 
Q 1094 -119 659 336 
Q 225 791 225 1609 
Q 225 2416 662 2919 
Q 1100 3422 1806 3422 
z
M 2703 1941 
Q 2669 2306 2544 2525 
Q 2313 2931 1772 2931 
Q 1384 2931 1121 2651 
Q 859 2372 844 1941 
L 2703 1941 
z
M 1753 3428 
L 1753 3428 
z
" transform="scale(0.015625)"/>
       <path id="Helvetica-61" d="M 844 891 
Q 844 647 1022 506 
Q 1200 366 1444 366 
Q 1741 366 2019 503 
Q 2488 731 2488 1250 
L 2488 1703 
Q 2384 1638 2221 1594 
Q 2059 1550 1903 1531 
L 1563 1488 
Q 1256 1447 1103 1359 
Q 844 1213 844 891 
z
M 2206 2028 
Q 2400 2053 2466 2191 
Q 2503 2266 2503 2406 
Q 2503 2694 2298 2823 
Q 2094 2953 1713 2953 
Q 1272 2953 1088 2716 
Q 984 2584 953 2325 
L 428 2325 
Q 444 2944 830 3186 
Q 1216 3428 1725 3428 
Q 2316 3428 2684 3203 
Q 3050 2978 3050 2503 
L 3050 575 
Q 3050 488 3086 434 
Q 3122 381 3238 381 
Q 3275 381 3322 386 
Q 3369 391 3422 400 
L 3422 -16 
Q 3291 -53 3222 -62 
Q 3153 -72 3034 -72 
Q 2744 -72 2613 134 
Q 2544 244 2516 444 
Q 2344 219 2022 53 
Q 1700 -113 1313 -113 
Q 847 -113 551 170 
Q 256 453 256 878 
Q 256 1344 547 1600 
Q 838 1856 1309 1916 
L 2206 2028 
z
M 1741 3428 
L 1741 3428 
z
" transform="scale(0.015625)"/>
       <path id="Helvetica-72" d="M 428 3347 
L 963 3347 
L 963 2769 
Q 1028 2938 1284 3180 
Q 1541 3422 1875 3422 
Q 1891 3422 1928 3419 
Q 1966 3416 2056 3406 
L 2056 2813 
Q 2006 2822 1964 2825 
Q 1922 2828 1872 2828 
Q 1447 2828 1219 2554 
Q 991 2281 991 1925 
L 991 0 
L 428 0 
L 428 3347 
z
" transform="scale(0.015625)"/>
      </defs>
      <use xlink:href="#Helvetica-59"/>
      <use xlink:href="#Helvetica-65" x="66.699219"/>
      <use xlink:href="#Helvetica-61" x="122.314453"/>
      <use xlink:href="#Helvetica-72" x="177.929688"/>
     </g>
    </g>
   </g>
   <g id="matplotlib.axis_2">
    <g id="ytick_1">
     <g id="line2d_3">
      <defs>
       <path id="m8e343aef83" d="M 0 0 
L -3.5 0 
" style="stroke: #000000; stroke-width: 0.8"/>
      </defs>
      <g>
       <use xlink:href="#m8e343aef83" x="42.28125" y="365.738821" style="stroke: #000000; stroke-width: 0.8"/>
      </g>
     </g>
     <g id="text_4">
      <!-- 0 -->
      <g transform="translate(29.720313 369.32554)scale(0.1 -0.1)">
       <use xlink:href="#Helvetica-30"/>
      </g>
     </g>
    </g>
    <g id="ytick_2">
     <g id="line2d_4">
      <g>
       <use xlink:href="#m8e343aef83" x="42.28125" y="309.153137" style="stroke: #000000; stroke-width: 0.8"/>
      </g>
     </g>
     <g id="text_5">
      <!-- 5 -->
      <g transform="translate(29.720313 312.739856)scale(0.1 -0.1)">
       <defs>
        <path id="Helvetica-35" d="M 791 1141 
Q 847 659 1238 475 
Q 1438 381 1700 381 
Q 2200 381 2440 700 
Q 2681 1019 2681 1406 
Q 2681 1875 2395 2131 
Q 2109 2388 1709 2388 
Q 1419 2388 1211 2275 
Q 1003 2163 856 1963 
L 369 1991 
L 709 4400 
L 3034 4400 
L 3034 3856 
L 1131 3856 
L 941 2613 
Q 1097 2731 1238 2791 
Q 1488 2894 1816 2894 
Q 2431 2894 2859 2497 
Q 3288 2100 3288 1491 
Q 3288 856 2895 371 
Q 2503 -113 1644 -113 
Q 1097 -113 676 195 
Q 256 503 206 1141 
L 791 1141 
z
" transform="scale(0.015625)"/>
       </defs>
       <use xlink:href="#Helvetica-35"/>
      </g>
     </g>
    </g>
    <g id="ytick_3">
     <g id="line2d_5">
      <g>
       <use xlink:href="#m8e343aef83" x="42.28125" y="252.567453" style="stroke: #000000; stroke-width: 0.8"/>
      </g>
     </g>
     <g id="text_6">
      <!-- 10 -->
      <g transform="translate(24.159375 256.154172)scale(0.1 -0.1)">
       <use xlink:href="#Helvetica-31"/>
       <use xlink:href="#Helvetica-30" x="55.615234"/>
      </g>
     </g>
    </g>
    <g id="ytick_4">
     <g id="line2d_6">
      <g>
       <use xlink:href="#m8e343aef83" x="42.28125" y="195.981769" style="stroke: #000000; stroke-width: 0.8"/>
      </g>
     </g>
     <g id="text_7">
      <!-- 15 -->
      <g transform="translate(24.159375 199.568488)scale(0.1 -0.1)">
       <use xlink:href="#Helvetica-31"/>
       <use xlink:href="#Helvetica-35" x="55.615234"/>
      </g>
     </g>
    </g>
    <g id="ytick_5">
     <g id="line2d_7">
      <g>
       <use xlink:href="#m8e343aef83" x="42.28125" y="139.396086" style="stroke: #000000; stroke-width: 0.8"/>
      </g>
     </g>
     <g id="text_8">
      <!-- 20 -->
      <g transform="translate(24.159375 142.982804)scale(0.1 -0.1)">
       <use xlink:href="#Helvetica-32"/>
       <use xlink:href="#Helvetica-30" x="55.615234"/>
      </g>
     </g>
    </g>
    <g id="ytick_6">
     <g id="line2d_8">
      <g>
       <use xlink:href="#m8e343aef83" x="42.28125" y="82.810402" style="stroke: #000000; stroke-width: 0.8"/>
      </g>
     </g>
     <g id="text_9">
      <!-- 25 -->
      <g transform="translate(24.159375 86.397121)scale(0.1 -0.1)">
       <use xlink:href="#Helvetica-32"/>
       <use xlink:href="#Helvetica-35" x="55.615234"/>
      </g>
     </g>
    </g>
    <g id="text_10">
     <!-- Years of development experience -->
     <g transform="translate(18.075 281.783281)rotate(-90)scale(0.1 -0.1)">
      <defs>
       <path id="Helvetica-73" d="M 747 1050 
Q 772 769 888 619 
Q 1100 347 1625 347 
Q 1938 347 2175 483 
Q 2413 619 2413 903 
Q 2413 1119 2222 1231 
Q 2100 1300 1741 1391 
L 1294 1503 
Q 866 1609 663 1741 
Q 300 1969 300 2372 
Q 300 2847 642 3140 
Q 984 3434 1563 3434 
Q 2319 3434 2653 2991 
Q 2863 2709 2856 2384 
L 2325 2384 
Q 2309 2575 2191 2731 
Q 1997 2953 1519 2953 
Q 1200 2953 1036 2831 
Q 872 2709 872 2509 
Q 872 2291 1088 2159 
Q 1213 2081 1456 2022 
L 1828 1931 
Q 2434 1784 2641 1647 
Q 2969 1431 2969 969 
Q 2969 522 2630 197 
Q 2291 -128 1597 -128 
Q 850 -128 539 211 
Q 228 550 206 1050 
L 747 1050 
z
M 1578 3428 
L 1578 3428 
z
" transform="scale(0.015625)"/>
       <path id="Helvetica-20" transform="scale(0.015625)"/>
       <path id="Helvetica-6f" d="M 1741 363 
Q 2300 363 2508 786 
Q 2716 1209 2716 1728 
Q 2716 2197 2566 2491 
Q 2328 2953 1747 2953 
Q 1231 2953 997 2559 
Q 763 2166 763 1609 
Q 763 1075 997 719 
Q 1231 363 1741 363 
z
M 1763 3444 
Q 2409 3444 2856 3012 
Q 3303 2581 3303 1744 
Q 3303 934 2909 406 
Q 2516 -122 1688 -122 
Q 997 -122 590 345 
Q 184 813 184 1600 
Q 184 2444 612 2944 
Q 1041 3444 1763 3444 
z
M 1744 3428 
L 1744 3428 
z
" transform="scale(0.015625)"/>
       <path id="Helvetica-66" d="M 553 3856 
Q 566 4206 675 4369 
Q 872 4656 1434 4656 
Q 1488 4656 1544 4653 
Q 1600 4650 1672 4644 
L 1672 4131 
Q 1584 4138 1545 4139 
Q 1506 4141 1472 4141 
Q 1216 4141 1166 4008 
Q 1116 3875 1116 3331 
L 1672 3331 
L 1672 2888 
L 1109 2888 
L 1109 0 
L 553 0 
L 553 2888 
L 88 2888 
L 88 3331 
L 553 3331 
L 553 3856 
z
" transform="scale(0.015625)"/>
       <path id="Helvetica-64" d="M 769 1634 
Q 769 1097 997 734 
Q 1225 372 1728 372 
Q 2119 372 2370 708 
Q 2622 1044 2622 1672 
Q 2622 2306 2362 2611 
Q 2103 2916 1722 2916 
Q 1297 2916 1033 2591 
Q 769 2266 769 1634 
z
M 1616 3406 
Q 2000 3406 2259 3244 
Q 2409 3150 2600 2916 
L 2600 4606 
L 3141 4606 
L 3141 0 
L 2634 0 
L 2634 466 
Q 2438 156 2169 18 
Q 1900 -119 1553 -119 
Q 994 -119 584 351 
Q 175 822 175 1603 
Q 175 2334 548 2870 
Q 922 3406 1616 3406 
z
" transform="scale(0.015625)"/>
       <path id="Helvetica-76" d="M 688 3347 
L 1581 622 
L 2516 3347 
L 3131 3347 
L 1869 0 
L 1269 0 
L 34 3347 
L 688 3347 
z
" transform="scale(0.015625)"/>
       <path id="Helvetica-6c" d="M 428 4591 
L 991 4591 
L 991 0 
L 428 0 
L 428 4591 
z
" transform="scale(0.015625)"/>
       <path id="Helvetica-70" d="M 1825 378 
Q 2219 378 2480 708 
Q 2741 1038 2741 1694 
Q 2741 2094 2625 2381 
Q 2406 2934 1825 2934 
Q 1241 2934 1025 2350 
Q 909 2038 909 1556 
Q 909 1169 1025 897 
Q 1244 378 1825 378 
z
M 369 3331 
L 916 3331 
L 916 2888 
Q 1084 3116 1284 3241 
Q 1569 3428 1953 3428 
Q 2522 3428 2919 2992 
Q 3316 2556 3316 1747 
Q 3316 653 2744 184 
Q 2381 -113 1900 -113 
Q 1522 -113 1266 53 
Q 1116 147 931 375 
L 931 -1334 
L 369 -1334 
L 369 3331 
z
" transform="scale(0.015625)"/>
       <path id="Helvetica-6d" d="M 413 3347 
L 969 3347 
L 969 2872 
Q 1169 3119 1331 3231 
Q 1609 3422 1963 3422 
Q 2363 3422 2606 3225 
Q 2744 3113 2856 2894 
Q 3044 3163 3297 3292 
Q 3550 3422 3866 3422 
Q 4541 3422 4784 2934 
Q 4916 2672 4916 2228 
L 4916 0 
L 4331 0 
L 4331 2325 
Q 4331 2659 4164 2784 
Q 3997 2909 3756 2909 
Q 3425 2909 3186 2687 
Q 2947 2466 2947 1947 
L 2947 0 
L 2375 0 
L 2375 2184 
Q 2375 2525 2294 2681 
Q 2166 2916 1816 2916 
Q 1497 2916 1236 2669 
Q 975 2422 975 1775 
L 975 0 
L 413 0 
L 413 3347 
z
" transform="scale(0.015625)"/>
       <path id="Helvetica-6e" d="M 413 3347 
L 947 3347 
L 947 2872 
Q 1184 3166 1450 3294 
Q 1716 3422 2041 3422 
Q 2753 3422 3003 2925 
Q 3141 2653 3141 2147 
L 3141 0 
L 2569 0 
L 2569 2109 
Q 2569 2416 2478 2603 
Q 2328 2916 1934 2916 
Q 1734 2916 1606 2875 
Q 1375 2806 1200 2600 
Q 1059 2434 1017 2257 
Q 975 2081 975 1753 
L 975 0 
L 413 0 
L 413 3347 
z
M 1734 3428 
L 1734 3428 
z
" transform="scale(0.015625)"/>
       <path id="Helvetica-74" d="M 525 4281 
L 1094 4281 
L 1094 3347 
L 1628 3347 
L 1628 2888 
L 1094 2888 
L 1094 703 
Q 1094 528 1213 469 
Q 1278 434 1431 434 
Q 1472 434 1519 436 
Q 1566 438 1628 444 
L 1628 0 
Q 1531 -28 1426 -40 
Q 1322 -53 1200 -53 
Q 806 -53 665 148 
Q 525 350 525 672 
L 525 2888 
L 72 2888 
L 72 3347 
L 525 3347 
L 525 4281 
z
" transform="scale(0.015625)"/>
       <path id="Helvetica-78" d="M 94 3347 
L 822 3347 
L 1591 2169 
L 2369 3347 
L 3053 3331 
L 1925 1716 
L 3103 0 
L 2384 0 
L 1553 1256 
L 747 0 
L 34 0 
L 1213 1716 
L 94 3347 
z
" transform="scale(0.015625)"/>
       <path id="Helvetica-69" d="M 413 3331 
L 984 3331 
L 984 0 
L 413 0 
L 413 3331 
z
M 413 4591 
L 984 4591 
L 984 3953 
L 413 3953 
L 413 4591 
z
" transform="scale(0.015625)"/>
       <path id="Helvetica-63" d="M 1703 3444 
Q 2269 3444 2623 3169 
Q 2978 2894 3050 2222 
L 2503 2222 
Q 2453 2531 2275 2736 
Q 2097 2941 1703 2941 
Q 1166 2941 934 2416 
Q 784 2075 784 1575 
Q 784 1072 996 728 
Q 1209 384 1666 384 
Q 2016 384 2220 598 
Q 2425 813 2503 1184 
L 3050 1184 
Q 2956 519 2581 211 
Q 2206 -97 1622 -97 
Q 966 -97 575 383 
Q 184 863 184 1581 
Q 184 2463 612 2953 
Q 1041 3444 1703 3444 
z
M 1616 3428 
L 1616 3428 
z
" transform="scale(0.015625)"/>
      </defs>
      <use xlink:href="#Helvetica-59"/>
      <use xlink:href="#Helvetica-65" x="66.699219"/>
      <use xlink:href="#Helvetica-61" x="122.314453"/>
      <use xlink:href="#Helvetica-72" x="177.929688"/>
      <use xlink:href="#Helvetica-73" x="211.230469"/>
      <use xlink:href="#Helvetica-20" x="261.230469"/>
      <use xlink:href="#Helvetica-6f" x="289.013672"/>
      <use xlink:href="#Helvetica-66" x="344.628906"/>
      <use xlink:href="#Helvetica-20" x="372.412109"/>
      <use xlink:href="#Helvetica-64" x="400.195312"/>
      <use xlink:href="#Helvetica-65" x="455.810547"/>
      <use xlink:href="#Helvetica-76" x="511.425781"/>
      <use xlink:href="#Helvetica-65" x="561.425781"/>
      <use xlink:href="#Helvetica-6c" x="617.041016"/>
      <use xlink:href="#Helvetica-6f" x="639.257812"/>
      <use xlink:href="#Helvetica-70" x="694.873047"/>
      <use xlink:href="#Helvetica-6d" x="750.488281"/>
      <use xlink:href="#Helvetica-65" x="833.789062"/>
      <use xlink:href="#Helvetica-6e" x="889.404297"/>
      <use xlink:href="#Helvetica-74" x="945.019531"/>
      <use xlink:href="#Helvetica-20" x="972.802734"/>
      <use xlink:href="#Helvetica-65" x="1000.585938"/>
      <use xlink:href="#Helvetica-78" x="1056.201172"/>
      <use xlink:href="#Helvetica-70" x="1106.201172"/>
      <use xlink:href="#Helvetica-65" x="1161.816406"/>
      <use xlink:href="#Helvetica-72" x="1217.431641"/>
      <use xlink:href="#Helvetica-69" x="1250.732422"/>
      <use xlink:href="#Helvetica-65" x="1272.949219"/>
      <use xlink:href="#Helvetica-6e" x="1328.564453"/>
      <use xlink:href="#Helvetica-63" x="1384.179688"/>
      <use xlink:href="#Helvetica-65" x="1434.179688"/>
     </g>
    </g>
   </g>
   <g id="line2d_9">
    <path d="M 110.56875 286.518864 
L 110.56875 331.787411 
" clip-path="url(#p52da6227e1)" style="fill: none; stroke: #3f3f3f; stroke-width: 1.5; stroke-linecap: square"/>
   </g>
   <g id="line2d_10">
    <path d="M 110.56875 139.396086 
L 110.56875 48.858991 
" clip-path="url(#p52da6227e1)" style="fill: none; stroke: #3f3f3f; stroke-width: 1.5; stroke-linecap: square"/>
   </g>
   <g id="line2d_11">
    <path d="M 87.25375 331.787411 
L 133.88375 331.787411 
" clip-path="url(#p52da6227e1)" style="fill: none; stroke: #3f3f3f; stroke-width: 1.5; stroke-linecap: square"/>
   </g>
   <g id="line2d_12">
    <path d="M 87.25375 48.858991 
L 133.88375 48.858991 
" clip-path="url(#p52da6227e1)" style="fill: none; stroke: #3f3f3f; stroke-width: 1.5; stroke-linecap: square"/>
   </g>
   <g id="line2d_13"/>
   <g id="line2d_14">
    <path d="M 227.14375 343.104547 
L 227.14375 365.738821 
" clip-path="url(#p52da6227e1)" style="fill: none; stroke: #3f3f3f; stroke-width: 1.5; stroke-linecap: square"/>
   </g>
   <g id="line2d_15">
    <path d="M 227.14375 323.299558 
L 227.14375 297.836 
" clip-path="url(#p52da6227e1)" style="fill: none; stroke: #3f3f3f; stroke-width: 1.5; stroke-linecap: square"/>
   </g>
   <g id="line2d_16">
    <path d="M 203.82875 365.738821 
L 250.45875 365.738821 
" clip-path="url(#p52da6227e1)" style="fill: none; stroke: #3f3f3f; stroke-width: 1.5; stroke-linecap: square"/>
   </g>
   <g id="line2d_17">
    <path d="M 203.82875 297.836 
L 250.45875 297.836 
" clip-path="url(#p52da6227e1)" style="fill: none; stroke: #3f3f3f; stroke-width: 1.5; stroke-linecap: square"/>
   </g>
   <g id="line2d_18">
    <defs>
     <path id="m1b309634d9" d="M -0 3.535534 
L 2.12132 0 
L -0 -3.535534 
L -2.12132 -0 
z
" style="stroke: #3f3f3f; stroke-linejoin: miter"/>
    </defs>
    <g clip-path="url(#p52da6227e1)">
     <use xlink:href="#m1b309634d9" x="227.14375" y="275.201727" style="fill: #3f3f3f; stroke: #3f3f3f; stroke-linejoin: miter"/>
    </g>
   </g>
   <g id="line2d_19">
    <path d="M 63.93875 252.567453 
L 157.19875 252.567453 
" clip-path="url(#p52da6227e1)" style="fill: none; stroke: #3f3f3f; stroke-width: 1.5; stroke-linecap: square"/>
   </g>
   <g id="line2d_20">
    <path d="M 180.51375 331.787411 
L 273.77375 331.787411 
" clip-path="url(#p52da6227e1)" style="fill: none; stroke: #3f3f3f; stroke-width: 1.5; stroke-linecap: square"/>
   </g>
   <g id="patch_5">
    <path d="M 42.28125 365.738821 
L 42.28125 82.810402 
" style="fill: none; stroke: #000000; stroke-width: 0.8; stroke-linejoin: miter; stroke-linecap: square"/>
   </g>
   <g id="patch_6">
    <path d="M 110.56875 391.582812 
L 227.14375 391.582812 
" style="fill: none; stroke: #000000; stroke-width: 0.8; stroke-linejoin: miter; stroke-linecap: square"/>
   </g>
   <g id="PathCollection_1">
    <defs>
     <path id="C0_0_77057b9605" d="M 0 2.5 
C 0.663008 2.5 1.29895 2.236584 1.767767 1.767767 
C 2.236584 1.29895 2.5 0.663008 2.5 -0 
C 2.5 -0.663008 2.236584 -1.29895 1.767767 -1.767767 
C 1.29895 -2.236584 0.663008 -2.5 0 -2.5 
C -0.663008 -2.5 -1.29895 -2.236584 -1.767767 -1.767767 
C -2.236584 -1.29895 -2.5 -0.663008 -2.5 0 
C -2.5 0.663008 -2.236584 1.29895 -1.767767 1.767767 
C -1.29895 2.236584 -0.663008 2.5 0 2.5 
z
"/>
    </defs>
    <g clip-path="url(#p52da6227e1)">
     <use xlink:href="#C0_0_77057b9605" x="110.56875" y="331.787411" style="fill: #808080; fill-opacity: 0.75"/>
    </g>
    <g clip-path="url(#p52da6227e1)">
     <use xlink:href="#C0_0_77057b9605" x="110.56875" y="309.153137" style="fill: #808080; fill-opacity: 0.75"/>
    </g>
    <g clip-path="url(#p52da6227e1)">
     <use xlink:href="#C0_0_77057b9605" x="110.56875" y="297.836" style="fill: #808080; fill-opacity: 0.75"/>
    </g>
    <g clip-path="url(#p52da6227e1)">
     <use xlink:href="#C0_0_77057b9605" x="110.56875" y="252.567453" style="fill: #808080; fill-opacity: 0.75"/>
    </g>
    <g clip-path="url(#p52da6227e1)">
     <use xlink:href="#C0_0_77057b9605" x="104.536307" y="252.567453" style="fill: #808080; fill-opacity: 0.75"/>
    </g>
    <g clip-path="url(#p52da6227e1)">
     <use xlink:href="#C0_0_77057b9605" x="116.601193" y="252.567453" style="fill: #808080; fill-opacity: 0.75"/>
    </g>
    <g clip-path="url(#p52da6227e1)">
     <use xlink:href="#C0_0_77057b9605" x="110.56875" y="139.396086" style="fill: #808080; fill-opacity: 0.75"/>
    </g>
    <g clip-path="url(#p52da6227e1)">
     <use xlink:href="#C0_0_77057b9605" x="104.536307" y="139.396086" style="fill: #808080; fill-opacity: 0.75"/>
    </g>
    <g clip-path="url(#p52da6227e1)">
     <use xlink:href="#C0_0_77057b9605" x="110.56875" y="82.810402" style="fill: #808080; fill-opacity: 0.75"/>
    </g>
    <g clip-path="url(#p52da6227e1)">
     <use xlink:href="#C0_0_77057b9605" x="110.56875" y="48.858991" style="fill: #808080; fill-opacity: 0.75"/>
    </g>
   </g>
   <g id="PathCollection_2">
    <defs>
     <path id="C1_0_77057b9605" d="M 0 2.5 
C 0.663008 2.5 1.29895 2.236584 1.767767 1.767767 
C 2.236584 1.29895 2.5 0.663008 2.5 -0 
C 2.5 -0.663008 2.236584 -1.29895 1.767767 -1.767767 
C 1.29895 -2.236584 0.663008 -2.5 0 -2.5 
C -0.663008 -2.5 -1.29895 -2.236584 -1.767767 -1.767767 
C -2.236584 -1.29895 -2.5 -0.663008 -2.5 0 
C -2.5 0.663008 -2.236584 1.29895 -1.767767 1.767767 
C -1.29895 2.236584 -0.663008 2.5 0 2.5 
z
"/>
    </defs>
    <g clip-path="url(#p52da6227e1)">
     <use xlink:href="#C1_0_77057b9605" x="227.14375" y="365.738821" style="fill: #808080; fill-opacity: 0.75"/>
    </g>
    <g clip-path="url(#p52da6227e1)">
     <use xlink:href="#C1_0_77057b9605" x="227.14375" y="343.104547" style="fill: #808080; fill-opacity: 0.75"/>
    </g>
    <g clip-path="url(#p52da6227e1)">
     <use xlink:href="#C1_0_77057b9605" x="221.111307" y="343.104547" style="fill: #808080; fill-opacity: 0.75"/>
    </g>
    <g clip-path="url(#p52da6227e1)">
     <use xlink:href="#C1_0_77057b9605" x="227.14375" y="331.787411" style="fill: #808080; fill-opacity: 0.75"/>
    </g>
    <g clip-path="url(#p52da6227e1)">
     <use xlink:href="#C1_0_77057b9605" x="221.111307" y="331.787411" style="fill: #808080; fill-opacity: 0.75"/>
    </g>
    <g clip-path="url(#p52da6227e1)">
     <use xlink:href="#C1_0_77057b9605" x="233.176193" y="331.787411" style="fill: #808080; fill-opacity: 0.75"/>
    </g>
    <g clip-path="url(#p52da6227e1)">
     <use xlink:href="#C1_0_77057b9605" x="227.14375" y="297.836" style="fill: #808080; fill-opacity: 0.75"/>
    </g>
    <g clip-path="url(#p52da6227e1)">
     <use xlink:href="#C1_0_77057b9605" x="227.14375" y="275.201727" style="fill: #808080; fill-opacity: 0.75"/>
    </g>
   </g>
  </g>
  <g id="axes_2">
   <g id="patch_7">
    <path d="M 332.05 381.582812 
L 565.2 381.582812 
L 565.2 33.015 
L 332.05 33.015 
z
" style="fill: #ffffff"/>
   </g>
   <g id="patch_8">
    <path d="M 360.310606 381.582812 
L 377.973485 381.582812 
L 377.973485 49.613467 
L 360.310606 49.613467 
z
" clip-path="url(#pf816fee862)" style="fill: #2d1e3e; fill-opacity: 0.5; stroke: #000000; stroke-linejoin: miter"/>
   </g>
   <g id="patch_9">
    <path d="M 395.636364 381.582812 
L 413.299242 381.582812 
L 413.299242 270.926364 
L 395.636364 270.926364 
z
" clip-path="url(#pf816fee862)" style="fill: #2d1e3e; fill-opacity: 0.5; stroke: #000000; stroke-linejoin: miter"/>
   </g>
   <g id="patch_10">
    <path d="M 430.962121 381.582812 
L 448.625 381.582812 
L 448.625 381.582812 
L 430.962121 381.582812 
z
" clip-path="url(#pf816fee862)" style="fill: #2d1e3e; fill-opacity: 0.5; stroke: #000000; stroke-linejoin: miter"/>
   </g>
   <g id="patch_11">
    <path d="M 466.287879 381.582812 
L 483.950758 381.582812 
L 483.950758 381.582812 
L 466.287879 381.582812 
z
" clip-path="url(#pf816fee862)" style="fill: #2d1e3e; fill-opacity: 0.5; stroke: #000000; stroke-linejoin: miter"/>
   </g>
   <g id="patch_12">
    <path d="M 501.613636 381.582812 
L 519.276515 381.582812 
L 519.276515 381.582812 
L 501.613636 381.582812 
z
" clip-path="url(#pf816fee862)" style="fill: #2d1e3e; fill-opacity: 0.5; stroke: #000000; stroke-linejoin: miter"/>
   </g>
   <g id="patch_13">
    <path d="M 536.939394 381.582812 
L 554.602273 381.582812 
L 554.602273 381.582812 
L 536.939394 381.582812 
z
" clip-path="url(#pf816fee862)" style="fill: #2d1e3e; fill-opacity: 0.5; stroke: #000000; stroke-linejoin: miter"/>
   </g>
   <g id="patch_14">
    <path d="M 342.647727 381.582812 
L 360.310606 381.582812 
L 360.310606 326.254588 
L 342.647727 326.254588 
z
" clip-path="url(#pf816fee862)" style="fill: #edd1cb; fill-opacity: 0.5; stroke: #000000; stroke-linejoin: miter"/>
   </g>
   <g id="patch_15">
    <path d="M 377.973485 381.582812 
L 395.636364 381.582812 
L 395.636364 270.926364 
L 377.973485 270.926364 
z
" clip-path="url(#pf816fee862)" style="fill: #edd1cb; fill-opacity: 0.5; stroke: #000000; stroke-linejoin: miter"/>
   </g>
   <g id="patch_16">
    <path d="M 413.299242 381.582812 
L 430.962121 381.582812 
L 430.962121 215.59814 
L 413.299242 215.59814 
z
" clip-path="url(#pf816fee862)" style="fill: #edd1cb; fill-opacity: 0.5; stroke: #000000; stroke-linejoin: miter"/>
   </g>
   <g id="patch_17">
    <path d="M 448.625 381.582812 
L 466.287879 381.582812 
L 466.287879 381.582812 
L 448.625 381.582812 
z
" clip-path="url(#pf816fee862)" style="fill: #edd1cb; fill-opacity: 0.5; stroke: #000000; stroke-linejoin: miter"/>
   </g>
   <g id="patch_18">
    <path d="M 483.950758 381.582812 
L 501.613636 381.582812 
L 501.613636 270.926364 
L 483.950758 270.926364 
z
" clip-path="url(#pf816fee862)" style="fill: #edd1cb; fill-opacity: 0.5; stroke: #000000; stroke-linejoin: miter"/>
   </g>
   <g id="patch_19">
    <path d="M 519.276515 381.582812 
L 536.939394 381.582812 
L 536.939394 270.926364 
L 519.276515 270.926364 
z
" clip-path="url(#pf816fee862)" style="fill: #edd1cb; fill-opacity: 0.5; stroke: #000000; stroke-linejoin: miter"/>
   </g>
   <g id="matplotlib.axis_3">
    <g id="xtick_3">
     <g id="line2d_21">
      <g>
       <use xlink:href="#m4c99cd72f3" x="342.647727" y="391.582812" style="stroke: #000000; stroke-width: 0.8"/>
      </g>
     </g>
     <g id="text_11">
      <!-- 0 -->
      <g transform="translate(339.867259 405.75625)scale(0.1 -0.1)">
       <use xlink:href="#Helvetica-30"/>
      </g>
     </g>
    </g>
    <g id="xtick_4">
     <g id="line2d_22">
      <g>
       <use xlink:href="#m4c99cd72f3" x="418.345779" y="391.582812" style="stroke: #000000; stroke-width: 0.8"/>
      </g>
     </g>
     <g id="text_12">
      <!-- 10 -->
      <g transform="translate(412.784842 405.75625)scale(0.1 -0.1)">
       <use xlink:href="#Helvetica-31"/>
       <use xlink:href="#Helvetica-30" x="55.615234"/>
      </g>
     </g>
    </g>
    <g id="xtick_5">
     <g id="line2d_23">
      <g>
       <use xlink:href="#m4c99cd72f3" x="494.043831" y="391.582812" style="stroke: #000000; stroke-width: 0.8"/>
      </g>
     </g>
     <g id="text_13">
      <!-- 20 -->
      <g transform="translate(488.482894 405.75625)scale(0.1 -0.1)">
       <use xlink:href="#Helvetica-32"/>
       <use xlink:href="#Helvetica-30" x="55.615234"/>
      </g>
     </g>
    </g>
    <g id="text_14">
     <!-- Years of development experience -->
     <g transform="translate(374.140625 419.115625)scale(0.1 -0.1)">
      <use xlink:href="#Helvetica-59"/>
      <use xlink:href="#Helvetica-65" x="66.699219"/>
      <use xlink:href="#Helvetica-61" x="122.314453"/>
      <use xlink:href="#Helvetica-72" x="177.929688"/>
      <use xlink:href="#Helvetica-73" x="211.230469"/>
      <use xlink:href="#Helvetica-20" x="261.230469"/>
      <use xlink:href="#Helvetica-6f" x="289.013672"/>
      <use xlink:href="#Helvetica-66" x="344.628906"/>
      <use xlink:href="#Helvetica-20" x="372.412109"/>
      <use xlink:href="#Helvetica-64" x="400.195312"/>
      <use xlink:href="#Helvetica-65" x="455.810547"/>
      <use xlink:href="#Helvetica-76" x="511.425781"/>
      <use xlink:href="#Helvetica-65" x="561.425781"/>
      <use xlink:href="#Helvetica-6c" x="617.041016"/>
      <use xlink:href="#Helvetica-6f" x="639.257812"/>
      <use xlink:href="#Helvetica-70" x="694.873047"/>
      <use xlink:href="#Helvetica-6d" x="750.488281"/>
      <use xlink:href="#Helvetica-65" x="833.789062"/>
      <use xlink:href="#Helvetica-6e" x="889.404297"/>
      <use xlink:href="#Helvetica-74" x="945.019531"/>
      <use xlink:href="#Helvetica-20" x="972.802734"/>
      <use xlink:href="#Helvetica-65" x="1000.585938"/>
      <use xlink:href="#Helvetica-78" x="1056.201172"/>
      <use xlink:href="#Helvetica-70" x="1106.201172"/>
      <use xlink:href="#Helvetica-65" x="1161.816406"/>
      <use xlink:href="#Helvetica-72" x="1217.431641"/>
      <use xlink:href="#Helvetica-69" x="1250.732422"/>
      <use xlink:href="#Helvetica-65" x="1272.949219"/>
      <use xlink:href="#Helvetica-6e" x="1328.564453"/>
      <use xlink:href="#Helvetica-63" x="1384.179688"/>
      <use xlink:href="#Helvetica-65" x="1434.179688"/>
     </g>
    </g>
   </g>
   <g id="matplotlib.axis_4">
    <g id="ytick_7">
     <g id="line2d_24">
      <g>
       <use xlink:href="#m8e343aef83" x="322.05" y="381.582812" style="stroke: #000000; stroke-width: 0.8"/>
      </g>
     </g>
     <g id="text_15">
      <!-- 0 -->
      <g transform="translate(309.489062 385.169531)scale(0.1 -0.1)">
       <use xlink:href="#Helvetica-30"/>
      </g>
     </g>
    </g>
    <g id="ytick_8">
     <g id="line2d_25">
      <g>
       <use xlink:href="#m8e343aef83" x="322.05" y="326.254588" style="stroke: #000000; stroke-width: 0.8"/>
      </g>
     </g>
     <g id="text_16">
      <!-- 1 -->
      <g transform="translate(309.489062 329.841307)scale(0.1 -0.1)">
       <use xlink:href="#Helvetica-31"/>
      </g>
     </g>
    </g>
    <g id="ytick_9">
     <g id="line2d_26">
      <g>
       <use xlink:href="#m8e343aef83" x="322.05" y="270.926364" style="stroke: #000000; stroke-width: 0.8"/>
      </g>
     </g>
     <g id="text_17">
      <!-- 2 -->
      <g transform="translate(309.489062 274.513083)scale(0.1 -0.1)">
       <use xlink:href="#Helvetica-32"/>
      </g>
     </g>
    </g>
    <g id="ytick_10">
     <g id="line2d_27">
      <g>
       <use xlink:href="#m8e343aef83" x="322.05" y="215.59814" style="stroke: #000000; stroke-width: 0.8"/>
      </g>
     </g>
     <g id="text_18">
      <!-- 3 -->
      <g transform="translate(309.489062 219.184859)scale(0.1 -0.1)">
       <defs>
        <path id="Helvetica-33" d="M 1663 -122 
Q 869 -122 511 314 
Q 153 750 153 1375 
L 741 1375 
Q 778 941 903 744 
Q 1122 391 1694 391 
Q 2138 391 2406 628 
Q 2675 866 2675 1241 
Q 2675 1703 2392 1887 
Q 2109 2072 1606 2072 
Q 1550 2072 1492 2070 
Q 1434 2069 1375 2066 
L 1375 2563 
Q 1463 2553 1522 2550 
Q 1581 2547 1650 2547 
Q 1966 2547 2169 2647 
Q 2525 2822 2525 3272 
Q 2525 3606 2287 3787 
Q 2050 3969 1734 3969 
Q 1172 3969 956 3594 
Q 838 3388 822 3006 
L 266 3006 
Q 266 3506 466 3856 
Q 809 4481 1675 4481 
Q 2359 4481 2734 4176 
Q 3109 3872 3109 3294 
Q 3109 2881 2888 2625 
Q 2750 2466 2531 2375 
Q 2884 2278 3082 2001 
Q 3281 1725 3281 1325 
Q 3281 684 2859 281 
Q 2438 -122 1663 -122 
z
" transform="scale(0.015625)"/>
       </defs>
       <use xlink:href="#Helvetica-33"/>
      </g>
     </g>
    </g>
    <g id="ytick_11">
     <g id="line2d_28">
      <g>
       <use xlink:href="#m8e343aef83" x="322.05" y="160.269916" style="stroke: #000000; stroke-width: 0.8"/>
      </g>
     </g>
     <g id="text_19">
      <!-- 4 -->
      <g transform="translate(309.489062 163.856634)scale(0.1 -0.1)">
       <defs>
        <path id="Helvetica-34" d="M 2116 1584 
L 2116 3613 
L 681 1584 
L 2116 1584 
z
M 2125 0 
L 2125 1094 
L 163 1094 
L 163 1644 
L 2213 4488 
L 2688 4488 
L 2688 1584 
L 3347 1584 
L 3347 1094 
L 2688 1094 
L 2688 0 
L 2125 0 
z
" transform="scale(0.015625)"/>
       </defs>
       <use xlink:href="#Helvetica-34"/>
      </g>
     </g>
    </g>
    <g id="ytick_12">
     <g id="line2d_29">
      <g>
       <use xlink:href="#m8e343aef83" x="322.05" y="104.941691" style="stroke: #000000; stroke-width: 0.8"/>
      </g>
     </g>
     <g id="text_20">
      <!-- 5 -->
      <g transform="translate(309.489062 108.52841)scale(0.1 -0.1)">
       <use xlink:href="#Helvetica-35"/>
      </g>
     </g>
    </g>
    <g id="ytick_13">
     <g id="line2d_30">
      <g>
       <use xlink:href="#m8e343aef83" x="322.05" y="49.613467" style="stroke: #000000; stroke-width: 0.8"/>
      </g>
     </g>
     <g id="text_21">
      <!-- 6 -->
      <g transform="translate(309.489062 53.200186)scale(0.1 -0.1)">
       <defs>
        <path id="Helvetica-36" d="M 1872 4494 
Q 2622 4494 2917 4105 
Q 3213 3716 3213 3303 
L 2656 3303 
Q 2606 3569 2497 3719 
Q 2294 4000 1881 4000 
Q 1409 4000 1131 3564 
Q 853 3128 822 2316 
Q 1016 2600 1309 2741 
Q 1578 2866 1909 2866 
Q 2472 2866 2890 2506 
Q 3309 2147 3309 1434 
Q 3309 825 2912 354 
Q 2516 -116 1781 -116 
Q 1153 -116 697 361 
Q 241 838 241 1966 
Q 241 2800 444 3381 
Q 834 4494 1872 4494 
z
M 1831 384 
Q 2275 384 2495 682 
Q 2716 981 2716 1388 
Q 2716 1731 2519 2042 
Q 2322 2353 1803 2353 
Q 1441 2353 1167 2112 
Q 894 1872 894 1388 
Q 894 963 1142 673 
Q 1391 384 1831 384 
z
" transform="scale(0.015625)"/>
       </defs>
       <use xlink:href="#Helvetica-36"/>
      </g>
     </g>
    </g>
    <g id="text_22">
     <!-- Count -->
     <g transform="translate(303.404687 220.640313)rotate(-90)scale(0.1 -0.1)">
      <defs>
       <path id="Helvetica-43" d="M 2422 4716 
Q 3294 4716 3775 4256 
Q 4256 3797 4309 3213 
L 3703 3213 
Q 3600 3656 3292 3915 
Q 2984 4175 2428 4175 
Q 1750 4175 1333 3698 
Q 916 3222 916 2238 
Q 916 1431 1292 929 
Q 1669 428 2416 428 
Q 3103 428 3463 956 
Q 3653 1234 3747 1688 
L 4353 1688 
Q 4272 963 3816 472 
Q 3269 -119 2341 -119 
Q 1541 -119 997 366 
Q 281 1006 281 2344 
Q 281 3359 819 4009 
Q 1400 4716 2422 4716 
z
M 2297 4716 
L 2297 4716 
z
" transform="scale(0.015625)"/>
       <path id="Helvetica-75" d="M 975 3347 
L 975 1125 
Q 975 869 1056 706 
Q 1206 406 1616 406 
Q 2203 406 2416 931 
Q 2531 1213 2531 1703 
L 2531 3347 
L 3094 3347 
L 3094 0 
L 2563 0 
L 2569 494 
Q 2459 303 2297 172 
Q 1975 -91 1516 -91 
Q 800 -91 541 388 
Q 400 644 400 1072 
L 400 3347 
L 975 3347 
z
M 1747 3428 
L 1747 3428 
z
" transform="scale(0.015625)"/>
      </defs>
      <use xlink:href="#Helvetica-43"/>
      <use xlink:href="#Helvetica-6f" x="72.216797"/>
      <use xlink:href="#Helvetica-75" x="127.832031"/>
      <use xlink:href="#Helvetica-6e" x="183.447266"/>
      <use xlink:href="#Helvetica-74" x="239.0625"/>
     </g>
    </g>
   </g>
   <g id="line2d_31">
    <path d="M 342.647727 223.262374 
L 345.843022 186.635593 
L 351.168513 124.644482 
L 353.298709 102.418358 
L 355.428906 83.464914 
L 356.494004 75.593517 
L 357.559102 68.975378 
L 358.624201 63.727777 
L 359.689299 59.946548 
L 360.754397 57.702106 
L 361.819495 57.036195 
L 362.884593 57.959563 
L 363.949692 60.450688 
L 365.01479 64.455661 
L 366.079888 69.889266 
L 367.144986 76.637223 
L 368.210085 84.559513 
L 370.340281 103.264716 
L 372.470477 124.54932 
L 377.795968 179.247809 
L 379.926165 198.478259 
L 382.056361 215.032014 
L 384.186558 228.66971 
L 385.251656 234.418974 
L 386.316754 239.505848 
L 387.381852 243.98696 
L 388.446951 247.930038 
L 389.512049 251.410722 
L 391.642245 257.308742 
L 393.772442 262.332936 
L 398.032835 272.089689 
L 400.163031 277.699616 
L 402.293228 284.138903 
L 404.423424 291.473248 
L 406.55362 299.629364 
L 409.748915 312.97007 
L 415.074406 335.71614 
L 417.204603 344.097174 
L 419.334799 351.691473 
L 421.464995 358.343475 
L 423.595192 363.977954 
L 425.725388 368.594719 
L 427.855585 372.255175 
L 428.920683 373.758408 
L 429.985781 375.064256 
L 431.050879 376.189492 
L 433.181076 377.966859 
L 435.311272 379.225321 
L 437.441469 380.088456 
L 439.571665 380.662011 
L 441.701862 381.031335 
L 444.897156 381.340533 
L 449.157549 381.509624 
L 458.743433 381.579564 
L 554.602273 381.582812 
L 554.602273 381.582812 
" clip-path="url(#pf816fee862)" style="fill: none; stroke: #2d1e3e; stroke-width: 1.5; stroke-linecap: square"/>
   </g>
   <g id="line2d_32">
    <path d="M 342.647727 331.73587 
L 351.168513 321.265507 
L 360.754397 309.560064 
L 366.079888 303.411863 
L 370.340281 298.814383 
L 374.600674 294.587489 
L 377.795968 291.704264 
L 380.991263 289.097627 
L 384.186558 286.791536 
L 387.381852 284.80603 
L 390.577147 283.156759 
L 393.772442 281.854579 
L 395.902638 281.18235 
L 398.032835 280.667456 
L 400.163031 280.309238 
L 402.293228 280.105968 
L 404.423424 280.054856 
L 407.618719 280.254828 
L 410.814013 280.77113 
L 414.009308 281.581797 
L 417.204603 282.660507 
L 420.399897 283.977148 
L 423.595192 285.498474 
L 427.855585 287.783482 
L 433.181076 290.927265 
L 450.222647 301.245874 
L 454.48304 303.5024 
L 458.743433 305.523819 
L 463.003826 307.282856 
L 467.264219 308.768057 
L 471.524612 309.983329 
L 475.785005 310.946743 
L 480.045397 311.688729 
L 485.370889 312.367285 
L 492.826576 313.025791 
L 504.542656 314.012335 
L 509.868148 314.687865 
L 514.12854 315.412364 
L 518.388933 316.336636 
L 522.649326 317.485481 
L 526.909719 318.875272 
L 531.170112 320.513939 
L 535.430505 322.401242 
L 539.690898 324.529248 
L 543.951291 326.883004 
L 549.276782 330.109872 
L 554.602273 333.603213 
L 554.602273 333.603213 
" clip-path="url(#pf816fee862)" style="fill: none; stroke: #edd1cb; stroke-width: 1.5; stroke-linecap: square"/>
   </g>
   <g id="patch_20">
    <path d="M 322.05 381.582812 
L 322.05 49.613467 
" style="fill: none; stroke: #000000; stroke-width: 0.8; stroke-linejoin: miter; stroke-linecap: square"/>
   </g>
   <g id="patch_21">
    <path d="M 342.647727 391.582812 
L 494.043831 391.582812 
" style="fill: none; stroke: #000000; stroke-width: 0.8; stroke-linejoin: miter; stroke-linecap: square"/>
   </g>
   <g id="legend_1">
    <g id="patch_22">
     <path d="M 503.95625 83.788438 
L 558.2 83.788438 
Q 560.2 83.788438 560.2 81.788438 
L 560.2 40.015 
Q 560.2 38.015 558.2 38.015 
L 503.95625 38.015 
Q 501.95625 38.015 501.95625 40.015 
L 501.95625 81.788438 
Q 501.95625 83.788438 503.95625 83.788438 
z
" style="fill: #ffffff; opacity: 0.8; stroke: #cccccc; stroke-linejoin: miter"/>
    </g>
    <g id="text_23">
     <!-- Year -->
     <g transform="translate(520.517187 49.188438)scale(0.1 -0.1)">
      <use xlink:href="#Helvetica-59"/>
      <use xlink:href="#Helvetica-65" x="66.699219"/>
      <use xlink:href="#Helvetica-61" x="122.314453"/>
      <use xlink:href="#Helvetica-72" x="177.929688"/>
     </g>
    </g>
    <g id="patch_23">
     <path d="M 505.95625 63.44625 
L 525.95625 63.44625 
L 525.95625 56.44625 
L 505.95625 56.44625 
z
" style="fill: #edd1cb; fill-opacity: 0.5; stroke: #000000; stroke-linejoin: miter"/>
    </g>
    <g id="text_24">
     <!-- 2018 -->
     <g transform="translate(533.95625 63.44625)scale(0.1 -0.1)">
      <use xlink:href="#Helvetica-32"/>
      <use xlink:href="#Helvetica-30" x="55.615234"/>
      <use xlink:href="#Helvetica-31" x="111.230469"/>
      <use xlink:href="#Helvetica-38" x="166.845703"/>
     </g>
    </g>
    <g id="patch_24">
     <path d="M 505.95625 77.704063 
L 525.95625 77.704063 
L 525.95625 70.704063 
L 505.95625 70.704063 
z
" style="fill: #2d1e3e; fill-opacity: 0.5; stroke: #000000; stroke-linejoin: miter"/>
    </g>
    <g id="text_25">
     <!-- 2022 -->
     <g transform="translate(533.95625 77.704063)scale(0.1 -0.1)">
      <use xlink:href="#Helvetica-32"/>
      <use xlink:href="#Helvetica-30" x="55.615234"/>
      <use xlink:href="#Helvetica-32" x="111.230469"/>
      <use xlink:href="#Helvetica-32" x="166.845703"/>
     </g>
    </g>
   </g>
  </g>
  <g id="text_26">
   <!-- How many years of software development experience for Canada (without 95 percentile) -->
   <g transform="translate(53.228438 17.4825)scale(0.12 -0.12)">
    <defs>
     <path id="Helvetica-48" d="M 503 4591 
L 1131 4591 
L 1131 2694 
L 3519 2694 
L 3519 4591 
L 4147 4591 
L 4147 0 
L 3519 0 
L 3519 2147 
L 1131 2147 
L 1131 0 
L 503 0 
L 503 4591 
z
" transform="scale(0.015625)"/>
     <path id="Helvetica-77" d="M 672 3347 
L 1316 709 
L 1969 3347 
L 2600 3347 
L 3256 725 
L 3941 3347 
L 4503 3347 
L 3531 0 
L 2947 0 
L 2266 2591 
L 1606 0 
L 1022 0 
L 56 3347 
L 672 3347 
z
" transform="scale(0.015625)"/>
     <path id="Helvetica-79" d="M 2503 3347 
L 3125 3347 
Q 3006 3025 2597 1878 
Q 2291 1016 2084 472 
Q 1597 -809 1397 -1090 
Q 1197 -1372 709 -1372 
Q 591 -1372 527 -1362 
Q 463 -1353 369 -1328 
L 369 -816 
Q 516 -856 581 -865 
Q 647 -875 697 -875 
Q 853 -875 926 -823 
Q 1000 -772 1050 -697 
Q 1066 -672 1162 -440 
Q 1259 -209 1303 -97 
L 66 3347 
L 703 3347 
L 1600 622 
L 2503 3347 
z
M 1597 3428 
L 1597 3428 
z
" transform="scale(0.015625)"/>
     <path id="Helvetica-28" d="M 1894 4666 
Q 1403 3713 1256 3263 
Q 1034 2578 1034 1681 
Q 1034 775 1288 25 
Q 1444 -438 1903 -1306 
L 1525 -1306 
Q 1069 -594 959 -397 
Q 850 -200 722 138 
Q 547 600 478 1125 
Q 444 1397 444 1644 
Q 444 2569 734 3291 
Q 919 3750 1503 4666 
L 1894 4666 
z
" transform="scale(0.015625)"/>
     <path id="Helvetica-68" d="M 413 4606 
L 975 4606 
L 975 2894 
Q 1175 3147 1334 3250 
Q 1606 3428 2013 3428 
Q 2741 3428 3000 2919 
Q 3141 2641 3141 2147 
L 3141 0 
L 2563 0 
L 2563 2109 
Q 2563 2478 2469 2650 
Q 2316 2925 1894 2925 
Q 1544 2925 1259 2684 
Q 975 2444 975 1775 
L 975 0 
L 413 0 
L 413 4606 
z
" transform="scale(0.015625)"/>
     <path id="Helvetica-39" d="M 850 1081 
Q 875 616 1209 438 
Q 1381 344 1597 344 
Q 2000 344 2284 680 
Q 2569 1016 2688 2044 
Q 2500 1747 2223 1626 
Q 1947 1506 1628 1506 
Q 981 1506 604 1909 
Q 228 2313 228 2947 
Q 228 3556 600 4018 
Q 972 4481 1697 4481 
Q 2675 4481 3047 3600 
Q 3253 3116 3253 2388 
Q 3253 1566 3006 931 
Q 2597 -125 1619 -125 
Q 963 -125 622 219 
Q 281 563 281 1081 
L 850 1081 
z
M 1703 2000 
Q 2038 2000 2314 2220 
Q 2591 2441 2591 2991 
Q 2591 3484 2342 3726 
Q 2094 3969 1709 3969 
Q 1297 3969 1055 3692 
Q 813 3416 813 2953 
Q 813 2516 1025 2258 
Q 1238 2000 1703 2000 
z
" transform="scale(0.015625)"/>
     <path id="Helvetica-29" d="M 222 -1306 
Q 719 -338 863 106 
Q 1081 778 1081 1681 
Q 1081 2584 828 3334 
Q 672 3797 213 4666 
L 591 4666 
Q 1072 3897 1173 3717 
Q 1275 3538 1394 3222 
Q 1544 2831 1608 2450 
Q 1672 2069 1672 1716 
Q 1672 791 1378 66 
Q 1194 -400 613 -1306 
L 222 -1306 
z
" transform="scale(0.015625)"/>
    </defs>
    <use xlink:href="#Helvetica-48"/>
    <use xlink:href="#Helvetica-6f" x="72.216797"/>
    <use xlink:href="#Helvetica-77" x="127.832031"/>
    <use xlink:href="#Helvetica-20" x="200.048828"/>
    <use xlink:href="#Helvetica-6d" x="227.832031"/>
    <use xlink:href="#Helvetica-61" x="311.132812"/>
    <use xlink:href="#Helvetica-6e" x="366.748047"/>
    <use xlink:href="#Helvetica-79" x="422.363281"/>
    <use xlink:href="#Helvetica-20" x="472.363281"/>
    <use xlink:href="#Helvetica-79" x="500.146484"/>
    <use xlink:href="#Helvetica-65" x="550.146484"/>
    <use xlink:href="#Helvetica-61" x="605.761719"/>
    <use xlink:href="#Helvetica-72" x="661.376953"/>
    <use xlink:href="#Helvetica-73" x="694.677734"/>
    <use xlink:href="#Helvetica-20" x="744.677734"/>
    <use xlink:href="#Helvetica-6f" x="772.460938"/>
    <use xlink:href="#Helvetica-66" x="828.076172"/>
    <use xlink:href="#Helvetica-20" x="855.859375"/>
    <use xlink:href="#Helvetica-73" x="883.642578"/>
    <use xlink:href="#Helvetica-6f" x="933.642578"/>
    <use xlink:href="#Helvetica-66" x="989.257812"/>
    <use xlink:href="#Helvetica-74" x="1017.041016"/>
    <use xlink:href="#Helvetica-77" x="1044.824219"/>
    <use xlink:href="#Helvetica-61" x="1117.041016"/>
    <use xlink:href="#Helvetica-72" x="1172.65625"/>
    <use xlink:href="#Helvetica-65" x="1205.957031"/>
    <use xlink:href="#Helvetica-20" x="1261.572266"/>
    <use xlink:href="#Helvetica-64" x="1289.355469"/>
    <use xlink:href="#Helvetica-65" x="1344.970703"/>
    <use xlink:href="#Helvetica-76" x="1400.585938"/>
    <use xlink:href="#Helvetica-65" x="1450.585938"/>
    <use xlink:href="#Helvetica-6c" x="1506.201172"/>
    <use xlink:href="#Helvetica-6f" x="1528.417969"/>
    <use xlink:href="#Helvetica-70" x="1584.033203"/>
    <use xlink:href="#Helvetica-6d" x="1639.648438"/>
    <use xlink:href="#Helvetica-65" x="1722.949219"/>
    <use xlink:href="#Helvetica-6e" x="1778.564453"/>
    <use xlink:href="#Helvetica-74" x="1834.179688"/>
    <use xlink:href="#Helvetica-20" x="1861.962891"/>
    <use xlink:href="#Helvetica-65" x="1889.746094"/>
    <use xlink:href="#Helvetica-78" x="1945.361328"/>
    <use xlink:href="#Helvetica-70" x="1995.361328"/>
    <use xlink:href="#Helvetica-65" x="2050.976562"/>
    <use xlink:href="#Helvetica-72" x="2106.591797"/>
    <use xlink:href="#Helvetica-69" x="2139.892578"/>
    <use xlink:href="#Helvetica-65" x="2162.109375"/>
    <use xlink:href="#Helvetica-6e" x="2217.724609"/>
    <use xlink:href="#Helvetica-63" x="2273.339844"/>
    <use xlink:href="#Helvetica-65" x="2323.339844"/>
    <use xlink:href="#Helvetica-20" x="2378.955078"/>
    <use xlink:href="#Helvetica-66" x="2406.738281"/>
    <use xlink:href="#Helvetica-6f" x="2434.521484"/>
    <use xlink:href="#Helvetica-72" x="2490.136719"/>
    <use xlink:href="#Helvetica-20" x="2523.4375"/>
    <use xlink:href="#Helvetica-43" x="2551.220703"/>
    <use xlink:href="#Helvetica-61" x="2623.4375"/>
    <use xlink:href="#Helvetica-6e" x="2679.052734"/>
    <use xlink:href="#Helvetica-61" x="2734.667969"/>
    <use xlink:href="#Helvetica-64" x="2790.283203"/>
    <use xlink:href="#Helvetica-61" x="2845.898438"/>
    <use xlink:href="#Helvetica-20" x="2901.513672"/>
    <use xlink:href="#Helvetica-28" x="2929.296875"/>
    <use xlink:href="#Helvetica-77" x="2962.597656"/>
    <use xlink:href="#Helvetica-69" x="3034.814453"/>
    <use xlink:href="#Helvetica-74" x="3057.03125"/>
    <use xlink:href="#Helvetica-68" x="3084.814453"/>
    <use xlink:href="#Helvetica-6f" x="3140.429688"/>
    <use xlink:href="#Helvetica-75" x="3196.044922"/>
    <use xlink:href="#Helvetica-74" x="3251.660156"/>
    <use xlink:href="#Helvetica-20" x="3279.443359"/>
    <use xlink:href="#Helvetica-39" x="3307.226562"/>
    <use xlink:href="#Helvetica-35" x="3362.841797"/>
    <use xlink:href="#Helvetica-20" x="3418.457031"/>
    <use xlink:href="#Helvetica-70" x="3446.240234"/>
    <use xlink:href="#Helvetica-65" x="3501.855469"/>
    <use xlink:href="#Helvetica-72" x="3557.470703"/>
    <use xlink:href="#Helvetica-63" x="3590.771484"/>
    <use xlink:href="#Helvetica-65" x="3640.771484"/>
    <use xlink:href="#Helvetica-6e" x="3696.386719"/>
    <use xlink:href="#Helvetica-74" x="3752.001953"/>
    <use xlink:href="#Helvetica-69" x="3779.785156"/>
    <use xlink:href="#Helvetica-6c" x="3802.001953"/>
    <use xlink:href="#Helvetica-65" x="3824.21875"/>
    <use xlink:href="#Helvetica-29" x="3879.833984"/>
   </g>
  </g>
 </g>
 <defs>
  <clipPath id="p52da6227e1">
   <rect x="52.28125" y="33.015" width="233.15" height="348.567812"/>
  </clipPath>
  <clipPath id="pf816fee862">
   <rect x="332.05" y="33.015" width="233.15" height="348.567812"/>
  </clipPath>
 </defs>
</svg>
