<?xml version="1.0" encoding="utf-8" standalone="no"?>
<!DOCTYPE svg PUBLIC "-//W3C//DTD SVG 1.1//EN"
  "http://www.w3.org/Graphics/SVG/1.1/DTD/svg11.dtd">
<svg xmlns:xlink="http://www.w3.org/1999/xlink" width="576pt" height="432pt" viewBox="0 0 576 432" xmlns="http://www.w3.org/2000/svg" version="1.1">
 <metadata>
  <rdf:RDF xmlns:dc="http://purl.org/dc/elements/1.1/" xmlns:cc="http://creativecommons.org/ns#" xmlns:rdf="http://www.w3.org/1999/02/22-rdf-syntax-ns#">
   <cc:Work>
    <dc:type rdf:resource="http://purl.org/dc/dcmitype/StillImage"/>
    <dc:date>2022-05-19T12:27:06.026831</dc:date>
    <dc:format>image/svg+xml</dc:format>
    <dc:creator>
     <cc:Agent>
      <dc:title>Matplotlib v3.5.1, https://matplotlib.org/</dc:title>
     </cc:Agent>
    </dc:creator>
   </cc:Work>
  </rdf:RDF>
 </metadata>
 <defs>
  <style type="text/css">*{stroke-linejoin: round; stroke-linecap: butt}</style>
 </defs>
 <g id="figure_1">
  <g id="patch_1">
   <path d="M 0 432 
L 576 432 
L 576 0 
L 0 0 
z
" style="fill: #ffffff"/>
  </g>
  <g id="axes_1">
   <g id="patch_2">
    <path d="M 52.179688 381.684375 
L 278.430469 381.684375 
L 278.430469 32.92125 
L 52.179688 32.92125 
z
" style="fill: #ffffff"/>
   </g>
   <g id="patch_3">
    <path d="M 63.492227 309.214115 
L 153.992539 309.214115 
L 153.992539 139.361944 
L 63.492227 139.361944 
L 63.492227 309.214115 
z
" clip-path="url(#pf915be2ce2)" style="fill: #3274a1; stroke: #3f3f3f; stroke-width: 1.5; stroke-linejoin: miter"/>
   </g>
   <g id="patch_4">
    <path d="M 176.617617 329.030202 
L 267.11793 329.030202 
L 267.11793 266.751072 
L 176.617617 266.751072 
L 176.617617 329.030202 
z
" clip-path="url(#pf915be2ce2)" style="fill: #e1812c; stroke: #3f3f3f; stroke-width: 1.5; stroke-linejoin: miter"/>
   </g>
   <g id="matplotlib.axis_1">
    <g id="xtick_1">
     <g id="line2d_1">
      <defs>
       <path id="m4c99cd72f3" d="M 0 0 
L 0 3.5 
" style="stroke: #000000; stroke-width: 0.8"/>
      </defs>
      <g>
       <use xlink:href="#m4c99cd72f3" x="108.742383" y="391.684375" style="stroke: #000000; stroke-width: 0.8"/>
      </g>
     </g>
     <g id="text_1">
      <!-- 2018 -->
      <g transform="translate(97.620508 405.857813)scale(0.1 -0.1)">
       <defs>
        <path id="Helvetica-32" d="M 200 0 
Q 231 578 439 1006 
Q 647 1434 1250 1784 
L 1850 2131 
Q 2253 2366 2416 2531 
Q 2672 2791 2672 3125 
Q 2672 3516 2437 3745 
Q 2203 3975 1813 3975 
Q 1234 3975 1013 3538 
Q 894 3303 881 2888 
L 309 2888 
Q 319 3472 525 3841 
Q 891 4491 1816 4491 
Q 2584 4491 2939 4075 
Q 3294 3659 3294 3150 
Q 3294 2613 2916 2231 
Q 2697 2009 2131 1694 
L 1703 1456 
Q 1397 1288 1222 1134 
Q 909 863 828 531 
L 3272 531 
L 3272 0 
L 200 0 
z
" transform="scale(0.015625)"/>
        <path id="Helvetica-30" d="M 1731 4475 
Q 2600 4475 2988 3759 
Q 3288 3206 3288 2244 
Q 3288 1331 3016 734 
Q 2622 -122 1728 -122 
Q 922 -122 528 578 
Q 200 1163 200 2147 
Q 200 2909 397 3456 
Q 766 4475 1731 4475 
z
M 1725 391 
Q 2163 391 2422 778 
Q 2681 1166 2681 2222 
Q 2681 2984 2493 3476 
Q 2306 3969 1766 3969 
Q 1269 3969 1039 3501 
Q 809 3034 809 2125 
Q 809 1441 956 1025 
Q 1181 391 1725 391 
z
" transform="scale(0.015625)"/>
        <path id="Helvetica-31" d="M 613 3169 
L 613 3600 
Q 1222 3659 1462 3798 
Q 1703 3938 1822 4456 
L 2266 4456 
L 2266 0 
L 1666 0 
L 1666 3169 
L 613 3169 
z
" transform="scale(0.015625)"/>
        <path id="Helvetica-38" d="M 1741 2600 
Q 2113 2600 2322 2808 
Q 2531 3016 2531 3303 
Q 2531 3553 2331 3762 
Q 2131 3972 1722 3972 
Q 1316 3972 1134 3762 
Q 953 3553 953 3272 
Q 953 2956 1187 2778 
Q 1422 2600 1741 2600 
z
M 1775 384 
Q 2166 384 2423 595 
Q 2681 806 2681 1225 
Q 2681 1659 2415 1884 
Q 2150 2109 1734 2109 
Q 1331 2109 1076 1879 
Q 822 1650 822 1244 
Q 822 894 1055 639 
Q 1288 384 1775 384 
z
M 975 2384 
Q 741 2484 609 2619 
Q 363 2869 363 3269 
Q 363 3769 725 4128 
Q 1088 4488 1753 4488 
Q 2397 4488 2762 4148 
Q 3128 3809 3128 3356 
Q 3128 2938 2916 2678 
Q 2797 2531 2547 2391 
Q 2825 2263 2984 2097 
Q 3281 1784 3281 1284 
Q 3281 694 2884 283 
Q 2488 -128 1763 -128 
Q 1109 -128 657 226 
Q 206 581 206 1256 
Q 206 1653 400 1942 
Q 594 2231 975 2384 
z
" transform="scale(0.015625)"/>
       </defs>
       <use xlink:href="#Helvetica-32"/>
       <use xlink:href="#Helvetica-30" x="55.615234"/>
       <use xlink:href="#Helvetica-31" x="111.230469"/>
       <use xlink:href="#Helvetica-38" x="166.845703"/>
      </g>
     </g>
    </g>
    <g id="xtick_2">
     <g id="line2d_2">
      <g>
       <use xlink:href="#m4c99cd72f3" x="221.867773" y="391.684375" style="stroke: #000000; stroke-width: 0.8"/>
      </g>
     </g>
     <g id="text_2">
      <!-- 2022 -->
      <g transform="translate(210.745898 405.857813)scale(0.1 -0.1)">
       <use xlink:href="#Helvetica-32"/>
       <use xlink:href="#Helvetica-30" x="55.615234"/>
       <use xlink:href="#Helvetica-32" x="111.230469"/>
       <use xlink:href="#Helvetica-32" x="166.845703"/>
      </g>
     </g>
    </g>
    <g id="text_3">
     <!-- Year -->
     <g transform="translate(154.744141 419.115625)scale(0.1 -0.1)">
      <defs>
       <path id="Helvetica-59" d="M 131 4591 
L 856 4591 
L 2175 2384 
L 3494 4591 
L 4222 4591 
L 2488 1850 
L 2488 0 
L 1866 0 
L 1866 1850 
L 131 4591 
z
M 2184 4591 
L 2184 4591 
z
" transform="scale(0.015625)"/>
       <path id="Helvetica-65" d="M 1806 3422 
Q 2163 3422 2497 3255 
Q 2831 3088 3006 2822 
Q 3175 2569 3231 2231 
Q 3281 2000 3281 1494 
L 828 1494 
Q 844 984 1069 676 
Q 1294 369 1766 369 
Q 2206 369 2469 659 
Q 2619 828 2681 1050 
L 3234 1050 
Q 3213 866 3089 639 
Q 2966 413 2813 269 
Q 2556 19 2178 -69 
Q 1975 -119 1719 -119 
Q 1094 -119 659 336 
Q 225 791 225 1609 
Q 225 2416 662 2919 
Q 1100 3422 1806 3422 
z
M 2703 1941 
Q 2669 2306 2544 2525 
Q 2313 2931 1772 2931 
Q 1384 2931 1121 2651 
Q 859 2372 844 1941 
L 2703 1941 
z
M 1753 3428 
L 1753 3428 
z
" transform="scale(0.015625)"/>
       <path id="Helvetica-61" d="M 844 891 
Q 844 647 1022 506 
Q 1200 366 1444 366 
Q 1741 366 2019 503 
Q 2488 731 2488 1250 
L 2488 1703 
Q 2384 1638 2221 1594 
Q 2059 1550 1903 1531 
L 1563 1488 
Q 1256 1447 1103 1359 
Q 844 1213 844 891 
z
M 2206 2028 
Q 2400 2053 2466 2191 
Q 2503 2266 2503 2406 
Q 2503 2694 2298 2823 
Q 2094 2953 1713 2953 
Q 1272 2953 1088 2716 
Q 984 2584 953 2325 
L 428 2325 
Q 444 2944 830 3186 
Q 1216 3428 1725 3428 
Q 2316 3428 2684 3203 
Q 3050 2978 3050 2503 
L 3050 575 
Q 3050 488 3086 434 
Q 3122 381 3238 381 
Q 3275 381 3322 386 
Q 3369 391 3422 400 
L 3422 -16 
Q 3291 -53 3222 -62 
Q 3153 -72 3034 -72 
Q 2744 -72 2613 134 
Q 2544 244 2516 444 
Q 2344 219 2022 53 
Q 1700 -113 1313 -113 
Q 847 -113 551 170 
Q 256 453 256 878 
Q 256 1344 547 1600 
Q 838 1856 1309 1916 
L 2206 2028 
z
M 1741 3428 
L 1741 3428 
z
" transform="scale(0.015625)"/>
       <path id="Helvetica-72" d="M 428 3347 
L 963 3347 
L 963 2769 
Q 1028 2938 1284 3180 
Q 1541 3422 1875 3422 
Q 1891 3422 1928 3419 
Q 1966 3416 2056 3406 
L 2056 2813 
Q 2006 2822 1964 2825 
Q 1922 2828 1872 2828 
Q 1447 2828 1219 2554 
Q 991 2281 991 1925 
L 991 0 
L 428 0 
L 428 3347 
z
" transform="scale(0.015625)"/>
      </defs>
      <use xlink:href="#Helvetica-59"/>
      <use xlink:href="#Helvetica-65" x="66.699219"/>
      <use xlink:href="#Helvetica-61" x="122.314453"/>
      <use xlink:href="#Helvetica-72" x="177.929688"/>
     </g>
    </g>
   </g>
   <g id="matplotlib.axis_2">
    <g id="ytick_1">
     <g id="line2d_3">
      <defs>
       <path id="m8e343aef83" d="M 0 0 
L -3.5 0 
" style="stroke: #000000; stroke-width: 0.8"/>
      </defs>
      <g>
       <use xlink:href="#m8e343aef83" x="42.179688" y="365.831506" style="stroke: #000000; stroke-width: 0.8"/>
      </g>
     </g>
     <g id="text_4">
      <!-- 0 -->
      <g transform="translate(29.61875 369.418224)scale(0.1 -0.1)">
       <use xlink:href="#Helvetica-30"/>
      </g>
     </g>
    </g>
    <g id="ytick_2">
     <g id="line2d_4">
      <g>
       <use xlink:href="#m8e343aef83" x="42.179688" y="309.214115" style="stroke: #000000; stroke-width: 0.8"/>
      </g>
     </g>
     <g id="text_5">
      <!-- 5 -->
      <g transform="translate(29.61875 312.800834)scale(0.1 -0.1)">
       <defs>
        <path id="Helvetica-35" d="M 791 1141 
Q 847 659 1238 475 
Q 1438 381 1700 381 
Q 2200 381 2440 700 
Q 2681 1019 2681 1406 
Q 2681 1875 2395 2131 
Q 2109 2388 1709 2388 
Q 1419 2388 1211 2275 
Q 1003 2163 856 1963 
L 369 1991 
L 709 4400 
L 3034 4400 
L 3034 3856 
L 1131 3856 
L 941 2613 
Q 1097 2731 1238 2791 
Q 1488 2894 1816 2894 
Q 2431 2894 2859 2497 
Q 3288 2100 3288 1491 
Q 3288 856 2895 371 
Q 2503 -113 1644 -113 
Q 1097 -113 676 195 
Q 256 503 206 1141 
L 791 1141 
z
" transform="scale(0.015625)"/>
       </defs>
       <use xlink:href="#Helvetica-35"/>
      </g>
     </g>
    </g>
    <g id="ytick_3">
     <g id="line2d_5">
      <g>
       <use xlink:href="#m8e343aef83" x="42.179688" y="252.596725" style="stroke: #000000; stroke-width: 0.8"/>
      </g>
     </g>
     <g id="text_6">
      <!-- 10 -->
      <g transform="translate(24.057813 256.183444)scale(0.1 -0.1)">
       <use xlink:href="#Helvetica-31"/>
       <use xlink:href="#Helvetica-30" x="55.615234"/>
      </g>
     </g>
    </g>
    <g id="ytick_4">
     <g id="line2d_6">
      <g>
       <use xlink:href="#m8e343aef83" x="42.179688" y="195.979334" style="stroke: #000000; stroke-width: 0.8"/>
      </g>
     </g>
     <g id="text_7">
      <!-- 15 -->
      <g transform="translate(24.057813 199.566053)scale(0.1 -0.1)">
       <use xlink:href="#Helvetica-31"/>
       <use xlink:href="#Helvetica-35" x="55.615234"/>
      </g>
     </g>
    </g>
    <g id="ytick_5">
     <g id="line2d_7">
      <g>
       <use xlink:href="#m8e343aef83" x="42.179688" y="139.361944" style="stroke: #000000; stroke-width: 0.8"/>
      </g>
     </g>
     <g id="text_8">
      <!-- 20 -->
      <g transform="translate(24.057813 142.948663)scale(0.1 -0.1)">
       <use xlink:href="#Helvetica-32"/>
       <use xlink:href="#Helvetica-30" x="55.615234"/>
      </g>
     </g>
    </g>
    <g id="ytick_6">
     <g id="line2d_8">
      <g>
       <use xlink:href="#m8e343aef83" x="42.179688" y="82.744554" style="stroke: #000000; stroke-width: 0.8"/>
      </g>
     </g>
     <g id="text_9">
      <!-- 25 -->
      <g transform="translate(24.057813 86.331272)scale(0.1 -0.1)">
       <use xlink:href="#Helvetica-32"/>
       <use xlink:href="#Helvetica-35" x="55.615234"/>
      </g>
     </g>
    </g>
    <g id="text_10">
     <!-- Value -->
     <g transform="translate(17.973438 220.090313)rotate(-90)scale(0.1 -0.1)">
      <defs>
       <path id="Helvetica-56" d="M 850 4591 
L 2169 681 
L 3472 4591 
L 4169 4591 
L 2494 0 
L 1834 0 
L 163 4591 
L 850 4591 
z
" transform="scale(0.015625)"/>
       <path id="Helvetica-6c" d="M 428 4591 
L 991 4591 
L 991 0 
L 428 0 
L 428 4591 
z
" transform="scale(0.015625)"/>
       <path id="Helvetica-75" d="M 975 3347 
L 975 1125 
Q 975 869 1056 706 
Q 1206 406 1616 406 
Q 2203 406 2416 931 
Q 2531 1213 2531 1703 
L 2531 3347 
L 3094 3347 
L 3094 0 
L 2563 0 
L 2569 494 
Q 2459 303 2297 172 
Q 1975 -91 1516 -91 
Q 800 -91 541 388 
Q 400 644 400 1072 
L 400 3347 
L 975 3347 
z
M 1747 3428 
L 1747 3428 
z
" transform="scale(0.015625)"/>
      </defs>
      <use xlink:href="#Helvetica-56"/>
      <use xlink:href="#Helvetica-61" x="66.699219"/>
      <use xlink:href="#Helvetica-6c" x="122.314453"/>
      <use xlink:href="#Helvetica-75" x="144.53125"/>
      <use xlink:href="#Helvetica-65" x="200.146484"/>
     </g>
    </g>
   </g>
   <g id="line2d_9">
    <path d="M 108.742383 309.214115 
L 108.742383 365.831506 
" clip-path="url(#pf915be2ce2)" style="fill: none; stroke: #3f3f3f; stroke-width: 1.5; stroke-linecap: square"/>
   </g>
   <g id="line2d_10">
    <path d="M 108.742383 139.361944 
L 108.742383 48.774119 
" clip-path="url(#pf915be2ce2)" style="fill: none; stroke: #3f3f3f; stroke-width: 1.5; stroke-linecap: square"/>
   </g>
   <g id="line2d_11">
    <path d="M 86.117305 365.831506 
L 131.367461 365.831506 
" clip-path="url(#pf915be2ce2)" style="fill: none; stroke: #3f3f3f; stroke-width: 1.5; stroke-linecap: square"/>
   </g>
   <g id="line2d_12">
    <path d="M 86.117305 48.774119 
L 131.367461 48.774119 
" clip-path="url(#pf915be2ce2)" style="fill: none; stroke: #3f3f3f; stroke-width: 1.5; stroke-linecap: square"/>
   </g>
   <g id="line2d_13"/>
   <g id="line2d_14">
    <path d="M 221.867773 329.030202 
L 221.867773 343.18455 
" clip-path="url(#pf915be2ce2)" style="fill: none; stroke: #3f3f3f; stroke-width: 1.5; stroke-linecap: square"/>
   </g>
   <g id="line2d_15">
    <path d="M 221.867773 266.751072 
L 221.867773 229.949769 
" clip-path="url(#pf915be2ce2)" style="fill: none; stroke: #3f3f3f; stroke-width: 1.5; stroke-linecap: square"/>
   </g>
   <g id="line2d_16">
    <path d="M 199.242695 343.18455 
L 244.492852 343.18455 
" clip-path="url(#pf915be2ce2)" style="fill: none; stroke: #3f3f3f; stroke-width: 1.5; stroke-linecap: square"/>
   </g>
   <g id="line2d_17">
    <path d="M 199.242695 229.949769 
L 244.492852 229.949769 
" clip-path="url(#pf915be2ce2)" style="fill: none; stroke: #3f3f3f; stroke-width: 1.5; stroke-linecap: square"/>
   </g>
   <g id="line2d_18"/>
   <g id="line2d_19">
    <path d="M 63.492227 252.596725 
L 153.992539 252.596725 
" clip-path="url(#pf915be2ce2)" style="fill: none; stroke: #3f3f3f; stroke-width: 1.5; stroke-linecap: square"/>
   </g>
   <g id="line2d_20">
    <path d="M 176.617617 309.214115 
L 267.11793 309.214115 
" clip-path="url(#pf915be2ce2)" style="fill: none; stroke: #3f3f3f; stroke-width: 1.5; stroke-linecap: square"/>
   </g>
   <g id="patch_5">
    <path d="M 42.179688 365.831506 
L 42.179688 82.744554 
" style="fill: none; stroke: #000000; stroke-width: 0.8; stroke-linejoin: miter; stroke-linecap: square"/>
   </g>
   <g id="patch_6">
    <path d="M 108.742383 391.684375 
L 221.867773 391.684375 
" style="fill: none; stroke: #000000; stroke-width: 0.8; stroke-linejoin: miter; stroke-linecap: square"/>
   </g>
   <g id="PathCollection_1">
    <defs>
     <path id="C0_0_77057b9605" d="M 0 2.5 
C 0.663008 2.5 1.29895 2.236584 1.767767 1.767767 
C 2.236584 1.29895 2.5 0.663008 2.5 -0 
C 2.5 -0.663008 2.236584 -1.29895 1.767767 -1.767767 
C 1.29895 -2.236584 0.663008 -2.5 0 -2.5 
C -0.663008 -2.5 -1.29895 -2.236584 -1.767767 -1.767767 
C -2.236584 -1.29895 -2.5 -0.663008 -2.5 0 
C -2.5 0.663008 -2.236584 1.29895 -1.767767 1.767767 
C -1.29895 2.236584 -0.663008 2.5 0 2.5 
z
"/>
    </defs>
    <g clip-path="url(#pf915be2ce2)">
     <use xlink:href="#C0_0_77057b9605" x="108.742383" y="365.831506" style="fill: #808080; fill-opacity: 0.75"/>
    </g>
    <g clip-path="url(#pf915be2ce2)">
     <use xlink:href="#C0_0_77057b9605" x="104.28379" y="362.434462" style="fill: #808080; fill-opacity: 0.75"/>
    </g>
    <g clip-path="url(#pf915be2ce2)">
     <use xlink:href="#C0_0_77057b9605" x="109.563299" y="360.169767" style="fill: #808080; fill-opacity: 0.75"/>
    </g>
    <g clip-path="url(#pf915be2ce2)">
     <use xlink:href="#C0_0_77057b9605" x="108.742383" y="354.508028" style="fill: #808080; fill-opacity: 0.75"/>
    </g>
    <g clip-path="url(#pf915be2ce2)">
     <use xlink:href="#C0_0_77057b9605" x="102.888448" y="354.508028" style="fill: #808080; fill-opacity: 0.75"/>
    </g>
    <g clip-path="url(#pf915be2ce2)">
     <use xlink:href="#C0_0_77057b9605" x="114.596318" y="354.508028" style="fill: #808080; fill-opacity: 0.75"/>
    </g>
    <g clip-path="url(#pf915be2ce2)">
     <use xlink:href="#C0_0_77057b9605" x="97.034513" y="354.508028" style="fill: #808080; fill-opacity: 0.75"/>
    </g>
    <g clip-path="url(#pf915be2ce2)">
     <use xlink:href="#C0_0_77057b9605" x="108.742383" y="343.18455" style="fill: #808080; fill-opacity: 0.75"/>
    </g>
    <g clip-path="url(#pf915be2ce2)">
     <use xlink:href="#C0_0_77057b9605" x="102.888448" y="343.18455" style="fill: #808080; fill-opacity: 0.75"/>
    </g>
    <g clip-path="url(#pf915be2ce2)">
     <use xlink:href="#C0_0_77057b9605" x="114.596318" y="343.18455" style="fill: #808080; fill-opacity: 0.75"/>
    </g>
    <g clip-path="url(#pf915be2ce2)">
     <use xlink:href="#C0_0_77057b9605" x="97.034513" y="343.18455" style="fill: #808080; fill-opacity: 0.75"/>
    </g>
    <g clip-path="url(#pf915be2ce2)">
     <use xlink:href="#C0_0_77057b9605" x="120.450253" y="343.18455" style="fill: #808080; fill-opacity: 0.75"/>
    </g>
    <g clip-path="url(#pf915be2ce2)">
     <use xlink:href="#C0_0_77057b9605" x="91.180578" y="343.18455" style="fill: #808080; fill-opacity: 0.75"/>
    </g>
    <g clip-path="url(#pf915be2ce2)">
     <use xlink:href="#C0_0_77057b9605" x="126.304187" y="343.18455" style="fill: #808080; fill-opacity: 0.75"/>
    </g>
    <g clip-path="url(#pf915be2ce2)">
     <use xlink:href="#C0_0_77057b9605" x="108.742383" y="331.861071" style="fill: #808080; fill-opacity: 0.75"/>
    </g>
    <g clip-path="url(#pf915be2ce2)">
     <use xlink:href="#C0_0_77057b9605" x="102.888448" y="331.861071" style="fill: #808080; fill-opacity: 0.75"/>
    </g>
    <g clip-path="url(#pf915be2ce2)">
     <use xlink:href="#C0_0_77057b9605" x="108.742383" y="320.537593" style="fill: #808080; fill-opacity: 0.75"/>
    </g>
    <g clip-path="url(#pf915be2ce2)">
     <use xlink:href="#C0_0_77057b9605" x="102.888448" y="320.537593" style="fill: #808080; fill-opacity: 0.75"/>
    </g>
    <g clip-path="url(#pf915be2ce2)">
     <use xlink:href="#C0_0_77057b9605" x="108.742383" y="309.214115" style="fill: #808080; fill-opacity: 0.75"/>
    </g>
    <g clip-path="url(#pf915be2ce2)">
     <use xlink:href="#C0_0_77057b9605" x="102.888448" y="309.214115" style="fill: #808080; fill-opacity: 0.75"/>
    </g>
    <g clip-path="url(#pf915be2ce2)">
     <use xlink:href="#C0_0_77057b9605" x="114.596318" y="309.214115" style="fill: #808080; fill-opacity: 0.75"/>
    </g>
    <g clip-path="url(#pf915be2ce2)">
     <use xlink:href="#C0_0_77057b9605" x="97.034513" y="309.214115" style="fill: #808080; fill-opacity: 0.75"/>
    </g>
    <g clip-path="url(#pf915be2ce2)">
     <use xlink:href="#C0_0_77057b9605" x="120.450253" y="309.214115" style="fill: #808080; fill-opacity: 0.75"/>
    </g>
    <g clip-path="url(#pf915be2ce2)">
     <use xlink:href="#C0_0_77057b9605" x="91.180578" y="309.214115" style="fill: #808080; fill-opacity: 0.75"/>
    </g>
    <g clip-path="url(#pf915be2ce2)">
     <use xlink:href="#C0_0_77057b9605" x="126.304187" y="309.214115" style="fill: #808080; fill-opacity: 0.75"/>
    </g>
    <g clip-path="url(#pf915be2ce2)">
     <use xlink:href="#C0_0_77057b9605" x="85.326643" y="309.214115" style="fill: #808080; fill-opacity: 0.75"/>
    </g>
    <g clip-path="url(#pf915be2ce2)">
     <use xlink:href="#C0_0_77057b9605" x="108.742383" y="297.890637" style="fill: #808080; fill-opacity: 0.75"/>
    </g>
    <g clip-path="url(#pf915be2ce2)">
     <use xlink:href="#C0_0_77057b9605" x="102.888448" y="297.890637" style="fill: #808080; fill-opacity: 0.75"/>
    </g>
    <g clip-path="url(#pf915be2ce2)">
     <use xlink:href="#C0_0_77057b9605" x="108.742383" y="286.567159" style="fill: #808080; fill-opacity: 0.75"/>
    </g>
    <g clip-path="url(#pf915be2ce2)">
     <use xlink:href="#C0_0_77057b9605" x="102.888448" y="286.567159" style="fill: #808080; fill-opacity: 0.75"/>
    </g>
    <g clip-path="url(#pf915be2ce2)">
     <use xlink:href="#C0_0_77057b9605" x="108.742383" y="275.243681" style="fill: #808080; fill-opacity: 0.75"/>
    </g>
    <g clip-path="url(#pf915be2ce2)">
     <use xlink:href="#C0_0_77057b9605" x="102.888448" y="275.243681" style="fill: #808080; fill-opacity: 0.75"/>
    </g>
    <g clip-path="url(#pf915be2ce2)">
     <use xlink:href="#C0_0_77057b9605" x="114.596318" y="275.243681" style="fill: #808080; fill-opacity: 0.75"/>
    </g>
    <g clip-path="url(#pf915be2ce2)">
     <use xlink:href="#C0_0_77057b9605" x="108.742383" y="263.920203" style="fill: #808080; fill-opacity: 0.75"/>
    </g>
    <g clip-path="url(#pf915be2ce2)">
     <use xlink:href="#C0_0_77057b9605" x="102.888448" y="263.920203" style="fill: #808080; fill-opacity: 0.75"/>
    </g>
    <g clip-path="url(#pf915be2ce2)">
     <use xlink:href="#C0_0_77057b9605" x="114.596318" y="263.920203" style="fill: #808080; fill-opacity: 0.75"/>
    </g>
    <g clip-path="url(#pf915be2ce2)">
     <use xlink:href="#C0_0_77057b9605" x="108.742383" y="252.596725" style="fill: #808080; fill-opacity: 0.75"/>
    </g>
    <g clip-path="url(#pf915be2ce2)">
     <use xlink:href="#C0_0_77057b9605" x="102.888448" y="252.596725" style="fill: #808080; fill-opacity: 0.75"/>
    </g>
    <g clip-path="url(#pf915be2ce2)">
     <use xlink:href="#C0_0_77057b9605" x="114.596318" y="252.596725" style="fill: #808080; fill-opacity: 0.75"/>
    </g>
    <g clip-path="url(#pf915be2ce2)">
     <use xlink:href="#C0_0_77057b9605" x="97.034513" y="252.596725" style="fill: #808080; fill-opacity: 0.75"/>
    </g>
    <g clip-path="url(#pf915be2ce2)">
     <use xlink:href="#C0_0_77057b9605" x="120.450253" y="252.596725" style="fill: #808080; fill-opacity: 0.75"/>
    </g>
    <g clip-path="url(#pf915be2ce2)">
     <use xlink:href="#C0_0_77057b9605" x="91.180578" y="252.596725" style="fill: #808080; fill-opacity: 0.75"/>
    </g>
    <g clip-path="url(#pf915be2ce2)">
     <use xlink:href="#C0_0_77057b9605" x="126.304187" y="252.596725" style="fill: #808080; fill-opacity: 0.75"/>
    </g>
    <g clip-path="url(#pf915be2ce2)">
     <use xlink:href="#C0_0_77057b9605" x="85.326643" y="252.596725" style="fill: #808080; fill-opacity: 0.75"/>
    </g>
    <g clip-path="url(#pf915be2ce2)">
     <use xlink:href="#C0_0_77057b9605" x="132.158122" y="252.596725" style="fill: #808080; fill-opacity: 0.75"/>
    </g>
    <g clip-path="url(#pf915be2ce2)">
     <use xlink:href="#C0_0_77057b9605" x="79.472708" y="252.596725" style="fill: #808080; fill-opacity: 0.75"/>
    </g>
    <g clip-path="url(#pf915be2ce2)">
     <use xlink:href="#C0_0_77057b9605" x="138.012057" y="252.596725" style="fill: #808080; fill-opacity: 0.75"/>
    </g>
    <g clip-path="url(#pf915be2ce2)">
     <use xlink:href="#C0_0_77057b9605" x="143.865992" y="252.596725" style="fill: #808080; fill-opacity: 0.75"/>
    </g>
    <g clip-path="url(#pf915be2ce2)">
     <use xlink:href="#C0_0_77057b9605" x="108.742383" y="241.273247" style="fill: #808080; fill-opacity: 0.75"/>
    </g>
    <g clip-path="url(#pf915be2ce2)">
     <use xlink:href="#C0_0_77057b9605" x="102.888448" y="241.273247" style="fill: #808080; fill-opacity: 0.75"/>
    </g>
    <g clip-path="url(#pf915be2ce2)">
     <use xlink:href="#C0_0_77057b9605" x="108.742383" y="229.949769" style="fill: #808080; fill-opacity: 0.75"/>
    </g>
    <g clip-path="url(#pf915be2ce2)">
     <use xlink:href="#C0_0_77057b9605" x="102.888448" y="229.949769" style="fill: #808080; fill-opacity: 0.75"/>
    </g>
    <g clip-path="url(#pf915be2ce2)">
     <use xlink:href="#C0_0_77057b9605" x="114.596318" y="229.949769" style="fill: #808080; fill-opacity: 0.75"/>
    </g>
    <g clip-path="url(#pf915be2ce2)">
     <use xlink:href="#C0_0_77057b9605" x="108.742383" y="195.979334" style="fill: #808080; fill-opacity: 0.75"/>
    </g>
    <g clip-path="url(#pf915be2ce2)">
     <use xlink:href="#C0_0_77057b9605" x="102.888448" y="195.979334" style="fill: #808080; fill-opacity: 0.75"/>
    </g>
    <g clip-path="url(#pf915be2ce2)">
     <use xlink:href="#C0_0_77057b9605" x="114.596318" y="195.979334" style="fill: #808080; fill-opacity: 0.75"/>
    </g>
    <g clip-path="url(#pf915be2ce2)">
     <use xlink:href="#C0_0_77057b9605" x="97.034513" y="195.979334" style="fill: #808080; fill-opacity: 0.75"/>
    </g>
    <g clip-path="url(#pf915be2ce2)">
     <use xlink:href="#C0_0_77057b9605" x="108.742383" y="184.655856" style="fill: #808080; fill-opacity: 0.75"/>
    </g>
    <g clip-path="url(#pf915be2ce2)">
     <use xlink:href="#C0_0_77057b9605" x="108.742383" y="173.332378" style="fill: #808080; fill-opacity: 0.75"/>
    </g>
    <g clip-path="url(#pf915be2ce2)">
     <use xlink:href="#C0_0_77057b9605" x="102.888448" y="173.332378" style="fill: #808080; fill-opacity: 0.75"/>
    </g>
    <g clip-path="url(#pf915be2ce2)">
     <use xlink:href="#C0_0_77057b9605" x="108.742383" y="162.0089" style="fill: #808080; fill-opacity: 0.75"/>
    </g>
    <g clip-path="url(#pf915be2ce2)">
     <use xlink:href="#C0_0_77057b9605" x="102.888448" y="162.0089" style="fill: #808080; fill-opacity: 0.75"/>
    </g>
    <g clip-path="url(#pf915be2ce2)">
     <use xlink:href="#C0_0_77057b9605" x="114.596318" y="162.0089" style="fill: #808080; fill-opacity: 0.75"/>
    </g>
    <g clip-path="url(#pf915be2ce2)">
     <use xlink:href="#C0_0_77057b9605" x="108.742383" y="150.685422" style="fill: #808080; fill-opacity: 0.75"/>
    </g>
    <g clip-path="url(#pf915be2ce2)">
     <use xlink:href="#C0_0_77057b9605" x="108.742383" y="139.361944" style="fill: #808080; fill-opacity: 0.75"/>
    </g>
    <g clip-path="url(#pf915be2ce2)">
     <use xlink:href="#C0_0_77057b9605" x="102.888448" y="139.361944" style="fill: #808080; fill-opacity: 0.75"/>
    </g>
    <g clip-path="url(#pf915be2ce2)">
     <use xlink:href="#C0_0_77057b9605" x="114.596318" y="139.361944" style="fill: #808080; fill-opacity: 0.75"/>
    </g>
    <g clip-path="url(#pf915be2ce2)">
     <use xlink:href="#C0_0_77057b9605" x="97.034513" y="139.361944" style="fill: #808080; fill-opacity: 0.75"/>
    </g>
    <g clip-path="url(#pf915be2ce2)">
     <use xlink:href="#C0_0_77057b9605" x="120.450253" y="139.361944" style="fill: #808080; fill-opacity: 0.75"/>
    </g>
    <g clip-path="url(#pf915be2ce2)">
     <use xlink:href="#C0_0_77057b9605" x="91.180578" y="139.361944" style="fill: #808080; fill-opacity: 0.75"/>
    </g>
    <g clip-path="url(#pf915be2ce2)">
     <use xlink:href="#C0_0_77057b9605" x="126.304187" y="139.361944" style="fill: #808080; fill-opacity: 0.75"/>
    </g>
    <g clip-path="url(#pf915be2ce2)">
     <use xlink:href="#C0_0_77057b9605" x="85.326643" y="139.361944" style="fill: #808080; fill-opacity: 0.75"/>
    </g>
    <g clip-path="url(#pf915be2ce2)">
     <use xlink:href="#C0_0_77057b9605" x="132.158122" y="139.361944" style="fill: #808080; fill-opacity: 0.75"/>
    </g>
    <g clip-path="url(#pf915be2ce2)">
     <use xlink:href="#C0_0_77057b9605" x="79.472708" y="139.361944" style="fill: #808080; fill-opacity: 0.75"/>
    </g>
    <g clip-path="url(#pf915be2ce2)">
     <use xlink:href="#C0_0_77057b9605" x="138.012057" y="139.361944" style="fill: #808080; fill-opacity: 0.75"/>
    </g>
    <g clip-path="url(#pf915be2ce2)">
     <use xlink:href="#C0_0_77057b9605" x="143.865992" y="139.361944" style="fill: #808080; fill-opacity: 0.75"/>
    </g>
    <g clip-path="url(#pf915be2ce2)">
     <use xlink:href="#C0_0_77057b9605" x="108.742383" y="116.714988" style="fill: #808080; fill-opacity: 0.75"/>
    </g>
    <g clip-path="url(#pf915be2ce2)">
     <use xlink:href="#C0_0_77057b9605" x="102.888448" y="116.714988" style="fill: #808080; fill-opacity: 0.75"/>
    </g>
    <g clip-path="url(#pf915be2ce2)">
     <use xlink:href="#C0_0_77057b9605" x="114.596318" y="116.714988" style="fill: #808080; fill-opacity: 0.75"/>
    </g>
    <g clip-path="url(#pf915be2ce2)">
     <use xlink:href="#C0_0_77057b9605" x="108.742383" y="105.39151" style="fill: #808080; fill-opacity: 0.75"/>
    </g>
    <g clip-path="url(#pf915be2ce2)">
     <use xlink:href="#C0_0_77057b9605" x="108.742383" y="82.744554" style="fill: #808080; fill-opacity: 0.75"/>
    </g>
    <g clip-path="url(#pf915be2ce2)">
     <use xlink:href="#C0_0_77057b9605" x="102.888448" y="82.744554" style="fill: #808080; fill-opacity: 0.75"/>
    </g>
    <g clip-path="url(#pf915be2ce2)">
     <use xlink:href="#C0_0_77057b9605" x="114.596318" y="82.744554" style="fill: #808080; fill-opacity: 0.75"/>
    </g>
    <g clip-path="url(#pf915be2ce2)">
     <use xlink:href="#C0_0_77057b9605" x="97.034513" y="82.744554" style="fill: #808080; fill-opacity: 0.75"/>
    </g>
    <g clip-path="url(#pf915be2ce2)">
     <use xlink:href="#C0_0_77057b9605" x="120.450253" y="82.744554" style="fill: #808080; fill-opacity: 0.75"/>
    </g>
    <g clip-path="url(#pf915be2ce2)">
     <use xlink:href="#C0_0_77057b9605" x="91.180578" y="82.744554" style="fill: #808080; fill-opacity: 0.75"/>
    </g>
    <g clip-path="url(#pf915be2ce2)">
     <use xlink:href="#C0_0_77057b9605" x="126.304187" y="82.744554" style="fill: #808080; fill-opacity: 0.75"/>
    </g>
    <g clip-path="url(#pf915be2ce2)">
     <use xlink:href="#C0_0_77057b9605" x="108.742383" y="48.774119" style="fill: #808080; fill-opacity: 0.75"/>
    </g>
    <g clip-path="url(#pf915be2ce2)">
     <use xlink:href="#C0_0_77057b9605" x="102.888448" y="48.774119" style="fill: #808080; fill-opacity: 0.75"/>
    </g>
    <g clip-path="url(#pf915be2ce2)">
     <use xlink:href="#C0_0_77057b9605" x="114.596318" y="48.774119" style="fill: #808080; fill-opacity: 0.75"/>
    </g>
   </g>
   <g id="PathCollection_2">
    <defs>
     <path id="C1_0_77057b9605" d="M 0 2.5 
C 0.663008 2.5 1.29895 2.236584 1.767767 1.767767 
C 2.236584 1.29895 2.5 0.663008 2.5 -0 
C 2.5 -0.663008 2.236584 -1.29895 1.767767 -1.767767 
C 1.29895 -2.236584 0.663008 -2.5 0 -2.5 
C -0.663008 -2.5 -1.29895 -2.236584 -1.767767 -1.767767 
C -2.236584 -1.29895 -2.5 -0.663008 -2.5 0 
C -2.5 0.663008 -2.236584 1.29895 -1.767767 1.767767 
C -1.29895 2.236584 -0.663008 2.5 0 2.5 
z
"/>
    </defs>
    <g clip-path="url(#pf915be2ce2)">
     <use xlink:href="#C1_0_77057b9605" x="221.867773" y="343.18455" style="fill: #808080; fill-opacity: 0.75"/>
    </g>
    <g clip-path="url(#pf915be2ce2)">
     <use xlink:href="#C1_0_77057b9605" x="216.013839" y="343.18455" style="fill: #808080; fill-opacity: 0.75"/>
    </g>
    <g clip-path="url(#pf915be2ce2)">
     <use xlink:href="#C1_0_77057b9605" x="221.867773" y="331.861071" style="fill: #808080; fill-opacity: 0.75"/>
    </g>
    <g clip-path="url(#pf915be2ce2)">
     <use xlink:href="#C1_0_77057b9605" x="216.013839" y="331.861071" style="fill: #808080; fill-opacity: 0.75"/>
    </g>
    <g clip-path="url(#pf915be2ce2)">
     <use xlink:href="#C1_0_77057b9605" x="227.721708" y="331.861071" style="fill: #808080; fill-opacity: 0.75"/>
    </g>
    <g clip-path="url(#pf915be2ce2)">
     <use xlink:href="#C1_0_77057b9605" x="221.867773" y="320.537593" style="fill: #808080; fill-opacity: 0.75"/>
    </g>
    <g clip-path="url(#pf915be2ce2)">
     <use xlink:href="#C1_0_77057b9605" x="216.013839" y="320.537593" style="fill: #808080; fill-opacity: 0.75"/>
    </g>
    <g clip-path="url(#pf915be2ce2)">
     <use xlink:href="#C1_0_77057b9605" x="221.867773" y="309.214115" style="fill: #808080; fill-opacity: 0.75"/>
    </g>
    <g clip-path="url(#pf915be2ce2)">
     <use xlink:href="#C1_0_77057b9605" x="216.013839" y="309.214115" style="fill: #808080; fill-opacity: 0.75"/>
    </g>
    <g clip-path="url(#pf915be2ce2)">
     <use xlink:href="#C1_0_77057b9605" x="227.721708" y="309.214115" style="fill: #808080; fill-opacity: 0.75"/>
    </g>
    <g clip-path="url(#pf915be2ce2)">
     <use xlink:href="#C1_0_77057b9605" x="210.159904" y="309.214115" style="fill: #808080; fill-opacity: 0.75"/>
    </g>
    <g clip-path="url(#pf915be2ce2)">
     <use xlink:href="#C1_0_77057b9605" x="221.867773" y="297.890637" style="fill: #808080; fill-opacity: 0.75"/>
    </g>
    <g clip-path="url(#pf915be2ce2)">
     <use xlink:href="#C1_0_77057b9605" x="221.867773" y="275.243681" style="fill: #808080; fill-opacity: 0.75"/>
    </g>
    <g clip-path="url(#pf915be2ce2)">
     <use xlink:href="#C1_0_77057b9605" x="221.867773" y="263.920203" style="fill: #808080; fill-opacity: 0.75"/>
    </g>
    <g clip-path="url(#pf915be2ce2)">
     <use xlink:href="#C1_0_77057b9605" x="221.867773" y="252.596725" style="fill: #808080; fill-opacity: 0.75"/>
    </g>
    <g clip-path="url(#pf915be2ce2)">
     <use xlink:href="#C1_0_77057b9605" x="216.013839" y="252.596725" style="fill: #808080; fill-opacity: 0.75"/>
    </g>
    <g clip-path="url(#pf915be2ce2)">
     <use xlink:href="#C1_0_77057b9605" x="221.867773" y="241.273247" style="fill: #808080; fill-opacity: 0.75"/>
    </g>
    <g clip-path="url(#pf915be2ce2)">
     <use xlink:href="#C1_0_77057b9605" x="221.867773" y="229.949769" style="fill: #808080; fill-opacity: 0.75"/>
    </g>
   </g>
  </g>
  <g id="axes_2">
   <g id="patch_7">
    <path d="M 338.949219 381.684375 
L 565.2 381.684375 
L 565.2 32.92125 
L 338.949219 32.92125 
z
" style="fill: #ffffff"/>
   </g>
   <g id="patch_8">
    <path d="M 362.088503 381.684375 
L 374.943661 381.684375 
L 374.943661 298.645536 
L 362.088503 298.645536 
z
" clip-path="url(#p0fe1d24800)" style="fill: #2d1e3e; fill-opacity: 0.5; stroke: #000000; stroke-linejoin: miter"/>
   </g>
   <g id="patch_9">
    <path d="M 387.798819 381.684375 
L 400.653977 381.684375 
L 400.653977 265.43 
L 387.798819 265.43 
z
" clip-path="url(#p0fe1d24800)" style="fill: #2d1e3e; fill-opacity: 0.5; stroke: #000000; stroke-linejoin: miter"/>
   </g>
   <g id="patch_10">
    <path d="M 413.509135 381.684375 
L 426.364293 381.684375 
L 426.364293 315.253304 
L 413.509135 315.253304 
z
" clip-path="url(#p0fe1d24800)" style="fill: #2d1e3e; fill-opacity: 0.5; stroke: #000000; stroke-linejoin: miter"/>
   </g>
   <g id="patch_11">
    <path d="M 439.219451 381.684375 
L 452.074609 381.684375 
L 452.074609 348.468839 
L 439.219451 348.468839 
z
" clip-path="url(#p0fe1d24800)" style="fill: #2d1e3e; fill-opacity: 0.5; stroke: #000000; stroke-linejoin: miter"/>
   </g>
   <g id="patch_12">
    <path d="M 464.929767 381.684375 
L 477.784925 381.684375 
L 477.784925 381.684375 
L 464.929767 381.684375 
z
" clip-path="url(#p0fe1d24800)" style="fill: #2d1e3e; fill-opacity: 0.5; stroke: #000000; stroke-linejoin: miter"/>
   </g>
   <g id="patch_13">
    <path d="M 490.640083 381.684375 
L 503.495241 381.684375 
L 503.495241 381.684375 
L 490.640083 381.684375 
z
" clip-path="url(#p0fe1d24800)" style="fill: #2d1e3e; fill-opacity: 0.5; stroke: #000000; stroke-linejoin: miter"/>
   </g>
   <g id="patch_14">
    <path d="M 516.3504 381.684375 
L 529.205558 381.684375 
L 529.205558 381.684375 
L 516.3504 381.684375 
z
" clip-path="url(#p0fe1d24800)" style="fill: #2d1e3e; fill-opacity: 0.5; stroke: #000000; stroke-linejoin: miter"/>
   </g>
   <g id="patch_15">
    <path d="M 542.060716 381.684375 
L 554.915874 381.684375 
L 554.915874 381.684375 
L 542.060716 381.684375 
z
" clip-path="url(#p0fe1d24800)" style="fill: #2d1e3e; fill-opacity: 0.5; stroke: #000000; stroke-linejoin: miter"/>
   </g>
   <g id="patch_16">
    <path d="M 349.233345 381.684375 
L 362.088503 381.684375 
L 362.088503 115.960089 
L 349.233345 115.960089 
z
" clip-path="url(#p0fe1d24800)" style="fill: #edd1cb; fill-opacity: 0.5; stroke: #000000; stroke-linejoin: miter"/>
   </g>
   <g id="patch_17">
    <path d="M 374.943661 381.684375 
L 387.798819 381.684375 
L 387.798819 182.391161 
L 374.943661 182.391161 
z
" clip-path="url(#p0fe1d24800)" style="fill: #edd1cb; fill-opacity: 0.5; stroke: #000000; stroke-linejoin: miter"/>
   </g>
   <g id="patch_18">
    <path d="M 400.653977 381.684375 
L 413.509135 381.684375 
L 413.509135 49.529018 
L 400.653977 49.529018 
z
" clip-path="url(#p0fe1d24800)" style="fill: #edd1cb; fill-opacity: 0.5; stroke: #000000; stroke-linejoin: miter"/>
   </g>
   <g id="patch_19">
    <path d="M 426.364293 381.684375 
L 439.219451 381.684375 
L 439.219451 298.645536 
L 426.364293 298.645536 
z
" clip-path="url(#p0fe1d24800)" style="fill: #edd1cb; fill-opacity: 0.5; stroke: #000000; stroke-linejoin: miter"/>
   </g>
   <g id="patch_20">
    <path d="M 452.074609 381.684375 
L 464.929767 381.684375 
L 464.929767 265.43 
L 452.074609 265.43 
z
" clip-path="url(#p0fe1d24800)" style="fill: #edd1cb; fill-opacity: 0.5; stroke: #000000; stroke-linejoin: miter"/>
   </g>
   <g id="patch_21">
    <path d="M 477.784925 381.684375 
L 490.640083 381.684375 
L 490.640083 115.960089 
L 477.784925 115.960089 
z
" clip-path="url(#p0fe1d24800)" style="fill: #edd1cb; fill-opacity: 0.5; stroke: #000000; stroke-linejoin: miter"/>
   </g>
   <g id="patch_22">
    <path d="M 503.495241 381.684375 
L 516.3504 381.684375 
L 516.3504 315.253304 
L 503.495241 315.253304 
z
" clip-path="url(#p0fe1d24800)" style="fill: #edd1cb; fill-opacity: 0.5; stroke: #000000; stroke-linejoin: miter"/>
   </g>
   <g id="patch_23">
    <path d="M 529.205558 381.684375 
L 542.060716 381.684375 
L 542.060716 215.606696 
L 529.205558 215.606696 
z
" clip-path="url(#p0fe1d24800)" style="fill: #edd1cb; fill-opacity: 0.5; stroke: #000000; stroke-linejoin: miter"/>
   </g>
   <g id="matplotlib.axis_3">
    <g id="xtick_3">
     <g id="line2d_21">
      <g>
       <use xlink:href="#m4c99cd72f3" x="349.233345" y="391.684375" style="stroke: #000000; stroke-width: 0.8"/>
      </g>
     </g>
     <g id="text_11">
      <!-- 0 -->
      <g transform="translate(346.452876 405.857813)scale(0.1 -0.1)">
       <use xlink:href="#Helvetica-30"/>
      </g>
     </g>
    </g>
    <g id="xtick_4">
     <g id="line2d_22">
      <g>
       <use xlink:href="#m4c99cd72f3" x="422.691391" y="391.684375" style="stroke: #000000; stroke-width: 0.8"/>
      </g>
     </g>
     <g id="text_12">
      <!-- 10 -->
      <g transform="translate(417.130454 405.857813)scale(0.1 -0.1)">
       <use xlink:href="#Helvetica-31"/>
       <use xlink:href="#Helvetica-30" x="55.615234"/>
      </g>
     </g>
    </g>
    <g id="xtick_5">
     <g id="line2d_23">
      <g>
       <use xlink:href="#m4c99cd72f3" x="496.149437" y="391.684375" style="stroke: #000000; stroke-width: 0.8"/>
      </g>
     </g>
     <g id="text_13">
      <!-- 20 -->
      <g transform="translate(490.588499 405.857813)scale(0.1 -0.1)">
       <use xlink:href="#Helvetica-32"/>
       <use xlink:href="#Helvetica-30" x="55.615234"/>
      </g>
     </g>
    </g>
    <g id="text_14">
     <!-- Value -->
     <g transform="translate(439.287109 419.115625)scale(0.1 -0.1)">
      <use xlink:href="#Helvetica-56"/>
      <use xlink:href="#Helvetica-61" x="66.699219"/>
      <use xlink:href="#Helvetica-6c" x="122.314453"/>
      <use xlink:href="#Helvetica-75" x="144.53125"/>
      <use xlink:href="#Helvetica-65" x="200.146484"/>
     </g>
    </g>
   </g>
   <g id="matplotlib.axis_4">
    <g id="ytick_7">
     <g id="line2d_24">
      <g>
       <use xlink:href="#m8e343aef83" x="328.949219" y="381.684375" style="stroke: #000000; stroke-width: 0.8"/>
      </g>
     </g>
     <g id="text_15">
      <!-- 0.0 -->
      <g transform="translate(308.049219 385.271094)scale(0.1 -0.1)">
       <defs>
        <path id="Helvetica-2e" d="M 547 681 
L 1200 681 
L 1200 0 
L 547 0 
L 547 681 
z
" transform="scale(0.015625)"/>
       </defs>
       <use xlink:href="#Helvetica-30"/>
       <use xlink:href="#Helvetica-2e" x="55.615234"/>
       <use xlink:href="#Helvetica-30" x="83.398438"/>
      </g>
     </g>
    </g>
    <g id="ytick_8">
     <g id="line2d_25">
      <g>
       <use xlink:href="#m8e343aef83" x="328.949219" y="340.164955" style="stroke: #000000; stroke-width: 0.8"/>
      </g>
     </g>
     <g id="text_16">
      <!-- 2.5 -->
      <g transform="translate(308.049219 343.751674)scale(0.1 -0.1)">
       <use xlink:href="#Helvetica-32"/>
       <use xlink:href="#Helvetica-2e" x="55.615234"/>
       <use xlink:href="#Helvetica-35" x="83.398438"/>
      </g>
     </g>
    </g>
    <g id="ytick_9">
     <g id="line2d_26">
      <g>
       <use xlink:href="#m8e343aef83" x="328.949219" y="298.645536" style="stroke: #000000; stroke-width: 0.8"/>
      </g>
     </g>
     <g id="text_17">
      <!-- 5.0 -->
      <g transform="translate(308.049219 302.232254)scale(0.1 -0.1)">
       <use xlink:href="#Helvetica-35"/>
       <use xlink:href="#Helvetica-2e" x="55.615234"/>
       <use xlink:href="#Helvetica-30" x="83.398438"/>
      </g>
     </g>
    </g>
    <g id="ytick_10">
     <g id="line2d_27">
      <g>
       <use xlink:href="#m8e343aef83" x="328.949219" y="257.126116" style="stroke: #000000; stroke-width: 0.8"/>
      </g>
     </g>
     <g id="text_18">
      <!-- 7.5 -->
      <g transform="translate(308.049219 260.712835)scale(0.1 -0.1)">
       <defs>
        <path id="Helvetica-37" d="M 3347 4400 
L 3347 3909 
Q 3131 3700 2773 3181 
Q 2416 2663 2141 2063 
Q 1869 1478 1728 997 
Q 1638 688 1494 0 
L 872 0 
Q 1084 1281 1809 2550 
Q 2238 3294 2709 3834 
L 234 3834 
L 234 4400 
L 3347 4400 
z
" transform="scale(0.015625)"/>
       </defs>
       <use xlink:href="#Helvetica-37"/>
       <use xlink:href="#Helvetica-2e" x="55.615234"/>
       <use xlink:href="#Helvetica-35" x="83.398438"/>
      </g>
     </g>
    </g>
    <g id="ytick_11">
     <g id="line2d_28">
      <g>
       <use xlink:href="#m8e343aef83" x="328.949219" y="215.606696" style="stroke: #000000; stroke-width: 0.8"/>
      </g>
     </g>
     <g id="text_19">
      <!-- 10.0 -->
      <g transform="translate(302.488281 219.193415)scale(0.1 -0.1)">
       <use xlink:href="#Helvetica-31"/>
       <use xlink:href="#Helvetica-30" x="55.615234"/>
       <use xlink:href="#Helvetica-2e" x="111.230469"/>
       <use xlink:href="#Helvetica-30" x="139.013672"/>
      </g>
     </g>
    </g>
    <g id="ytick_12">
     <g id="line2d_29">
      <g>
       <use xlink:href="#m8e343aef83" x="328.949219" y="174.087277" style="stroke: #000000; stroke-width: 0.8"/>
      </g>
     </g>
     <g id="text_20">
      <!-- 12.5 -->
      <g transform="translate(302.488281 177.673996)scale(0.1 -0.1)">
       <use xlink:href="#Helvetica-31"/>
       <use xlink:href="#Helvetica-32" x="55.615234"/>
       <use xlink:href="#Helvetica-2e" x="111.230469"/>
       <use xlink:href="#Helvetica-35" x="139.013672"/>
      </g>
     </g>
    </g>
    <g id="ytick_13">
     <g id="line2d_30">
      <g>
       <use xlink:href="#m8e343aef83" x="328.949219" y="132.567857" style="stroke: #000000; stroke-width: 0.8"/>
      </g>
     </g>
     <g id="text_21">
      <!-- 15.0 -->
      <g transform="translate(302.488281 136.154576)scale(0.1 -0.1)">
       <use xlink:href="#Helvetica-31"/>
       <use xlink:href="#Helvetica-35" x="55.615234"/>
       <use xlink:href="#Helvetica-2e" x="111.230469"/>
       <use xlink:href="#Helvetica-30" x="139.013672"/>
      </g>
     </g>
    </g>
    <g id="ytick_14">
     <g id="line2d_31">
      <g>
       <use xlink:href="#m8e343aef83" x="328.949219" y="91.048438" style="stroke: #000000; stroke-width: 0.8"/>
      </g>
     </g>
     <g id="text_22">
      <!-- 17.5 -->
      <g transform="translate(302.488281 94.635156)scale(0.1 -0.1)">
       <use xlink:href="#Helvetica-31"/>
       <use xlink:href="#Helvetica-37" x="55.615234"/>
       <use xlink:href="#Helvetica-2e" x="111.230469"/>
       <use xlink:href="#Helvetica-35" x="139.013672"/>
      </g>
     </g>
    </g>
    <g id="ytick_15">
     <g id="line2d_32">
      <g>
       <use xlink:href="#m8e343aef83" x="328.949219" y="49.529018" style="stroke: #000000; stroke-width: 0.8"/>
      </g>
     </g>
     <g id="text_23">
      <!-- 20.0 -->
      <g transform="translate(302.488281 53.115737)scale(0.1 -0.1)">
       <use xlink:href="#Helvetica-32"/>
       <use xlink:href="#Helvetica-30" x="55.615234"/>
       <use xlink:href="#Helvetica-2e" x="111.230469"/>
       <use xlink:href="#Helvetica-30" x="139.013672"/>
      </g>
     </g>
    </g>
    <g id="text_24">
     <!-- Count -->
     <g transform="translate(296.403906 220.644219)rotate(-90)scale(0.1 -0.1)">
      <defs>
       <path id="Helvetica-43" d="M 2422 4716 
Q 3294 4716 3775 4256 
Q 4256 3797 4309 3213 
L 3703 3213 
Q 3600 3656 3292 3915 
Q 2984 4175 2428 4175 
Q 1750 4175 1333 3698 
Q 916 3222 916 2238 
Q 916 1431 1292 929 
Q 1669 428 2416 428 
Q 3103 428 3463 956 
Q 3653 1234 3747 1688 
L 4353 1688 
Q 4272 963 3816 472 
Q 3269 -119 2341 -119 
Q 1541 -119 997 366 
Q 281 1006 281 2344 
Q 281 3359 819 4009 
Q 1400 4716 2422 4716 
z
M 2297 4716 
L 2297 4716 
z
" transform="scale(0.015625)"/>
       <path id="Helvetica-6f" d="M 1741 363 
Q 2300 363 2508 786 
Q 2716 1209 2716 1728 
Q 2716 2197 2566 2491 
Q 2328 2953 1747 2953 
Q 1231 2953 997 2559 
Q 763 2166 763 1609 
Q 763 1075 997 719 
Q 1231 363 1741 363 
z
M 1763 3444 
Q 2409 3444 2856 3012 
Q 3303 2581 3303 1744 
Q 3303 934 2909 406 
Q 2516 -122 1688 -122 
Q 997 -122 590 345 
Q 184 813 184 1600 
Q 184 2444 612 2944 
Q 1041 3444 1763 3444 
z
M 1744 3428 
L 1744 3428 
z
" transform="scale(0.015625)"/>
       <path id="Helvetica-6e" d="M 413 3347 
L 947 3347 
L 947 2872 
Q 1184 3166 1450 3294 
Q 1716 3422 2041 3422 
Q 2753 3422 3003 2925 
Q 3141 2653 3141 2147 
L 3141 0 
L 2569 0 
L 2569 2109 
Q 2569 2416 2478 2603 
Q 2328 2916 1934 2916 
Q 1734 2916 1606 2875 
Q 1375 2806 1200 2600 
Q 1059 2434 1017 2257 
Q 975 2081 975 1753 
L 975 0 
L 413 0 
L 413 3347 
z
M 1734 3428 
L 1734 3428 
z
" transform="scale(0.015625)"/>
       <path id="Helvetica-74" d="M 525 4281 
L 1094 4281 
L 1094 3347 
L 1628 3347 
L 1628 2888 
L 1094 2888 
L 1094 703 
Q 1094 528 1213 469 
Q 1278 434 1431 434 
Q 1472 434 1519 436 
Q 1566 438 1628 444 
L 1628 0 
Q 1531 -28 1426 -40 
Q 1322 -53 1200 -53 
Q 806 -53 665 148 
Q 525 350 525 672 
L 525 2888 
L 72 2888 
L 72 3347 
L 525 3347 
L 525 4281 
z
" transform="scale(0.015625)"/>
      </defs>
      <use xlink:href="#Helvetica-43"/>
      <use xlink:href="#Helvetica-6f" x="72.216797"/>
      <use xlink:href="#Helvetica-75" x="127.832031"/>
      <use xlink:href="#Helvetica-6e" x="183.447266"/>
      <use xlink:href="#Helvetica-74" x="239.0625"/>
     </g>
    </g>
   </g>
   <g id="line2d_33">
    <path d="M 349.233345 354.628671 
L 351.300506 348.013321 
L 353.367667 340.561854 
L 355.434828 332.374461 
L 358.53557 319.058824 
L 365.770634 287.179191 
L 367.837795 279.076816 
L 369.904956 271.9191 
L 371.972117 265.942189 
L 373.005698 263.459512 
L 374.039278 261.341569 
L 375.072859 259.604717 
L 376.106439 258.261548 
L 377.14002 257.320659 
L 378.1736 256.78645 
L 379.207181 256.658964 
L 380.240762 256.93377 
L 381.274342 257.601894 
L 382.307923 258.649812 
L 383.341503 260.05951 
L 384.375084 261.808615 
L 385.408664 263.870609 
L 387.475825 268.808352 
L 389.542986 274.591233 
L 392.643728 284.145136 
L 395.74447 293.748974 
L 397.811631 299.659335 
L 399.878792 304.879634 
L 401.945953 309.233487 
L 402.979533 311.05257 
L 404.013114 312.6262 
L 405.046695 313.955836 
L 406.080275 315.048013 
L 407.113856 315.914023 
L 408.147436 316.569504 
L 409.181017 317.033932 
L 410.214597 317.330057 
L 411.248178 317.483285 
L 413.315339 317.472047 
L 418.483242 316.945413 
L 420.550403 317.105846 
L 421.583983 317.355797 
L 422.617564 317.740975 
L 423.651144 318.27402 
L 424.684725 318.964325 
L 425.718305 319.818016 
L 426.751886 320.837995 
L 428.819047 323.373003 
L 430.886208 326.533345 
L 432.953369 330.242953 
L 435.02053 334.394677 
L 438.121272 341.167822 
L 444.322755 354.979779 
L 447.423497 361.200962 
L 449.490658 364.894371 
L 451.557819 368.168903 
L 453.62498 371.004687 
L 455.692141 373.403977 
L 457.759302 375.387389 
L 459.826463 376.9894 
L 461.893625 378.253611 
L 463.960786 379.228239 
L 466.027947 379.962212 
L 468.095108 380.502089 
L 471.195849 381.038384 
L 474.296591 381.348299 
L 479.464494 381.583156 
L 487.733138 381.673323 
L 531.143521 381.684375 
L 554.915874 381.684375 
L 554.915874 381.684375 
" clip-path="url(#p0fe1d24800)" style="fill: none; stroke: #2d1e3e; stroke-width: 1.5; stroke-linecap: square"/>
   </g>
   <g id="line2d_34">
    <path d="M 349.233345 252.402482 
L 353.367667 236.924099 
L 356.468409 225.948506 
L 359.569151 215.707507 
L 362.669892 206.333484 
L 365.770634 197.915134 
L 367.837795 192.856759 
L 369.904956 188.244433 
L 371.972117 184.071296 
L 374.039278 180.323095 
L 376.106439 176.979355 
L 378.1736 174.014768 
L 380.240762 171.400748 
L 382.307923 169.107077 
L 384.375084 167.103587 
L 386.442245 165.361787 
L 388.509406 163.856377 
L 390.576567 162.566563 
L 392.643728 161.477122 
L 394.710889 160.579155 
L 396.77805 159.870483 
L 398.845211 159.355662 
L 400.912372 159.045607 
L 402.979533 158.956827 
L 405.046695 159.110298 
L 407.113856 159.530034 
L 409.181017 160.241391 
L 411.248178 161.269217 
L 413.315339 162.635905 
L 415.3825 164.359477 
L 417.449661 166.451768 
L 419.516822 168.916832 
L 421.583983 171.749645 
L 423.651144 174.935172 
L 425.718305 178.447875 
L 428.819047 184.24866 
L 431.919789 190.53853 
L 443.289175 214.167623 
L 445.356336 217.923211 
L 447.423497 221.338424 
L 449.490658 224.356602 
L 451.557819 226.93081 
L 453.62498 229.025247 
L 455.692141 230.616295 
L 456.725722 231.219167 
L 457.759302 231.693173 
L 458.792883 232.039012 
L 459.826463 232.2582 
L 460.860044 232.353049 
L 461.893625 232.326654 
L 462.927205 232.182864 
L 464.994366 231.562089 
L 467.061527 230.535365 
L 469.128688 229.157012 
L 471.195849 227.48944 
L 474.296591 224.597376 
L 483.598816 215.453067 
L 485.665977 213.790526 
L 487.733138 212.400649 
L 489.800299 211.33395 
L 491.86746 210.631926 
L 493.934621 210.326424 
L 496.001783 210.439349 
L 498.068944 210.982717 
L 500.136105 211.959044 
L 502.203266 213.362032 
L 504.270427 215.177524 
L 506.337588 217.384668 
L 508.404749 219.957226 
L 510.47191 222.864974 
L 512.539071 226.075108 
L 515.639813 231.382823 
L 518.740555 237.180736 
L 522.874877 245.492556 
L 528.042779 256.524271 
L 535.277843 272.642588 
L 554.915874 316.817265 
L 554.915874 316.817265 
" clip-path="url(#p0fe1d24800)" style="fill: none; stroke: #edd1cb; stroke-width: 1.5; stroke-linecap: square"/>
   </g>
   <g id="patch_24">
    <path d="M 328.949219 381.684375 
L 328.949219 49.529018 
" style="fill: none; stroke: #000000; stroke-width: 0.8; stroke-linejoin: miter; stroke-linecap: square"/>
   </g>
   <g id="patch_25">
    <path d="M 349.233345 391.684375 
L 496.149437 391.684375 
" style="fill: none; stroke: #000000; stroke-width: 0.8; stroke-linejoin: miter; stroke-linecap: square"/>
   </g>
   <g id="legend_1">
    <g id="patch_26">
     <path d="M 503.95625 83.694688 
L 558.2 83.694688 
Q 560.2 83.694688 560.2 81.694688 
L 560.2 39.92125 
Q 560.2 37.92125 558.2 37.92125 
L 503.95625 37.92125 
Q 501.95625 37.92125 501.95625 39.92125 
L 501.95625 81.694688 
Q 501.95625 83.694688 503.95625 83.694688 
z
" style="fill: #ffffff; opacity: 0.8; stroke: #cccccc; stroke-linejoin: miter"/>
    </g>
    <g id="text_25">
     <!-- Year -->
     <g transform="translate(520.517187 49.094688)scale(0.1 -0.1)">
      <use xlink:href="#Helvetica-59"/>
      <use xlink:href="#Helvetica-65" x="66.699219"/>
      <use xlink:href="#Helvetica-61" x="122.314453"/>
      <use xlink:href="#Helvetica-72" x="177.929688"/>
     </g>
    </g>
    <g id="patch_27">
     <path d="M 505.95625 63.3525 
L 525.95625 63.3525 
L 525.95625 56.3525 
L 505.95625 56.3525 
z
" style="fill: #edd1cb; fill-opacity: 0.5; stroke: #000000; stroke-linejoin: miter"/>
    </g>
    <g id="text_26">
     <!-- 2018 -->
     <g transform="translate(533.95625 63.3525)scale(0.1 -0.1)">
      <use xlink:href="#Helvetica-32"/>
      <use xlink:href="#Helvetica-30" x="55.615234"/>
      <use xlink:href="#Helvetica-31" x="111.230469"/>
      <use xlink:href="#Helvetica-38" x="166.845703"/>
     </g>
    </g>
    <g id="patch_28">
     <path d="M 505.95625 77.610313 
L 525.95625 77.610313 
L 525.95625 70.610313 
L 505.95625 70.610313 
z
" style="fill: #2d1e3e; fill-opacity: 0.5; stroke: #000000; stroke-linejoin: miter"/>
    </g>
    <g id="text_27">
     <!-- 2022 -->
     <g transform="translate(533.95625 77.610313)scale(0.1 -0.1)">
      <use xlink:href="#Helvetica-32"/>
      <use xlink:href="#Helvetica-30" x="55.615234"/>
      <use xlink:href="#Helvetica-32" x="111.230469"/>
      <use xlink:href="#Helvetica-32" x="166.845703"/>
     </g>
    </g>
   </g>
  </g>
  <g id="text_28">
   <!-- How many years of software development experience for Australia (without 95 percentile) -->
   <g transform="translate(50.901563 17.38875)scale(0.12 -0.12)">
    <defs>
     <path id="Helvetica-48" d="M 503 4591 
L 1131 4591 
L 1131 2694 
L 3519 2694 
L 3519 4591 
L 4147 4591 
L 4147 0 
L 3519 0 
L 3519 2147 
L 1131 2147 
L 1131 0 
L 503 0 
L 503 4591 
z
" transform="scale(0.015625)"/>
     <path id="Helvetica-77" d="M 672 3347 
L 1316 709 
L 1969 3347 
L 2600 3347 
L 3256 725 
L 3941 3347 
L 4503 3347 
L 3531 0 
L 2947 0 
L 2266 2591 
L 1606 0 
L 1022 0 
L 56 3347 
L 672 3347 
z
" transform="scale(0.015625)"/>
     <path id="Helvetica-20" transform="scale(0.015625)"/>
     <path id="Helvetica-6d" d="M 413 3347 
L 969 3347 
L 969 2872 
Q 1169 3119 1331 3231 
Q 1609 3422 1963 3422 
Q 2363 3422 2606 3225 
Q 2744 3113 2856 2894 
Q 3044 3163 3297 3292 
Q 3550 3422 3866 3422 
Q 4541 3422 4784 2934 
Q 4916 2672 4916 2228 
L 4916 0 
L 4331 0 
L 4331 2325 
Q 4331 2659 4164 2784 
Q 3997 2909 3756 2909 
Q 3425 2909 3186 2687 
Q 2947 2466 2947 1947 
L 2947 0 
L 2375 0 
L 2375 2184 
Q 2375 2525 2294 2681 
Q 2166 2916 1816 2916 
Q 1497 2916 1236 2669 
Q 975 2422 975 1775 
L 975 0 
L 413 0 
L 413 3347 
z
" transform="scale(0.015625)"/>
     <path id="Helvetica-79" d="M 2503 3347 
L 3125 3347 
Q 3006 3025 2597 1878 
Q 2291 1016 2084 472 
Q 1597 -809 1397 -1090 
Q 1197 -1372 709 -1372 
Q 591 -1372 527 -1362 
Q 463 -1353 369 -1328 
L 369 -816 
Q 516 -856 581 -865 
Q 647 -875 697 -875 
Q 853 -875 926 -823 
Q 1000 -772 1050 -697 
Q 1066 -672 1162 -440 
Q 1259 -209 1303 -97 
L 66 3347 
L 703 3347 
L 1600 622 
L 2503 3347 
z
M 1597 3428 
L 1597 3428 
z
" transform="scale(0.015625)"/>
     <path id="Helvetica-73" d="M 747 1050 
Q 772 769 888 619 
Q 1100 347 1625 347 
Q 1938 347 2175 483 
Q 2413 619 2413 903 
Q 2413 1119 2222 1231 
Q 2100 1300 1741 1391 
L 1294 1503 
Q 866 1609 663 1741 
Q 300 1969 300 2372 
Q 300 2847 642 3140 
Q 984 3434 1563 3434 
Q 2319 3434 2653 2991 
Q 2863 2709 2856 2384 
L 2325 2384 
Q 2309 2575 2191 2731 
Q 1997 2953 1519 2953 
Q 1200 2953 1036 2831 
Q 872 2709 872 2509 
Q 872 2291 1088 2159 
Q 1213 2081 1456 2022 
L 1828 1931 
Q 2434 1784 2641 1647 
Q 2969 1431 2969 969 
Q 2969 522 2630 197 
Q 2291 -128 1597 -128 
Q 850 -128 539 211 
Q 228 550 206 1050 
L 747 1050 
z
M 1578 3428 
L 1578 3428 
z
" transform="scale(0.015625)"/>
     <path id="Helvetica-66" d="M 553 3856 
Q 566 4206 675 4369 
Q 872 4656 1434 4656 
Q 1488 4656 1544 4653 
Q 1600 4650 1672 4644 
L 1672 4131 
Q 1584 4138 1545 4139 
Q 1506 4141 1472 4141 
Q 1216 4141 1166 4008 
Q 1116 3875 1116 3331 
L 1672 3331 
L 1672 2888 
L 1109 2888 
L 1109 0 
L 553 0 
L 553 2888 
L 88 2888 
L 88 3331 
L 553 3331 
L 553 3856 
z
" transform="scale(0.015625)"/>
     <path id="Helvetica-64" d="M 769 1634 
Q 769 1097 997 734 
Q 1225 372 1728 372 
Q 2119 372 2370 708 
Q 2622 1044 2622 1672 
Q 2622 2306 2362 2611 
Q 2103 2916 1722 2916 
Q 1297 2916 1033 2591 
Q 769 2266 769 1634 
z
M 1616 3406 
Q 2000 3406 2259 3244 
Q 2409 3150 2600 2916 
L 2600 4606 
L 3141 4606 
L 3141 0 
L 2634 0 
L 2634 466 
Q 2438 156 2169 18 
Q 1900 -119 1553 -119 
Q 994 -119 584 351 
Q 175 822 175 1603 
Q 175 2334 548 2870 
Q 922 3406 1616 3406 
z
" transform="scale(0.015625)"/>
     <path id="Helvetica-76" d="M 688 3347 
L 1581 622 
L 2516 3347 
L 3131 3347 
L 1869 0 
L 1269 0 
L 34 3347 
L 688 3347 
z
" transform="scale(0.015625)"/>
     <path id="Helvetica-70" d="M 1825 378 
Q 2219 378 2480 708 
Q 2741 1038 2741 1694 
Q 2741 2094 2625 2381 
Q 2406 2934 1825 2934 
Q 1241 2934 1025 2350 
Q 909 2038 909 1556 
Q 909 1169 1025 897 
Q 1244 378 1825 378 
z
M 369 3331 
L 916 3331 
L 916 2888 
Q 1084 3116 1284 3241 
Q 1569 3428 1953 3428 
Q 2522 3428 2919 2992 
Q 3316 2556 3316 1747 
Q 3316 653 2744 184 
Q 2381 -113 1900 -113 
Q 1522 -113 1266 53 
Q 1116 147 931 375 
L 931 -1334 
L 369 -1334 
L 369 3331 
z
" transform="scale(0.015625)"/>
     <path id="Helvetica-78" d="M 94 3347 
L 822 3347 
L 1591 2169 
L 2369 3347 
L 3053 3331 
L 1925 1716 
L 3103 0 
L 2384 0 
L 1553 1256 
L 747 0 
L 34 0 
L 1213 1716 
L 94 3347 
z
" transform="scale(0.015625)"/>
     <path id="Helvetica-69" d="M 413 3331 
L 984 3331 
L 984 0 
L 413 0 
L 413 3331 
z
M 413 4591 
L 984 4591 
L 984 3953 
L 413 3953 
L 413 4591 
z
" transform="scale(0.015625)"/>
     <path id="Helvetica-63" d="M 1703 3444 
Q 2269 3444 2623 3169 
Q 2978 2894 3050 2222 
L 2503 2222 
Q 2453 2531 2275 2736 
Q 2097 2941 1703 2941 
Q 1166 2941 934 2416 
Q 784 2075 784 1575 
Q 784 1072 996 728 
Q 1209 384 1666 384 
Q 2016 384 2220 598 
Q 2425 813 2503 1184 
L 3050 1184 
Q 2956 519 2581 211 
Q 2206 -97 1622 -97 
Q 966 -97 575 383 
Q 184 863 184 1581 
Q 184 2463 612 2953 
Q 1041 3444 1703 3444 
z
M 1616 3428 
L 1616 3428 
z
" transform="scale(0.015625)"/>
     <path id="Helvetica-41" d="M 2844 1881 
L 2147 3909 
L 1406 1881 
L 2844 1881 
z
M 1822 4591 
L 2525 4591 
L 4191 0 
L 3509 0 
L 3044 1375 
L 1228 1375 
L 731 0 
L 94 0 
L 1822 4591 
z
M 2144 4591 
L 2144 4591 
z
" transform="scale(0.015625)"/>
     <path id="Helvetica-28" d="M 1894 4666 
Q 1403 3713 1256 3263 
Q 1034 2578 1034 1681 
Q 1034 775 1288 25 
Q 1444 -438 1903 -1306 
L 1525 -1306 
Q 1069 -594 959 -397 
Q 850 -200 722 138 
Q 547 600 478 1125 
Q 444 1397 444 1644 
Q 444 2569 734 3291 
Q 919 3750 1503 4666 
L 1894 4666 
z
" transform="scale(0.015625)"/>
     <path id="Helvetica-68" d="M 413 4606 
L 975 4606 
L 975 2894 
Q 1175 3147 1334 3250 
Q 1606 3428 2013 3428 
Q 2741 3428 3000 2919 
Q 3141 2641 3141 2147 
L 3141 0 
L 2563 0 
L 2563 2109 
Q 2563 2478 2469 2650 
Q 2316 2925 1894 2925 
Q 1544 2925 1259 2684 
Q 975 2444 975 1775 
L 975 0 
L 413 0 
L 413 4606 
z
" transform="scale(0.015625)"/>
     <path id="Helvetica-39" d="M 850 1081 
Q 875 616 1209 438 
Q 1381 344 1597 344 
Q 2000 344 2284 680 
Q 2569 1016 2688 2044 
Q 2500 1747 2223 1626 
Q 1947 1506 1628 1506 
Q 981 1506 604 1909 
Q 228 2313 228 2947 
Q 228 3556 600 4018 
Q 972 4481 1697 4481 
Q 2675 4481 3047 3600 
Q 3253 3116 3253 2388 
Q 3253 1566 3006 931 
Q 2597 -125 1619 -125 
Q 963 -125 622 219 
Q 281 563 281 1081 
L 850 1081 
z
M 1703 2000 
Q 2038 2000 2314 2220 
Q 2591 2441 2591 2991 
Q 2591 3484 2342 3726 
Q 2094 3969 1709 3969 
Q 1297 3969 1055 3692 
Q 813 3416 813 2953 
Q 813 2516 1025 2258 
Q 1238 2000 1703 2000 
z
" transform="scale(0.015625)"/>
     <path id="Helvetica-29" d="M 222 -1306 
Q 719 -338 863 106 
Q 1081 778 1081 1681 
Q 1081 2584 828 3334 
Q 672 3797 213 4666 
L 591 4666 
Q 1072 3897 1173 3717 
Q 1275 3538 1394 3222 
Q 1544 2831 1608 2450 
Q 1672 2069 1672 1716 
Q 1672 791 1378 66 
Q 1194 -400 613 -1306 
L 222 -1306 
z
" transform="scale(0.015625)"/>
    </defs>
    <use xlink:href="#Helvetica-48"/>
    <use xlink:href="#Helvetica-6f" x="72.216797"/>
    <use xlink:href="#Helvetica-77" x="127.832031"/>
    <use xlink:href="#Helvetica-20" x="200.048828"/>
    <use xlink:href="#Helvetica-6d" x="227.832031"/>
    <use xlink:href="#Helvetica-61" x="311.132812"/>
    <use xlink:href="#Helvetica-6e" x="366.748047"/>
    <use xlink:href="#Helvetica-79" x="422.363281"/>
    <use xlink:href="#Helvetica-20" x="472.363281"/>
    <use xlink:href="#Helvetica-79" x="500.146484"/>
    <use xlink:href="#Helvetica-65" x="550.146484"/>
    <use xlink:href="#Helvetica-61" x="605.761719"/>
    <use xlink:href="#Helvetica-72" x="661.376953"/>
    <use xlink:href="#Helvetica-73" x="694.677734"/>
    <use xlink:href="#Helvetica-20" x="744.677734"/>
    <use xlink:href="#Helvetica-6f" x="772.460938"/>
    <use xlink:href="#Helvetica-66" x="828.076172"/>
    <use xlink:href="#Helvetica-20" x="855.859375"/>
    <use xlink:href="#Helvetica-73" x="883.642578"/>
    <use xlink:href="#Helvetica-6f" x="933.642578"/>
    <use xlink:href="#Helvetica-66" x="989.257812"/>
    <use xlink:href="#Helvetica-74" x="1017.041016"/>
    <use xlink:href="#Helvetica-77" x="1044.824219"/>
    <use xlink:href="#Helvetica-61" x="1117.041016"/>
    <use xlink:href="#Helvetica-72" x="1172.65625"/>
    <use xlink:href="#Helvetica-65" x="1205.957031"/>
    <use xlink:href="#Helvetica-20" x="1261.572266"/>
    <use xlink:href="#Helvetica-64" x="1289.355469"/>
    <use xlink:href="#Helvetica-65" x="1344.970703"/>
    <use xlink:href="#Helvetica-76" x="1400.585938"/>
    <use xlink:href="#Helvetica-65" x="1450.585938"/>
    <use xlink:href="#Helvetica-6c" x="1506.201172"/>
    <use xlink:href="#Helvetica-6f" x="1528.417969"/>
    <use xlink:href="#Helvetica-70" x="1584.033203"/>
    <use xlink:href="#Helvetica-6d" x="1639.648438"/>
    <use xlink:href="#Helvetica-65" x="1722.949219"/>
    <use xlink:href="#Helvetica-6e" x="1778.564453"/>
    <use xlink:href="#Helvetica-74" x="1834.179688"/>
    <use xlink:href="#Helvetica-20" x="1861.962891"/>
    <use xlink:href="#Helvetica-65" x="1889.746094"/>
    <use xlink:href="#Helvetica-78" x="1945.361328"/>
    <use xlink:href="#Helvetica-70" x="1995.361328"/>
    <use xlink:href="#Helvetica-65" x="2050.976562"/>
    <use xlink:href="#Helvetica-72" x="2106.591797"/>
    <use xlink:href="#Helvetica-69" x="2139.892578"/>
    <use xlink:href="#Helvetica-65" x="2162.109375"/>
    <use xlink:href="#Helvetica-6e" x="2217.724609"/>
    <use xlink:href="#Helvetica-63" x="2273.339844"/>
    <use xlink:href="#Helvetica-65" x="2323.339844"/>
    <use xlink:href="#Helvetica-20" x="2378.955078"/>
    <use xlink:href="#Helvetica-66" x="2406.738281"/>
    <use xlink:href="#Helvetica-6f" x="2434.521484"/>
    <use xlink:href="#Helvetica-72" x="2490.136719"/>
    <use xlink:href="#Helvetica-20" x="2523.4375"/>
    <use xlink:href="#Helvetica-41" x="2551.220703"/>
    <use xlink:href="#Helvetica-75" x="2617.919922"/>
    <use xlink:href="#Helvetica-73" x="2673.535156"/>
    <use xlink:href="#Helvetica-74" x="2723.535156"/>
    <use xlink:href="#Helvetica-72" x="2751.318359"/>
    <use xlink:href="#Helvetica-61" x="2784.619141"/>
    <use xlink:href="#Helvetica-6c" x="2840.234375"/>
    <use xlink:href="#Helvetica-69" x="2862.451172"/>
    <use xlink:href="#Helvetica-61" x="2884.667969"/>
    <use xlink:href="#Helvetica-20" x="2940.283203"/>
    <use xlink:href="#Helvetica-28" x="2968.066406"/>
    <use xlink:href="#Helvetica-77" x="3001.367188"/>
    <use xlink:href="#Helvetica-69" x="3073.583984"/>
    <use xlink:href="#Helvetica-74" x="3095.800781"/>
    <use xlink:href="#Helvetica-68" x="3123.583984"/>
    <use xlink:href="#Helvetica-6f" x="3179.199219"/>
    <use xlink:href="#Helvetica-75" x="3234.814453"/>
    <use xlink:href="#Helvetica-74" x="3290.429688"/>
    <use xlink:href="#Helvetica-20" x="3318.212891"/>
    <use xlink:href="#Helvetica-39" x="3345.996094"/>
    <use xlink:href="#Helvetica-35" x="3401.611328"/>
    <use xlink:href="#Helvetica-20" x="3457.226562"/>
    <use xlink:href="#Helvetica-70" x="3485.009766"/>
    <use xlink:href="#Helvetica-65" x="3540.625"/>
    <use xlink:href="#Helvetica-72" x="3596.240234"/>
    <use xlink:href="#Helvetica-63" x="3629.541016"/>
    <use xlink:href="#Helvetica-65" x="3679.541016"/>
    <use xlink:href="#Helvetica-6e" x="3735.15625"/>
    <use xlink:href="#Helvetica-74" x="3790.771484"/>
    <use xlink:href="#Helvetica-69" x="3818.554688"/>
    <use xlink:href="#Helvetica-6c" x="3840.771484"/>
    <use xlink:href="#Helvetica-65" x="3862.988281"/>
    <use xlink:href="#Helvetica-29" x="3918.603516"/>
   </g>
  </g>
 </g>
 <defs>
  <clipPath id="pf915be2ce2">
   <rect x="52.179688" y="32.92125" width="226.250781" height="348.763125"/>
  </clipPath>
  <clipPath id="p0fe1d24800">
   <rect x="338.949219" y="32.92125" width="226.250781" height="348.763125"/>
  </clipPath>
 </defs>
</svg>
