<?xml version="1.0" encoding="utf-8" standalone="no"?>
<!DOCTYPE svg PUBLIC "-//W3C//DTD SVG 1.1//EN"
  "http://www.w3.org/Graphics/SVG/1.1/DTD/svg11.dtd">
<svg xmlns:xlink="http://www.w3.org/1999/xlink" width="576pt" height="432pt" viewBox="0 0 576 432" xmlns="http://www.w3.org/2000/svg" version="1.1">
 <metadata>
  <rdf:RDF xmlns:dc="http://purl.org/dc/elements/1.1/" xmlns:cc="http://creativecommons.org/ns#" xmlns:rdf="http://www.w3.org/1999/02/22-rdf-syntax-ns#">
   <cc:Work>
    <dc:type rdf:resource="http://purl.org/dc/dcmitype/StillImage"/>
    <dc:date>2022-05-19T12:21:29.368984</dc:date>
    <dc:format>image/svg+xml</dc:format>
    <dc:creator>
     <cc:Agent>
      <dc:title>Matplotlib v3.5.1, https://matplotlib.org/</dc:title>
     </cc:Agent>
    </dc:creator>
   </cc:Work>
  </rdf:RDF>
 </metadata>
 <defs>
  <style type="text/css">*{stroke-linejoin: round; stroke-linecap: butt}</style>
 </defs>
 <g id="figure_1">
  <g id="patch_1">
   <path d="M 0 432 
L 576 432 
L 576 0 
L 0 0 
z
" style="fill: #ffffff"/>
  </g>
  <g id="axes_1">
   <g id="patch_2">
    <path d="M 52.179688 381.684375 
L 285.380469 381.684375 
L 285.380469 32.92125 
L 52.179688 32.92125 
z
" style="fill: #ffffff"/>
   </g>
   <g id="patch_3">
    <path d="M 63.839727 351.740066 
L 157.120039 351.740066 
L 157.120039 281.282869 
L 63.839727 281.282869 
L 63.839727 351.740066 
z
" clip-path="url(#pa3b7414843)" style="fill: #3274a1; stroke: #3f3f3f; stroke-width: 1.5; stroke-linejoin: miter"/>
   </g>
   <g id="patch_4">
    <path d="M 180.440117 353.501496 
L 273.72043 353.501496 
L 273.72043 342.932917 
L 180.440117 342.932917 
L 180.440117 353.501496 
z
" clip-path="url(#pa3b7414843)" style="fill: #e1812c; stroke: #3f3f3f; stroke-width: 1.5; stroke-linejoin: miter"/>
   </g>
   <g id="matplotlib.axis_1">
    <g id="xtick_1">
     <g id="line2d_1">
      <defs>
       <path id="m4c99cd72f3" d="M 0 0 
L 0 3.5 
" style="stroke: #000000; stroke-width: 0.8"/>
      </defs>
      <g>
       <use xlink:href="#m4c99cd72f3" x="110.479883" y="391.684375" style="stroke: #000000; stroke-width: 0.8"/>
      </g>
     </g>
     <g id="text_1">
      <!-- 2018 -->
      <g transform="translate(99.358008 405.857813)scale(0.1 -0.1)">
       <defs>
        <path id="Helvetica-32" d="M 200 0 
Q 231 578 439 1006 
Q 647 1434 1250 1784 
L 1850 2131 
Q 2253 2366 2416 2531 
Q 2672 2791 2672 3125 
Q 2672 3516 2437 3745 
Q 2203 3975 1813 3975 
Q 1234 3975 1013 3538 
Q 894 3303 881 2888 
L 309 2888 
Q 319 3472 525 3841 
Q 891 4491 1816 4491 
Q 2584 4491 2939 4075 
Q 3294 3659 3294 3150 
Q 3294 2613 2916 2231 
Q 2697 2009 2131 1694 
L 1703 1456 
Q 1397 1288 1222 1134 
Q 909 863 828 531 
L 3272 531 
L 3272 0 
L 200 0 
z
" transform="scale(0.015625)"/>
        <path id="Helvetica-30" d="M 1731 4475 
Q 2600 4475 2988 3759 
Q 3288 3206 3288 2244 
Q 3288 1331 3016 734 
Q 2622 -122 1728 -122 
Q 922 -122 528 578 
Q 200 1163 200 2147 
Q 200 2909 397 3456 
Q 766 4475 1731 4475 
z
M 1725 391 
Q 2163 391 2422 778 
Q 2681 1166 2681 2222 
Q 2681 2984 2493 3476 
Q 2306 3969 1766 3969 
Q 1269 3969 1039 3501 
Q 809 3034 809 2125 
Q 809 1441 956 1025 
Q 1181 391 1725 391 
z
" transform="scale(0.015625)"/>
        <path id="Helvetica-31" d="M 613 3169 
L 613 3600 
Q 1222 3659 1462 3798 
Q 1703 3938 1822 4456 
L 2266 4456 
L 2266 0 
L 1666 0 
L 1666 3169 
L 613 3169 
z
" transform="scale(0.015625)"/>
        <path id="Helvetica-38" d="M 1741 2600 
Q 2113 2600 2322 2808 
Q 2531 3016 2531 3303 
Q 2531 3553 2331 3762 
Q 2131 3972 1722 3972 
Q 1316 3972 1134 3762 
Q 953 3553 953 3272 
Q 953 2956 1187 2778 
Q 1422 2600 1741 2600 
z
M 1775 384 
Q 2166 384 2423 595 
Q 2681 806 2681 1225 
Q 2681 1659 2415 1884 
Q 2150 2109 1734 2109 
Q 1331 2109 1076 1879 
Q 822 1650 822 1244 
Q 822 894 1055 639 
Q 1288 384 1775 384 
z
M 975 2384 
Q 741 2484 609 2619 
Q 363 2869 363 3269 
Q 363 3769 725 4128 
Q 1088 4488 1753 4488 
Q 2397 4488 2762 4148 
Q 3128 3809 3128 3356 
Q 3128 2938 2916 2678 
Q 2797 2531 2547 2391 
Q 2825 2263 2984 2097 
Q 3281 1784 3281 1284 
Q 3281 694 2884 283 
Q 2488 -128 1763 -128 
Q 1109 -128 657 226 
Q 206 581 206 1256 
Q 206 1653 400 1942 
Q 594 2231 975 2384 
z
" transform="scale(0.015625)"/>
       </defs>
       <use xlink:href="#Helvetica-32"/>
       <use xlink:href="#Helvetica-30" x="55.615234"/>
       <use xlink:href="#Helvetica-31" x="111.230469"/>
       <use xlink:href="#Helvetica-38" x="166.845703"/>
      </g>
     </g>
    </g>
    <g id="xtick_2">
     <g id="line2d_2">
      <g>
       <use xlink:href="#m4c99cd72f3" x="227.080273" y="391.684375" style="stroke: #000000; stroke-width: 0.8"/>
      </g>
     </g>
     <g id="text_2">
      <!-- 2022 -->
      <g transform="translate(215.958398 405.857813)scale(0.1 -0.1)">
       <use xlink:href="#Helvetica-32"/>
       <use xlink:href="#Helvetica-30" x="55.615234"/>
       <use xlink:href="#Helvetica-32" x="111.230469"/>
       <use xlink:href="#Helvetica-32" x="166.845703"/>
      </g>
     </g>
    </g>
    <g id="text_3">
     <!-- Year -->
     <g transform="translate(158.219141 419.115625)scale(0.1 -0.1)">
      <defs>
       <path id="Helvetica-59" d="M 131 4591 
L 856 4591 
L 2175 2384 
L 3494 4591 
L 4222 4591 
L 2488 1850 
L 2488 0 
L 1866 0 
L 1866 1850 
L 131 4591 
z
M 2184 4591 
L 2184 4591 
z
" transform="scale(0.015625)"/>
       <path id="Helvetica-65" d="M 1806 3422 
Q 2163 3422 2497 3255 
Q 2831 3088 3006 2822 
Q 3175 2569 3231 2231 
Q 3281 2000 3281 1494 
L 828 1494 
Q 844 984 1069 676 
Q 1294 369 1766 369 
Q 2206 369 2469 659 
Q 2619 828 2681 1050 
L 3234 1050 
Q 3213 866 3089 639 
Q 2966 413 2813 269 
Q 2556 19 2178 -69 
Q 1975 -119 1719 -119 
Q 1094 -119 659 336 
Q 225 791 225 1609 
Q 225 2416 662 2919 
Q 1100 3422 1806 3422 
z
M 2703 1941 
Q 2669 2306 2544 2525 
Q 2313 2931 1772 2931 
Q 1384 2931 1121 2651 
Q 859 2372 844 1941 
L 2703 1941 
z
M 1753 3428 
L 1753 3428 
z
" transform="scale(0.015625)"/>
       <path id="Helvetica-61" d="M 844 891 
Q 844 647 1022 506 
Q 1200 366 1444 366 
Q 1741 366 2019 503 
Q 2488 731 2488 1250 
L 2488 1703 
Q 2384 1638 2221 1594 
Q 2059 1550 1903 1531 
L 1563 1488 
Q 1256 1447 1103 1359 
Q 844 1213 844 891 
z
M 2206 2028 
Q 2400 2053 2466 2191 
Q 2503 2266 2503 2406 
Q 2503 2694 2298 2823 
Q 2094 2953 1713 2953 
Q 1272 2953 1088 2716 
Q 984 2584 953 2325 
L 428 2325 
Q 444 2944 830 3186 
Q 1216 3428 1725 3428 
Q 2316 3428 2684 3203 
Q 3050 2978 3050 2503 
L 3050 575 
Q 3050 488 3086 434 
Q 3122 381 3238 381 
Q 3275 381 3322 386 
Q 3369 391 3422 400 
L 3422 -16 
Q 3291 -53 3222 -62 
Q 3153 -72 3034 -72 
Q 2744 -72 2613 134 
Q 2544 244 2516 444 
Q 2344 219 2022 53 
Q 1700 -113 1313 -113 
Q 847 -113 551 170 
Q 256 453 256 878 
Q 256 1344 547 1600 
Q 838 1856 1309 1916 
L 2206 2028 
z
M 1741 3428 
L 1741 3428 
z
" transform="scale(0.015625)"/>
       <path id="Helvetica-72" d="M 428 3347 
L 963 3347 
L 963 2769 
Q 1028 2938 1284 3180 
Q 1541 3422 1875 3422 
Q 1891 3422 1928 3419 
Q 1966 3416 2056 3406 
L 2056 2813 
Q 2006 2822 1964 2825 
Q 1922 2828 1872 2828 
Q 1447 2828 1219 2554 
Q 991 2281 991 1925 
L 991 0 
L 428 0 
L 428 3347 
z
" transform="scale(0.015625)"/>
      </defs>
      <use xlink:href="#Helvetica-59"/>
      <use xlink:href="#Helvetica-65" x="66.699219"/>
      <use xlink:href="#Helvetica-61" x="122.314453"/>
      <use xlink:href="#Helvetica-72" x="177.929688"/>
     </g>
    </g>
   </g>
   <g id="matplotlib.axis_2">
    <g id="ytick_1">
     <g id="line2d_3">
      <defs>
       <path id="m8e343aef83" d="M 0 0 
L -3.5 0 
" style="stroke: #000000; stroke-width: 0.8"/>
      </defs>
      <g>
       <use xlink:href="#m8e343aef83" x="42.179688" y="365.831506" style="stroke: #000000; stroke-width: 0.8"/>
      </g>
     </g>
     <g id="text_4">
      <!-- 0 -->
      <g transform="translate(29.61875 369.418224)scale(0.1 -0.1)">
       <use xlink:href="#Helvetica-30"/>
      </g>
     </g>
    </g>
    <g id="ytick_2">
     <g id="line2d_4">
      <g>
       <use xlink:href="#m8e343aef83" x="42.179688" y="295.374309" style="stroke: #000000; stroke-width: 0.8"/>
      </g>
     </g>
     <g id="text_5">
      <!-- 10 -->
      <g transform="translate(24.057813 298.961027)scale(0.1 -0.1)">
       <use xlink:href="#Helvetica-31"/>
       <use xlink:href="#Helvetica-30" x="55.615234"/>
      </g>
     </g>
    </g>
    <g id="ytick_3">
     <g id="line2d_5">
      <g>
       <use xlink:href="#m8e343aef83" x="42.179688" y="224.917112" style="stroke: #000000; stroke-width: 0.8"/>
      </g>
     </g>
     <g id="text_6">
      <!-- 20 -->
      <g transform="translate(24.057813 228.50383)scale(0.1 -0.1)">
       <use xlink:href="#Helvetica-32"/>
       <use xlink:href="#Helvetica-30" x="55.615234"/>
      </g>
     </g>
    </g>
    <g id="ytick_4">
     <g id="line2d_6">
      <g>
       <use xlink:href="#m8e343aef83" x="42.179688" y="154.459915" style="stroke: #000000; stroke-width: 0.8"/>
      </g>
     </g>
     <g id="text_7">
      <!-- 30 -->
      <g transform="translate(24.057813 158.046634)scale(0.1 -0.1)">
       <defs>
        <path id="Helvetica-33" d="M 1663 -122 
Q 869 -122 511 314 
Q 153 750 153 1375 
L 741 1375 
Q 778 941 903 744 
Q 1122 391 1694 391 
Q 2138 391 2406 628 
Q 2675 866 2675 1241 
Q 2675 1703 2392 1887 
Q 2109 2072 1606 2072 
Q 1550 2072 1492 2070 
Q 1434 2069 1375 2066 
L 1375 2563 
Q 1463 2553 1522 2550 
Q 1581 2547 1650 2547 
Q 1966 2547 2169 2647 
Q 2525 2822 2525 3272 
Q 2525 3606 2287 3787 
Q 2050 3969 1734 3969 
Q 1172 3969 956 3594 
Q 838 3388 822 3006 
L 266 3006 
Q 266 3506 466 3856 
Q 809 4481 1675 4481 
Q 2359 4481 2734 4176 
Q 3109 3872 3109 3294 
Q 3109 2881 2888 2625 
Q 2750 2466 2531 2375 
Q 2884 2278 3082 2001 
Q 3281 1725 3281 1325 
Q 3281 684 2859 281 
Q 2438 -122 1663 -122 
z
" transform="scale(0.015625)"/>
       </defs>
       <use xlink:href="#Helvetica-33"/>
       <use xlink:href="#Helvetica-30" x="55.615234"/>
      </g>
     </g>
    </g>
    <g id="ytick_5">
     <g id="line2d_7">
      <g>
       <use xlink:href="#m8e343aef83" x="42.179688" y="84.002718" style="stroke: #000000; stroke-width: 0.8"/>
      </g>
     </g>
     <g id="text_8">
      <!-- 40 -->
      <g transform="translate(24.057813 87.589437)scale(0.1 -0.1)">
       <defs>
        <path id="Helvetica-34" d="M 2116 1584 
L 2116 3613 
L 681 1584 
L 2116 1584 
z
M 2125 0 
L 2125 1094 
L 163 1094 
L 163 1644 
L 2213 4488 
L 2688 4488 
L 2688 1584 
L 3347 1584 
L 3347 1094 
L 2688 1094 
L 2688 0 
L 2125 0 
z
" transform="scale(0.015625)"/>
       </defs>
       <use xlink:href="#Helvetica-34"/>
       <use xlink:href="#Helvetica-30" x="55.615234"/>
      </g>
     </g>
    </g>
    <g id="text_9">
     <!-- Value -->
     <g transform="translate(17.973438 220.090313)rotate(-90)scale(0.1 -0.1)">
      <defs>
       <path id="Helvetica-56" d="M 850 4591 
L 2169 681 
L 3472 4591 
L 4169 4591 
L 2494 0 
L 1834 0 
L 163 4591 
L 850 4591 
z
" transform="scale(0.015625)"/>
       <path id="Helvetica-6c" d="M 428 4591 
L 991 4591 
L 991 0 
L 428 0 
L 428 4591 
z
" transform="scale(0.015625)"/>
       <path id="Helvetica-75" d="M 975 3347 
L 975 1125 
Q 975 869 1056 706 
Q 1206 406 1616 406 
Q 2203 406 2416 931 
Q 2531 1213 2531 1703 
L 2531 3347 
L 3094 3347 
L 3094 0 
L 2563 0 
L 2569 494 
Q 2459 303 2297 172 
Q 1975 -91 1516 -91 
Q 800 -91 541 388 
Q 400 644 400 1072 
L 400 3347 
L 975 3347 
z
M 1747 3428 
L 1747 3428 
z
" transform="scale(0.015625)"/>
      </defs>
      <use xlink:href="#Helvetica-56"/>
      <use xlink:href="#Helvetica-61" x="66.699219"/>
      <use xlink:href="#Helvetica-6c" x="122.314453"/>
      <use xlink:href="#Helvetica-75" x="144.53125"/>
      <use xlink:href="#Helvetica-65" x="200.146484"/>
     </g>
    </g>
   </g>
   <g id="line2d_8">
    <path d="M 110.479883 351.740066 
L 110.479883 365.831506 
" clip-path="url(#pa3b7414843)" style="fill: none; stroke: #3f3f3f; stroke-width: 1.5; stroke-linecap: square"/>
   </g>
   <g id="line2d_9">
    <path d="M 110.479883 281.282869 
L 110.479883 224.917112 
" clip-path="url(#pa3b7414843)" style="fill: none; stroke: #3f3f3f; stroke-width: 1.5; stroke-linecap: square"/>
   </g>
   <g id="line2d_10">
    <path d="M 87.159805 365.831506 
L 133.799961 365.831506 
" clip-path="url(#pa3b7414843)" style="fill: none; stroke: #3f3f3f; stroke-width: 1.5; stroke-linecap: square"/>
   </g>
   <g id="line2d_11">
    <path d="M 87.159805 224.917112 
L 133.799961 224.917112 
" clip-path="url(#pa3b7414843)" style="fill: none; stroke: #3f3f3f; stroke-width: 1.5; stroke-linecap: square"/>
   </g>
   <g id="line2d_12">
    <defs>
     <path id="m1b309634d9" d="M -0 3.535534 
L 2.12132 0 
L -0 -3.535534 
L -2.12132 -0 
z
" style="stroke: #3f3f3f; stroke-linejoin: miter"/>
    </defs>
    <g clip-path="url(#pa3b7414843)">
     <use xlink:href="#m1b309634d9" x="110.479883" y="98.094157" style="fill: #3f3f3f; stroke: #3f3f3f; stroke-linejoin: miter"/>
     <use xlink:href="#m1b309634d9" x="110.479883" y="48.774119" style="fill: #3f3f3f; stroke: #3f3f3f; stroke-linejoin: miter"/>
     <use xlink:href="#m1b309634d9" x="110.479883" y="154.459915" style="fill: #3f3f3f; stroke: #3f3f3f; stroke-linejoin: miter"/>
     <use xlink:href="#m1b309634d9" x="110.479883" y="55.819839" style="fill: #3f3f3f; stroke: #3f3f3f; stroke-linejoin: miter"/>
    </g>
   </g>
   <g id="line2d_13">
    <path d="M 227.080273 353.501496 
L 227.080273 358.785786 
" clip-path="url(#pa3b7414843)" style="fill: none; stroke: #3f3f3f; stroke-width: 1.5; stroke-linecap: square"/>
   </g>
   <g id="line2d_14">
    <path d="M 227.080273 342.932917 
L 227.080273 337.648627 
" clip-path="url(#pa3b7414843)" style="fill: none; stroke: #3f3f3f; stroke-width: 1.5; stroke-linecap: square"/>
   </g>
   <g id="line2d_15">
    <path d="M 203.760195 358.785786 
L 250.400352 358.785786 
" clip-path="url(#pa3b7414843)" style="fill: none; stroke: #3f3f3f; stroke-width: 1.5; stroke-linecap: square"/>
   </g>
   <g id="line2d_16">
    <path d="M 203.760195 337.648627 
L 250.400352 337.648627 
" clip-path="url(#pa3b7414843)" style="fill: none; stroke: #3f3f3f; stroke-width: 1.5; stroke-linecap: square"/>
   </g>
   <g id="line2d_17"/>
   <g id="line2d_18">
    <path d="M 63.839727 295.374309 
L 157.120039 295.374309 
" clip-path="url(#pa3b7414843)" style="fill: none; stroke: #3f3f3f; stroke-width: 1.5; stroke-linecap: square"/>
   </g>
   <g id="line2d_19">
    <path d="M 180.440117 348.217206 
L 273.72043 348.217206 
" clip-path="url(#pa3b7414843)" style="fill: none; stroke: #3f3f3f; stroke-width: 1.5; stroke-linecap: square"/>
   </g>
   <g id="patch_5">
    <path d="M 42.179688 365.831506 
L 42.179688 84.002718 
" style="fill: none; stroke: #000000; stroke-width: 0.8; stroke-linejoin: miter; stroke-linecap: square"/>
   </g>
   <g id="patch_6">
    <path d="M 110.479883 391.684375 
L 227.080273 391.684375 
" style="fill: none; stroke: #000000; stroke-width: 0.8; stroke-linejoin: miter; stroke-linecap: square"/>
   </g>
   <g id="PathCollection_1">
    <defs>
     <path id="C0_0_77057b9605" d="M 0 2.5 
C 0.663008 2.5 1.29895 2.236584 1.767767 1.767767 
C 2.236584 1.29895 2.5 0.663008 2.5 -0 
C 2.5 -0.663008 2.236584 -1.29895 1.767767 -1.767767 
C 1.29895 -2.236584 0.663008 -2.5 0 -2.5 
C -0.663008 -2.5 -1.29895 -2.236584 -1.767767 -1.767767 
C -2.236584 -1.29895 -2.5 -0.663008 -2.5 0 
C -2.5 0.663008 -2.236584 1.29895 -1.767767 1.767767 
C -1.29895 2.236584 -0.663008 2.5 0 2.5 
z
"/>
    </defs>
    <g clip-path="url(#pa3b7414843)">
     <use xlink:href="#C0_0_77057b9605" x="110.479883" y="365.831506" style="fill: #808080; fill-opacity: 0.75"/>
    </g>
    <g clip-path="url(#pa3b7414843)">
     <use xlink:href="#C0_0_77057b9605" x="110.479883" y="360.19493" style="fill: #808080; fill-opacity: 0.75"/>
    </g>
    <g clip-path="url(#pa3b7414843)">
     <use xlink:href="#C0_0_77057b9605" x="104.668192" y="358.785786" style="fill: #808080; fill-opacity: 0.75"/>
    </g>
    <g clip-path="url(#pa3b7414843)">
     <use xlink:href="#C0_0_77057b9605" x="110.479883" y="351.740066" style="fill: #808080; fill-opacity: 0.75"/>
    </g>
    <g clip-path="url(#pa3b7414843)">
     <use xlink:href="#C0_0_77057b9605" x="104.446126" y="351.740066" style="fill: #808080; fill-opacity: 0.75"/>
    </g>
    <g clip-path="url(#pa3b7414843)">
     <use xlink:href="#C0_0_77057b9605" x="116.51364" y="351.740066" style="fill: #808080; fill-opacity: 0.75"/>
    </g>
    <g clip-path="url(#pa3b7414843)">
     <use xlink:href="#C0_0_77057b9605" x="98.412369" y="351.740066" style="fill: #808080; fill-opacity: 0.75"/>
    </g>
    <g clip-path="url(#pa3b7414843)">
     <use xlink:href="#C0_0_77057b9605" x="110.479883" y="344.694347" style="fill: #808080; fill-opacity: 0.75"/>
    </g>
    <g clip-path="url(#pa3b7414843)">
     <use xlink:href="#C0_0_77057b9605" x="104.446126" y="344.694347" style="fill: #808080; fill-opacity: 0.75"/>
    </g>
    <g clip-path="url(#pa3b7414843)">
     <use xlink:href="#C0_0_77057b9605" x="110.479883" y="330.602907" style="fill: #808080; fill-opacity: 0.75"/>
    </g>
    <g clip-path="url(#pa3b7414843)">
     <use xlink:href="#C0_0_77057b9605" x="104.446126" y="330.602907" style="fill: #808080; fill-opacity: 0.75"/>
    </g>
    <g clip-path="url(#pa3b7414843)">
     <use xlink:href="#C0_0_77057b9605" x="110.479883" y="316.511468" style="fill: #808080; fill-opacity: 0.75"/>
    </g>
    <g clip-path="url(#pa3b7414843)">
     <use xlink:href="#C0_0_77057b9605" x="110.479883" y="295.374309" style="fill: #808080; fill-opacity: 0.75"/>
    </g>
    <g clip-path="url(#pa3b7414843)">
     <use xlink:href="#C0_0_77057b9605" x="104.446126" y="295.374309" style="fill: #808080; fill-opacity: 0.75"/>
    </g>
    <g clip-path="url(#pa3b7414843)">
     <use xlink:href="#C0_0_77057b9605" x="116.51364" y="295.374309" style="fill: #808080; fill-opacity: 0.75"/>
    </g>
    <g clip-path="url(#pa3b7414843)">
     <use xlink:href="#C0_0_77057b9605" x="98.412369" y="295.374309" style="fill: #808080; fill-opacity: 0.75"/>
    </g>
    <g clip-path="url(#pa3b7414843)">
     <use xlink:href="#C0_0_77057b9605" x="122.547396" y="295.374309" style="fill: #808080; fill-opacity: 0.75"/>
    </g>
    <g clip-path="url(#pa3b7414843)">
     <use xlink:href="#C0_0_77057b9605" x="92.378612" y="295.374309" style="fill: #808080; fill-opacity: 0.75"/>
    </g>
    <g clip-path="url(#pa3b7414843)">
     <use xlink:href="#C0_0_77057b9605" x="110.479883" y="281.282869" style="fill: #808080; fill-opacity: 0.75"/>
    </g>
    <g clip-path="url(#pa3b7414843)">
     <use xlink:href="#C0_0_77057b9605" x="110.479883" y="260.14571" style="fill: #808080; fill-opacity: 0.75"/>
    </g>
    <g clip-path="url(#pa3b7414843)">
     <use xlink:href="#C0_0_77057b9605" x="110.479883" y="224.917112" style="fill: #808080; fill-opacity: 0.75"/>
    </g>
    <g clip-path="url(#pa3b7414843)">
     <use xlink:href="#C0_0_77057b9605" x="110.479883" y="154.459915" style="fill: #808080; fill-opacity: 0.75"/>
    </g>
    <g clip-path="url(#pa3b7414843)">
     <use xlink:href="#C0_0_77057b9605" x="110.479883" y="98.094157" style="fill: #808080; fill-opacity: 0.75"/>
    </g>
    <g clip-path="url(#pa3b7414843)">
     <use xlink:href="#C0_0_77057b9605" x="110.479883" y="55.819839" style="fill: #808080; fill-opacity: 0.75"/>
    </g>
    <g clip-path="url(#pa3b7414843)">
     <use xlink:href="#C0_0_77057b9605" x="110.479883" y="48.774119" style="fill: #808080; fill-opacity: 0.75"/>
    </g>
   </g>
   <g id="PathCollection_2">
    <defs>
     <path id="C1_0_77057b9605" d="M 0 2.5 
C 0.663008 2.5 1.29895 2.236584 1.767767 1.767767 
C 2.236584 1.29895 2.5 0.663008 2.5 -0 
C 2.5 -0.663008 2.236584 -1.29895 1.767767 -1.767767 
C 1.29895 -2.236584 0.663008 -2.5 0 -2.5 
C -0.663008 -2.5 -1.29895 -2.236584 -1.767767 -1.767767 
C -2.236584 -1.29895 -2.5 -0.663008 -2.5 0 
C -2.5 0.663008 -2.236584 1.29895 -1.767767 1.767767 
C -1.29895 2.236584 -0.663008 2.5 0 2.5 
z
"/>
    </defs>
    <g clip-path="url(#pa3b7414843)">
     <use xlink:href="#C1_0_77057b9605" x="227.080273" y="358.785786" style="fill: #808080; fill-opacity: 0.75"/>
    </g>
    <g clip-path="url(#pa3b7414843)">
     <use xlink:href="#C1_0_77057b9605" x="227.080273" y="351.740066" style="fill: #808080; fill-opacity: 0.75"/>
    </g>
    <g clip-path="url(#pa3b7414843)">
     <use xlink:href="#C1_0_77057b9605" x="227.080273" y="344.694347" style="fill: #808080; fill-opacity: 0.75"/>
    </g>
    <g clip-path="url(#pa3b7414843)">
     <use xlink:href="#C1_0_77057b9605" x="227.080273" y="337.648627" style="fill: #808080; fill-opacity: 0.75"/>
    </g>
   </g>
  </g>
  <g id="axes_2">
   <g id="patch_7">
    <path d="M 331.999219 381.684375 
L 565.2 381.684375 
L 565.2 32.92125 
L 331.999219 32.92125 
z
" style="fill: #ffffff"/>
   </g>
   <g id="patch_8">
    <path d="M 354.377071 381.684375 
L 366.154889 381.684375 
L 366.154889 234.059772 
L 354.377071 234.059772 
z
" clip-path="url(#p2360bfba7e)" style="fill: #2d1e3e; fill-opacity: 0.5; stroke: #000000; stroke-linejoin: miter"/>
   </g>
   <g id="patch_9">
    <path d="M 377.932706 381.684375 
L 389.710523 381.684375 
L 389.710523 381.684375 
L 377.932706 381.684375 
z
" clip-path="url(#p2360bfba7e)" style="fill: #2d1e3e; fill-opacity: 0.5; stroke: #000000; stroke-linejoin: miter"/>
   </g>
   <g id="patch_10">
    <path d="M 401.48834 381.684375 
L 413.266158 381.684375 
L 413.266158 381.684375 
L 401.48834 381.684375 
z
" clip-path="url(#p2360bfba7e)" style="fill: #2d1e3e; fill-opacity: 0.5; stroke: #000000; stroke-linejoin: miter"/>
   </g>
   <g id="patch_11">
    <path d="M 425.043975 381.684375 
L 436.821792 381.684375 
L 436.821792 381.684375 
L 425.043975 381.684375 
z
" clip-path="url(#p2360bfba7e)" style="fill: #2d1e3e; fill-opacity: 0.5; stroke: #000000; stroke-linejoin: miter"/>
   </g>
   <g id="patch_12">
    <path d="M 448.599609 381.684375 
L 460.377427 381.684375 
L 460.377427 381.684375 
L 448.599609 381.684375 
z
" clip-path="url(#p2360bfba7e)" style="fill: #2d1e3e; fill-opacity: 0.5; stroke: #000000; stroke-linejoin: miter"/>
   </g>
   <g id="patch_13">
    <path d="M 472.155244 381.684375 
L 483.933061 381.684375 
L 483.933061 381.684375 
L 472.155244 381.684375 
z
" clip-path="url(#p2360bfba7e)" style="fill: #2d1e3e; fill-opacity: 0.5; stroke: #000000; stroke-linejoin: miter"/>
   </g>
   <g id="patch_14">
    <path d="M 495.710878 381.684375 
L 507.488696 381.684375 
L 507.488696 381.684375 
L 495.710878 381.684375 
z
" clip-path="url(#p2360bfba7e)" style="fill: #2d1e3e; fill-opacity: 0.5; stroke: #000000; stroke-linejoin: miter"/>
   </g>
   <g id="patch_15">
    <path d="M 519.266513 381.684375 
L 531.04433 381.684375 
L 531.04433 381.684375 
L 519.266513 381.684375 
z
" clip-path="url(#p2360bfba7e)" style="fill: #2d1e3e; fill-opacity: 0.5; stroke: #000000; stroke-linejoin: miter"/>
   </g>
   <g id="patch_16">
    <path d="M 542.822147 381.684375 
L 554.599964 381.684375 
L 554.599964 381.684375 
L 542.822147 381.684375 
z
" clip-path="url(#p2360bfba7e)" style="fill: #2d1e3e; fill-opacity: 0.5; stroke: #000000; stroke-linejoin: miter"/>
   </g>
   <g id="patch_17">
    <path d="M 342.599254 381.684375 
L 354.377071 381.684375 
L 354.377071 49.529018 
L 342.599254 49.529018 
z
" clip-path="url(#p2360bfba7e)" style="fill: #edd1cb; fill-opacity: 0.5; stroke: #000000; stroke-linejoin: miter"/>
   </g>
   <g id="patch_18">
    <path d="M 366.154889 381.684375 
L 377.932706 381.684375 
L 377.932706 270.965923 
L 366.154889 270.965923 
z
" clip-path="url(#p2360bfba7e)" style="fill: #edd1cb; fill-opacity: 0.5; stroke: #000000; stroke-linejoin: miter"/>
   </g>
   <g id="patch_19">
    <path d="M 389.710523 381.684375 
L 401.48834 381.684375 
L 401.48834 123.341319 
L 389.710523 123.341319 
z
" clip-path="url(#p2360bfba7e)" style="fill: #edd1cb; fill-opacity: 0.5; stroke: #000000; stroke-linejoin: miter"/>
   </g>
   <g id="patch_20">
    <path d="M 413.266158 381.684375 
L 425.043975 381.684375 
L 425.043975 344.778224 
L 413.266158 344.778224 
z
" clip-path="url(#p2360bfba7e)" style="fill: #edd1cb; fill-opacity: 0.5; stroke: #000000; stroke-linejoin: miter"/>
   </g>
   <g id="patch_21">
    <path d="M 436.821792 381.684375 
L 448.599609 381.684375 
L 448.599609 344.778224 
L 436.821792 344.778224 
z
" clip-path="url(#p2360bfba7e)" style="fill: #edd1cb; fill-opacity: 0.5; stroke: #000000; stroke-linejoin: miter"/>
   </g>
   <g id="patch_22">
    <path d="M 460.377427 381.684375 
L 472.155244 381.684375 
L 472.155244 381.684375 
L 460.377427 381.684375 
z
" clip-path="url(#p2360bfba7e)" style="fill: #edd1cb; fill-opacity: 0.5; stroke: #000000; stroke-linejoin: miter"/>
   </g>
   <g id="patch_23">
    <path d="M 483.933061 381.684375 
L 495.710878 381.684375 
L 495.710878 344.778224 
L 483.933061 344.778224 
z
" clip-path="url(#p2360bfba7e)" style="fill: #edd1cb; fill-opacity: 0.5; stroke: #000000; stroke-linejoin: miter"/>
   </g>
   <g id="patch_24">
    <path d="M 507.488696 381.684375 
L 519.266513 381.684375 
L 519.266513 344.778224 
L 507.488696 344.778224 
z
" clip-path="url(#p2360bfba7e)" style="fill: #edd1cb; fill-opacity: 0.5; stroke: #000000; stroke-linejoin: miter"/>
   </g>
   <g id="patch_25">
    <path d="M 531.04433 381.684375 
L 542.822147 381.684375 
L 542.822147 307.872073 
L 531.04433 307.872073 
z
" clip-path="url(#p2360bfba7e)" style="fill: #edd1cb; fill-opacity: 0.5; stroke: #000000; stroke-linejoin: miter"/>
   </g>
   <g id="matplotlib.axis_3">
    <g id="xtick_3">
     <g id="line2d_20">
      <g>
       <use xlink:href="#m4c99cd72f3" x="342.599254" y="391.684375" style="stroke: #000000; stroke-width: 0.8"/>
      </g>
     </g>
     <g id="text_10">
      <!-- 0 -->
      <g transform="translate(339.818786 405.857813)scale(0.1 -0.1)">
       <use xlink:href="#Helvetica-30"/>
      </g>
     </g>
    </g>
    <g id="xtick_4">
     <g id="line2d_21">
      <g>
       <use xlink:href="#m4c99cd72f3" x="389.710523" y="391.684375" style="stroke: #000000; stroke-width: 0.8"/>
      </g>
     </g>
     <g id="text_11">
      <!-- 10 -->
      <g transform="translate(384.149586 405.857813)scale(0.1 -0.1)">
       <use xlink:href="#Helvetica-31"/>
       <use xlink:href="#Helvetica-30" x="55.615234"/>
      </g>
     </g>
    </g>
    <g id="xtick_5">
     <g id="line2d_22">
      <g>
       <use xlink:href="#m4c99cd72f3" x="436.821792" y="391.684375" style="stroke: #000000; stroke-width: 0.8"/>
      </g>
     </g>
     <g id="text_12">
      <!-- 20 -->
      <g transform="translate(431.260855 405.857813)scale(0.1 -0.1)">
       <use xlink:href="#Helvetica-32"/>
       <use xlink:href="#Helvetica-30" x="55.615234"/>
      </g>
     </g>
    </g>
    <g id="xtick_6">
     <g id="line2d_23">
      <g>
       <use xlink:href="#m4c99cd72f3" x="483.933061" y="391.684375" style="stroke: #000000; stroke-width: 0.8"/>
      </g>
     </g>
     <g id="text_13">
      <!-- 30 -->
      <g transform="translate(478.372124 405.857813)scale(0.1 -0.1)">
       <use xlink:href="#Helvetica-33"/>
       <use xlink:href="#Helvetica-30" x="55.615234"/>
      </g>
     </g>
    </g>
    <g id="xtick_7">
     <g id="line2d_24">
      <g>
       <use xlink:href="#m4c99cd72f3" x="531.04433" y="391.684375" style="stroke: #000000; stroke-width: 0.8"/>
      </g>
     </g>
     <g id="text_14">
      <!-- 40 -->
      <g transform="translate(525.483393 405.857813)scale(0.1 -0.1)">
       <use xlink:href="#Helvetica-34"/>
       <use xlink:href="#Helvetica-30" x="55.615234"/>
      </g>
     </g>
    </g>
    <g id="text_15">
     <!-- Value -->
     <g transform="translate(435.812109 419.115625)scale(0.1 -0.1)">
      <use xlink:href="#Helvetica-56"/>
      <use xlink:href="#Helvetica-61" x="66.699219"/>
      <use xlink:href="#Helvetica-6c" x="122.314453"/>
      <use xlink:href="#Helvetica-75" x="144.53125"/>
      <use xlink:href="#Helvetica-65" x="200.146484"/>
     </g>
    </g>
   </g>
   <g id="matplotlib.axis_4">
    <g id="ytick_6">
     <g id="line2d_25">
      <g>
       <use xlink:href="#m8e343aef83" x="321.999219" y="381.684375" style="stroke: #000000; stroke-width: 0.8"/>
      </g>
     </g>
     <g id="text_16">
      <!-- 0 -->
      <g transform="translate(309.438281 385.271094)scale(0.1 -0.1)">
       <use xlink:href="#Helvetica-30"/>
      </g>
     </g>
    </g>
    <g id="ytick_7">
     <g id="line2d_26">
      <g>
       <use xlink:href="#m8e343aef83" x="321.999219" y="307.872073" style="stroke: #000000; stroke-width: 0.8"/>
      </g>
     </g>
     <g id="text_17">
      <!-- 2 -->
      <g transform="translate(309.438281 311.458792)scale(0.1 -0.1)">
       <use xlink:href="#Helvetica-32"/>
      </g>
     </g>
    </g>
    <g id="ytick_8">
     <g id="line2d_27">
      <g>
       <use xlink:href="#m8e343aef83" x="321.999219" y="234.059772" style="stroke: #000000; stroke-width: 0.8"/>
      </g>
     </g>
     <g id="text_18">
      <!-- 4 -->
      <g transform="translate(309.438281 237.646491)scale(0.1 -0.1)">
       <use xlink:href="#Helvetica-34"/>
      </g>
     </g>
    </g>
    <g id="ytick_9">
     <g id="line2d_28">
      <g>
       <use xlink:href="#m8e343aef83" x="321.999219" y="160.24747" style="stroke: #000000; stroke-width: 0.8"/>
      </g>
     </g>
     <g id="text_19">
      <!-- 6 -->
      <g transform="translate(309.438281 163.834189)scale(0.1 -0.1)">
       <defs>
        <path id="Helvetica-36" d="M 1872 4494 
Q 2622 4494 2917 4105 
Q 3213 3716 3213 3303 
L 2656 3303 
Q 2606 3569 2497 3719 
Q 2294 4000 1881 4000 
Q 1409 4000 1131 3564 
Q 853 3128 822 2316 
Q 1016 2600 1309 2741 
Q 1578 2866 1909 2866 
Q 2472 2866 2890 2506 
Q 3309 2147 3309 1434 
Q 3309 825 2912 354 
Q 2516 -116 1781 -116 
Q 1153 -116 697 361 
Q 241 838 241 1966 
Q 241 2800 444 3381 
Q 834 4494 1872 4494 
z
M 1831 384 
Q 2275 384 2495 682 
Q 2716 981 2716 1388 
Q 2716 1731 2519 2042 
Q 2322 2353 1803 2353 
Q 1441 2353 1167 2112 
Q 894 1872 894 1388 
Q 894 963 1142 673 
Q 1391 384 1831 384 
z
" transform="scale(0.015625)"/>
       </defs>
       <use xlink:href="#Helvetica-36"/>
      </g>
     </g>
    </g>
    <g id="ytick_10">
     <g id="line2d_29">
      <g>
       <use xlink:href="#m8e343aef83" x="321.999219" y="86.435169" style="stroke: #000000; stroke-width: 0.8"/>
      </g>
     </g>
     <g id="text_20">
      <!-- 8 -->
      <g transform="translate(309.438281 90.021887)scale(0.1 -0.1)">
       <use xlink:href="#Helvetica-38"/>
      </g>
     </g>
    </g>
    <g id="text_21">
     <!-- Count -->
     <g transform="translate(303.353906 220.644219)rotate(-90)scale(0.1 -0.1)">
      <defs>
       <path id="Helvetica-43" d="M 2422 4716 
Q 3294 4716 3775 4256 
Q 4256 3797 4309 3213 
L 3703 3213 
Q 3600 3656 3292 3915 
Q 2984 4175 2428 4175 
Q 1750 4175 1333 3698 
Q 916 3222 916 2238 
Q 916 1431 1292 929 
Q 1669 428 2416 428 
Q 3103 428 3463 956 
Q 3653 1234 3747 1688 
L 4353 1688 
Q 4272 963 3816 472 
Q 3269 -119 2341 -119 
Q 1541 -119 997 366 
Q 281 1006 281 2344 
Q 281 3359 819 4009 
Q 1400 4716 2422 4716 
z
M 2297 4716 
L 2297 4716 
z
" transform="scale(0.015625)"/>
       <path id="Helvetica-6f" d="M 1741 363 
Q 2300 363 2508 786 
Q 2716 1209 2716 1728 
Q 2716 2197 2566 2491 
Q 2328 2953 1747 2953 
Q 1231 2953 997 2559 
Q 763 2166 763 1609 
Q 763 1075 997 719 
Q 1231 363 1741 363 
z
M 1763 3444 
Q 2409 3444 2856 3012 
Q 3303 2581 3303 1744 
Q 3303 934 2909 406 
Q 2516 -122 1688 -122 
Q 997 -122 590 345 
Q 184 813 184 1600 
Q 184 2444 612 2944 
Q 1041 3444 1763 3444 
z
M 1744 3428 
L 1744 3428 
z
" transform="scale(0.015625)"/>
       <path id="Helvetica-6e" d="M 413 3347 
L 947 3347 
L 947 2872 
Q 1184 3166 1450 3294 
Q 1716 3422 2041 3422 
Q 2753 3422 3003 2925 
Q 3141 2653 3141 2147 
L 3141 0 
L 2569 0 
L 2569 2109 
Q 2569 2416 2478 2603 
Q 2328 2916 1934 2916 
Q 1734 2916 1606 2875 
Q 1375 2806 1200 2600 
Q 1059 2434 1017 2257 
Q 975 2081 975 1753 
L 975 0 
L 413 0 
L 413 3347 
z
M 1734 3428 
L 1734 3428 
z
" transform="scale(0.015625)"/>
       <path id="Helvetica-74" d="M 525 4281 
L 1094 4281 
L 1094 3347 
L 1628 3347 
L 1628 2888 
L 1094 2888 
L 1094 703 
Q 1094 528 1213 469 
Q 1278 434 1431 434 
Q 1472 434 1519 436 
Q 1566 438 1628 444 
L 1628 0 
Q 1531 -28 1426 -40 
Q 1322 -53 1200 -53 
Q 806 -53 665 148 
Q 525 350 525 672 
L 525 2888 
L 72 2888 
L 72 3347 
L 525 3347 
L 525 4281 
z
" transform="scale(0.015625)"/>
      </defs>
      <use xlink:href="#Helvetica-43"/>
      <use xlink:href="#Helvetica-6f" x="72.216797"/>
      <use xlink:href="#Helvetica-75" x="127.832031"/>
      <use xlink:href="#Helvetica-6e" x="183.447266"/>
      <use xlink:href="#Helvetica-74" x="239.0625"/>
     </g>
    </g>
   </g>
   <g id="line2d_30">
    <path d="M 342.599254 327.040688 
L 344.729915 293.184005 
L 346.860575 258.500845 
L 347.925905 243.259377 
L 348.991235 230.341522 
L 350.056566 220.053264 
L 351.121896 212.406507 
L 352.187226 207.211863 
L 353.252556 204.203828 
L 354.317886 203.161368 
L 355.383217 203.993939 
L 356.448547 206.774476 
L 357.513877 211.712906 
L 358.579207 219.075335 
L 359.644537 229.066013 
L 360.709868 241.700902 
L 361.775198 256.709453 
L 367.101849 339.907815 
L 368.167179 352.08183 
L 369.232509 361.661337 
L 370.29784 368.77388 
L 371.36317 373.7578 
L 372.4285 377.054513 
L 373.49383 379.113527 
L 374.55916 380.328064 
L 375.624491 381.004834 
L 376.689821 381.361165 
L 378.820481 381.621889 
L 383.081802 381.683136 
L 526.901379 381.684375 
L 554.599964 381.684375 
L 554.599964 381.684375 
" clip-path="url(#p2360bfba7e)" style="fill: none; stroke: #2d1e3e; stroke-width: 1.5; stroke-linecap: square"/>
   </g>
   <g id="line2d_31">
    <path d="M 342.599254 241.818794 
L 345.795245 234.403947 
L 348.991235 227.647841 
L 351.121896 223.56123 
L 353.252556 219.84085 
L 355.383217 216.511031 
L 357.513877 213.592879 
L 359.644537 211.10408 
L 361.775198 209.058767 
L 363.905858 207.467423 
L 366.036519 206.336849 
L 368.167179 205.67017 
L 369.232509 205.510775 
L 370.29784 205.466889 
L 371.36317 205.537899 
L 372.4285 205.722979 
L 374.55916 206.431018 
L 376.689821 207.580344 
L 378.820481 209.157254 
L 380.951142 211.145207 
L 383.081802 213.525067 
L 385.212462 216.275344 
L 387.343123 219.372455 
L 389.473783 222.790996 
L 392.669774 228.462172 
L 395.865764 234.699592 
L 399.061755 241.402913 
L 403.323076 250.888086 
L 409.715057 265.797932 
L 419.303029 288.185535 
L 423.56435 297.635136 
L 427.82567 306.550617 
L 431.021661 312.813911 
L 434.217652 318.670948 
L 437.413642 324.093682 
L 440.609633 329.06385 
L 443.805623 333.57235 
L 447.001614 337.618445 
L 450.197605 341.208803 
L 453.393595 344.356445 
L 456.589586 347.079637 
L 459.785576 349.400768 
L 462.981567 351.345267 
L 466.177558 352.940575 
L 469.373548 354.215236 
L 472.569539 355.198096 
L 475.76553 355.917654 
L 478.96152 356.401565 
L 482.157511 356.676303 
L 485.353501 356.766973 
L 489.614822 356.642304 
L 493.876143 356.284986 
L 499.202794 355.586076 
L 505.594775 354.498491 
L 522.640058 351.435471 
L 527.966709 350.787576 
L 532.22803 350.486415 
L 536.489351 350.422481 
L 540.750672 350.628416 
L 543.946662 350.973873 
L 547.142653 351.488945 
L 551.403974 352.440213 
L 554.599964 353.346357 
L 554.599964 353.346357 
" clip-path="url(#p2360bfba7e)" style="fill: none; stroke: #edd1cb; stroke-width: 1.5; stroke-linecap: square"/>
   </g>
   <g id="patch_26">
    <path d="M 321.999219 381.684375 
L 321.999219 86.435169 
" style="fill: none; stroke: #000000; stroke-width: 0.8; stroke-linejoin: miter; stroke-linecap: square"/>
   </g>
   <g id="patch_27">
    <path d="M 342.599254 391.684375 
L 531.04433 391.684375 
" style="fill: none; stroke: #000000; stroke-width: 0.8; stroke-linejoin: miter; stroke-linecap: square"/>
   </g>
   <g id="legend_1">
    <g id="patch_28">
     <path d="M 503.95625 83.694688 
L 558.2 83.694688 
Q 560.2 83.694688 560.2 81.694688 
L 560.2 39.92125 
Q 560.2 37.92125 558.2 37.92125 
L 503.95625 37.92125 
Q 501.95625 37.92125 501.95625 39.92125 
L 501.95625 81.694688 
Q 501.95625 83.694688 503.95625 83.694688 
z
" style="fill: #ffffff; opacity: 0.8; stroke: #cccccc; stroke-linejoin: miter"/>
    </g>
    <g id="text_22">
     <!-- Year -->
     <g transform="translate(520.517187 49.094688)scale(0.1 -0.1)">
      <use xlink:href="#Helvetica-59"/>
      <use xlink:href="#Helvetica-65" x="66.699219"/>
      <use xlink:href="#Helvetica-61" x="122.314453"/>
      <use xlink:href="#Helvetica-72" x="177.929688"/>
     </g>
    </g>
    <g id="patch_29">
     <path d="M 505.95625 63.3525 
L 525.95625 63.3525 
L 525.95625 56.3525 
L 505.95625 56.3525 
z
" style="fill: #edd1cb; fill-opacity: 0.5; stroke: #000000; stroke-linejoin: miter"/>
    </g>
    <g id="text_23">
     <!-- 2018 -->
     <g transform="translate(533.95625 63.3525)scale(0.1 -0.1)">
      <use xlink:href="#Helvetica-32"/>
      <use xlink:href="#Helvetica-30" x="55.615234"/>
      <use xlink:href="#Helvetica-31" x="111.230469"/>
      <use xlink:href="#Helvetica-38" x="166.845703"/>
     </g>
    </g>
    <g id="patch_30">
     <path d="M 505.95625 77.610313 
L 525.95625 77.610313 
L 525.95625 70.610313 
L 505.95625 70.610313 
z
" style="fill: #2d1e3e; fill-opacity: 0.5; stroke: #000000; stroke-linejoin: miter"/>
    </g>
    <g id="text_24">
     <!-- 2022 -->
     <g transform="translate(533.95625 77.610313)scale(0.1 -0.1)">
      <use xlink:href="#Helvetica-32"/>
      <use xlink:href="#Helvetica-30" x="55.615234"/>
      <use xlink:href="#Helvetica-32" x="111.230469"/>
      <use xlink:href="#Helvetica-32" x="166.845703"/>
     </g>
    </g>
   </g>
  </g>
  <g id="text_25">
   <!-- Duration of contract in year for New Zealand (without 95 percentile) -->
   <g transform="translate(109.591875 17.38875)scale(0.12 -0.12)">
    <defs>
     <path id="Helvetica-44" d="M 2250 531 
Q 2566 531 2769 597 
Q 3131 719 3363 1066 
Q 3547 1344 3628 1778 
Q 3675 2038 3675 2259 
Q 3675 3113 3336 3584 
Q 2997 4056 2244 4056 
L 1141 4056 
L 1141 531 
L 2250 531 
z
M 516 4591 
L 2375 4591 
Q 3322 4591 3844 3919 
Q 4309 3313 4309 2366 
Q 4309 1634 4034 1044 
Q 3550 0 2369 0 
L 516 0 
L 516 4591 
z
" transform="scale(0.015625)"/>
     <path id="Helvetica-69" d="M 413 3331 
L 984 3331 
L 984 0 
L 413 0 
L 413 3331 
z
M 413 4591 
L 984 4591 
L 984 3953 
L 413 3953 
L 413 4591 
z
" transform="scale(0.015625)"/>
     <path id="Helvetica-20" transform="scale(0.015625)"/>
     <path id="Helvetica-66" d="M 553 3856 
Q 566 4206 675 4369 
Q 872 4656 1434 4656 
Q 1488 4656 1544 4653 
Q 1600 4650 1672 4644 
L 1672 4131 
Q 1584 4138 1545 4139 
Q 1506 4141 1472 4141 
Q 1216 4141 1166 4008 
Q 1116 3875 1116 3331 
L 1672 3331 
L 1672 2888 
L 1109 2888 
L 1109 0 
L 553 0 
L 553 2888 
L 88 2888 
L 88 3331 
L 553 3331 
L 553 3856 
z
" transform="scale(0.015625)"/>
     <path id="Helvetica-63" d="M 1703 3444 
Q 2269 3444 2623 3169 
Q 2978 2894 3050 2222 
L 2503 2222 
Q 2453 2531 2275 2736 
Q 2097 2941 1703 2941 
Q 1166 2941 934 2416 
Q 784 2075 784 1575 
Q 784 1072 996 728 
Q 1209 384 1666 384 
Q 2016 384 2220 598 
Q 2425 813 2503 1184 
L 3050 1184 
Q 2956 519 2581 211 
Q 2206 -97 1622 -97 
Q 966 -97 575 383 
Q 184 863 184 1581 
Q 184 2463 612 2953 
Q 1041 3444 1703 3444 
z
M 1616 3428 
L 1616 3428 
z
" transform="scale(0.015625)"/>
     <path id="Helvetica-79" d="M 2503 3347 
L 3125 3347 
Q 3006 3025 2597 1878 
Q 2291 1016 2084 472 
Q 1597 -809 1397 -1090 
Q 1197 -1372 709 -1372 
Q 591 -1372 527 -1362 
Q 463 -1353 369 -1328 
L 369 -816 
Q 516 -856 581 -865 
Q 647 -875 697 -875 
Q 853 -875 926 -823 
Q 1000 -772 1050 -697 
Q 1066 -672 1162 -440 
Q 1259 -209 1303 -97 
L 66 3347 
L 703 3347 
L 1600 622 
L 2503 3347 
z
M 1597 3428 
L 1597 3428 
z
" transform="scale(0.015625)"/>
     <path id="Helvetica-4e" d="M 488 4591 
L 1222 4591 
L 3541 872 
L 3541 4591 
L 4131 4591 
L 4131 0 
L 3434 0 
L 1081 3716 
L 1081 0 
L 488 0 
L 488 4591 
z
M 2269 4591 
L 2269 4591 
z
" transform="scale(0.015625)"/>
     <path id="Helvetica-77" d="M 672 3347 
L 1316 709 
L 1969 3347 
L 2600 3347 
L 3256 725 
L 3941 3347 
L 4503 3347 
L 3531 0 
L 2947 0 
L 2266 2591 
L 1606 0 
L 1022 0 
L 56 3347 
L 672 3347 
z
" transform="scale(0.015625)"/>
     <path id="Helvetica-5a" d="M 147 516 
L 2963 4044 
L 353 4044 
L 353 4591 
L 3763 4591 
L 3763 4056 
L 931 547 
L 3763 547 
L 3763 0 
L 147 0 
L 147 516 
z
M 2059 4591 
L 2059 4591 
z
" transform="scale(0.015625)"/>
     <path id="Helvetica-64" d="M 769 1634 
Q 769 1097 997 734 
Q 1225 372 1728 372 
Q 2119 372 2370 708 
Q 2622 1044 2622 1672 
Q 2622 2306 2362 2611 
Q 2103 2916 1722 2916 
Q 1297 2916 1033 2591 
Q 769 2266 769 1634 
z
M 1616 3406 
Q 2000 3406 2259 3244 
Q 2409 3150 2600 2916 
L 2600 4606 
L 3141 4606 
L 3141 0 
L 2634 0 
L 2634 466 
Q 2438 156 2169 18 
Q 1900 -119 1553 -119 
Q 994 -119 584 351 
Q 175 822 175 1603 
Q 175 2334 548 2870 
Q 922 3406 1616 3406 
z
" transform="scale(0.015625)"/>
     <path id="Helvetica-28" d="M 1894 4666 
Q 1403 3713 1256 3263 
Q 1034 2578 1034 1681 
Q 1034 775 1288 25 
Q 1444 -438 1903 -1306 
L 1525 -1306 
Q 1069 -594 959 -397 
Q 850 -200 722 138 
Q 547 600 478 1125 
Q 444 1397 444 1644 
Q 444 2569 734 3291 
Q 919 3750 1503 4666 
L 1894 4666 
z
" transform="scale(0.015625)"/>
     <path id="Helvetica-68" d="M 413 4606 
L 975 4606 
L 975 2894 
Q 1175 3147 1334 3250 
Q 1606 3428 2013 3428 
Q 2741 3428 3000 2919 
Q 3141 2641 3141 2147 
L 3141 0 
L 2563 0 
L 2563 2109 
Q 2563 2478 2469 2650 
Q 2316 2925 1894 2925 
Q 1544 2925 1259 2684 
Q 975 2444 975 1775 
L 975 0 
L 413 0 
L 413 4606 
z
" transform="scale(0.015625)"/>
     <path id="Helvetica-39" d="M 850 1081 
Q 875 616 1209 438 
Q 1381 344 1597 344 
Q 2000 344 2284 680 
Q 2569 1016 2688 2044 
Q 2500 1747 2223 1626 
Q 1947 1506 1628 1506 
Q 981 1506 604 1909 
Q 228 2313 228 2947 
Q 228 3556 600 4018 
Q 972 4481 1697 4481 
Q 2675 4481 3047 3600 
Q 3253 3116 3253 2388 
Q 3253 1566 3006 931 
Q 2597 -125 1619 -125 
Q 963 -125 622 219 
Q 281 563 281 1081 
L 850 1081 
z
M 1703 2000 
Q 2038 2000 2314 2220 
Q 2591 2441 2591 2991 
Q 2591 3484 2342 3726 
Q 2094 3969 1709 3969 
Q 1297 3969 1055 3692 
Q 813 3416 813 2953 
Q 813 2516 1025 2258 
Q 1238 2000 1703 2000 
z
" transform="scale(0.015625)"/>
     <path id="Helvetica-35" d="M 791 1141 
Q 847 659 1238 475 
Q 1438 381 1700 381 
Q 2200 381 2440 700 
Q 2681 1019 2681 1406 
Q 2681 1875 2395 2131 
Q 2109 2388 1709 2388 
Q 1419 2388 1211 2275 
Q 1003 2163 856 1963 
L 369 1991 
L 709 4400 
L 3034 4400 
L 3034 3856 
L 1131 3856 
L 941 2613 
Q 1097 2731 1238 2791 
Q 1488 2894 1816 2894 
Q 2431 2894 2859 2497 
Q 3288 2100 3288 1491 
Q 3288 856 2895 371 
Q 2503 -113 1644 -113 
Q 1097 -113 676 195 
Q 256 503 206 1141 
L 791 1141 
z
" transform="scale(0.015625)"/>
     <path id="Helvetica-70" d="M 1825 378 
Q 2219 378 2480 708 
Q 2741 1038 2741 1694 
Q 2741 2094 2625 2381 
Q 2406 2934 1825 2934 
Q 1241 2934 1025 2350 
Q 909 2038 909 1556 
Q 909 1169 1025 897 
Q 1244 378 1825 378 
z
M 369 3331 
L 916 3331 
L 916 2888 
Q 1084 3116 1284 3241 
Q 1569 3428 1953 3428 
Q 2522 3428 2919 2992 
Q 3316 2556 3316 1747 
Q 3316 653 2744 184 
Q 2381 -113 1900 -113 
Q 1522 -113 1266 53 
Q 1116 147 931 375 
L 931 -1334 
L 369 -1334 
L 369 3331 
z
" transform="scale(0.015625)"/>
     <path id="Helvetica-29" d="M 222 -1306 
Q 719 -338 863 106 
Q 1081 778 1081 1681 
Q 1081 2584 828 3334 
Q 672 3797 213 4666 
L 591 4666 
Q 1072 3897 1173 3717 
Q 1275 3538 1394 3222 
Q 1544 2831 1608 2450 
Q 1672 2069 1672 1716 
Q 1672 791 1378 66 
Q 1194 -400 613 -1306 
L 222 -1306 
z
" transform="scale(0.015625)"/>
    </defs>
    <use xlink:href="#Helvetica-44"/>
    <use xlink:href="#Helvetica-75" x="72.216797"/>
    <use xlink:href="#Helvetica-72" x="127.832031"/>
    <use xlink:href="#Helvetica-61" x="161.132812"/>
    <use xlink:href="#Helvetica-74" x="216.748047"/>
    <use xlink:href="#Helvetica-69" x="244.53125"/>
    <use xlink:href="#Helvetica-6f" x="266.748047"/>
    <use xlink:href="#Helvetica-6e" x="322.363281"/>
    <use xlink:href="#Helvetica-20" x="377.978516"/>
    <use xlink:href="#Helvetica-6f" x="405.761719"/>
    <use xlink:href="#Helvetica-66" x="461.376953"/>
    <use xlink:href="#Helvetica-20" x="489.160156"/>
    <use xlink:href="#Helvetica-63" x="516.943359"/>
    <use xlink:href="#Helvetica-6f" x="566.943359"/>
    <use xlink:href="#Helvetica-6e" x="622.558594"/>
    <use xlink:href="#Helvetica-74" x="678.173828"/>
    <use xlink:href="#Helvetica-72" x="705.957031"/>
    <use xlink:href="#Helvetica-61" x="739.257812"/>
    <use xlink:href="#Helvetica-63" x="794.873047"/>
    <use xlink:href="#Helvetica-74" x="844.873047"/>
    <use xlink:href="#Helvetica-20" x="872.65625"/>
    <use xlink:href="#Helvetica-69" x="900.439453"/>
    <use xlink:href="#Helvetica-6e" x="922.65625"/>
    <use xlink:href="#Helvetica-20" x="978.271484"/>
    <use xlink:href="#Helvetica-79" x="1006.054688"/>
    <use xlink:href="#Helvetica-65" x="1056.054688"/>
    <use xlink:href="#Helvetica-61" x="1111.669922"/>
    <use xlink:href="#Helvetica-72" x="1167.285156"/>
    <use xlink:href="#Helvetica-20" x="1200.585938"/>
    <use xlink:href="#Helvetica-66" x="1228.369141"/>
    <use xlink:href="#Helvetica-6f" x="1256.152344"/>
    <use xlink:href="#Helvetica-72" x="1311.767578"/>
    <use xlink:href="#Helvetica-20" x="1345.068359"/>
    <use xlink:href="#Helvetica-4e" x="1372.851562"/>
    <use xlink:href="#Helvetica-65" x="1445.068359"/>
    <use xlink:href="#Helvetica-77" x="1500.683594"/>
    <use xlink:href="#Helvetica-20" x="1572.900391"/>
    <use xlink:href="#Helvetica-5a" x="1600.683594"/>
    <use xlink:href="#Helvetica-65" x="1661.767578"/>
    <use xlink:href="#Helvetica-61" x="1717.382812"/>
    <use xlink:href="#Helvetica-6c" x="1772.998047"/>
    <use xlink:href="#Helvetica-61" x="1795.214844"/>
    <use xlink:href="#Helvetica-6e" x="1850.830078"/>
    <use xlink:href="#Helvetica-64" x="1906.445312"/>
    <use xlink:href="#Helvetica-20" x="1962.060547"/>
    <use xlink:href="#Helvetica-28" x="1989.84375"/>
    <use xlink:href="#Helvetica-77" x="2023.144531"/>
    <use xlink:href="#Helvetica-69" x="2095.361328"/>
    <use xlink:href="#Helvetica-74" x="2117.578125"/>
    <use xlink:href="#Helvetica-68" x="2145.361328"/>
    <use xlink:href="#Helvetica-6f" x="2200.976562"/>
    <use xlink:href="#Helvetica-75" x="2256.591797"/>
    <use xlink:href="#Helvetica-74" x="2312.207031"/>
    <use xlink:href="#Helvetica-20" x="2339.990234"/>
    <use xlink:href="#Helvetica-39" x="2367.773438"/>
    <use xlink:href="#Helvetica-35" x="2423.388672"/>
    <use xlink:href="#Helvetica-20" x="2479.003906"/>
    <use xlink:href="#Helvetica-70" x="2506.787109"/>
    <use xlink:href="#Helvetica-65" x="2562.402344"/>
    <use xlink:href="#Helvetica-72" x="2618.017578"/>
    <use xlink:href="#Helvetica-63" x="2651.318359"/>
    <use xlink:href="#Helvetica-65" x="2701.318359"/>
    <use xlink:href="#Helvetica-6e" x="2756.933594"/>
    <use xlink:href="#Helvetica-74" x="2812.548828"/>
    <use xlink:href="#Helvetica-69" x="2840.332031"/>
    <use xlink:href="#Helvetica-6c" x="2862.548828"/>
    <use xlink:href="#Helvetica-65" x="2884.765625"/>
    <use xlink:href="#Helvetica-29" x="2940.380859"/>
   </g>
  </g>
 </g>
 <defs>
  <clipPath id="pa3b7414843">
   <rect x="52.179688" y="32.92125" width="233.200781" height="348.763125"/>
  </clipPath>
  <clipPath id="p2360bfba7e">
   <rect x="331.999219" y="32.92125" width="233.200781" height="348.763125"/>
  </clipPath>
 </defs>
</svg>
