<?xml version="1.0" encoding="utf-8" standalone="no"?>
<!DOCTYPE svg PUBLIC "-//W3C//DTD SVG 1.1//EN"
  "http://www.w3.org/Graphics/SVG/1.1/DTD/svg11.dtd">
<svg xmlns:xlink="http://www.w3.org/1999/xlink" width="460.8pt" height="192pt" viewBox="0 0 460.8 192" xmlns="http://www.w3.org/2000/svg" version="1.1">
 <metadata>
  <rdf:RDF xmlns:dc="http://purl.org/dc/elements/1.1/" xmlns:cc="http://creativecommons.org/ns#" xmlns:rdf="http://www.w3.org/1999/02/22-rdf-syntax-ns#">
   <cc:Work>
    <dc:type rdf:resource="http://purl.org/dc/dcmitype/StillImage"/>
    <dc:date>2022-05-19T12:23:12.980053</dc:date>
    <dc:format>image/svg+xml</dc:format>
    <dc:creator>
     <cc:Agent>
      <dc:title>Matplotlib v3.5.1, https://matplotlib.org/</dc:title>
     </cc:Agent>
    </dc:creator>
   </cc:Work>
  </rdf:RDF>
 </metadata>
 <defs>
  <style type="text/css">*{stroke-linejoin: round; stroke-linecap: butt}</style>
 </defs>
 <g id="figure_1">
  <g id="patch_1">
   <path d="M 0 192 
L 460.8 192 
L 460.8 0 
L 0 0 
z
" style="fill: #ffffff"/>
  </g>
  <g id="axes_1">
   <g id="patch_2">
    <path d="M 130.06875 164.942188 
L 389.475422 164.942188 
L 389.475422 25.6425 
L 130.06875 25.6425 
z
" style="fill: #ffffff"/>
   </g>
   <g id="patch_3">
    <path d="M 130.06875 158.610384 
L 138.235823 158.610384 
L 138.235823 137.50437 
L 130.06875 137.50437 
z
" clip-path="url(#p1cdb5e6074)" style="fill: #1f77b4"/>
   </g>
   <g id="patch_4">
    <path d="M 130.06875 132.227867 
L 140.277592 132.227867 
L 140.277592 111.121854 
L 130.06875 111.121854 
z
" clip-path="url(#p1cdb5e6074)" style="fill: #1f77b4"/>
   </g>
   <g id="patch_5">
    <path d="M 130.06875 105.84535 
L 150.486434 105.84535 
L 150.486434 84.739337 
L 130.06875 84.739337 
z
" clip-path="url(#p1cdb5e6074)" style="fill: #1f77b4"/>
   </g>
   <g id="patch_6">
    <path d="M 130.06875 79.462834 
L 370.997418 79.462834 
L 370.997418 58.356821 
L 130.06875 58.356821 
z
" clip-path="url(#p1cdb5e6074)" style="fill: #1f77b4"/>
   </g>
   <g id="patch_7">
    <path d="M 130.06875 53.080317 
L 377.122723 53.080317 
L 377.122723 31.974304 
L 130.06875 31.974304 
z
" clip-path="url(#p1cdb5e6074)" style="fill: #1f77b4"/>
   </g>
   <g id="matplotlib.axis_1">
    <g id="xtick_1">
     <g id="line2d_1">
      <defs>
       <path id="m4c99cd72f3" d="M 0 0 
L 0 3.5 
" style="stroke: #000000; stroke-width: 0.8"/>
      </defs>
      <g>
       <use xlink:href="#m4c99cd72f3" x="130.06875" y="164.942188" style="stroke: #000000; stroke-width: 0.8"/>
      </g>
     </g>
     <g id="text_1">
      <!-- 0 -->
      <g transform="translate(127.288281 179.115625)scale(0.1 -0.1)">
       <defs>
        <path id="Helvetica-30" d="M 1731 4475 
Q 2600 4475 2988 3759 
Q 3288 3206 3288 2244 
Q 3288 1331 3016 734 
Q 2622 -122 1728 -122 
Q 922 -122 528 578 
Q 200 1163 200 2147 
Q 200 2909 397 3456 
Q 766 4475 1731 4475 
z
M 1725 391 
Q 2163 391 2422 778 
Q 2681 1166 2681 2222 
Q 2681 2984 2493 3476 
Q 2306 3969 1766 3969 
Q 1269 3969 1039 3501 
Q 809 3034 809 2125 
Q 809 1441 956 1025 
Q 1181 391 1725 391 
z
" transform="scale(0.015625)"/>
       </defs>
       <use xlink:href="#Helvetica-30"/>
      </g>
     </g>
    </g>
    <g id="xtick_2">
     <g id="line2d_2">
      <g>
       <use xlink:href="#m4c99cd72f3" x="182.746374" y="164.942188" style="stroke: #000000; stroke-width: 0.8"/>
      </g>
     </g>
     <g id="text_2">
      <!-- 10 -->
      <g transform="translate(177.185437 179.115625)scale(0.1 -0.1)">
       <defs>
        <path id="Helvetica-31" d="M 613 3169 
L 613 3600 
Q 1222 3659 1462 3798 
Q 1703 3938 1822 4456 
L 2266 4456 
L 2266 0 
L 1666 0 
L 1666 3169 
L 613 3169 
z
" transform="scale(0.015625)"/>
       </defs>
       <use xlink:href="#Helvetica-31"/>
       <use xlink:href="#Helvetica-30" x="55.615234"/>
      </g>
     </g>
    </g>
    <g id="xtick_3">
     <g id="line2d_3">
      <g>
       <use xlink:href="#m4c99cd72f3" x="235.423998" y="164.942188" style="stroke: #000000; stroke-width: 0.8"/>
      </g>
     </g>
     <g id="text_3">
      <!-- 20 -->
      <g transform="translate(229.863061 179.115625)scale(0.1 -0.1)">
       <defs>
        <path id="Helvetica-32" d="M 200 0 
Q 231 578 439 1006 
Q 647 1434 1250 1784 
L 1850 2131 
Q 2253 2366 2416 2531 
Q 2672 2791 2672 3125 
Q 2672 3516 2437 3745 
Q 2203 3975 1813 3975 
Q 1234 3975 1013 3538 
Q 894 3303 881 2888 
L 309 2888 
Q 319 3472 525 3841 
Q 891 4491 1816 4491 
Q 2584 4491 2939 4075 
Q 3294 3659 3294 3150 
Q 3294 2613 2916 2231 
Q 2697 2009 2131 1694 
L 1703 1456 
Q 1397 1288 1222 1134 
Q 909 863 828 531 
L 3272 531 
L 3272 0 
L 200 0 
z
" transform="scale(0.015625)"/>
       </defs>
       <use xlink:href="#Helvetica-32"/>
       <use xlink:href="#Helvetica-30" x="55.615234"/>
      </g>
     </g>
    </g>
    <g id="xtick_4">
     <g id="line2d_4">
      <g>
       <use xlink:href="#m4c99cd72f3" x="288.101622" y="164.942188" style="stroke: #000000; stroke-width: 0.8"/>
      </g>
     </g>
     <g id="text_4">
      <!-- 30 -->
      <g transform="translate(282.540685 179.115625)scale(0.1 -0.1)">
       <defs>
        <path id="Helvetica-33" d="M 1663 -122 
Q 869 -122 511 314 
Q 153 750 153 1375 
L 741 1375 
Q 778 941 903 744 
Q 1122 391 1694 391 
Q 2138 391 2406 628 
Q 2675 866 2675 1241 
Q 2675 1703 2392 1887 
Q 2109 2072 1606 2072 
Q 1550 2072 1492 2070 
Q 1434 2069 1375 2066 
L 1375 2563 
Q 1463 2553 1522 2550 
Q 1581 2547 1650 2547 
Q 1966 2547 2169 2647 
Q 2525 2822 2525 3272 
Q 2525 3606 2287 3787 
Q 2050 3969 1734 3969 
Q 1172 3969 956 3594 
Q 838 3388 822 3006 
L 266 3006 
Q 266 3506 466 3856 
Q 809 4481 1675 4481 
Q 2359 4481 2734 4176 
Q 3109 3872 3109 3294 
Q 3109 2881 2888 2625 
Q 2750 2466 2531 2375 
Q 2884 2278 3082 2001 
Q 3281 1725 3281 1325 
Q 3281 684 2859 281 
Q 2438 -122 1663 -122 
z
" transform="scale(0.015625)"/>
       </defs>
       <use xlink:href="#Helvetica-33"/>
       <use xlink:href="#Helvetica-30" x="55.615234"/>
      </g>
     </g>
    </g>
    <g id="xtick_5">
     <g id="line2d_5">
      <g>
       <use xlink:href="#m4c99cd72f3" x="340.779246" y="164.942188" style="stroke: #000000; stroke-width: 0.8"/>
      </g>
     </g>
     <g id="text_5">
      <!-- 40 -->
      <g transform="translate(335.218309 179.115625)scale(0.1 -0.1)">
       <defs>
        <path id="Helvetica-34" d="M 2116 1584 
L 2116 3613 
L 681 1584 
L 2116 1584 
z
M 2125 0 
L 2125 1094 
L 163 1094 
L 163 1644 
L 2213 4488 
L 2688 4488 
L 2688 1584 
L 3347 1584 
L 3347 1094 
L 2688 1094 
L 2688 0 
L 2125 0 
z
" transform="scale(0.015625)"/>
       </defs>
       <use xlink:href="#Helvetica-34"/>
       <use xlink:href="#Helvetica-30" x="55.615234"/>
      </g>
     </g>
    </g>
   </g>
   <g id="matplotlib.axis_2">
    <g id="ytick_1">
     <g id="line2d_6">
      <defs>
       <path id="m8e343aef83" d="M 0 0 
L -3.5 0 
" style="stroke: #000000; stroke-width: 0.8"/>
      </defs>
      <g>
       <use xlink:href="#m8e343aef83" x="130.06875" y="148.057377" style="stroke: #000000; stroke-width: 0.8"/>
      </g>
     </g>
     <g id="text_6">
      <!-- Other -->
      <g transform="translate(98.060938 151.644096)scale(0.1 -0.1)">
       <defs>
        <path id="Helvetica-4f" d="M 2469 4716 
Q 3684 4716 4269 3934 
Q 4725 3325 4725 2375 
Q 4725 1347 4203 666 
Q 3591 -134 2456 -134 
Q 1397 -134 791 566 
Q 250 1241 250 2272 
Q 250 3203 713 3866 
Q 1306 4716 2469 4716 
z
M 2531 422 
Q 3353 422 3720 1011 
Q 4088 1600 4088 2366 
Q 4088 3175 3664 3669 
Q 3241 4163 2506 4163 
Q 1794 4163 1344 3673 
Q 894 3184 894 2231 
Q 894 1469 1280 945 
Q 1666 422 2531 422 
z
M 2488 4716 
L 2488 4716 
z
" transform="scale(0.015625)"/>
        <path id="Helvetica-74" d="M 525 4281 
L 1094 4281 
L 1094 3347 
L 1628 3347 
L 1628 2888 
L 1094 2888 
L 1094 703 
Q 1094 528 1213 469 
Q 1278 434 1431 434 
Q 1472 434 1519 436 
Q 1566 438 1628 444 
L 1628 0 
Q 1531 -28 1426 -40 
Q 1322 -53 1200 -53 
Q 806 -53 665 148 
Q 525 350 525 672 
L 525 2888 
L 72 2888 
L 72 3347 
L 525 3347 
L 525 4281 
z
" transform="scale(0.015625)"/>
        <path id="Helvetica-68" d="M 413 4606 
L 975 4606 
L 975 2894 
Q 1175 3147 1334 3250 
Q 1606 3428 2013 3428 
Q 2741 3428 3000 2919 
Q 3141 2641 3141 2147 
L 3141 0 
L 2563 0 
L 2563 2109 
Q 2563 2478 2469 2650 
Q 2316 2925 1894 2925 
Q 1544 2925 1259 2684 
Q 975 2444 975 1775 
L 975 0 
L 413 0 
L 413 4606 
z
" transform="scale(0.015625)"/>
        <path id="Helvetica-65" d="M 1806 3422 
Q 2163 3422 2497 3255 
Q 2831 3088 3006 2822 
Q 3175 2569 3231 2231 
Q 3281 2000 3281 1494 
L 828 1494 
Q 844 984 1069 676 
Q 1294 369 1766 369 
Q 2206 369 2469 659 
Q 2619 828 2681 1050 
L 3234 1050 
Q 3213 866 3089 639 
Q 2966 413 2813 269 
Q 2556 19 2178 -69 
Q 1975 -119 1719 -119 
Q 1094 -119 659 336 
Q 225 791 225 1609 
Q 225 2416 662 2919 
Q 1100 3422 1806 3422 
z
M 2703 1941 
Q 2669 2306 2544 2525 
Q 2313 2931 1772 2931 
Q 1384 2931 1121 2651 
Q 859 2372 844 1941 
L 2703 1941 
z
M 1753 3428 
L 1753 3428 
z
" transform="scale(0.015625)"/>
        <path id="Helvetica-72" d="M 428 3347 
L 963 3347 
L 963 2769 
Q 1028 2938 1284 3180 
Q 1541 3422 1875 3422 
Q 1891 3422 1928 3419 
Q 1966 3416 2056 3406 
L 2056 2813 
Q 2006 2822 1964 2825 
Q 1922 2828 1872 2828 
Q 1447 2828 1219 2554 
Q 991 2281 991 1925 
L 991 0 
L 428 0 
L 428 3347 
z
" transform="scale(0.015625)"/>
       </defs>
       <use xlink:href="#Helvetica-4f"/>
       <use xlink:href="#Helvetica-74" x="77.783203"/>
       <use xlink:href="#Helvetica-68" x="105.566406"/>
       <use xlink:href="#Helvetica-65" x="161.181641"/>
       <use xlink:href="#Helvetica-72" x="216.796875"/>
      </g>
     </g>
    </g>
    <g id="ytick_2">
     <g id="line2d_7">
      <g>
       <use xlink:href="#m8e343aef83" x="130.06875" y="121.67486" style="stroke: #000000; stroke-width: 0.8"/>
      </g>
     </g>
     <g id="text_7">
      <!-- Final secondary-school -->
      <g transform="translate(20.248438 109.767517)scale(0.1 -0.1)">
       <defs>
        <path id="Helvetica-46" d="M 547 4591 
L 3731 4591 
L 3731 4028 
L 1169 4028 
L 1169 2634 
L 3422 2634 
L 3422 2088 
L 1169 2088 
L 1169 0 
L 547 0 
L 547 4591 
z
" transform="scale(0.015625)"/>
        <path id="Helvetica-69" d="M 413 3331 
L 984 3331 
L 984 0 
L 413 0 
L 413 3331 
z
M 413 4591 
L 984 4591 
L 984 3953 
L 413 3953 
L 413 4591 
z
" transform="scale(0.015625)"/>
        <path id="Helvetica-6e" d="M 413 3347 
L 947 3347 
L 947 2872 
Q 1184 3166 1450 3294 
Q 1716 3422 2041 3422 
Q 2753 3422 3003 2925 
Q 3141 2653 3141 2147 
L 3141 0 
L 2569 0 
L 2569 2109 
Q 2569 2416 2478 2603 
Q 2328 2916 1934 2916 
Q 1734 2916 1606 2875 
Q 1375 2806 1200 2600 
Q 1059 2434 1017 2257 
Q 975 2081 975 1753 
L 975 0 
L 413 0 
L 413 3347 
z
M 1734 3428 
L 1734 3428 
z
" transform="scale(0.015625)"/>
        <path id="Helvetica-61" d="M 844 891 
Q 844 647 1022 506 
Q 1200 366 1444 366 
Q 1741 366 2019 503 
Q 2488 731 2488 1250 
L 2488 1703 
Q 2384 1638 2221 1594 
Q 2059 1550 1903 1531 
L 1563 1488 
Q 1256 1447 1103 1359 
Q 844 1213 844 891 
z
M 2206 2028 
Q 2400 2053 2466 2191 
Q 2503 2266 2503 2406 
Q 2503 2694 2298 2823 
Q 2094 2953 1713 2953 
Q 1272 2953 1088 2716 
Q 984 2584 953 2325 
L 428 2325 
Q 444 2944 830 3186 
Q 1216 3428 1725 3428 
Q 2316 3428 2684 3203 
Q 3050 2978 3050 2503 
L 3050 575 
Q 3050 488 3086 434 
Q 3122 381 3238 381 
Q 3275 381 3322 386 
Q 3369 391 3422 400 
L 3422 -16 
Q 3291 -53 3222 -62 
Q 3153 -72 3034 -72 
Q 2744 -72 2613 134 
Q 2544 244 2516 444 
Q 2344 219 2022 53 
Q 1700 -113 1313 -113 
Q 847 -113 551 170 
Q 256 453 256 878 
Q 256 1344 547 1600 
Q 838 1856 1309 1916 
L 2206 2028 
z
M 1741 3428 
L 1741 3428 
z
" transform="scale(0.015625)"/>
        <path id="Helvetica-6c" d="M 428 4591 
L 991 4591 
L 991 0 
L 428 0 
L 428 4591 
z
" transform="scale(0.015625)"/>
        <path id="Helvetica-20" transform="scale(0.015625)"/>
        <path id="Helvetica-73" d="M 747 1050 
Q 772 769 888 619 
Q 1100 347 1625 347 
Q 1938 347 2175 483 
Q 2413 619 2413 903 
Q 2413 1119 2222 1231 
Q 2100 1300 1741 1391 
L 1294 1503 
Q 866 1609 663 1741 
Q 300 1969 300 2372 
Q 300 2847 642 3140 
Q 984 3434 1563 3434 
Q 2319 3434 2653 2991 
Q 2863 2709 2856 2384 
L 2325 2384 
Q 2309 2575 2191 2731 
Q 1997 2953 1519 2953 
Q 1200 2953 1036 2831 
Q 872 2709 872 2509 
Q 872 2291 1088 2159 
Q 1213 2081 1456 2022 
L 1828 1931 
Q 2434 1784 2641 1647 
Q 2969 1431 2969 969 
Q 2969 522 2630 197 
Q 2291 -128 1597 -128 
Q 850 -128 539 211 
Q 228 550 206 1050 
L 747 1050 
z
M 1578 3428 
L 1578 3428 
z
" transform="scale(0.015625)"/>
        <path id="Helvetica-63" d="M 1703 3444 
Q 2269 3444 2623 3169 
Q 2978 2894 3050 2222 
L 2503 2222 
Q 2453 2531 2275 2736 
Q 2097 2941 1703 2941 
Q 1166 2941 934 2416 
Q 784 2075 784 1575 
Q 784 1072 996 728 
Q 1209 384 1666 384 
Q 2016 384 2220 598 
Q 2425 813 2503 1184 
L 3050 1184 
Q 2956 519 2581 211 
Q 2206 -97 1622 -97 
Q 966 -97 575 383 
Q 184 863 184 1581 
Q 184 2463 612 2953 
Q 1041 3444 1703 3444 
z
M 1616 3428 
L 1616 3428 
z
" transform="scale(0.015625)"/>
        <path id="Helvetica-6f" d="M 1741 363 
Q 2300 363 2508 786 
Q 2716 1209 2716 1728 
Q 2716 2197 2566 2491 
Q 2328 2953 1747 2953 
Q 1231 2953 997 2559 
Q 763 2166 763 1609 
Q 763 1075 997 719 
Q 1231 363 1741 363 
z
M 1763 3444 
Q 2409 3444 2856 3012 
Q 3303 2581 3303 1744 
Q 3303 934 2909 406 
Q 2516 -122 1688 -122 
Q 997 -122 590 345 
Q 184 813 184 1600 
Q 184 2444 612 2944 
Q 1041 3444 1763 3444 
z
M 1744 3428 
L 1744 3428 
z
" transform="scale(0.015625)"/>
        <path id="Helvetica-64" d="M 769 1634 
Q 769 1097 997 734 
Q 1225 372 1728 372 
Q 2119 372 2370 708 
Q 2622 1044 2622 1672 
Q 2622 2306 2362 2611 
Q 2103 2916 1722 2916 
Q 1297 2916 1033 2591 
Q 769 2266 769 1634 
z
M 1616 3406 
Q 2000 3406 2259 3244 
Q 2409 3150 2600 2916 
L 2600 4606 
L 3141 4606 
L 3141 0 
L 2634 0 
L 2634 466 
Q 2438 156 2169 18 
Q 1900 -119 1553 -119 
Q 994 -119 584 351 
Q 175 822 175 1603 
Q 175 2334 548 2870 
Q 922 3406 1616 3406 
z
" transform="scale(0.015625)"/>
        <path id="Helvetica-79" d="M 2503 3347 
L 3125 3347 
Q 3006 3025 2597 1878 
Q 2291 1016 2084 472 
Q 1597 -809 1397 -1090 
Q 1197 -1372 709 -1372 
Q 591 -1372 527 -1362 
Q 463 -1353 369 -1328 
L 369 -816 
Q 516 -856 581 -865 
Q 647 -875 697 -875 
Q 853 -875 926 -823 
Q 1000 -772 1050 -697 
Q 1066 -672 1162 -440 
Q 1259 -209 1303 -97 
L 66 3347 
L 703 3347 
L 1600 622 
L 2503 3347 
z
M 1597 3428 
L 1597 3428 
z
" transform="scale(0.015625)"/>
        <path id="Helvetica-2d" d="M 266 2072 
L 1834 2072 
L 1834 1494 
L 266 1494 
L 266 2072 
z
" transform="scale(0.015625)"/>
       </defs>
       <use xlink:href="#Helvetica-46"/>
       <use xlink:href="#Helvetica-69" x="61.083984"/>
       <use xlink:href="#Helvetica-6e" x="83.300781"/>
       <use xlink:href="#Helvetica-61" x="138.916016"/>
       <use xlink:href="#Helvetica-6c" x="194.53125"/>
       <use xlink:href="#Helvetica-20" x="216.748047"/>
       <use xlink:href="#Helvetica-73" x="244.53125"/>
       <use xlink:href="#Helvetica-65" x="294.53125"/>
       <use xlink:href="#Helvetica-63" x="350.146484"/>
       <use xlink:href="#Helvetica-6f" x="400.146484"/>
       <use xlink:href="#Helvetica-6e" x="455.761719"/>
       <use xlink:href="#Helvetica-64" x="511.376953"/>
       <use xlink:href="#Helvetica-61" x="566.992188"/>
       <use xlink:href="#Helvetica-72" x="622.607422"/>
       <use xlink:href="#Helvetica-79" x="655.908203"/>
       <use xlink:href="#Helvetica-2d" x="705.908203"/>
       <use xlink:href="#Helvetica-73" x="739.208984"/>
       <use xlink:href="#Helvetica-63" x="789.208984"/>
       <use xlink:href="#Helvetica-68" x="839.208984"/>
       <use xlink:href="#Helvetica-6f" x="894.824219"/>
       <use xlink:href="#Helvetica-6f" x="950.439453"/>
       <use xlink:href="#Helvetica-6c" x="1006.054688"/>
      </g>
      <!-- examinations, general -->
      <g transform="translate(25.239063 120.519392)scale(0.1 -0.1)">
       <defs>
        <path id="Helvetica-78" d="M 94 3347 
L 822 3347 
L 1591 2169 
L 2369 3347 
L 3053 3331 
L 1925 1716 
L 3103 0 
L 2384 0 
L 1553 1256 
L 747 0 
L 34 0 
L 1213 1716 
L 94 3347 
z
" transform="scale(0.015625)"/>
        <path id="Helvetica-6d" d="M 413 3347 
L 969 3347 
L 969 2872 
Q 1169 3119 1331 3231 
Q 1609 3422 1963 3422 
Q 2363 3422 2606 3225 
Q 2744 3113 2856 2894 
Q 3044 3163 3297 3292 
Q 3550 3422 3866 3422 
Q 4541 3422 4784 2934 
Q 4916 2672 4916 2228 
L 4916 0 
L 4331 0 
L 4331 2325 
Q 4331 2659 4164 2784 
Q 3997 2909 3756 2909 
Q 3425 2909 3186 2687 
Q 2947 2466 2947 1947 
L 2947 0 
L 2375 0 
L 2375 2184 
Q 2375 2525 2294 2681 
Q 2166 2916 1816 2916 
Q 1497 2916 1236 2669 
Q 975 2422 975 1775 
L 975 0 
L 413 0 
L 413 3347 
z
" transform="scale(0.015625)"/>
        <path id="Helvetica-2c" d="M 531 -653 
Q 747 -616 834 -350 
Q 881 -209 881 -78 
Q 881 -56 879 -39 
Q 878 -22 872 0 
L 531 0 
L 531 681 
L 1200 681 
L 1200 50 
Q 1200 -322 1050 -603 
Q 900 -884 531 -950 
L 531 -653 
z
" transform="scale(0.015625)"/>
        <path id="Helvetica-67" d="M 1594 3406 
Q 1988 3406 2281 3213 
Q 2441 3103 2606 2894 
L 2606 3316 
L 3125 3316 
L 3125 272 
Q 3125 -366 2938 -734 
Q 2588 -1416 1616 -1416 
Q 1075 -1416 706 -1173 
Q 338 -931 294 -416 
L 866 -416 
Q 906 -641 1028 -763 
Q 1219 -950 1628 -950 
Q 2275 -950 2475 -494 
Q 2594 -225 2584 466 
Q 2416 209 2178 84 
Q 1941 -41 1550 -41 
Q 1006 -41 598 345 
Q 191 731 191 1622 
Q 191 2463 602 2934 
Q 1013 3406 1594 3406 
z
M 2606 1688 
Q 2606 2309 2350 2609 
Q 2094 2909 1697 2909 
Q 1103 2909 884 2353 
Q 769 2056 769 1575 
Q 769 1009 998 714 
Q 1228 419 1616 419 
Q 2222 419 2469 966 
Q 2606 1275 2606 1688 
z
M 1659 3428 
L 1659 3428 
z
" transform="scale(0.015625)"/>
       </defs>
       <use xlink:href="#Helvetica-65"/>
       <use xlink:href="#Helvetica-78" x="55.615234"/>
       <use xlink:href="#Helvetica-61" x="105.615234"/>
       <use xlink:href="#Helvetica-6d" x="161.230469"/>
       <use xlink:href="#Helvetica-69" x="244.53125"/>
       <use xlink:href="#Helvetica-6e" x="266.748047"/>
       <use xlink:href="#Helvetica-61" x="322.363281"/>
       <use xlink:href="#Helvetica-74" x="377.978516"/>
       <use xlink:href="#Helvetica-69" x="405.761719"/>
       <use xlink:href="#Helvetica-6f" x="427.978516"/>
       <use xlink:href="#Helvetica-6e" x="483.59375"/>
       <use xlink:href="#Helvetica-73" x="539.208984"/>
       <use xlink:href="#Helvetica-2c" x="589.208984"/>
       <use xlink:href="#Helvetica-20" x="616.992188"/>
       <use xlink:href="#Helvetica-67" x="644.775391"/>
       <use xlink:href="#Helvetica-65" x="700.390625"/>
       <use xlink:href="#Helvetica-6e" x="756.005859"/>
       <use xlink:href="#Helvetica-65" x="811.621094"/>
       <use xlink:href="#Helvetica-72" x="867.236328"/>
       <use xlink:href="#Helvetica-61" x="900.537109"/>
       <use xlink:href="#Helvetica-6c" x="956.152344"/>
      </g>
      <!-- qualification for university -->
      <g transform="translate(10.8 131.461892)scale(0.1 -0.1)">
       <defs>
        <path id="Helvetica-71" d="M 775 1628 
Q 775 1194 897 900 
Q 1113 378 1669 378 
Q 2256 378 2478 928 
Q 2600 1231 2600 1703 
Q 2600 2138 2466 2428 
Q 2238 2925 1663 2925 
Q 1297 2925 1036 2608 
Q 775 2291 775 1628 
z
M 1606 3422 
Q 2022 3422 2306 3213 
Q 2463 3100 2606 2881 
L 2606 3347 
L 3141 3347 
L 3141 -1334 
L 2575 -1334 
L 2575 384 
Q 2434 159 2186 26 
Q 1938 -106 1566 -106 
Q 1031 -106 609 312 
Q 188 731 188 1588 
Q 188 2391 583 2906 
Q 978 3422 1606 3422 
z
" transform="scale(0.015625)"/>
        <path id="Helvetica-75" d="M 975 3347 
L 975 1125 
Q 975 869 1056 706 
Q 1206 406 1616 406 
Q 2203 406 2416 931 
Q 2531 1213 2531 1703 
L 2531 3347 
L 3094 3347 
L 3094 0 
L 2563 0 
L 2569 494 
Q 2459 303 2297 172 
Q 1975 -91 1516 -91 
Q 800 -91 541 388 
Q 400 644 400 1072 
L 400 3347 
L 975 3347 
z
M 1747 3428 
L 1747 3428 
z
" transform="scale(0.015625)"/>
        <path id="Helvetica-66" d="M 553 3856 
Q 566 4206 675 4369 
Q 872 4656 1434 4656 
Q 1488 4656 1544 4653 
Q 1600 4650 1672 4644 
L 1672 4131 
Q 1584 4138 1545 4139 
Q 1506 4141 1472 4141 
Q 1216 4141 1166 4008 
Q 1116 3875 1116 3331 
L 1672 3331 
L 1672 2888 
L 1109 2888 
L 1109 0 
L 553 0 
L 553 2888 
L 88 2888 
L 88 3331 
L 553 3331 
L 553 3856 
z
" transform="scale(0.015625)"/>
        <path id="Helvetica-76" d="M 688 3347 
L 1581 622 
L 2516 3347 
L 3131 3347 
L 1869 0 
L 1269 0 
L 34 3347 
L 688 3347 
z
" transform="scale(0.015625)"/>
       </defs>
       <use xlink:href="#Helvetica-71"/>
       <use xlink:href="#Helvetica-75" x="55.615234"/>
       <use xlink:href="#Helvetica-61" x="111.230469"/>
       <use xlink:href="#Helvetica-6c" x="166.845703"/>
       <use xlink:href="#Helvetica-69" x="189.0625"/>
       <use xlink:href="#Helvetica-66" x="211.279297"/>
       <use xlink:href="#Helvetica-69" x="239.0625"/>
       <use xlink:href="#Helvetica-63" x="261.279297"/>
       <use xlink:href="#Helvetica-61" x="311.279297"/>
       <use xlink:href="#Helvetica-74" x="366.894531"/>
       <use xlink:href="#Helvetica-69" x="394.677734"/>
       <use xlink:href="#Helvetica-6f" x="416.894531"/>
       <use xlink:href="#Helvetica-6e" x="472.509766"/>
       <use xlink:href="#Helvetica-20" x="528.125"/>
       <use xlink:href="#Helvetica-66" x="555.908203"/>
       <use xlink:href="#Helvetica-6f" x="583.691406"/>
       <use xlink:href="#Helvetica-72" x="639.306641"/>
       <use xlink:href="#Helvetica-20" x="672.607422"/>
       <use xlink:href="#Helvetica-75" x="700.390625"/>
       <use xlink:href="#Helvetica-6e" x="756.005859"/>
       <use xlink:href="#Helvetica-69" x="811.621094"/>
       <use xlink:href="#Helvetica-76" x="833.837891"/>
       <use xlink:href="#Helvetica-65" x="883.837891"/>
       <use xlink:href="#Helvetica-72" x="939.453125"/>
       <use xlink:href="#Helvetica-73" x="972.753906"/>
       <use xlink:href="#Helvetica-69" x="1022.753906"/>
       <use xlink:href="#Helvetica-74" x="1044.970703"/>
       <use xlink:href="#Helvetica-79" x="1072.753906"/>
      </g>
      <!-- entrance -->
      <g transform="translate(84.15625 142.213767)scale(0.1 -0.1)">
       <use xlink:href="#Helvetica-65"/>
       <use xlink:href="#Helvetica-6e" x="55.615234"/>
       <use xlink:href="#Helvetica-74" x="111.230469"/>
       <use xlink:href="#Helvetica-72" x="139.013672"/>
       <use xlink:href="#Helvetica-61" x="172.314453"/>
       <use xlink:href="#Helvetica-6e" x="227.929688"/>
       <use xlink:href="#Helvetica-63" x="283.544922"/>
       <use xlink:href="#Helvetica-65" x="333.544922"/>
      </g>
     </g>
    </g>
    <g id="ytick_3">
     <g id="line2d_8">
      <g>
       <use xlink:href="#m8e343aef83" x="130.06875" y="95.292344" style="stroke: #000000; stroke-width: 0.8"/>
      </g>
     </g>
     <g id="text_8">
      <!-- Undergraduate degree -->
      <g transform="translate(22.448438 98.890781)scale(0.1 -0.1)">
       <defs>
        <path id="Helvetica-55" d="M 1163 4591 
L 1163 1753 
Q 1163 1253 1350 922 
Q 1628 422 2288 422 
Q 3078 422 3363 963 
Q 3516 1256 3516 1753 
L 3516 4591 
L 4147 4591 
L 4147 2013 
Q 4147 1166 3919 709 
Q 3500 -122 2338 -122 
Q 1175 -122 759 709 
Q 531 1166 531 2013 
L 531 4591 
L 1163 4591 
z
M 2341 4591 
L 2341 4591 
z
" transform="scale(0.015625)"/>
       </defs>
       <use xlink:href="#Helvetica-55"/>
       <use xlink:href="#Helvetica-6e" x="72.216797"/>
       <use xlink:href="#Helvetica-64" x="127.832031"/>
       <use xlink:href="#Helvetica-65" x="183.447266"/>
       <use xlink:href="#Helvetica-72" x="239.0625"/>
       <use xlink:href="#Helvetica-67" x="272.363281"/>
       <use xlink:href="#Helvetica-72" x="327.978516"/>
       <use xlink:href="#Helvetica-61" x="361.279297"/>
       <use xlink:href="#Helvetica-64" x="416.894531"/>
       <use xlink:href="#Helvetica-75" x="472.509766"/>
       <use xlink:href="#Helvetica-61" x="528.125"/>
       <use xlink:href="#Helvetica-74" x="583.740234"/>
       <use xlink:href="#Helvetica-65" x="611.523438"/>
       <use xlink:href="#Helvetica-20" x="667.138672"/>
       <use xlink:href="#Helvetica-64" x="694.921875"/>
       <use xlink:href="#Helvetica-65" x="750.537109"/>
       <use xlink:href="#Helvetica-67" x="806.152344"/>
       <use xlink:href="#Helvetica-72" x="861.767578"/>
       <use xlink:href="#Helvetica-65" x="895.068359"/>
       <use xlink:href="#Helvetica-65" x="950.683594"/>
      </g>
     </g>
    </g>
    <g id="ytick_4">
     <g id="line2d_9">
      <g>
       <use xlink:href="#m8e343aef83" x="130.06875" y="68.909827" style="stroke: #000000; stroke-width: 0.8"/>
      </g>
     </g>
     <g id="text_9">
      <!-- Doctorate -->
      <g transform="translate(79.717188 72.496546)scale(0.1 -0.1)">
       <defs>
        <path id="Helvetica-44" d="M 2250 531 
Q 2566 531 2769 597 
Q 3131 719 3363 1066 
Q 3547 1344 3628 1778 
Q 3675 2038 3675 2259 
Q 3675 3113 3336 3584 
Q 2997 4056 2244 4056 
L 1141 4056 
L 1141 531 
L 2250 531 
z
M 516 4591 
L 2375 4591 
Q 3322 4591 3844 3919 
Q 4309 3313 4309 2366 
Q 4309 1634 4034 1044 
Q 3550 0 2369 0 
L 516 0 
L 516 4591 
z
" transform="scale(0.015625)"/>
       </defs>
       <use xlink:href="#Helvetica-44"/>
       <use xlink:href="#Helvetica-6f" x="72.216797"/>
       <use xlink:href="#Helvetica-63" x="127.832031"/>
       <use xlink:href="#Helvetica-74" x="177.832031"/>
       <use xlink:href="#Helvetica-6f" x="205.615234"/>
       <use xlink:href="#Helvetica-72" x="261.230469"/>
       <use xlink:href="#Helvetica-61" x="294.53125"/>
       <use xlink:href="#Helvetica-74" x="350.146484"/>
       <use xlink:href="#Helvetica-65" x="377.929688"/>
      </g>
     </g>
    </g>
    <g id="ytick_5">
     <g id="line2d_10">
      <g>
       <use xlink:href="#m8e343aef83" x="130.06875" y="42.527311" style="stroke: #000000; stroke-width: 0.8"/>
      </g>
     </g>
     <g id="text_10">
      <!-- Master degree -->
      <g transform="translate(58.596875 46.125748)scale(0.1 -0.1)">
       <defs>
        <path id="Helvetica-4d" d="M 472 4591 
L 1363 4591 
L 2681 709 
L 3991 4591 
L 4872 4591 
L 4872 0 
L 4281 0 
L 4281 2709 
Q 4281 2850 4287 3175 
Q 4294 3500 4294 3872 
L 2984 0 
L 2369 0 
L 1050 3872 
L 1050 3731 
Q 1050 3563 1058 3217 
Q 1066 2872 1066 2709 
L 1066 0 
L 472 0 
L 472 4591 
z
" transform="scale(0.015625)"/>
       </defs>
       <use xlink:href="#Helvetica-4d"/>
       <use xlink:href="#Helvetica-61" x="83.300781"/>
       <use xlink:href="#Helvetica-73" x="138.916016"/>
       <use xlink:href="#Helvetica-74" x="188.916016"/>
       <use xlink:href="#Helvetica-65" x="216.699219"/>
       <use xlink:href="#Helvetica-72" x="272.314453"/>
       <use xlink:href="#Helvetica-20" x="305.615234"/>
       <use xlink:href="#Helvetica-64" x="333.398438"/>
       <use xlink:href="#Helvetica-65" x="389.013672"/>
       <use xlink:href="#Helvetica-67" x="444.628906"/>
       <use xlink:href="#Helvetica-72" x="500.244141"/>
       <use xlink:href="#Helvetica-65" x="533.544922"/>
       <use xlink:href="#Helvetica-65" x="589.160156"/>
      </g>
     </g>
    </g>
   </g>
   <g id="patch_8">
    <path d="M 130.06875 164.942188 
L 389.475422 164.942188 
" style="fill: none; stroke: #000000; stroke-width: 0.8; stroke-linejoin: miter; stroke-linecap: square"/>
   </g>
   <g id="text_11">
    <!-- 2% -->
    <g transform="translate(146.009261 150.601908)scale(0.1 -0.1)">
     <defs>
      <path id="Helvetica-25" d="M 4363 2175 
Q 4813 2175 5131 1856 
Q 5450 1538 5450 1088 
Q 5450 638 5131 319 
Q 4813 0 4363 0 
Q 3909 0 3590 319 
Q 3272 638 3272 1088 
Q 3272 1538 3590 1856 
Q 3909 2175 4363 2175 
z
M 3909 4456 
L 4256 4456 
L 1753 -119 
L 1406 -119 
L 3909 4456 
z
M 1294 2606 
Q 1563 2606 1752 2795 
Q 1941 2984 1941 3250 
Q 1941 3516 1752 3705 
Q 1563 3894 1294 3894 
Q 1028 3894 839 3706 
Q 650 3519 650 3250 
Q 650 2984 839 2795 
Q 1028 2606 1294 2606 
z
M 1294 4341 
Q 1747 4341 2065 4020 
Q 2384 3700 2384 3250 
Q 2384 2800 2065 2481 
Q 1747 2163 1294 2163 
Q 844 2163 525 2481 
Q 206 2800 206 3250 
Q 206 3700 525 4020 
Q 844 4341 1294 4341 
z
M 4363 444 
Q 4628 444 4817 633 
Q 5006 822 5006 1088 
Q 5006 1353 4817 1542 
Q 4628 1731 4363 1731 
Q 4094 1731 3905 1542 
Q 3716 1353 3716 1088 
Q 3716 822 3905 633 
Q 4094 444 4363 444 
z
" transform="scale(0.015625)"/>
     </defs>
     <use xlink:href="#Helvetica-32"/>
     <use xlink:href="#Helvetica-25" x="55.615234"/>
    </g>
   </g>
   <g id="text_12">
    <!-- 2% -->
    <g transform="translate(148.051029 124.219392)scale(0.1 -0.1)">
     <use xlink:href="#Helvetica-32"/>
     <use xlink:href="#Helvetica-25" x="55.615234"/>
    </g>
   </g>
   <g id="text_13">
    <!-- 4% -->
    <g transform="translate(158.259871 97.836875)scale(0.1 -0.1)">
     <use xlink:href="#Helvetica-34"/>
     <use xlink:href="#Helvetica-25" x="55.615234"/>
    </g>
   </g>
   <g id="text_14">
    <!-- 46% -->
    <g transform="translate(375.990387 71.454358)scale(0.1 -0.1)">
     <defs>
      <path id="Helvetica-36" d="M 1872 4494 
Q 2622 4494 2917 4105 
Q 3213 3716 3213 3303 
L 2656 3303 
Q 2606 3569 2497 3719 
Q 2294 4000 1881 4000 
Q 1409 4000 1131 3564 
Q 853 3128 822 2316 
Q 1016 2600 1309 2741 
Q 1578 2866 1909 2866 
Q 2472 2866 2890 2506 
Q 3309 2147 3309 1434 
Q 3309 825 2912 354 
Q 2516 -116 1781 -116 
Q 1153 -116 697 361 
Q 241 838 241 1966 
Q 241 2800 444 3381 
Q 834 4494 1872 4494 
z
M 1831 384 
Q 2275 384 2495 682 
Q 2716 981 2716 1388 
Q 2716 1731 2519 2042 
Q 2322 2353 1803 2353 
Q 1441 2353 1167 2112 
Q 894 1872 894 1388 
Q 894 963 1142 673 
Q 1391 384 1831 384 
z
" transform="scale(0.015625)"/>
     </defs>
     <use xlink:href="#Helvetica-34"/>
     <use xlink:href="#Helvetica-36" x="55.615234"/>
     <use xlink:href="#Helvetica-25" x="111.230469"/>
    </g>
   </g>
   <g id="text_15">
    <!-- 47% -->
    <g transform="translate(382.115692 45.071842)scale(0.1 -0.1)">
     <defs>
      <path id="Helvetica-37" d="M 3347 4400 
L 3347 3909 
Q 3131 3700 2773 3181 
Q 2416 2663 2141 2063 
Q 1869 1478 1728 997 
Q 1638 688 1494 0 
L 872 0 
Q 1084 1281 1809 2550 
Q 2238 3294 2709 3834 
L 234 3834 
L 234 4400 
L 3347 4400 
z
" transform="scale(0.015625)"/>
     </defs>
     <use xlink:href="#Helvetica-34"/>
     <use xlink:href="#Helvetica-37" x="55.615234"/>
     <use xlink:href="#Helvetica-25" x="111.230469"/>
    </g>
   </g>
   <g id="text_16">
    <!-- Highest level of education, Germany -->
    <g transform="translate(163.060523 19.6425)scale(0.12 -0.12)">
     <defs>
      <path id="Helvetica-48" d="M 503 4591 
L 1131 4591 
L 1131 2694 
L 3519 2694 
L 3519 4591 
L 4147 4591 
L 4147 0 
L 3519 0 
L 3519 2147 
L 1131 2147 
L 1131 0 
L 503 0 
L 503 4591 
z
" transform="scale(0.015625)"/>
      <path id="Helvetica-47" d="M 2472 4709 
Q 3119 4709 3591 4459 
Q 4275 4100 4428 3200 
L 3813 3200 
Q 3700 3703 3347 3933 
Q 2994 4163 2456 4163 
Q 1819 4163 1383 3684 
Q 947 3206 947 2259 
Q 947 1441 1306 927 
Q 1666 413 2478 413 
Q 3100 413 3508 773 
Q 3916 1134 3925 1941 
L 2488 1941 
L 2488 2456 
L 4503 2456 
L 4503 0 
L 4103 0 
L 3953 591 
Q 3638 244 3394 109 
Q 2984 -122 2353 -122 
Q 1538 -122 950 406 
Q 309 1069 309 2225 
Q 309 3378 934 4059 
Q 1528 4709 2472 4709 
z
M 2369 4716 
L 2369 4716 
z
" transform="scale(0.015625)"/>
     </defs>
     <use xlink:href="#Helvetica-48"/>
     <use xlink:href="#Helvetica-69" x="72.216797"/>
     <use xlink:href="#Helvetica-67" x="94.433594"/>
     <use xlink:href="#Helvetica-68" x="150.048828"/>
     <use xlink:href="#Helvetica-65" x="205.664062"/>
     <use xlink:href="#Helvetica-73" x="261.279297"/>
     <use xlink:href="#Helvetica-74" x="311.279297"/>
     <use xlink:href="#Helvetica-20" x="339.0625"/>
     <use xlink:href="#Helvetica-6c" x="366.845703"/>
     <use xlink:href="#Helvetica-65" x="389.0625"/>
     <use xlink:href="#Helvetica-76" x="444.677734"/>
     <use xlink:href="#Helvetica-65" x="494.677734"/>
     <use xlink:href="#Helvetica-6c" x="550.292969"/>
     <use xlink:href="#Helvetica-20" x="572.509766"/>
     <use xlink:href="#Helvetica-6f" x="600.292969"/>
     <use xlink:href="#Helvetica-66" x="655.908203"/>
     <use xlink:href="#Helvetica-20" x="683.691406"/>
     <use xlink:href="#Helvetica-65" x="711.474609"/>
     <use xlink:href="#Helvetica-64" x="767.089844"/>
     <use xlink:href="#Helvetica-75" x="822.705078"/>
     <use xlink:href="#Helvetica-63" x="878.320312"/>
     <use xlink:href="#Helvetica-61" x="928.320312"/>
     <use xlink:href="#Helvetica-74" x="983.935547"/>
     <use xlink:href="#Helvetica-69" x="1011.71875"/>
     <use xlink:href="#Helvetica-6f" x="1033.935547"/>
     <use xlink:href="#Helvetica-6e" x="1089.550781"/>
     <use xlink:href="#Helvetica-2c" x="1145.166016"/>
     <use xlink:href="#Helvetica-20" x="1172.949219"/>
     <use xlink:href="#Helvetica-47" x="1200.732422"/>
     <use xlink:href="#Helvetica-65" x="1278.515625"/>
     <use xlink:href="#Helvetica-72" x="1334.130859"/>
     <use xlink:href="#Helvetica-6d" x="1367.431641"/>
     <use xlink:href="#Helvetica-61" x="1450.732422"/>
     <use xlink:href="#Helvetica-6e" x="1506.347656"/>
     <use xlink:href="#Helvetica-79" x="1561.962891"/>
    </g>
   </g>
  </g>
  <g id="axes_2">
   <g id="patch_9">
    <path d="M 412.941904 164.942188 
L 450 164.942188 
L 450 25.6425 
L 412.941904 25.6425 
z
" style="fill: #ffffff"/>
   </g>
   <g id="patch_10">
    <path d="M 428.07521 158.610384 
L 429.294507 158.610384 
L 429.294507 137.50437 
L 428.07521 137.50437 
z
" clip-path="url(#pf277c590d9)" style="fill: #008000"/>
   </g>
   <g id="patch_11">
    <path d="M 428.07521 132.227867 
L 427.50214 132.227867 
L 427.50214 111.121854 
L 428.07521 111.121854 
z
" clip-path="url(#pf277c590d9)" style="fill: #ffa500"/>
   </g>
   <g id="patch_12">
    <path d="M 428.07521 105.84535 
L 421.686093 105.84535 
L 421.686093 84.739337 
L 428.07521 84.739337 
z
" clip-path="url(#pf277c590d9)" style="fill: #ffa500"/>
   </g>
   <g id="patch_13">
    <path d="M 428.07521 79.462834 
L 448.315541 79.462834 
L 448.315541 58.356821 
L 428.07521 58.356821 
z
" clip-path="url(#pf277c590d9)" style="fill: #008000"/>
   </g>
   <g id="patch_14">
    <path d="M 428.07521 53.080317 
L 414.626363 53.080317 
L 414.626363 31.974304 
L 428.07521 31.974304 
z
" clip-path="url(#pf277c590d9)" style="fill: #ffa500"/>
   </g>
   <g id="matplotlib.axis_3">
    <g id="xtick_6">
     <g id="line2d_11">
      <g>
       <use xlink:href="#m4c99cd72f3" x="428.07521" y="164.942188" style="stroke: #000000; stroke-width: 0.8"/>
      </g>
     </g>
     <g id="text_17">
      <!-- 0 -->
      <g transform="translate(425.294741 179.115625)scale(0.1 -0.1)">
       <use xlink:href="#Helvetica-30"/>
      </g>
     </g>
    </g>
    <g id="xtick_7">
     <g id="line2d_12">
      <g>
       <use xlink:href="#m4c99cd72f3" x="445.534324" y="164.942188" style="stroke: #000000; stroke-width: 0.8"/>
      </g>
     </g>
     <g id="text_18">
      <!-- 5 -->
      <g transform="translate(442.753856 179.115625)scale(0.1 -0.1)">
       <defs>
        <path id="Helvetica-35" d="M 791 1141 
Q 847 659 1238 475 
Q 1438 381 1700 381 
Q 2200 381 2440 700 
Q 2681 1019 2681 1406 
Q 2681 1875 2395 2131 
Q 2109 2388 1709 2388 
Q 1419 2388 1211 2275 
Q 1003 2163 856 1963 
L 369 1991 
L 709 4400 
L 3034 4400 
L 3034 3856 
L 1131 3856 
L 941 2613 
Q 1097 2731 1238 2791 
Q 1488 2894 1816 2894 
Q 2431 2894 2859 2497 
Q 3288 2100 3288 1491 
Q 3288 856 2895 371 
Q 2503 -113 1644 -113 
Q 1097 -113 676 195 
Q 256 503 206 1141 
L 791 1141 
z
" transform="scale(0.015625)"/>
       </defs>
       <use xlink:href="#Helvetica-35"/>
      </g>
     </g>
    </g>
   </g>
   <g id="matplotlib.axis_4">
    <g id="ytick_6">
     <g id="line2d_13">
      <g>
       <use xlink:href="#m8e343aef83" x="412.941904" y="148.057377" style="stroke: #000000; stroke-width: 0.8"/>
      </g>
     </g>
    </g>
    <g id="ytick_7">
     <g id="line2d_14">
      <g>
       <use xlink:href="#m8e343aef83" x="412.941904" y="121.67486" style="stroke: #000000; stroke-width: 0.8"/>
      </g>
     </g>
    </g>
    <g id="ytick_8">
     <g id="line2d_15">
      <g>
       <use xlink:href="#m8e343aef83" x="412.941904" y="95.292344" style="stroke: #000000; stroke-width: 0.8"/>
      </g>
     </g>
    </g>
    <g id="ytick_9">
     <g id="line2d_16">
      <g>
       <use xlink:href="#m8e343aef83" x="412.941904" y="68.909827" style="stroke: #000000; stroke-width: 0.8"/>
      </g>
     </g>
    </g>
    <g id="ytick_10">
     <g id="line2d_17">
      <g>
       <use xlink:href="#m8e343aef83" x="412.941904" y="42.527311" style="stroke: #000000; stroke-width: 0.8"/>
      </g>
     </g>
    </g>
   </g>
   <g id="patch_15">
    <path d="M 412.941904 164.942188 
L 450 164.942188 
" style="fill: none; stroke: #000000; stroke-width: 0.8; stroke-linejoin: miter; stroke-linecap: square"/>
   </g>
   <g id="text_19">
    <!-- Δ -->
    <g transform="translate(427.137827 19.6425)scale(0.12 -0.12)">
     <defs>
      <path id="Helvetica-394" d="M 922 500 
L 3672 500 
L 2278 3941 
L 922 500 
z
M 1966 4519 
L 2631 4519 
L 4494 0 
L 128 0 
L 1966 4519 
z
" transform="scale(0.015625)"/>
     </defs>
     <use xlink:href="#Helvetica-394"/>
    </g>
   </g>
  </g>
 </g>
 <defs>
  <clipPath id="p1cdb5e6074">
   <rect x="130.06875" y="25.6425" width="259.406672" height="139.299688"/>
  </clipPath>
  <clipPath id="pf277c590d9">
   <rect x="412.941904" y="25.6425" width="37.058096" height="139.299688"/>
  </clipPath>
 </defs>
</svg>
