<?xml version="1.0" encoding="utf-8" standalone="no"?>
<!DOCTYPE svg PUBLIC "-//W3C//DTD SVG 1.1//EN"
  "http://www.w3.org/Graphics/SVG/1.1/DTD/svg11.dtd">
<svg xmlns:xlink="http://www.w3.org/1999/xlink" width="460.8pt" height="312pt" viewBox="0 0 460.8 312" xmlns="http://www.w3.org/2000/svg" version="1.1">
 <metadata>
  <rdf:RDF xmlns:dc="http://purl.org/dc/elements/1.1/" xmlns:cc="http://creativecommons.org/ns#" xmlns:rdf="http://www.w3.org/1999/02/22-rdf-syntax-ns#">
   <cc:Work>
    <dc:type rdf:resource="http://purl.org/dc/dcmitype/StillImage"/>
    <dc:date>2022-05-19T12:18:48.783682</dc:date>
    <dc:format>image/svg+xml</dc:format>
    <dc:creator>
     <cc:Agent>
      <dc:title>Matplotlib v3.5.1, https://matplotlib.org/</dc:title>
     </cc:Agent>
    </dc:creator>
   </cc:Work>
  </rdf:RDF>
 </metadata>
 <defs>
  <style type="text/css">*{stroke-linejoin: round; stroke-linecap: butt}</style>
 </defs>
 <g id="figure_1">
  <g id="patch_1">
   <path d="M 0 312 
L 460.8 312 
L 460.8 0 
L 0 0 
z
" style="fill: #ffffff"/>
  </g>
  <g id="axes_1">
   <g id="patch_2">
    <path d="M 145.085938 284.942188 
L 450 284.942188 
L 450 25.43625 
L 145.085938 25.43625 
z
" style="fill: #ffffff"/>
   </g>
   <g id="patch_3">
    <path d="M 145.085938 273.146463 
L 435.480283 273.146463 
L 435.480283 253.888137 
L 145.085938 253.888137 
z
" clip-path="url(#p03eb37df4d)" style="fill: #1f77b4"/>
   </g>
   <g id="patch_4">
    <path d="M 145.085938 249.073556 
L 241.884053 249.073556 
L 241.884053 229.81523 
L 145.085938 229.81523 
z
" clip-path="url(#p03eb37df4d)" style="fill: #1f77b4"/>
   </g>
   <g id="patch_5">
    <path d="M 145.085938 225.000649 
L 166.260525 225.000649 
L 166.260525 205.742323 
L 145.085938 205.742323 
z
" clip-path="url(#p03eb37df4d)" style="fill: #1f77b4"/>
   </g>
   <g id="patch_6">
    <path d="M 145.085938 200.927742 
L 160.210643 200.927742 
L 160.210643 181.669416 
L 145.085938 181.669416 
z
" clip-path="url(#p03eb37df4d)" style="fill: #1f77b4"/>
   </g>
   <g id="patch_7">
    <path d="M 145.085938 176.854835 
L 154.160761 176.854835 
L 154.160761 157.596509 
L 145.085938 157.596509 
z
" clip-path="url(#p03eb37df4d)" style="fill: #1f77b4"/>
   </g>
   <g id="patch_8">
    <path d="M 145.085938 152.781928 
L 151.13582 152.781928 
L 151.13582 133.523602 
L 145.085938 133.523602 
z
" clip-path="url(#p03eb37df4d)" style="fill: #1f77b4"/>
   </g>
   <g id="patch_9">
    <path d="M 145.085938 128.709021 
L 151.13582 128.709021 
L 151.13582 109.450695 
L 145.085938 109.450695 
z
" clip-path="url(#p03eb37df4d)" style="fill: #1f77b4"/>
   </g>
   <g id="patch_10">
    <path d="M 145.085938 104.636114 
L 148.110879 104.636114 
L 148.110879 85.377788 
L 145.085938 85.377788 
z
" clip-path="url(#p03eb37df4d)" style="fill: #1f77b4"/>
   </g>
   <g id="patch_11">
    <path d="M 145.085938 80.563207 
L 148.110879 80.563207 
L 148.110879 61.304881 
L 145.085938 61.304881 
z
" clip-path="url(#p03eb37df4d)" style="fill: #1f77b4"/>
   </g>
   <g id="patch_12">
    <path d="M 145.085938 56.4903 
L 148.110879 56.4903 
L 148.110879 37.231974 
L 145.085938 37.231974 
z
" clip-path="url(#p03eb37df4d)" style="fill: #1f77b4"/>
   </g>
   <g id="matplotlib.axis_1">
    <g id="xtick_1">
     <g id="line2d_1">
      <defs>
       <path id="m4c99cd72f3" d="M 0 0 
L 0 3.5 
" style="stroke: #000000; stroke-width: 0.8"/>
      </defs>
      <g>
       <use xlink:href="#m4c99cd72f3" x="145.085938" y="284.942188" style="stroke: #000000; stroke-width: 0.8"/>
      </g>
     </g>
     <g id="text_1">
      <!-- 0 -->
      <g transform="translate(142.305469 299.115625)scale(0.1 -0.1)">
       <defs>
        <path id="Helvetica-30" d="M 1731 4475 
Q 2600 4475 2988 3759 
Q 3288 3206 3288 2244 
Q 3288 1331 3016 734 
Q 2622 -122 1728 -122 
Q 922 -122 528 578 
Q 200 1163 200 2147 
Q 200 2909 397 3456 
Q 766 4475 1731 4475 
z
M 1725 391 
Q 2163 391 2422 778 
Q 2681 1166 2681 2222 
Q 2681 2984 2493 3476 
Q 2306 3969 1766 3969 
Q 1269 3969 1039 3501 
Q 809 3034 809 2125 
Q 809 1441 956 1025 
Q 1181 391 1725 391 
z
" transform="scale(0.015625)"/>
       </defs>
       <use xlink:href="#Helvetica-30"/>
      </g>
     </g>
    </g>
    <g id="xtick_2">
     <g id="line2d_2">
      <g>
       <use xlink:href="#m4c99cd72f3" x="198.324901" y="284.942188" style="stroke: #000000; stroke-width: 0.8"/>
      </g>
     </g>
     <g id="text_2">
      <!-- 10 -->
      <g transform="translate(192.763963 299.115625)scale(0.1 -0.1)">
       <defs>
        <path id="Helvetica-31" d="M 613 3169 
L 613 3600 
Q 1222 3659 1462 3798 
Q 1703 3938 1822 4456 
L 2266 4456 
L 2266 0 
L 1666 0 
L 1666 3169 
L 613 3169 
z
" transform="scale(0.015625)"/>
       </defs>
       <use xlink:href="#Helvetica-31"/>
       <use xlink:href="#Helvetica-30" x="55.615234"/>
      </g>
     </g>
    </g>
    <g id="xtick_3">
     <g id="line2d_3">
      <g>
       <use xlink:href="#m4c99cd72f3" x="251.563864" y="284.942188" style="stroke: #000000; stroke-width: 0.8"/>
      </g>
     </g>
     <g id="text_3">
      <!-- 20 -->
      <g transform="translate(246.002927 299.115625)scale(0.1 -0.1)">
       <defs>
        <path id="Helvetica-32" d="M 200 0 
Q 231 578 439 1006 
Q 647 1434 1250 1784 
L 1850 2131 
Q 2253 2366 2416 2531 
Q 2672 2791 2672 3125 
Q 2672 3516 2437 3745 
Q 2203 3975 1813 3975 
Q 1234 3975 1013 3538 
Q 894 3303 881 2888 
L 309 2888 
Q 319 3472 525 3841 
Q 891 4491 1816 4491 
Q 2584 4491 2939 4075 
Q 3294 3659 3294 3150 
Q 3294 2613 2916 2231 
Q 2697 2009 2131 1694 
L 1703 1456 
Q 1397 1288 1222 1134 
Q 909 863 828 531 
L 3272 531 
L 3272 0 
L 200 0 
z
" transform="scale(0.015625)"/>
       </defs>
       <use xlink:href="#Helvetica-32"/>
       <use xlink:href="#Helvetica-30" x="55.615234"/>
      </g>
     </g>
    </g>
    <g id="xtick_4">
     <g id="line2d_4">
      <g>
       <use xlink:href="#m4c99cd72f3" x="304.802827" y="284.942188" style="stroke: #000000; stroke-width: 0.8"/>
      </g>
     </g>
     <g id="text_4">
      <!-- 30 -->
      <g transform="translate(299.24189 299.115625)scale(0.1 -0.1)">
       <defs>
        <path id="Helvetica-33" d="M 1663 -122 
Q 869 -122 511 314 
Q 153 750 153 1375 
L 741 1375 
Q 778 941 903 744 
Q 1122 391 1694 391 
Q 2138 391 2406 628 
Q 2675 866 2675 1241 
Q 2675 1703 2392 1887 
Q 2109 2072 1606 2072 
Q 1550 2072 1492 2070 
Q 1434 2069 1375 2066 
L 1375 2563 
Q 1463 2553 1522 2550 
Q 1581 2547 1650 2547 
Q 1966 2547 2169 2647 
Q 2525 2822 2525 3272 
Q 2525 3606 2287 3787 
Q 2050 3969 1734 3969 
Q 1172 3969 956 3594 
Q 838 3388 822 3006 
L 266 3006 
Q 266 3506 466 3856 
Q 809 4481 1675 4481 
Q 2359 4481 2734 4176 
Q 3109 3872 3109 3294 
Q 3109 2881 2888 2625 
Q 2750 2466 2531 2375 
Q 2884 2278 3082 2001 
Q 3281 1725 3281 1325 
Q 3281 684 2859 281 
Q 2438 -122 1663 -122 
z
" transform="scale(0.015625)"/>
       </defs>
       <use xlink:href="#Helvetica-33"/>
       <use xlink:href="#Helvetica-30" x="55.615234"/>
      </g>
     </g>
    </g>
    <g id="xtick_5">
     <g id="line2d_5">
      <g>
       <use xlink:href="#m4c99cd72f3" x="358.041791" y="284.942188" style="stroke: #000000; stroke-width: 0.8"/>
      </g>
     </g>
     <g id="text_5">
      <!-- 40 -->
      <g transform="translate(352.480853 299.115625)scale(0.1 -0.1)">
       <defs>
        <path id="Helvetica-34" d="M 2116 1584 
L 2116 3613 
L 681 1584 
L 2116 1584 
z
M 2125 0 
L 2125 1094 
L 163 1094 
L 163 1644 
L 2213 4488 
L 2688 4488 
L 2688 1584 
L 3347 1584 
L 3347 1094 
L 2688 1094 
L 2688 0 
L 2125 0 
z
" transform="scale(0.015625)"/>
       </defs>
       <use xlink:href="#Helvetica-34"/>
       <use xlink:href="#Helvetica-30" x="55.615234"/>
      </g>
     </g>
    </g>
    <g id="xtick_6">
     <g id="line2d_6">
      <g>
       <use xlink:href="#m4c99cd72f3" x="411.280754" y="284.942188" style="stroke: #000000; stroke-width: 0.8"/>
      </g>
     </g>
     <g id="text_6">
      <!-- 50 -->
      <g transform="translate(405.719816 299.115625)scale(0.1 -0.1)">
       <defs>
        <path id="Helvetica-35" d="M 791 1141 
Q 847 659 1238 475 
Q 1438 381 1700 381 
Q 2200 381 2440 700 
Q 2681 1019 2681 1406 
Q 2681 1875 2395 2131 
Q 2109 2388 1709 2388 
Q 1419 2388 1211 2275 
Q 1003 2163 856 1963 
L 369 1991 
L 709 4400 
L 3034 4400 
L 3034 3856 
L 1131 3856 
L 941 2613 
Q 1097 2731 1238 2791 
Q 1488 2894 1816 2894 
Q 2431 2894 2859 2497 
Q 3288 2100 3288 1491 
Q 3288 856 2895 371 
Q 2503 -113 1644 -113 
Q 1097 -113 676 195 
Q 256 503 206 1141 
L 791 1141 
z
" transform="scale(0.015625)"/>
       </defs>
       <use xlink:href="#Helvetica-35"/>
       <use xlink:href="#Helvetica-30" x="55.615234"/>
      </g>
     </g>
    </g>
   </g>
   <g id="matplotlib.axis_2">
    <g id="ytick_1">
     <g id="line2d_7">
      <defs>
       <path id="m8e343aef83" d="M 0 0 
L -3.5 0 
" style="stroke: #000000; stroke-width: 0.8"/>
      </defs>
      <g>
       <use xlink:href="#m8e343aef83" x="145.085938" y="263.5173" style="stroke: #000000; stroke-width: 0.8"/>
      </g>
     </g>
     <g id="text_7">
      <!-- White: English / Welsh -->
      <g transform="translate(38.054688 257.076519)scale(0.1 -0.1)">
       <defs>
        <path id="Helvetica-57" d="M 791 4591 
L 1656 856 
L 2694 4591 
L 3369 4591 
L 4406 856 
L 5272 4591 
L 5953 4591 
L 4747 0 
L 4094 0 
L 3034 3806 
L 1969 0 
L 1316 0 
L 116 4591 
L 791 4591 
z
" transform="scale(0.015625)"/>
        <path id="Helvetica-68" d="M 413 4606 
L 975 4606 
L 975 2894 
Q 1175 3147 1334 3250 
Q 1606 3428 2013 3428 
Q 2741 3428 3000 2919 
Q 3141 2641 3141 2147 
L 3141 0 
L 2563 0 
L 2563 2109 
Q 2563 2478 2469 2650 
Q 2316 2925 1894 2925 
Q 1544 2925 1259 2684 
Q 975 2444 975 1775 
L 975 0 
L 413 0 
L 413 4606 
z
" transform="scale(0.015625)"/>
        <path id="Helvetica-69" d="M 413 3331 
L 984 3331 
L 984 0 
L 413 0 
L 413 3331 
z
M 413 4591 
L 984 4591 
L 984 3953 
L 413 3953 
L 413 4591 
z
" transform="scale(0.015625)"/>
        <path id="Helvetica-74" d="M 525 4281 
L 1094 4281 
L 1094 3347 
L 1628 3347 
L 1628 2888 
L 1094 2888 
L 1094 703 
Q 1094 528 1213 469 
Q 1278 434 1431 434 
Q 1472 434 1519 436 
Q 1566 438 1628 444 
L 1628 0 
Q 1531 -28 1426 -40 
Q 1322 -53 1200 -53 
Q 806 -53 665 148 
Q 525 350 525 672 
L 525 2888 
L 72 2888 
L 72 3347 
L 525 3347 
L 525 4281 
z
" transform="scale(0.015625)"/>
        <path id="Helvetica-65" d="M 1806 3422 
Q 2163 3422 2497 3255 
Q 2831 3088 3006 2822 
Q 3175 2569 3231 2231 
Q 3281 2000 3281 1494 
L 828 1494 
Q 844 984 1069 676 
Q 1294 369 1766 369 
Q 2206 369 2469 659 
Q 2619 828 2681 1050 
L 3234 1050 
Q 3213 866 3089 639 
Q 2966 413 2813 269 
Q 2556 19 2178 -69 
Q 1975 -119 1719 -119 
Q 1094 -119 659 336 
Q 225 791 225 1609 
Q 225 2416 662 2919 
Q 1100 3422 1806 3422 
z
M 2703 1941 
Q 2669 2306 2544 2525 
Q 2313 2931 1772 2931 
Q 1384 2931 1121 2651 
Q 859 2372 844 1941 
L 2703 1941 
z
M 1753 3428 
L 1753 3428 
z
" transform="scale(0.015625)"/>
        <path id="Helvetica-3a" d="M 709 3303 
L 1363 3303 
L 1363 2622 
L 709 2622 
L 709 3303 
z
M 709 681 
L 1363 681 
L 1363 0 
L 709 0 
L 709 681 
z
" transform="scale(0.015625)"/>
        <path id="Helvetica-20" transform="scale(0.015625)"/>
        <path id="Helvetica-45" d="M 547 4591 
L 3894 4591 
L 3894 4028 
L 1153 4028 
L 1153 2634 
L 3688 2634 
L 3688 2103 
L 1153 2103 
L 1153 547 
L 3941 547 
L 3941 0 
L 547 0 
L 547 4591 
z
M 2244 4591 
L 2244 4591 
z
" transform="scale(0.015625)"/>
        <path id="Helvetica-6e" d="M 413 3347 
L 947 3347 
L 947 2872 
Q 1184 3166 1450 3294 
Q 1716 3422 2041 3422 
Q 2753 3422 3003 2925 
Q 3141 2653 3141 2147 
L 3141 0 
L 2569 0 
L 2569 2109 
Q 2569 2416 2478 2603 
Q 2328 2916 1934 2916 
Q 1734 2916 1606 2875 
Q 1375 2806 1200 2600 
Q 1059 2434 1017 2257 
Q 975 2081 975 1753 
L 975 0 
L 413 0 
L 413 3347 
z
M 1734 3428 
L 1734 3428 
z
" transform="scale(0.015625)"/>
        <path id="Helvetica-67" d="M 1594 3406 
Q 1988 3406 2281 3213 
Q 2441 3103 2606 2894 
L 2606 3316 
L 3125 3316 
L 3125 272 
Q 3125 -366 2938 -734 
Q 2588 -1416 1616 -1416 
Q 1075 -1416 706 -1173 
Q 338 -931 294 -416 
L 866 -416 
Q 906 -641 1028 -763 
Q 1219 -950 1628 -950 
Q 2275 -950 2475 -494 
Q 2594 -225 2584 466 
Q 2416 209 2178 84 
Q 1941 -41 1550 -41 
Q 1006 -41 598 345 
Q 191 731 191 1622 
Q 191 2463 602 2934 
Q 1013 3406 1594 3406 
z
M 2606 1688 
Q 2606 2309 2350 2609 
Q 2094 2909 1697 2909 
Q 1103 2909 884 2353 
Q 769 2056 769 1575 
Q 769 1009 998 714 
Q 1228 419 1616 419 
Q 2222 419 2469 966 
Q 2606 1275 2606 1688 
z
M 1659 3428 
L 1659 3428 
z
" transform="scale(0.015625)"/>
        <path id="Helvetica-6c" d="M 428 4591 
L 991 4591 
L 991 0 
L 428 0 
L 428 4591 
z
" transform="scale(0.015625)"/>
        <path id="Helvetica-73" d="M 747 1050 
Q 772 769 888 619 
Q 1100 347 1625 347 
Q 1938 347 2175 483 
Q 2413 619 2413 903 
Q 2413 1119 2222 1231 
Q 2100 1300 1741 1391 
L 1294 1503 
Q 866 1609 663 1741 
Q 300 1969 300 2372 
Q 300 2847 642 3140 
Q 984 3434 1563 3434 
Q 2319 3434 2653 2991 
Q 2863 2709 2856 2384 
L 2325 2384 
Q 2309 2575 2191 2731 
Q 1997 2953 1519 2953 
Q 1200 2953 1036 2831 
Q 872 2709 872 2509 
Q 872 2291 1088 2159 
Q 1213 2081 1456 2022 
L 1828 1931 
Q 2434 1784 2641 1647 
Q 2969 1431 2969 969 
Q 2969 522 2630 197 
Q 2291 -128 1597 -128 
Q 850 -128 539 211 
Q 228 550 206 1050 
L 747 1050 
z
M 1578 3428 
L 1578 3428 
z
" transform="scale(0.015625)"/>
        <path id="Helvetica-2f" d="M 1456 4591 
L 1931 4591 
L 475 0 
L 0 0 
L 1456 4591 
z
" transform="scale(0.015625)"/>
       </defs>
       <use xlink:href="#Helvetica-57"/>
       <use xlink:href="#Helvetica-68" x="94.384766"/>
       <use xlink:href="#Helvetica-69" x="150"/>
       <use xlink:href="#Helvetica-74" x="172.216797"/>
       <use xlink:href="#Helvetica-65" x="200"/>
       <use xlink:href="#Helvetica-3a" x="255.615234"/>
       <use xlink:href="#Helvetica-20" x="283.398438"/>
       <use xlink:href="#Helvetica-45" x="311.181641"/>
       <use xlink:href="#Helvetica-6e" x="377.880859"/>
       <use xlink:href="#Helvetica-67" x="433.496094"/>
       <use xlink:href="#Helvetica-6c" x="489.111328"/>
       <use xlink:href="#Helvetica-69" x="511.328125"/>
       <use xlink:href="#Helvetica-73" x="533.544922"/>
       <use xlink:href="#Helvetica-68" x="583.544922"/>
       <use xlink:href="#Helvetica-20" x="639.160156"/>
       <use xlink:href="#Helvetica-2f" x="666.943359"/>
       <use xlink:href="#Helvetica-20" x="694.726562"/>
       <use xlink:href="#Helvetica-57" x="722.509766"/>
       <use xlink:href="#Helvetica-65" x="816.894531"/>
       <use xlink:href="#Helvetica-6c" x="872.509766"/>
       <use xlink:href="#Helvetica-73" x="894.726562"/>
       <use xlink:href="#Helvetica-68" x="944.726562"/>
      </g>
      <!-- / Scottish / Northern -->
      <g transform="translate(49.721875 267.897144)scale(0.1 -0.1)">
       <defs>
        <path id="Helvetica-53" d="M 894 1481 
Q 916 1091 1078 847 
Q 1388 391 2169 391 
Q 2519 391 2806 491 
Q 3363 684 3363 1184 
Q 3363 1559 3128 1719 
Q 2891 1875 2384 1991 
L 1763 2131 
Q 1153 2269 900 2434 
Q 463 2722 463 3294 
Q 463 3913 891 4309 
Q 1319 4706 2103 4706 
Q 2825 4706 3329 4357 
Q 3834 4009 3834 3244 
L 3250 3244 
Q 3203 3613 3050 3809 
Q 2766 4169 2084 4169 
Q 1534 4169 1293 3937 
Q 1053 3706 1053 3400 
Q 1053 3063 1334 2906 
Q 1519 2806 2169 2656 
L 2813 2509 
Q 3278 2403 3531 2219 
Q 3969 1897 3969 1284 
Q 3969 522 3414 194 
Q 2859 -134 2125 -134 
Q 1269 -134 784 303 
Q 300 738 309 1481 
L 894 1481 
z
M 2150 4716 
L 2150 4716 
z
" transform="scale(0.015625)"/>
        <path id="Helvetica-63" d="M 1703 3444 
Q 2269 3444 2623 3169 
Q 2978 2894 3050 2222 
L 2503 2222 
Q 2453 2531 2275 2736 
Q 2097 2941 1703 2941 
Q 1166 2941 934 2416 
Q 784 2075 784 1575 
Q 784 1072 996 728 
Q 1209 384 1666 384 
Q 2016 384 2220 598 
Q 2425 813 2503 1184 
L 3050 1184 
Q 2956 519 2581 211 
Q 2206 -97 1622 -97 
Q 966 -97 575 383 
Q 184 863 184 1581 
Q 184 2463 612 2953 
Q 1041 3444 1703 3444 
z
M 1616 3428 
L 1616 3428 
z
" transform="scale(0.015625)"/>
        <path id="Helvetica-6f" d="M 1741 363 
Q 2300 363 2508 786 
Q 2716 1209 2716 1728 
Q 2716 2197 2566 2491 
Q 2328 2953 1747 2953 
Q 1231 2953 997 2559 
Q 763 2166 763 1609 
Q 763 1075 997 719 
Q 1231 363 1741 363 
z
M 1763 3444 
Q 2409 3444 2856 3012 
Q 3303 2581 3303 1744 
Q 3303 934 2909 406 
Q 2516 -122 1688 -122 
Q 997 -122 590 345 
Q 184 813 184 1600 
Q 184 2444 612 2944 
Q 1041 3444 1763 3444 
z
M 1744 3428 
L 1744 3428 
z
" transform="scale(0.015625)"/>
        <path id="Helvetica-4e" d="M 488 4591 
L 1222 4591 
L 3541 872 
L 3541 4591 
L 4131 4591 
L 4131 0 
L 3434 0 
L 1081 3716 
L 1081 0 
L 488 0 
L 488 4591 
z
M 2269 4591 
L 2269 4591 
z
" transform="scale(0.015625)"/>
        <path id="Helvetica-72" d="M 428 3347 
L 963 3347 
L 963 2769 
Q 1028 2938 1284 3180 
Q 1541 3422 1875 3422 
Q 1891 3422 1928 3419 
Q 1966 3416 2056 3406 
L 2056 2813 
Q 2006 2822 1964 2825 
Q 1922 2828 1872 2828 
Q 1447 2828 1219 2554 
Q 991 2281 991 1925 
L 991 0 
L 428 0 
L 428 3347 
z
" transform="scale(0.015625)"/>
       </defs>
       <use xlink:href="#Helvetica-2f"/>
       <use xlink:href="#Helvetica-20" x="27.783203"/>
       <use xlink:href="#Helvetica-53" x="55.566406"/>
       <use xlink:href="#Helvetica-63" x="122.265625"/>
       <use xlink:href="#Helvetica-6f" x="172.265625"/>
       <use xlink:href="#Helvetica-74" x="227.880859"/>
       <use xlink:href="#Helvetica-74" x="255.664062"/>
       <use xlink:href="#Helvetica-69" x="283.447266"/>
       <use xlink:href="#Helvetica-73" x="305.664062"/>
       <use xlink:href="#Helvetica-68" x="355.664062"/>
       <use xlink:href="#Helvetica-20" x="411.279297"/>
       <use xlink:href="#Helvetica-2f" x="439.0625"/>
       <use xlink:href="#Helvetica-20" x="466.845703"/>
       <use xlink:href="#Helvetica-4e" x="494.628906"/>
       <use xlink:href="#Helvetica-6f" x="566.845703"/>
       <use xlink:href="#Helvetica-72" x="622.460938"/>
       <use xlink:href="#Helvetica-74" x="655.761719"/>
       <use xlink:href="#Helvetica-68" x="683.544922"/>
       <use xlink:href="#Helvetica-65" x="739.160156"/>
       <use xlink:href="#Helvetica-72" x="794.775391"/>
       <use xlink:href="#Helvetica-6e" x="828.076172"/>
      </g>
      <!-- Irish / British -->
      <g transform="translate(83.078125 278.589644)scale(0.1 -0.1)">
       <defs>
        <path id="Helvetica-49" d="M 628 4591 
L 1256 4591 
L 1256 0 
L 628 0 
L 628 4591 
z
" transform="scale(0.015625)"/>
        <path id="Helvetica-42" d="M 2213 2650 
Q 2606 2650 2825 2759 
Q 3169 2931 3169 3378 
Q 3169 3828 2803 3984 
Q 2597 4072 2191 4072 
L 1081 4072 
L 1081 2650 
L 2213 2650 
z
M 2422 531 
Q 2994 531 3238 863 
Q 3391 1072 3391 1369 
Q 3391 1869 2944 2050 
Q 2706 2147 2316 2147 
L 1081 2147 
L 1081 531 
L 2422 531 
z
M 472 4591 
L 2444 4591 
Q 3250 4591 3591 4109 
Q 3791 3825 3791 3453 
Q 3791 3019 3544 2741 
Q 3416 2594 3175 2472 
Q 3528 2338 3703 2169 
Q 4013 1869 4013 1341 
Q 4013 897 3734 538 
Q 3319 0 2413 0 
L 472 0 
L 472 4591 
z
" transform="scale(0.015625)"/>
       </defs>
       <use xlink:href="#Helvetica-49"/>
       <use xlink:href="#Helvetica-72" x="27.783203"/>
       <use xlink:href="#Helvetica-69" x="61.083984"/>
       <use xlink:href="#Helvetica-73" x="83.300781"/>
       <use xlink:href="#Helvetica-68" x="133.300781"/>
       <use xlink:href="#Helvetica-20" x="188.916016"/>
       <use xlink:href="#Helvetica-2f" x="216.699219"/>
       <use xlink:href="#Helvetica-20" x="244.482422"/>
       <use xlink:href="#Helvetica-42" x="272.265625"/>
       <use xlink:href="#Helvetica-72" x="338.964844"/>
       <use xlink:href="#Helvetica-69" x="372.265625"/>
       <use xlink:href="#Helvetica-74" x="394.482422"/>
       <use xlink:href="#Helvetica-69" x="422.265625"/>
       <use xlink:href="#Helvetica-73" x="444.482422"/>
       <use xlink:href="#Helvetica-68" x="494.482422"/>
      </g>
     </g>
    </g>
    <g id="ytick_2">
     <g id="line2d_8">
      <g>
       <use xlink:href="#m8e343aef83" x="145.085938" y="239.444393" style="stroke: #000000; stroke-width: 0.8"/>
      </g>
     </g>
     <g id="text_8">
      <!-- White: Any other White -->
      <g transform="translate(35.829687 238.372518)scale(0.1 -0.1)">
       <defs>
        <path id="Helvetica-41" d="M 2844 1881 
L 2147 3909 
L 1406 1881 
L 2844 1881 
z
M 1822 4591 
L 2525 4591 
L 4191 0 
L 3509 0 
L 3044 1375 
L 1228 1375 
L 731 0 
L 94 0 
L 1822 4591 
z
M 2144 4591 
L 2144 4591 
z
" transform="scale(0.015625)"/>
        <path id="Helvetica-79" d="M 2503 3347 
L 3125 3347 
Q 3006 3025 2597 1878 
Q 2291 1016 2084 472 
Q 1597 -809 1397 -1090 
Q 1197 -1372 709 -1372 
Q 591 -1372 527 -1362 
Q 463 -1353 369 -1328 
L 369 -816 
Q 516 -856 581 -865 
Q 647 -875 697 -875 
Q 853 -875 926 -823 
Q 1000 -772 1050 -697 
Q 1066 -672 1162 -440 
Q 1259 -209 1303 -97 
L 66 3347 
L 703 3347 
L 1600 622 
L 2503 3347 
z
M 1597 3428 
L 1597 3428 
z
" transform="scale(0.015625)"/>
       </defs>
       <use xlink:href="#Helvetica-57"/>
       <use xlink:href="#Helvetica-68" x="94.384766"/>
       <use xlink:href="#Helvetica-69" x="150"/>
       <use xlink:href="#Helvetica-74" x="172.216797"/>
       <use xlink:href="#Helvetica-65" x="200"/>
       <use xlink:href="#Helvetica-3a" x="255.615234"/>
       <use xlink:href="#Helvetica-20" x="283.398438"/>
       <use xlink:href="#Helvetica-41" x="311.181641"/>
       <use xlink:href="#Helvetica-6e" x="377.880859"/>
       <use xlink:href="#Helvetica-79" x="433.496094"/>
       <use xlink:href="#Helvetica-20" x="483.496094"/>
       <use xlink:href="#Helvetica-6f" x="511.279297"/>
       <use xlink:href="#Helvetica-74" x="566.894531"/>
       <use xlink:href="#Helvetica-68" x="594.677734"/>
       <use xlink:href="#Helvetica-65" x="650.292969"/>
       <use xlink:href="#Helvetica-72" x="705.908203"/>
       <use xlink:href="#Helvetica-20" x="739.208984"/>
       <use xlink:href="#Helvetica-57" x="766.992188"/>
       <use xlink:href="#Helvetica-68" x="861.376953"/>
       <use xlink:href="#Helvetica-69" x="916.992188"/>
       <use xlink:href="#Helvetica-74" x="939.208984"/>
       <use xlink:href="#Helvetica-65" x="966.992188"/>
      </g>
      <!-- background -->
      <g transform="translate(85.829688 249.152518)scale(0.1 -0.1)">
       <defs>
        <path id="Helvetica-62" d="M 369 4606 
L 916 4606 
L 916 2941 
Q 1100 3181 1356 3307 
Q 1613 3434 1913 3434 
Q 2538 3434 2927 3004 
Q 3316 2575 3316 1738 
Q 3316 944 2931 419 
Q 2547 -106 1866 -106 
Q 1484 -106 1222 78 
Q 1066 188 888 428 
L 888 0 
L 369 0 
L 369 4606 
z
M 1831 391 
Q 2288 391 2514 753 
Q 2741 1116 2741 1709 
Q 2741 2238 2514 2584 
Q 2288 2931 1847 2931 
Q 1463 2931 1173 2647 
Q 884 2363 884 1709 
Q 884 1238 1003 944 
Q 1225 391 1831 391 
z
" transform="scale(0.015625)"/>
        <path id="Helvetica-61" d="M 844 891 
Q 844 647 1022 506 
Q 1200 366 1444 366 
Q 1741 366 2019 503 
Q 2488 731 2488 1250 
L 2488 1703 
Q 2384 1638 2221 1594 
Q 2059 1550 1903 1531 
L 1563 1488 
Q 1256 1447 1103 1359 
Q 844 1213 844 891 
z
M 2206 2028 
Q 2400 2053 2466 2191 
Q 2503 2266 2503 2406 
Q 2503 2694 2298 2823 
Q 2094 2953 1713 2953 
Q 1272 2953 1088 2716 
Q 984 2584 953 2325 
L 428 2325 
Q 444 2944 830 3186 
Q 1216 3428 1725 3428 
Q 2316 3428 2684 3203 
Q 3050 2978 3050 2503 
L 3050 575 
Q 3050 488 3086 434 
Q 3122 381 3238 381 
Q 3275 381 3322 386 
Q 3369 391 3422 400 
L 3422 -16 
Q 3291 -53 3222 -62 
Q 3153 -72 3034 -72 
Q 2744 -72 2613 134 
Q 2544 244 2516 444 
Q 2344 219 2022 53 
Q 1700 -113 1313 -113 
Q 847 -113 551 170 
Q 256 453 256 878 
Q 256 1344 547 1600 
Q 838 1856 1309 1916 
L 2206 2028 
z
M 1741 3428 
L 1741 3428 
z
" transform="scale(0.015625)"/>
        <path id="Helvetica-6b" d="M 400 4591 
L 941 4591 
L 941 1925 
L 2384 3347 
L 3103 3347 
L 1822 2094 
L 3175 0 
L 2456 0 
L 1413 1688 
L 941 1256 
L 941 0 
L 400 0 
L 400 4591 
z
" transform="scale(0.015625)"/>
        <path id="Helvetica-75" d="M 975 3347 
L 975 1125 
Q 975 869 1056 706 
Q 1206 406 1616 406 
Q 2203 406 2416 931 
Q 2531 1213 2531 1703 
L 2531 3347 
L 3094 3347 
L 3094 0 
L 2563 0 
L 2569 494 
Q 2459 303 2297 172 
Q 1975 -91 1516 -91 
Q 800 -91 541 388 
Q 400 644 400 1072 
L 400 3347 
L 975 3347 
z
M 1747 3428 
L 1747 3428 
z
" transform="scale(0.015625)"/>
        <path id="Helvetica-64" d="M 769 1634 
Q 769 1097 997 734 
Q 1225 372 1728 372 
Q 2119 372 2370 708 
Q 2622 1044 2622 1672 
Q 2622 2306 2362 2611 
Q 2103 2916 1722 2916 
Q 1297 2916 1033 2591 
Q 769 2266 769 1634 
z
M 1616 3406 
Q 2000 3406 2259 3244 
Q 2409 3150 2600 2916 
L 2600 4606 
L 3141 4606 
L 3141 0 
L 2634 0 
L 2634 466 
Q 2438 156 2169 18 
Q 1900 -119 1553 -119 
Q 994 -119 584 351 
Q 175 822 175 1603 
Q 175 2334 548 2870 
Q 922 3406 1616 3406 
z
" transform="scale(0.015625)"/>
       </defs>
       <use xlink:href="#Helvetica-62"/>
       <use xlink:href="#Helvetica-61" x="55.615234"/>
       <use xlink:href="#Helvetica-63" x="111.230469"/>
       <use xlink:href="#Helvetica-6b" x="161.230469"/>
       <use xlink:href="#Helvetica-67" x="211.230469"/>
       <use xlink:href="#Helvetica-72" x="266.845703"/>
       <use xlink:href="#Helvetica-6f" x="300.146484"/>
       <use xlink:href="#Helvetica-75" x="355.761719"/>
       <use xlink:href="#Helvetica-6e" x="411.376953"/>
       <use xlink:href="#Helvetica-64" x="466.992188"/>
      </g>
     </g>
    </g>
    <g id="ytick_3">
     <g id="line2d_9">
      <g>
       <use xlink:href="#m8e343aef83" x="145.085938" y="215.371486" style="stroke: #000000; stroke-width: 0.8"/>
      </g>
     </g>
     <g id="text_9">
      <!-- Do not wish to declare -->
      <g transform="translate(39.151562 218.958205)scale(0.1 -0.1)">
       <defs>
        <path id="Helvetica-44" d="M 2250 531 
Q 2566 531 2769 597 
Q 3131 719 3363 1066 
Q 3547 1344 3628 1778 
Q 3675 2038 3675 2259 
Q 3675 3113 3336 3584 
Q 2997 4056 2244 4056 
L 1141 4056 
L 1141 531 
L 2250 531 
z
M 516 4591 
L 2375 4591 
Q 3322 4591 3844 3919 
Q 4309 3313 4309 2366 
Q 4309 1634 4034 1044 
Q 3550 0 2369 0 
L 516 0 
L 516 4591 
z
" transform="scale(0.015625)"/>
        <path id="Helvetica-77" d="M 672 3347 
L 1316 709 
L 1969 3347 
L 2600 3347 
L 3256 725 
L 3941 3347 
L 4503 3347 
L 3531 0 
L 2947 0 
L 2266 2591 
L 1606 0 
L 1022 0 
L 56 3347 
L 672 3347 
z
" transform="scale(0.015625)"/>
       </defs>
       <use xlink:href="#Helvetica-44"/>
       <use xlink:href="#Helvetica-6f" x="72.216797"/>
       <use xlink:href="#Helvetica-20" x="127.832031"/>
       <use xlink:href="#Helvetica-6e" x="155.615234"/>
       <use xlink:href="#Helvetica-6f" x="211.230469"/>
       <use xlink:href="#Helvetica-74" x="266.845703"/>
       <use xlink:href="#Helvetica-20" x="294.628906"/>
       <use xlink:href="#Helvetica-77" x="322.412109"/>
       <use xlink:href="#Helvetica-69" x="394.628906"/>
       <use xlink:href="#Helvetica-73" x="416.845703"/>
       <use xlink:href="#Helvetica-68" x="466.845703"/>
       <use xlink:href="#Helvetica-20" x="522.460938"/>
       <use xlink:href="#Helvetica-74" x="550.244141"/>
       <use xlink:href="#Helvetica-6f" x="578.027344"/>
       <use xlink:href="#Helvetica-20" x="633.642578"/>
       <use xlink:href="#Helvetica-64" x="661.425781"/>
       <use xlink:href="#Helvetica-65" x="717.041016"/>
       <use xlink:href="#Helvetica-63" x="772.65625"/>
       <use xlink:href="#Helvetica-6c" x="822.65625"/>
       <use xlink:href="#Helvetica-61" x="844.873047"/>
       <use xlink:href="#Helvetica-72" x="900.488281"/>
       <use xlink:href="#Helvetica-65" x="933.789062"/>
      </g>
     </g>
    </g>
    <g id="ytick_4">
     <g id="line2d_10">
      <g>
       <use xlink:href="#m8e343aef83" x="145.085938" y="191.298579" style="stroke: #000000; stroke-width: 0.8"/>
      </g>
     </g>
     <g id="text_10">
      <!-- White: Irish -->
      <g transform="translate(88.078125 194.885298)scale(0.1 -0.1)">
       <use xlink:href="#Helvetica-57"/>
       <use xlink:href="#Helvetica-68" x="94.384766"/>
       <use xlink:href="#Helvetica-69" x="150"/>
       <use xlink:href="#Helvetica-74" x="172.216797"/>
       <use xlink:href="#Helvetica-65" x="200"/>
       <use xlink:href="#Helvetica-3a" x="255.615234"/>
       <use xlink:href="#Helvetica-20" x="283.398438"/>
       <use xlink:href="#Helvetica-49" x="311.181641"/>
       <use xlink:href="#Helvetica-72" x="338.964844"/>
       <use xlink:href="#Helvetica-69" x="372.265625"/>
       <use xlink:href="#Helvetica-73" x="394.482422"/>
       <use xlink:href="#Helvetica-68" x="444.482422"/>
      </g>
     </g>
    </g>
    <g id="ytick_5">
     <g id="line2d_11">
      <g>
       <use xlink:href="#m8e343aef83" x="145.085938" y="167.225672" style="stroke: #000000; stroke-width: 0.8"/>
      </g>
     </g>
     <g id="text_11">
      <!-- Asian / Asian British: -->
      <g transform="translate(46.384375 166.183485)scale(0.1 -0.1)">
       <use xlink:href="#Helvetica-41"/>
       <use xlink:href="#Helvetica-73" x="66.699219"/>
       <use xlink:href="#Helvetica-69" x="116.699219"/>
       <use xlink:href="#Helvetica-61" x="138.916016"/>
       <use xlink:href="#Helvetica-6e" x="194.53125"/>
       <use xlink:href="#Helvetica-20" x="250.146484"/>
       <use xlink:href="#Helvetica-2f" x="277.929688"/>
       <use xlink:href="#Helvetica-20" x="305.712891"/>
       <use xlink:href="#Helvetica-41" x="333.496094"/>
       <use xlink:href="#Helvetica-73" x="400.195312"/>
       <use xlink:href="#Helvetica-69" x="450.195312"/>
       <use xlink:href="#Helvetica-61" x="472.412109"/>
       <use xlink:href="#Helvetica-6e" x="528.027344"/>
       <use xlink:href="#Helvetica-20" x="583.642578"/>
       <use xlink:href="#Helvetica-42" x="611.425781"/>
       <use xlink:href="#Helvetica-72" x="678.125"/>
       <use xlink:href="#Helvetica-69" x="711.425781"/>
       <use xlink:href="#Helvetica-74" x="733.642578"/>
       <use xlink:href="#Helvetica-69" x="761.425781"/>
       <use xlink:href="#Helvetica-73" x="783.642578"/>
       <use xlink:href="#Helvetica-68" x="833.642578"/>
       <use xlink:href="#Helvetica-3a" x="889.257812"/>
      </g>
      <!-- Indian -->
      <g transform="translate(110.842187 176.875985)scale(0.1 -0.1)">
       <use xlink:href="#Helvetica-49"/>
       <use xlink:href="#Helvetica-6e" x="27.783203"/>
       <use xlink:href="#Helvetica-64" x="83.398438"/>
       <use xlink:href="#Helvetica-69" x="139.013672"/>
       <use xlink:href="#Helvetica-61" x="161.230469"/>
       <use xlink:href="#Helvetica-6e" x="216.845703"/>
      </g>
     </g>
    </g>
    <g id="ytick_6">
     <g id="line2d_12">
      <g>
       <use xlink:href="#m8e343aef83" x="145.085938" y="143.152765" style="stroke: #000000; stroke-width: 0.8"/>
      </g>
     </g>
     <g id="text_12">
      <!-- Asian / Asian British: -->
      <g transform="translate(46.384375 142.110578)scale(0.1 -0.1)">
       <use xlink:href="#Helvetica-41"/>
       <use xlink:href="#Helvetica-73" x="66.699219"/>
       <use xlink:href="#Helvetica-69" x="116.699219"/>
       <use xlink:href="#Helvetica-61" x="138.916016"/>
       <use xlink:href="#Helvetica-6e" x="194.53125"/>
       <use xlink:href="#Helvetica-20" x="250.146484"/>
       <use xlink:href="#Helvetica-2f" x="277.929688"/>
       <use xlink:href="#Helvetica-20" x="305.712891"/>
       <use xlink:href="#Helvetica-41" x="333.496094"/>
       <use xlink:href="#Helvetica-73" x="400.195312"/>
       <use xlink:href="#Helvetica-69" x="450.195312"/>
       <use xlink:href="#Helvetica-61" x="472.412109"/>
       <use xlink:href="#Helvetica-6e" x="528.027344"/>
       <use xlink:href="#Helvetica-20" x="583.642578"/>
       <use xlink:href="#Helvetica-42" x="611.425781"/>
       <use xlink:href="#Helvetica-72" x="678.125"/>
       <use xlink:href="#Helvetica-69" x="711.425781"/>
       <use xlink:href="#Helvetica-74" x="733.642578"/>
       <use xlink:href="#Helvetica-69" x="761.425781"/>
       <use xlink:href="#Helvetica-73" x="783.642578"/>
       <use xlink:href="#Helvetica-68" x="833.642578"/>
       <use xlink:href="#Helvetica-3a" x="889.257812"/>
      </g>
      <!-- Chinese -->
      <g transform="translate(101.398438 152.803078)scale(0.1 -0.1)">
       <defs>
        <path id="Helvetica-43" d="M 2422 4716 
Q 3294 4716 3775 4256 
Q 4256 3797 4309 3213 
L 3703 3213 
Q 3600 3656 3292 3915 
Q 2984 4175 2428 4175 
Q 1750 4175 1333 3698 
Q 916 3222 916 2238 
Q 916 1431 1292 929 
Q 1669 428 2416 428 
Q 3103 428 3463 956 
Q 3653 1234 3747 1688 
L 4353 1688 
Q 4272 963 3816 472 
Q 3269 -119 2341 -119 
Q 1541 -119 997 366 
Q 281 1006 281 2344 
Q 281 3359 819 4009 
Q 1400 4716 2422 4716 
z
M 2297 4716 
L 2297 4716 
z
" transform="scale(0.015625)"/>
       </defs>
       <use xlink:href="#Helvetica-43"/>
       <use xlink:href="#Helvetica-68" x="72.216797"/>
       <use xlink:href="#Helvetica-69" x="127.832031"/>
       <use xlink:href="#Helvetica-6e" x="150.048828"/>
       <use xlink:href="#Helvetica-65" x="205.664062"/>
       <use xlink:href="#Helvetica-73" x="261.279297"/>
       <use xlink:href="#Helvetica-65" x="311.279297"/>
      </g>
     </g>
    </g>
    <g id="ytick_7">
     <g id="line2d_13">
      <g>
       <use xlink:href="#m8e343aef83" x="145.085938" y="119.079858" style="stroke: #000000; stroke-width: 0.8"/>
      </g>
     </g>
     <g id="text_13">
      <!-- Mixed / Multiple Ethnic -->
      <g transform="translate(38.051562 112.613296)scale(0.1 -0.1)">
       <defs>
        <path id="Helvetica-4d" d="M 472 4591 
L 1363 4591 
L 2681 709 
L 3991 4591 
L 4872 4591 
L 4872 0 
L 4281 0 
L 4281 2709 
Q 4281 2850 4287 3175 
Q 4294 3500 4294 3872 
L 2984 0 
L 2369 0 
L 1050 3872 
L 1050 3731 
Q 1050 3563 1058 3217 
Q 1066 2872 1066 2709 
L 1066 0 
L 472 0 
L 472 4591 
z
" transform="scale(0.015625)"/>
        <path id="Helvetica-78" d="M 94 3347 
L 822 3347 
L 1591 2169 
L 2369 3347 
L 3053 3331 
L 1925 1716 
L 3103 0 
L 2384 0 
L 1553 1256 
L 747 0 
L 34 0 
L 1213 1716 
L 94 3347 
z
" transform="scale(0.015625)"/>
        <path id="Helvetica-70" d="M 1825 378 
Q 2219 378 2480 708 
Q 2741 1038 2741 1694 
Q 2741 2094 2625 2381 
Q 2406 2934 1825 2934 
Q 1241 2934 1025 2350 
Q 909 2038 909 1556 
Q 909 1169 1025 897 
Q 1244 378 1825 378 
z
M 369 3331 
L 916 3331 
L 916 2888 
Q 1084 3116 1284 3241 
Q 1569 3428 1953 3428 
Q 2522 3428 2919 2992 
Q 3316 2556 3316 1747 
Q 3316 653 2744 184 
Q 2381 -113 1900 -113 
Q 1522 -113 1266 53 
Q 1116 147 931 375 
L 931 -1334 
L 369 -1334 
L 369 3331 
z
" transform="scale(0.015625)"/>
       </defs>
       <use xlink:href="#Helvetica-4d"/>
       <use xlink:href="#Helvetica-69" x="83.300781"/>
       <use xlink:href="#Helvetica-78" x="105.517578"/>
       <use xlink:href="#Helvetica-65" x="155.517578"/>
       <use xlink:href="#Helvetica-64" x="211.132812"/>
       <use xlink:href="#Helvetica-20" x="266.748047"/>
       <use xlink:href="#Helvetica-2f" x="294.53125"/>
       <use xlink:href="#Helvetica-20" x="322.314453"/>
       <use xlink:href="#Helvetica-4d" x="350.097656"/>
       <use xlink:href="#Helvetica-75" x="433.398438"/>
       <use xlink:href="#Helvetica-6c" x="489.013672"/>
       <use xlink:href="#Helvetica-74" x="511.230469"/>
       <use xlink:href="#Helvetica-69" x="539.013672"/>
       <use xlink:href="#Helvetica-70" x="561.230469"/>
       <use xlink:href="#Helvetica-6c" x="616.845703"/>
       <use xlink:href="#Helvetica-65" x="639.0625"/>
       <use xlink:href="#Helvetica-20" x="694.677734"/>
       <use xlink:href="#Helvetica-45" x="722.460938"/>
       <use xlink:href="#Helvetica-74" x="789.160156"/>
       <use xlink:href="#Helvetica-68" x="816.943359"/>
       <use xlink:href="#Helvetica-6e" x="872.558594"/>
       <use xlink:href="#Helvetica-69" x="928.173828"/>
       <use xlink:href="#Helvetica-63" x="950.390625"/>
      </g>
      <!-- groups: Any other Mixed -->
      <g transform="translate(29.704687 123.333921)scale(0.1 -0.1)">
       <use xlink:href="#Helvetica-67"/>
       <use xlink:href="#Helvetica-72" x="55.615234"/>
       <use xlink:href="#Helvetica-6f" x="88.916016"/>
       <use xlink:href="#Helvetica-75" x="144.53125"/>
       <use xlink:href="#Helvetica-70" x="200.146484"/>
       <use xlink:href="#Helvetica-73" x="255.761719"/>
       <use xlink:href="#Helvetica-3a" x="305.761719"/>
       <use xlink:href="#Helvetica-20" x="333.544922"/>
       <use xlink:href="#Helvetica-41" x="361.328125"/>
       <use xlink:href="#Helvetica-6e" x="428.027344"/>
       <use xlink:href="#Helvetica-79" x="483.642578"/>
       <use xlink:href="#Helvetica-20" x="533.642578"/>
       <use xlink:href="#Helvetica-6f" x="561.425781"/>
       <use xlink:href="#Helvetica-74" x="617.041016"/>
       <use xlink:href="#Helvetica-68" x="644.824219"/>
       <use xlink:href="#Helvetica-65" x="700.439453"/>
       <use xlink:href="#Helvetica-72" x="756.054688"/>
       <use xlink:href="#Helvetica-20" x="789.355469"/>
       <use xlink:href="#Helvetica-4d" x="817.138672"/>
       <use xlink:href="#Helvetica-69" x="900.439453"/>
       <use xlink:href="#Helvetica-78" x="922.65625"/>
       <use xlink:href="#Helvetica-65" x="972.65625"/>
       <use xlink:href="#Helvetica-64" x="1028.271484"/>
      </g>
      <!-- / Multiple ethnic background, -->
      <g transform="translate(10.8 134.182671)scale(0.1 -0.1)">
       <defs>
        <path id="Helvetica-2c" d="M 531 -653 
Q 747 -616 834 -350 
Q 881 -209 881 -78 
Q 881 -56 879 -39 
Q 878 -22 872 0 
L 531 0 
L 531 681 
L 1200 681 
L 1200 50 
Q 1200 -322 1050 -603 
Q 900 -884 531 -950 
L 531 -653 
z
" transform="scale(0.015625)"/>
       </defs>
       <use xlink:href="#Helvetica-2f"/>
       <use xlink:href="#Helvetica-20" x="27.783203"/>
       <use xlink:href="#Helvetica-4d" x="55.566406"/>
       <use xlink:href="#Helvetica-75" x="138.867188"/>
       <use xlink:href="#Helvetica-6c" x="194.482422"/>
       <use xlink:href="#Helvetica-74" x="216.699219"/>
       <use xlink:href="#Helvetica-69" x="244.482422"/>
       <use xlink:href="#Helvetica-70" x="266.699219"/>
       <use xlink:href="#Helvetica-6c" x="322.314453"/>
       <use xlink:href="#Helvetica-65" x="344.53125"/>
       <use xlink:href="#Helvetica-20" x="400.146484"/>
       <use xlink:href="#Helvetica-65" x="427.929688"/>
       <use xlink:href="#Helvetica-74" x="483.544922"/>
       <use xlink:href="#Helvetica-68" x="511.328125"/>
       <use xlink:href="#Helvetica-6e" x="566.943359"/>
       <use xlink:href="#Helvetica-69" x="622.558594"/>
       <use xlink:href="#Helvetica-63" x="644.775391"/>
       <use xlink:href="#Helvetica-20" x="694.775391"/>
       <use xlink:href="#Helvetica-62" x="722.558594"/>
       <use xlink:href="#Helvetica-61" x="778.173828"/>
       <use xlink:href="#Helvetica-63" x="833.789062"/>
       <use xlink:href="#Helvetica-6b" x="883.789062"/>
       <use xlink:href="#Helvetica-67" x="933.789062"/>
       <use xlink:href="#Helvetica-72" x="989.404297"/>
       <use xlink:href="#Helvetica-6f" x="1022.705078"/>
       <use xlink:href="#Helvetica-75" x="1078.320312"/>
       <use xlink:href="#Helvetica-6e" x="1133.935547"/>
       <use xlink:href="#Helvetica-64" x="1189.550781"/>
       <use xlink:href="#Helvetica-2c" x="1245.166016"/>
      </g>
     </g>
    </g>
    <g id="ytick_8">
     <g id="line2d_14">
      <g>
       <use xlink:href="#m8e343aef83" x="145.085938" y="95.006951" style="stroke: #000000; stroke-width: 0.8"/>
      </g>
     </g>
     <g id="text_14">
      <!-- Asian / Asian British: -->
      <g transform="translate(46.384375 93.953045)scale(0.1 -0.1)">
       <use xlink:href="#Helvetica-41"/>
       <use xlink:href="#Helvetica-73" x="66.699219"/>
       <use xlink:href="#Helvetica-69" x="116.699219"/>
       <use xlink:href="#Helvetica-61" x="138.916016"/>
       <use xlink:href="#Helvetica-6e" x="194.53125"/>
       <use xlink:href="#Helvetica-20" x="250.146484"/>
       <use xlink:href="#Helvetica-2f" x="277.929688"/>
       <use xlink:href="#Helvetica-20" x="305.712891"/>
       <use xlink:href="#Helvetica-41" x="333.496094"/>
       <use xlink:href="#Helvetica-73" x="400.195312"/>
       <use xlink:href="#Helvetica-69" x="450.195312"/>
       <use xlink:href="#Helvetica-61" x="472.412109"/>
       <use xlink:href="#Helvetica-6e" x="528.027344"/>
       <use xlink:href="#Helvetica-20" x="583.642578"/>
       <use xlink:href="#Helvetica-42" x="611.425781"/>
       <use xlink:href="#Helvetica-72" x="678.125"/>
       <use xlink:href="#Helvetica-69" x="711.425781"/>
       <use xlink:href="#Helvetica-74" x="733.642578"/>
       <use xlink:href="#Helvetica-69" x="761.425781"/>
       <use xlink:href="#Helvetica-73" x="783.642578"/>
       <use xlink:href="#Helvetica-68" x="833.642578"/>
       <use xlink:href="#Helvetica-3a" x="889.257812"/>
      </g>
      <!-- Bangladeshi -->
      <g transform="translate(83.045312 104.67367)scale(0.1 -0.1)">
       <use xlink:href="#Helvetica-42"/>
       <use xlink:href="#Helvetica-61" x="66.699219"/>
       <use xlink:href="#Helvetica-6e" x="122.314453"/>
       <use xlink:href="#Helvetica-67" x="177.929688"/>
       <use xlink:href="#Helvetica-6c" x="233.544922"/>
       <use xlink:href="#Helvetica-61" x="255.761719"/>
       <use xlink:href="#Helvetica-64" x="311.376953"/>
       <use xlink:href="#Helvetica-65" x="366.992188"/>
       <use xlink:href="#Helvetica-73" x="422.607422"/>
       <use xlink:href="#Helvetica-68" x="472.607422"/>
       <use xlink:href="#Helvetica-69" x="528.222656"/>
      </g>
     </g>
    </g>
    <g id="ytick_9">
     <g id="line2d_15">
      <g>
       <use xlink:href="#m8e343aef83" x="145.085938" y="70.934044" style="stroke: #000000; stroke-width: 0.8"/>
      </g>
     </g>
     <g id="text_15">
      <!-- Mixed / Multiple Ethnic -->
      <g transform="translate(38.051562 69.891857)scale(0.1 -0.1)">
       <use xlink:href="#Helvetica-4d"/>
       <use xlink:href="#Helvetica-69" x="83.300781"/>
       <use xlink:href="#Helvetica-78" x="105.517578"/>
       <use xlink:href="#Helvetica-65" x="155.517578"/>
       <use xlink:href="#Helvetica-64" x="211.132812"/>
       <use xlink:href="#Helvetica-20" x="266.748047"/>
       <use xlink:href="#Helvetica-2f" x="294.53125"/>
       <use xlink:href="#Helvetica-20" x="322.314453"/>
       <use xlink:href="#Helvetica-4d" x="350.097656"/>
       <use xlink:href="#Helvetica-75" x="433.398438"/>
       <use xlink:href="#Helvetica-6c" x="489.013672"/>
       <use xlink:href="#Helvetica-74" x="511.230469"/>
       <use xlink:href="#Helvetica-69" x="539.013672"/>
       <use xlink:href="#Helvetica-70" x="561.230469"/>
       <use xlink:href="#Helvetica-6c" x="616.845703"/>
       <use xlink:href="#Helvetica-65" x="639.0625"/>
       <use xlink:href="#Helvetica-20" x="694.677734"/>
       <use xlink:href="#Helvetica-45" x="722.460938"/>
       <use xlink:href="#Helvetica-74" x="789.160156"/>
       <use xlink:href="#Helvetica-68" x="816.943359"/>
       <use xlink:href="#Helvetica-6e" x="872.558594"/>
       <use xlink:href="#Helvetica-69" x="928.173828"/>
       <use xlink:href="#Helvetica-63" x="950.390625"/>
      </g>
      <!-- groups: White and Asian -->
      <g transform="translate(29.142187 80.612482)scale(0.1 -0.1)">
       <use xlink:href="#Helvetica-67"/>
       <use xlink:href="#Helvetica-72" x="55.615234"/>
       <use xlink:href="#Helvetica-6f" x="88.916016"/>
       <use xlink:href="#Helvetica-75" x="144.53125"/>
       <use xlink:href="#Helvetica-70" x="200.146484"/>
       <use xlink:href="#Helvetica-73" x="255.761719"/>
       <use xlink:href="#Helvetica-3a" x="305.761719"/>
       <use xlink:href="#Helvetica-20" x="333.544922"/>
       <use xlink:href="#Helvetica-57" x="361.328125"/>
       <use xlink:href="#Helvetica-68" x="455.712891"/>
       <use xlink:href="#Helvetica-69" x="511.328125"/>
       <use xlink:href="#Helvetica-74" x="533.544922"/>
       <use xlink:href="#Helvetica-65" x="561.328125"/>
       <use xlink:href="#Helvetica-20" x="616.943359"/>
       <use xlink:href="#Helvetica-61" x="644.726562"/>
       <use xlink:href="#Helvetica-6e" x="700.341797"/>
       <use xlink:href="#Helvetica-64" x="755.957031"/>
       <use xlink:href="#Helvetica-20" x="811.572266"/>
       <use xlink:href="#Helvetica-41" x="839.355469"/>
       <use xlink:href="#Helvetica-73" x="906.054688"/>
       <use xlink:href="#Helvetica-69" x="956.054688"/>
       <use xlink:href="#Helvetica-61" x="978.271484"/>
       <use xlink:href="#Helvetica-6e" x="1033.886719"/>
      </g>
     </g>
    </g>
    <g id="ytick_10">
     <g id="line2d_16">
      <g>
       <use xlink:href="#m8e343aef83" x="145.085938" y="46.861137" style="stroke: #000000; stroke-width: 0.8"/>
      </g>
     </g>
     <g id="text_16">
      <!-- Other Ethnic group: -->
      <g transform="translate(51.378125 45.840825)scale(0.1 -0.1)">
       <defs>
        <path id="Helvetica-4f" d="M 2469 4716 
Q 3684 4716 4269 3934 
Q 4725 3325 4725 2375 
Q 4725 1347 4203 666 
Q 3591 -134 2456 -134 
Q 1397 -134 791 566 
Q 250 1241 250 2272 
Q 250 3203 713 3866 
Q 1306 4716 2469 4716 
z
M 2531 422 
Q 3353 422 3720 1011 
Q 4088 1600 4088 2366 
Q 4088 3175 3664 3669 
Q 3241 4163 2506 4163 
Q 1794 4163 1344 3673 
Q 894 3184 894 2231 
Q 894 1469 1280 945 
Q 1666 422 2531 422 
z
M 2488 4716 
L 2488 4716 
z
" transform="scale(0.015625)"/>
       </defs>
       <use xlink:href="#Helvetica-4f"/>
       <use xlink:href="#Helvetica-74" x="77.783203"/>
       <use xlink:href="#Helvetica-68" x="105.566406"/>
       <use xlink:href="#Helvetica-65" x="161.181641"/>
       <use xlink:href="#Helvetica-72" x="216.796875"/>
       <use xlink:href="#Helvetica-20" x="250.097656"/>
       <use xlink:href="#Helvetica-45" x="277.880859"/>
       <use xlink:href="#Helvetica-74" x="344.580078"/>
       <use xlink:href="#Helvetica-68" x="372.363281"/>
       <use xlink:href="#Helvetica-6e" x="427.978516"/>
       <use xlink:href="#Helvetica-69" x="483.59375"/>
       <use xlink:href="#Helvetica-63" x="505.810547"/>
       <use xlink:href="#Helvetica-20" x="555.810547"/>
       <use xlink:href="#Helvetica-67" x="583.59375"/>
       <use xlink:href="#Helvetica-72" x="639.208984"/>
       <use xlink:href="#Helvetica-6f" x="672.509766"/>
       <use xlink:href="#Helvetica-75" x="728.125"/>
       <use xlink:href="#Helvetica-70" x="783.740234"/>
       <use xlink:href="#Helvetica-3a" x="839.355469"/>
      </g>
      <!-- Any other ethnic group -->
      <g transform="translate(37.473437 56.689575)scale(0.1 -0.1)">
       <use xlink:href="#Helvetica-41"/>
       <use xlink:href="#Helvetica-6e" x="66.699219"/>
       <use xlink:href="#Helvetica-79" x="122.314453"/>
       <use xlink:href="#Helvetica-20" x="172.314453"/>
       <use xlink:href="#Helvetica-6f" x="200.097656"/>
       <use xlink:href="#Helvetica-74" x="255.712891"/>
       <use xlink:href="#Helvetica-68" x="283.496094"/>
       <use xlink:href="#Helvetica-65" x="339.111328"/>
       <use xlink:href="#Helvetica-72" x="394.726562"/>
       <use xlink:href="#Helvetica-20" x="428.027344"/>
       <use xlink:href="#Helvetica-65" x="455.810547"/>
       <use xlink:href="#Helvetica-74" x="511.425781"/>
       <use xlink:href="#Helvetica-68" x="539.208984"/>
       <use xlink:href="#Helvetica-6e" x="594.824219"/>
       <use xlink:href="#Helvetica-69" x="650.439453"/>
       <use xlink:href="#Helvetica-63" x="672.65625"/>
       <use xlink:href="#Helvetica-20" x="722.65625"/>
       <use xlink:href="#Helvetica-67" x="750.439453"/>
       <use xlink:href="#Helvetica-72" x="806.054688"/>
       <use xlink:href="#Helvetica-6f" x="839.355469"/>
       <use xlink:href="#Helvetica-75" x="894.970703"/>
       <use xlink:href="#Helvetica-70" x="950.585938"/>
      </g>
     </g>
    </g>
   </g>
   <g id="text_17">
    <!-- Ethnicity, United Kingdom -->
    <g transform="translate(228.844844 19.43625)scale(0.12 -0.12)">
     <defs>
      <path id="Helvetica-55" d="M 1163 4591 
L 1163 1753 
Q 1163 1253 1350 922 
Q 1628 422 2288 422 
Q 3078 422 3363 963 
Q 3516 1256 3516 1753 
L 3516 4591 
L 4147 4591 
L 4147 2013 
Q 4147 1166 3919 709 
Q 3500 -122 2338 -122 
Q 1175 -122 759 709 
Q 531 1166 531 2013 
L 531 4591 
L 1163 4591 
z
M 2341 4591 
L 2341 4591 
z
" transform="scale(0.015625)"/>
      <path id="Helvetica-4b" d="M 488 4591 
L 1094 4591 
L 1094 2353 
L 3331 4591 
L 4191 4591 
L 2281 2741 
L 4244 0 
L 3434 0 
L 1828 2303 
L 1094 1600 
L 1094 0 
L 488 0 
L 488 4591 
z
" transform="scale(0.015625)"/>
      <path id="Helvetica-6d" d="M 413 3347 
L 969 3347 
L 969 2872 
Q 1169 3119 1331 3231 
Q 1609 3422 1963 3422 
Q 2363 3422 2606 3225 
Q 2744 3113 2856 2894 
Q 3044 3163 3297 3292 
Q 3550 3422 3866 3422 
Q 4541 3422 4784 2934 
Q 4916 2672 4916 2228 
L 4916 0 
L 4331 0 
L 4331 2325 
Q 4331 2659 4164 2784 
Q 3997 2909 3756 2909 
Q 3425 2909 3186 2687 
Q 2947 2466 2947 1947 
L 2947 0 
L 2375 0 
L 2375 2184 
Q 2375 2525 2294 2681 
Q 2166 2916 1816 2916 
Q 1497 2916 1236 2669 
Q 975 2422 975 1775 
L 975 0 
L 413 0 
L 413 3347 
z
" transform="scale(0.015625)"/>
     </defs>
     <use xlink:href="#Helvetica-45"/>
     <use xlink:href="#Helvetica-74" x="66.699219"/>
     <use xlink:href="#Helvetica-68" x="94.482422"/>
     <use xlink:href="#Helvetica-6e" x="150.097656"/>
     <use xlink:href="#Helvetica-69" x="205.712891"/>
     <use xlink:href="#Helvetica-63" x="227.929688"/>
     <use xlink:href="#Helvetica-69" x="277.929688"/>
     <use xlink:href="#Helvetica-74" x="300.146484"/>
     <use xlink:href="#Helvetica-79" x="327.929688"/>
     <use xlink:href="#Helvetica-2c" x="377.929688"/>
     <use xlink:href="#Helvetica-20" x="405.712891"/>
     <use xlink:href="#Helvetica-55" x="433.496094"/>
     <use xlink:href="#Helvetica-6e" x="505.712891"/>
     <use xlink:href="#Helvetica-69" x="561.328125"/>
     <use xlink:href="#Helvetica-74" x="583.544922"/>
     <use xlink:href="#Helvetica-65" x="611.328125"/>
     <use xlink:href="#Helvetica-64" x="666.943359"/>
     <use xlink:href="#Helvetica-20" x="722.558594"/>
     <use xlink:href="#Helvetica-4b" x="750.341797"/>
     <use xlink:href="#Helvetica-69" x="817.041016"/>
     <use xlink:href="#Helvetica-6e" x="839.257812"/>
     <use xlink:href="#Helvetica-67" x="894.873047"/>
     <use xlink:href="#Helvetica-64" x="950.488281"/>
     <use xlink:href="#Helvetica-6f" x="1006.103516"/>
     <use xlink:href="#Helvetica-6d" x="1061.71875"/>
    </g>
   </g>
  </g>
 </g>
 <defs>
  <clipPath id="p03eb37df4d">
   <rect x="145.085938" y="25.43625" width="304.914062" height="259.505938"/>
  </clipPath>
 </defs>
</svg>
