<?xml version="1.0" encoding="utf-8" standalone="no"?>
<!DOCTYPE svg PUBLIC "-//W3C//DTD SVG 1.1//EN"
  "http://www.w3.org/Graphics/SVG/1.1/DTD/svg11.dtd">
<svg height="345.6pt" version="1.1" viewBox="0 0 460.8 345.6" width="460.8pt" xmlns="http://www.w3.org/2000/svg" xmlns:xlink="http://www.w3.org/1999/xlink">
 <metadata>
  <rdf:RDF xmlns:cc="http://creativecommons.org/ns#" xmlns:dc="http://purl.org/dc/elements/1.1/" xmlns:rdf="http://www.w3.org/1999/02/22-rdf-syntax-ns#">
   <cc:Work>
    <dc:type rdf:resource="http://purl.org/dc/dcmitype/StillImage"/>
    <dc:date>2021-06-09T13:30:28.297621</dc:date>
    <dc:format>image/svg+xml</dc:format>
    <dc:creator>
     <cc:Agent>
      <dc:title>Matplotlib v3.4.2, https://matplotlib.org/</dc:title>
     </cc:Agent>
    </dc:creator>
   </cc:Work>
  </rdf:RDF>
 </metadata>
 <defs>
  <style type="text/css">*{stroke-linecap:butt;stroke-linejoin:round;}</style>
 </defs>
 <g id="figure_1">
  <g id="patch_1">
   <path d="M 0 345.6 
L 460.8 345.6 
L 460.8 0 
L 0 0 
z
" style="fill:#ffffff;"/>
  </g>
  <g id="axes_1">
   <g id="PatchCollection_1">
    <path clip-path="url(#p2dad05cf4a)" d="M 226.526923 148.564405 
L 225.910765 148.781929 
L 225.459222 148.453931 
L 223.963737 148.287769 
L 223.411468 148.487868 
L 221.948938 148.688135 
L 221.256144 148.666341 
L 219.776671 149.149522 
L 218.718908 149.153548 
L 218.034685 148.911093 
L 216.61913 149.269303 
L 216.19835 149.018862 
L 216.128785 149.737178 
L 215.784414 150.019294 
L 215.44011 150.301411 
L 214.967372 149.717481 
L 215.454329 149.233801 
L 214.670176 149.343467 
L 213.594806 149.047176 
L 212.710657 149.788351 
L 210.759244 149.933086 
L 209.718358 149.241953 
L 208.33237 149.198699 
L 208.03597 149.732953 
L 207.14737 149.885706 
L 205.903967 149.20003 
L 204.500305 149.22322 
L 203.73861 147.942535 
L 202.799314 147.228144 
L 203.424803 146.22678 
L 202.609754 145.611441 
L 204.03594 144.379866 
L 206.015923 144.32836 
L 206.555966 143.349721 
L 209.006494 143.520175 
L 210.55201 142.684906 
L 212.050286 142.320873 
L 214.177439 142.29349 
L 216.421597 143.20116 
L 218.266037 143.699213 
L 219.763848 143.500677 
L 220.870645 143.6154 
L 222.388654 142.943232 
L 223.758563 142.882045 
L 224.996982 143.514352 
L 225.215445 143.967555 
L 225.091729 144.594206 
L 226.047769 144.914286 
L 226.554325 145.290297 
L 225.673897 145.657124 
L 226.075276 147.13395 
L 225.823725 147.532753 
L 226.526914 148.564388 
L 226.526923 148.564405 
" style="fill:#fff5f0;stroke:#cccccc;stroke-width:0.8;"/>
    <path clip-path="url(#p2dad05cf4a)" d="M 202.540654 142.568187 
L 203.850433 142.163096 
L 204.957429 142.335813 
L 205.11018 142.830905 
L 206.232525 143.246776 
L 205.998515 143.562231 
L 204.471802 143.633234 
L 203.923253 144.031471 
L 202.850475 144.725 
L 202.445907 144.125232 
L 202.463381 143.859486 
L 202.76895 143.715084 
L 203.167006 142.909162 
L 202.540654 142.568187 
" style="fill:#fff5f0;stroke:#cccccc;stroke-width:0.8;"/>
    <path clip-path="url(#p2dad05cf4a)" d="M 202.763037 150.973013 
L 202.602312 151.352883 
L 200.750829 151.462349 
L 200.763719 151.249872 
L 199.195081 150.998766 
L 199.432944 150.451469 
L 200.135838 150.885407 
L 201.136594 150.812041 
L 202.09343 150.90344 
L 202.062335 151.12753 
L 202.763037 150.973013 
" style="fill:#fff5f0;stroke:#cccccc;stroke-width:0.8;"/>
    <path clip-path="url(#p2dad05cf4a)" d="M 198.471723 143.197766 
L 199.422779 143.234998 
L 200.452104 142.881113 
L 201.35798 143.331055 
L 202.526635 143.209478 
L 202.540654 142.568187 
L 203.167006 142.909162 
L 202.76895 143.715084 
L 202.463381 143.859486 
L 201.680026 143.822887 
L 201.009091 143.701176 
L 199.452013 144.035896 
L 200.343272 144.759769 
L 199.690076 144.969651 
L 198.973961 144.970949 
L 198.29379 144.307764 
L 198.052471 144.590346 
L 198.339768 145.359437 
L 198.982997 145.963762 
L 198.498366 146.245912 
L 199.214415 146.839424 
L 199.850867 147.212872 
L 199.870135 147.940405 
L 198.680817 147.599164 
L 199.06007 148.255927 
L 198.243626 148.391112 
L 198.731246 149.527529 
L 197.877263 149.543633 
L 196.822955 148.983493 
L 196.340783 147.953315 
L 196.115809 147.096552 
L 195.614368 146.504637 
L 194.955658 145.770317 
L 194.868619 145.403622 
L 195.466467 144.779067 
L 195.543607 144.360568 
L 195.961463 144.173843 
L 195.987243 143.83553 
L 196.82827 143.721506 
L 197.318416 143.440022 
L 198.015197 143.464976 
L 198.226652 143.24051 
L 198.471723 143.197766 
" style="fill:#fff5f0;stroke:#cccccc;stroke-width:0.8;"/>
    <path clip-path="url(#p2dad05cf4a)" d="M 199.155415 127.005349 
L 199.211226 127.575005 
L 199.567889 128.06484 
L 199.560514 128.578166 
L 198.78945 128.841017 
L 199.186111 129.437657 
L 199.210628 130.010939 
L 199.857246 131.135178 
L 199.719378 131.496416 
L 199.081331 131.646275 
L 197.913806 132.717311 
L 198.245486 133.295984 
L 197.964834 133.220855 
L 196.742958 132.725896 
L 195.817416 132.907895 
L 195.210398 132.775671 
L 194.450763 133.051665 
L 193.802351 132.595235 
L 193.273736 132.770015 
L 193.201181 132.692257 
L 192.609445 132.058186 
L 191.653538 131.980396 
L 191.53155 131.577201 
L 190.649793 131.433199 
L 190.457841 131.765722 
L 189.759399 131.499344 
L 189.839595 131.14506 
L 188.878307 131.033032 
L 188.268897 130.618459 
L 187.741876 129.796233 
L 187.842071 129.35228 
L 187.523945 128.663476 
L 187.057121 128.204517 
L 187.415578 127.860814 
L 187.115192 127.205548 
L 187.993626 126.827375 
L 190.00012 126.231867 
L 191.619321 125.796132 
L 192.902522 126.013667 
L 192.999462 126.327724 
L 194.239409 126.343994 
L 195.822931 126.490226 
L 198.187216 126.470895 
L 198.846657 126.608643 
L 199.155415 127.005349 
" style="fill:#fff5f0;stroke:#cccccc;stroke-width:0.8;"/>
    <path clip-path="url(#p2dad05cf4a)" d="M 211.080958 208.315862 
L 212.341425 208.556087 
L 212.60001 208.912172 
L 213.036084 209.512669 
L 213.396076 211.263991 
L 213.036092 212.242664 
L 213.396076 213.916662 
L 213.842436 213.897896 
L 214.306337 214.313069 
L 214.844919 215.244361 
L 214.954283 216.900126 
L 214.397762 217.171296 
L 214.005287 218.064791 
L 213.166319 217.269316 
L 213.071173 216.36158 
L 213.34166 215.762878 
L 213.267045 215.24689 
L 212.759426 214.921021 
L 212.405686 215.039337 
L 211.665518 214.42127 
L 210.989401 214.087748 
L 211.37975 212.891475 
L 211.784317 212.44323 
L 211.537284 211.376252 
L 211.795745 210.332366 
L 212.014806 209.983405 
L 211.687843 208.890343 
L 211.080958 208.315862 
" style="fill:#fff5f0;stroke:#cccccc;stroke-width:0.8;"/>
    <path clip-path="url(#p2dad05cf4a)" d="M 294.098187 160.036498 
L 294.195193 160.524603 
L 293.744448 160.76087 
L 293.849892 161.553185 
L 292.931061 161.320345 
L 291.266546 162.21018 
L 291.305614 162.947096 
L 290.59601 164.027249 
L 290.530962 164.654699 
L 289.957631 165.716419 
L 288.952757 165.423057 
L 288.902792 166.755714 
L 288.612173 167.194244 
L 288.748247 167.741075 
L 288.113855 168.046548 
L 287.436674 166.003893 
L 287.081673 166.007952 
L 286.871516 166.83091 
L 286.167558 166.163533 
L 286.564552 165.430677 
L 287.139743 165.35628 
L 287.732609 164.266511 
L 286.991245 164.046647 
L 285.79887 164.065745 
L 284.575466 163.889136 
L 284.462049 162.993744 
L 283.848254 162.930227 
L 282.829892 162.37378 
L 282.375692 163.247445 
L 283.303693 163.929129 
L 282.499873 164.40895 
L 282.214503 164.878223 
L 283.005898 165.223257 
L 282.787103 165.999201 
L 283.232666 166.967559 
L 283.43279 168.027916 
L 283.248678 168.498087 
L 282.374031 168.481883 
L 280.788981 168.749227 
L 280.862865 169.717918 
L 280.176516 170.479821 
L 278.326228 171.346532 
L 276.887153 172.861621 
L 275.920549 173.673899 
L 274.639407 174.51682 
L 274.637414 175.109135 
L 273.996444 175.426486 
L 272.838353 175.887807 
L 272.237781 175.955783 
L 271.852282 176.938015 
L 272.119978 178.612879 
L 272.188148 179.681054 
L 271.643321 180.904444 
L 271.637474 183.092201 
L 270.97212 183.154553 
L 270.386895 184.136719 
L 270.778241 184.561141 
L 269.605931 184.926205 
L 269.172926 185.801967 
L 268.657001 186.172088 
L 267.439511 184.969692 
L 266.84432 183.166431 
L 266.351119 181.867612 
L 265.900639 181.258529 
L 265.217545 180.02143 
L 264.898555 178.410949 
L 264.676306 177.60659 
L 263.50672 175.837999 
L 262.974052 173.342507 
L 262.589616 171.694661 
L 262.594201 170.134887 
L 262.344842 168.928931 
L 260.473759 169.699718 
L 259.567551 169.545334 
L 257.887954 167.984661 
L 258.506134 167.519181 
L 258.126416 167.013874 
L 256.618307 165.920878 
L 257.474549 165.061753 
L 260.303998 165.065113 
L 260.048727 163.959507 
L 259.326365 163.306471 
L 259.17986 162.315387 
L 258.3383 161.737081 
L 259.755317 160.387255 
L 261.248277 160.485142 
L 262.59327 159.135084 
L 263.399283 157.82828 
L 264.647403 156.536181 
L 264.627537 155.618264 
L 265.723903 154.873363 
L 264.686205 154.237495 
L 264.239713 153.366259 
L 263.784117 152.237927 
L 264.414456 151.682679 
L 266.364739 151.996836 
L 267.797901 151.805453 
L 269.039577 150.723171 
L 270.421512 152.232471 
L 270.291417 153.282912 
L 270.802891 153.94197 
L 270.760766 154.599498 
L 269.838015 154.426449 
L 270.198597 155.845847 
L 271.4618 156.661219 
L 273.248834 157.561635 
L 272.432988 158.145764 
L 271.93374 159.350289 
L 273.179336 159.83753 
L 274.39151 160.469305 
L 276.06845 161.191681 
L 277.8309 161.358575 
L 278.572464 162.013641 
L 279.565844 162.136249 
L 281.112689 162.436399 
L 282.183408 162.414872 
L 282.33071 161.905206 
L 282.161415 161.086973 
L 282.260813 160.532323 
L 283.044966 160.261486 
L 283.152868 161.275627 
L 283.180376 161.53362 
L 284.348964 162.022391 
L 285.157369 161.821093 
L 286.242838 161.907468 
L 287.291963 161.869272 
L 287.382258 161.078222 
L 286.858891 160.667275 
L 287.895791 160.506137 
L 289.066107 159.548393 
L 290.548105 158.728363 
L 291.626597 159.044783 
L 292.54317 158.502543 
L 293.146068 159.303276 
L 292.711801 159.844051 
L 294.098187 160.036498 
" style="fill:#fff5f0;stroke:#cccccc;stroke-width:0.8;"/>
    <path clip-path="url(#p2dad05cf4a)" d="M 172.421791 188.369859 
L 171.359178 188.520084 
L 171.042514 187.631712 
L 171.10105 184.6744 
L 170.842057 184.409087 
L 170.793222 183.777112 
L 170.346729 183.326138 
L 169.953989 182.946002 
L 170.11757 182.267978 
L 170.559744 182.122245 
L 170.82166 181.559244 
L 171.450138 181.438931 
L 171.731056 181.053904 
L 172.162666 180.676729 
L 172.623577 180.673401 
L 173.604001 181.414443 
L 173.553903 181.842259 
L 173.84306 182.606125 
L 173.589716 183.124508 
L 173.725192 183.470873 
L 173.101497 184.268045 
L 172.705434 184.662788 
L 172.463052 185.475033 
L 172.495542 186.294164 
L 172.421791 188.369859 
" style="fill:#fff5f0;stroke:#cccccc;stroke-width:0.8;"/>
    <path clip-path="url(#p2dad05cf4a)" d="M 351.387465 145.975541 
L 350.198014 147.272097 
L 350.219741 148.600928 
L 349.735508 149.628644 
L 349.959619 150.273928 
L 349.290012 151.181464 
L 347.647158 151.787353 
L 345.386921 151.866309 
L 343.555238 153.336214 
L 342.691221 152.841388 
L 342.637801 151.878852 
L 340.401749 152.162932 
L 338.880019 152.769453 
L 337.3749 152.794141 
L 338.6785 153.741604 
L 337.820596 155.930259 
L 336.989402 156.472099 
L 336.367235 155.971616 
L 336.682571 154.811077 
L 335.868718 154.436564 
L 335.346414 153.553516 
L 336.562044 153.156776 
L 337.236434 152.347327 
L 338.529602 151.681614 
L 339.472619 150.801228 
L 342.032046 150.417198 
L 343.406805 150.680516 
L 344.752064 148.391146 
L 345.60937 149.006152 
L 347.495536 147.718312 
L 348.226868 147.218063 
L 349.034807 145.643383 
L 348.814418 144.195337 
L 349.357518 143.381895 
L 350.724503 143.145528 
L 351.425603 144.931521 
L 351.387465 145.975541 
" style="fill:#fff5f0;stroke:#cccccc;stroke-width:0.8;"/>
    <path clip-path="url(#p2dad05cf4a)" d="M 354.896022 139.820224 
L 355.805551 139.274425 
L 356.091387 140.720074 
L 354.184025 141.072562 
L 353.05796 142.351451 
L 351.036317 141.471198 
L 350.336613 142.880215 
L 348.90664 142.899579 
L 348.72977 141.619326 
L 349.365624 140.628409 
L 350.739386 140.556874 
L 351.114055 138.775572 
L 351.494238 137.771979 
L 353.005271 139.112654 
L 353.991807 139.545661 
L 354.896022 139.820224 
" style="fill:#fff5f0;stroke:#cccccc;stroke-width:0.8;"/>
    <path clip-path="url(#p2dad05cf4a)" d="M 339.155689 153.337711 
L 339.866955 152.569386 
L 340.59802 152.718347 
L 341.126636 152.177106 
L 342.070782 152.454863 
L 342.235293 152.89642 
L 341.51147 153.675692 
L 340.983718 153.262582 
L 340.324543 153.561867 
L 339.983295 154.315186 
L 339.145324 153.948425 
L 339.155689 153.337711 
" style="fill:#fff5f0;stroke:#cccccc;stroke-width:0.8;"/>
    <path clip-path="url(#p2dad05cf4a)" d="M 213.905291 158.626483 
L 215.336194 158.831307 
L 215.891984 158.435001 
L 216.199679 157.971384 
L 217.180767 157.793044 
L 217.39232 157.361801 
L 217.817551 157.143102 
L 216.536077 155.855496 
L 219.111051 155.209314 
L 219.356091 155.015136 
L 220.904796 155.36413 
L 222.820529 156.265511 
L 226.445692 158.855264 
L 228.836156 158.958108 
L 229.981888 159.082381 
L 230.302074 159.695923 
L 231.211405 159.662517 
L 231.714772 160.773015 
L 232.347304 161.067142 
L 232.567627 161.519413 
L 233.443869 162.060688 
L 233.521673 162.592047 
L 233.393572 163.020927 
L 233.556289 163.453501 
L 233.925975 163.814373 
L 234.097197 164.236632 
L 234.289481 164.55232 
L 234.678169 164.807818 
L 235.034566 164.716319 
L 235.278741 165.208085 
L 235.327842 165.505905 
L 235.820313 166.810447 
L 239.685333 167.459724 
L 239.944458 167.187523 
L 240.533736 168.099651 
L 239.676563 170.675096 
L 235.819383 171.962802 
L 232.112164 172.456431 
L 230.912148 173.035902 
L 229.990725 174.38799 
L 229.390684 174.60263 
L 229.069236 174.173383 
L 228.576366 174.237799 
L 227.333495 174.109001 
L 227.097758 173.980237 
L 225.613966 174.009817 
L 225.26541 174.126203 
L 224.737326 173.791384 
L 224.396609 174.424357 
L 224.528497 174.967195 
L 223.964003 175.377975 
L 223.797166 174.828449 
L 223.409408 174.440627 
L 223.310276 173.926935 
L 222.646185 173.465514 
L 221.960898 172.385694 
L 221.598255 171.336351 
L 220.708924 170.450208 
L 220.135526 170.238729 
L 219.284001 169.011479 
L 219.135236 168.116553 
L 219.190051 167.353219 
L 218.452607 165.925403 
L 217.849709 165.422891 
L 217.155121 165.156579 
L 216.732348 164.418732 
L 216.802644 164.127632 
L 216.445383 163.460056 
L 216.069917 163.172549 
L 215.567879 162.214605 
L 214.784922 161.176209 
L 214.129202 160.291764 
L 213.489096 160.297952 
L 213.688954 159.591148 
L 213.746095 159.140374 
L 213.905291 158.626483 
" style="fill:#fff5f0;stroke:#cccccc;stroke-width:0.8;"/>
    <path clip-path="url(#p2dad05cf4a)" d="M 230.405666 186.123843 
L 226.7724 189.988775 
L 225.09743 190.045525 
L 223.95158 190.953315 
L 223.127344 190.977086 
L 222.77566 191.382998 
L 221.897137 191.382769 
L 221.378572 190.94761 
L 220.203999 191.486172 
L 219.823992 192.022803 
L 218.966566 191.921486 
L 218.681942 191.772973 
L 218.38086 191.808463 
L 217.974496 191.795463 
L 216.34698 190.701857 
L 215.452088 190.701857 
L 215.012839 190.278067 
L 215.012839 189.555314 
L 214.344975 189.339276 
L 213.58512 187.937955 
L 212.997923 187.639398 
L 212.772636 187.124465 
L 212.121011 186.496844 
L 211.331426 186.404605 
L 211.769374 185.671108 
L 212.451716 185.639455 
L 212.643908 185.246186 
L 212.62673 184.088502 
L 213.00709 182.740892 
L 213.616145 182.380228 
L 213.745336 181.853822 
L 214.296738 180.870134 
L 215.072218 180.232172 
L 215.594986 178.963705 
L 215.799792 177.857839 
L 217.296726 178.126985 
L 217.698262 177.165922 
L 218.478551 177.750495 
L 219.232572 177.447662 
L 219.542705 177.716911 
L 220.424259 177.732312 
L 221.543301 178.248623 
L 221.875793 178.693285 
L 222.445838 179.106951 
L 222.974521 179.861902 
L 223.413999 180.278595 
L 222.961985 180.848062 
L 222.527097 181.451744 
L 222.627166 181.807271 
L 222.647712 182.198994 
L 223.365887 182.220512 
L 223.67548 182.1292 
L 223.960814 182.358712 
L 223.680404 182.814949 
L 224.155305 183.524018 
L 224.629575 184.144003 
L 225.120419 184.603589 
L 229.324257 186.131724 
L 230.405666 186.123843 
" style="fill:#fff5f0;stroke:#cccccc;stroke-width:0.8;"/>
    <path clip-path="url(#p2dad05cf4a)" d="M 172.421791 188.369859 
L 172.495542 186.294164 
L 172.463052 185.475033 
L 172.705434 184.662788 
L 173.101497 184.268045 
L 173.725192 183.470873 
L 173.589716 183.124508 
L 173.84306 182.606125 
L 173.553903 181.842259 
L 173.604001 181.414443 
L 173.693299 180.26485 
L 174.061855 179.745635 
L 174.242711 179.00506 
L 174.577514 178.72657 
L 175.959317 178.57405 
L 177.248099 179.054569 
L 177.730272 179.540911 
L 178.38639 179.56287 
L 178.995733 179.24675 
L 180.551814 179.91233 
L 181.207534 179.880854 
L 181.965974 179.332093 
L 182.719696 179.371155 
L 183.09071 179.190353 
L 183.782708 179.265482 
L 184.778214 179.641227 
L 185.783553 178.921446 
L 186.085335 178.972686 
L 186.955331 180.382468 
L 187.194457 180.35402 
L 187.703406 180.866913 
L 187.563279 181.099487 
L 187.495375 181.527502 
L 186.412231 182.523942 
L 186.072445 183.345769 
L 185.891057 184.015042 
L 185.618311 184.302016 
L 185.358854 185.20343 
L 184.671242 185.733891 
L 184.472047 186.385497 
L 184.183222 186.904146 
L 184.062962 187.439398 
L 183.179677 187.873303 
L 182.457847 187.34414 
L 181.970425 187.3655 
L 181.204677 188.119186 
L 180.8324 188.130764 
L 180.220864 189.373187 
L 179.890114 190.284483 
L 178.555287 190.7479 
L 178.067334 190.680191 
L 177.572936 190.968762 
L 176.544475 190.940613 
L 175.856132 190.135123 
L 175.432827 189.203032 
L 174.522567 188.354621 
L 173.556428 188.370525 
L 172.421791 188.369859 
" style="fill:#fff5f0;stroke:#cccccc;stroke-width:0.8;"/>
    <path clip-path="url(#p2dad05cf4a)" d="M 157.344554 142.49908 
L 157.811112 142.171847 
L 158.335807 141.984124 
L 158.658119 142.614568 
L 159.417556 142.613038 
L 159.637679 142.450436 
L 160.386884 142.495453 
L 160.746271 143.141336 
L 160.152209 143.489964 
L 160.135632 144.494655 
L 159.926837 144.68311 
L 159.875178 145.291727 
L 159.319686 145.397733 
L 159.834748 146.169718 
L 159.479812 147.015767 
L 159.923149 147.398599 
L 159.746711 147.74869 
L 159.27022 148.231572 
L 159.377425 148.657957 
L 158.860702 148.992144 
L 158.182857 148.811076 
L 157.519364 148.952816 
L 157.715767 147.94513 
L 157.595041 147.153315 
L 157.019717 147.034533 
L 156.712288 146.54656 
L 156.814609 145.703572 
L 157.327212 145.236096 
L 157.418438 144.715584 
L 157.686732 143.941236 
L 157.658228 143.395636 
L 157.401163 142.933184 
L 157.344554 142.49908 
" style="fill:#fff5f0;stroke:#cccccc;stroke-width:0.8;"/>
    <path clip-path="url(#p2dad05cf4a)" d="M 160.992107 127.063209 
L 161.204125 127.983156 
L 160.232272 129.133148 
L 157.952967 129.893954 
L 156.133043 129.69931 
L 157.175524 128.354709 
L 156.504058 127.045442 
L 158.253353 126.036957 
L 159.225139 125.43546 
L 159.490177 126.125395 
L 159.225139 126.815464 
L 160.020288 126.797763 
L 160.992107 127.063209 
" style="fill:#fee7dc;stroke:#cccccc;stroke-width:0.8;"/>
    <path clip-path="url(#p2dad05cf4a)" d="M 183.13928 120.639319 
L 183.706166 119.897279 
L 184.776021 119.014497 
L 185.201319 117.500606 
L 184.379626 116.848002 
L 184.300559 115.13797 
L 185.135474 113.930217 
L 186.410902 113.952244 
L 186.858325 113.441912 
L 186.390039 113.002019 
L 188.386434 111.190406 
L 189.672559 109.762857 
L 190.52136 108.846669 
L 191.756059 108.851028 
L 192.096377 108.133976 
L 194.519597 108.340264 
L 194.708227 107.493018 
L 195.505801 107.440081 
L 197.219616 108.070293 
L 199.226574 108.947019 
L 199.260526 110.93005 
L 199.694462 111.431132 
L 197.482728 111.795797 
L 196.236003 112.694283 
L 196.436725 113.482904 
L 194.39143 114.518273 
L 191.908544 115.625909 
L 190.972238 117.439318 
L 191.887416 118.346621 
L 193.117065 119.060879 
L 191.936118 120.513616 
L 190.598898 120.814863 
L 190.108421 122.976567 
L 189.378219 124.182923 
L 187.818484 124.058551 
L 187.090807 125.079845 
L 185.602166 125.139136 
L 185.193545 123.921801 
L 184.117179 122.46058 
L 183.13928 120.639319 
" style="fill:#fee7dc;stroke:#cccccc;stroke-width:0.8;"/>
    <path clip-path="url(#p2dad05cf4a)" d="M 206.803066 224.876837 
L 204.983807 225.825165 
L 203.829437 226.786536 
L 203.401282 227.64463 
L 203.01472 228.128343 
L 202.315148 228.231421 
L 202.089112 228.847558 
L 201.959017 229.249288 
L 201.136793 229.549139 
L 200.090325 229.485456 
L 199.476132 229.124783 
L 198.934228 228.968403 
L 198.307012 229.266856 
L 197.992341 229.883659 
L 197.383463 230.271016 
L 196.7405 230.845695 
L 195.819542 230.977055 
L 195.532644 230.52495 
L 195.651111 229.740322 
L 194.888817 228.516765 
L 194.541722 228.323386 
L 194.541324 224.565009 
L 195.808646 224.520158 
L 195.846584 219.933166 
L 196.803687 219.890578 
L 198.786061 219.439737 
L 199.277403 219.970564 
L 200.098166 219.465889 
L 200.488182 219.463028 
L 201.213002 219.172893 
L 201.444155 219.269117 
L 201.939085 220.29863 
L 202.197811 220.528342 
L 202.602047 221.273509 
L 204.057135 222.687983 
L 204.607743 222.826462 
L 204.610932 223.280696 
L 204.989122 224.097333 
L 205.983366 224.29497 
L 206.803066 224.876837 
" style="fill:#fee7dc;stroke:#cccccc;stroke-width:0.8;"/>
    <path clip-path="url(#p2dad05cf4a)" d="M 181.296633 135.230571 
L 181.346398 135.459085 
L 181.149729 135.774307 
L 181.731498 136.008778 
L 182.38755 136.04378 
L 182.285561 136.571712 
L 181.71914 136.788914 
L 180.767752 136.627543 
L 180.489292 137.146858 
L 179.876826 137.187783 
L 179.653978 136.98369 
L 178.933145 137.420423 
L 178.313237 137.481644 
L 177.760038 137.205817 
L 177.318396 136.641118 
L 176.704468 136.842882 
L 176.72347 136.259817 
L 177.663763 135.536211 
L 177.622436 135.20901 
L 178.208258 135.327526 
L 178.561267 135.107563 
L 179.654842 135.11658 
L 179.918817 134.836826 
L 181.296633 135.230571 
" style="fill:#fee7dc;stroke:#cccccc;stroke-width:0.8;"/>
    <path clip-path="url(#p2dad05cf4a)" d="M 181.717944 125.626709 
L 180.895255 125.82275 
L 179.923468 125.652928 
L 179.401563 124.938271 
L 179.362562 123.621851 
L 179.576772 123.274222 
L 179.945594 122.887863 
L 181.07837 122.807943 
L 181.529779 122.452694 
L 182.564088 122.08946 
L 182.520502 122.751713 
L 182.139787 123.171144 
L 182.294066 123.53175 
L 182.99118 123.726659 
L 182.676973 124.212435 
L 182.294066 124.072558 
L 181.368324 124.999725 
L 181.717944 125.626709 
" style="fill:#fdd4c2;stroke:#cccccc;stroke-width:0.8;"/>
    <path clip-path="url(#p2dad05cf4a)" d="M 184.866715 124.173773 
L 185.276997 124.819456 
L 184.505534 125.862477 
L 183.160076 125.135111 
L 182.980549 124.60059 
L 184.866715 124.173773 
" style="fill:#fdd4c2;stroke:#cccccc;stroke-width:0.8;"/>
    <path clip-path="url(#p2dad05cf4a)" d="M 176.876819 131.008577 
L 176.730779 131.878649 
L 176.395644 131.927226 
L 176.256314 132.649436 
L 175.131511 132.062379 
L 174.471672 132.162661 
L 173.574434 131.555508 
L 172.976652 131.038655 
L 172.379003 131.017427 
L 172.192765 130.564591 
L 173.223153 130.310557 
L 173.223205 130.310562 
L 173.223153 130.31059 
L 174.164442 130.411671 
L 175.356219 130.144128 
L 176.170072 130.707795 
L 176.876819 131.008577 
" style="fill:#fdd4c2;stroke:#cccccc;stroke-width:0.8;"/>
    <path clip-path="url(#p2dad05cf4a)" d="M 100.336393 239.913606 
L 99.980395 239.184276 
L 100.547348 238.573463 
L 99.803725 237.697269 
L 98.795063 236.985507 
L 97.471963 236.160553 
L 96.994009 236.19815 
L 95.704695 235.202243 
L 94.870112 235.339524 
L 96.585588 233.583676 
L 98.03669 232.333501 
L 98.900142 231.809196 
L 99.982721 231.099297 
L 100.008932 230.070916 
L 99.363876 229.327612 
L 98.727126 229.574359 
L 98.979574 228.831255 
L 99.153752 228.069717 
L 99.154417 227.361749 
L 98.691712 227.12811 
L 98.209473 227.336329 
L 97.730091 227.279233 
L 97.579799 226.783542 
L 97.460169 225.603505 
L 97.219382 225.218877 
L 96.351047 224.870382 
L 95.826218 225.122587 
L 94.468933 224.875373 
L 94.554411 223.127311 
L 94.174195 222.411357 
L 94.576105 222.145178 
L 94.452422 221.41119 
L 94.8047 220.846958 
L 95.033096 219.832684 
L 94.729421 219.032085 
L 94.027091 218.670547 
L 93.88919 218.162412 
L 94.077986 217.418709 
L 91.613007 217.36554 
L 91.118543 215.866155 
L 91.493743 215.844661 
L 91.4768 215.289346 
L 91.226246 214.913368 
L 91.169538 214.168999 
L 90.422758 213.787099 
L 89.613922 213.799743 
L 89.081785 213.425762 
L 88.212652 213.17063 
L 87.706793 212.689511 
L 86.266954 212.476968 
L 84.870733 211.323549 
L 84.974085 210.460265 
L 84.816018 209.965239 
L 84.952823 209.000141 
L 83.270469 209.218208 
L 82.593022 209.701722 
L 81.468784 210.223565 
L 81.181985 210.613051 
L 80.519954 210.6412 
L 79.563981 210.532199 
L 78.838729 210.753993 
L 78.253803 210.606131 
L 78.33968 208.65005 
L 77.284708 209.408925 
L 76.150071 209.375653 
L 75.663879 208.688779 
L 74.81056 208.614116 
L 75.082276 208.061196 
L 74.367821 207.277765 
L 73.832727 206.118025 
L 74.171949 205.882589 
L 74.170554 205.338653 
L 74.94773 204.966935 
L 74.819563 204.270611 
L 75.147688 203.822566 
L 75.241007 203.221601 
L 76.711277 202.345207 
L 77.76502 202.097461 
L 77.937405 201.903883 
L 79.096027 201.964306 
L 79.674009 198.433511 
L 79.704373 197.875068 
L 79.503053 197.137687 
L 78.932711 196.667881 
L 78.939256 195.732263 
L 79.663345 195.520119 
L 79.920444 195.653408 
L 79.963897 195.160178 
L 79.210507 195.027023 
L 79.194594 194.221266 
L 81.699738 194.250047 
L 82.125002 193.806161 
L 82.482196 194.214579 
L 82.73285 194.974186 
L 82.975498 194.815477 
L 83.683375 195.496562 
L 84.683034 195.413115 
L 84.931894 195.019037 
L 85.888099 194.718422 
L 86.417446 194.507076 
L 86.566875 193.961709 
L 87.485274 193.595314 
L 87.415742 193.324676 
L 86.326552 193.214013 
L 86.148055 192.403033 
L 86.199913 191.539715 
L 85.624456 191.205894 
L 85.865409 191.087378 
L 86.817263 191.252142 
L 87.839612 191.574019 
L 88.210759 191.26961 
L 89.135338 191.06981 
L 90.573483 190.58776 
L 91.043696 190.096328 
L 90.87347 189.732961 
L 91.541914 189.676032 
L 91.841137 189.972754 
L 91.673935 190.538185 
L 92.11571 190.733227 
L 92.410615 191.33163 
L 92.053985 191.785298 
L 91.849409 192.881489 
L 92.178532 193.532562 
L 92.27175 194.128436 
L 93.062714 194.732629 
L 93.693816 194.796512 
L 93.835937 194.544307 
L 94.242265 194.48861 
L 94.824035 194.262757 
L 95.24209 193.920285 
L 95.953256 194.029518 
L 96.2661 193.983402 
L 96.96514 194.088809 
L 97.080983 193.825691 
L 96.865311 193.569694 
L 96.99391 193.196811 
L 97.512792 193.311234 
L 98.119876 193.179576 
L 98.856389 193.452442 
L 99.417861 193.718089 
L 99.815851 193.368929 
L 100.103446 193.422763 
L 100.278788 193.785265 
L 100.89441 193.693234 
L 101.387146 193.204098 
L 101.78198 192.255836 
L 102.542546 191.077396 
L 102.980534 191.016541 
L 103.298594 191.728769 
L 104.01976 193.980774 
L 104.707372 194.193351 
L 104.742055 195.082255 
L 103.774986 196.142311 
L 104.174903 196.530467 
L 106.447631 196.732696 
L 106.494007 198.023396 
L 107.470578 197.178412 
L 109.088516 197.64123 
L 111.223974 198.427655 
L 111.851522 199.182272 
L 111.640701 199.895099 
L 113.135754 199.498226 
L 115.637974 200.179311 
L 117.558856 200.129136 
L 119.45954 201.194849 
L 121.101597 202.637472 
L 122.092021 203.008924 
L 123.191509 203.060563 
L 123.65747 203.466751 
L 124.093797 205.106346 
L 124.307276 205.885451 
L 123.795271 208.014282 
L 123.141146 208.855007 
L 121.32883 210.646789 
L 120.509695 212.102521 
L 119.557908 213.218874 
L 119.23646 213.244028 
L 118.877239 214.191425 
L 118.968498 216.604202 
L 118.610041 218.58903 
L 118.473436 219.438074 
L 118.066908 219.946142 
L 117.838944 221.667587 
L 116.535311 223.348572 
L 116.316716 224.678534 
L 115.276029 225.236578 
L 114.975012 226.008429 
L 113.57816 226.005368 
L 111.555555 226.500195 
L 110.649978 227.073078 
L 109.210006 227.449255 
L 107.696847 228.474575 
L 106.608488 229.751767 
L 106.421353 230.713271 
L 106.635131 231.424368 
L 106.394975 232.72525 
L 106.103193 233.353631 
L 105.204627 234.062332 
L 103.778042 236.328711 
L 102.647426 237.350172 
L 101.77331 237.952401 
L 101.186989 239.177289 
L 100.336393 239.913606 
" style="fill:#fdd4c2;stroke:#cccccc;stroke-width:0.8;"/>
    <path clip-path="url(#p2dad05cf4a)" d="M 182.38755 136.04378 
L 183.166521 136.226878 
L 183.316016 135.981927 
L 184.58666 135.758104 
L 184.873891 136.206016 
L 186.712484 136.538573 
L 186.573155 137.17281 
L 186.881115 137.721072 
L 185.857637 137.533483 
L 184.812299 137.990511 
L 184.883392 138.62974 
L 184.72599 138.996601 
L 185.147434 139.652199 
L 186.353031 140.300743 
L 186.999648 141.365325 
L 188.430352 142.403056 
L 189.437884 142.395104 
L 189.751227 142.679716 
L 189.390511 142.936245 
L 190.54209 143.401725 
L 191.486037 143.791211 
L 192.588582 144.46278 
L 192.721733 144.703273 
L 192.481477 145.164394 
L 191.767886 144.563163 
L 190.650856 144.351251 
L 190.10975 145.184191 
L 191.039013 145.661549 
L 190.886461 146.333518 
L 190.349341 146.409878 
L 189.662592 147.51432 
L 189.126602 147.613538 
L 189.131585 147.219826 
L 189.393899 146.529159 
L 189.673356 146.254097 
L 189.171251 145.507831 
L 188.778842 144.858455 
L 188.245111 144.698016 
L 187.865525 144.142235 
L 187.039314 143.90813 
L 186.482992 143.390546 
L 185.53167 143.307099 
L 184.526995 142.725764 
L 183.350832 141.887601 
L 182.476583 141.145827 
L 182.075537 139.872861 
L 181.43583 139.723135 
L 180.389827 139.298114 
L 179.797892 139.472096 
L 179.055 140.0697 
L 178.52067 140.164094 
L 178.667774 139.605152 
L 177.97086 139.441784 
L 177.639644 138.445411 
L 178.085406 138.053197 
L 177.707017 137.569683 
L 177.760038 137.205817 
L 178.313237 137.481644 
L 178.933145 137.420423 
L 179.653978 136.98369 
L 179.876826 137.187783 
L 180.489292 137.146858 
L 180.767752 136.627543 
L 181.71914 136.788914 
L 182.285561 136.571712 
L 182.38755 136.04378 
" style="fill:#fcbba1;stroke:#cccccc;stroke-width:0.8;"/>
    <path clip-path="url(#p2dad05cf4a)" d="M 187.940074 147.310893 
L 188.916112 147.198499 
L 188.453075 148.212074 
L 188.645493 148.611043 
L 188.375604 149.273229 
L 187.392323 148.788218 
L 186.73853 148.649273 
L 184.943988 147.994573 
L 185.123913 147.333418 
L 186.628501 147.451136 
L 187.940074 147.310893 
" style="fill:#fcbba1;stroke:#cccccc;stroke-width:0.8;"/>
    <path clip-path="url(#p2dad05cf4a)" d="M 180.159737 143.761799 
L 180.802634 143.362597 
L 181.57403 144.276854 
L 181.39344 145.980032 
L 180.808813 145.898781 
L 180.284383 146.328693 
L 179.79756 145.987153 
L 179.746067 144.433567 
L 179.452591 143.697383 
L 180.159737 143.761799 
" style="fill:#fcbba1;stroke:#cccccc;stroke-width:0.8;"/>
    <path clip-path="url(#p2dad05cf4a)" d="M 159.377425 148.657957 
L 159.27022 148.231572 
L 159.746711 147.74869 
L 159.923149 147.398599 
L 159.479812 147.015767 
L 159.834748 146.169718 
L 159.319686 145.397733 
L 159.875178 145.291727 
L 159.926837 144.68311 
L 160.135632 144.494655 
L 160.152209 143.489964 
L 160.746271 143.141336 
L 160.386884 142.495453 
L 159.637679 142.450436 
L 159.417556 142.613038 
L 158.658119 142.614568 
L 158.335807 141.984124 
L 157.811112 142.171847 
L 157.344554 142.49908 
L 157.409335 141.581961 
L 156.884174 141.023285 
L 158.703101 140.093922 
L 160.276457 140.326263 
L 162.002696 140.318111 
L 163.370778 140.538042 
L 164.438341 140.470499 
L 166.516326 140.513121 
L 167.028796 141.013769 
L 169.395607 141.598997 
L 169.863029 141.320607 
L 171.309745 141.903106 
L 172.800181 141.736179 
L 172.868949 142.484207 
L 171.650528 143.341868 
L 170.003089 143.614036 
L 169.88841 144.047242 
L 169.098144 144.761133 
L 168.602617 145.809279 
L 169.104058 146.545163 
L 168.360368 147.119676 
L 168.082307 147.956709 
L 167.111584 148.213338 
L 166.20119 149.20349 
L 164.569166 149.223121 
L 163.343703 149.198732 
L 162.538421 149.653465 
L 162.047345 150.14004 
L 161.418269 150.033202 
L 160.942209 149.598133 
L 160.577706 148.857391 
L 159.377425 148.657957 
" style="fill:#fcbba1;stroke:#cccccc;stroke-width:0.8;"/>
    <path clip-path="url(#p2dad05cf4a)" d="M 102.542546 191.077396 
L 101.78198 192.255836 
L 101.387146 193.204098 
L 100.89441 193.693234 
L 100.278788 193.785265 
L 100.103446 193.422763 
L 99.815851 193.368929 
L 99.417861 193.718089 
L 98.856389 193.452442 
L 99.184316 192.910902 
L 99.297434 192.321915 
L 99.522175 191.767864 
L 99.017379 191.004796 
L 98.915689 190.123811 
L 99.58503 189.01664 
L 100.021656 189.158314 
L 100.96836 189.463089 
L 102.329698 190.550029 
L 102.542546 191.077396 
" style="fill:#fca082;stroke:#cccccc;stroke-width:0.8;"/>
    <path clip-path="url(#p2dad05cf4a)" d="M 176.914957 132.734014 
L 177.521709 133.071196 
L 179.374521 133.308361 
L 178.724449 134.190145 
L 178.561267 135.107563 
L 178.208258 135.327526 
L 177.622436 135.20901 
L 177.663763 135.536211 
L 176.72347 136.259817 
L 176.704468 136.842882 
L 177.318396 136.641118 
L 177.760038 137.205817 
L 177.707017 137.569683 
L 178.085406 138.053197 
L 177.639644 138.445411 
L 177.97086 139.441784 
L 178.667774 139.605152 
L 178.52067 140.164094 
L 177.355869 140.891593 
L 174.820029 140.542933 
L 172.947284 140.960733 
L 172.800181 141.736179 
L 171.309745 141.903106 
L 169.863029 141.320607 
L 169.395607 141.598997 
L 167.028796 141.013769 
L 166.516326 140.513121 
L 167.181215 139.740736 
L 167.426055 137.175206 
L 166.099267 135.823817 
L 165.150969 135.172278 
L 163.186002 134.676986 
L 163.056406 133.737974 
L 164.723412 133.457854 
L 166.882557 133.789146 
L 166.474999 132.331552 
L 167.688768 132.883939 
L 170.682263 131.87978 
L 171.068294 130.824581 
L 172.192765 130.564591 
L 172.379003 131.017427 
L 172.976652 131.038655 
L 173.574434 131.555508 
L 174.471672 132.162661 
L 175.131511 132.062379 
L 176.256314 132.649436 
L 176.543943 132.761231 
L 176.914957 132.734014 
" style="fill:#fca082;stroke:#cccccc;stroke-width:0.8;"/>
    <path clip-path="url(#p2dad05cf4a)" d="M 180.206048 141.536445 
L 181.034053 141.044713 
L 181.252648 142.148922 
L 180.828015 143.143665 
L 180.244252 142.881479 
L 179.94659 142.014967 
L 180.206048 141.536445 
" style="fill:#fca082;stroke:#cccccc;stroke-width:0.8;"/>
    <path clip-path="url(#p2dad05cf4a)" d="M 188.430674 93.831395 
L 188.918908 93.391291 
L 190.806757 93.346504 
L 192.428048 93.79606 
L 196.660699 94.756234 
L 193.42519 95.262964 
L 192.710769 96.210609 
L 191.582778 96.45364 
L 190.970496 97.520579 
L 189.421117 97.570748 
L 186.656059 96.785369 
L 187.822185 96.327842 
L 185.894915 95.955331 
L 183.389923 94.868021 
L 182.389902 93.859621 
L 185.895133 93.398528 
L 186.599397 93.84932 
L 188.430674 93.831395 
" style="fill:#fc8565;stroke:#cccccc;stroke-width:0.8;"/>
    <path clip-path="url(#p2dad05cf4a)" d="M 208.948775 106.858221 
L 206.761101 107.374829 
L 205.722712 107.493483 
L 206.267407 106.589873 
L 204.617443 106.077745 
L 202.621116 106.514145 
L 201.990577 107.458281 
L 200.764583 108.02817 
L 199.384176 107.71694 
L 197.705243 107.78069 
L 196.2764 107.099872 
L 195.505801 107.440081 
L 194.708227 107.493018 
L 194.519597 108.340264 
L 192.096377 108.133976 
L 191.756059 108.851028 
L 190.52136 108.846669 
L 189.672559 109.762857 
L 188.386434 111.190406 
L 186.390039 113.002019 
L 186.858325 113.441912 
L 186.410902 113.952244 
L 185.135474 113.930217 
L 184.300559 115.13797 
L 184.379626 116.848002 
L 185.201319 117.500606 
L 184.776021 119.014497 
L 183.706166 119.897279 
L 183.13928 120.639319 
L 182.276791 119.8491 
L 179.738028 121.33837 
L 178.023814 121.640217 
L 176.24575 120.984419 
L 175.785968 119.600024 
L 175.379474 116.628271 
L 176.563411 115.799657 
L 179.958417 114.718572 
L 182.496848 113.389608 
L 184.85057 111.594931 
L 187.939941 109.108456 
L 190.093272 108.139366 
L 193.626611 106.52426 
L 196.448021 105.960593 
L 198.563479 106.028968 
L 200.521404 104.96219 
L 202.865956 105.019152 
L 205.174496 104.762623 
L 209.196121 105.704829 
L 207.540111 106.049331 
L 208.948775 106.858221 
" style="fill:#fc8565;stroke:#cccccc;stroke-width:0.8;"/>
    <path clip-path="url(#p2dad05cf4a)" d="M 204.199853 93.339363 
L 202.293289 94.032892 
L 198.56441 94.184614 
L 194.77241 93.969807 
L 194.543649 93.614991 
L 192.698611 93.592432 
L 191.291693 93.001349 
L 195.262024 92.641742 
L 197.128856 92.951408 
L 198.429133 92.565781 
L 201.679959 92.887458 
L 204.199853 93.339363 
" style="fill:#fc8565;stroke:#cccccc;stroke-width:0.8;"/>
    <path clip-path="url(#p2dad05cf4a)" d="M 200.749721 96.175634 
L 197.877638 96.702208 
L 195.609197 96.403316 
L 196.496485 96.071084 
L 195.719629 95.659542 
L 198.384142 95.4016 
L 198.894683 95.885009 
L 200.749721 96.175634 
" style="fill:#fc8565;stroke:#cccccc;stroke-width:0.8;"/>
    <path clip-path="url(#p2dad05cf4a)" d="M 189.976333 233.228195 
L 190.592254 232.591362 
L 191.100007 232.943916 
L 191.316742 233.494506 
L 191.893595 233.588334 
L 192.701999 233.831821 
L 193.392734 233.737794 
L 194.540393 233.079334 
L 194.541722 228.323386 
L 194.888817 228.516765 
L 195.651111 229.740322 
L 195.532644 230.52495 
L 195.819542 230.977055 
L 196.7405 230.845695 
L 197.383463 230.271016 
L 197.992341 229.883659 
L 198.307012 229.266856 
L 198.934228 228.968403 
L 199.476132 229.124783 
L 200.090325 229.485456 
L 201.136793 229.549139 
L 201.959017 229.249288 
L 202.089112 228.847558 
L 202.315148 228.231421 
L 203.01472 228.128343 
L 203.401282 227.64463 
L 203.829437 226.786536 
L 204.983807 225.825165 
L 206.803066 224.876837 
L 207.326166 224.890878 
L 207.948266 225.109012 
L 208.381537 224.954428 
L 209.064963 225.083126 
L 209.680818 226.895537 
L 210.015355 227.810393 
L 209.786262 229.246028 
L 209.896025 229.70838 
L 209.247215 229.472546 
L 208.875536 229.564311 
L 208.754146 229.93929 
L 208.403064 230.422737 
L 208.415091 230.867988 
L 209.182434 231.565975 
L 209.93496 231.426963 
L 210.196743 230.855078 
L 211.171918 230.865858 
L 210.850669 231.803273 
L 210.698782 232.873179 
L 210.366105 233.454447 
L 209.488733 234.104721 
L 209.237448 234.290913 
L 208.692554 234.945047 
L 208.333898 235.606701 
L 207.604759 236.529343 
L 206.151664 237.857974 
L 205.244194 238.630491 
L 204.273272 239.216417 
L 202.929475 239.716035 
L 202.274021 239.783112 
L 202.108114 240.14059 
L 201.326685 239.950272 
L 200.690234 240.195356 
L 199.296738 239.947211 
L 198.517767 240.104257 
L 197.985431 240.036847 
L 196.659374 240.545182 
L 195.561679 240.749074 
L 194.767361 241.235782 
L 194.182535 241.266726 
L 193.638504 240.807567 
L 193.203971 240.78401 
L 192.650241 240.209131 
L 192.589512 240.38767 
L 192.418622 240.041571 
L 192.425798 239.286555 
L 192.008075 238.423604 
L 192.423008 238.189034 
L 192.389388 237.200712 
L 191.54743 235.995522 
L 190.901344 234.904721 
L 190.899417 234.901261 
L 189.976333 233.228195 
M 206.219436 233.7161 
L 205.65813 233.319361 
L 205.057226 233.582013 
L 204.360577 234.085822 
L 203.674958 234.901261 
L 204.639436 235.891712 
L 205.099483 235.763747 
L 205.335885 235.352301 
L 206.052466 235.151203 
L 206.271061 234.73104 
L 206.665463 234.104721 
L 206.219436 233.7161 
" style="fill:#fb694a;stroke:#cccccc;stroke-width:0.8;"/>
    <path clip-path="url(#p2dad05cf4a)" d="M 396.389886 248.02314 
L 395.904126 248.717002 
L 395.266943 249.598852 
L 394.273231 250.112244 
L 394.05251 249.77433 
L 393.516452 249.588803 
L 394.257883 248.529545 
L 393.836838 247.820911 
L 392.453242 247.305722 
L 392.489519 246.839244 
L 393.418516 246.389934 
L 393.635384 245.398551 
L 393.575653 244.565811 
L 393.054944 243.702993 
L 393.089627 243.476009 
L 392.475035 242.944384 
L 391.463383 241.804939 
L 390.925731 240.89321 
L 391.402787 240.792195 
L 392.102559 241.507551 
L 393.102982 241.841472 
L 393.466355 242.988702 
L 394.39801 244.344284 
L 394.424986 243.464896 
L 395.005227 243.816119 
L 395.197578 244.7902 
L 396.232218 245.209831 
L 397.100886 245.312842 
L 397.835739 244.821676 
L 398.487273 244.970469 
L 398.175658 246.113241 
L 397.784445 246.864664 
L 396.802826 246.838179 
L 396.459518 247.229595 
L 396.579048 247.783579 
L 396.389886 248.02314 
" style="fill:#f34a36;stroke:#cccccc;stroke-width:0.8;"/>
    <path clip-path="url(#p2dad05cf4a)" d="M 387.109414 252.516437 
L 388.211427 251.842139 
L 388.983089 251.173898 
L 389.554759 250.214124 
L 390.042048 249.888321 
L 390.233003 249.169372 
L 391.134759 248.574263 
L 391.41993 249.12166 
L 391.711612 249.653418 
L 392.625992 249.131508 
L 392.997803 249.675511 
L 392.998999 250.217451 
L 392.520614 250.813891 
L 391.680118 251.762752 
L 391.022471 252.280735 
L 391.496737 252.9002 
L 390.504752 252.916104 
L 389.404599 253.401348 
L 389.060295 254.244269 
L 388.329429 255.547214 
L 387.31977 256.122626 
L 386.67807 256.490219 
L 385.493934 256.462802 
L 384.661278 256.038181 
L 383.263862 255.94768 
L 383.04819 255.474814 
L 383.738991 254.519631 
L 385.355601 253.248694 
L 386.185732 253.006405 
L 387.109414 252.516437 
" style="fill:#f34a36;stroke:#cccccc;stroke-width:0.8;"/>
    <path clip-path="url(#p2dad05cf4a)" d="M 177.839171 127.5595 
L 178.079493 127.994901 
L 177.759108 129.17394 
L 177.433208 129.658652 
L 176.660815 129.659184 
L 176.876819 131.008577 
L 176.170072 130.707795 
L 175.356219 130.144128 
L 174.164442 130.411671 
L 173.223153 130.31059 
L 173.223205 130.310562 
L 173.885716 129.956738 
L 175.011649 128.062178 
L 176.770777 127.523133 
L 177.839171 127.5595 
" style="fill:#e32f27;stroke:#cccccc;stroke-width:0.8;"/>
    <path clip-path="url(#p2dad05cf4a)" d="M 358.850739 248.978988 
L 359.621935 249.065496 
L 359.712961 250.594027 
L 359.272515 251.037747 
L 359.139763 252.073715 
L 358.690413 251.721095 
L 357.797826 252.618516 
L 357.531658 252.54931 
L 356.740994 252.50925 
L 355.948403 251.407004 
L 355.772463 250.556895 
L 355.030568 249.435218 
L 355.063589 248.844701 
L 355.90475 248.958758 
L 357.146957 249.40321 
L 357.846994 249.226601 
L 358.850739 248.978988 
" style="fill:#ca181d;stroke:#cccccc;stroke-width:0.8;"/>
    <path clip-path="url(#p2dad05cf4a)" d="M 331.155229 237.914537 
L 329.79223 238.57486 
L 328.677526 238.871982 
L 328.429763 239.547211 
L 327.954965 240.070452 
L 326.863849 240.101728 
L 326.056441 240.216251 
L 324.92001 239.981415 
L 323.995664 240.121957 
L 323.11291 240.181049 
L 322.348159 240.86779 
L 321.973291 240.809564 
L 321.328335 241.173563 
L 320.710221 241.582946 
L 319.77232 241.532372 
L 318.910363 241.531906 
L 317.546501 240.70948 
L 316.855367 240.464929 
L 316.883406 239.726948 
L 317.521784 239.551603 
L 317.739782 239.258407 
L 317.694401 238.795855 
L 317.851604 237.900496 
L 317.707557 237.137362 
L 317.027785 235.835681 
L 316.817096 235.100562 
L 316.872376 234.36704 
L 316.360571 233.52891 
L 316.327815 233.150537 
L 315.758337 232.637611 
L 315.598011 231.628926 
L 314.863358 230.609528 
L 314.685226 230.060202 
L 315.250186 230.617114 
L 314.816383 229.422438 
L 315.454031 229.79582 
L 315.834546 230.294439 
L 315.813085 229.634915 
L 315.176767 228.62104 
L 315.05345 228.21545 
L 314.755389 227.830157 
L 314.894918 227.085322 
L 315.158429 226.76837 
L 315.333837 226.124217 
L 315.196434 225.37153 
L 315.727707 224.444896 
L 315.824846 225.425631 
L 316.368012 224.539722 
L 317.412553 224.109178 
L 318.038972 223.559984 
L 319.021588 223.087384 
L 319.606215 222.986835 
L 319.960087 223.145611 
L 320.973266 222.66569 
L 321.753101 222.522886 
L 321.948176 222.240736 
L 322.288493 222.123218 
L 322.999161 222.153563 
L 324.350466 221.77652 
L 325.04944 221.204835 
L 325.377665 220.51663 
L 326.131786 219.862895 
L 326.189591 219.349037 
L 326.223211 218.648987 
L 327.122974 217.554726 
L 327.664546 218.666488 
L 328.211699 218.409559 
L 327.753844 217.801075 
L 328.157349 217.176287 
L 328.724634 217.455242 
L 328.880773 216.475438 
L 329.583335 215.841933 
L 329.893355 215.333664 
L 330.53984 215.114333 
L 330.560038 214.754526 
L 331.124931 214.904784 
L 331.147655 214.581111 
L 331.713079 214.396715 
L 332.334448 214.2231 
L 333.284309 214.814084 
L 333.997966 215.576752 
L 334.80265 215.585536 
L 335.62029 215.706315 
L 335.347876 214.999211 
L 335.963797 213.966504 
L 336.54344 213.629987 
L 336.342917 213.308244 
L 336.901299 212.572792 
L 337.68007 212.118558 
L 338.33785 212.271544 
L 339.418136 212.028922 
L 339.394881 211.370862 
L 338.453061 210.946906 
L 339.137749 210.759849 
L 339.989341 211.079064 
L 340.672436 211.607162 
L 341.755313 211.936625 
L 342.122474 211.80633 
L 342.91945 212.202205 
L 343.670582 211.833481 
L 344.153618 211.945608 
L 344.454602 211.698195 
L 345.044942 212.335294 
L 344.702299 213.024564 
L 344.21408 213.54481 
L 343.772238 213.587665 
L 343.921202 214.102455 
L 343.543477 214.745942 
L 343.086819 215.378782 
L 343.178775 215.742315 
L 344.200925 216.453811 
L 345.191182 216.866521 
L 345.85348 217.309908 
L 346.782743 218.07291 
L 347.145252 218.071645 
L 347.818181 218.401374 
L 348.013654 218.799178 
L 349.241111 219.235978 
L 350.089979 218.795918 
L 350.341529 218.104385 
L 350.602515 217.533698 
L 350.76211 216.827592 
L 351.152924 215.803071 
L 350.97446 215.180345 
L 351.067213 214.805699 
L 350.918515 214.068717 
L 351.087013 213.098562 
L 351.333581 212.836974 
L 351.13339 212.406963 
L 351.444074 211.724281 
L 351.688184 211.016778 
L 351.720607 210.649385 
L 352.198328 210.167069 
L 352.560971 210.796981 
L 352.650269 211.604833 
L 352.970654 211.760548 
L 353.025536 212.301423 
L 353.492891 212.956489 
L 353.589366 213.685419 
L 353.543919 214.153162 
L 354.007156 215.163576 
L 354.832104 214.677933 
L 355.257933 215.223001 
L 355.874851 215.725879 
L 355.742763 216.296632 
L 356.016971 217.400808 
L 356.212112 218.043697 
L 356.535953 218.200809 
L 356.884908 219.301458 
L 356.760661 219.969034 
L 357.176989 220.842366 
L 358.570219 221.515133 
L 359.478619 222.127078 
L 360.341108 222.687584 
L 360.172743 222.999545 
L 360.908127 223.806998 
L 361.408172 225.200311 
L 361.92124 224.917363 
L 362.44268 225.475407 
L 362.75682 225.277436 
L 362.978339 226.642201 
L 363.890725 227.432885 
L 364.487777 227.924317 
L 365.492784 228.966873 
L 365.854031 230.001776 
L 365.887186 230.735963 
L 365.798419 231.533035 
L 366.411151 232.627296 
L 366.3374 233.76694 
L 366.11495 234.363314 
L 365.767988 235.512008 
L 365.794167 236.250388 
L 365.539559 237.173429 
L 364.971809 238.344682 
L 364.019225 238.977389 
L 363.549743 239.97496 
L 363.121057 240.611527 
L 362.739943 241.722956 
L 362.243752 242.364779 
L 361.91845 243.328413 
L 361.752477 244.215453 
L 361.818255 244.62264 
L 361.08101 245.07002 
L 359.641934 245.116868 
L 358.45534 245.645033 
L 357.864401 246.143785 
L 357.087557 246.696505 
L 356.022619 246.127349 
L 355.234878 245.900298 
L 355.434471 245.229062 
L 354.731776 245.472616 
L 353.605844 246.405106 
L 352.494263 246.05588 
L 351.765124 245.85212 
L 351.030005 245.760022 
L 349.785407 245.387638 
L 348.954279 244.593893 
L 348.715684 243.616086 
L 348.416827 242.965478 
L 347.785092 242.443169 
L 346.548135 242.288053 
L 346.970775 241.663465 
L 346.659758 240.707284 
L 346.031811 241.598517 
L 344.887806 241.835084 
L 345.560203 241.122723 
L 345.755012 240.379618 
L 346.251602 239.748908 
L 346.149015 238.795389 
L 345.103079 239.89351 
L 344.299791 240.333902 
L 343.80732 241.358091 
L 342.803376 240.828263 
L 342.843241 240.144849 
L 342.038624 239.211027 
L 341.36038 238.728512 
L 341.602097 238.431257 
L 339.952333 237.650887 
L 339.04885 237.614088 
L 337.81229 236.987171 
L 335.510128 237.109014 
L 333.845282 237.570102 
L 332.382021 237.999914 
L 331.155229 237.914537 
" style="fill:#ca181d;stroke:#cccccc;stroke-width:0.8;"/>
    <path clip-path="url(#p2dad05cf4a)" d="M 160.992107 127.063209 
L 160.020288 126.797763 
L 159.225139 126.815464 
L 159.490177 126.125395 
L 159.225139 125.43546 
L 160.303 125.382357 
L 161.681181 126.178498 
L 160.992107 127.063209 
" style="fill:#900a12;stroke:#cccccc;stroke-width:0.8;"/>
    <path clip-path="url(#p2dad05cf4a)" d="M 164.98311 127.659446 
L 164.985361 127.659583 
L 165.174456 126.911987 
L 164.313407 126.118833 
L 164.293729 126.100707 
L 162.732632 125.874122 
L 162.426167 125.525628 
L 162.893423 124.950183 
L 162.470583 124.5954 
L 161.77832 125.204284 
L 161.702974 123.963092 
L 161.0537 123.306363 
L 161.520623 121.97507 
L 162.519418 120.930518 
L 163.546086 121.032465 
L 165.097316 120.924097 
L 163.723089 122.317376 
L 165.033033 122.140966 
L 166.441844 122.147687 
L 166.106643 123.196897 
L 164.950744 124.350981 
L 166.28019 124.433131 
L 166.382192 124.568464 
L 167.52738 126.087864 
L 168.407476 126.294685 
L 169.198804 127.761862 
L 169.565234 128.27053 
L 171.122976 128.515813 
L 170.966703 129.339337 
L 170.311714 129.716945 
L 170.825115 130.383124 
L 169.668552 131.057487 
L 167.948425 131.045576 
L 165.759481 131.39966 
L 165.159971 131.146158 
L 164.309874 131.749485 
L 163.120489 131.603353 
L 162.217238 132.095052 
L 161.533812 131.837923 
L 163.419447 130.485403 
L 164.570362 130.207246 
L 164.560245 130.206165 
L 162.552374 129.991608 
L 162.188602 129.479181 
L 163.532133 129.080046 
L 162.827977 128.386417 
L 163.072285 127.542963 
L 164.98311 127.659446 
" style="fill:#900a12;stroke:#cccccc;stroke-width:0.8;"/>
    <path clip-path="url(#p2dad05cf4a)" d="M 187.115192 127.205548 
L 187.415578 127.860814 
L 187.057121 128.204517 
L 187.523945 128.663476 
L 187.842071 129.35228 
L 187.741876 129.796233 
L 188.268897 130.618459 
L 187.695101 130.752812 
L 187.356045 130.604817 
L 187.0336 130.849934 
L 186.110317 131.099344 
L 185.632929 131.420189 
L 184.698549 131.700575 
L 184.923656 132.083307 
L 185.05973 132.626345 
L 185.715849 132.935844 
L 186.441798 133.489429 
L 185.988462 134.083141 
L 185.526554 134.246641 
L 185.708806 135.08567 
L 185.588944 135.304502 
L 185.187964 135.040852 
L 184.571578 135.001324 
L 183.652348 135.232234 
L 182.518442 135.177335 
L 182.335327 135.517179 
L 181.684723 135.159568 
L 181.296633 135.230571 
L 179.918817 134.836826 
L 179.654842 135.11658 
L 178.561267 135.107563 
L 178.724449 134.190145 
L 179.374521 133.308361 
L 177.521709 133.071196 
L 176.914957 132.734014 
L 176.987512 132.169449 
L 176.730779 131.878649 
L 176.876819 131.008577 
L 176.660815 129.659184 
L 177.433208 129.658652 
L 177.759108 129.17394 
L 178.079493 127.994901 
L 177.839171 127.5595 
L 178.090257 127.286799 
L 179.164896 127.216794 
L 179.403357 127.500741 
L 180.27641 126.865904 
L 179.982469 126.383189 
L 179.923468 125.652928 
L 180.895255 125.82275 
L 181.717944 125.626709 
L 181.740667 126.124364 
L 183.039948 126.424447 
L 183.026261 126.881476 
L 184.333581 126.639652 
L 185.056408 126.286966 
L 186.508041 126.795434 
L 187.115192 127.205548 
" style="fill:#67000d;stroke:#cccccc;stroke-width:0.8;"/>
   </g>
  </g>
 </g>
 <defs>
  <clipPath id="p2dad05cf4a">
   <rect height="180.316881" width="357.12" x="57.6" y="84.369559"/>
  </clipPath>
 </defs>
</svg>
