<?xml version="1.0" encoding="utf-8" standalone="no"?>
<!DOCTYPE svg PUBLIC "-//W3C//DTD SVG 1.1//EN"
  "http://www.w3.org/Graphics/SVG/1.1/DTD/svg11.dtd">
<svg xmlns:xlink="http://www.w3.org/1999/xlink" width="576pt" height="840pt" viewBox="0 0 576 840" xmlns="http://www.w3.org/2000/svg" version="1.1">
 <metadata>
  <rdf:RDF xmlns:dc="http://purl.org/dc/elements/1.1/" xmlns:cc="http://creativecommons.org/ns#" xmlns:rdf="http://www.w3.org/1999/02/22-rdf-syntax-ns#">
   <cc:Work>
    <dc:type rdf:resource="http://purl.org/dc/dcmitype/StillImage"/>
    <dc:date>2022-05-19T12:24:26.452487</dc:date>
    <dc:format>image/svg+xml</dc:format>
    <dc:creator>
     <cc:Agent>
      <dc:title>Matplotlib v3.5.1, https://matplotlib.org/</dc:title>
     </cc:Agent>
    </dc:creator>
   </cc:Work>
  </rdf:RDF>
 </metadata>
 <defs>
  <style type="text/css">*{stroke-linejoin: round; stroke-linecap: butt}</style>
 </defs>
 <g id="figure_1">
  <g id="patch_1">
   <path d="M 0 840 
L 576 840 
L 576 0 
L 0 0 
z
" style="fill: #ffffff"/>
  </g>
  <g id="axes_1">
   <g id="patch_2">
    <path d="M 131.170312 812.942188 
L 494.708075 812.942188 
L 494.708075 25.43625 
L 131.170312 25.43625 
z
" style="fill: #ffffff"/>
   </g>
   <g id="patch_3">
    <path d="M 131.170312 777.146463 
L 131.170312 777.146463 
L 131.170312 759.136036 
L 131.170312 759.136036 
z
" clip-path="url(#p466d495cf5)" style="fill: #1f77b4"/>
   </g>
   <g id="patch_4">
    <path d="M 131.170312 754.633429 
L 131.170312 754.633429 
L 131.170312 736.623001 
L 131.170312 736.623001 
z
" clip-path="url(#p466d495cf5)" style="fill: #1f77b4"/>
   </g>
   <g id="patch_5">
    <path d="M 131.170312 732.120395 
L 131.170312 732.120395 
L 131.170312 714.109967 
L 131.170312 714.109967 
z
" clip-path="url(#p466d495cf5)" style="fill: #1f77b4"/>
   </g>
   <g id="patch_6">
    <path d="M 131.170312 709.60736 
L 131.170312 709.60736 
L 131.170312 691.596933 
L 131.170312 691.596933 
z
" clip-path="url(#p466d495cf5)" style="fill: #1f77b4"/>
   </g>
   <g id="patch_7">
    <path d="M 131.170312 687.094326 
L 131.170312 687.094326 
L 131.170312 669.083899 
L 131.170312 669.083899 
z
" clip-path="url(#p466d495cf5)" style="fill: #1f77b4"/>
   </g>
   <g id="patch_8">
    <path d="M 131.170312 664.581292 
L 131.170312 664.581292 
L 131.170312 646.570865 
L 131.170312 646.570865 
z
" clip-path="url(#p466d495cf5)" style="fill: #1f77b4"/>
   </g>
   <g id="patch_9">
    <path d="M 131.170312 642.068258 
L 133.833593 642.068258 
L 133.833593 624.05783 
L 131.170312 624.05783 
z
" clip-path="url(#p466d495cf5)" style="fill: #1f77b4"/>
   </g>
   <g id="patch_10">
    <path d="M 131.170312 619.555223 
L 136.496873 619.555223 
L 136.496873 601.544796 
L 131.170312 601.544796 
z
" clip-path="url(#p466d495cf5)" style="fill: #1f77b4"/>
   </g>
   <g id="patch_11">
    <path d="M 131.170312 597.042189 
L 136.496873 597.042189 
L 136.496873 579.031762 
L 131.170312 579.031762 
z
" clip-path="url(#p466d495cf5)" style="fill: #1f77b4"/>
   </g>
   <g id="patch_12">
    <path d="M 131.170312 574.529155 
L 136.496873 574.529155 
L 136.496873 556.518728 
L 131.170312 556.518728 
z
" clip-path="url(#p466d495cf5)" style="fill: #1f77b4"/>
   </g>
   <g id="patch_13">
    <path d="M 131.170312 552.016121 
L 136.496873 552.016121 
L 136.496873 534.005693 
L 131.170312 534.005693 
z
" clip-path="url(#p466d495cf5)" style="fill: #1f77b4"/>
   </g>
   <g id="patch_14">
    <path d="M 131.170312 529.503086 
L 136.496873 529.503086 
L 136.496873 511.492659 
L 131.170312 511.492659 
z
" clip-path="url(#p466d495cf5)" style="fill: #1f77b4"/>
   </g>
   <g id="patch_15">
    <path d="M 131.170312 506.990052 
L 139.160153 506.990052 
L 139.160153 488.979625 
L 131.170312 488.979625 
z
" clip-path="url(#p466d495cf5)" style="fill: #1f77b4"/>
   </g>
   <g id="patch_16">
    <path d="M 131.170312 484.477018 
L 139.160153 484.477018 
L 139.160153 466.466591 
L 131.170312 466.466591 
z
" clip-path="url(#p466d495cf5)" style="fill: #1f77b4"/>
   </g>
   <g id="patch_17">
    <path d="M 131.170312 461.963984 
L 139.160153 461.963984 
L 139.160153 443.953556 
L 131.170312 443.953556 
z
" clip-path="url(#p466d495cf5)" style="fill: #1f77b4"/>
   </g>
   <g id="patch_18">
    <path d="M 131.170312 439.45095 
L 139.160153 439.45095 
L 139.160153 421.440522 
L 131.170312 421.440522 
z
" clip-path="url(#p466d495cf5)" style="fill: #1f77b4"/>
   </g>
   <g id="patch_19">
    <path d="M 131.170312 416.937915 
L 147.149994 416.937915 
L 147.149994 398.927488 
L 131.170312 398.927488 
z
" clip-path="url(#p466d495cf5)" style="fill: #1f77b4"/>
   </g>
   <g id="patch_20">
    <path d="M 131.170312 394.424881 
L 147.149994 394.424881 
L 147.149994 376.414454 
L 131.170312 376.414454 
z
" clip-path="url(#p466d495cf5)" style="fill: #1f77b4"/>
   </g>
   <g id="patch_21">
    <path d="M 131.170312 371.911847 
L 160.466396 371.911847 
L 160.466396 353.901419 
L 131.170312 353.901419 
z
" clip-path="url(#p466d495cf5)" style="fill: #1f77b4"/>
   </g>
   <g id="patch_22">
    <path d="M 131.170312 349.398813 
L 163.129676 349.398813 
L 163.129676 331.388385 
L 131.170312 331.388385 
z
" clip-path="url(#p466d495cf5)" style="fill: #1f77b4"/>
   </g>
   <g id="patch_23">
    <path d="M 131.170312 326.885778 
L 163.129676 326.885778 
L 163.129676 308.875351 
L 131.170312 308.875351 
z
" clip-path="url(#p466d495cf5)" style="fill: #1f77b4"/>
   </g>
   <g id="patch_24">
    <path d="M 131.170312 304.372744 
L 165.792957 304.372744 
L 165.792957 286.362317 
L 131.170312 286.362317 
z
" clip-path="url(#p466d495cf5)" style="fill: #1f77b4"/>
   </g>
   <g id="patch_25">
    <path d="M 131.170312 281.85971 
L 176.446078 281.85971 
L 176.446078 263.849283 
L 131.170312 263.849283 
z
" clip-path="url(#p466d495cf5)" style="fill: #1f77b4"/>
   </g>
   <g id="patch_26">
    <path d="M 131.170312 259.346676 
L 189.762479 259.346676 
L 189.762479 241.336248 
L 131.170312 241.336248 
z
" clip-path="url(#p466d495cf5)" style="fill: #1f77b4"/>
   </g>
   <g id="patch_27">
    <path d="M 131.170312 236.833641 
L 200.415601 236.833641 
L 200.415601 218.823214 
L 131.170312 218.823214 
z
" clip-path="url(#p466d495cf5)" style="fill: #1f77b4"/>
   </g>
   <g id="patch_28">
    <path d="M 131.170312 214.320607 
L 208.405441 214.320607 
L 208.405441 196.31018 
L 131.170312 196.31018 
z
" clip-path="url(#p466d495cf5)" style="fill: #1f77b4"/>
   </g>
   <g id="patch_29">
    <path d="M 131.170312 191.807573 
L 224.385123 191.807573 
L 224.385123 173.797146 
L 131.170312 173.797146 
z
" clip-path="url(#p466d495cf5)" style="fill: #1f77b4"/>
   </g>
   <g id="patch_30">
    <path d="M 131.170312 169.294539 
L 235.038245 169.294539 
L 235.038245 151.284111 
L 131.170312 151.284111 
z
" clip-path="url(#p466d495cf5)" style="fill: #1f77b4"/>
   </g>
   <g id="patch_31">
    <path d="M 131.170312 146.781505 
L 248.354646 146.781505 
L 248.354646 128.771077 
L 131.170312 128.771077 
z
" clip-path="url(#p466d495cf5)" style="fill: #1f77b4"/>
   </g>
   <g id="patch_32">
    <path d="M 131.170312 124.26847 
L 285.64057 124.26847 
L 285.64057 106.258043 
L 131.170312 106.258043 
z
" clip-path="url(#p466d495cf5)" style="fill: #1f77b4"/>
   </g>
   <g id="patch_33">
    <path d="M 131.170312 101.755436 
L 285.64057 101.755436 
L 285.64057 83.745009 
L 131.170312 83.745009 
z
" clip-path="url(#p466d495cf5)" style="fill: #1f77b4"/>
   </g>
   <g id="patch_34">
    <path d="M 131.170312 79.242402 
L 477.396753 79.242402 
L 477.396753 61.231974 
L 131.170312 61.231974 
z
" clip-path="url(#p466d495cf5)" style="fill: #1f77b4"/>
   </g>
   <g id="matplotlib.axis_1">
    <g id="xtick_1">
     <g id="line2d_1">
      <defs>
       <path id="m4c99cd72f3" d="M 0 0 
L 0 3.5 
" style="stroke: #000000; stroke-width: 0.8"/>
      </defs>
      <g>
       <use xlink:href="#m4c99cd72f3" x="131.170312" y="812.942188" style="stroke: #000000; stroke-width: 0.8"/>
      </g>
     </g>
     <g id="text_1">
      <!-- 0 -->
      <g transform="translate(128.389844 827.115625)scale(0.1 -0.1)">
       <defs>
        <path id="Helvetica-30" d="M 1731 4475 
Q 2600 4475 2988 3759 
Q 3288 3206 3288 2244 
Q 3288 1331 3016 734 
Q 2622 -122 1728 -122 
Q 922 -122 528 578 
Q 200 1163 200 2147 
Q 200 2909 397 3456 
Q 766 4475 1731 4475 
z
M 1725 391 
Q 2163 391 2422 778 
Q 2681 1166 2681 2222 
Q 2681 2984 2493 3476 
Q 2306 3969 1766 3969 
Q 1269 3969 1039 3501 
Q 809 3034 809 2125 
Q 809 1441 956 1025 
Q 1181 391 1725 391 
z
" transform="scale(0.015625)"/>
       </defs>
       <use xlink:href="#Helvetica-30"/>
      </g>
     </g>
    </g>
    <g id="xtick_2">
     <g id="line2d_2">
      <g>
       <use xlink:href="#m4c99cd72f3" x="177.777718" y="812.942188" style="stroke: #000000; stroke-width: 0.8"/>
      </g>
     </g>
     <g id="text_2">
      <!-- 10 -->
      <g transform="translate(172.21678 827.115625)scale(0.1 -0.1)">
       <defs>
        <path id="Helvetica-31" d="M 613 3169 
L 613 3600 
Q 1222 3659 1462 3798 
Q 1703 3938 1822 4456 
L 2266 4456 
L 2266 0 
L 1666 0 
L 1666 3169 
L 613 3169 
z
" transform="scale(0.015625)"/>
       </defs>
       <use xlink:href="#Helvetica-31"/>
       <use xlink:href="#Helvetica-30" x="55.615234"/>
      </g>
     </g>
    </g>
    <g id="xtick_3">
     <g id="line2d_3">
      <g>
       <use xlink:href="#m4c99cd72f3" x="224.385123" y="812.942188" style="stroke: #000000; stroke-width: 0.8"/>
      </g>
     </g>
     <g id="text_3">
      <!-- 20 -->
      <g transform="translate(218.824186 827.115625)scale(0.1 -0.1)">
       <defs>
        <path id="Helvetica-32" d="M 200 0 
Q 231 578 439 1006 
Q 647 1434 1250 1784 
L 1850 2131 
Q 2253 2366 2416 2531 
Q 2672 2791 2672 3125 
Q 2672 3516 2437 3745 
Q 2203 3975 1813 3975 
Q 1234 3975 1013 3538 
Q 894 3303 881 2888 
L 309 2888 
Q 319 3472 525 3841 
Q 891 4491 1816 4491 
Q 2584 4491 2939 4075 
Q 3294 3659 3294 3150 
Q 3294 2613 2916 2231 
Q 2697 2009 2131 1694 
L 1703 1456 
Q 1397 1288 1222 1134 
Q 909 863 828 531 
L 3272 531 
L 3272 0 
L 200 0 
z
" transform="scale(0.015625)"/>
       </defs>
       <use xlink:href="#Helvetica-32"/>
       <use xlink:href="#Helvetica-30" x="55.615234"/>
      </g>
     </g>
    </g>
    <g id="xtick_4">
     <g id="line2d_4">
      <g>
       <use xlink:href="#m4c99cd72f3" x="270.992529" y="812.942188" style="stroke: #000000; stroke-width: 0.8"/>
      </g>
     </g>
     <g id="text_4">
      <!-- 30 -->
      <g transform="translate(265.431591 827.115625)scale(0.1 -0.1)">
       <defs>
        <path id="Helvetica-33" d="M 1663 -122 
Q 869 -122 511 314 
Q 153 750 153 1375 
L 741 1375 
Q 778 941 903 744 
Q 1122 391 1694 391 
Q 2138 391 2406 628 
Q 2675 866 2675 1241 
Q 2675 1703 2392 1887 
Q 2109 2072 1606 2072 
Q 1550 2072 1492 2070 
Q 1434 2069 1375 2066 
L 1375 2563 
Q 1463 2553 1522 2550 
Q 1581 2547 1650 2547 
Q 1966 2547 2169 2647 
Q 2525 2822 2525 3272 
Q 2525 3606 2287 3787 
Q 2050 3969 1734 3969 
Q 1172 3969 956 3594 
Q 838 3388 822 3006 
L 266 3006 
Q 266 3506 466 3856 
Q 809 4481 1675 4481 
Q 2359 4481 2734 4176 
Q 3109 3872 3109 3294 
Q 3109 2881 2888 2625 
Q 2750 2466 2531 2375 
Q 2884 2278 3082 2001 
Q 3281 1725 3281 1325 
Q 3281 684 2859 281 
Q 2438 -122 1663 -122 
z
" transform="scale(0.015625)"/>
       </defs>
       <use xlink:href="#Helvetica-33"/>
       <use xlink:href="#Helvetica-30" x="55.615234"/>
      </g>
     </g>
    </g>
    <g id="xtick_5">
     <g id="line2d_5">
      <g>
       <use xlink:href="#m4c99cd72f3" x="317.599934" y="812.942188" style="stroke: #000000; stroke-width: 0.8"/>
      </g>
     </g>
     <g id="text_5">
      <!-- 40 -->
      <g transform="translate(312.038997 827.115625)scale(0.1 -0.1)">
       <defs>
        <path id="Helvetica-34" d="M 2116 1584 
L 2116 3613 
L 681 1584 
L 2116 1584 
z
M 2125 0 
L 2125 1094 
L 163 1094 
L 163 1644 
L 2213 4488 
L 2688 4488 
L 2688 1584 
L 3347 1584 
L 3347 1094 
L 2688 1094 
L 2688 0 
L 2125 0 
z
" transform="scale(0.015625)"/>
       </defs>
       <use xlink:href="#Helvetica-34"/>
       <use xlink:href="#Helvetica-30" x="55.615234"/>
      </g>
     </g>
    </g>
    <g id="xtick_6">
     <g id="line2d_6">
      <g>
       <use xlink:href="#m4c99cd72f3" x="364.20734" y="812.942188" style="stroke: #000000; stroke-width: 0.8"/>
      </g>
     </g>
     <g id="text_6">
      <!-- 50 -->
      <g transform="translate(358.646402 827.115625)scale(0.1 -0.1)">
       <defs>
        <path id="Helvetica-35" d="M 791 1141 
Q 847 659 1238 475 
Q 1438 381 1700 381 
Q 2200 381 2440 700 
Q 2681 1019 2681 1406 
Q 2681 1875 2395 2131 
Q 2109 2388 1709 2388 
Q 1419 2388 1211 2275 
Q 1003 2163 856 1963 
L 369 1991 
L 709 4400 
L 3034 4400 
L 3034 3856 
L 1131 3856 
L 941 2613 
Q 1097 2731 1238 2791 
Q 1488 2894 1816 2894 
Q 2431 2894 2859 2497 
Q 3288 2100 3288 1491 
Q 3288 856 2895 371 
Q 2503 -113 1644 -113 
Q 1097 -113 676 195 
Q 256 503 206 1141 
L 791 1141 
z
" transform="scale(0.015625)"/>
       </defs>
       <use xlink:href="#Helvetica-35"/>
       <use xlink:href="#Helvetica-30" x="55.615234"/>
      </g>
     </g>
    </g>
    <g id="xtick_7">
     <g id="line2d_7">
      <g>
       <use xlink:href="#m4c99cd72f3" x="410.814745" y="812.942188" style="stroke: #000000; stroke-width: 0.8"/>
      </g>
     </g>
     <g id="text_7">
      <!-- 60 -->
      <g transform="translate(405.253807 827.115625)scale(0.1 -0.1)">
       <defs>
        <path id="Helvetica-36" d="M 1872 4494 
Q 2622 4494 2917 4105 
Q 3213 3716 3213 3303 
L 2656 3303 
Q 2606 3569 2497 3719 
Q 2294 4000 1881 4000 
Q 1409 4000 1131 3564 
Q 853 3128 822 2316 
Q 1016 2600 1309 2741 
Q 1578 2866 1909 2866 
Q 2472 2866 2890 2506 
Q 3309 2147 3309 1434 
Q 3309 825 2912 354 
Q 2516 -116 1781 -116 
Q 1153 -116 697 361 
Q 241 838 241 1966 
Q 241 2800 444 3381 
Q 834 4494 1872 4494 
z
M 1831 384 
Q 2275 384 2495 682 
Q 2716 981 2716 1388 
Q 2716 1731 2519 2042 
Q 2322 2353 1803 2353 
Q 1441 2353 1167 2112 
Q 894 1872 894 1388 
Q 894 963 1142 673 
Q 1391 384 1831 384 
z
" transform="scale(0.015625)"/>
       </defs>
       <use xlink:href="#Helvetica-36"/>
       <use xlink:href="#Helvetica-30" x="55.615234"/>
      </g>
     </g>
    </g>
    <g id="xtick_8">
     <g id="line2d_8">
      <g>
       <use xlink:href="#m4c99cd72f3" x="457.42215" y="812.942188" style="stroke: #000000; stroke-width: 0.8"/>
      </g>
     </g>
     <g id="text_8">
      <!-- 70 -->
      <g transform="translate(451.861213 827.115625)scale(0.1 -0.1)">
       <defs>
        <path id="Helvetica-37" d="M 3347 4400 
L 3347 3909 
Q 3131 3700 2773 3181 
Q 2416 2663 2141 2063 
Q 1869 1478 1728 997 
Q 1638 688 1494 0 
L 872 0 
Q 1084 1281 1809 2550 
Q 2238 3294 2709 3834 
L 234 3834 
L 234 4400 
L 3347 4400 
z
" transform="scale(0.015625)"/>
       </defs>
       <use xlink:href="#Helvetica-37"/>
       <use xlink:href="#Helvetica-30" x="55.615234"/>
      </g>
     </g>
    </g>
   </g>
   <g id="matplotlib.axis_2">
    <g id="ytick_1">
     <g id="line2d_9">
      <defs>
       <path id="m8e343aef83" d="M 0 0 
L -3.5 0 
" style="stroke: #000000; stroke-width: 0.8"/>
      </defs>
      <g>
       <use xlink:href="#m8e343aef83" x="131.170312" y="768.141249" style="stroke: #000000; stroke-width: 0.8"/>
      </g>
     </g>
     <g id="text_9">
      <!-- Clojure -->
      <g transform="translate(92.492188 771.825624)scale(0.1 -0.1)">
       <defs>
        <path id="Helvetica-43" d="M 2422 4716 
Q 3294 4716 3775 4256 
Q 4256 3797 4309 3213 
L 3703 3213 
Q 3600 3656 3292 3915 
Q 2984 4175 2428 4175 
Q 1750 4175 1333 3698 
Q 916 3222 916 2238 
Q 916 1431 1292 929 
Q 1669 428 2416 428 
Q 3103 428 3463 956 
Q 3653 1234 3747 1688 
L 4353 1688 
Q 4272 963 3816 472 
Q 3269 -119 2341 -119 
Q 1541 -119 997 366 
Q 281 1006 281 2344 
Q 281 3359 819 4009 
Q 1400 4716 2422 4716 
z
M 2297 4716 
L 2297 4716 
z
" transform="scale(0.015625)"/>
        <path id="Helvetica-6c" d="M 428 4591 
L 991 4591 
L 991 0 
L 428 0 
L 428 4591 
z
" transform="scale(0.015625)"/>
        <path id="Helvetica-6f" d="M 1741 363 
Q 2300 363 2508 786 
Q 2716 1209 2716 1728 
Q 2716 2197 2566 2491 
Q 2328 2953 1747 2953 
Q 1231 2953 997 2559 
Q 763 2166 763 1609 
Q 763 1075 997 719 
Q 1231 363 1741 363 
z
M 1763 3444 
Q 2409 3444 2856 3012 
Q 3303 2581 3303 1744 
Q 3303 934 2909 406 
Q 2516 -122 1688 -122 
Q 997 -122 590 345 
Q 184 813 184 1600 
Q 184 2444 612 2944 
Q 1041 3444 1763 3444 
z
M 1744 3428 
L 1744 3428 
z
" transform="scale(0.015625)"/>
        <path id="Helvetica-6a" d="M 975 3941 
L 413 3941 
L 413 4591 
L 975 4591 
L 975 3941 
z
M -119 -847 
Q 259 -834 336 -779 
Q 413 -725 413 -438 
L 413 3331 
L 975 3331 
L 975 -497 
Q 975 -863 856 -1044 
Q 659 -1350 109 -1350 
Q 69 -1350 23 -1347 
Q -22 -1344 -119 -1334 
L -119 -847 
z
" transform="scale(0.015625)"/>
        <path id="Helvetica-75" d="M 975 3347 
L 975 1125 
Q 975 869 1056 706 
Q 1206 406 1616 406 
Q 2203 406 2416 931 
Q 2531 1213 2531 1703 
L 2531 3347 
L 3094 3347 
L 3094 0 
L 2563 0 
L 2569 494 
Q 2459 303 2297 172 
Q 1975 -91 1516 -91 
Q 800 -91 541 388 
Q 400 644 400 1072 
L 400 3347 
L 975 3347 
z
M 1747 3428 
L 1747 3428 
z
" transform="scale(0.015625)"/>
        <path id="Helvetica-72" d="M 428 3347 
L 963 3347 
L 963 2769 
Q 1028 2938 1284 3180 
Q 1541 3422 1875 3422 
Q 1891 3422 1928 3419 
Q 1966 3416 2056 3406 
L 2056 2813 
Q 2006 2822 1964 2825 
Q 1922 2828 1872 2828 
Q 1447 2828 1219 2554 
Q 991 2281 991 1925 
L 991 0 
L 428 0 
L 428 3347 
z
" transform="scale(0.015625)"/>
        <path id="Helvetica-65" d="M 1806 3422 
Q 2163 3422 2497 3255 
Q 2831 3088 3006 2822 
Q 3175 2569 3231 2231 
Q 3281 2000 3281 1494 
L 828 1494 
Q 844 984 1069 676 
Q 1294 369 1766 369 
Q 2206 369 2469 659 
Q 2619 828 2681 1050 
L 3234 1050 
Q 3213 866 3089 639 
Q 2966 413 2813 269 
Q 2556 19 2178 -69 
Q 1975 -119 1719 -119 
Q 1094 -119 659 336 
Q 225 791 225 1609 
Q 225 2416 662 2919 
Q 1100 3422 1806 3422 
z
M 2703 1941 
Q 2669 2306 2544 2525 
Q 2313 2931 1772 2931 
Q 1384 2931 1121 2651 
Q 859 2372 844 1941 
L 2703 1941 
z
M 1753 3428 
L 1753 3428 
z
" transform="scale(0.015625)"/>
       </defs>
       <use xlink:href="#Helvetica-43"/>
       <use xlink:href="#Helvetica-6c" x="72.216797"/>
       <use xlink:href="#Helvetica-6f" x="94.433594"/>
       <use xlink:href="#Helvetica-6a" x="150.048828"/>
       <use xlink:href="#Helvetica-75" x="172.265625"/>
       <use xlink:href="#Helvetica-72" x="227.880859"/>
       <use xlink:href="#Helvetica-65" x="261.181641"/>
      </g>
     </g>
    </g>
    <g id="ytick_2">
     <g id="line2d_10">
      <g>
       <use xlink:href="#m8e343aef83" x="131.170312" y="745.628215" style="stroke: #000000; stroke-width: 0.8"/>
      </g>
     </g>
     <g id="text_10">
      <!-- CoffeeScript -->
      <g transform="translate(69.148438 749.31259)scale(0.1 -0.1)">
       <defs>
        <path id="Helvetica-66" d="M 553 3856 
Q 566 4206 675 4369 
Q 872 4656 1434 4656 
Q 1488 4656 1544 4653 
Q 1600 4650 1672 4644 
L 1672 4131 
Q 1584 4138 1545 4139 
Q 1506 4141 1472 4141 
Q 1216 4141 1166 4008 
Q 1116 3875 1116 3331 
L 1672 3331 
L 1672 2888 
L 1109 2888 
L 1109 0 
L 553 0 
L 553 2888 
L 88 2888 
L 88 3331 
L 553 3331 
L 553 3856 
z
" transform="scale(0.015625)"/>
        <path id="Helvetica-53" d="M 894 1481 
Q 916 1091 1078 847 
Q 1388 391 2169 391 
Q 2519 391 2806 491 
Q 3363 684 3363 1184 
Q 3363 1559 3128 1719 
Q 2891 1875 2384 1991 
L 1763 2131 
Q 1153 2269 900 2434 
Q 463 2722 463 3294 
Q 463 3913 891 4309 
Q 1319 4706 2103 4706 
Q 2825 4706 3329 4357 
Q 3834 4009 3834 3244 
L 3250 3244 
Q 3203 3613 3050 3809 
Q 2766 4169 2084 4169 
Q 1534 4169 1293 3937 
Q 1053 3706 1053 3400 
Q 1053 3063 1334 2906 
Q 1519 2806 2169 2656 
L 2813 2509 
Q 3278 2403 3531 2219 
Q 3969 1897 3969 1284 
Q 3969 522 3414 194 
Q 2859 -134 2125 -134 
Q 1269 -134 784 303 
Q 300 738 309 1481 
L 894 1481 
z
M 2150 4716 
L 2150 4716 
z
" transform="scale(0.015625)"/>
        <path id="Helvetica-63" d="M 1703 3444 
Q 2269 3444 2623 3169 
Q 2978 2894 3050 2222 
L 2503 2222 
Q 2453 2531 2275 2736 
Q 2097 2941 1703 2941 
Q 1166 2941 934 2416 
Q 784 2075 784 1575 
Q 784 1072 996 728 
Q 1209 384 1666 384 
Q 2016 384 2220 598 
Q 2425 813 2503 1184 
L 3050 1184 
Q 2956 519 2581 211 
Q 2206 -97 1622 -97 
Q 966 -97 575 383 
Q 184 863 184 1581 
Q 184 2463 612 2953 
Q 1041 3444 1703 3444 
z
M 1616 3428 
L 1616 3428 
z
" transform="scale(0.015625)"/>
        <path id="Helvetica-69" d="M 413 3331 
L 984 3331 
L 984 0 
L 413 0 
L 413 3331 
z
M 413 4591 
L 984 4591 
L 984 3953 
L 413 3953 
L 413 4591 
z
" transform="scale(0.015625)"/>
        <path id="Helvetica-70" d="M 1825 378 
Q 2219 378 2480 708 
Q 2741 1038 2741 1694 
Q 2741 2094 2625 2381 
Q 2406 2934 1825 2934 
Q 1241 2934 1025 2350 
Q 909 2038 909 1556 
Q 909 1169 1025 897 
Q 1244 378 1825 378 
z
M 369 3331 
L 916 3331 
L 916 2888 
Q 1084 3116 1284 3241 
Q 1569 3428 1953 3428 
Q 2522 3428 2919 2992 
Q 3316 2556 3316 1747 
Q 3316 653 2744 184 
Q 2381 -113 1900 -113 
Q 1522 -113 1266 53 
Q 1116 147 931 375 
L 931 -1334 
L 369 -1334 
L 369 3331 
z
" transform="scale(0.015625)"/>
        <path id="Helvetica-74" d="M 525 4281 
L 1094 4281 
L 1094 3347 
L 1628 3347 
L 1628 2888 
L 1094 2888 
L 1094 703 
Q 1094 528 1213 469 
Q 1278 434 1431 434 
Q 1472 434 1519 436 
Q 1566 438 1628 444 
L 1628 0 
Q 1531 -28 1426 -40 
Q 1322 -53 1200 -53 
Q 806 -53 665 148 
Q 525 350 525 672 
L 525 2888 
L 72 2888 
L 72 3347 
L 525 3347 
L 525 4281 
z
" transform="scale(0.015625)"/>
       </defs>
       <use xlink:href="#Helvetica-43"/>
       <use xlink:href="#Helvetica-6f" x="72.216797"/>
       <use xlink:href="#Helvetica-66" x="127.832031"/>
       <use xlink:href="#Helvetica-66" x="155.615234"/>
       <use xlink:href="#Helvetica-65" x="183.398438"/>
       <use xlink:href="#Helvetica-65" x="239.013672"/>
       <use xlink:href="#Helvetica-53" x="294.628906"/>
       <use xlink:href="#Helvetica-63" x="361.328125"/>
       <use xlink:href="#Helvetica-72" x="411.328125"/>
       <use xlink:href="#Helvetica-69" x="444.628906"/>
       <use xlink:href="#Helvetica-70" x="466.845703"/>
       <use xlink:href="#Helvetica-74" x="522.460938"/>
      </g>
     </g>
    </g>
    <g id="ytick_3">
     <g id="line2d_11">
      <g>
       <use xlink:href="#m8e343aef83" x="131.170312" y="723.115181" style="stroke: #000000; stroke-width: 0.8"/>
      </g>
     </g>
     <g id="text_11">
      <!-- Groovy -->
      <g transform="translate(91.940625 726.799556)scale(0.1 -0.1)">
       <defs>
        <path id="Helvetica-47" d="M 2472 4709 
Q 3119 4709 3591 4459 
Q 4275 4100 4428 3200 
L 3813 3200 
Q 3700 3703 3347 3933 
Q 2994 4163 2456 4163 
Q 1819 4163 1383 3684 
Q 947 3206 947 2259 
Q 947 1441 1306 927 
Q 1666 413 2478 413 
Q 3100 413 3508 773 
Q 3916 1134 3925 1941 
L 2488 1941 
L 2488 2456 
L 4503 2456 
L 4503 0 
L 4103 0 
L 3953 591 
Q 3638 244 3394 109 
Q 2984 -122 2353 -122 
Q 1538 -122 950 406 
Q 309 1069 309 2225 
Q 309 3378 934 4059 
Q 1528 4709 2472 4709 
z
M 2369 4716 
L 2369 4716 
z
" transform="scale(0.015625)"/>
        <path id="Helvetica-76" d="M 688 3347 
L 1581 622 
L 2516 3347 
L 3131 3347 
L 1869 0 
L 1269 0 
L 34 3347 
L 688 3347 
z
" transform="scale(0.015625)"/>
        <path id="Helvetica-79" d="M 2503 3347 
L 3125 3347 
Q 3006 3025 2597 1878 
Q 2291 1016 2084 472 
Q 1597 -809 1397 -1090 
Q 1197 -1372 709 -1372 
Q 591 -1372 527 -1362 
Q 463 -1353 369 -1328 
L 369 -816 
Q 516 -856 581 -865 
Q 647 -875 697 -875 
Q 853 -875 926 -823 
Q 1000 -772 1050 -697 
Q 1066 -672 1162 -440 
Q 1259 -209 1303 -97 
L 66 3347 
L 703 3347 
L 1600 622 
L 2503 3347 
z
M 1597 3428 
L 1597 3428 
z
" transform="scale(0.015625)"/>
       </defs>
       <use xlink:href="#Helvetica-47"/>
       <use xlink:href="#Helvetica-72" x="77.783203"/>
       <use xlink:href="#Helvetica-6f" x="111.083984"/>
       <use xlink:href="#Helvetica-6f" x="166.699219"/>
       <use xlink:href="#Helvetica-76" x="222.314453"/>
       <use xlink:href="#Helvetica-79" x="272.314453"/>
      </g>
     </g>
    </g>
    <g id="ytick_4">
     <g id="line2d_12">
      <g>
       <use xlink:href="#m8e343aef83" x="131.170312" y="700.602147" style="stroke: #000000; stroke-width: 0.8"/>
      </g>
     </g>
     <g id="text_12">
      <!-- Lua -->
      <g transform="translate(107.4875 704.188865)scale(0.1 -0.1)">
       <defs>
        <path id="Helvetica-4c" d="M 488 4591 
L 1109 4591 
L 1109 547 
L 3434 547 
L 3434 0 
L 488 0 
L 488 4591 
z
" transform="scale(0.015625)"/>
        <path id="Helvetica-61" d="M 844 891 
Q 844 647 1022 506 
Q 1200 366 1444 366 
Q 1741 366 2019 503 
Q 2488 731 2488 1250 
L 2488 1703 
Q 2384 1638 2221 1594 
Q 2059 1550 1903 1531 
L 1563 1488 
Q 1256 1447 1103 1359 
Q 844 1213 844 891 
z
M 2206 2028 
Q 2400 2053 2466 2191 
Q 2503 2266 2503 2406 
Q 2503 2694 2298 2823 
Q 2094 2953 1713 2953 
Q 1272 2953 1088 2716 
Q 984 2584 953 2325 
L 428 2325 
Q 444 2944 830 3186 
Q 1216 3428 1725 3428 
Q 2316 3428 2684 3203 
Q 3050 2978 3050 2503 
L 3050 575 
Q 3050 488 3086 434 
Q 3122 381 3238 381 
Q 3275 381 3322 386 
Q 3369 391 3422 400 
L 3422 -16 
Q 3291 -53 3222 -62 
Q 3153 -72 3034 -72 
Q 2744 -72 2613 134 
Q 2544 244 2516 444 
Q 2344 219 2022 53 
Q 1700 -113 1313 -113 
Q 847 -113 551 170 
Q 256 453 256 878 
Q 256 1344 547 1600 
Q 838 1856 1309 1916 
L 2206 2028 
z
M 1741 3428 
L 1741 3428 
z
" transform="scale(0.015625)"/>
       </defs>
       <use xlink:href="#Helvetica-4c"/>
       <use xlink:href="#Helvetica-75" x="55.615234"/>
       <use xlink:href="#Helvetica-61" x="111.230469"/>
      </g>
     </g>
    </g>
    <g id="ytick_5">
     <g id="line2d_13">
      <g>
       <use xlink:href="#m8e343aef83" x="131.170312" y="678.089112" style="stroke: #000000; stroke-width: 0.8"/>
      </g>
     </g>
     <g id="text_13">
      <!-- VB.NET -->
      <g transform="translate(88.051562 681.675831)scale(0.1 -0.1)">
       <defs>
        <path id="Helvetica-56" d="M 850 4591 
L 2169 681 
L 3472 4591 
L 4169 4591 
L 2494 0 
L 1834 0 
L 163 4591 
L 850 4591 
z
" transform="scale(0.015625)"/>
        <path id="Helvetica-42" d="M 2213 2650 
Q 2606 2650 2825 2759 
Q 3169 2931 3169 3378 
Q 3169 3828 2803 3984 
Q 2597 4072 2191 4072 
L 1081 4072 
L 1081 2650 
L 2213 2650 
z
M 2422 531 
Q 2994 531 3238 863 
Q 3391 1072 3391 1369 
Q 3391 1869 2944 2050 
Q 2706 2147 2316 2147 
L 1081 2147 
L 1081 531 
L 2422 531 
z
M 472 4591 
L 2444 4591 
Q 3250 4591 3591 4109 
Q 3791 3825 3791 3453 
Q 3791 3019 3544 2741 
Q 3416 2594 3175 2472 
Q 3528 2338 3703 2169 
Q 4013 1869 4013 1341 
Q 4013 897 3734 538 
Q 3319 0 2413 0 
L 472 0 
L 472 4591 
z
" transform="scale(0.015625)"/>
        <path id="Helvetica-2e" d="M 547 681 
L 1200 681 
L 1200 0 
L 547 0 
L 547 681 
z
" transform="scale(0.015625)"/>
        <path id="Helvetica-4e" d="M 488 4591 
L 1222 4591 
L 3541 872 
L 3541 4591 
L 4131 4591 
L 4131 0 
L 3434 0 
L 1081 3716 
L 1081 0 
L 488 0 
L 488 4591 
z
M 2269 4591 
L 2269 4591 
z
" transform="scale(0.015625)"/>
        <path id="Helvetica-45" d="M 547 4591 
L 3894 4591 
L 3894 4028 
L 1153 4028 
L 1153 2634 
L 3688 2634 
L 3688 2103 
L 1153 2103 
L 1153 547 
L 3941 547 
L 3941 0 
L 547 0 
L 547 4591 
z
M 2244 4591 
L 2244 4591 
z
" transform="scale(0.015625)"/>
        <path id="Helvetica-54" d="M 3828 4591 
L 3828 4044 
L 2281 4044 
L 2281 0 
L 1650 0 
L 1650 4044 
L 103 4044 
L 103 4591 
L 3828 4591 
z
" transform="scale(0.015625)"/>
       </defs>
       <use xlink:href="#Helvetica-56"/>
       <use xlink:href="#Helvetica-42" x="66.699219"/>
       <use xlink:href="#Helvetica-2e" x="133.398438"/>
       <use xlink:href="#Helvetica-4e" x="161.181641"/>
       <use xlink:href="#Helvetica-45" x="233.398438"/>
       <use xlink:href="#Helvetica-54" x="300.097656"/>
      </g>
     </g>
    </g>
    <g id="ytick_6">
     <g id="line2d_14">
      <g>
       <use xlink:href="#m8e343aef83" x="131.170312" y="655.576078" style="stroke: #000000; stroke-width: 0.8"/>
      </g>
     </g>
     <g id="text_14">
      <!-- Visual Basic -->
      <g transform="translate(69.703125 659.162797)scale(0.1 -0.1)">
       <defs>
        <path id="Helvetica-73" d="M 747 1050 
Q 772 769 888 619 
Q 1100 347 1625 347 
Q 1938 347 2175 483 
Q 2413 619 2413 903 
Q 2413 1119 2222 1231 
Q 2100 1300 1741 1391 
L 1294 1503 
Q 866 1609 663 1741 
Q 300 1969 300 2372 
Q 300 2847 642 3140 
Q 984 3434 1563 3434 
Q 2319 3434 2653 2991 
Q 2863 2709 2856 2384 
L 2325 2384 
Q 2309 2575 2191 2731 
Q 1997 2953 1519 2953 
Q 1200 2953 1036 2831 
Q 872 2709 872 2509 
Q 872 2291 1088 2159 
Q 1213 2081 1456 2022 
L 1828 1931 
Q 2434 1784 2641 1647 
Q 2969 1431 2969 969 
Q 2969 522 2630 197 
Q 2291 -128 1597 -128 
Q 850 -128 539 211 
Q 228 550 206 1050 
L 747 1050 
z
M 1578 3428 
L 1578 3428 
z
" transform="scale(0.015625)"/>
        <path id="Helvetica-20" transform="scale(0.015625)"/>
       </defs>
       <use xlink:href="#Helvetica-56"/>
       <use xlink:href="#Helvetica-69" x="66.699219"/>
       <use xlink:href="#Helvetica-73" x="88.916016"/>
       <use xlink:href="#Helvetica-75" x="138.916016"/>
       <use xlink:href="#Helvetica-61" x="194.53125"/>
       <use xlink:href="#Helvetica-6c" x="250.146484"/>
       <use xlink:href="#Helvetica-20" x="272.363281"/>
       <use xlink:href="#Helvetica-42" x="300.146484"/>
       <use xlink:href="#Helvetica-61" x="366.845703"/>
       <use xlink:href="#Helvetica-73" x="422.460938"/>
       <use xlink:href="#Helvetica-69" x="472.460938"/>
       <use xlink:href="#Helvetica-63" x="494.677734"/>
      </g>
     </g>
    </g>
    <g id="ytick_7">
     <g id="line2d_15">
      <g>
       <use xlink:href="#m8e343aef83" x="131.170312" y="633.063044" style="stroke: #000000; stroke-width: 0.8"/>
      </g>
     </g>
     <g id="text_15">
      <!-- Haskell -->
      <g transform="translate(91.382812 636.649763)scale(0.1 -0.1)">
       <defs>
        <path id="Helvetica-48" d="M 503 4591 
L 1131 4591 
L 1131 2694 
L 3519 2694 
L 3519 4591 
L 4147 4591 
L 4147 0 
L 3519 0 
L 3519 2147 
L 1131 2147 
L 1131 0 
L 503 0 
L 503 4591 
z
" transform="scale(0.015625)"/>
        <path id="Helvetica-6b" d="M 400 4591 
L 941 4591 
L 941 1925 
L 2384 3347 
L 3103 3347 
L 1822 2094 
L 3175 0 
L 2456 0 
L 1413 1688 
L 941 1256 
L 941 0 
L 400 0 
L 400 4591 
z
" transform="scale(0.015625)"/>
       </defs>
       <use xlink:href="#Helvetica-48"/>
       <use xlink:href="#Helvetica-61" x="72.216797"/>
       <use xlink:href="#Helvetica-73" x="127.832031"/>
       <use xlink:href="#Helvetica-6b" x="177.832031"/>
       <use xlink:href="#Helvetica-65" x="227.832031"/>
       <use xlink:href="#Helvetica-6c" x="283.447266"/>
       <use xlink:href="#Helvetica-6c" x="305.664062"/>
      </g>
     </g>
    </g>
    <g id="ytick_8">
     <g id="line2d_16">
      <g>
       <use xlink:href="#m8e343aef83" x="131.170312" y="610.55001" style="stroke: #000000; stroke-width: 0.8"/>
      </g>
     </g>
     <g id="text_16">
      <!-- Common Lisp -->
      <g transform="translate(62.484375 614.234385)scale(0.1 -0.1)">
       <defs>
        <path id="Helvetica-6d" d="M 413 3347 
L 969 3347 
L 969 2872 
Q 1169 3119 1331 3231 
Q 1609 3422 1963 3422 
Q 2363 3422 2606 3225 
Q 2744 3113 2856 2894 
Q 3044 3163 3297 3292 
Q 3550 3422 3866 3422 
Q 4541 3422 4784 2934 
Q 4916 2672 4916 2228 
L 4916 0 
L 4331 0 
L 4331 2325 
Q 4331 2659 4164 2784 
Q 3997 2909 3756 2909 
Q 3425 2909 3186 2687 
Q 2947 2466 2947 1947 
L 2947 0 
L 2375 0 
L 2375 2184 
Q 2375 2525 2294 2681 
Q 2166 2916 1816 2916 
Q 1497 2916 1236 2669 
Q 975 2422 975 1775 
L 975 0 
L 413 0 
L 413 3347 
z
" transform="scale(0.015625)"/>
        <path id="Helvetica-6e" d="M 413 3347 
L 947 3347 
L 947 2872 
Q 1184 3166 1450 3294 
Q 1716 3422 2041 3422 
Q 2753 3422 3003 2925 
Q 3141 2653 3141 2147 
L 3141 0 
L 2569 0 
L 2569 2109 
Q 2569 2416 2478 2603 
Q 2328 2916 1934 2916 
Q 1734 2916 1606 2875 
Q 1375 2806 1200 2600 
Q 1059 2434 1017 2257 
Q 975 2081 975 1753 
L 975 0 
L 413 0 
L 413 3347 
z
M 1734 3428 
L 1734 3428 
z
" transform="scale(0.015625)"/>
       </defs>
       <use xlink:href="#Helvetica-43"/>
       <use xlink:href="#Helvetica-6f" x="72.216797"/>
       <use xlink:href="#Helvetica-6d" x="127.832031"/>
       <use xlink:href="#Helvetica-6d" x="211.132812"/>
       <use xlink:href="#Helvetica-6f" x="294.433594"/>
       <use xlink:href="#Helvetica-6e" x="350.048828"/>
       <use xlink:href="#Helvetica-20" x="405.664062"/>
       <use xlink:href="#Helvetica-4c" x="433.447266"/>
       <use xlink:href="#Helvetica-69" x="489.0625"/>
       <use xlink:href="#Helvetica-73" x="511.279297"/>
       <use xlink:href="#Helvetica-70" x="561.279297"/>
      </g>
     </g>
    </g>
    <g id="ytick_9">
     <g id="line2d_17">
      <g>
       <use xlink:href="#m8e343aef83" x="131.170312" y="588.036976" style="stroke: #000000; stroke-width: 0.8"/>
      </g>
     </g>
     <g id="text_17">
      <!-- F# -->
      <g transform="translate(112.501562 591.623694)scale(0.1 -0.1)">
       <defs>
        <path id="Helvetica-46" d="M 547 4591 
L 3731 4591 
L 3731 4028 
L 1169 4028 
L 1169 2634 
L 3422 2634 
L 3422 2088 
L 1169 2088 
L 1169 0 
L 547 0 
L 547 4591 
z
" transform="scale(0.015625)"/>
        <path id="Helvetica-23" d="M 94 1753 
L 822 1753 
L 1116 2828 
L 391 2828 
L 488 3191 
L 1213 3191 
L 1584 4591 
L 2050 4591 
L 1672 3191 
L 2363 3191 
L 2747 4591 
L 3206 4591 
L 2828 3191 
L 3553 3191 
L 3456 2828 
L 2731 2828 
L 2434 1753 
L 3163 1753 
L 3066 1391 
L 2347 1391 
L 1963 0 
L 1503 0 
L 1881 1391 
L 1184 1391 
L 813 0 
L 347 0 
L 725 1391 
L 0 1391 
L 94 1753 
z
M 1969 1753 
L 2266 2828 
L 1575 2828 
L 1288 1753 
L 1969 1753 
z
" transform="scale(0.015625)"/>
       </defs>
       <use xlink:href="#Helvetica-46"/>
       <use xlink:href="#Helvetica-23" x="61.083984"/>
      </g>
     </g>
    </g>
    <g id="ytick_10">
     <g id="line2d_18">
      <g>
       <use xlink:href="#m8e343aef83" x="131.170312" y="565.523941" style="stroke: #000000; stroke-width: 0.8"/>
      </g>
     </g>
     <g id="text_18">
      <!-- Go -->
      <g transform="translate(110.83125 569.11066)scale(0.1 -0.1)">
       <use xlink:href="#Helvetica-47"/>
       <use xlink:href="#Helvetica-6f" x="77.783203"/>
      </g>
     </g>
    </g>
    <g id="ytick_11">
     <g id="line2d_19">
      <g>
       <use xlink:href="#m8e343aef83" x="131.170312" y="543.010907" style="stroke: #000000; stroke-width: 0.8"/>
      </g>
     </g>
     <g id="text_19">
      <!-- VBA -->
      <g transform="translate(104.159375 546.597626)scale(0.1 -0.1)">
       <defs>
        <path id="Helvetica-41" d="M 2844 1881 
L 2147 3909 
L 1406 1881 
L 2844 1881 
z
M 1822 4591 
L 2525 4591 
L 4191 0 
L 3509 0 
L 3044 1375 
L 1228 1375 
L 731 0 
L 94 0 
L 1822 4591 
z
M 2144 4591 
L 2144 4591 
z
" transform="scale(0.015625)"/>
       </defs>
       <use xlink:href="#Helvetica-56"/>
       <use xlink:href="#Helvetica-42" x="66.699219"/>
       <use xlink:href="#Helvetica-41" x="133.398438"/>
      </g>
     </g>
    </g>
    <g id="ytick_12">
     <g id="line2d_20">
      <g>
       <use xlink:href="#m8e343aef83" x="131.170312" y="520.497873" style="stroke: #000000; stroke-width: 0.8"/>
      </g>
     </g>
     <g id="text_20">
      <!-- Assembly -->
      <g transform="translate(80.826562 524.09631)scale(0.1 -0.1)">
       <defs>
        <path id="Helvetica-62" d="M 369 4606 
L 916 4606 
L 916 2941 
Q 1100 3181 1356 3307 
Q 1613 3434 1913 3434 
Q 2538 3434 2927 3004 
Q 3316 2575 3316 1738 
Q 3316 944 2931 419 
Q 2547 -106 1866 -106 
Q 1484 -106 1222 78 
Q 1066 188 888 428 
L 888 0 
L 369 0 
L 369 4606 
z
M 1831 391 
Q 2288 391 2514 753 
Q 2741 1116 2741 1709 
Q 2741 2238 2514 2584 
Q 2288 2931 1847 2931 
Q 1463 2931 1173 2647 
Q 884 2363 884 1709 
Q 884 1238 1003 944 
Q 1225 391 1831 391 
z
" transform="scale(0.015625)"/>
       </defs>
       <use xlink:href="#Helvetica-41"/>
       <use xlink:href="#Helvetica-73" x="66.699219"/>
       <use xlink:href="#Helvetica-73" x="116.699219"/>
       <use xlink:href="#Helvetica-65" x="166.699219"/>
       <use xlink:href="#Helvetica-6d" x="222.314453"/>
       <use xlink:href="#Helvetica-62" x="305.615234"/>
       <use xlink:href="#Helvetica-6c" x="361.230469"/>
       <use xlink:href="#Helvetica-79" x="383.447266"/>
      </g>
     </g>
    </g>
    <g id="ytick_13">
     <g id="line2d_21">
      <g>
       <use xlink:href="#m8e343aef83" x="131.170312" y="497.984839" style="stroke: #000000; stroke-width: 0.8"/>
      </g>
     </g>
     <g id="text_21">
      <!-- Swift -->
      <g transform="translate(102.5 501.571557)scale(0.1 -0.1)">
       <defs>
        <path id="Helvetica-77" d="M 672 3347 
L 1316 709 
L 1969 3347 
L 2600 3347 
L 3256 725 
L 3941 3347 
L 4503 3347 
L 3531 0 
L 2947 0 
L 2266 2591 
L 1606 0 
L 1022 0 
L 56 3347 
L 672 3347 
z
" transform="scale(0.015625)"/>
       </defs>
       <use xlink:href="#Helvetica-53"/>
       <use xlink:href="#Helvetica-77" x="66.699219"/>
       <use xlink:href="#Helvetica-69" x="138.916016"/>
       <use xlink:href="#Helvetica-66" x="161.132812"/>
       <use xlink:href="#Helvetica-74" x="188.916016"/>
      </g>
     </g>
    </g>
    <g id="ytick_14">
     <g id="line2d_22">
      <g>
       <use xlink:href="#m8e343aef83" x="131.170312" y="475.471804" style="stroke: #000000; stroke-width: 0.8"/>
      </g>
     </g>
     <g id="text_22">
      <!-- Objective-C -->
      <g transform="translate(71.935937 479.156179)scale(0.1 -0.1)">
       <defs>
        <path id="Helvetica-4f" d="M 2469 4716 
Q 3684 4716 4269 3934 
Q 4725 3325 4725 2375 
Q 4725 1347 4203 666 
Q 3591 -134 2456 -134 
Q 1397 -134 791 566 
Q 250 1241 250 2272 
Q 250 3203 713 3866 
Q 1306 4716 2469 4716 
z
M 2531 422 
Q 3353 422 3720 1011 
Q 4088 1600 4088 2366 
Q 4088 3175 3664 3669 
Q 3241 4163 2506 4163 
Q 1794 4163 1344 3673 
Q 894 3184 894 2231 
Q 894 1469 1280 945 
Q 1666 422 2531 422 
z
M 2488 4716 
L 2488 4716 
z
" transform="scale(0.015625)"/>
        <path id="Helvetica-2d" d="M 266 2072 
L 1834 2072 
L 1834 1494 
L 266 1494 
L 266 2072 
z
" transform="scale(0.015625)"/>
       </defs>
       <use xlink:href="#Helvetica-4f"/>
       <use xlink:href="#Helvetica-62" x="77.783203"/>
       <use xlink:href="#Helvetica-6a" x="133.398438"/>
       <use xlink:href="#Helvetica-65" x="155.615234"/>
       <use xlink:href="#Helvetica-63" x="211.230469"/>
       <use xlink:href="#Helvetica-74" x="261.230469"/>
       <use xlink:href="#Helvetica-69" x="289.013672"/>
       <use xlink:href="#Helvetica-76" x="311.230469"/>
       <use xlink:href="#Helvetica-65" x="361.230469"/>
       <use xlink:href="#Helvetica-2d" x="416.845703"/>
       <use xlink:href="#Helvetica-43" x="450.146484"/>
      </g>
     </g>
    </g>
    <g id="ytick_15">
     <g id="line2d_23">
      <g>
       <use xlink:href="#m8e343aef83" x="131.170312" y="452.95877" style="stroke: #000000; stroke-width: 0.8"/>
      </g>
     </g>
     <g id="text_23">
      <!-- Scala -->
      <g transform="translate(99.15625 456.545489)scale(0.1 -0.1)">
       <use xlink:href="#Helvetica-53"/>
       <use xlink:href="#Helvetica-63" x="66.699219"/>
       <use xlink:href="#Helvetica-61" x="116.699219"/>
       <use xlink:href="#Helvetica-6c" x="172.314453"/>
       <use xlink:href="#Helvetica-61" x="194.53125"/>
      </g>
     </g>
    </g>
    <g id="ytick_16">
     <g id="line2d_24">
      <g>
       <use xlink:href="#m8e343aef83" x="131.170312" y="430.445736" style="stroke: #000000; stroke-width: 0.8"/>
      </g>
     </g>
     <g id="text_24">
      <!-- Rust -->
      <g transform="translate(103.609375 434.032455)scale(0.1 -0.1)">
       <defs>
        <path id="Helvetica-52" d="M 2622 2488 
Q 3059 2488 3314 2663 
Q 3569 2838 3569 3294 
Q 3569 3784 3213 3963 
Q 3022 4056 2703 4056 
L 1184 4056 
L 1184 2488 
L 2622 2488 
z
M 563 4591 
L 2688 4591 
Q 3213 4591 3553 4438 
Q 4200 4144 4200 3353 
Q 4200 2941 4029 2678 
Q 3859 2416 3553 2256 
Q 3822 2147 3958 1969 
Q 4094 1791 4109 1391 
L 4131 775 
Q 4141 513 4175 384 
Q 4231 166 4375 103 
L 4375 0 
L 3613 0 
Q 3581 59 3562 153 
Q 3544 247 3531 516 
L 3494 1281 
Q 3472 1731 3159 1884 
Q 2981 1969 2600 1969 
L 1184 1969 
L 1184 0 
L 563 0 
L 563 4591 
z
" transform="scale(0.015625)"/>
       </defs>
       <use xlink:href="#Helvetica-52"/>
       <use xlink:href="#Helvetica-75" x="72.216797"/>
       <use xlink:href="#Helvetica-73" x="127.832031"/>
       <use xlink:href="#Helvetica-74" x="177.832031"/>
      </g>
     </g>
    </g>
    <g id="ytick_17">
     <g id="line2d_25">
      <g>
       <use xlink:href="#m8e343aef83" x="131.170312" y="407.932702" style="stroke: #000000; stroke-width: 0.8"/>
      </g>
     </g>
     <g id="text_25">
      <!-- Perl -->
      <g transform="translate(106.3875 411.51942)scale(0.1 -0.1)">
       <defs>
        <path id="Helvetica-50" d="M 547 4591 
L 2613 4591 
Q 3225 4591 3600 4245 
Q 3975 3900 3975 3275 
Q 3975 2738 3640 2339 
Q 3306 1941 2613 1941 
L 1169 1941 
L 1169 0 
L 547 0 
L 547 4591 
z
M 3347 3272 
Q 3347 3778 2972 3959 
Q 2766 4056 2406 4056 
L 1169 4056 
L 1169 2466 
L 2406 2466 
Q 2825 2466 3086 2644 
Q 3347 2822 3347 3272 
z
" transform="scale(0.015625)"/>
       </defs>
       <use xlink:href="#Helvetica-50"/>
       <use xlink:href="#Helvetica-65" x="66.699219"/>
       <use xlink:href="#Helvetica-72" x="122.314453"/>
       <use xlink:href="#Helvetica-6c" x="155.615234"/>
      </g>
     </g>
    </g>
    <g id="ytick_18">
     <g id="line2d_26">
      <g>
       <use xlink:href="#m8e343aef83" x="131.170312" y="385.419667" style="stroke: #000000; stroke-width: 0.8"/>
      </g>
     </g>
     <g id="text_26">
      <!-- Julia -->
      <g transform="translate(103.604687 389.006386)scale(0.1 -0.1)">
       <defs>
        <path id="Helvetica-4a" d="M 2741 1369 
Q 2741 788 2569 466 
Q 2250 -122 1356 -122 
Q 841 -122 475 158 
Q 109 438 109 1153 
L 109 1481 
L 694 1481 
L 694 1153 
Q 694 778 861 589 
Q 1028 400 1381 400 
Q 1878 400 2031 741 
Q 2125 950 2125 1531 
L 2125 4591 
L 2741 4591 
L 2741 1369 
z
" transform="scale(0.015625)"/>
       </defs>
       <use xlink:href="#Helvetica-4a"/>
       <use xlink:href="#Helvetica-75" x="50"/>
       <use xlink:href="#Helvetica-6c" x="105.615234"/>
       <use xlink:href="#Helvetica-69" x="127.832031"/>
       <use xlink:href="#Helvetica-61" x="150.048828"/>
      </g>
     </g>
    </g>
    <g id="ytick_19">
     <g id="line2d_27">
      <g>
       <use xlink:href="#m8e343aef83" x="131.170312" y="362.906633" style="stroke: #000000; stroke-width: 0.8"/>
      </g>
     </g>
     <g id="text_27">
      <!-- PHP -->
      <g transform="translate(103.607812 366.493352)scale(0.1 -0.1)">
       <use xlink:href="#Helvetica-50"/>
       <use xlink:href="#Helvetica-48" x="66.699219"/>
       <use xlink:href="#Helvetica-50" x="138.916016"/>
      </g>
     </g>
    </g>
    <g id="ytick_20">
     <g id="line2d_28">
      <g>
       <use xlink:href="#m8e343aef83" x="131.170312" y="340.393599" style="stroke: #000000; stroke-width: 0.8"/>
      </g>
     </g>
     <g id="text_28">
      <!-- C# -->
      <g transform="translate(111.3875 343.980318)scale(0.1 -0.1)">
       <use xlink:href="#Helvetica-43"/>
       <use xlink:href="#Helvetica-23" x="72.216797"/>
      </g>
     </g>
    </g>
    <g id="ytick_21">
     <g id="line2d_29">
      <g>
       <use xlink:href="#m8e343aef83" x="131.170312" y="317.880565" style="stroke: #000000; stroke-width: 0.8"/>
      </g>
     </g>
     <g id="text_29">
      <!-- Ruby -->
      <g transform="translate(100.826562 321.479002)scale(0.1 -0.1)">
       <use xlink:href="#Helvetica-52"/>
       <use xlink:href="#Helvetica-75" x="72.216797"/>
       <use xlink:href="#Helvetica-62" x="127.832031"/>
       <use xlink:href="#Helvetica-79" x="183.447266"/>
      </g>
     </g>
    </g>
    <g id="ytick_22">
     <g id="line2d_30">
      <g>
       <use xlink:href="#m8e343aef83" x="131.170312" y="295.36753" style="stroke: #000000; stroke-width: 0.8"/>
      </g>
     </g>
     <g id="text_30">
      <!-- other. What programming -->
      <g transform="translate(10.8 283.490655)scale(0.1 -0.1)">
       <defs>
        <path id="Helvetica-68" d="M 413 4606 
L 975 4606 
L 975 2894 
Q 1175 3147 1334 3250 
Q 1606 3428 2013 3428 
Q 2741 3428 3000 2919 
Q 3141 2641 3141 2147 
L 3141 0 
L 2563 0 
L 2563 2109 
Q 2563 2478 2469 2650 
Q 2316 2925 1894 2925 
Q 1544 2925 1259 2684 
Q 975 2444 975 1775 
L 975 0 
L 413 0 
L 413 4606 
z
" transform="scale(0.015625)"/>
        <path id="Helvetica-57" d="M 791 4591 
L 1656 856 
L 2694 4591 
L 3369 4591 
L 4406 856 
L 5272 4591 
L 5953 4591 
L 4747 0 
L 4094 0 
L 3034 3806 
L 1969 0 
L 1316 0 
L 116 4591 
L 791 4591 
z
" transform="scale(0.015625)"/>
        <path id="Helvetica-67" d="M 1594 3406 
Q 1988 3406 2281 3213 
Q 2441 3103 2606 2894 
L 2606 3316 
L 3125 3316 
L 3125 272 
Q 3125 -366 2938 -734 
Q 2588 -1416 1616 -1416 
Q 1075 -1416 706 -1173 
Q 338 -931 294 -416 
L 866 -416 
Q 906 -641 1028 -763 
Q 1219 -950 1628 -950 
Q 2275 -950 2475 -494 
Q 2594 -225 2584 466 
Q 2416 209 2178 84 
Q 1941 -41 1550 -41 
Q 1006 -41 598 345 
Q 191 731 191 1622 
Q 191 2463 602 2934 
Q 1013 3406 1594 3406 
z
M 2606 1688 
Q 2606 2309 2350 2609 
Q 2094 2909 1697 2909 
Q 1103 2909 884 2353 
Q 769 2056 769 1575 
Q 769 1009 998 714 
Q 1228 419 1616 419 
Q 2222 419 2469 966 
Q 2606 1275 2606 1688 
z
M 1659 3428 
L 1659 3428 
z
" transform="scale(0.015625)"/>
       </defs>
       <use xlink:href="#Helvetica-6f"/>
       <use xlink:href="#Helvetica-74" x="55.615234"/>
       <use xlink:href="#Helvetica-68" x="83.398438"/>
       <use xlink:href="#Helvetica-65" x="139.013672"/>
       <use xlink:href="#Helvetica-72" x="194.628906"/>
       <use xlink:href="#Helvetica-2e" x="227.929688"/>
       <use xlink:href="#Helvetica-20" x="255.712891"/>
       <use xlink:href="#Helvetica-57" x="283.496094"/>
       <use xlink:href="#Helvetica-68" x="377.880859"/>
       <use xlink:href="#Helvetica-61" x="433.496094"/>
       <use xlink:href="#Helvetica-74" x="489.111328"/>
       <use xlink:href="#Helvetica-20" x="516.894531"/>
       <use xlink:href="#Helvetica-70" x="544.677734"/>
       <use xlink:href="#Helvetica-72" x="600.292969"/>
       <use xlink:href="#Helvetica-6f" x="633.59375"/>
       <use xlink:href="#Helvetica-67" x="689.208984"/>
       <use xlink:href="#Helvetica-72" x="744.824219"/>
       <use xlink:href="#Helvetica-61" x="778.125"/>
       <use xlink:href="#Helvetica-6d" x="833.740234"/>
       <use xlink:href="#Helvetica-6d" x="917.041016"/>
       <use xlink:href="#Helvetica-69" x="1000.341797"/>
       <use xlink:href="#Helvetica-6e" x="1022.558594"/>
       <use xlink:href="#Helvetica-67" x="1078.173828"/>
      </g>
      <!-- languages do you use -->
      <g transform="translate(26.321875 294.339405)scale(0.1 -0.1)">
       <defs>
        <path id="Helvetica-64" d="M 769 1634 
Q 769 1097 997 734 
Q 1225 372 1728 372 
Q 2119 372 2370 708 
Q 2622 1044 2622 1672 
Q 2622 2306 2362 2611 
Q 2103 2916 1722 2916 
Q 1297 2916 1033 2591 
Q 769 2266 769 1634 
z
M 1616 3406 
Q 2000 3406 2259 3244 
Q 2409 3150 2600 2916 
L 2600 4606 
L 3141 4606 
L 3141 0 
L 2634 0 
L 2634 466 
Q 2438 156 2169 18 
Q 1900 -119 1553 -119 
Q 994 -119 584 351 
Q 175 822 175 1603 
Q 175 2334 548 2870 
Q 922 3406 1616 3406 
z
" transform="scale(0.015625)"/>
       </defs>
       <use xlink:href="#Helvetica-6c"/>
       <use xlink:href="#Helvetica-61" x="22.216797"/>
       <use xlink:href="#Helvetica-6e" x="77.832031"/>
       <use xlink:href="#Helvetica-67" x="133.447266"/>
       <use xlink:href="#Helvetica-75" x="189.0625"/>
       <use xlink:href="#Helvetica-61" x="244.677734"/>
       <use xlink:href="#Helvetica-67" x="300.292969"/>
       <use xlink:href="#Helvetica-65" x="355.908203"/>
       <use xlink:href="#Helvetica-73" x="411.523438"/>
       <use xlink:href="#Helvetica-20" x="461.523438"/>
       <use xlink:href="#Helvetica-64" x="489.306641"/>
       <use xlink:href="#Helvetica-6f" x="544.921875"/>
       <use xlink:href="#Helvetica-20" x="600.537109"/>
       <use xlink:href="#Helvetica-79" x="628.320312"/>
       <use xlink:href="#Helvetica-6f" x="678.320312"/>
       <use xlink:href="#Helvetica-75" x="733.935547"/>
       <use xlink:href="#Helvetica-20" x="789.550781"/>
       <use xlink:href="#Helvetica-75" x="817.333984"/>
       <use xlink:href="#Helvetica-73" x="872.949219"/>
       <use xlink:href="#Helvetica-65" x="922.949219"/>
      </g>
      <!-- at work? Please select -->
      <g transform="translate(24.126562 305.16003)scale(0.1 -0.1)">
       <defs>
        <path id="Helvetica-3f" d="M 1541 650 
L 2163 650 
L 2163 0 
L 1541 0 
L 1541 650 
z
M 488 3153 
Q 488 3828 869 4239 
Q 1250 4650 1916 4650 
Q 2531 4650 2901 4298 
Q 3272 3947 3272 3400 
Q 3272 3069 3136 2862 
Q 3000 2656 2588 2256 
Q 2288 1966 2198 1764 
Q 2109 1563 2109 1169 
L 1553 1169 
Q 1553 1616 1659 1889 
Q 1766 2163 2125 2516 
L 2375 2763 
Q 2488 2869 2556 2984 
Q 2681 3188 2681 3406 
Q 2681 3713 2498 3938 
Q 2316 4163 1894 4163 
Q 1372 4163 1172 3775 
Q 1059 3559 1044 3153 
L 488 3153 
z
" transform="scale(0.015625)"/>
       </defs>
       <use xlink:href="#Helvetica-61"/>
       <use xlink:href="#Helvetica-74" x="55.615234"/>
       <use xlink:href="#Helvetica-20" x="83.398438"/>
       <use xlink:href="#Helvetica-77" x="111.181641"/>
       <use xlink:href="#Helvetica-6f" x="183.398438"/>
       <use xlink:href="#Helvetica-72" x="239.013672"/>
       <use xlink:href="#Helvetica-6b" x="272.314453"/>
       <use xlink:href="#Helvetica-3f" x="322.314453"/>
       <use xlink:href="#Helvetica-20" x="377.929688"/>
       <use xlink:href="#Helvetica-50" x="405.712891"/>
       <use xlink:href="#Helvetica-6c" x="472.412109"/>
       <use xlink:href="#Helvetica-65" x="494.628906"/>
       <use xlink:href="#Helvetica-61" x="550.244141"/>
       <use xlink:href="#Helvetica-73" x="605.859375"/>
       <use xlink:href="#Helvetica-65" x="655.859375"/>
       <use xlink:href="#Helvetica-20" x="711.474609"/>
       <use xlink:href="#Helvetica-73" x="739.257812"/>
       <use xlink:href="#Helvetica-65" x="789.257812"/>
       <use xlink:href="#Helvetica-6c" x="844.873047"/>
       <use xlink:href="#Helvetica-65" x="867.089844"/>
       <use xlink:href="#Helvetica-63" x="922.705078"/>
       <use xlink:href="#Helvetica-74" x="972.705078"/>
      </g>
      <!-- all that apply.  -->
      <g transform="translate(62.470312 315.880655)scale(0.1 -0.1)">
       <use xlink:href="#Helvetica-61"/>
       <use xlink:href="#Helvetica-6c" x="55.615234"/>
       <use xlink:href="#Helvetica-6c" x="77.832031"/>
       <use xlink:href="#Helvetica-20" x="100.048828"/>
       <use xlink:href="#Helvetica-74" x="127.832031"/>
       <use xlink:href="#Helvetica-68" x="155.615234"/>
       <use xlink:href="#Helvetica-61" x="211.230469"/>
       <use xlink:href="#Helvetica-74" x="266.845703"/>
       <use xlink:href="#Helvetica-20" x="294.628906"/>
       <use xlink:href="#Helvetica-61" x="322.412109"/>
       <use xlink:href="#Helvetica-70" x="378.027344"/>
       <use xlink:href="#Helvetica-70" x="433.642578"/>
       <use xlink:href="#Helvetica-6c" x="489.257812"/>
       <use xlink:href="#Helvetica-79" x="511.474609"/>
       <use xlink:href="#Helvetica-2e" x="561.474609"/>
       <use xlink:href="#Helvetica-20" x="589.257812"/>
      </g>
     </g>
    </g>
    <g id="ytick_23">
     <g id="line2d_31">
      <g>
       <use xlink:href="#m8e343aef83" x="131.170312" y="272.854496" style="stroke: #000000; stroke-width: 0.8"/>
      </g>
     </g>
     <g id="text_31">
      <!-- TypeScript -->
      <g transform="translate(76.379687 276.538871)scale(0.1 -0.1)">
       <use xlink:href="#Helvetica-54"/>
       <use xlink:href="#Helvetica-79" x="61.083984"/>
       <use xlink:href="#Helvetica-70" x="111.083984"/>
       <use xlink:href="#Helvetica-65" x="166.699219"/>
       <use xlink:href="#Helvetica-53" x="222.314453"/>
       <use xlink:href="#Helvetica-63" x="289.013672"/>
       <use xlink:href="#Helvetica-72" x="339.013672"/>
       <use xlink:href="#Helvetica-69" x="372.314453"/>
       <use xlink:href="#Helvetica-70" x="394.53125"/>
       <use xlink:href="#Helvetica-74" x="450.146484"/>
      </g>
     </g>
    </g>
    <g id="ytick_24">
     <g id="line2d_32">
      <g>
       <use xlink:href="#m8e343aef83" x="131.170312" y="250.341462" style="stroke: #000000; stroke-width: 0.8"/>
      </g>
     </g>
     <g id="text_32">
      <!-- Java -->
      <g transform="translate(103.048437 253.928181)scale(0.1 -0.1)">
       <use xlink:href="#Helvetica-4a"/>
       <use xlink:href="#Helvetica-61" x="50"/>
       <use xlink:href="#Helvetica-76" x="105.615234"/>
       <use xlink:href="#Helvetica-61" x="155.615234"/>
      </g>
     </g>
    </g>
    <g id="ytick_25">
     <g id="line2d_33">
      <g>
       <use xlink:href="#m8e343aef83" x="131.170312" y="227.828428" style="stroke: #000000; stroke-width: 0.8"/>
      </g>
     </g>
     <g id="text_33">
      <!-- Matlab -->
      <g transform="translate(94.157812 231.415147)scale(0.1 -0.1)">
       <defs>
        <path id="Helvetica-4d" d="M 472 4591 
L 1363 4591 
L 2681 709 
L 3991 4591 
L 4872 4591 
L 4872 0 
L 4281 0 
L 4281 2709 
Q 4281 2850 4287 3175 
Q 4294 3500 4294 3872 
L 2984 0 
L 2369 0 
L 1050 3872 
L 1050 3731 
Q 1050 3563 1058 3217 
Q 1066 2872 1066 2709 
L 1066 0 
L 472 0 
L 472 4591 
z
" transform="scale(0.015625)"/>
       </defs>
       <use xlink:href="#Helvetica-4d"/>
       <use xlink:href="#Helvetica-61" x="83.300781"/>
       <use xlink:href="#Helvetica-74" x="138.916016"/>
       <use xlink:href="#Helvetica-6c" x="166.699219"/>
       <use xlink:href="#Helvetica-61" x="188.916016"/>
       <use xlink:href="#Helvetica-62" x="244.53125"/>
      </g>
     </g>
    </g>
    <g id="ytick_26">
     <g id="line2d_34">
      <g>
       <use xlink:href="#m8e343aef83" x="131.170312" y="205.315394" style="stroke: #000000; stroke-width: 0.8"/>
      </g>
     </g>
     <g id="text_34">
      <!-- Fortran -->
      <g transform="translate(91.942187 208.902112)scale(0.1 -0.1)">
       <use xlink:href="#Helvetica-46"/>
       <use xlink:href="#Helvetica-6f" x="61.083984"/>
       <use xlink:href="#Helvetica-72" x="116.699219"/>
       <use xlink:href="#Helvetica-74" x="150"/>
       <use xlink:href="#Helvetica-72" x="177.783203"/>
       <use xlink:href="#Helvetica-61" x="211.083984"/>
       <use xlink:href="#Helvetica-6e" x="266.699219"/>
      </g>
     </g>
    </g>
    <g id="ytick_27">
     <g id="line2d_35">
      <g>
       <use xlink:href="#m8e343aef83" x="131.170312" y="182.802359" style="stroke: #000000; stroke-width: 0.8"/>
      </g>
     </g>
     <g id="text_35">
      <!-- C -->
      <g transform="translate(116.948437 186.389078)scale(0.1 -0.1)">
       <use xlink:href="#Helvetica-43"/>
      </g>
     </g>
    </g>
    <g id="ytick_28">
     <g id="line2d_36">
      <g>
       <use xlink:href="#m8e343aef83" x="131.170312" y="160.289325" style="stroke: #000000; stroke-width: 0.8"/>
      </g>
     </g>
     <g id="text_36">
      <!-- SQL -->
      <g transform="translate(104.160937 163.876044)scale(0.1 -0.1)">
       <defs>
        <path id="Helvetica-51" d="M 4688 13 
L 4375 -366 
L 3666 175 
Q 3409 34 3111 -50 
Q 2813 -134 2459 -134 
Q 1391 -134 784 566 
Q 250 1247 250 2272 
Q 250 3203 713 3866 
Q 1306 4716 2469 4716 
Q 3684 4716 4269 3934 
Q 4725 3325 4725 2375 
Q 4725 1931 4616 1522 
Q 4450 897 4056 503 
L 4688 13 
z
M 2534 422 
Q 2728 422 2897 448 
Q 3066 475 3191 553 
L 2688 947 
L 3000 1331 
L 3600 866 
Q 3884 1191 3986 1594 
Q 4088 1997 4088 2366 
Q 4088 3175 3664 3669 
Q 3241 4163 2506 4163 
Q 1763 4163 1328 3689 
Q 894 3216 894 2231 
Q 894 1403 1311 912 
Q 1728 422 2534 422 
z
" transform="scale(0.015625)"/>
       </defs>
       <use xlink:href="#Helvetica-53"/>
       <use xlink:href="#Helvetica-51" x="66.699219"/>
       <use xlink:href="#Helvetica-4c" x="144.482422"/>
      </g>
     </g>
    </g>
    <g id="ytick_29">
     <g id="line2d_37">
      <g>
       <use xlink:href="#m8e343aef83" x="131.170312" y="137.776291" style="stroke: #000000; stroke-width: 0.8"/>
      </g>
     </g>
     <g id="text_37">
      <!-- R -->
      <g transform="translate(116.948437 141.36301)scale(0.1 -0.1)">
       <use xlink:href="#Helvetica-52"/>
      </g>
     </g>
    </g>
    <g id="ytick_30">
     <g id="line2d_38">
      <g>
       <use xlink:href="#m8e343aef83" x="131.170312" y="115.263257" style="stroke: #000000; stroke-width: 0.8"/>
      </g>
     </g>
     <g id="text_38">
      <!-- C++ -->
      <g transform="translate(105.267187 118.849975)scale(0.1 -0.1)">
       <defs>
        <path id="Helvetica-2b" d="M 288 1369 
L 288 1894 
L 1650 1894 
L 1650 3266 
L 2184 3266 
L 2184 1894 
L 3547 1894 
L 3547 1369 
L 2184 1369 
L 2184 0 
L 1650 0 
L 1650 1369 
L 288 1369 
z
" transform="scale(0.015625)"/>
       </defs>
       <use xlink:href="#Helvetica-43"/>
       <use xlink:href="#Helvetica-2b" x="72.216797"/>
       <use xlink:href="#Helvetica-2b" x="130.615234"/>
      </g>
     </g>
    </g>
    <g id="ytick_31">
     <g id="line2d_39">
      <g>
       <use xlink:href="#m8e343aef83" x="131.170312" y="92.750222" style="stroke: #000000; stroke-width: 0.8"/>
      </g>
     </g>
     <g id="text_39">
      <!-- JavaScript -->
      <g transform="translate(77.4875 96.434597)scale(0.1 -0.1)">
       <use xlink:href="#Helvetica-4a"/>
       <use xlink:href="#Helvetica-61" x="50"/>
       <use xlink:href="#Helvetica-76" x="105.615234"/>
       <use xlink:href="#Helvetica-61" x="155.615234"/>
       <use xlink:href="#Helvetica-53" x="211.230469"/>
       <use xlink:href="#Helvetica-63" x="277.929688"/>
       <use xlink:href="#Helvetica-72" x="327.929688"/>
       <use xlink:href="#Helvetica-69" x="361.230469"/>
       <use xlink:href="#Helvetica-70" x="383.447266"/>
       <use xlink:href="#Helvetica-74" x="439.0625"/>
      </g>
     </g>
    </g>
    <g id="ytick_32">
     <g id="line2d_40">
      <g>
       <use xlink:href="#m8e343aef83" x="131.170312" y="70.237188" style="stroke: #000000; stroke-width: 0.8"/>
      </g>
     </g>
     <g id="text_40">
      <!-- Python -->
      <g transform="translate(93.039062 73.835626)scale(0.1 -0.1)">
       <use xlink:href="#Helvetica-50"/>
       <use xlink:href="#Helvetica-79" x="66.699219"/>
       <use xlink:href="#Helvetica-74" x="116.699219"/>
       <use xlink:href="#Helvetica-68" x="144.482422"/>
       <use xlink:href="#Helvetica-6f" x="200.097656"/>
       <use xlink:href="#Helvetica-6e" x="255.712891"/>
      </g>
     </g>
    </g>
   </g>
   <g id="patch_35">
    <path d="M 131.170312 812.942188 
L 494.708075 812.942188 
" style="fill: none; stroke: #000000; stroke-width: 0.8; stroke-linejoin: miter; stroke-linecap: square"/>
   </g>
   <g id="text_41">
    <!-- 0% -->
    <g transform="translate(138.94375 770.685781)scale(0.1 -0.1)">
     <defs>
      <path id="Helvetica-25" d="M 4363 2175 
Q 4813 2175 5131 1856 
Q 5450 1538 5450 1088 
Q 5450 638 5131 319 
Q 4813 0 4363 0 
Q 3909 0 3590 319 
Q 3272 638 3272 1088 
Q 3272 1538 3590 1856 
Q 3909 2175 4363 2175 
z
M 3909 4456 
L 4256 4456 
L 1753 -119 
L 1406 -119 
L 3909 4456 
z
M 1294 2606 
Q 1563 2606 1752 2795 
Q 1941 2984 1941 3250 
Q 1941 3516 1752 3705 
Q 1563 3894 1294 3894 
Q 1028 3894 839 3706 
Q 650 3519 650 3250 
Q 650 2984 839 2795 
Q 1028 2606 1294 2606 
z
M 1294 4341 
Q 1747 4341 2065 4020 
Q 2384 3700 2384 3250 
Q 2384 2800 2065 2481 
Q 1747 2163 1294 2163 
Q 844 2163 525 2481 
Q 206 2800 206 3250 
Q 206 3700 525 4020 
Q 844 4341 1294 4341 
z
M 4363 444 
Q 4628 444 4817 633 
Q 5006 822 5006 1088 
Q 5006 1353 4817 1542 
Q 4628 1731 4363 1731 
Q 4094 1731 3905 1542 
Q 3716 1353 3716 1088 
Q 3716 822 3905 633 
Q 4094 444 4363 444 
z
" transform="scale(0.015625)"/>
     </defs>
     <use xlink:href="#Helvetica-30"/>
     <use xlink:href="#Helvetica-25" x="55.615234"/>
    </g>
   </g>
   <g id="text_42">
    <!-- 0% -->
    <g transform="translate(138.94375 748.172746)scale(0.1 -0.1)">
     <use xlink:href="#Helvetica-30"/>
     <use xlink:href="#Helvetica-25" x="55.615234"/>
    </g>
   </g>
   <g id="text_43">
    <!-- 0% -->
    <g transform="translate(138.94375 725.659712)scale(0.1 -0.1)">
     <use xlink:href="#Helvetica-30"/>
     <use xlink:href="#Helvetica-25" x="55.615234"/>
    </g>
   </g>
   <g id="text_44">
    <!-- 0% -->
    <g transform="translate(138.94375 703.146678)scale(0.1 -0.1)">
     <use xlink:href="#Helvetica-30"/>
     <use xlink:href="#Helvetica-25" x="55.615234"/>
    </g>
   </g>
   <g id="text_45">
    <!-- 0% -->
    <g transform="translate(138.94375 680.633644)scale(0.1 -0.1)">
     <use xlink:href="#Helvetica-30"/>
     <use xlink:href="#Helvetica-25" x="55.615234"/>
    </g>
   </g>
   <g id="text_46">
    <!-- 0% -->
    <g transform="translate(138.94375 658.120609)scale(0.1 -0.1)">
     <use xlink:href="#Helvetica-30"/>
     <use xlink:href="#Helvetica-25" x="55.615234"/>
    </g>
   </g>
   <g id="text_47">
    <!-- 1% -->
    <g transform="translate(141.60703 635.607575)scale(0.1 -0.1)">
     <use xlink:href="#Helvetica-31"/>
     <use xlink:href="#Helvetica-25" x="55.615234"/>
    </g>
   </g>
   <g id="text_48">
    <!-- 1% -->
    <g transform="translate(144.270311 613.094541)scale(0.1 -0.1)">
     <use xlink:href="#Helvetica-31"/>
     <use xlink:href="#Helvetica-25" x="55.615234"/>
    </g>
   </g>
   <g id="text_49">
    <!-- 1% -->
    <g transform="translate(144.270311 590.581507)scale(0.1 -0.1)">
     <use xlink:href="#Helvetica-31"/>
     <use xlink:href="#Helvetica-25" x="55.615234"/>
    </g>
   </g>
   <g id="text_50">
    <!-- 1% -->
    <g transform="translate(144.270311 568.068473)scale(0.1 -0.1)">
     <use xlink:href="#Helvetica-31"/>
     <use xlink:href="#Helvetica-25" x="55.615234"/>
    </g>
   </g>
   <g id="text_51">
    <!-- 1% -->
    <g transform="translate(144.270311 545.555438)scale(0.1 -0.1)">
     <use xlink:href="#Helvetica-31"/>
     <use xlink:href="#Helvetica-25" x="55.615234"/>
    </g>
   </g>
   <g id="text_52">
    <!-- 1% -->
    <g transform="translate(144.270311 523.042404)scale(0.1 -0.1)">
     <use xlink:href="#Helvetica-31"/>
     <use xlink:href="#Helvetica-25" x="55.615234"/>
    </g>
   </g>
   <g id="text_53">
    <!-- 2% -->
    <g transform="translate(146.933591 500.52937)scale(0.1 -0.1)">
     <use xlink:href="#Helvetica-32"/>
     <use xlink:href="#Helvetica-25" x="55.615234"/>
    </g>
   </g>
   <g id="text_54">
    <!-- 2% -->
    <g transform="translate(146.933591 478.016336)scale(0.1 -0.1)">
     <use xlink:href="#Helvetica-32"/>
     <use xlink:href="#Helvetica-25" x="55.615234"/>
    </g>
   </g>
   <g id="text_55">
    <!-- 2% -->
    <g transform="translate(146.933591 455.503301)scale(0.1 -0.1)">
     <use xlink:href="#Helvetica-32"/>
     <use xlink:href="#Helvetica-25" x="55.615234"/>
    </g>
   </g>
   <g id="text_56">
    <!-- 2% -->
    <g transform="translate(146.933591 432.990267)scale(0.1 -0.1)">
     <use xlink:href="#Helvetica-32"/>
     <use xlink:href="#Helvetica-25" x="55.615234"/>
    </g>
   </g>
   <g id="text_57">
    <!-- 3% -->
    <g transform="translate(154.923432 410.477233)scale(0.1 -0.1)">
     <use xlink:href="#Helvetica-33"/>
     <use xlink:href="#Helvetica-25" x="55.615234"/>
    </g>
   </g>
   <g id="text_58">
    <!-- 3% -->
    <g transform="translate(154.923432 387.964199)scale(0.1 -0.1)">
     <use xlink:href="#Helvetica-33"/>
     <use xlink:href="#Helvetica-25" x="55.615234"/>
    </g>
   </g>
   <g id="text_59">
    <!-- 6% -->
    <g transform="translate(168.239833 365.451164)scale(0.1 -0.1)">
     <use xlink:href="#Helvetica-36"/>
     <use xlink:href="#Helvetica-25" x="55.615234"/>
    </g>
   </g>
   <g id="text_60">
    <!-- 7% -->
    <g transform="translate(170.903114 342.93813)scale(0.1 -0.1)">
     <use xlink:href="#Helvetica-37"/>
     <use xlink:href="#Helvetica-25" x="55.615234"/>
    </g>
   </g>
   <g id="text_61">
    <!-- 7% -->
    <g transform="translate(170.903114 320.425096)scale(0.1 -0.1)">
     <use xlink:href="#Helvetica-37"/>
     <use xlink:href="#Helvetica-25" x="55.615234"/>
    </g>
   </g>
   <g id="text_62">
    <!-- 7% -->
    <g transform="translate(173.566394 297.912062)scale(0.1 -0.1)">
     <use xlink:href="#Helvetica-37"/>
     <use xlink:href="#Helvetica-25" x="55.615234"/>
    </g>
   </g>
   <g id="text_63">
    <!-- 10% -->
    <g transform="translate(181.439047 275.399027)scale(0.1 -0.1)">
     <use xlink:href="#Helvetica-31"/>
     <use xlink:href="#Helvetica-30" x="55.615234"/>
     <use xlink:href="#Helvetica-25" x="111.230469"/>
    </g>
   </g>
   <g id="text_64">
    <!-- 13% -->
    <g transform="translate(194.755448 252.885993)scale(0.1 -0.1)">
     <use xlink:href="#Helvetica-31"/>
     <use xlink:href="#Helvetica-33" x="55.615234"/>
     <use xlink:href="#Helvetica-25" x="111.230469"/>
    </g>
   </g>
   <g id="text_65">
    <!-- 15% -->
    <g transform="translate(205.408569 230.372959)scale(0.1 -0.1)">
     <use xlink:href="#Helvetica-31"/>
     <use xlink:href="#Helvetica-35" x="55.615234"/>
     <use xlink:href="#Helvetica-25" x="111.230469"/>
    </g>
   </g>
   <g id="text_66">
    <!-- 17% -->
    <g transform="translate(213.39841 207.859925)scale(0.1 -0.1)">
     <use xlink:href="#Helvetica-31"/>
     <use xlink:href="#Helvetica-37" x="55.615234"/>
     <use xlink:href="#Helvetica-25" x="111.230469"/>
    </g>
   </g>
   <g id="text_67">
    <!-- 20% -->
    <g transform="translate(229.378092 185.346891)scale(0.1 -0.1)">
     <use xlink:href="#Helvetica-32"/>
     <use xlink:href="#Helvetica-30" x="55.615234"/>
     <use xlink:href="#Helvetica-25" x="111.230469"/>
    </g>
   </g>
   <g id="text_68">
    <!-- 22% -->
    <g transform="translate(240.031213 162.833856)scale(0.1 -0.1)">
     <use xlink:href="#Helvetica-32"/>
     <use xlink:href="#Helvetica-32" x="55.615234"/>
     <use xlink:href="#Helvetica-25" x="111.230469"/>
    </g>
   </g>
   <g id="text_69">
    <!-- 25% -->
    <g transform="translate(253.347615 140.320822)scale(0.1 -0.1)">
     <use xlink:href="#Helvetica-32"/>
     <use xlink:href="#Helvetica-35" x="55.615234"/>
     <use xlink:href="#Helvetica-25" x="111.230469"/>
    </g>
   </g>
   <g id="text_70">
    <!-- 33% -->
    <g transform="translate(290.633539 117.807788)scale(0.1 -0.1)">
     <use xlink:href="#Helvetica-33"/>
     <use xlink:href="#Helvetica-33" x="55.615234"/>
     <use xlink:href="#Helvetica-25" x="111.230469"/>
    </g>
   </g>
   <g id="text_71">
    <!-- 33% -->
    <g transform="translate(290.633539 95.294754)scale(0.1 -0.1)">
     <use xlink:href="#Helvetica-33"/>
     <use xlink:href="#Helvetica-33" x="55.615234"/>
     <use xlink:href="#Helvetica-25" x="111.230469"/>
    </g>
   </g>
   <g id="text_72">
    <!-- 74% -->
    <g transform="translate(482.389721 72.781719)scale(0.1 -0.1)">
     <use xlink:href="#Helvetica-37"/>
     <use xlink:href="#Helvetica-34" x="55.615234"/>
     <use xlink:href="#Helvetica-25" x="111.230469"/>
    </g>
   </g>
   <g id="text_73">
    <!-- Programming languages, United Kingdom -->
    <g transform="translate(201.551069 19.43625)scale(0.12 -0.12)">
     <defs>
      <path id="Helvetica-2c" d="M 531 -653 
Q 747 -616 834 -350 
Q 881 -209 881 -78 
Q 881 -56 879 -39 
Q 878 -22 872 0 
L 531 0 
L 531 681 
L 1200 681 
L 1200 50 
Q 1200 -322 1050 -603 
Q 900 -884 531 -950 
L 531 -653 
z
" transform="scale(0.015625)"/>
      <path id="Helvetica-55" d="M 1163 4591 
L 1163 1753 
Q 1163 1253 1350 922 
Q 1628 422 2288 422 
Q 3078 422 3363 963 
Q 3516 1256 3516 1753 
L 3516 4591 
L 4147 4591 
L 4147 2013 
Q 4147 1166 3919 709 
Q 3500 -122 2338 -122 
Q 1175 -122 759 709 
Q 531 1166 531 2013 
L 531 4591 
L 1163 4591 
z
M 2341 4591 
L 2341 4591 
z
" transform="scale(0.015625)"/>
      <path id="Helvetica-4b" d="M 488 4591 
L 1094 4591 
L 1094 2353 
L 3331 4591 
L 4191 4591 
L 2281 2741 
L 4244 0 
L 3434 0 
L 1828 2303 
L 1094 1600 
L 1094 0 
L 488 0 
L 488 4591 
z
" transform="scale(0.015625)"/>
     </defs>
     <use xlink:href="#Helvetica-50"/>
     <use xlink:href="#Helvetica-72" x="66.699219"/>
     <use xlink:href="#Helvetica-6f" x="100"/>
     <use xlink:href="#Helvetica-67" x="155.615234"/>
     <use xlink:href="#Helvetica-72" x="211.230469"/>
     <use xlink:href="#Helvetica-61" x="244.53125"/>
     <use xlink:href="#Helvetica-6d" x="300.146484"/>
     <use xlink:href="#Helvetica-6d" x="383.447266"/>
     <use xlink:href="#Helvetica-69" x="466.748047"/>
     <use xlink:href="#Helvetica-6e" x="488.964844"/>
     <use xlink:href="#Helvetica-67" x="544.580078"/>
     <use xlink:href="#Helvetica-20" x="600.195312"/>
     <use xlink:href="#Helvetica-6c" x="627.978516"/>
     <use xlink:href="#Helvetica-61" x="650.195312"/>
     <use xlink:href="#Helvetica-6e" x="705.810547"/>
     <use xlink:href="#Helvetica-67" x="761.425781"/>
     <use xlink:href="#Helvetica-75" x="817.041016"/>
     <use xlink:href="#Helvetica-61" x="872.65625"/>
     <use xlink:href="#Helvetica-67" x="928.271484"/>
     <use xlink:href="#Helvetica-65" x="983.886719"/>
     <use xlink:href="#Helvetica-73" x="1039.501953"/>
     <use xlink:href="#Helvetica-2c" x="1089.501953"/>
     <use xlink:href="#Helvetica-20" x="1117.285156"/>
     <use xlink:href="#Helvetica-55" x="1145.068359"/>
     <use xlink:href="#Helvetica-6e" x="1217.285156"/>
     <use xlink:href="#Helvetica-69" x="1272.900391"/>
     <use xlink:href="#Helvetica-74" x="1295.117188"/>
     <use xlink:href="#Helvetica-65" x="1322.900391"/>
     <use xlink:href="#Helvetica-64" x="1378.515625"/>
     <use xlink:href="#Helvetica-20" x="1434.130859"/>
     <use xlink:href="#Helvetica-4b" x="1461.914062"/>
     <use xlink:href="#Helvetica-69" x="1528.613281"/>
     <use xlink:href="#Helvetica-6e" x="1550.830078"/>
     <use xlink:href="#Helvetica-67" x="1606.445312"/>
     <use xlink:href="#Helvetica-64" x="1662.060547"/>
     <use xlink:href="#Helvetica-6f" x="1717.675781"/>
     <use xlink:href="#Helvetica-6d" x="1773.291016"/>
    </g>
   </g>
  </g>
  <g id="axes_2">
   <g id="patch_36">
    <path d="M 513.266034 812.942188 
L 565.2 812.942188 
L 565.2 25.43625 
L 513.266034 25.43625 
z
" style="fill: #ffffff"/>
   </g>
   <g id="patch_37">
    <path d="M 547.319323 777.146463 
L 546.434053 777.146463 
L 546.434053 759.136036 
L 547.319323 759.136036 
z
" clip-path="url(#p74a0c5a679)" style="fill: #ffa500"/>
   </g>
   <g id="patch_38">
    <path d="M 547.319323 754.633429 
L 544.663514 754.633429 
L 544.663514 736.623001 
L 547.319323 736.623001 
z
" clip-path="url(#p74a0c5a679)" style="fill: #ffa500"/>
   </g>
   <g id="patch_39">
    <path d="M 547.319323 732.120395 
L 544.663514 732.120395 
L 544.663514 714.109967 
L 547.319323 714.109967 
z
" clip-path="url(#p74a0c5a679)" style="fill: #ffa500"/>
   </g>
   <g id="patch_40">
    <path d="M 547.319323 709.60736 
L 544.663514 709.60736 
L 544.663514 691.596933 
L 547.319323 691.596933 
z
" clip-path="url(#p74a0c5a679)" style="fill: #ffa500"/>
   </g>
   <g id="patch_41">
    <path d="M 547.319323 687.094326 
L 545.548784 687.094326 
L 545.548784 669.083899 
L 547.319323 669.083899 
z
" clip-path="url(#p74a0c5a679)" style="fill: #ffa500"/>
   </g>
   <g id="patch_42">
    <path d="M 547.319323 664.581292 
L 544.663514 664.581292 
L 544.663514 646.570865 
L 547.319323 646.570865 
z
" clip-path="url(#p74a0c5a679)" style="fill: #ffa500"/>
   </g>
   <g id="patch_43">
    <path d="M 547.319323 642.068258 
L 548.513173 642.068258 
L 548.513173 624.05783 
L 547.319323 624.05783 
z
" clip-path="url(#p74a0c5a679)" style="fill: #008000"/>
   </g>
   <g id="patch_44">
    <path d="M 547.319323 619.555223 
L 549.707022 619.555223 
L 549.707022 601.544796 
L 547.319323 601.544796 
z
" clip-path="url(#p74a0c5a679)" style="fill: #008000"/>
   </g>
   <g id="patch_45">
    <path d="M 547.319323 597.042189 
L 549.707022 597.042189 
L 549.707022 579.031762 
L 547.319323 579.031762 
z
" clip-path="url(#p74a0c5a679)" style="fill: #008000"/>
   </g>
   <g id="patch_46">
    <path d="M 547.319323 574.529155 
L 547.051213 574.529155 
L 547.051213 556.518728 
L 547.319323 556.518728 
z
" clip-path="url(#p74a0c5a679)" style="fill: #ffa500"/>
   </g>
   <g id="patch_47">
    <path d="M 547.319323 552.016121 
L 543.510134 552.016121 
L 543.510134 534.005693 
L 547.319323 534.005693 
z
" clip-path="url(#p74a0c5a679)" style="fill: #ffa500"/>
   </g>
   <g id="patch_48">
    <path d="M 547.319323 529.503086 
L 544.395404 529.503086 
L 544.395404 511.492659 
L 547.319323 511.492659 
z
" clip-path="url(#p74a0c5a679)" style="fill: #ffa500"/>
   </g>
   <g id="patch_49">
    <path d="M 547.319323 506.990052 
L 550.900871 506.990052 
L 550.900871 488.979625 
L 547.319323 488.979625 
z
" clip-path="url(#p74a0c5a679)" style="fill: #008000"/>
   </g>
   <g id="patch_50">
    <path d="M 547.319323 484.477018 
L 549.130332 484.477018 
L 549.130332 466.466591 
L 547.319323 466.466591 
z
" clip-path="url(#p74a0c5a679)" style="fill: #008000"/>
   </g>
   <g id="patch_51">
    <path d="M 547.319323 461.963984 
L 548.245062 461.963984 
L 548.245062 443.953556 
L 547.319323 443.953556 
z
" clip-path="url(#p74a0c5a679)" style="fill: #008000"/>
   </g>
   <g id="patch_52">
    <path d="M 547.319323 439.45095 
L 547.359793 439.45095 
L 547.359793 421.440522 
L 547.319323 421.440522 
z
" clip-path="url(#p74a0c5a679)" style="fill: #008000"/>
   </g>
   <g id="patch_53">
    <path d="M 547.319323 416.937915 
L 528.809599 416.937915 
L 528.809599 398.927488 
L 547.319323 398.927488 
z
" clip-path="url(#p74a0c5a679)" style="fill: #ffa500"/>
   </g>
   <g id="patch_54">
    <path d="M 547.319323 394.424881 
L 550.941341 394.424881 
L 550.941341 376.414454 
L 547.319323 376.414454 
z
" clip-path="url(#p74a0c5a679)" style="fill: #008000"/>
   </g>
   <g id="patch_55">
    <path d="M 547.319323 371.911847 
L 540.975734 371.911847 
L 540.975734 353.901419 
L 547.319323 353.901419 
z
" clip-path="url(#p74a0c5a679)" style="fill: #ffa500"/>
   </g>
   <g id="patch_56">
    <path d="M 547.319323 349.398813 
L 546.595931 349.398813 
L 546.595931 331.388385 
L 547.319323 331.388385 
z
" clip-path="url(#p74a0c5a679)" style="fill: #ffa500"/>
   </g>
   <g id="patch_57">
    <path d="M 547.319323 326.885778 
L 555.448628 326.885778 
L 555.448628 308.875351 
L 547.319323 308.875351 
z
" clip-path="url(#p74a0c5a679)" style="fill: #008000"/>
   </g>
   <g id="patch_58">
    <path d="M 547.319323 304.372744 
L 562.839365 304.372744 
L 562.839365 286.362317 
L 547.319323 286.362317 
z
" clip-path="url(#p74a0c5a679)" style="fill: #008000"/>
   </g>
   <g id="patch_59">
    <path d="M 547.319323 281.85971 
L 560.532605 281.85971 
L 560.532605 263.849283 
L 547.319323 263.849283 
z
" clip-path="url(#p74a0c5a679)" style="fill: #008000"/>
   </g>
   <g id="patch_60">
    <path d="M 547.319323 259.346676 
L 531.976335 259.346676 
L 531.976335 241.336248 
L 547.319323 241.336248 
z
" clip-path="url(#p74a0c5a679)" style="fill: #ffa500"/>
   </g>
   <g id="patch_61">
    <path d="M 547.319323 236.833641 
L 542.063351 236.833641 
L 542.063351 218.823214 
L 547.319323 218.823214 
z
" clip-path="url(#p74a0c5a679)" style="fill: #ffa500"/>
   </g>
   <g id="patch_62">
    <path d="M 547.319323 214.320607 
L 524.398427 214.320607 
L 524.398427 196.31018 
L 547.319323 196.31018 
z
" clip-path="url(#p74a0c5a679)" style="fill: #ffa500"/>
   </g>
   <g id="patch_63">
    <path d="M 547.319323 191.807573 
L 515.626669 191.807573 
L 515.626669 173.797146 
L 547.319323 173.797146 
z
" clip-path="url(#p74a0c5a679)" style="fill: #ffa500"/>
   </g>
   <g id="patch_64">
    <path d="M 547.319323 169.294539 
L 535.451651 169.294539 
L 535.451651 151.284111 
L 547.319323 151.284111 
z
" clip-path="url(#p74a0c5a679)" style="fill: #ffa500"/>
   </g>
   <g id="patch_65">
    <path d="M 547.319323 146.781505 
L 538.765089 146.781505 
L 538.765089 128.771077 
L 547.319323 128.771077 
z
" clip-path="url(#p74a0c5a679)" style="fill: #ffa500"/>
   </g>
   <g id="patch_66">
    <path d="M 547.319323 124.26847 
L 537.773587 124.26847 
L 537.773587 106.258043 
L 547.319323 106.258043 
z
" clip-path="url(#p74a0c5a679)" style="fill: #ffa500"/>
   </g>
   <g id="patch_67">
    <path d="M 547.319323 101.755436 
L 559.020059 101.755436 
L 559.020059 83.745009 
L 547.319323 83.745009 
z
" clip-path="url(#p74a0c5a679)" style="fill: #008000"/>
   </g>
   <g id="patch_68">
    <path d="M 547.319323 79.242402 
L 541.400663 79.242402 
L 541.400663 61.231974 
L 547.319323 61.231974 
z
" clip-path="url(#p74a0c5a679)" style="fill: #ffa500"/>
   </g>
   <g id="matplotlib.axis_3">
    <g id="xtick_9">
     <g id="line2d_41">
      <g>
       <use xlink:href="#m4c99cd72f3" x="526.426959" y="812.942188" style="stroke: #000000; stroke-width: 0.8"/>
      </g>
     </g>
     <g id="text_74">
      <!-- 10 -->
      <g transform="translate(517.945709 827.115625)scale(0.1 -0.1)">
       <defs>
        <path id="Helvetica-2212" d="M 3547 1894 
L 3547 1369 
L 288 1369 
L 288 1894 
L 3547 1894 
z
" transform="scale(0.015625)"/>
       </defs>
       <use xlink:href="#Helvetica-2212"/>
       <use xlink:href="#Helvetica-31" x="58.398438"/>
       <use xlink:href="#Helvetica-30" x="114.013672"/>
      </g>
     </g>
    </g>
    <g id="xtick_10">
     <g id="line2d_42">
      <g>
       <use xlink:href="#m4c99cd72f3" x="547.319323" y="812.942188" style="stroke: #000000; stroke-width: 0.8"/>
      </g>
     </g>
     <g id="text_75">
      <!-- 0 -->
      <g transform="translate(544.538854 827.115625)scale(0.1 -0.1)">
       <use xlink:href="#Helvetica-30"/>
      </g>
     </g>
    </g>
   </g>
   <g id="matplotlib.axis_4">
    <g id="ytick_33">
     <g id="line2d_43">
      <g>
       <use xlink:href="#m8e343aef83" x="513.266034" y="768.141249" style="stroke: #000000; stroke-width: 0.8"/>
      </g>
     </g>
    </g>
    <g id="ytick_34">
     <g id="line2d_44">
      <g>
       <use xlink:href="#m8e343aef83" x="513.266034" y="745.628215" style="stroke: #000000; stroke-width: 0.8"/>
      </g>
     </g>
    </g>
    <g id="ytick_35">
     <g id="line2d_45">
      <g>
       <use xlink:href="#m8e343aef83" x="513.266034" y="723.115181" style="stroke: #000000; stroke-width: 0.8"/>
      </g>
     </g>
    </g>
    <g id="ytick_36">
     <g id="line2d_46">
      <g>
       <use xlink:href="#m8e343aef83" x="513.266034" y="700.602147" style="stroke: #000000; stroke-width: 0.8"/>
      </g>
     </g>
    </g>
    <g id="ytick_37">
     <g id="line2d_47">
      <g>
       <use xlink:href="#m8e343aef83" x="513.266034" y="678.089112" style="stroke: #000000; stroke-width: 0.8"/>
      </g>
     </g>
    </g>
    <g id="ytick_38">
     <g id="line2d_48">
      <g>
       <use xlink:href="#m8e343aef83" x="513.266034" y="655.576078" style="stroke: #000000; stroke-width: 0.8"/>
      </g>
     </g>
    </g>
    <g id="ytick_39">
     <g id="line2d_49">
      <g>
       <use xlink:href="#m8e343aef83" x="513.266034" y="633.063044" style="stroke: #000000; stroke-width: 0.8"/>
      </g>
     </g>
    </g>
    <g id="ytick_40">
     <g id="line2d_50">
      <g>
       <use xlink:href="#m8e343aef83" x="513.266034" y="610.55001" style="stroke: #000000; stroke-width: 0.8"/>
      </g>
     </g>
    </g>
    <g id="ytick_41">
     <g id="line2d_51">
      <g>
       <use xlink:href="#m8e343aef83" x="513.266034" y="588.036976" style="stroke: #000000; stroke-width: 0.8"/>
      </g>
     </g>
    </g>
    <g id="ytick_42">
     <g id="line2d_52">
      <g>
       <use xlink:href="#m8e343aef83" x="513.266034" y="565.523941" style="stroke: #000000; stroke-width: 0.8"/>
      </g>
     </g>
    </g>
    <g id="ytick_43">
     <g id="line2d_53">
      <g>
       <use xlink:href="#m8e343aef83" x="513.266034" y="543.010907" style="stroke: #000000; stroke-width: 0.8"/>
      </g>
     </g>
    </g>
    <g id="ytick_44">
     <g id="line2d_54">
      <g>
       <use xlink:href="#m8e343aef83" x="513.266034" y="520.497873" style="stroke: #000000; stroke-width: 0.8"/>
      </g>
     </g>
    </g>
    <g id="ytick_45">
     <g id="line2d_55">
      <g>
       <use xlink:href="#m8e343aef83" x="513.266034" y="497.984839" style="stroke: #000000; stroke-width: 0.8"/>
      </g>
     </g>
    </g>
    <g id="ytick_46">
     <g id="line2d_56">
      <g>
       <use xlink:href="#m8e343aef83" x="513.266034" y="475.471804" style="stroke: #000000; stroke-width: 0.8"/>
      </g>
     </g>
    </g>
    <g id="ytick_47">
     <g id="line2d_57">
      <g>
       <use xlink:href="#m8e343aef83" x="513.266034" y="452.95877" style="stroke: #000000; stroke-width: 0.8"/>
      </g>
     </g>
    </g>
    <g id="ytick_48">
     <g id="line2d_58">
      <g>
       <use xlink:href="#m8e343aef83" x="513.266034" y="430.445736" style="stroke: #000000; stroke-width: 0.8"/>
      </g>
     </g>
    </g>
    <g id="ytick_49">
     <g id="line2d_59">
      <g>
       <use xlink:href="#m8e343aef83" x="513.266034" y="407.932702" style="stroke: #000000; stroke-width: 0.8"/>
      </g>
     </g>
    </g>
    <g id="ytick_50">
     <g id="line2d_60">
      <g>
       <use xlink:href="#m8e343aef83" x="513.266034" y="385.419667" style="stroke: #000000; stroke-width: 0.8"/>
      </g>
     </g>
    </g>
    <g id="ytick_51">
     <g id="line2d_61">
      <g>
       <use xlink:href="#m8e343aef83" x="513.266034" y="362.906633" style="stroke: #000000; stroke-width: 0.8"/>
      </g>
     </g>
    </g>
    <g id="ytick_52">
     <g id="line2d_62">
      <g>
       <use xlink:href="#m8e343aef83" x="513.266034" y="340.393599" style="stroke: #000000; stroke-width: 0.8"/>
      </g>
     </g>
    </g>
    <g id="ytick_53">
     <g id="line2d_63">
      <g>
       <use xlink:href="#m8e343aef83" x="513.266034" y="317.880565" style="stroke: #000000; stroke-width: 0.8"/>
      </g>
     </g>
    </g>
    <g id="ytick_54">
     <g id="line2d_64">
      <g>
       <use xlink:href="#m8e343aef83" x="513.266034" y="295.36753" style="stroke: #000000; stroke-width: 0.8"/>
      </g>
     </g>
    </g>
    <g id="ytick_55">
     <g id="line2d_65">
      <g>
       <use xlink:href="#m8e343aef83" x="513.266034" y="272.854496" style="stroke: #000000; stroke-width: 0.8"/>
      </g>
     </g>
    </g>
    <g id="ytick_56">
     <g id="line2d_66">
      <g>
       <use xlink:href="#m8e343aef83" x="513.266034" y="250.341462" style="stroke: #000000; stroke-width: 0.8"/>
      </g>
     </g>
    </g>
    <g id="ytick_57">
     <g id="line2d_67">
      <g>
       <use xlink:href="#m8e343aef83" x="513.266034" y="227.828428" style="stroke: #000000; stroke-width: 0.8"/>
      </g>
     </g>
    </g>
    <g id="ytick_58">
     <g id="line2d_68">
      <g>
       <use xlink:href="#m8e343aef83" x="513.266034" y="205.315394" style="stroke: #000000; stroke-width: 0.8"/>
      </g>
     </g>
    </g>
    <g id="ytick_59">
     <g id="line2d_69">
      <g>
       <use xlink:href="#m8e343aef83" x="513.266034" y="182.802359" style="stroke: #000000; stroke-width: 0.8"/>
      </g>
     </g>
    </g>
    <g id="ytick_60">
     <g id="line2d_70">
      <g>
       <use xlink:href="#m8e343aef83" x="513.266034" y="160.289325" style="stroke: #000000; stroke-width: 0.8"/>
      </g>
     </g>
    </g>
    <g id="ytick_61">
     <g id="line2d_71">
      <g>
       <use xlink:href="#m8e343aef83" x="513.266034" y="137.776291" style="stroke: #000000; stroke-width: 0.8"/>
      </g>
     </g>
    </g>
    <g id="ytick_62">
     <g id="line2d_72">
      <g>
       <use xlink:href="#m8e343aef83" x="513.266034" y="115.263257" style="stroke: #000000; stroke-width: 0.8"/>
      </g>
     </g>
    </g>
    <g id="ytick_63">
     <g id="line2d_73">
      <g>
       <use xlink:href="#m8e343aef83" x="513.266034" y="92.750222" style="stroke: #000000; stroke-width: 0.8"/>
      </g>
     </g>
    </g>
    <g id="ytick_64">
     <g id="line2d_74">
      <g>
       <use xlink:href="#m8e343aef83" x="513.266034" y="70.237188" style="stroke: #000000; stroke-width: 0.8"/>
      </g>
     </g>
    </g>
   </g>
   <g id="patch_69">
    <path d="M 513.266034 812.942188 
L 565.2 812.942188 
" style="fill: none; stroke: #000000; stroke-width: 0.8; stroke-linejoin: miter; stroke-linecap: square"/>
   </g>
   <g id="text_76">
    <!--  -->
    <g transform="translate(534.899892 19.43625)scale(0.12 -0.12)">
     <defs>
      <path id="Helvetica-394" d="M 922 500 
L 3672 500 
L 2278 3941 
L 922 500 
z
M 1966 4519 
L 2631 4519 
L 4494 0 
L 128 0 
L 1966 4519 
z
" transform="scale(0.015625)"/>
     </defs>
     <use xlink:href="#Helvetica-394"/>
    </g>
   </g>
  </g>
 </g>
 <defs>
  <clipPath id="p466d495cf5">
   <rect x="131.170312" y="25.43625" width="363.537762" height="787.505937"/>
  </clipPath>
  <clipPath id="p74a0c5a679">
   <rect x="513.266034" y="25.43625" width="51.933966" height="787.505937"/>
  </clipPath>
 </defs>
</svg>
