<?xml version="1.0" encoding="utf-8" standalone="no"?>
<!DOCTYPE svg PUBLIC "-//W3C//DTD SVG 1.1//EN"
  "http://www.w3.org/Graphics/SVG/1.1/DTD/svg11.dtd">
<svg xmlns:xlink="http://www.w3.org/1999/xlink" width="504pt" height="360pt" viewBox="0 0 504 360" xmlns="http://www.w3.org/2000/svg" version="1.1">
 <metadata>
  <rdf:RDF xmlns:dc="http://purl.org/dc/elements/1.1/" xmlns:cc="http://creativecommons.org/ns#" xmlns:rdf="http://www.w3.org/1999/02/22-rdf-syntax-ns#">
   <cc:Work>
    <dc:type rdf:resource="http://purl.org/dc/dcmitype/StillImage"/>
    <dc:date>2022-05-19T12:19:02.266171</dc:date>
    <dc:format>image/svg+xml</dc:format>
    <dc:creator>
     <cc:Agent>
      <dc:title>Matplotlib v3.5.1, https://matplotlib.org/</dc:title>
     </cc:Agent>
    </dc:creator>
   </cc:Work>
  </rdf:RDF>
 </metadata>
 <defs>
  <style type="text/css">*{stroke-linejoin: round; stroke-linecap: butt}</style>
 </defs>
 <g id="figure_1">
  <g id="patch_1">
   <path d="M 0 360 
L 504 360 
L 504 0 
L 0 0 
z
" style="fill: #ffffff"/>
  </g>
  <g id="axes_1">
   <g id="patch_2">
    <path d="M 62.86875 239.409562 
L 493.2 239.409562 
L 493.2 25.43625 
L 62.86875 25.43625 
z
" style="fill: #ffffff"/>
   </g>
   <g id="patch_3">
    <path d="M 62.86875 228.710897 
L 160.20558 228.710897 
L 160.20558 207.313566 
L 62.86875 207.313566 
z
" clip-path="url(#pf0dd48280d)" style="fill: #1f77b4"/>
   </g>
   <g id="patch_4">
    <path d="M 62.86875 185.916234 
L 139.713616 185.916234 
L 139.713616 164.518903 
L 62.86875 164.518903 
z
" clip-path="url(#pf0dd48280d)" style="fill: #1f77b4"/>
   </g>
   <g id="patch_5">
    <path d="M 62.86875 143.121572 
L 109.559302 143.121572 
L 109.559302 121.724241 
L 62.86875 121.724241 
z
" clip-path="url(#pf0dd48280d)" style="fill: #1f77b4"/>
   </g>
   <g id="patch_6">
    <path d="M 62.86875 100.326909 
L 102.714236 100.326909 
L 102.714236 78.929578 
L 62.86875 78.929578 
z
" clip-path="url(#pf0dd48280d)" style="fill: #1f77b4"/>
   </g>
   <g id="patch_7">
    <path d="M 62.86875 57.532247 
L 109.391047 57.532247 
L 109.391047 36.134916 
L 62.86875 36.134916 
z
" clip-path="url(#pf0dd48280d)" style="fill: #1f77b4"/>
   </g>
   <g id="patch_8">
    <path d="M 160.20558 228.710897 
L 247.296429 228.710897 
L 247.296429 207.313566 
L 160.20558 207.313566 
z
" clip-path="url(#pf0dd48280d)" style="fill: #ff7f0e"/>
   </g>
   <g id="patch_9">
    <path d="M 139.713616 185.916234 
L 182.405208 185.916234 
L 182.405208 164.518903 
L 139.713616 164.518903 
z
" clip-path="url(#pf0dd48280d)" style="fill: #ff7f0e"/>
   </g>
   <g id="patch_10">
    <path d="M 109.559302 143.121572 
L 168.354811 143.121572 
L 168.354811 121.724241 
L 109.559302 121.724241 
z
" clip-path="url(#pf0dd48280d)" style="fill: #ff7f0e"/>
   </g>
   <g id="patch_11">
    <path d="M 102.714236 100.326909 
L 161.533763 100.326909 
L 161.533763 78.929578 
L 102.714236 78.929578 
z
" clip-path="url(#pf0dd48280d)" style="fill: #ff7f0e"/>
   </g>
   <g id="patch_12">
    <path d="M 109.391047 57.532247 
L 149.267302 57.532247 
L 149.267302 36.134916 
L 109.391047 36.134916 
z
" clip-path="url(#pf0dd48280d)" style="fill: #ff7f0e"/>
   </g>
   <g id="patch_13">
    <path d="M 247.296429 228.710897 
L 332.679613 228.710897 
L 332.679613 207.313566 
L 247.296429 207.313566 
z
" clip-path="url(#pf0dd48280d)" style="fill: #2ca02c"/>
   </g>
   <g id="patch_14">
    <path d="M 182.405208 185.916234 
L 260.957738 185.916234 
L 260.957738 164.518903 
L 182.405208 164.518903 
z
" clip-path="url(#pf0dd48280d)" style="fill: #2ca02c"/>
   </g>
   <g id="patch_15">
    <path d="M 168.354811 143.121572 
L 218.503922 143.121572 
L 218.503922 121.724241 
L 168.354811 121.724241 
z
" clip-path="url(#pf0dd48280d)" style="fill: #2ca02c"/>
   </g>
   <g id="patch_16">
    <path d="M 161.533763 100.326909 
L 205.174058 100.326909 
L 205.174058 78.929578 
L 161.533763 78.929578 
z
" clip-path="url(#pf0dd48280d)" style="fill: #2ca02c"/>
   </g>
   <g id="patch_17">
    <path d="M 149.267302 57.532247 
L 171.420777 57.532247 
L 171.420777 36.134916 
L 149.267302 36.134916 
z
" clip-path="url(#pf0dd48280d)" style="fill: #2ca02c"/>
   </g>
   <g id="patch_18">
    <path d="M 332.679613 228.710897 
L 378.786533 228.710897 
L 378.786533 207.313566 
L 332.679613 207.313566 
z
" clip-path="url(#pf0dd48280d)" style="fill: #d62728"/>
   </g>
   <g id="patch_19">
    <path d="M 260.957738 185.916234 
L 305.356994 185.916234 
L 305.356994 164.518903 
L 260.957738 164.518903 
z
" clip-path="url(#pf0dd48280d)" style="fill: #d62728"/>
   </g>
   <g id="patch_20">
    <path d="M 218.503922 143.121572 
L 275.570151 143.121572 
L 275.570151 121.724241 
L 218.503922 121.724241 
z
" clip-path="url(#pf0dd48280d)" style="fill: #d62728"/>
   </g>
   <g id="patch_21">
    <path d="M 205.174058 100.326909 
L 263.993585 100.326909 
L 263.993585 78.929578 
L 205.174058 78.929578 
z
" clip-path="url(#pf0dd48280d)" style="fill: #d62728"/>
   </g>
   <g id="patch_22">
    <path d="M 171.420777 57.532247 
L 213.512379 57.532247 
L 213.512379 36.134916 
L 171.420777 36.134916 
z
" clip-path="url(#pf0dd48280d)" style="fill: #d62728"/>
   </g>
   <g id="patch_23">
    <path d="M 378.786533 228.710897 
L 402.693824 228.710897 
L 402.693824 207.313566 
L 378.786533 207.313566 
z
" clip-path="url(#pf0dd48280d)" style="fill: #9467bd"/>
   </g>
   <g id="patch_24">
    <path d="M 305.356994 185.916234 
L 322.433631 185.916234 
L 322.433631 164.518903 
L 305.356994 164.518903 
z
" clip-path="url(#pf0dd48280d)" style="fill: #9467bd"/>
   </g>
   <g id="patch_25">
    <path d="M 275.570151 143.121572 
L 306.697186 143.121572 
L 306.697186 121.724241 
L 275.570151 121.724241 
z
" clip-path="url(#pf0dd48280d)" style="fill: #9467bd"/>
   </g>
   <g id="patch_26">
    <path d="M 263.993585 100.326909 
L 294.35205 100.326909 
L 294.35205 78.929578 
L 263.993585 78.929578 
z
" clip-path="url(#pf0dd48280d)" style="fill: #9467bd"/>
   </g>
   <g id="patch_27">
    <path d="M 213.512379 57.532247 
L 240.096549 57.532247 
L 240.096549 36.134916 
L 213.512379 36.134916 
z
" clip-path="url(#pf0dd48280d)" style="fill: #9467bd"/>
   </g>
   <g id="patch_28">
    <path d="M 402.693824 228.710897 
L 424.893452 228.710897 
L 424.893452 207.313566 
L 402.693824 207.313566 
z
" clip-path="url(#pf0dd48280d)" style="fill: #8c564b"/>
   </g>
   <g id="patch_29">
    <path d="M 322.433631 185.916234 
L 373.663542 185.916234 
L 373.663542 164.518903 
L 322.433631 164.518903 
z
" clip-path="url(#pf0dd48280d)" style="fill: #8c564b"/>
   </g>
   <g id="patch_30">
    <path d="M 306.697186 143.121572 
L 346.470619 143.121572 
L 346.470619 121.724241 
L 306.697186 121.724241 
z
" clip-path="url(#pf0dd48280d)" style="fill: #8c564b"/>
   </g>
   <g id="patch_31">
    <path d="M 294.35205 100.326909 
L 347.479365 100.326909 
L 347.479365 78.929578 
L 294.35205 78.929578 
z
" clip-path="url(#pf0dd48280d)" style="fill: #8c564b"/>
   </g>
   <g id="patch_32">
    <path d="M 240.096549 57.532247 
L 293.264889 57.532247 
L 293.264889 36.134916 
L 240.096549 36.134916 
z
" clip-path="url(#pf0dd48280d)" style="fill: #8c564b"/>
   </g>
   <g id="patch_33">
    <path d="M 424.893452 228.710897 
L 445.385417 228.710897 
L 445.385417 207.313566 
L 424.893452 207.313566 
z
" clip-path="url(#pf0dd48280d)" style="fill: #e377c2"/>
   </g>
   <g id="patch_34">
    <path d="M 373.663542 185.916234 
L 426.601116 185.916234 
L 426.601116 164.518903 
L 373.663542 164.518903 
z
" clip-path="url(#pf0dd48280d)" style="fill: #e377c2"/>
   </g>
   <g id="patch_35">
    <path d="M 346.470619 143.121572 
L 394.89045 143.121572 
L 394.89045 121.724241 
L 346.470619 121.724241 
z
" clip-path="url(#pf0dd48280d)" style="fill: #e377c2"/>
   </g>
   <g id="patch_36">
    <path d="M 347.479365 100.326909 
L 398.709276 100.326909 
L 398.709276 78.929578 
L 347.479365 78.929578 
z
" clip-path="url(#pf0dd48280d)" style="fill: #e377c2"/>
   </g>
   <g id="patch_37">
    <path d="M 293.264889 57.532247 
L 353.079271 57.532247 
L 353.079271 36.134916 
L 293.264889 36.134916 
z
" clip-path="url(#pf0dd48280d)" style="fill: #e377c2"/>
   </g>
   <g id="patch_38">
    <path d="M 445.385417 228.710897 
L 464.169717 228.710897 
L 464.169717 207.313566 
L 445.385417 207.313566 
z
" clip-path="url(#pf0dd48280d)" style="fill: #7f7f7f"/>
   </g>
   <g id="patch_39">
    <path d="M 426.601116 185.916234 
L 452.216071 185.916234 
L 452.216071 164.518903 
L 426.601116 164.518903 
z
" clip-path="url(#pf0dd48280d)" style="fill: #7f7f7f"/>
   </g>
   <g id="patch_40">
    <path d="M 394.89045 143.121572 
L 457.144519 143.121572 
L 457.144519 121.724241 
L 394.89045 121.724241 
z
" clip-path="url(#pf0dd48280d)" style="fill: #7f7f7f"/>
   </g>
   <g id="patch_41">
    <path d="M 398.709276 100.326909 
L 442.34957 100.326909 
L 442.34957 78.929578 
L 398.709276 78.929578 
z
" clip-path="url(#pf0dd48280d)" style="fill: #7f7f7f"/>
   </g>
   <g id="patch_42">
    <path d="M 353.079271 57.532247 
L 437.262476 57.532247 
L 437.262476 36.134916 
L 353.079271 36.134916 
z
" clip-path="url(#pf0dd48280d)" style="fill: #7f7f7f"/>
   </g>
   <g id="patch_43">
    <path d="M 464.169717 228.710897 
L 472.708036 228.710897 
L 472.708036 207.313566 
L 464.169717 207.313566 
z
" clip-path="url(#pf0dd48280d)" style="fill: #bcbd22"/>
   </g>
   <g id="patch_44">
    <path d="M 452.216071 185.916234 
L 472.708036 185.916234 
L 472.708036 164.518903 
L 452.216071 164.518903 
z
" clip-path="url(#pf0dd48280d)" style="fill: #bcbd22"/>
   </g>
   <g id="patch_45">
    <path d="M 457.144519 143.121572 
L 472.708036 143.121572 
L 472.708036 121.724241 
L 457.144519 121.724241 
z
" clip-path="url(#pf0dd48280d)" style="fill: #bcbd22"/>
   </g>
   <g id="patch_46">
    <path d="M 442.34957 100.326909 
L 472.708036 100.326909 
L 472.708036 78.929578 
L 442.34957 78.929578 
z
" clip-path="url(#pf0dd48280d)" style="fill: #bcbd22"/>
   </g>
   <g id="patch_47">
    <path d="M 437.262476 57.532247 
L 472.708036 57.532247 
L 472.708036 36.134916 
L 437.262476 36.134916 
z
" clip-path="url(#pf0dd48280d)" style="fill: #bcbd22"/>
   </g>
   <g id="matplotlib.axis_1">
    <g id="xtick_1">
     <g id="line2d_1">
      <defs>
       <path id="m4c99cd72f3" d="M 0 0 
L 0 3.5 
" style="stroke: #000000; stroke-width: 0.8"/>
      </defs>
      <g>
       <use xlink:href="#m4c99cd72f3" x="62.86875" y="239.409562" style="stroke: #000000; stroke-width: 0.8"/>
      </g>
     </g>
     <g id="text_1">
      <!-- 0 -->
      <g transform="translate(60.088281 253.583)scale(0.1 -0.1)">
       <defs>
        <path id="Helvetica-30" d="M 1731 4475 
Q 2600 4475 2988 3759 
Q 3288 3206 3288 2244 
Q 3288 1331 3016 734 
Q 2622 -122 1728 -122 
Q 922 -122 528 578 
Q 200 1163 200 2147 
Q 200 2909 397 3456 
Q 766 4475 1731 4475 
z
M 1725 391 
Q 2163 391 2422 778 
Q 2681 1166 2681 2222 
Q 2681 2984 2493 3476 
Q 2306 3969 1766 3969 
Q 1269 3969 1039 3501 
Q 809 3034 809 2125 
Q 809 1441 956 1025 
Q 1181 391 1725 391 
z
" transform="scale(0.015625)"/>
       </defs>
       <use xlink:href="#Helvetica-30"/>
      </g>
     </g>
    </g>
    <g id="xtick_2">
     <g id="line2d_2">
      <g>
       <use xlink:href="#m4c99cd72f3" x="144.836607" y="239.409562" style="stroke: #000000; stroke-width: 0.8"/>
      </g>
     </g>
     <g id="text_2">
      <!-- 20 -->
      <g transform="translate(139.27567 253.583)scale(0.1 -0.1)">
       <defs>
        <path id="Helvetica-32" d="M 200 0 
Q 231 578 439 1006 
Q 647 1434 1250 1784 
L 1850 2131 
Q 2253 2366 2416 2531 
Q 2672 2791 2672 3125 
Q 2672 3516 2437 3745 
Q 2203 3975 1813 3975 
Q 1234 3975 1013 3538 
Q 894 3303 881 2888 
L 309 2888 
Q 319 3472 525 3841 
Q 891 4491 1816 4491 
Q 2584 4491 2939 4075 
Q 3294 3659 3294 3150 
Q 3294 2613 2916 2231 
Q 2697 2009 2131 1694 
L 1703 1456 
Q 1397 1288 1222 1134 
Q 909 863 828 531 
L 3272 531 
L 3272 0 
L 200 0 
z
" transform="scale(0.015625)"/>
       </defs>
       <use xlink:href="#Helvetica-32"/>
       <use xlink:href="#Helvetica-30" x="55.615234"/>
      </g>
     </g>
    </g>
    <g id="xtick_3">
     <g id="line2d_3">
      <g>
       <use xlink:href="#m4c99cd72f3" x="226.804464" y="239.409562" style="stroke: #000000; stroke-width: 0.8"/>
      </g>
     </g>
     <g id="text_3">
      <!-- 40 -->
      <g transform="translate(221.243527 253.583)scale(0.1 -0.1)">
       <defs>
        <path id="Helvetica-34" d="M 2116 1584 
L 2116 3613 
L 681 1584 
L 2116 1584 
z
M 2125 0 
L 2125 1094 
L 163 1094 
L 163 1644 
L 2213 4488 
L 2688 4488 
L 2688 1584 
L 3347 1584 
L 3347 1094 
L 2688 1094 
L 2688 0 
L 2125 0 
z
" transform="scale(0.015625)"/>
       </defs>
       <use xlink:href="#Helvetica-34"/>
       <use xlink:href="#Helvetica-30" x="55.615234"/>
      </g>
     </g>
    </g>
    <g id="xtick_4">
     <g id="line2d_4">
      <g>
       <use xlink:href="#m4c99cd72f3" x="308.772321" y="239.409562" style="stroke: #000000; stroke-width: 0.8"/>
      </g>
     </g>
     <g id="text_4">
      <!-- 60 -->
      <g transform="translate(303.211384 253.583)scale(0.1 -0.1)">
       <defs>
        <path id="Helvetica-36" d="M 1872 4494 
Q 2622 4494 2917 4105 
Q 3213 3716 3213 3303 
L 2656 3303 
Q 2606 3569 2497 3719 
Q 2294 4000 1881 4000 
Q 1409 4000 1131 3564 
Q 853 3128 822 2316 
Q 1016 2600 1309 2741 
Q 1578 2866 1909 2866 
Q 2472 2866 2890 2506 
Q 3309 2147 3309 1434 
Q 3309 825 2912 354 
Q 2516 -116 1781 -116 
Q 1153 -116 697 361 
Q 241 838 241 1966 
Q 241 2800 444 3381 
Q 834 4494 1872 4494 
z
M 1831 384 
Q 2275 384 2495 682 
Q 2716 981 2716 1388 
Q 2716 1731 2519 2042 
Q 2322 2353 1803 2353 
Q 1441 2353 1167 2112 
Q 894 1872 894 1388 
Q 894 963 1142 673 
Q 1391 384 1831 384 
z
" transform="scale(0.015625)"/>
       </defs>
       <use xlink:href="#Helvetica-36"/>
       <use xlink:href="#Helvetica-30" x="55.615234"/>
      </g>
     </g>
    </g>
    <g id="xtick_5">
     <g id="line2d_5">
      <g>
       <use xlink:href="#m4c99cd72f3" x="390.740179" y="239.409562" style="stroke: #000000; stroke-width: 0.8"/>
      </g>
     </g>
     <g id="text_5">
      <!-- 80 -->
      <g transform="translate(385.179241 253.583)scale(0.1 -0.1)">
       <defs>
        <path id="Helvetica-38" d="M 1741 2600 
Q 2113 2600 2322 2808 
Q 2531 3016 2531 3303 
Q 2531 3553 2331 3762 
Q 2131 3972 1722 3972 
Q 1316 3972 1134 3762 
Q 953 3553 953 3272 
Q 953 2956 1187 2778 
Q 1422 2600 1741 2600 
z
M 1775 384 
Q 2166 384 2423 595 
Q 2681 806 2681 1225 
Q 2681 1659 2415 1884 
Q 2150 2109 1734 2109 
Q 1331 2109 1076 1879 
Q 822 1650 822 1244 
Q 822 894 1055 639 
Q 1288 384 1775 384 
z
M 975 2384 
Q 741 2484 609 2619 
Q 363 2869 363 3269 
Q 363 3769 725 4128 
Q 1088 4488 1753 4488 
Q 2397 4488 2762 4148 
Q 3128 3809 3128 3356 
Q 3128 2938 2916 2678 
Q 2797 2531 2547 2391 
Q 2825 2263 2984 2097 
Q 3281 1784 3281 1284 
Q 3281 694 2884 283 
Q 2488 -128 1763 -128 
Q 1109 -128 657 226 
Q 206 581 206 1256 
Q 206 1653 400 1942 
Q 594 2231 975 2384 
z
" transform="scale(0.015625)"/>
       </defs>
       <use xlink:href="#Helvetica-38"/>
       <use xlink:href="#Helvetica-30" x="55.615234"/>
      </g>
     </g>
    </g>
    <g id="xtick_6">
     <g id="line2d_6">
      <g>
       <use xlink:href="#m4c99cd72f3" x="472.708036" y="239.409562" style="stroke: #000000; stroke-width: 0.8"/>
      </g>
     </g>
     <g id="text_6">
      <!-- 100 -->
      <g transform="translate(464.366629 253.583)scale(0.1 -0.1)">
       <defs>
        <path id="Helvetica-31" d="M 613 3169 
L 613 3600 
Q 1222 3659 1462 3798 
Q 1703 3938 1822 4456 
L 2266 4456 
L 2266 0 
L 1666 0 
L 1666 3169 
L 613 3169 
z
" transform="scale(0.015625)"/>
       </defs>
       <use xlink:href="#Helvetica-31"/>
       <use xlink:href="#Helvetica-30" x="55.615234"/>
       <use xlink:href="#Helvetica-30" x="111.230469"/>
      </g>
     </g>
    </g>
    <g id="text_7">
     <!-- Ranking of importance -->
     <g transform="translate(228.010937 266.942375)scale(0.1 -0.1)">
      <defs>
       <path id="Helvetica-52" d="M 2622 2488 
Q 3059 2488 3314 2663 
Q 3569 2838 3569 3294 
Q 3569 3784 3213 3963 
Q 3022 4056 2703 4056 
L 1184 4056 
L 1184 2488 
L 2622 2488 
z
M 563 4591 
L 2688 4591 
Q 3213 4591 3553 4438 
Q 4200 4144 4200 3353 
Q 4200 2941 4029 2678 
Q 3859 2416 3553 2256 
Q 3822 2147 3958 1969 
Q 4094 1791 4109 1391 
L 4131 775 
Q 4141 513 4175 384 
Q 4231 166 4375 103 
L 4375 0 
L 3613 0 
Q 3581 59 3562 153 
Q 3544 247 3531 516 
L 3494 1281 
Q 3472 1731 3159 1884 
Q 2981 1969 2600 1969 
L 1184 1969 
L 1184 0 
L 563 0 
L 563 4591 
z
" transform="scale(0.015625)"/>
       <path id="Helvetica-61" d="M 844 891 
Q 844 647 1022 506 
Q 1200 366 1444 366 
Q 1741 366 2019 503 
Q 2488 731 2488 1250 
L 2488 1703 
Q 2384 1638 2221 1594 
Q 2059 1550 1903 1531 
L 1563 1488 
Q 1256 1447 1103 1359 
Q 844 1213 844 891 
z
M 2206 2028 
Q 2400 2053 2466 2191 
Q 2503 2266 2503 2406 
Q 2503 2694 2298 2823 
Q 2094 2953 1713 2953 
Q 1272 2953 1088 2716 
Q 984 2584 953 2325 
L 428 2325 
Q 444 2944 830 3186 
Q 1216 3428 1725 3428 
Q 2316 3428 2684 3203 
Q 3050 2978 3050 2503 
L 3050 575 
Q 3050 488 3086 434 
Q 3122 381 3238 381 
Q 3275 381 3322 386 
Q 3369 391 3422 400 
L 3422 -16 
Q 3291 -53 3222 -62 
Q 3153 -72 3034 -72 
Q 2744 -72 2613 134 
Q 2544 244 2516 444 
Q 2344 219 2022 53 
Q 1700 -113 1313 -113 
Q 847 -113 551 170 
Q 256 453 256 878 
Q 256 1344 547 1600 
Q 838 1856 1309 1916 
L 2206 2028 
z
M 1741 3428 
L 1741 3428 
z
" transform="scale(0.015625)"/>
       <path id="Helvetica-6e" d="M 413 3347 
L 947 3347 
L 947 2872 
Q 1184 3166 1450 3294 
Q 1716 3422 2041 3422 
Q 2753 3422 3003 2925 
Q 3141 2653 3141 2147 
L 3141 0 
L 2569 0 
L 2569 2109 
Q 2569 2416 2478 2603 
Q 2328 2916 1934 2916 
Q 1734 2916 1606 2875 
Q 1375 2806 1200 2600 
Q 1059 2434 1017 2257 
Q 975 2081 975 1753 
L 975 0 
L 413 0 
L 413 3347 
z
M 1734 3428 
L 1734 3428 
z
" transform="scale(0.015625)"/>
       <path id="Helvetica-6b" d="M 400 4591 
L 941 4591 
L 941 1925 
L 2384 3347 
L 3103 3347 
L 1822 2094 
L 3175 0 
L 2456 0 
L 1413 1688 
L 941 1256 
L 941 0 
L 400 0 
L 400 4591 
z
" transform="scale(0.015625)"/>
       <path id="Helvetica-69" d="M 413 3331 
L 984 3331 
L 984 0 
L 413 0 
L 413 3331 
z
M 413 4591 
L 984 4591 
L 984 3953 
L 413 3953 
L 413 4591 
z
" transform="scale(0.015625)"/>
       <path id="Helvetica-67" d="M 1594 3406 
Q 1988 3406 2281 3213 
Q 2441 3103 2606 2894 
L 2606 3316 
L 3125 3316 
L 3125 272 
Q 3125 -366 2938 -734 
Q 2588 -1416 1616 -1416 
Q 1075 -1416 706 -1173 
Q 338 -931 294 -416 
L 866 -416 
Q 906 -641 1028 -763 
Q 1219 -950 1628 -950 
Q 2275 -950 2475 -494 
Q 2594 -225 2584 466 
Q 2416 209 2178 84 
Q 1941 -41 1550 -41 
Q 1006 -41 598 345 
Q 191 731 191 1622 
Q 191 2463 602 2934 
Q 1013 3406 1594 3406 
z
M 2606 1688 
Q 2606 2309 2350 2609 
Q 2094 2909 1697 2909 
Q 1103 2909 884 2353 
Q 769 2056 769 1575 
Q 769 1009 998 714 
Q 1228 419 1616 419 
Q 2222 419 2469 966 
Q 2606 1275 2606 1688 
z
M 1659 3428 
L 1659 3428 
z
" transform="scale(0.015625)"/>
       <path id="Helvetica-20" transform="scale(0.015625)"/>
       <path id="Helvetica-6f" d="M 1741 363 
Q 2300 363 2508 786 
Q 2716 1209 2716 1728 
Q 2716 2197 2566 2491 
Q 2328 2953 1747 2953 
Q 1231 2953 997 2559 
Q 763 2166 763 1609 
Q 763 1075 997 719 
Q 1231 363 1741 363 
z
M 1763 3444 
Q 2409 3444 2856 3012 
Q 3303 2581 3303 1744 
Q 3303 934 2909 406 
Q 2516 -122 1688 -122 
Q 997 -122 590 345 
Q 184 813 184 1600 
Q 184 2444 612 2944 
Q 1041 3444 1763 3444 
z
M 1744 3428 
L 1744 3428 
z
" transform="scale(0.015625)"/>
       <path id="Helvetica-66" d="M 553 3856 
Q 566 4206 675 4369 
Q 872 4656 1434 4656 
Q 1488 4656 1544 4653 
Q 1600 4650 1672 4644 
L 1672 4131 
Q 1584 4138 1545 4139 
Q 1506 4141 1472 4141 
Q 1216 4141 1166 4008 
Q 1116 3875 1116 3331 
L 1672 3331 
L 1672 2888 
L 1109 2888 
L 1109 0 
L 553 0 
L 553 2888 
L 88 2888 
L 88 3331 
L 553 3331 
L 553 3856 
z
" transform="scale(0.015625)"/>
       <path id="Helvetica-6d" d="M 413 3347 
L 969 3347 
L 969 2872 
Q 1169 3119 1331 3231 
Q 1609 3422 1963 3422 
Q 2363 3422 2606 3225 
Q 2744 3113 2856 2894 
Q 3044 3163 3297 3292 
Q 3550 3422 3866 3422 
Q 4541 3422 4784 2934 
Q 4916 2672 4916 2228 
L 4916 0 
L 4331 0 
L 4331 2325 
Q 4331 2659 4164 2784 
Q 3997 2909 3756 2909 
Q 3425 2909 3186 2687 
Q 2947 2466 2947 1947 
L 2947 0 
L 2375 0 
L 2375 2184 
Q 2375 2525 2294 2681 
Q 2166 2916 1816 2916 
Q 1497 2916 1236 2669 
Q 975 2422 975 1775 
L 975 0 
L 413 0 
L 413 3347 
z
" transform="scale(0.015625)"/>
       <path id="Helvetica-70" d="M 1825 378 
Q 2219 378 2480 708 
Q 2741 1038 2741 1694 
Q 2741 2094 2625 2381 
Q 2406 2934 1825 2934 
Q 1241 2934 1025 2350 
Q 909 2038 909 1556 
Q 909 1169 1025 897 
Q 1244 378 1825 378 
z
M 369 3331 
L 916 3331 
L 916 2888 
Q 1084 3116 1284 3241 
Q 1569 3428 1953 3428 
Q 2522 3428 2919 2992 
Q 3316 2556 3316 1747 
Q 3316 653 2744 184 
Q 2381 -113 1900 -113 
Q 1522 -113 1266 53 
Q 1116 147 931 375 
L 931 -1334 
L 369 -1334 
L 369 3331 
z
" transform="scale(0.015625)"/>
       <path id="Helvetica-72" d="M 428 3347 
L 963 3347 
L 963 2769 
Q 1028 2938 1284 3180 
Q 1541 3422 1875 3422 
Q 1891 3422 1928 3419 
Q 1966 3416 2056 3406 
L 2056 2813 
Q 2006 2822 1964 2825 
Q 1922 2828 1872 2828 
Q 1447 2828 1219 2554 
Q 991 2281 991 1925 
L 991 0 
L 428 0 
L 428 3347 
z
" transform="scale(0.015625)"/>
       <path id="Helvetica-74" d="M 525 4281 
L 1094 4281 
L 1094 3347 
L 1628 3347 
L 1628 2888 
L 1094 2888 
L 1094 703 
Q 1094 528 1213 469 
Q 1278 434 1431 434 
Q 1472 434 1519 436 
Q 1566 438 1628 444 
L 1628 0 
Q 1531 -28 1426 -40 
Q 1322 -53 1200 -53 
Q 806 -53 665 148 
Q 525 350 525 672 
L 525 2888 
L 72 2888 
L 72 3347 
L 525 3347 
L 525 4281 
z
" transform="scale(0.015625)"/>
       <path id="Helvetica-63" d="M 1703 3444 
Q 2269 3444 2623 3169 
Q 2978 2894 3050 2222 
L 2503 2222 
Q 2453 2531 2275 2736 
Q 2097 2941 1703 2941 
Q 1166 2941 934 2416 
Q 784 2075 784 1575 
Q 784 1072 996 728 
Q 1209 384 1666 384 
Q 2016 384 2220 598 
Q 2425 813 2503 1184 
L 3050 1184 
Q 2956 519 2581 211 
Q 2206 -97 1622 -97 
Q 966 -97 575 383 
Q 184 863 184 1581 
Q 184 2463 612 2953 
Q 1041 3444 1703 3444 
z
M 1616 3428 
L 1616 3428 
z
" transform="scale(0.015625)"/>
       <path id="Helvetica-65" d="M 1806 3422 
Q 2163 3422 2497 3255 
Q 2831 3088 3006 2822 
Q 3175 2569 3231 2231 
Q 3281 2000 3281 1494 
L 828 1494 
Q 844 984 1069 676 
Q 1294 369 1766 369 
Q 2206 369 2469 659 
Q 2619 828 2681 1050 
L 3234 1050 
Q 3213 866 3089 639 
Q 2966 413 2813 269 
Q 2556 19 2178 -69 
Q 1975 -119 1719 -119 
Q 1094 -119 659 336 
Q 225 791 225 1609 
Q 225 2416 662 2919 
Q 1100 3422 1806 3422 
z
M 2703 1941 
Q 2669 2306 2544 2525 
Q 2313 2931 1772 2931 
Q 1384 2931 1121 2651 
Q 859 2372 844 1941 
L 2703 1941 
z
M 1753 3428 
L 1753 3428 
z
" transform="scale(0.015625)"/>
      </defs>
      <use xlink:href="#Helvetica-52"/>
      <use xlink:href="#Helvetica-61" x="72.216797"/>
      <use xlink:href="#Helvetica-6e" x="127.832031"/>
      <use xlink:href="#Helvetica-6b" x="183.447266"/>
      <use xlink:href="#Helvetica-69" x="233.447266"/>
      <use xlink:href="#Helvetica-6e" x="255.664062"/>
      <use xlink:href="#Helvetica-67" x="311.279297"/>
      <use xlink:href="#Helvetica-20" x="366.894531"/>
      <use xlink:href="#Helvetica-6f" x="394.677734"/>
      <use xlink:href="#Helvetica-66" x="450.292969"/>
      <use xlink:href="#Helvetica-20" x="478.076172"/>
      <use xlink:href="#Helvetica-69" x="505.859375"/>
      <use xlink:href="#Helvetica-6d" x="528.076172"/>
      <use xlink:href="#Helvetica-70" x="611.376953"/>
      <use xlink:href="#Helvetica-6f" x="666.992188"/>
      <use xlink:href="#Helvetica-72" x="722.607422"/>
      <use xlink:href="#Helvetica-74" x="755.908203"/>
      <use xlink:href="#Helvetica-61" x="783.691406"/>
      <use xlink:href="#Helvetica-6e" x="839.306641"/>
      <use xlink:href="#Helvetica-63" x="894.921875"/>
      <use xlink:href="#Helvetica-65" x="944.921875"/>
     </g>
    </g>
   </g>
   <g id="matplotlib.axis_2">
    <g id="ytick_1">
     <g id="line2d_7">
      <defs>
       <path id="m8e343aef83" d="M 0 0 
L -3.5 0 
" style="stroke: #000000; stroke-width: 0.8"/>
      </defs>
      <g>
       <use xlink:href="#m8e343aef83" x="62.86875" y="218.012231" style="stroke: #000000; stroke-width: 0.8"/>
      </g>
     </g>
     <g id="text_8">
      <!-- Rank 1 -->
      <g transform="translate(24.185938 221.59895)scale(0.1 -0.1)">
       <use xlink:href="#Helvetica-52"/>
       <use xlink:href="#Helvetica-61" x="72.216797"/>
       <use xlink:href="#Helvetica-6e" x="127.832031"/>
       <use xlink:href="#Helvetica-6b" x="183.447266"/>
       <use xlink:href="#Helvetica-20" x="233.447266"/>
       <use xlink:href="#Helvetica-31" x="261.230469"/>
      </g>
     </g>
    </g>
    <g id="ytick_2">
     <g id="line2d_8">
      <g>
       <use xlink:href="#m8e343aef83" x="62.86875" y="175.217569" style="stroke: #000000; stroke-width: 0.8"/>
      </g>
     </g>
     <g id="text_9">
      <!-- Rank 2 -->
      <g transform="translate(24.185938 178.804287)scale(0.1 -0.1)">
       <use xlink:href="#Helvetica-52"/>
       <use xlink:href="#Helvetica-61" x="72.216797"/>
       <use xlink:href="#Helvetica-6e" x="127.832031"/>
       <use xlink:href="#Helvetica-6b" x="183.447266"/>
       <use xlink:href="#Helvetica-20" x="233.447266"/>
       <use xlink:href="#Helvetica-32" x="261.230469"/>
      </g>
     </g>
    </g>
    <g id="ytick_3">
     <g id="line2d_9">
      <g>
       <use xlink:href="#m8e343aef83" x="62.86875" y="132.422906" style="stroke: #000000; stroke-width: 0.8"/>
      </g>
     </g>
     <g id="text_10">
      <!-- Rank 3 -->
      <g transform="translate(24.185938 136.009625)scale(0.1 -0.1)">
       <defs>
        <path id="Helvetica-33" d="M 1663 -122 
Q 869 -122 511 314 
Q 153 750 153 1375 
L 741 1375 
Q 778 941 903 744 
Q 1122 391 1694 391 
Q 2138 391 2406 628 
Q 2675 866 2675 1241 
Q 2675 1703 2392 1887 
Q 2109 2072 1606 2072 
Q 1550 2072 1492 2070 
Q 1434 2069 1375 2066 
L 1375 2563 
Q 1463 2553 1522 2550 
Q 1581 2547 1650 2547 
Q 1966 2547 2169 2647 
Q 2525 2822 2525 3272 
Q 2525 3606 2287 3787 
Q 2050 3969 1734 3969 
Q 1172 3969 956 3594 
Q 838 3388 822 3006 
L 266 3006 
Q 266 3506 466 3856 
Q 809 4481 1675 4481 
Q 2359 4481 2734 4176 
Q 3109 3872 3109 3294 
Q 3109 2881 2888 2625 
Q 2750 2466 2531 2375 
Q 2884 2278 3082 2001 
Q 3281 1725 3281 1325 
Q 3281 684 2859 281 
Q 2438 -122 1663 -122 
z
" transform="scale(0.015625)"/>
       </defs>
       <use xlink:href="#Helvetica-52"/>
       <use xlink:href="#Helvetica-61" x="72.216797"/>
       <use xlink:href="#Helvetica-6e" x="127.832031"/>
       <use xlink:href="#Helvetica-6b" x="183.447266"/>
       <use xlink:href="#Helvetica-20" x="233.447266"/>
       <use xlink:href="#Helvetica-33" x="261.230469"/>
      </g>
     </g>
    </g>
    <g id="ytick_4">
     <g id="line2d_10">
      <g>
       <use xlink:href="#m8e343aef83" x="62.86875" y="89.628244" style="stroke: #000000; stroke-width: 0.8"/>
      </g>
     </g>
     <g id="text_11">
      <!-- Rank 4 -->
      <g transform="translate(24.185938 93.214963)scale(0.1 -0.1)">
       <use xlink:href="#Helvetica-52"/>
       <use xlink:href="#Helvetica-61" x="72.216797"/>
       <use xlink:href="#Helvetica-6e" x="127.832031"/>
       <use xlink:href="#Helvetica-6b" x="183.447266"/>
       <use xlink:href="#Helvetica-20" x="233.447266"/>
       <use xlink:href="#Helvetica-34" x="261.230469"/>
      </g>
     </g>
    </g>
    <g id="ytick_5">
     <g id="line2d_11">
      <g>
       <use xlink:href="#m8e343aef83" x="62.86875" y="46.833581" style="stroke: #000000; stroke-width: 0.8"/>
      </g>
     </g>
     <g id="text_12">
      <!-- Rank 5 -->
      <g transform="translate(24.185938 50.4203)scale(0.1 -0.1)">
       <defs>
        <path id="Helvetica-35" d="M 791 1141 
Q 847 659 1238 475 
Q 1438 381 1700 381 
Q 2200 381 2440 700 
Q 2681 1019 2681 1406 
Q 2681 1875 2395 2131 
Q 2109 2388 1709 2388 
Q 1419 2388 1211 2275 
Q 1003 2163 856 1963 
L 369 1991 
L 709 4400 
L 3034 4400 
L 3034 3856 
L 1131 3856 
L 941 2613 
Q 1097 2731 1238 2791 
Q 1488 2894 1816 2894 
Q 2431 2894 2859 2497 
Q 3288 2100 3288 1491 
Q 3288 856 2895 371 
Q 2503 -113 1644 -113 
Q 1097 -113 676 195 
Q 256 503 206 1141 
L 791 1141 
z
" transform="scale(0.015625)"/>
       </defs>
       <use xlink:href="#Helvetica-52"/>
       <use xlink:href="#Helvetica-61" x="72.216797"/>
       <use xlink:href="#Helvetica-6e" x="127.832031"/>
       <use xlink:href="#Helvetica-6b" x="183.447266"/>
       <use xlink:href="#Helvetica-20" x="233.447266"/>
       <use xlink:href="#Helvetica-35" x="261.230469"/>
      </g>
     </g>
    </g>
    <g id="text_13">
     <!-- Percentage -->
     <g transform="translate(17.973438 157.994781)rotate(-90)scale(0.1 -0.1)">
      <defs>
       <path id="Helvetica-50" d="M 547 4591 
L 2613 4591 
Q 3225 4591 3600 4245 
Q 3975 3900 3975 3275 
Q 3975 2738 3640 2339 
Q 3306 1941 2613 1941 
L 1169 1941 
L 1169 0 
L 547 0 
L 547 4591 
z
M 3347 3272 
Q 3347 3778 2972 3959 
Q 2766 4056 2406 4056 
L 1169 4056 
L 1169 2466 
L 2406 2466 
Q 2825 2466 3086 2644 
Q 3347 2822 3347 3272 
z
" transform="scale(0.015625)"/>
      </defs>
      <use xlink:href="#Helvetica-50"/>
      <use xlink:href="#Helvetica-65" x="66.699219"/>
      <use xlink:href="#Helvetica-72" x="122.314453"/>
      <use xlink:href="#Helvetica-63" x="155.615234"/>
      <use xlink:href="#Helvetica-65" x="205.615234"/>
      <use xlink:href="#Helvetica-6e" x="261.230469"/>
      <use xlink:href="#Helvetica-74" x="316.845703"/>
      <use xlink:href="#Helvetica-61" x="344.628906"/>
      <use xlink:href="#Helvetica-67" x="400.244141"/>
      <use xlink:href="#Helvetica-65" x="455.859375"/>
     </g>
    </g>
   </g>
   <g id="patch_48">
    <path d="M 62.86875 239.409562 
L 493.2 239.409562 
" style="fill: none; stroke: #000000; stroke-width: 0.8; stroke-linejoin: miter; stroke-linecap: square"/>
   </g>
   <g id="text_14">
    <!-- 24 -->
    <g transform="translate(105.976228 222.291697)scale(0.1 -0.1)">
     <use xlink:href="#Helvetica-32"/>
     <use xlink:href="#Helvetica-34" x="55.615234"/>
    </g>
   </g>
   <g id="text_15">
    <!-- 19 -->
    <g transform="translate(95.730246 179.497035)scale(0.1 -0.1)">
     <defs>
      <path id="Helvetica-39" d="M 850 1081 
Q 875 616 1209 438 
Q 1381 344 1597 344 
Q 2000 344 2284 680 
Q 2569 1016 2688 2044 
Q 2500 1747 2223 1626 
Q 1947 1506 1628 1506 
Q 981 1506 604 1909 
Q 228 2313 228 2947 
Q 228 3556 600 4018 
Q 972 4481 1697 4481 
Q 2675 4481 3047 3600 
Q 3253 3116 3253 2388 
Q 3253 1566 3006 931 
Q 2597 -125 1619 -125 
Q 963 -125 622 219 
Q 281 563 281 1081 
L 850 1081 
z
M 1703 2000 
Q 2038 2000 2314 2220 
Q 2591 2441 2591 2991 
Q 2591 3484 2342 3726 
Q 2094 3969 1709 3969 
Q 1297 3969 1055 3692 
Q 813 3416 813 2953 
Q 813 2516 1025 2258 
Q 1238 2000 1703 2000 
z
" transform="scale(0.015625)"/>
     </defs>
     <use xlink:href="#Helvetica-31"/>
     <use xlink:href="#Helvetica-39" x="55.615234"/>
    </g>
   </g>
   <g id="text_16">
    <!-- 11 -->
    <g transform="translate(80.653088 136.702372)scale(0.1 -0.1)">
     <use xlink:href="#Helvetica-31"/>
     <use xlink:href="#Helvetica-31" x="55.615234"/>
    </g>
   </g>
   <g id="text_17">
    <!-- 10 -->
    <g transform="translate(77.230556 93.90771)scale(0.1 -0.1)">
     <use xlink:href="#Helvetica-31"/>
     <use xlink:href="#Helvetica-30" x="55.615234"/>
    </g>
   </g>
   <g id="text_18">
    <!-- 11 -->
    <g transform="translate(80.568961 51.113047)scale(0.1 -0.1)">
     <use xlink:href="#Helvetica-31"/>
     <use xlink:href="#Helvetica-31" x="55.615234"/>
    </g>
   </g>
   <g id="text_19">
    <!-- 21 -->
    <g transform="translate(198.190067 222.291697)scale(0.1 -0.1)">
     <use xlink:href="#Helvetica-32"/>
     <use xlink:href="#Helvetica-31" x="55.615234"/>
    </g>
   </g>
   <g id="text_20">
    <!-- 10 -->
    <g transform="translate(155.498475 179.497035)scale(0.1 -0.1)">
     <use xlink:href="#Helvetica-31"/>
     <use xlink:href="#Helvetica-30" x="55.615234"/>
    </g>
   </g>
   <g id="text_21">
    <!-- 14 -->
    <g transform="translate(133.396119 136.702372)scale(0.1 -0.1)">
     <use xlink:href="#Helvetica-31"/>
     <use xlink:href="#Helvetica-34" x="55.615234"/>
    </g>
   </g>
   <g id="text_22">
    <!-- 14 -->
    <g transform="translate(126.563062 93.90771)scale(0.1 -0.1)">
     <use xlink:href="#Helvetica-31"/>
     <use xlink:href="#Helvetica-34" x="55.615234"/>
    </g>
   </g>
   <g id="text_23">
    <!-- 10 -->
    <g transform="translate(123.768237 51.113047)scale(0.1 -0.1)">
     <use xlink:href="#Helvetica-31"/>
     <use xlink:href="#Helvetica-30" x="55.615234"/>
    </g>
   </g>
   <g id="text_24">
    <!-- 21 -->
    <g transform="translate(284.427083 222.291697)scale(0.1 -0.1)">
     <use xlink:href="#Helvetica-32"/>
     <use xlink:href="#Helvetica-31" x="55.615234"/>
    </g>
   </g>
   <g id="text_25">
    <!-- 19 -->
    <g transform="translate(216.120536 179.497035)scale(0.1 -0.1)">
     <use xlink:href="#Helvetica-31"/>
     <use xlink:href="#Helvetica-39" x="55.615234"/>
    </g>
   </g>
   <g id="text_26">
    <!-- 12 -->
    <g transform="translate(187.868429 136.702372)scale(0.1 -0.1)">
     <use xlink:href="#Helvetica-31"/>
     <use xlink:href="#Helvetica-32" x="55.615234"/>
    </g>
   </g>
   <g id="text_27">
    <!-- 11 -->
    <g transform="translate(177.792973 93.90771)scale(0.1 -0.1)">
     <use xlink:href="#Helvetica-31"/>
     <use xlink:href="#Helvetica-31" x="55.615234"/>
    </g>
   </g>
   <g id="text_28">
    <!-- 5 -->
    <g transform="translate(157.563571 51.113047)scale(0.1 -0.1)">
     <use xlink:href="#Helvetica-35"/>
    </g>
   </g>
   <g id="text_29">
    <!-- 11 -->
    <g transform="translate(350.172135 222.291697)scale(0.1 -0.1)">
     <use xlink:href="#Helvetica-31"/>
     <use xlink:href="#Helvetica-31" x="55.615234"/>
    </g>
   </g>
   <g id="text_30">
    <!-- 11 -->
    <g transform="translate(277.596429 179.497035)scale(0.1 -0.1)">
     <use xlink:href="#Helvetica-31"/>
     <use xlink:href="#Helvetica-31" x="55.615234"/>
    </g>
   </g>
   <g id="text_31">
    <!-- 14 -->
    <g transform="translate(241.476099 136.702372)scale(0.1 -0.1)">
     <use xlink:href="#Helvetica-31"/>
     <use xlink:href="#Helvetica-34" x="55.615234"/>
    </g>
   </g>
   <g id="text_32">
    <!-- 14 -->
    <g transform="translate(229.022884 93.90771)scale(0.1 -0.1)">
     <use xlink:href="#Helvetica-31"/>
     <use xlink:href="#Helvetica-34" x="55.615234"/>
    </g>
   </g>
   <g id="text_33">
    <!-- 10 -->
    <g transform="translate(186.905641 51.113047)scale(0.1 -0.1)">
     <use xlink:href="#Helvetica-31"/>
     <use xlink:href="#Helvetica-30" x="55.615234"/>
    </g>
   </g>
   <g id="text_34">
    <!-- 6 -->
    <g transform="translate(387.95971 222.291697)scale(0.1 -0.1)">
     <use xlink:href="#Helvetica-36"/>
    </g>
   </g>
   <g id="text_35">
    <!-- 8 -->
    <g transform="translate(288.3532 136.702372)scale(0.1 -0.1)">
     <use xlink:href="#Helvetica-38"/>
    </g>
   </g>
   <g id="text_36">
    <!-- 7 -->
    <g transform="translate(276.392349 93.90771)scale(0.1 -0.1)">
     <defs>
      <path id="Helvetica-37" d="M 3347 4400 
L 3347 3909 
Q 3131 3700 2773 3181 
Q 2416 2663 2141 2063 
Q 1869 1478 1728 997 
Q 1638 688 1494 0 
L 872 0 
Q 1084 1281 1809 2550 
Q 2238 3294 2709 3834 
L 234 3834 
L 234 4400 
L 3347 4400 
z
" transform="scale(0.015625)"/>
     </defs>
     <use xlink:href="#Helvetica-37"/>
    </g>
   </g>
   <g id="text_37">
    <!-- 6 -->
    <g transform="translate(224.023996 51.113047)scale(0.1 -0.1)">
     <use xlink:href="#Helvetica-36"/>
    </g>
   </g>
   <g id="text_38">
    <!-- 5 -->
    <g transform="translate(411.01317 222.291697)scale(0.1 -0.1)">
     <use xlink:href="#Helvetica-35"/>
    </g>
   </g>
   <g id="text_39">
    <!-- 12 -->
    <g transform="translate(342.487649 179.497035)scale(0.1 -0.1)">
     <use xlink:href="#Helvetica-31"/>
     <use xlink:href="#Helvetica-32" x="55.615234"/>
    </g>
   </g>
   <g id="text_40">
    <!-- 10 -->
    <g transform="translate(321.022965 136.702372)scale(0.1 -0.1)">
     <use xlink:href="#Helvetica-31"/>
     <use xlink:href="#Helvetica-30" x="55.615234"/>
    </g>
   </g>
   <g id="text_41">
    <!-- 13 -->
    <g transform="translate(315.35477 93.90771)scale(0.1 -0.1)">
     <use xlink:href="#Helvetica-31"/>
     <use xlink:href="#Helvetica-33" x="55.615234"/>
    </g>
   </g>
   <g id="text_42">
    <!-- 13 -->
    <g transform="translate(261.119782 51.113047)scale(0.1 -0.1)">
     <use xlink:href="#Helvetica-31"/>
     <use xlink:href="#Helvetica-33" x="55.615234"/>
    </g>
   </g>
   <g id="text_43">
    <!-- 5 -->
    <g transform="translate(432.358966 222.291697)scale(0.1 -0.1)">
     <use xlink:href="#Helvetica-35"/>
    </g>
   </g>
   <g id="text_44">
    <!-- 13 -->
    <g transform="translate(394.571391 179.497035)scale(0.1 -0.1)">
     <use xlink:href="#Helvetica-31"/>
     <use xlink:href="#Helvetica-33" x="55.615234"/>
    </g>
   </g>
   <g id="text_45">
    <!-- 12 -->
    <g transform="translate(365.119597 136.702372)scale(0.1 -0.1)">
     <use xlink:href="#Helvetica-31"/>
     <use xlink:href="#Helvetica-32" x="55.615234"/>
    </g>
   </g>
   <g id="text_46">
    <!-- 12 -->
    <g transform="translate(367.533383 93.90771)scale(0.1 -0.1)">
     <use xlink:href="#Helvetica-31"/>
     <use xlink:href="#Helvetica-32" x="55.615234"/>
    </g>
   </g>
   <g id="text_47">
    <!-- 15 -->
    <g transform="translate(317.611143 51.113047)scale(0.1 -0.1)">
     <use xlink:href="#Helvetica-31"/>
     <use xlink:href="#Helvetica-35" x="55.615234"/>
    </g>
   </g>
   <g id="text_48">
    <!-- 5 -->
    <g transform="translate(451.997098 222.291697)scale(0.1 -0.1)">
     <use xlink:href="#Helvetica-35"/>
    </g>
   </g>
   <g id="text_49">
    <!-- 6 -->
    <g transform="translate(436.628125 179.497035)scale(0.1 -0.1)">
     <use xlink:href="#Helvetica-36"/>
    </g>
   </g>
   <g id="text_50">
    <!-- 15 -->
    <g transform="translate(420.456547 136.702372)scale(0.1 -0.1)">
     <use xlink:href="#Helvetica-31"/>
     <use xlink:href="#Helvetica-35" x="55.615234"/>
    </g>
   </g>
   <g id="text_51">
    <!-- 11 -->
    <g transform="translate(414.968485 93.90771)scale(0.1 -0.1)">
     <use xlink:href="#Helvetica-31"/>
     <use xlink:href="#Helvetica-31" x="55.615234"/>
    </g>
   </g>
   <g id="text_52">
    <!-- 21 -->
    <g transform="translate(389.609936 51.113047)scale(0.1 -0.1)">
     <use xlink:href="#Helvetica-32"/>
     <use xlink:href="#Helvetica-31" x="55.615234"/>
    </g>
   </g>
   <g id="text_53">
    <!-- 5 -->
    <g transform="translate(459.681585 179.497035)scale(0.1 -0.1)">
     <use xlink:href="#Helvetica-35"/>
    </g>
   </g>
   <g id="text_54">
    <!-- 7 -->
    <g transform="translate(454.748334 93.90771)scale(0.1 -0.1)">
     <use xlink:href="#Helvetica-37"/>
    </g>
   </g>
   <g id="text_55">
    <!-- 9 -->
    <g transform="translate(452.204787 51.113047)scale(0.1 -0.1)">
     <use xlink:href="#Helvetica-39"/>
    </g>
   </g>
   <g id="text_56">
    <!-- Reasons to choose current job: World -->
    <g transform="translate(177.658125 19.43625)scale(0.12 -0.12)">
     <defs>
      <path id="Helvetica-73" d="M 747 1050 
Q 772 769 888 619 
Q 1100 347 1625 347 
Q 1938 347 2175 483 
Q 2413 619 2413 903 
Q 2413 1119 2222 1231 
Q 2100 1300 1741 1391 
L 1294 1503 
Q 866 1609 663 1741 
Q 300 1969 300 2372 
Q 300 2847 642 3140 
Q 984 3434 1563 3434 
Q 2319 3434 2653 2991 
Q 2863 2709 2856 2384 
L 2325 2384 
Q 2309 2575 2191 2731 
Q 1997 2953 1519 2953 
Q 1200 2953 1036 2831 
Q 872 2709 872 2509 
Q 872 2291 1088 2159 
Q 1213 2081 1456 2022 
L 1828 1931 
Q 2434 1784 2641 1647 
Q 2969 1431 2969 969 
Q 2969 522 2630 197 
Q 2291 -128 1597 -128 
Q 850 -128 539 211 
Q 228 550 206 1050 
L 747 1050 
z
M 1578 3428 
L 1578 3428 
z
" transform="scale(0.015625)"/>
      <path id="Helvetica-68" d="M 413 4606 
L 975 4606 
L 975 2894 
Q 1175 3147 1334 3250 
Q 1606 3428 2013 3428 
Q 2741 3428 3000 2919 
Q 3141 2641 3141 2147 
L 3141 0 
L 2563 0 
L 2563 2109 
Q 2563 2478 2469 2650 
Q 2316 2925 1894 2925 
Q 1544 2925 1259 2684 
Q 975 2444 975 1775 
L 975 0 
L 413 0 
L 413 4606 
z
" transform="scale(0.015625)"/>
      <path id="Helvetica-75" d="M 975 3347 
L 975 1125 
Q 975 869 1056 706 
Q 1206 406 1616 406 
Q 2203 406 2416 931 
Q 2531 1213 2531 1703 
L 2531 3347 
L 3094 3347 
L 3094 0 
L 2563 0 
L 2569 494 
Q 2459 303 2297 172 
Q 1975 -91 1516 -91 
Q 800 -91 541 388 
Q 400 644 400 1072 
L 400 3347 
L 975 3347 
z
M 1747 3428 
L 1747 3428 
z
" transform="scale(0.015625)"/>
      <path id="Helvetica-6a" d="M 975 3941 
L 413 3941 
L 413 4591 
L 975 4591 
L 975 3941 
z
M -119 -847 
Q 259 -834 336 -779 
Q 413 -725 413 -438 
L 413 3331 
L 975 3331 
L 975 -497 
Q 975 -863 856 -1044 
Q 659 -1350 109 -1350 
Q 69 -1350 23 -1347 
Q -22 -1344 -119 -1334 
L -119 -847 
z
" transform="scale(0.015625)"/>
      <path id="Helvetica-62" d="M 369 4606 
L 916 4606 
L 916 2941 
Q 1100 3181 1356 3307 
Q 1613 3434 1913 3434 
Q 2538 3434 2927 3004 
Q 3316 2575 3316 1738 
Q 3316 944 2931 419 
Q 2547 -106 1866 -106 
Q 1484 -106 1222 78 
Q 1066 188 888 428 
L 888 0 
L 369 0 
L 369 4606 
z
M 1831 391 
Q 2288 391 2514 753 
Q 2741 1116 2741 1709 
Q 2741 2238 2514 2584 
Q 2288 2931 1847 2931 
Q 1463 2931 1173 2647 
Q 884 2363 884 1709 
Q 884 1238 1003 944 
Q 1225 391 1831 391 
z
" transform="scale(0.015625)"/>
      <path id="Helvetica-3a" d="M 709 3303 
L 1363 3303 
L 1363 2622 
L 709 2622 
L 709 3303 
z
M 709 681 
L 1363 681 
L 1363 0 
L 709 0 
L 709 681 
z
" transform="scale(0.015625)"/>
      <path id="Helvetica-57" d="M 791 4591 
L 1656 856 
L 2694 4591 
L 3369 4591 
L 4406 856 
L 5272 4591 
L 5953 4591 
L 4747 0 
L 4094 0 
L 3034 3806 
L 1969 0 
L 1316 0 
L 116 4591 
L 791 4591 
z
" transform="scale(0.015625)"/>
      <path id="Helvetica-6c" d="M 428 4591 
L 991 4591 
L 991 0 
L 428 0 
L 428 4591 
z
" transform="scale(0.015625)"/>
      <path id="Helvetica-64" d="M 769 1634 
Q 769 1097 997 734 
Q 1225 372 1728 372 
Q 2119 372 2370 708 
Q 2622 1044 2622 1672 
Q 2622 2306 2362 2611 
Q 2103 2916 1722 2916 
Q 1297 2916 1033 2591 
Q 769 2266 769 1634 
z
M 1616 3406 
Q 2000 3406 2259 3244 
Q 2409 3150 2600 2916 
L 2600 4606 
L 3141 4606 
L 3141 0 
L 2634 0 
L 2634 466 
Q 2438 156 2169 18 
Q 1900 -119 1553 -119 
Q 994 -119 584 351 
Q 175 822 175 1603 
Q 175 2334 548 2870 
Q 922 3406 1616 3406 
z
" transform="scale(0.015625)"/>
     </defs>
     <use xlink:href="#Helvetica-52"/>
     <use xlink:href="#Helvetica-65" x="72.216797"/>
     <use xlink:href="#Helvetica-61" x="127.832031"/>
     <use xlink:href="#Helvetica-73" x="183.447266"/>
     <use xlink:href="#Helvetica-6f" x="233.447266"/>
     <use xlink:href="#Helvetica-6e" x="289.0625"/>
     <use xlink:href="#Helvetica-73" x="344.677734"/>
     <use xlink:href="#Helvetica-20" x="394.677734"/>
     <use xlink:href="#Helvetica-74" x="422.460938"/>
     <use xlink:href="#Helvetica-6f" x="450.244141"/>
     <use xlink:href="#Helvetica-20" x="505.859375"/>
     <use xlink:href="#Helvetica-63" x="533.642578"/>
     <use xlink:href="#Helvetica-68" x="583.642578"/>
     <use xlink:href="#Helvetica-6f" x="639.257812"/>
     <use xlink:href="#Helvetica-6f" x="694.873047"/>
     <use xlink:href="#Helvetica-73" x="750.488281"/>
     <use xlink:href="#Helvetica-65" x="800.488281"/>
     <use xlink:href="#Helvetica-20" x="856.103516"/>
     <use xlink:href="#Helvetica-63" x="883.886719"/>
     <use xlink:href="#Helvetica-75" x="933.886719"/>
     <use xlink:href="#Helvetica-72" x="989.501953"/>
     <use xlink:href="#Helvetica-72" x="1022.802734"/>
     <use xlink:href="#Helvetica-65" x="1056.103516"/>
     <use xlink:href="#Helvetica-6e" x="1111.71875"/>
     <use xlink:href="#Helvetica-74" x="1167.333984"/>
     <use xlink:href="#Helvetica-20" x="1195.117188"/>
     <use xlink:href="#Helvetica-6a" x="1222.900391"/>
     <use xlink:href="#Helvetica-6f" x="1245.117188"/>
     <use xlink:href="#Helvetica-62" x="1300.732422"/>
     <use xlink:href="#Helvetica-3a" x="1356.347656"/>
     <use xlink:href="#Helvetica-20" x="1384.130859"/>
     <use xlink:href="#Helvetica-57" x="1411.914062"/>
     <use xlink:href="#Helvetica-6f" x="1506.298828"/>
     <use xlink:href="#Helvetica-72" x="1561.914062"/>
     <use xlink:href="#Helvetica-6c" x="1595.214844"/>
     <use xlink:href="#Helvetica-64" x="1617.431641"/>
    </g>
   </g>
   <g id="legend_1">
    <g id="patch_49">
     <path d="M 72.975 351.478997 
L 483.09375 351.478997 
Q 485.09375 351.478997 485.09375 349.478997 
L 485.09375 278.505559 
Q 485.09375 276.505559 483.09375 276.505559 
L 72.975 276.505559 
Q 70.975 276.505559 70.975 278.505559 
L 70.975 349.478997 
Q 70.975 351.478997 72.975 351.478997 
z
" style="fill: #ffffff; opacity: 0.8; stroke: #cccccc; stroke-linejoin: miter"/>
    </g>
    <g id="patch_50">
     <path d="M 74.975 287.702434 
L 94.975 287.702434 
L 94.975 280.702434 
L 74.975 280.702434 
z
" style="fill: #1f77b4"/>
    </g>
    <g id="text_57">
     <!-- Desire to work in a research environment -->
     <g transform="translate(102.975 287.702434)scale(0.1 -0.1)">
      <defs>
       <path id="Helvetica-44" d="M 2250 531 
Q 2566 531 2769 597 
Q 3131 719 3363 1066 
Q 3547 1344 3628 1778 
Q 3675 2038 3675 2259 
Q 3675 3113 3336 3584 
Q 2997 4056 2244 4056 
L 1141 4056 
L 1141 531 
L 2250 531 
z
M 516 4591 
L 2375 4591 
Q 3322 4591 3844 3919 
Q 4309 3313 4309 2366 
Q 4309 1634 4034 1044 
Q 3550 0 2369 0 
L 516 0 
L 516 4591 
z
" transform="scale(0.015625)"/>
       <path id="Helvetica-77" d="M 672 3347 
L 1316 709 
L 1969 3347 
L 2600 3347 
L 3256 725 
L 3941 3347 
L 4503 3347 
L 3531 0 
L 2947 0 
L 2266 2591 
L 1606 0 
L 1022 0 
L 56 3347 
L 672 3347 
z
" transform="scale(0.015625)"/>
       <path id="Helvetica-76" d="M 688 3347 
L 1581 622 
L 2516 3347 
L 3131 3347 
L 1869 0 
L 1269 0 
L 34 3347 
L 688 3347 
z
" transform="scale(0.015625)"/>
      </defs>
      <use xlink:href="#Helvetica-44"/>
      <use xlink:href="#Helvetica-65" x="72.216797"/>
      <use xlink:href="#Helvetica-73" x="127.832031"/>
      <use xlink:href="#Helvetica-69" x="177.832031"/>
      <use xlink:href="#Helvetica-72" x="200.048828"/>
      <use xlink:href="#Helvetica-65" x="233.349609"/>
      <use xlink:href="#Helvetica-20" x="288.964844"/>
      <use xlink:href="#Helvetica-74" x="316.748047"/>
      <use xlink:href="#Helvetica-6f" x="344.53125"/>
      <use xlink:href="#Helvetica-20" x="400.146484"/>
      <use xlink:href="#Helvetica-77" x="427.929688"/>
      <use xlink:href="#Helvetica-6f" x="500.146484"/>
      <use xlink:href="#Helvetica-72" x="555.761719"/>
      <use xlink:href="#Helvetica-6b" x="589.0625"/>
      <use xlink:href="#Helvetica-20" x="639.0625"/>
      <use xlink:href="#Helvetica-69" x="666.845703"/>
      <use xlink:href="#Helvetica-6e" x="689.0625"/>
      <use xlink:href="#Helvetica-20" x="744.677734"/>
      <use xlink:href="#Helvetica-61" x="772.460938"/>
      <use xlink:href="#Helvetica-20" x="828.076172"/>
      <use xlink:href="#Helvetica-72" x="855.859375"/>
      <use xlink:href="#Helvetica-65" x="889.160156"/>
      <use xlink:href="#Helvetica-73" x="944.775391"/>
      <use xlink:href="#Helvetica-65" x="994.775391"/>
      <use xlink:href="#Helvetica-61" x="1050.390625"/>
      <use xlink:href="#Helvetica-72" x="1106.005859"/>
      <use xlink:href="#Helvetica-63" x="1139.306641"/>
      <use xlink:href="#Helvetica-68" x="1189.306641"/>
      <use xlink:href="#Helvetica-20" x="1244.921875"/>
      <use xlink:href="#Helvetica-65" x="1272.705078"/>
      <use xlink:href="#Helvetica-6e" x="1328.320312"/>
      <use xlink:href="#Helvetica-76" x="1383.935547"/>
      <use xlink:href="#Helvetica-69" x="1433.935547"/>
      <use xlink:href="#Helvetica-72" x="1456.152344"/>
      <use xlink:href="#Helvetica-6f" x="1489.453125"/>
      <use xlink:href="#Helvetica-6e" x="1545.068359"/>
      <use xlink:href="#Helvetica-6d" x="1600.683594"/>
      <use xlink:href="#Helvetica-65" x="1683.984375"/>
      <use xlink:href="#Helvetica-6e" x="1739.599609"/>
      <use xlink:href="#Helvetica-74" x="1795.214844"/>
     </g>
    </g>
    <g id="patch_51">
     <path d="M 74.975 301.983684 
L 94.975 301.983684 
L 94.975 294.983684 
L 74.975 294.983684 
z
" style="fill: #ff7f0e"/>
    </g>
    <g id="text_58">
     <!-- Freedom to choose own working practices -->
     <g transform="translate(102.975 301.983684)scale(0.1 -0.1)">
      <defs>
       <path id="Helvetica-46" d="M 547 4591 
L 3731 4591 
L 3731 4028 
L 1169 4028 
L 1169 2634 
L 3422 2634 
L 3422 2088 
L 1169 2088 
L 1169 0 
L 547 0 
L 547 4591 
z
" transform="scale(0.015625)"/>
      </defs>
      <use xlink:href="#Helvetica-46"/>
      <use xlink:href="#Helvetica-72" x="61.083984"/>
      <use xlink:href="#Helvetica-65" x="94.384766"/>
      <use xlink:href="#Helvetica-65" x="150"/>
      <use xlink:href="#Helvetica-64" x="205.615234"/>
      <use xlink:href="#Helvetica-6f" x="261.230469"/>
      <use xlink:href="#Helvetica-6d" x="316.845703"/>
      <use xlink:href="#Helvetica-20" x="400.146484"/>
      <use xlink:href="#Helvetica-74" x="427.929688"/>
      <use xlink:href="#Helvetica-6f" x="455.712891"/>
      <use xlink:href="#Helvetica-20" x="511.328125"/>
      <use xlink:href="#Helvetica-63" x="539.111328"/>
      <use xlink:href="#Helvetica-68" x="589.111328"/>
      <use xlink:href="#Helvetica-6f" x="644.726562"/>
      <use xlink:href="#Helvetica-6f" x="700.341797"/>
      <use xlink:href="#Helvetica-73" x="755.957031"/>
      <use xlink:href="#Helvetica-65" x="805.957031"/>
      <use xlink:href="#Helvetica-20" x="861.572266"/>
      <use xlink:href="#Helvetica-6f" x="889.355469"/>
      <use xlink:href="#Helvetica-77" x="944.970703"/>
      <use xlink:href="#Helvetica-6e" x="1017.1875"/>
      <use xlink:href="#Helvetica-20" x="1072.802734"/>
      <use xlink:href="#Helvetica-77" x="1100.585938"/>
      <use xlink:href="#Helvetica-6f" x="1172.802734"/>
      <use xlink:href="#Helvetica-72" x="1228.417969"/>
      <use xlink:href="#Helvetica-6b" x="1261.71875"/>
      <use xlink:href="#Helvetica-69" x="1311.71875"/>
      <use xlink:href="#Helvetica-6e" x="1333.935547"/>
      <use xlink:href="#Helvetica-67" x="1389.550781"/>
      <use xlink:href="#Helvetica-20" x="1445.166016"/>
      <use xlink:href="#Helvetica-70" x="1472.949219"/>
      <use xlink:href="#Helvetica-72" x="1528.564453"/>
      <use xlink:href="#Helvetica-61" x="1561.865234"/>
      <use xlink:href="#Helvetica-63" x="1617.480469"/>
      <use xlink:href="#Helvetica-74" x="1667.480469"/>
      <use xlink:href="#Helvetica-69" x="1695.263672"/>
      <use xlink:href="#Helvetica-63" x="1717.480469"/>
      <use xlink:href="#Helvetica-65" x="1767.480469"/>
      <use xlink:href="#Helvetica-73" x="1823.095703"/>
     </g>
    </g>
    <g id="patch_52">
     <path d="M 74.975 316.369622 
L 94.975 316.369622 
L 94.975 309.369622 
L 74.975 309.369622 
z
" style="fill: #2ca02c"/>
    </g>
    <g id="text_59">
     <!-- Desire to advance research -->
     <g transform="translate(102.975 316.369622)scale(0.1 -0.1)">
      <use xlink:href="#Helvetica-44"/>
      <use xlink:href="#Helvetica-65" x="72.216797"/>
      <use xlink:href="#Helvetica-73" x="127.832031"/>
      <use xlink:href="#Helvetica-69" x="177.832031"/>
      <use xlink:href="#Helvetica-72" x="200.048828"/>
      <use xlink:href="#Helvetica-65" x="233.349609"/>
      <use xlink:href="#Helvetica-20" x="288.964844"/>
      <use xlink:href="#Helvetica-74" x="316.748047"/>
      <use xlink:href="#Helvetica-6f" x="344.53125"/>
      <use xlink:href="#Helvetica-20" x="400.146484"/>
      <use xlink:href="#Helvetica-61" x="427.929688"/>
      <use xlink:href="#Helvetica-64" x="483.544922"/>
      <use xlink:href="#Helvetica-76" x="539.160156"/>
      <use xlink:href="#Helvetica-61" x="589.160156"/>
      <use xlink:href="#Helvetica-6e" x="644.775391"/>
      <use xlink:href="#Helvetica-63" x="700.390625"/>
      <use xlink:href="#Helvetica-65" x="750.390625"/>
      <use xlink:href="#Helvetica-20" x="806.005859"/>
      <use xlink:href="#Helvetica-72" x="833.789062"/>
      <use xlink:href="#Helvetica-65" x="867.089844"/>
      <use xlink:href="#Helvetica-73" x="922.705078"/>
      <use xlink:href="#Helvetica-65" x="972.705078"/>
      <use xlink:href="#Helvetica-61" x="1028.320312"/>
      <use xlink:href="#Helvetica-72" x="1083.935547"/>
      <use xlink:href="#Helvetica-63" x="1117.236328"/>
      <use xlink:href="#Helvetica-68" x="1167.236328"/>
     </g>
    </g>
    <g id="patch_53">
     <path d="M 74.975 330.822747 
L 94.975 330.822747 
L 94.975 323.822747 
L 74.975 323.822747 
z
" style="fill: #d62728"/>
    </g>
    <g id="text_60">
     <!-- Opportunity to develop software -->
     <g transform="translate(102.975 330.822747)scale(0.1 -0.1)">
      <defs>
       <path id="Helvetica-4f" d="M 2469 4716 
Q 3684 4716 4269 3934 
Q 4725 3325 4725 2375 
Q 4725 1347 4203 666 
Q 3591 -134 2456 -134 
Q 1397 -134 791 566 
Q 250 1241 250 2272 
Q 250 3203 713 3866 
Q 1306 4716 2469 4716 
z
M 2531 422 
Q 3353 422 3720 1011 
Q 4088 1600 4088 2366 
Q 4088 3175 3664 3669 
Q 3241 4163 2506 4163 
Q 1794 4163 1344 3673 
Q 894 3184 894 2231 
Q 894 1469 1280 945 
Q 1666 422 2531 422 
z
M 2488 4716 
L 2488 4716 
z
" transform="scale(0.015625)"/>
       <path id="Helvetica-79" d="M 2503 3347 
L 3125 3347 
Q 3006 3025 2597 1878 
Q 2291 1016 2084 472 
Q 1597 -809 1397 -1090 
Q 1197 -1372 709 -1372 
Q 591 -1372 527 -1362 
Q 463 -1353 369 -1328 
L 369 -816 
Q 516 -856 581 -865 
Q 647 -875 697 -875 
Q 853 -875 926 -823 
Q 1000 -772 1050 -697 
Q 1066 -672 1162 -440 
Q 1259 -209 1303 -97 
L 66 3347 
L 703 3347 
L 1600 622 
L 2503 3347 
z
M 1597 3428 
L 1597 3428 
z
" transform="scale(0.015625)"/>
      </defs>
      <use xlink:href="#Helvetica-4f"/>
      <use xlink:href="#Helvetica-70" x="77.783203"/>
      <use xlink:href="#Helvetica-70" x="133.398438"/>
      <use xlink:href="#Helvetica-6f" x="189.013672"/>
      <use xlink:href="#Helvetica-72" x="244.628906"/>
      <use xlink:href="#Helvetica-74" x="277.929688"/>
      <use xlink:href="#Helvetica-75" x="305.712891"/>
      <use xlink:href="#Helvetica-6e" x="361.328125"/>
      <use xlink:href="#Helvetica-69" x="416.943359"/>
      <use xlink:href="#Helvetica-74" x="439.160156"/>
      <use xlink:href="#Helvetica-79" x="466.943359"/>
      <use xlink:href="#Helvetica-20" x="516.943359"/>
      <use xlink:href="#Helvetica-74" x="544.726562"/>
      <use xlink:href="#Helvetica-6f" x="572.509766"/>
      <use xlink:href="#Helvetica-20" x="628.125"/>
      <use xlink:href="#Helvetica-64" x="655.908203"/>
      <use xlink:href="#Helvetica-65" x="711.523438"/>
      <use xlink:href="#Helvetica-76" x="767.138672"/>
      <use xlink:href="#Helvetica-65" x="817.138672"/>
      <use xlink:href="#Helvetica-6c" x="872.753906"/>
      <use xlink:href="#Helvetica-6f" x="894.970703"/>
      <use xlink:href="#Helvetica-70" x="950.585938"/>
      <use xlink:href="#Helvetica-20" x="1006.201172"/>
      <use xlink:href="#Helvetica-73" x="1033.984375"/>
      <use xlink:href="#Helvetica-6f" x="1083.984375"/>
      <use xlink:href="#Helvetica-66" x="1139.599609"/>
      <use xlink:href="#Helvetica-74" x="1167.382812"/>
      <use xlink:href="#Helvetica-77" x="1195.166016"/>
      <use xlink:href="#Helvetica-61" x="1267.382812"/>
      <use xlink:href="#Helvetica-72" x="1322.998047"/>
      <use xlink:href="#Helvetica-65" x="1356.298828"/>
     </g>
    </g>
    <g id="patch_54">
     <path d="M 74.975 345.335247 
L 94.975 345.335247 
L 94.975 338.335247 
L 74.975 338.335247 
z
" style="fill: #9467bd"/>
    </g>
    <g id="text_61">
     <!-- Opportunity for career advancement -->
     <g transform="translate(102.975 345.335247)scale(0.1 -0.1)">
      <use xlink:href="#Helvetica-4f"/>
      <use xlink:href="#Helvetica-70" x="77.783203"/>
      <use xlink:href="#Helvetica-70" x="133.398438"/>
      <use xlink:href="#Helvetica-6f" x="189.013672"/>
      <use xlink:href="#Helvetica-72" x="244.628906"/>
      <use xlink:href="#Helvetica-74" x="277.929688"/>
      <use xlink:href="#Helvetica-75" x="305.712891"/>
      <use xlink:href="#Helvetica-6e" x="361.328125"/>
      <use xlink:href="#Helvetica-69" x="416.943359"/>
      <use xlink:href="#Helvetica-74" x="439.160156"/>
      <use xlink:href="#Helvetica-79" x="466.943359"/>
      <use xlink:href="#Helvetica-20" x="516.943359"/>
      <use xlink:href="#Helvetica-66" x="544.726562"/>
      <use xlink:href="#Helvetica-6f" x="572.509766"/>
      <use xlink:href="#Helvetica-72" x="628.125"/>
      <use xlink:href="#Helvetica-20" x="661.425781"/>
      <use xlink:href="#Helvetica-63" x="689.208984"/>
      <use xlink:href="#Helvetica-61" x="739.208984"/>
      <use xlink:href="#Helvetica-72" x="794.824219"/>
      <use xlink:href="#Helvetica-65" x="828.125"/>
      <use xlink:href="#Helvetica-65" x="883.740234"/>
      <use xlink:href="#Helvetica-72" x="939.355469"/>
      <use xlink:href="#Helvetica-20" x="972.65625"/>
      <use xlink:href="#Helvetica-61" x="1000.439453"/>
      <use xlink:href="#Helvetica-64" x="1056.054688"/>
      <use xlink:href="#Helvetica-76" x="1111.669922"/>
      <use xlink:href="#Helvetica-61" x="1161.669922"/>
      <use xlink:href="#Helvetica-6e" x="1217.285156"/>
      <use xlink:href="#Helvetica-63" x="1272.900391"/>
      <use xlink:href="#Helvetica-65" x="1322.900391"/>
      <use xlink:href="#Helvetica-6d" x="1378.515625"/>
      <use xlink:href="#Helvetica-65" x="1461.816406"/>
      <use xlink:href="#Helvetica-6e" x="1517.431641"/>
      <use xlink:href="#Helvetica-74" x="1573.046875"/>
     </g>
    </g>
    <g id="patch_55">
     <path d="M 310.271875 287.702434 
L 330.271875 287.702434 
L 330.271875 280.702434 
L 310.271875 280.702434 
z
" style="fill: #8c564b"/>
    </g>
    <g id="text_62">
     <!-- Ability to work across disciplines -->
     <g transform="translate(338.271875 287.702434)scale(0.1 -0.1)">
      <defs>
       <path id="Helvetica-41" d="M 2844 1881 
L 2147 3909 
L 1406 1881 
L 2844 1881 
z
M 1822 4591 
L 2525 4591 
L 4191 0 
L 3509 0 
L 3044 1375 
L 1228 1375 
L 731 0 
L 94 0 
L 1822 4591 
z
M 2144 4591 
L 2144 4591 
z
" transform="scale(0.015625)"/>
      </defs>
      <use xlink:href="#Helvetica-41"/>
      <use xlink:href="#Helvetica-62" x="66.699219"/>
      <use xlink:href="#Helvetica-69" x="122.314453"/>
      <use xlink:href="#Helvetica-6c" x="144.53125"/>
      <use xlink:href="#Helvetica-69" x="166.748047"/>
      <use xlink:href="#Helvetica-74" x="188.964844"/>
      <use xlink:href="#Helvetica-79" x="216.748047"/>
      <use xlink:href="#Helvetica-20" x="266.748047"/>
      <use xlink:href="#Helvetica-74" x="294.53125"/>
      <use xlink:href="#Helvetica-6f" x="322.314453"/>
      <use xlink:href="#Helvetica-20" x="377.929688"/>
      <use xlink:href="#Helvetica-77" x="405.712891"/>
      <use xlink:href="#Helvetica-6f" x="477.929688"/>
      <use xlink:href="#Helvetica-72" x="533.544922"/>
      <use xlink:href="#Helvetica-6b" x="566.845703"/>
      <use xlink:href="#Helvetica-20" x="616.845703"/>
      <use xlink:href="#Helvetica-61" x="644.628906"/>
      <use xlink:href="#Helvetica-63" x="700.244141"/>
      <use xlink:href="#Helvetica-72" x="750.244141"/>
      <use xlink:href="#Helvetica-6f" x="783.544922"/>
      <use xlink:href="#Helvetica-73" x="839.160156"/>
      <use xlink:href="#Helvetica-73" x="889.160156"/>
      <use xlink:href="#Helvetica-20" x="939.160156"/>
      <use xlink:href="#Helvetica-64" x="966.943359"/>
      <use xlink:href="#Helvetica-69" x="1022.558594"/>
      <use xlink:href="#Helvetica-73" x="1044.775391"/>
      <use xlink:href="#Helvetica-63" x="1094.775391"/>
      <use xlink:href="#Helvetica-69" x="1144.775391"/>
      <use xlink:href="#Helvetica-70" x="1166.992188"/>
      <use xlink:href="#Helvetica-6c" x="1222.607422"/>
      <use xlink:href="#Helvetica-69" x="1244.824219"/>
      <use xlink:href="#Helvetica-6e" x="1267.041016"/>
      <use xlink:href="#Helvetica-65" x="1322.65625"/>
      <use xlink:href="#Helvetica-73" x="1378.271484"/>
     </g>
    </g>
    <g id="patch_56">
     <path d="M 310.271875 302.019622 
L 330.271875 302.019622 
L 330.271875 295.019622 
L 310.271875 295.019622 
z
" style="fill: #e377c2"/>
    </g>
    <g id="text_63">
     <!-- I want to learn new skills -->
     <g transform="translate(338.271875 302.019622)scale(0.1 -0.1)">
      <defs>
       <path id="Helvetica-49" d="M 628 4591 
L 1256 4591 
L 1256 0 
L 628 0 
L 628 4591 
z
" transform="scale(0.015625)"/>
      </defs>
      <use xlink:href="#Helvetica-49"/>
      <use xlink:href="#Helvetica-20" x="27.783203"/>
      <use xlink:href="#Helvetica-77" x="55.566406"/>
      <use xlink:href="#Helvetica-61" x="127.783203"/>
      <use xlink:href="#Helvetica-6e" x="183.398438"/>
      <use xlink:href="#Helvetica-74" x="239.013672"/>
      <use xlink:href="#Helvetica-20" x="266.796875"/>
      <use xlink:href="#Helvetica-74" x="294.580078"/>
      <use xlink:href="#Helvetica-6f" x="322.363281"/>
      <use xlink:href="#Helvetica-20" x="377.978516"/>
      <use xlink:href="#Helvetica-6c" x="405.761719"/>
      <use xlink:href="#Helvetica-65" x="427.978516"/>
      <use xlink:href="#Helvetica-61" x="483.59375"/>
      <use xlink:href="#Helvetica-72" x="539.208984"/>
      <use xlink:href="#Helvetica-6e" x="572.509766"/>
      <use xlink:href="#Helvetica-20" x="628.125"/>
      <use xlink:href="#Helvetica-6e" x="655.908203"/>
      <use xlink:href="#Helvetica-65" x="711.523438"/>
      <use xlink:href="#Helvetica-77" x="767.138672"/>
      <use xlink:href="#Helvetica-20" x="839.355469"/>
      <use xlink:href="#Helvetica-73" x="867.138672"/>
      <use xlink:href="#Helvetica-6b" x="917.138672"/>
      <use xlink:href="#Helvetica-69" x="967.138672"/>
      <use xlink:href="#Helvetica-6c" x="989.355469"/>
      <use xlink:href="#Helvetica-6c" x="1011.572266"/>
      <use xlink:href="#Helvetica-73" x="1033.789062"/>
     </g>
    </g>
    <g id="patch_57">
     <path d="M 310.271875 316.300872 
L 330.271875 316.300872 
L 330.271875 309.300872 
L 310.271875 309.300872 
z
" style="fill: #7f7f7f"/>
    </g>
    <g id="text_64">
     <!-- Flexible working hours -->
     <g transform="translate(338.271875 316.300872)scale(0.1 -0.1)">
      <defs>
       <path id="Helvetica-78" d="M 94 3347 
L 822 3347 
L 1591 2169 
L 2369 3347 
L 3053 3331 
L 1925 1716 
L 3103 0 
L 2384 0 
L 1553 1256 
L 747 0 
L 34 0 
L 1213 1716 
L 94 3347 
z
" transform="scale(0.015625)"/>
      </defs>
      <use xlink:href="#Helvetica-46"/>
      <use xlink:href="#Helvetica-6c" x="61.083984"/>
      <use xlink:href="#Helvetica-65" x="83.300781"/>
      <use xlink:href="#Helvetica-78" x="138.916016"/>
      <use xlink:href="#Helvetica-69" x="188.916016"/>
      <use xlink:href="#Helvetica-62" x="211.132812"/>
      <use xlink:href="#Helvetica-6c" x="266.748047"/>
      <use xlink:href="#Helvetica-65" x="288.964844"/>
      <use xlink:href="#Helvetica-20" x="344.580078"/>
      <use xlink:href="#Helvetica-77" x="372.363281"/>
      <use xlink:href="#Helvetica-6f" x="444.580078"/>
      <use xlink:href="#Helvetica-72" x="500.195312"/>
      <use xlink:href="#Helvetica-6b" x="533.496094"/>
      <use xlink:href="#Helvetica-69" x="583.496094"/>
      <use xlink:href="#Helvetica-6e" x="605.712891"/>
      <use xlink:href="#Helvetica-67" x="661.328125"/>
      <use xlink:href="#Helvetica-20" x="716.943359"/>
      <use xlink:href="#Helvetica-68" x="744.726562"/>
      <use xlink:href="#Helvetica-6f" x="800.341797"/>
      <use xlink:href="#Helvetica-75" x="855.957031"/>
      <use xlink:href="#Helvetica-72" x="911.572266"/>
      <use xlink:href="#Helvetica-73" x="944.873047"/>
     </g>
    </g>
    <g id="patch_58">
     <path d="M 310.271875 330.710247 
L 330.271875 330.710247 
L 330.271875 323.710247 
L 310.271875 323.710247 
z
" style="fill: #bcbd22"/>
    </g>
    <g id="text_65">
     <!-- The salary -->
     <g transform="translate(338.271875 330.710247)scale(0.1 -0.1)">
      <defs>
       <path id="Helvetica-54" d="M 3828 4591 
L 3828 4044 
L 2281 4044 
L 2281 0 
L 1650 0 
L 1650 4044 
L 103 4044 
L 103 4591 
L 3828 4591 
z
" transform="scale(0.015625)"/>
      </defs>
      <use xlink:href="#Helvetica-54"/>
      <use xlink:href="#Helvetica-68" x="61.083984"/>
      <use xlink:href="#Helvetica-65" x="116.699219"/>
      <use xlink:href="#Helvetica-20" x="172.314453"/>
      <use xlink:href="#Helvetica-73" x="200.097656"/>
      <use xlink:href="#Helvetica-61" x="250.097656"/>
      <use xlink:href="#Helvetica-6c" x="305.712891"/>
      <use xlink:href="#Helvetica-61" x="327.929688"/>
      <use xlink:href="#Helvetica-72" x="383.544922"/>
      <use xlink:href="#Helvetica-79" x="416.845703"/>
     </g>
    </g>
   </g>
  </g>
 </g>
 <defs>
  <clipPath id="pf0dd48280d">
   <rect x="62.86875" y="25.43625" width="430.33125" height="213.973312"/>
  </clipPath>
 </defs>
</svg>
