<?xml version="1.0" encoding="utf-8" standalone="no"?>
<!DOCTYPE svg PUBLIC "-//W3C//DTD SVG 1.1//EN"
  "http://www.w3.org/Graphics/SVG/1.1/DTD/svg11.dtd">
<svg xmlns:xlink="http://www.w3.org/1999/xlink" width="460.8pt" height="312pt" viewBox="0 0 460.8 312" xmlns="http://www.w3.org/2000/svg" version="1.1">
 <metadata>
  <rdf:RDF xmlns:dc="http://purl.org/dc/elements/1.1/" xmlns:cc="http://creativecommons.org/ns#" xmlns:rdf="http://www.w3.org/1999/02/22-rdf-syntax-ns#">
   <cc:Work>
    <dc:type rdf:resource="http://purl.org/dc/dcmitype/StillImage"/>
    <dc:date>2022-05-19T12:22:11.375222</dc:date>
    <dc:format>image/svg+xml</dc:format>
    <dc:creator>
     <cc:Agent>
      <dc:title>Matplotlib v3.5.1, https://matplotlib.org/</dc:title>
     </cc:Agent>
    </dc:creator>
   </cc:Work>
  </rdf:RDF>
 </metadata>
 <defs>
  <style type="text/css">*{stroke-linejoin: round; stroke-linecap: butt}</style>
 </defs>
 <g id="figure_1">
  <g id="patch_1">
   <path d="M 0 312 
L 460.8 312 
L 460.8 0 
L 0 0 
z
" style="fill: #ffffff"/>
  </g>
  <g id="axes_1">
   <g id="patch_2">
    <path d="M 136.7 284.942188 
L 385.219554 284.942188 
L 385.219554 25.6425 
L 136.7 25.6425 
z
" style="fill: #ffffff"/>
   </g>
   <g id="patch_3">
    <path d="M 136.7 273.155838 
L 153.212927 273.155838 
L 153.212927 253.912819 
L 136.7 253.912819 
z
" clip-path="url(#p52707b6fca)" style="fill: #1f77b4"/>
   </g>
   <g id="patch_4">
    <path d="M 0 0 
z
" clip-path="url(#p52707b6fca)" style="fill: #1f77b4"/>
   </g>
   <g id="patch_5">
    <path d="M 136.7 225.048289 
L 213.760327 225.048289 
L 213.760327 205.80527 
L 136.7 205.80527 
z
" clip-path="url(#p52707b6fca)" style="fill: #1f77b4"/>
   </g>
   <g id="patch_6">
    <path d="M 136.7 200.994515 
L 175.230163 200.994515 
L 175.230163 181.751496 
L 136.7 181.751496 
z
" clip-path="url(#p52707b6fca)" style="fill: #1f77b4"/>
   </g>
   <g id="patch_7">
    <path d="M 136.7 176.940741 
L 285.316345 176.940741 
L 285.316345 157.697721 
L 136.7 157.697721 
z
" clip-path="url(#p52707b6fca)" style="fill: #1f77b4"/>
   </g>
   <g id="patch_8">
    <path d="M 136.7 152.886966 
L 373.38529 152.886966 
L 373.38529 133.643947 
L 136.7 133.643947 
z
" clip-path="url(#p52707b6fca)" style="fill: #1f77b4"/>
   </g>
   <g id="patch_9">
    <path d="M 136.7 128.833192 
L 241.281872 128.833192 
L 241.281872 109.590172 
L 136.7 109.590172 
z
" clip-path="url(#p52707b6fca)" style="fill: #1f77b4"/>
   </g>
   <g id="patch_10">
    <path d="M 136.7 104.779418 
L 191.743091 104.779418 
L 191.743091 85.536398 
L 136.7 85.536398 
z
" clip-path="url(#p52707b6fca)" style="fill: #1f77b4"/>
   </g>
   <g id="patch_11">
    <path d="M 136.7 80.725643 
L 175.230163 80.725643 
L 175.230163 61.482624 
L 136.7 61.482624 
z
" clip-path="url(#p52707b6fca)" style="fill: #1f77b4"/>
   </g>
   <g id="patch_12">
    <path d="M 136.7 56.671869 
L 153.212927 56.671869 
L 153.212927 37.428849 
L 136.7 37.428849 
z
" clip-path="url(#p52707b6fca)" style="fill: #1f77b4"/>
   </g>
   <g id="matplotlib.axis_1">
    <g id="xtick_1">
     <g id="line2d_1">
      <defs>
       <path id="m4c99cd72f3" d="M 0 0 
L 0 3.5 
" style="stroke: #000000; stroke-width: 0.8"/>
      </defs>
      <g>
       <use xlink:href="#m4c99cd72f3" x="136.7" y="284.942188" style="stroke: #000000; stroke-width: 0.8"/>
      </g>
     </g>
     <g id="text_1">
      <!-- 0 -->
      <g transform="translate(133.919531 299.115625)scale(0.1 -0.1)">
       <defs>
        <path id="Helvetica-30" d="M 1731 4475 
Q 2600 4475 2988 3759 
Q 3288 3206 3288 2244 
Q 3288 1331 3016 734 
Q 2622 -122 1728 -122 
Q 922 -122 528 578 
Q 200 1163 200 2147 
Q 200 2909 397 3456 
Q 766 4475 1731 4475 
z
M 1725 391 
Q 2163 391 2422 778 
Q 2681 1166 2681 2222 
Q 2681 2984 2493 3476 
Q 2306 3969 1766 3969 
Q 1269 3969 1039 3501 
Q 809 3034 809 2125 
Q 809 1441 956 1025 
Q 1181 391 1725 391 
z
" transform="scale(0.015625)"/>
       </defs>
       <use xlink:href="#Helvetica-30"/>
      </g>
     </g>
    </g>
    <g id="xtick_2">
     <g id="line2d_2">
      <g>
       <use xlink:href="#m4c99cd72f3" x="174.954948" y="284.942188" style="stroke: #000000; stroke-width: 0.8"/>
      </g>
     </g>
     <g id="text_2">
      <!-- 5 -->
      <g transform="translate(172.174479 299.115625)scale(0.1 -0.1)">
       <defs>
        <path id="Helvetica-35" d="M 791 1141 
Q 847 659 1238 475 
Q 1438 381 1700 381 
Q 2200 381 2440 700 
Q 2681 1019 2681 1406 
Q 2681 1875 2395 2131 
Q 2109 2388 1709 2388 
Q 1419 2388 1211 2275 
Q 1003 2163 856 1963 
L 369 1991 
L 709 4400 
L 3034 4400 
L 3034 3856 
L 1131 3856 
L 941 2613 
Q 1097 2731 1238 2791 
Q 1488 2894 1816 2894 
Q 2431 2894 2859 2497 
Q 3288 2100 3288 1491 
Q 3288 856 2895 371 
Q 2503 -113 1644 -113 
Q 1097 -113 676 195 
Q 256 503 206 1141 
L 791 1141 
z
" transform="scale(0.015625)"/>
       </defs>
       <use xlink:href="#Helvetica-35"/>
      </g>
     </g>
    </g>
    <g id="xtick_3">
     <g id="line2d_3">
      <g>
       <use xlink:href="#m4c99cd72f3" x="213.209896" y="284.942188" style="stroke: #000000; stroke-width: 0.8"/>
      </g>
     </g>
     <g id="text_3">
      <!-- 10 -->
      <g transform="translate(207.648958 299.115625)scale(0.1 -0.1)">
       <defs>
        <path id="Helvetica-31" d="M 613 3169 
L 613 3600 
Q 1222 3659 1462 3798 
Q 1703 3938 1822 4456 
L 2266 4456 
L 2266 0 
L 1666 0 
L 1666 3169 
L 613 3169 
z
" transform="scale(0.015625)"/>
       </defs>
       <use xlink:href="#Helvetica-31"/>
       <use xlink:href="#Helvetica-30" x="55.615234"/>
      </g>
     </g>
    </g>
    <g id="xtick_4">
     <g id="line2d_4">
      <g>
       <use xlink:href="#m4c99cd72f3" x="251.464844" y="284.942188" style="stroke: #000000; stroke-width: 0.8"/>
      </g>
     </g>
     <g id="text_4">
      <!-- 15 -->
      <g transform="translate(245.903906 299.115625)scale(0.1 -0.1)">
       <use xlink:href="#Helvetica-31"/>
       <use xlink:href="#Helvetica-35" x="55.615234"/>
      </g>
     </g>
    </g>
    <g id="xtick_5">
     <g id="line2d_5">
      <g>
       <use xlink:href="#m4c99cd72f3" x="289.719792" y="284.942188" style="stroke: #000000; stroke-width: 0.8"/>
      </g>
     </g>
     <g id="text_5">
      <!-- 20 -->
      <g transform="translate(284.158854 299.115625)scale(0.1 -0.1)">
       <defs>
        <path id="Helvetica-32" d="M 200 0 
Q 231 578 439 1006 
Q 647 1434 1250 1784 
L 1850 2131 
Q 2253 2366 2416 2531 
Q 2672 2791 2672 3125 
Q 2672 3516 2437 3745 
Q 2203 3975 1813 3975 
Q 1234 3975 1013 3538 
Q 894 3303 881 2888 
L 309 2888 
Q 319 3472 525 3841 
Q 891 4491 1816 4491 
Q 2584 4491 2939 4075 
Q 3294 3659 3294 3150 
Q 3294 2613 2916 2231 
Q 2697 2009 2131 1694 
L 1703 1456 
Q 1397 1288 1222 1134 
Q 909 863 828 531 
L 3272 531 
L 3272 0 
L 200 0 
z
" transform="scale(0.015625)"/>
       </defs>
       <use xlink:href="#Helvetica-32"/>
       <use xlink:href="#Helvetica-30" x="55.615234"/>
      </g>
     </g>
    </g>
    <g id="xtick_6">
     <g id="line2d_6">
      <g>
       <use xlink:href="#m4c99cd72f3" x="327.97474" y="284.942188" style="stroke: #000000; stroke-width: 0.8"/>
      </g>
     </g>
     <g id="text_6">
      <!-- 25 -->
      <g transform="translate(322.413802 299.115625)scale(0.1 -0.1)">
       <use xlink:href="#Helvetica-32"/>
       <use xlink:href="#Helvetica-35" x="55.615234"/>
      </g>
     </g>
    </g>
    <g id="xtick_7">
     <g id="line2d_7">
      <g>
       <use xlink:href="#m4c99cd72f3" x="366.229688" y="284.942188" style="stroke: #000000; stroke-width: 0.8"/>
      </g>
     </g>
     <g id="text_7">
      <!-- 30 -->
      <g transform="translate(360.66875 299.115625)scale(0.1 -0.1)">
       <defs>
        <path id="Helvetica-33" d="M 1663 -122 
Q 869 -122 511 314 
Q 153 750 153 1375 
L 741 1375 
Q 778 941 903 744 
Q 1122 391 1694 391 
Q 2138 391 2406 628 
Q 2675 866 2675 1241 
Q 2675 1703 2392 1887 
Q 2109 2072 1606 2072 
Q 1550 2072 1492 2070 
Q 1434 2069 1375 2066 
L 1375 2563 
Q 1463 2553 1522 2550 
Q 1581 2547 1650 2547 
Q 1966 2547 2169 2647 
Q 2525 2822 2525 3272 
Q 2525 3606 2287 3787 
Q 2050 3969 1734 3969 
Q 1172 3969 956 3594 
Q 838 3388 822 3006 
L 266 3006 
Q 266 3506 466 3856 
Q 809 4481 1675 4481 
Q 2359 4481 2734 4176 
Q 3109 3872 3109 3294 
Q 3109 2881 2888 2625 
Q 2750 2466 2531 2375 
Q 2884 2278 3082 2001 
Q 3281 1725 3281 1325 
Q 3281 684 2859 281 
Q 2438 -122 1663 -122 
z
" transform="scale(0.015625)"/>
       </defs>
       <use xlink:href="#Helvetica-33"/>
       <use xlink:href="#Helvetica-30" x="55.615234"/>
      </g>
     </g>
    </g>
   </g>
   <g id="matplotlib.axis_2">
    <g id="ytick_1">
     <g id="line2d_8">
      <defs>
       <path id="m8e343aef83" d="M 0 0 
L -3.5 0 
" style="stroke: #000000; stroke-width: 0.8"/>
      </defs>
      <g>
       <use xlink:href="#m8e343aef83" x="136.7" y="263.534328" style="stroke: #000000; stroke-width: 0.8"/>
      </g>
     </g>
     <g id="text_8">
      <!-- Prefer not to say -->
      <g transform="translate(56.335937 267.171828)scale(0.1 -0.1)">
       <defs>
        <path id="Helvetica-50" d="M 547 4591 
L 2613 4591 
Q 3225 4591 3600 4245 
Q 3975 3900 3975 3275 
Q 3975 2738 3640 2339 
Q 3306 1941 2613 1941 
L 1169 1941 
L 1169 0 
L 547 0 
L 547 4591 
z
M 3347 3272 
Q 3347 3778 2972 3959 
Q 2766 4056 2406 4056 
L 1169 4056 
L 1169 2466 
L 2406 2466 
Q 2825 2466 3086 2644 
Q 3347 2822 3347 3272 
z
" transform="scale(0.015625)"/>
        <path id="Helvetica-72" d="M 428 3347 
L 963 3347 
L 963 2769 
Q 1028 2938 1284 3180 
Q 1541 3422 1875 3422 
Q 1891 3422 1928 3419 
Q 1966 3416 2056 3406 
L 2056 2813 
Q 2006 2822 1964 2825 
Q 1922 2828 1872 2828 
Q 1447 2828 1219 2554 
Q 991 2281 991 1925 
L 991 0 
L 428 0 
L 428 3347 
z
" transform="scale(0.015625)"/>
        <path id="Helvetica-65" d="M 1806 3422 
Q 2163 3422 2497 3255 
Q 2831 3088 3006 2822 
Q 3175 2569 3231 2231 
Q 3281 2000 3281 1494 
L 828 1494 
Q 844 984 1069 676 
Q 1294 369 1766 369 
Q 2206 369 2469 659 
Q 2619 828 2681 1050 
L 3234 1050 
Q 3213 866 3089 639 
Q 2966 413 2813 269 
Q 2556 19 2178 -69 
Q 1975 -119 1719 -119 
Q 1094 -119 659 336 
Q 225 791 225 1609 
Q 225 2416 662 2919 
Q 1100 3422 1806 3422 
z
M 2703 1941 
Q 2669 2306 2544 2525 
Q 2313 2931 1772 2931 
Q 1384 2931 1121 2651 
Q 859 2372 844 1941 
L 2703 1941 
z
M 1753 3428 
L 1753 3428 
z
" transform="scale(0.015625)"/>
        <path id="Helvetica-66" d="M 553 3856 
Q 566 4206 675 4369 
Q 872 4656 1434 4656 
Q 1488 4656 1544 4653 
Q 1600 4650 1672 4644 
L 1672 4131 
Q 1584 4138 1545 4139 
Q 1506 4141 1472 4141 
Q 1216 4141 1166 4008 
Q 1116 3875 1116 3331 
L 1672 3331 
L 1672 2888 
L 1109 2888 
L 1109 0 
L 553 0 
L 553 2888 
L 88 2888 
L 88 3331 
L 553 3331 
L 553 3856 
z
" transform="scale(0.015625)"/>
        <path id="Helvetica-20" transform="scale(0.015625)"/>
        <path id="Helvetica-6e" d="M 413 3347 
L 947 3347 
L 947 2872 
Q 1184 3166 1450 3294 
Q 1716 3422 2041 3422 
Q 2753 3422 3003 2925 
Q 3141 2653 3141 2147 
L 3141 0 
L 2569 0 
L 2569 2109 
Q 2569 2416 2478 2603 
Q 2328 2916 1934 2916 
Q 1734 2916 1606 2875 
Q 1375 2806 1200 2600 
Q 1059 2434 1017 2257 
Q 975 2081 975 1753 
L 975 0 
L 413 0 
L 413 3347 
z
M 1734 3428 
L 1734 3428 
z
" transform="scale(0.015625)"/>
        <path id="Helvetica-6f" d="M 1741 363 
Q 2300 363 2508 786 
Q 2716 1209 2716 1728 
Q 2716 2197 2566 2491 
Q 2328 2953 1747 2953 
Q 1231 2953 997 2559 
Q 763 2166 763 1609 
Q 763 1075 997 719 
Q 1231 363 1741 363 
z
M 1763 3444 
Q 2409 3444 2856 3012 
Q 3303 2581 3303 1744 
Q 3303 934 2909 406 
Q 2516 -122 1688 -122 
Q 997 -122 590 345 
Q 184 813 184 1600 
Q 184 2444 612 2944 
Q 1041 3444 1763 3444 
z
M 1744 3428 
L 1744 3428 
z
" transform="scale(0.015625)"/>
        <path id="Helvetica-74" d="M 525 4281 
L 1094 4281 
L 1094 3347 
L 1628 3347 
L 1628 2888 
L 1094 2888 
L 1094 703 
Q 1094 528 1213 469 
Q 1278 434 1431 434 
Q 1472 434 1519 436 
Q 1566 438 1628 444 
L 1628 0 
Q 1531 -28 1426 -40 
Q 1322 -53 1200 -53 
Q 806 -53 665 148 
Q 525 350 525 672 
L 525 2888 
L 72 2888 
L 72 3347 
L 525 3347 
L 525 4281 
z
" transform="scale(0.015625)"/>
        <path id="Helvetica-73" d="M 747 1050 
Q 772 769 888 619 
Q 1100 347 1625 347 
Q 1938 347 2175 483 
Q 2413 619 2413 903 
Q 2413 1119 2222 1231 
Q 2100 1300 1741 1391 
L 1294 1503 
Q 866 1609 663 1741 
Q 300 1969 300 2372 
Q 300 2847 642 3140 
Q 984 3434 1563 3434 
Q 2319 3434 2653 2991 
Q 2863 2709 2856 2384 
L 2325 2384 
Q 2309 2575 2191 2731 
Q 1997 2953 1519 2953 
Q 1200 2953 1036 2831 
Q 872 2709 872 2509 
Q 872 2291 1088 2159 
Q 1213 2081 1456 2022 
L 1828 1931 
Q 2434 1784 2641 1647 
Q 2969 1431 2969 969 
Q 2969 522 2630 197 
Q 2291 -128 1597 -128 
Q 850 -128 539 211 
Q 228 550 206 1050 
L 747 1050 
z
M 1578 3428 
L 1578 3428 
z
" transform="scale(0.015625)"/>
        <path id="Helvetica-61" d="M 844 891 
Q 844 647 1022 506 
Q 1200 366 1444 366 
Q 1741 366 2019 503 
Q 2488 731 2488 1250 
L 2488 1703 
Q 2384 1638 2221 1594 
Q 2059 1550 1903 1531 
L 1563 1488 
Q 1256 1447 1103 1359 
Q 844 1213 844 891 
z
M 2206 2028 
Q 2400 2053 2466 2191 
Q 2503 2266 2503 2406 
Q 2503 2694 2298 2823 
Q 2094 2953 1713 2953 
Q 1272 2953 1088 2716 
Q 984 2584 953 2325 
L 428 2325 
Q 444 2944 830 3186 
Q 1216 3428 1725 3428 
Q 2316 3428 2684 3203 
Q 3050 2978 3050 2503 
L 3050 575 
Q 3050 488 3086 434 
Q 3122 381 3238 381 
Q 3275 381 3322 386 
Q 3369 391 3422 400 
L 3422 -16 
Q 3291 -53 3222 -62 
Q 3153 -72 3034 -72 
Q 2744 -72 2613 134 
Q 2544 244 2516 444 
Q 2344 219 2022 53 
Q 1700 -113 1313 -113 
Q 847 -113 551 170 
Q 256 453 256 878 
Q 256 1344 547 1600 
Q 838 1856 1309 1916 
L 2206 2028 
z
M 1741 3428 
L 1741 3428 
z
" transform="scale(0.015625)"/>
        <path id="Helvetica-79" d="M 2503 3347 
L 3125 3347 
Q 3006 3025 2597 1878 
Q 2291 1016 2084 472 
Q 1597 -809 1397 -1090 
Q 1197 -1372 709 -1372 
Q 591 -1372 527 -1362 
Q 463 -1353 369 -1328 
L 369 -816 
Q 516 -856 581 -865 
Q 647 -875 697 -875 
Q 853 -875 926 -823 
Q 1000 -772 1050 -697 
Q 1066 -672 1162 -440 
Q 1259 -209 1303 -97 
L 66 3347 
L 703 3347 
L 1600 622 
L 2503 3347 
z
M 1597 3428 
L 1597 3428 
z
" transform="scale(0.015625)"/>
       </defs>
       <use xlink:href="#Helvetica-50"/>
       <use xlink:href="#Helvetica-72" x="66.699219"/>
       <use xlink:href="#Helvetica-65" x="100"/>
       <use xlink:href="#Helvetica-66" x="155.615234"/>
       <use xlink:href="#Helvetica-65" x="183.398438"/>
       <use xlink:href="#Helvetica-72" x="239.013672"/>
       <use xlink:href="#Helvetica-20" x="272.314453"/>
       <use xlink:href="#Helvetica-6e" x="300.097656"/>
       <use xlink:href="#Helvetica-6f" x="355.712891"/>
       <use xlink:href="#Helvetica-74" x="411.328125"/>
       <use xlink:href="#Helvetica-20" x="439.111328"/>
       <use xlink:href="#Helvetica-74" x="466.894531"/>
       <use xlink:href="#Helvetica-6f" x="494.677734"/>
       <use xlink:href="#Helvetica-20" x="550.292969"/>
       <use xlink:href="#Helvetica-73" x="578.076172"/>
       <use xlink:href="#Helvetica-61" x="628.076172"/>
       <use xlink:href="#Helvetica-79" x="683.691406"/>
      </g>
     </g>
    </g>
    <g id="ytick_2">
     <g id="line2d_9">
      <g>
       <use xlink:href="#m8e343aef83" x="136.7" y="239.480554" style="stroke: #000000; stroke-width: 0.8"/>
      </g>
     </g>
     <g id="text_9">
      <!-- ≥ $150,000 -->
      <g transform="translate(79.728125 243.067273)scale(0.1 -0.1)">
       <defs>
        <path id="Helvetica-2265" d="M 288 3325 
L 3547 2222 
L 3547 1694 
L 288 591 
L 288 1153 
L 2881 1963 
L 288 2763 
L 288 3325 
z
M 3547 503 
L 3547 0 
L 288 0 
L 288 503 
L 3547 503 
z
" transform="scale(0.015625)"/>
        <path id="Helvetica-24" d="M 1909 325 
Q 2444 350 2647 716 
Q 2753 903 2753 1150 
Q 2753 1541 2466 1744 
Q 2300 1863 1909 1969 
L 1909 325 
z
M 850 3341 
Q 850 3031 1054 2856 
Q 1259 2681 1606 2613 
L 1606 4081 
Q 1197 4066 1023 3831 
Q 850 3597 850 3341 
z
M 288 3303 
Q 288 3778 636 4159 
Q 984 4541 1613 4547 
L 1613 4963 
L 1909 4963 
L 1909 4553 
Q 2531 4509 2864 4186 
Q 3197 3863 3213 3331 
L 2666 3331 
Q 2644 3569 2538 3741 
Q 2341 4056 1909 4072 
L 1909 2553 
Q 2634 2350 2894 2172 
Q 3316 1878 3316 1303 
Q 3316 472 2775 122 
Q 2475 -72 1909 -134 
L 1909 -741 
L 1613 -741 
L 1613 -134 
Q 703 -75 378 509 
Q 200 825 200 1363 
L 753 1363 
Q 778 934 888 738 
Q 1081 384 1606 341 
L 1606 2044 
Q 931 2172 609 2472 
Q 288 2772 288 3303 
z
" transform="scale(0.015625)"/>
        <path id="Helvetica-2c" d="M 531 -653 
Q 747 -616 834 -350 
Q 881 -209 881 -78 
Q 881 -56 879 -39 
Q 878 -22 872 0 
L 531 0 
L 531 681 
L 1200 681 
L 1200 50 
Q 1200 -322 1050 -603 
Q 900 -884 531 -950 
L 531 -653 
z
" transform="scale(0.015625)"/>
       </defs>
       <use xlink:href="#Helvetica-2265"/>
       <use xlink:href="#Helvetica-20" x="54.882812"/>
       <use xlink:href="#Helvetica-24" x="82.666016"/>
       <use xlink:href="#Helvetica-31" x="138.28125"/>
       <use xlink:href="#Helvetica-35" x="193.896484"/>
       <use xlink:href="#Helvetica-30" x="249.511719"/>
       <use xlink:href="#Helvetica-2c" x="305.126953"/>
       <use xlink:href="#Helvetica-30" x="332.910156"/>
       <use xlink:href="#Helvetica-30" x="388.525391"/>
       <use xlink:href="#Helvetica-30" x="444.140625"/>
      </g>
     </g>
    </g>
    <g id="ytick_3">
     <g id="line2d_10">
      <g>
       <use xlink:href="#m8e343aef83" x="136.7" y="215.42678" style="stroke: #000000; stroke-width: 0.8"/>
      </g>
     </g>
     <g id="text_10">
      <!-- ≥ $150,000 and &lt; $199,999 -->
      <g transform="translate(10.8 219.013498)scale(0.1 -0.1)">
       <defs>
        <path id="DejaVuSans-31" d="M 794 531 
L 1825 531 
L 1825 4091 
L 703 3866 
L 703 4441 
L 1819 4666 
L 2450 4666 
L 2450 531 
L 3481 531 
L 3481 0 
L 794 0 
L 794 531 
z
" transform="scale(0.015625)"/>
        <path id="DejaVuSans-35" d="M 691 4666 
L 3169 4666 
L 3169 4134 
L 1269 4134 
L 1269 2991 
Q 1406 3038 1543 3061 
Q 1681 3084 1819 3084 
Q 2600 3084 3056 2656 
Q 3513 2228 3513 1497 
Q 3513 744 3044 326 
Q 2575 -91 1722 -91 
Q 1428 -91 1123 -41 
Q 819 9 494 109 
L 494 744 
Q 775 591 1075 516 
Q 1375 441 1709 441 
Q 2250 441 2565 725 
Q 2881 1009 2881 1497 
Q 2881 1984 2565 2268 
Q 2250 2553 1709 2553 
Q 1456 2553 1204 2497 
Q 953 2441 691 2322 
L 691 4666 
z
" transform="scale(0.015625)"/>
        <path id="DejaVuSans-30" d="M 2034 4250 
Q 1547 4250 1301 3770 
Q 1056 3291 1056 2328 
Q 1056 1369 1301 889 
Q 1547 409 2034 409 
Q 2525 409 2770 889 
Q 3016 1369 3016 2328 
Q 3016 3291 2770 3770 
Q 2525 4250 2034 4250 
z
M 2034 4750 
Q 2819 4750 3233 4129 
Q 3647 3509 3647 2328 
Q 3647 1150 3233 529 
Q 2819 -91 2034 -91 
Q 1250 -91 836 529 
Q 422 1150 422 2328 
Q 422 3509 836 4129 
Q 1250 4750 2034 4750 
z
" transform="scale(0.015625)"/>
        <path id="DejaVuSans-2c" d="M 750 794 
L 1409 794 
L 1409 256 
L 897 -744 
L 494 -744 
L 750 256 
L 750 794 
z
" transform="scale(0.015625)"/>
        <path id="DejaVuSans-Oblique-61" d="M 3438 1997 
L 3047 0 
L 2472 0 
L 2578 531 
Q 2325 219 2001 64 
Q 1678 -91 1281 -91 
Q 834 -91 548 182 
Q 263 456 263 884 
Q 263 1497 752 1853 
Q 1241 2209 2100 2209 
L 2900 2209 
L 2931 2363 
Q 2938 2388 2941 2417 
Q 2944 2447 2944 2509 
Q 2944 2788 2717 2942 
Q 2491 3097 2081 3097 
Q 1800 3097 1504 3025 
Q 1209 2953 897 2809 
L 997 3341 
Q 1322 3463 1633 3523 
Q 1944 3584 2234 3584 
Q 2853 3584 3176 3315 
Q 3500 3047 3500 2534 
Q 3500 2431 3484 2292 
Q 3469 2153 3438 1997 
z
M 2816 1759 
L 2241 1759 
Q 1534 1759 1195 1570 
Q 856 1381 856 984 
Q 856 709 1029 553 
Q 1203 397 1509 397 
Q 1978 397 2328 733 
Q 2678 1069 2791 1631 
L 2816 1759 
z
" transform="scale(0.015625)"/>
        <path id="DejaVuSans-Oblique-6e" d="M 3566 2113 
L 3156 0 
L 2578 0 
L 2988 2091 
Q 3016 2238 3031 2350 
Q 3047 2463 3047 2528 
Q 3047 2791 2881 2937 
Q 2716 3084 2419 3084 
Q 1956 3084 1622 2776 
Q 1288 2469 1184 1941 
L 800 0 
L 225 0 
L 903 3500 
L 1478 3500 
L 1363 2950 
Q 1603 3253 1940 3418 
Q 2278 3584 2650 3584 
Q 3113 3584 3367 3334 
Q 3622 3084 3622 2631 
Q 3622 2519 3608 2391 
Q 3594 2263 3566 2113 
z
" transform="scale(0.015625)"/>
        <path id="DejaVuSans-Oblique-64" d="M 2675 525 
Q 2444 222 2128 65 
Q 1813 -91 1428 -91 
Q 903 -91 598 267 
Q 294 625 294 1247 
Q 294 1766 478 2236 
Q 663 2706 1013 3078 
Q 1244 3325 1534 3454 
Q 1825 3584 2144 3584 
Q 2481 3584 2739 3421 
Q 2997 3259 3138 2956 
L 3513 4863 
L 4091 4863 
L 3144 0 
L 2566 0 
L 2675 525 
z
M 891 1350 
Q 891 897 1095 644 
Q 1300 391 1663 391 
Q 1931 391 2161 520 
Q 2391 650 2566 903 
Q 2750 1166 2856 1509 
Q 2963 1853 2963 2188 
Q 2963 2622 2758 2865 
Q 2553 3109 2194 3109 
Q 1922 3109 1687 2981 
Q 1453 2853 1288 2613 
Q 1106 2353 998 2009 
Q 891 1666 891 1350 
z
" transform="scale(0.015625)"/>
        <path id="DejaVuSans-3c" d="M 4684 3150 
L 1459 2003 
L 4684 863 
L 4684 294 
L 678 1747 
L 678 2266 
L 4684 3719 
L 4684 3150 
z
" transform="scale(0.015625)"/>
        <path id="Helvetica-39" d="M 850 1081 
Q 875 616 1209 438 
Q 1381 344 1597 344 
Q 2000 344 2284 680 
Q 2569 1016 2688 2044 
Q 2500 1747 2223 1626 
Q 1947 1506 1628 1506 
Q 981 1506 604 1909 
Q 228 2313 228 2947 
Q 228 3556 600 4018 
Q 972 4481 1697 4481 
Q 2675 4481 3047 3600 
Q 3253 3116 3253 2388 
Q 3253 1566 3006 931 
Q 2597 -125 1619 -125 
Q 963 -125 622 219 
Q 281 563 281 1081 
L 850 1081 
z
M 1703 2000 
Q 2038 2000 2314 2220 
Q 2591 2441 2591 2991 
Q 2591 3484 2342 3726 
Q 2094 3969 1709 3969 
Q 1297 3969 1055 3692 
Q 813 3416 813 2953 
Q 813 2516 1025 2258 
Q 1238 2000 1703 2000 
z
" transform="scale(0.015625)"/>
       </defs>
       <use xlink:href="#Helvetica-2265" transform="translate(0 0.015625)"/>
       <use xlink:href="#Helvetica-20" transform="translate(54.882812 0.015625)"/>
       <use xlink:href="#DejaVuSans-31" transform="translate(82.666016 0.015625)"/>
       <use xlink:href="#DejaVuSans-35" transform="translate(146.289062 0.015625)"/>
       <use xlink:href="#DejaVuSans-30" transform="translate(209.912109 0.015625)"/>
       <use xlink:href="#DejaVuSans-2c" transform="translate(273.535156 0.015625)"/>
       <use xlink:href="#DejaVuSans-30" transform="translate(324.804688 0.015625)"/>
       <use xlink:href="#DejaVuSans-30" transform="translate(388.427734 0.015625)"/>
       <use xlink:href="#DejaVuSans-30" transform="translate(452.050781 0.015625)"/>
       <use xlink:href="#DejaVuSans-Oblique-61" transform="translate(515.673828 0.015625)"/>
       <use xlink:href="#DejaVuSans-Oblique-6e" transform="translate(576.953125 0.015625)"/>
       <use xlink:href="#DejaVuSans-Oblique-64" transform="translate(640.332031 0.015625)"/>
       <use xlink:href="#DejaVuSans-3c" transform="translate(723.291016 0.015625)"/>
       <use xlink:href="#Helvetica-31" transform="translate(826.5625 0.015625)"/>
       <use xlink:href="#Helvetica-39" transform="translate(882.177734 0.015625)"/>
       <use xlink:href="#Helvetica-39" transform="translate(937.792969 0.015625)"/>
       <use xlink:href="#Helvetica-2c" transform="translate(993.408203 0.015625)"/>
       <use xlink:href="#Helvetica-39" transform="translate(1021.191406 0.015625)"/>
       <use xlink:href="#Helvetica-39" transform="translate(1076.806641 0.015625)"/>
       <use xlink:href="#Helvetica-39" transform="translate(1132.421875 0.015625)"/>
      </g>
     </g>
    </g>
    <g id="ytick_4">
     <g id="line2d_11">
      <g>
       <use xlink:href="#m8e343aef83" x="136.7" y="191.373005" style="stroke: #000000; stroke-width: 0.8"/>
      </g>
     </g>
     <g id="text_11">
      <!-- ≥ $130,000 and &lt; $149,999 -->
      <g transform="translate(10.8 194.959724)scale(0.1 -0.1)">
       <defs>
        <path id="DejaVuSans-33" d="M 2597 2516 
Q 3050 2419 3304 2112 
Q 3559 1806 3559 1356 
Q 3559 666 3084 287 
Q 2609 -91 1734 -91 
Q 1441 -91 1130 -33 
Q 819 25 488 141 
L 488 750 
Q 750 597 1062 519 
Q 1375 441 1716 441 
Q 2309 441 2620 675 
Q 2931 909 2931 1356 
Q 2931 1769 2642 2001 
Q 2353 2234 1838 2234 
L 1294 2234 
L 1294 2753 
L 1863 2753 
Q 2328 2753 2575 2939 
Q 2822 3125 2822 3475 
Q 2822 3834 2567 4026 
Q 2313 4219 1838 4219 
Q 1578 4219 1281 4162 
Q 984 4106 628 3988 
L 628 4550 
Q 988 4650 1302 4700 
Q 1616 4750 1894 4750 
Q 2613 4750 3031 4423 
Q 3450 4097 3450 3541 
Q 3450 3153 3228 2886 
Q 3006 2619 2597 2516 
z
" transform="scale(0.015625)"/>
        <path id="Helvetica-34" d="M 2116 1584 
L 2116 3613 
L 681 1584 
L 2116 1584 
z
M 2125 0 
L 2125 1094 
L 163 1094 
L 163 1644 
L 2213 4488 
L 2688 4488 
L 2688 1584 
L 3347 1584 
L 3347 1094 
L 2688 1094 
L 2688 0 
L 2125 0 
z
" transform="scale(0.015625)"/>
       </defs>
       <use xlink:href="#Helvetica-2265" transform="translate(0 0.015625)"/>
       <use xlink:href="#Helvetica-20" transform="translate(54.882812 0.015625)"/>
       <use xlink:href="#DejaVuSans-31" transform="translate(82.666016 0.015625)"/>
       <use xlink:href="#DejaVuSans-33" transform="translate(146.289062 0.015625)"/>
       <use xlink:href="#DejaVuSans-30" transform="translate(209.912109 0.015625)"/>
       <use xlink:href="#DejaVuSans-2c" transform="translate(273.535156 0.015625)"/>
       <use xlink:href="#DejaVuSans-30" transform="translate(324.804688 0.015625)"/>
       <use xlink:href="#DejaVuSans-30" transform="translate(388.427734 0.015625)"/>
       <use xlink:href="#DejaVuSans-30" transform="translate(452.050781 0.015625)"/>
       <use xlink:href="#DejaVuSans-Oblique-61" transform="translate(515.673828 0.015625)"/>
       <use xlink:href="#DejaVuSans-Oblique-6e" transform="translate(576.953125 0.015625)"/>
       <use xlink:href="#DejaVuSans-Oblique-64" transform="translate(640.332031 0.015625)"/>
       <use xlink:href="#DejaVuSans-3c" transform="translate(723.291016 0.015625)"/>
       <use xlink:href="#Helvetica-31" transform="translate(826.5625 0.015625)"/>
       <use xlink:href="#Helvetica-34" transform="translate(882.177734 0.015625)"/>
       <use xlink:href="#Helvetica-39" transform="translate(937.792969 0.015625)"/>
       <use xlink:href="#Helvetica-2c" transform="translate(993.408203 0.015625)"/>
       <use xlink:href="#Helvetica-39" transform="translate(1021.191406 0.015625)"/>
       <use xlink:href="#Helvetica-39" transform="translate(1076.806641 0.015625)"/>
       <use xlink:href="#Helvetica-39" transform="translate(1132.421875 0.015625)"/>
      </g>
     </g>
    </g>
    <g id="ytick_5">
     <g id="line2d_12">
      <g>
       <use xlink:href="#m8e343aef83" x="136.7" y="167.319231" style="stroke: #000000; stroke-width: 0.8"/>
      </g>
     </g>
     <g id="text_12">
      <!-- ≥ $110,000 and &lt; $129,999 -->
      <g transform="translate(10.8 170.90595)scale(0.1 -0.1)">
       <use xlink:href="#Helvetica-2265" transform="translate(0 0.015625)"/>
       <use xlink:href="#Helvetica-20" transform="translate(54.882812 0.015625)"/>
       <use xlink:href="#DejaVuSans-31" transform="translate(82.666016 0.015625)"/>
       <use xlink:href="#DejaVuSans-31" transform="translate(146.289062 0.015625)"/>
       <use xlink:href="#DejaVuSans-30" transform="translate(209.912109 0.015625)"/>
       <use xlink:href="#DejaVuSans-2c" transform="translate(273.535156 0.015625)"/>
       <use xlink:href="#DejaVuSans-30" transform="translate(324.804688 0.015625)"/>
       <use xlink:href="#DejaVuSans-30" transform="translate(388.427734 0.015625)"/>
       <use xlink:href="#DejaVuSans-30" transform="translate(452.050781 0.015625)"/>
       <use xlink:href="#DejaVuSans-Oblique-61" transform="translate(515.673828 0.015625)"/>
       <use xlink:href="#DejaVuSans-Oblique-6e" transform="translate(576.953125 0.015625)"/>
       <use xlink:href="#DejaVuSans-Oblique-64" transform="translate(640.332031 0.015625)"/>
       <use xlink:href="#DejaVuSans-3c" transform="translate(723.291016 0.015625)"/>
       <use xlink:href="#Helvetica-31" transform="translate(826.5625 0.015625)"/>
       <use xlink:href="#Helvetica-32" transform="translate(882.177734 0.015625)"/>
       <use xlink:href="#Helvetica-39" transform="translate(937.792969 0.015625)"/>
       <use xlink:href="#Helvetica-2c" transform="translate(993.408203 0.015625)"/>
       <use xlink:href="#Helvetica-39" transform="translate(1021.191406 0.015625)"/>
       <use xlink:href="#Helvetica-39" transform="translate(1076.806641 0.015625)"/>
       <use xlink:href="#Helvetica-39" transform="translate(1132.421875 0.015625)"/>
      </g>
     </g>
    </g>
    <g id="ytick_6">
     <g id="line2d_13">
      <g>
       <use xlink:href="#m8e343aef83" x="136.7" y="143.265457" style="stroke: #000000; stroke-width: 0.8"/>
      </g>
     </g>
     <g id="text_13">
      <!-- ≥ $90,000 and &lt; $109,999 -->
      <g transform="translate(17.2 146.852175)scale(0.1 -0.1)">
       <defs>
        <path id="DejaVuSans-39" d="M 703 97 
L 703 672 
Q 941 559 1184 500 
Q 1428 441 1663 441 
Q 2288 441 2617 861 
Q 2947 1281 2994 2138 
Q 2813 1869 2534 1725 
Q 2256 1581 1919 1581 
Q 1219 1581 811 2004 
Q 403 2428 403 3163 
Q 403 3881 828 4315 
Q 1253 4750 1959 4750 
Q 2769 4750 3195 4129 
Q 3622 3509 3622 2328 
Q 3622 1225 3098 567 
Q 2575 -91 1691 -91 
Q 1453 -91 1209 -44 
Q 966 3 703 97 
z
M 1959 2075 
Q 2384 2075 2632 2365 
Q 2881 2656 2881 3163 
Q 2881 3666 2632 3958 
Q 2384 4250 1959 4250 
Q 1534 4250 1286 3958 
Q 1038 3666 1038 3163 
Q 1038 2656 1286 2365 
Q 1534 2075 1959 2075 
z
" transform="scale(0.015625)"/>
       </defs>
       <use xlink:href="#Helvetica-2265" transform="translate(0 0.015625)"/>
       <use xlink:href="#Helvetica-20" transform="translate(54.882812 0.015625)"/>
       <use xlink:href="#DejaVuSans-39" transform="translate(82.666016 0.015625)"/>
       <use xlink:href="#DejaVuSans-30" transform="translate(146.289062 0.015625)"/>
       <use xlink:href="#DejaVuSans-2c" transform="translate(209.912109 0.015625)"/>
       <use xlink:href="#DejaVuSans-30" transform="translate(261.181641 0.015625)"/>
       <use xlink:href="#DejaVuSans-30" transform="translate(324.804688 0.015625)"/>
       <use xlink:href="#DejaVuSans-30" transform="translate(388.427734 0.015625)"/>
       <use xlink:href="#DejaVuSans-Oblique-61" transform="translate(452.050781 0.015625)"/>
       <use xlink:href="#DejaVuSans-Oblique-6e" transform="translate(513.330078 0.015625)"/>
       <use xlink:href="#DejaVuSans-Oblique-64" transform="translate(576.708984 0.015625)"/>
       <use xlink:href="#DejaVuSans-3c" transform="translate(659.667969 0.015625)"/>
       <use xlink:href="#Helvetica-31" transform="translate(762.939453 0.015625)"/>
       <use xlink:href="#Helvetica-30" transform="translate(818.554688 0.015625)"/>
       <use xlink:href="#Helvetica-39" transform="translate(874.169922 0.015625)"/>
       <use xlink:href="#Helvetica-2c" transform="translate(929.785156 0.015625)"/>
       <use xlink:href="#Helvetica-39" transform="translate(957.568359 0.015625)"/>
       <use xlink:href="#Helvetica-39" transform="translate(1013.183594 0.015625)"/>
       <use xlink:href="#Helvetica-39" transform="translate(1068.798828 0.015625)"/>
      </g>
     </g>
    </g>
    <g id="ytick_7">
     <g id="line2d_14">
      <g>
       <use xlink:href="#m8e343aef83" x="136.7" y="119.211682" style="stroke: #000000; stroke-width: 0.8"/>
      </g>
     </g>
     <g id="text_14">
      <!-- ≥ $70,000 and &lt; $89,999 -->
      <g transform="translate(22.8 122.798401)scale(0.1 -0.1)">
       <defs>
        <path id="DejaVuSans-37" d="M 525 4666 
L 3525 4666 
L 3525 4397 
L 1831 0 
L 1172 0 
L 2766 4134 
L 525 4134 
L 525 4666 
z
" transform="scale(0.015625)"/>
        <path id="Helvetica-38" d="M 1741 2600 
Q 2113 2600 2322 2808 
Q 2531 3016 2531 3303 
Q 2531 3553 2331 3762 
Q 2131 3972 1722 3972 
Q 1316 3972 1134 3762 
Q 953 3553 953 3272 
Q 953 2956 1187 2778 
Q 1422 2600 1741 2600 
z
M 1775 384 
Q 2166 384 2423 595 
Q 2681 806 2681 1225 
Q 2681 1659 2415 1884 
Q 2150 2109 1734 2109 
Q 1331 2109 1076 1879 
Q 822 1650 822 1244 
Q 822 894 1055 639 
Q 1288 384 1775 384 
z
M 975 2384 
Q 741 2484 609 2619 
Q 363 2869 363 3269 
Q 363 3769 725 4128 
Q 1088 4488 1753 4488 
Q 2397 4488 2762 4148 
Q 3128 3809 3128 3356 
Q 3128 2938 2916 2678 
Q 2797 2531 2547 2391 
Q 2825 2263 2984 2097 
Q 3281 1784 3281 1284 
Q 3281 694 2884 283 
Q 2488 -128 1763 -128 
Q 1109 -128 657 226 
Q 206 581 206 1256 
Q 206 1653 400 1942 
Q 594 2231 975 2384 
z
" transform="scale(0.015625)"/>
       </defs>
       <use xlink:href="#Helvetica-2265" transform="translate(0 0.015625)"/>
       <use xlink:href="#Helvetica-20" transform="translate(54.882812 0.015625)"/>
       <use xlink:href="#DejaVuSans-37" transform="translate(82.666016 0.015625)"/>
       <use xlink:href="#DejaVuSans-30" transform="translate(146.289062 0.015625)"/>
       <use xlink:href="#DejaVuSans-2c" transform="translate(209.912109 0.015625)"/>
       <use xlink:href="#DejaVuSans-30" transform="translate(261.181641 0.015625)"/>
       <use xlink:href="#DejaVuSans-30" transform="translate(324.804688 0.015625)"/>
       <use xlink:href="#DejaVuSans-30" transform="translate(388.427734 0.015625)"/>
       <use xlink:href="#DejaVuSans-Oblique-61" transform="translate(452.050781 0.015625)"/>
       <use xlink:href="#DejaVuSans-Oblique-6e" transform="translate(513.330078 0.015625)"/>
       <use xlink:href="#DejaVuSans-Oblique-64" transform="translate(576.708984 0.015625)"/>
       <use xlink:href="#DejaVuSans-3c" transform="translate(659.667969 0.015625)"/>
       <use xlink:href="#Helvetica-38" transform="translate(762.939453 0.015625)"/>
       <use xlink:href="#Helvetica-39" transform="translate(818.554688 0.015625)"/>
       <use xlink:href="#Helvetica-2c" transform="translate(874.169922 0.015625)"/>
       <use xlink:href="#Helvetica-39" transform="translate(901.953125 0.015625)"/>
       <use xlink:href="#Helvetica-39" transform="translate(957.568359 0.015625)"/>
       <use xlink:href="#Helvetica-39" transform="translate(1013.183594 0.015625)"/>
      </g>
     </g>
    </g>
    <g id="ytick_8">
     <g id="line2d_15">
      <g>
       <use xlink:href="#m8e343aef83" x="136.7" y="95.157908" style="stroke: #000000; stroke-width: 0.8"/>
      </g>
     </g>
     <g id="text_15">
      <!-- ≥ $50,000 and &lt; $69,999 -->
      <g transform="translate(22.8 98.744627)scale(0.1 -0.1)">
       <defs>
        <path id="Helvetica-36" d="M 1872 4494 
Q 2622 4494 2917 4105 
Q 3213 3716 3213 3303 
L 2656 3303 
Q 2606 3569 2497 3719 
Q 2294 4000 1881 4000 
Q 1409 4000 1131 3564 
Q 853 3128 822 2316 
Q 1016 2600 1309 2741 
Q 1578 2866 1909 2866 
Q 2472 2866 2890 2506 
Q 3309 2147 3309 1434 
Q 3309 825 2912 354 
Q 2516 -116 1781 -116 
Q 1153 -116 697 361 
Q 241 838 241 1966 
Q 241 2800 444 3381 
Q 834 4494 1872 4494 
z
M 1831 384 
Q 2275 384 2495 682 
Q 2716 981 2716 1388 
Q 2716 1731 2519 2042 
Q 2322 2353 1803 2353 
Q 1441 2353 1167 2112 
Q 894 1872 894 1388 
Q 894 963 1142 673 
Q 1391 384 1831 384 
z
" transform="scale(0.015625)"/>
       </defs>
       <use xlink:href="#Helvetica-2265" transform="translate(0 0.015625)"/>
       <use xlink:href="#Helvetica-20" transform="translate(54.882812 0.015625)"/>
       <use xlink:href="#DejaVuSans-35" transform="translate(82.666016 0.015625)"/>
       <use xlink:href="#DejaVuSans-30" transform="translate(146.289062 0.015625)"/>
       <use xlink:href="#DejaVuSans-2c" transform="translate(209.912109 0.015625)"/>
       <use xlink:href="#DejaVuSans-30" transform="translate(261.181641 0.015625)"/>
       <use xlink:href="#DejaVuSans-30" transform="translate(324.804688 0.015625)"/>
       <use xlink:href="#DejaVuSans-30" transform="translate(388.427734 0.015625)"/>
       <use xlink:href="#DejaVuSans-Oblique-61" transform="translate(452.050781 0.015625)"/>
       <use xlink:href="#DejaVuSans-Oblique-6e" transform="translate(513.330078 0.015625)"/>
       <use xlink:href="#DejaVuSans-Oblique-64" transform="translate(576.708984 0.015625)"/>
       <use xlink:href="#DejaVuSans-3c" transform="translate(659.667969 0.015625)"/>
       <use xlink:href="#Helvetica-36" transform="translate(762.939453 0.015625)"/>
       <use xlink:href="#Helvetica-39" transform="translate(818.554688 0.015625)"/>
       <use xlink:href="#Helvetica-2c" transform="translate(874.169922 0.015625)"/>
       <use xlink:href="#Helvetica-39" transform="translate(901.953125 0.015625)"/>
       <use xlink:href="#Helvetica-39" transform="translate(957.568359 0.015625)"/>
       <use xlink:href="#Helvetica-39" transform="translate(1013.183594 0.015625)"/>
      </g>
     </g>
    </g>
    <g id="ytick_9">
     <g id="line2d_16">
      <g>
       <use xlink:href="#m8e343aef83" x="136.7" y="71.104134" style="stroke: #000000; stroke-width: 0.8"/>
      </g>
     </g>
     <g id="text_16">
      <!-- ≥ $30,000 and &lt; $49,999 -->
      <g transform="translate(22.8 74.690852)scale(0.1 -0.1)">
       <use xlink:href="#Helvetica-2265" transform="translate(0 0.015625)"/>
       <use xlink:href="#Helvetica-20" transform="translate(54.882812 0.015625)"/>
       <use xlink:href="#DejaVuSans-33" transform="translate(82.666016 0.015625)"/>
       <use xlink:href="#DejaVuSans-30" transform="translate(146.289062 0.015625)"/>
       <use xlink:href="#DejaVuSans-2c" transform="translate(209.912109 0.015625)"/>
       <use xlink:href="#DejaVuSans-30" transform="translate(261.181641 0.015625)"/>
       <use xlink:href="#DejaVuSans-30" transform="translate(324.804688 0.015625)"/>
       <use xlink:href="#DejaVuSans-30" transform="translate(388.427734 0.015625)"/>
       <use xlink:href="#DejaVuSans-Oblique-61" transform="translate(452.050781 0.015625)"/>
       <use xlink:href="#DejaVuSans-Oblique-6e" transform="translate(513.330078 0.015625)"/>
       <use xlink:href="#DejaVuSans-Oblique-64" transform="translate(576.708984 0.015625)"/>
       <use xlink:href="#DejaVuSans-3c" transform="translate(659.667969 0.015625)"/>
       <use xlink:href="#Helvetica-34" transform="translate(762.939453 0.015625)"/>
       <use xlink:href="#Helvetica-39" transform="translate(818.554688 0.015625)"/>
       <use xlink:href="#Helvetica-2c" transform="translate(874.169922 0.015625)"/>
       <use xlink:href="#Helvetica-39" transform="translate(901.953125 0.015625)"/>
       <use xlink:href="#Helvetica-39" transform="translate(957.568359 0.015625)"/>
       <use xlink:href="#Helvetica-39" transform="translate(1013.183594 0.015625)"/>
      </g>
     </g>
    </g>
    <g id="ytick_10">
     <g id="line2d_17">
      <g>
       <use xlink:href="#m8e343aef83" x="136.7" y="47.050359" style="stroke: #000000; stroke-width: 0.8"/>
      </g>
     </g>
     <g id="text_17">
      <!-- &lt; $30,000 -->
      <g transform="translate(84.9375 50.637078)scale(0.1 -0.1)">
       <defs>
        <path id="Helvetica-3c" d="M 88 1894 
L 3741 3325 
L 3741 2763 
L 753 1634 
L 3741 503 
L 3741 -59 
L 88 1375 
L 88 1894 
z
" transform="scale(0.015625)"/>
       </defs>
       <use xlink:href="#Helvetica-3c"/>
       <use xlink:href="#Helvetica-20" x="58.398438"/>
       <use xlink:href="#Helvetica-24" x="86.181641"/>
       <use xlink:href="#Helvetica-33" x="141.796875"/>
       <use xlink:href="#Helvetica-30" x="197.412109"/>
       <use xlink:href="#Helvetica-2c" x="253.027344"/>
       <use xlink:href="#Helvetica-30" x="280.810547"/>
       <use xlink:href="#Helvetica-30" x="336.425781"/>
       <use xlink:href="#Helvetica-30" x="392.041016"/>
      </g>
     </g>
    </g>
   </g>
   <g id="patch_13">
    <path d="M 136.7 284.942188 
L 385.219554 284.942188 
" style="fill: none; stroke: #000000; stroke-width: 0.8; stroke-linejoin: miter; stroke-linecap: square"/>
   </g>
   <g id="text_18">
    <!-- 2% -->
    <g transform="translate(160.986365 266.07886)scale(0.1 -0.1)">
     <defs>
      <path id="Helvetica-25" d="M 4363 2175 
Q 4813 2175 5131 1856 
Q 5450 1538 5450 1088 
Q 5450 638 5131 319 
Q 4813 0 4363 0 
Q 3909 0 3590 319 
Q 3272 638 3272 1088 
Q 3272 1538 3590 1856 
Q 3909 2175 4363 2175 
z
M 3909 4456 
L 4256 4456 
L 1753 -119 
L 1406 -119 
L 3909 4456 
z
M 1294 2606 
Q 1563 2606 1752 2795 
Q 1941 2984 1941 3250 
Q 1941 3516 1752 3705 
Q 1563 3894 1294 3894 
Q 1028 3894 839 3706 
Q 650 3519 650 3250 
Q 650 2984 839 2795 
Q 1028 2606 1294 2606 
z
M 1294 4341 
Q 1747 4341 2065 4020 
Q 2384 3700 2384 3250 
Q 2384 2800 2065 2481 
Q 1747 2163 1294 2163 
Q 844 2163 525 2481 
Q 206 2800 206 3250 
Q 206 3700 525 4020 
Q 844 4341 1294 4341 
z
M 4363 444 
Q 4628 444 4817 633 
Q 5006 822 5006 1088 
Q 5006 1353 4817 1542 
Q 4628 1731 4363 1731 
Q 4094 1731 3905 1542 
Q 3716 1353 3716 1088 
Q 3716 822 3905 633 
Q 4094 444 4363 444 
z
" transform="scale(0.015625)"/>
     </defs>
     <use xlink:href="#Helvetica-32"/>
     <use xlink:href="#Helvetica-25" x="55.615234"/>
    </g>
   </g>
   <g id="text_19">
    <!-- 10% -->
    <g transform="translate(218.753296 217.971311)scale(0.1 -0.1)">
     <use xlink:href="#Helvetica-31"/>
     <use xlink:href="#Helvetica-30" x="55.615234"/>
     <use xlink:href="#Helvetica-25" x="111.230469"/>
    </g>
   </g>
   <g id="text_20">
    <!-- 5% -->
    <g transform="translate(183.003601 193.917537)scale(0.1 -0.1)">
     <use xlink:href="#Helvetica-35"/>
     <use xlink:href="#Helvetica-25" x="55.615234"/>
    </g>
   </g>
   <g id="text_21">
    <!-- 19% -->
    <g transform="translate(290.309313 169.863762)scale(0.1 -0.1)">
     <use xlink:href="#Helvetica-31"/>
     <use xlink:href="#Helvetica-39" x="55.615234"/>
     <use xlink:href="#Helvetica-25" x="111.230469"/>
    </g>
   </g>
   <g id="text_22">
    <!-- 31% -->
    <g transform="translate(378.378258 145.809988)scale(0.1 -0.1)">
     <use xlink:href="#Helvetica-33"/>
     <use xlink:href="#Helvetica-31" x="55.615234"/>
     <use xlink:href="#Helvetica-25" x="111.230469"/>
    </g>
   </g>
   <g id="text_23">
    <!-- 14% -->
    <g transform="translate(246.274841 121.756213)scale(0.1 -0.1)">
     <use xlink:href="#Helvetica-31"/>
     <use xlink:href="#Helvetica-34" x="55.615234"/>
     <use xlink:href="#Helvetica-25" x="111.230469"/>
    </g>
   </g>
   <g id="text_24">
    <!-- 7% -->
    <g transform="translate(199.516528 97.702439)scale(0.1 -0.1)">
     <defs>
      <path id="Helvetica-37" d="M 3347 4400 
L 3347 3909 
Q 3131 3700 2773 3181 
Q 2416 2663 2141 2063 
Q 1869 1478 1728 997 
Q 1638 688 1494 0 
L 872 0 
Q 1084 1281 1809 2550 
Q 2238 3294 2709 3834 
L 234 3834 
L 234 4400 
L 3347 4400 
z
" transform="scale(0.015625)"/>
     </defs>
     <use xlink:href="#Helvetica-37"/>
     <use xlink:href="#Helvetica-25" x="55.615234"/>
    </g>
   </g>
   <g id="text_25">
    <!-- 5% -->
    <g transform="translate(183.003601 73.648665)scale(0.1 -0.1)">
     <use xlink:href="#Helvetica-35"/>
     <use xlink:href="#Helvetica-25" x="55.615234"/>
    </g>
   </g>
   <g id="text_26">
    <!-- 2% -->
    <g transform="translate(160.986365 49.59489)scale(0.1 -0.1)">
     <use xlink:href="#Helvetica-32"/>
     <use xlink:href="#Helvetica-25" x="55.615234"/>
    </g>
   </g>
   <g id="text_27">
    <!-- Salary, United States -->
    <g transform="translate(204.601027 19.6425)scale(0.12 -0.12)">
     <defs>
      <path id="Helvetica-53" d="M 894 1481 
Q 916 1091 1078 847 
Q 1388 391 2169 391 
Q 2519 391 2806 491 
Q 3363 684 3363 1184 
Q 3363 1559 3128 1719 
Q 2891 1875 2384 1991 
L 1763 2131 
Q 1153 2269 900 2434 
Q 463 2722 463 3294 
Q 463 3913 891 4309 
Q 1319 4706 2103 4706 
Q 2825 4706 3329 4357 
Q 3834 4009 3834 3244 
L 3250 3244 
Q 3203 3613 3050 3809 
Q 2766 4169 2084 4169 
Q 1534 4169 1293 3937 
Q 1053 3706 1053 3400 
Q 1053 3063 1334 2906 
Q 1519 2806 2169 2656 
L 2813 2509 
Q 3278 2403 3531 2219 
Q 3969 1897 3969 1284 
Q 3969 522 3414 194 
Q 2859 -134 2125 -134 
Q 1269 -134 784 303 
Q 300 738 309 1481 
L 894 1481 
z
M 2150 4716 
L 2150 4716 
z
" transform="scale(0.015625)"/>
      <path id="Helvetica-6c" d="M 428 4591 
L 991 4591 
L 991 0 
L 428 0 
L 428 4591 
z
" transform="scale(0.015625)"/>
      <path id="Helvetica-55" d="M 1163 4591 
L 1163 1753 
Q 1163 1253 1350 922 
Q 1628 422 2288 422 
Q 3078 422 3363 963 
Q 3516 1256 3516 1753 
L 3516 4591 
L 4147 4591 
L 4147 2013 
Q 4147 1166 3919 709 
Q 3500 -122 2338 -122 
Q 1175 -122 759 709 
Q 531 1166 531 2013 
L 531 4591 
L 1163 4591 
z
M 2341 4591 
L 2341 4591 
z
" transform="scale(0.015625)"/>
      <path id="Helvetica-69" d="M 413 3331 
L 984 3331 
L 984 0 
L 413 0 
L 413 3331 
z
M 413 4591 
L 984 4591 
L 984 3953 
L 413 3953 
L 413 4591 
z
" transform="scale(0.015625)"/>
      <path id="Helvetica-64" d="M 769 1634 
Q 769 1097 997 734 
Q 1225 372 1728 372 
Q 2119 372 2370 708 
Q 2622 1044 2622 1672 
Q 2622 2306 2362 2611 
Q 2103 2916 1722 2916 
Q 1297 2916 1033 2591 
Q 769 2266 769 1634 
z
M 1616 3406 
Q 2000 3406 2259 3244 
Q 2409 3150 2600 2916 
L 2600 4606 
L 3141 4606 
L 3141 0 
L 2634 0 
L 2634 466 
Q 2438 156 2169 18 
Q 1900 -119 1553 -119 
Q 994 -119 584 351 
Q 175 822 175 1603 
Q 175 2334 548 2870 
Q 922 3406 1616 3406 
z
" transform="scale(0.015625)"/>
     </defs>
     <use xlink:href="#Helvetica-53"/>
     <use xlink:href="#Helvetica-61" x="66.699219"/>
     <use xlink:href="#Helvetica-6c" x="122.314453"/>
     <use xlink:href="#Helvetica-61" x="144.53125"/>
     <use xlink:href="#Helvetica-72" x="200.146484"/>
     <use xlink:href="#Helvetica-79" x="233.447266"/>
     <use xlink:href="#Helvetica-2c" x="283.447266"/>
     <use xlink:href="#Helvetica-20" x="311.230469"/>
     <use xlink:href="#Helvetica-55" x="339.013672"/>
     <use xlink:href="#Helvetica-6e" x="411.230469"/>
     <use xlink:href="#Helvetica-69" x="466.845703"/>
     <use xlink:href="#Helvetica-74" x="489.0625"/>
     <use xlink:href="#Helvetica-65" x="516.845703"/>
     <use xlink:href="#Helvetica-64" x="572.460938"/>
     <use xlink:href="#Helvetica-20" x="628.076172"/>
     <use xlink:href="#Helvetica-53" x="655.859375"/>
     <use xlink:href="#Helvetica-74" x="722.558594"/>
     <use xlink:href="#Helvetica-61" x="750.341797"/>
     <use xlink:href="#Helvetica-74" x="805.957031"/>
     <use xlink:href="#Helvetica-65" x="833.740234"/>
     <use xlink:href="#Helvetica-73" x="889.355469"/>
    </g>
   </g>
  </g>
  <g id="axes_2">
   <g id="patch_14">
    <path d="M 409.21016 284.942188 
L 444.712953 284.942188 
L 444.712953 25.6425 
L 409.21016 25.6425 
z
" style="fill: #ffffff"/>
   </g>
   <g id="patch_15">
    <path d="M 425.480619 273.155838 
L 423.913167 273.155838 
L 423.913167 253.912819 
L 425.480619 253.912819 
z
" clip-path="url(#pe6d2d26ef3)" style="fill: #ffa500"/>
   </g>
   <g id="patch_16">
    <path d="M 0 0 
z
" clip-path="url(#pe6d2d26ef3)" style="fill: #ffa500"/>
   </g>
   <g id="patch_17">
    <path d="M 0 0 
z
" clip-path="url(#pe6d2d26ef3)" style="fill: #ffa500"/>
   </g>
   <g id="patch_18">
    <path d="M 425.480619 200.994515 
L 425.12438 200.994515 
L 425.12438 181.751496 
L 425.480619 181.751496 
z
" clip-path="url(#pe6d2d26ef3)" style="fill: #ffa500"/>
   </g>
   <g id="patch_19">
    <path d="M 425.480619 176.940741 
L 422.691776 176.940741 
L 422.691776 157.697721 
L 425.480619 157.697721 
z
" clip-path="url(#pe6d2d26ef3)" style="fill: #ffa500"/>
   </g>
   <g id="patch_20">
    <path d="M 425.480619 152.886966 
L 443.09919 152.886966 
L 443.09919 133.643947 
L 425.480619 133.643947 
z
" clip-path="url(#pe6d2d26ef3)" style="fill: #008000"/>
   </g>
   <g id="patch_21">
    <path d="M 425.480619 128.833192 
L 420.26935 128.833192 
L 420.26935 109.590172 
L 425.480619 109.590172 
z
" clip-path="url(#pe6d2d26ef3)" style="fill: #ffa500"/>
   </g>
   <g id="patch_22">
    <path d="M 425.480619 104.779418 
L 410.823923 104.779418 
L 410.823923 85.536398 
L 425.480619 85.536398 
z
" clip-path="url(#pe6d2d26ef3)" style="fill: #ffa500"/>
   </g>
   <g id="patch_23">
    <path d="M 425.480619 80.725643 
L 422.294824 80.725643 
L 422.294824 61.482624 
L 425.480619 61.482624 
z
" clip-path="url(#pe6d2d26ef3)" style="fill: #ffa500"/>
   </g>
   <g id="patch_24">
    <path d="M 425.480619 56.671869 
L 423.913167 56.671869 
L 423.913167 37.428849 
L 425.480619 37.428849 
z
" clip-path="url(#pe6d2d26ef3)" style="fill: #ffa500"/>
   </g>
   <g id="matplotlib.axis_3">
    <g id="xtick_8">
     <g id="line2d_18">
      <g>
       <use xlink:href="#m4c99cd72f3" x="425.480619" y="284.942188" style="stroke: #000000; stroke-width: 0.8"/>
      </g>
     </g>
     <g id="text_28">
      <!-- 0 -->
      <g transform="translate(422.700151 299.115625)scale(0.1 -0.1)">
       <use xlink:href="#Helvetica-30"/>
      </g>
     </g>
    </g>
    <g id="xtick_9">
     <g id="line2d_19">
      <g>
       <use xlink:href="#m4c99cd72f3" x="444.438649" y="284.942188" style="stroke: #000000; stroke-width: 0.8"/>
      </g>
     </g>
     <g id="text_29">
      <!-- 10 -->
      <g transform="translate(438.877712 299.115625)scale(0.1 -0.1)">
       <use xlink:href="#Helvetica-31"/>
       <use xlink:href="#Helvetica-30" x="55.615234"/>
      </g>
     </g>
    </g>
   </g>
   <g id="matplotlib.axis_4">
    <g id="ytick_11">
     <g id="line2d_20">
      <g>
       <use xlink:href="#m8e343aef83" x="409.21016" y="263.534328" style="stroke: #000000; stroke-width: 0.8"/>
      </g>
     </g>
    </g>
    <g id="ytick_12">
     <g id="line2d_21">
      <g>
       <use xlink:href="#m8e343aef83" x="409.21016" y="239.480554" style="stroke: #000000; stroke-width: 0.8"/>
      </g>
     </g>
    </g>
    <g id="ytick_13">
     <g id="line2d_22">
      <g>
       <use xlink:href="#m8e343aef83" x="409.21016" y="215.42678" style="stroke: #000000; stroke-width: 0.8"/>
      </g>
     </g>
    </g>
    <g id="ytick_14">
     <g id="line2d_23">
      <g>
       <use xlink:href="#m8e343aef83" x="409.21016" y="191.373005" style="stroke: #000000; stroke-width: 0.8"/>
      </g>
     </g>
    </g>
    <g id="ytick_15">
     <g id="line2d_24">
      <g>
       <use xlink:href="#m8e343aef83" x="409.21016" y="167.319231" style="stroke: #000000; stroke-width: 0.8"/>
      </g>
     </g>
    </g>
    <g id="ytick_16">
     <g id="line2d_25">
      <g>
       <use xlink:href="#m8e343aef83" x="409.21016" y="143.265457" style="stroke: #000000; stroke-width: 0.8"/>
      </g>
     </g>
    </g>
    <g id="ytick_17">
     <g id="line2d_26">
      <g>
       <use xlink:href="#m8e343aef83" x="409.21016" y="119.211682" style="stroke: #000000; stroke-width: 0.8"/>
      </g>
     </g>
    </g>
    <g id="ytick_18">
     <g id="line2d_27">
      <g>
       <use xlink:href="#m8e343aef83" x="409.21016" y="95.157908" style="stroke: #000000; stroke-width: 0.8"/>
      </g>
     </g>
    </g>
    <g id="ytick_19">
     <g id="line2d_28">
      <g>
       <use xlink:href="#m8e343aef83" x="409.21016" y="71.104134" style="stroke: #000000; stroke-width: 0.8"/>
      </g>
     </g>
    </g>
    <g id="ytick_20">
     <g id="line2d_29">
      <g>
       <use xlink:href="#m8e343aef83" x="409.21016" y="47.050359" style="stroke: #000000; stroke-width: 0.8"/>
      </g>
     </g>
    </g>
   </g>
   <g id="patch_25">
    <path d="M 409.21016 284.942188 
L 444.712953 284.942188 
" style="fill: none; stroke: #000000; stroke-width: 0.8; stroke-linejoin: miter; stroke-linecap: square"/>
   </g>
   <g id="text_30">
    <!-- Δ -->
    <g transform="translate(422.628431 19.6425)scale(0.12 -0.12)">
     <defs>
      <path id="Helvetica-394" d="M 922 500 
L 3672 500 
L 2278 3941 
L 922 500 
z
M 1966 4519 
L 2631 4519 
L 4494 0 
L 128 0 
L 1966 4519 
z
" transform="scale(0.015625)"/>
     </defs>
     <use xlink:href="#Helvetica-394"/>
    </g>
   </g>
  </g>
 </g>
 <defs>
  <clipPath id="p52707b6fca">
   <rect x="136.7" y="25.6425" width="248.519554" height="259.299688"/>
  </clipPath>
  <clipPath id="pe6d2d26ef3">
   <rect x="409.21016" y="25.6425" width="35.502793" height="259.299688"/>
  </clipPath>
 </defs>
</svg>
