<?xml version="1.0" encoding="utf-8" standalone="no"?>
<!DOCTYPE svg PUBLIC "-//W3C//DTD SVG 1.1//EN"
  "http://www.w3.org/Graphics/SVG/1.1/DTD/svg11.dtd">
<svg xmlns:xlink="http://www.w3.org/1999/xlink" width="460.8pt" height="216pt" viewBox="0 0 460.8 216" xmlns="http://www.w3.org/2000/svg" version="1.1">
 <metadata>
  <rdf:RDF xmlns:dc="http://purl.org/dc/elements/1.1/" xmlns:cc="http://creativecommons.org/ns#" xmlns:rdf="http://www.w3.org/1999/02/22-rdf-syntax-ns#">
   <cc:Work>
    <dc:type rdf:resource="http://purl.org/dc/dcmitype/StillImage"/>
    <dc:date>2022-05-19T12:21:49.978798</dc:date>
    <dc:format>image/svg+xml</dc:format>
    <dc:creator>
     <cc:Agent>
      <dc:title>Matplotlib v3.5.1, https://matplotlib.org/</dc:title>
     </cc:Agent>
    </dc:creator>
   </cc:Work>
  </rdf:RDF>
 </metadata>
 <defs>
  <style type="text/css">*{stroke-linejoin: round; stroke-linecap: butt}</style>
 </defs>
 <g id="figure_1">
  <g id="patch_1">
   <path d="M 0 216 
L 460.8 216 
L 460.8 0 
L 0 0 
z
" style="fill: #ffffff"/>
  </g>
  <g id="axes_1">
   <g id="patch_2">
    <path d="M 129.2125 188.942187 
L 389.388078 188.942187 
L 389.388078 25.6425 
L 129.2125 25.6425 
z
" style="fill: #ffffff"/>
   </g>
   <g id="patch_3">
    <path d="M 129.2125 181.519474 
L 210.517368 181.519474 
L 210.517368 161.043025 
L 129.2125 161.043025 
z
" clip-path="url(#pb4798ea36c)" style="fill: #1f77b4"/>
   </g>
   <g id="patch_4">
    <path d="M 129.2125 155.923912 
L 284.078916 155.923912 
L 284.078916 135.447462 
L 129.2125 135.447462 
z
" clip-path="url(#pb4798ea36c)" style="fill: #1f77b4"/>
   </g>
   <g id="patch_5">
    <path d="M 129.2125 130.32835 
L 376.998765 130.32835 
L 376.998765 109.8519 
L 129.2125 109.8519 
z
" clip-path="url(#pb4798ea36c)" style="fill: #1f77b4"/>
   </g>
   <g id="patch_6">
    <path d="M 129.2125 104.732788 
L 164.057444 104.732788 
L 164.057444 84.256338 
L 129.2125 84.256338 
z
" clip-path="url(#pb4798ea36c)" style="fill: #1f77b4"/>
   </g>
   <g id="patch_7">
    <path d="M 129.2125 79.137225 
L 133.08416 79.137225 
L 133.08416 58.660775 
L 129.2125 58.660775 
z
" clip-path="url(#pb4798ea36c)" style="fill: #1f77b4"/>
   </g>
   <g id="patch_8">
    <path d="M 129.2125 53.541663 
L 144.699142 53.541663 
L 144.699142 33.065213 
L 129.2125 33.065213 
z
" clip-path="url(#pb4798ea36c)" style="fill: #1f77b4"/>
   </g>
   <g id="matplotlib.axis_1">
    <g id="xtick_1">
     <g id="line2d_1">
      <defs>
       <path id="m4c99cd72f3" d="M 0 0 
L 0 3.5 
" style="stroke: #000000; stroke-width: 0.8"/>
      </defs>
      <g>
       <use xlink:href="#m4c99cd72f3" x="129.2125" y="188.942187" style="stroke: #000000; stroke-width: 0.8"/>
      </g>
     </g>
     <g id="text_1">
      <!-- 0 -->
      <g transform="translate(126.432031 203.115625)scale(0.1 -0.1)">
       <defs>
        <path id="Helvetica-30" d="M 1731 4475 
Q 2600 4475 2988 3759 
Q 3288 3206 3288 2244 
Q 3288 1331 3016 734 
Q 2622 -122 1728 -122 
Q 922 -122 528 578 
Q 200 1163 200 2147 
Q 200 2909 397 3456 
Q 766 4475 1731 4475 
z
M 1725 391 
Q 2163 391 2422 778 
Q 2681 1166 2681 2222 
Q 2681 2984 2493 3476 
Q 2306 3969 1766 3969 
Q 1269 3969 1039 3501 
Q 809 3034 809 2125 
Q 809 1441 956 1025 
Q 1181 391 1725 391 
z
" transform="scale(0.015625)"/>
       </defs>
       <use xlink:href="#Helvetica-30"/>
      </g>
     </g>
    </g>
    <g id="xtick_2">
     <g id="line2d_2">
      <g>
       <use xlink:href="#m4c99cd72f3" x="186.125908" y="188.942187" style="stroke: #000000; stroke-width: 0.8"/>
      </g>
     </g>
     <g id="text_2">
      <!-- 10 -->
      <g transform="translate(180.56497 203.115625)scale(0.1 -0.1)">
       <defs>
        <path id="Helvetica-31" d="M 613 3169 
L 613 3600 
Q 1222 3659 1462 3798 
Q 1703 3938 1822 4456 
L 2266 4456 
L 2266 0 
L 1666 0 
L 1666 3169 
L 613 3169 
z
" transform="scale(0.015625)"/>
       </defs>
       <use xlink:href="#Helvetica-31"/>
       <use xlink:href="#Helvetica-30" x="55.615234"/>
      </g>
     </g>
    </g>
    <g id="xtick_3">
     <g id="line2d_3">
      <g>
       <use xlink:href="#m4c99cd72f3" x="243.039315" y="188.942187" style="stroke: #000000; stroke-width: 0.8"/>
      </g>
     </g>
     <g id="text_3">
      <!-- 20 -->
      <g transform="translate(237.478378 203.115625)scale(0.1 -0.1)">
       <defs>
        <path id="Helvetica-32" d="M 200 0 
Q 231 578 439 1006 
Q 647 1434 1250 1784 
L 1850 2131 
Q 2253 2366 2416 2531 
Q 2672 2791 2672 3125 
Q 2672 3516 2437 3745 
Q 2203 3975 1813 3975 
Q 1234 3975 1013 3538 
Q 894 3303 881 2888 
L 309 2888 
Q 319 3472 525 3841 
Q 891 4491 1816 4491 
Q 2584 4491 2939 4075 
Q 3294 3659 3294 3150 
Q 3294 2613 2916 2231 
Q 2697 2009 2131 1694 
L 1703 1456 
Q 1397 1288 1222 1134 
Q 909 863 828 531 
L 3272 531 
L 3272 0 
L 200 0 
z
" transform="scale(0.015625)"/>
       </defs>
       <use xlink:href="#Helvetica-32"/>
       <use xlink:href="#Helvetica-30" x="55.615234"/>
      </g>
     </g>
    </g>
    <g id="xtick_4">
     <g id="line2d_4">
      <g>
       <use xlink:href="#m4c99cd72f3" x="299.952723" y="188.942187" style="stroke: #000000; stroke-width: 0.8"/>
      </g>
     </g>
     <g id="text_4">
      <!-- 30 -->
      <g transform="translate(294.391786 203.115625)scale(0.1 -0.1)">
       <defs>
        <path id="Helvetica-33" d="M 1663 -122 
Q 869 -122 511 314 
Q 153 750 153 1375 
L 741 1375 
Q 778 941 903 744 
Q 1122 391 1694 391 
Q 2138 391 2406 628 
Q 2675 866 2675 1241 
Q 2675 1703 2392 1887 
Q 2109 2072 1606 2072 
Q 1550 2072 1492 2070 
Q 1434 2069 1375 2066 
L 1375 2563 
Q 1463 2553 1522 2550 
Q 1581 2547 1650 2547 
Q 1966 2547 2169 2647 
Q 2525 2822 2525 3272 
Q 2525 3606 2287 3787 
Q 2050 3969 1734 3969 
Q 1172 3969 956 3594 
Q 838 3388 822 3006 
L 266 3006 
Q 266 3506 466 3856 
Q 809 4481 1675 4481 
Q 2359 4481 2734 4176 
Q 3109 3872 3109 3294 
Q 3109 2881 2888 2625 
Q 2750 2466 2531 2375 
Q 2884 2278 3082 2001 
Q 3281 1725 3281 1325 
Q 3281 684 2859 281 
Q 2438 -122 1663 -122 
z
" transform="scale(0.015625)"/>
       </defs>
       <use xlink:href="#Helvetica-33"/>
       <use xlink:href="#Helvetica-30" x="55.615234"/>
      </g>
     </g>
    </g>
    <g id="xtick_5">
     <g id="line2d_5">
      <g>
       <use xlink:href="#m4c99cd72f3" x="356.866131" y="188.942187" style="stroke: #000000; stroke-width: 0.8"/>
      </g>
     </g>
     <g id="text_5">
      <!-- 40 -->
      <g transform="translate(351.305193 203.115625)scale(0.1 -0.1)">
       <defs>
        <path id="Helvetica-34" d="M 2116 1584 
L 2116 3613 
L 681 1584 
L 2116 1584 
z
M 2125 0 
L 2125 1094 
L 163 1094 
L 163 1644 
L 2213 4488 
L 2688 4488 
L 2688 1584 
L 3347 1584 
L 3347 1094 
L 2688 1094 
L 2688 0 
L 2125 0 
z
" transform="scale(0.015625)"/>
       </defs>
       <use xlink:href="#Helvetica-34"/>
       <use xlink:href="#Helvetica-30" x="55.615234"/>
      </g>
     </g>
    </g>
   </g>
   <g id="matplotlib.axis_2">
    <g id="ytick_1">
     <g id="line2d_6">
      <defs>
       <path id="m8e343aef83" d="M 0 0 
L -3.5 0 
" style="stroke: #000000; stroke-width: 0.8"/>
      </defs>
      <g>
       <use xlink:href="#m8e343aef83" x="129.2125" y="171.28125" style="stroke: #000000; stroke-width: 0.8"/>
      </g>
     </g>
     <g id="text_6">
      <!-- ≥ £58,172 -->
      <g transform="translate(77.801562 174.867968)scale(0.1 -0.1)">
       <defs>
        <path id="Helvetica-2265" d="M 288 3325 
L 3547 2222 
L 3547 1694 
L 288 591 
L 288 1153 
L 2881 1963 
L 288 2763 
L 288 3325 
z
M 3547 503 
L 3547 0 
L 288 0 
L 288 503 
L 3547 503 
z
" transform="scale(0.015625)"/>
        <path id="Helvetica-20" transform="scale(0.015625)"/>
        <path id="Helvetica-a3" d="M 206 369 
Q 559 616 775 914 
Q 991 1213 991 1563 
Q 991 1663 950 1797 
Q 925 1881 866 2028 
L 175 2028 
L 175 2353 
L 666 2353 
Q 666 2338 561 2548 
Q 456 2759 422 2856 
Q 391 2947 369 3067 
Q 347 3188 347 3325 
Q 347 3813 744 4198 
Q 1141 4584 1881 4584 
Q 2578 4584 2936 4203 
Q 3294 3822 3303 3125 
L 2725 3125 
Q 2725 3597 2504 3842 
Q 2284 4088 1834 4088 
Q 1397 4088 1172 3858 
Q 947 3628 947 3300 
Q 947 3138 1017 2966 
Q 1088 2794 1316 2353 
L 2341 2353 
L 2341 2028 
L 1456 2028 
Q 1488 1884 1502 1803 
Q 1516 1722 1516 1634 
Q 1516 1322 1328 1017 
Q 1141 713 741 413 
Q 956 522 1165 586 
Q 1375 650 1575 650 
Q 1800 650 2170 539 
Q 2541 428 2656 428 
Q 2803 428 2925 484 
Q 3000 519 3153 628 
L 3413 206 
Q 3238 66 3100 -3 
Q 2872 -113 2616 -113 
Q 2428 -113 1986 31 
Q 1544 175 1288 175 
Q 1050 175 838 94 
Q 713 44 516 -75 
L 206 369 
z
" transform="scale(0.015625)"/>
        <path id="Helvetica-35" d="M 791 1141 
Q 847 659 1238 475 
Q 1438 381 1700 381 
Q 2200 381 2440 700 
Q 2681 1019 2681 1406 
Q 2681 1875 2395 2131 
Q 2109 2388 1709 2388 
Q 1419 2388 1211 2275 
Q 1003 2163 856 1963 
L 369 1991 
L 709 4400 
L 3034 4400 
L 3034 3856 
L 1131 3856 
L 941 2613 
Q 1097 2731 1238 2791 
Q 1488 2894 1816 2894 
Q 2431 2894 2859 2497 
Q 3288 2100 3288 1491 
Q 3288 856 2895 371 
Q 2503 -113 1644 -113 
Q 1097 -113 676 195 
Q 256 503 206 1141 
L 791 1141 
z
" transform="scale(0.015625)"/>
        <path id="Helvetica-38" d="M 1741 2600 
Q 2113 2600 2322 2808 
Q 2531 3016 2531 3303 
Q 2531 3553 2331 3762 
Q 2131 3972 1722 3972 
Q 1316 3972 1134 3762 
Q 953 3553 953 3272 
Q 953 2956 1187 2778 
Q 1422 2600 1741 2600 
z
M 1775 384 
Q 2166 384 2423 595 
Q 2681 806 2681 1225 
Q 2681 1659 2415 1884 
Q 2150 2109 1734 2109 
Q 1331 2109 1076 1879 
Q 822 1650 822 1244 
Q 822 894 1055 639 
Q 1288 384 1775 384 
z
M 975 2384 
Q 741 2484 609 2619 
Q 363 2869 363 3269 
Q 363 3769 725 4128 
Q 1088 4488 1753 4488 
Q 2397 4488 2762 4148 
Q 3128 3809 3128 3356 
Q 3128 2938 2916 2678 
Q 2797 2531 2547 2391 
Q 2825 2263 2984 2097 
Q 3281 1784 3281 1284 
Q 3281 694 2884 283 
Q 2488 -128 1763 -128 
Q 1109 -128 657 226 
Q 206 581 206 1256 
Q 206 1653 400 1942 
Q 594 2231 975 2384 
z
" transform="scale(0.015625)"/>
        <path id="Helvetica-2c" d="M 531 -653 
Q 747 -616 834 -350 
Q 881 -209 881 -78 
Q 881 -56 879 -39 
Q 878 -22 872 0 
L 531 0 
L 531 681 
L 1200 681 
L 1200 50 
Q 1200 -322 1050 -603 
Q 900 -884 531 -950 
L 531 -653 
z
" transform="scale(0.015625)"/>
        <path id="Helvetica-37" d="M 3347 4400 
L 3347 3909 
Q 3131 3700 2773 3181 
Q 2416 2663 2141 2063 
Q 1869 1478 1728 997 
Q 1638 688 1494 0 
L 872 0 
Q 1084 1281 1809 2550 
Q 2238 3294 2709 3834 
L 234 3834 
L 234 4400 
L 3347 4400 
z
" transform="scale(0.015625)"/>
       </defs>
       <use xlink:href="#Helvetica-2265"/>
       <use xlink:href="#Helvetica-20" x="54.882812"/>
       <use xlink:href="#Helvetica-a3" x="82.666016"/>
       <use xlink:href="#Helvetica-35" x="138.28125"/>
       <use xlink:href="#Helvetica-38" x="193.896484"/>
       <use xlink:href="#Helvetica-2c" x="249.511719"/>
       <use xlink:href="#Helvetica-31" x="277.294922"/>
       <use xlink:href="#Helvetica-37" x="332.910156"/>
       <use xlink:href="#Helvetica-32" x="388.525391"/>
      </g>
     </g>
    </g>
    <g id="ytick_2">
     <g id="line2d_7">
      <g>
       <use xlink:href="#m8e343aef83" x="129.2125" y="145.685687" style="stroke: #000000; stroke-width: 0.8"/>
      </g>
     </g>
     <g id="text_7">
      <!-- ≥ £43,325 and &lt; £58,172 -->
      <g transform="translate(10.8 149.272406)scale(0.1 -0.1)">
       <defs>
        <path id="Helvetica-61" d="M 844 891 
Q 844 647 1022 506 
Q 1200 366 1444 366 
Q 1741 366 2019 503 
Q 2488 731 2488 1250 
L 2488 1703 
Q 2384 1638 2221 1594 
Q 2059 1550 1903 1531 
L 1563 1488 
Q 1256 1447 1103 1359 
Q 844 1213 844 891 
z
M 2206 2028 
Q 2400 2053 2466 2191 
Q 2503 2266 2503 2406 
Q 2503 2694 2298 2823 
Q 2094 2953 1713 2953 
Q 1272 2953 1088 2716 
Q 984 2584 953 2325 
L 428 2325 
Q 444 2944 830 3186 
Q 1216 3428 1725 3428 
Q 2316 3428 2684 3203 
Q 3050 2978 3050 2503 
L 3050 575 
Q 3050 488 3086 434 
Q 3122 381 3238 381 
Q 3275 381 3322 386 
Q 3369 391 3422 400 
L 3422 -16 
Q 3291 -53 3222 -62 
Q 3153 -72 3034 -72 
Q 2744 -72 2613 134 
Q 2544 244 2516 444 
Q 2344 219 2022 53 
Q 1700 -113 1313 -113 
Q 847 -113 551 170 
Q 256 453 256 878 
Q 256 1344 547 1600 
Q 838 1856 1309 1916 
L 2206 2028 
z
M 1741 3428 
L 1741 3428 
z
" transform="scale(0.015625)"/>
        <path id="Helvetica-6e" d="M 413 3347 
L 947 3347 
L 947 2872 
Q 1184 3166 1450 3294 
Q 1716 3422 2041 3422 
Q 2753 3422 3003 2925 
Q 3141 2653 3141 2147 
L 3141 0 
L 2569 0 
L 2569 2109 
Q 2569 2416 2478 2603 
Q 2328 2916 1934 2916 
Q 1734 2916 1606 2875 
Q 1375 2806 1200 2600 
Q 1059 2434 1017 2257 
Q 975 2081 975 1753 
L 975 0 
L 413 0 
L 413 3347 
z
M 1734 3428 
L 1734 3428 
z
" transform="scale(0.015625)"/>
        <path id="Helvetica-64" d="M 769 1634 
Q 769 1097 997 734 
Q 1225 372 1728 372 
Q 2119 372 2370 708 
Q 2622 1044 2622 1672 
Q 2622 2306 2362 2611 
Q 2103 2916 1722 2916 
Q 1297 2916 1033 2591 
Q 769 2266 769 1634 
z
M 1616 3406 
Q 2000 3406 2259 3244 
Q 2409 3150 2600 2916 
L 2600 4606 
L 3141 4606 
L 3141 0 
L 2634 0 
L 2634 466 
Q 2438 156 2169 18 
Q 1900 -119 1553 -119 
Q 994 -119 584 351 
Q 175 822 175 1603 
Q 175 2334 548 2870 
Q 922 3406 1616 3406 
z
" transform="scale(0.015625)"/>
        <path id="Helvetica-3c" d="M 88 1894 
L 3741 3325 
L 3741 2763 
L 753 1634 
L 3741 503 
L 3741 -59 
L 88 1375 
L 88 1894 
z
" transform="scale(0.015625)"/>
       </defs>
       <use xlink:href="#Helvetica-2265"/>
       <use xlink:href="#Helvetica-20" x="54.882812"/>
       <use xlink:href="#Helvetica-a3" x="82.666016"/>
       <use xlink:href="#Helvetica-34" x="138.28125"/>
       <use xlink:href="#Helvetica-33" x="193.896484"/>
       <use xlink:href="#Helvetica-2c" x="249.511719"/>
       <use xlink:href="#Helvetica-33" x="277.294922"/>
       <use xlink:href="#Helvetica-32" x="332.910156"/>
       <use xlink:href="#Helvetica-35" x="388.525391"/>
       <use xlink:href="#Helvetica-20" x="444.140625"/>
       <use xlink:href="#Helvetica-61" x="471.923828"/>
       <use xlink:href="#Helvetica-6e" x="527.539062"/>
       <use xlink:href="#Helvetica-64" x="583.154297"/>
       <use xlink:href="#Helvetica-20" x="638.769531"/>
       <use xlink:href="#Helvetica-3c" x="666.552734"/>
       <use xlink:href="#Helvetica-20" x="724.951172"/>
       <use xlink:href="#Helvetica-a3" x="752.734375"/>
       <use xlink:href="#Helvetica-35" x="808.349609"/>
       <use xlink:href="#Helvetica-38" x="863.964844"/>
       <use xlink:href="#Helvetica-2c" x="919.580078"/>
       <use xlink:href="#Helvetica-31" x="947.363281"/>
       <use xlink:href="#Helvetica-37" x="1002.978516"/>
       <use xlink:href="#Helvetica-32" x="1058.59375"/>
      </g>
     </g>
    </g>
    <g id="ytick_3">
     <g id="line2d_8">
      <g>
       <use xlink:href="#m8e343aef83" x="129.2125" y="120.090125" style="stroke: #000000; stroke-width: 0.8"/>
      </g>
     </g>
     <g id="text_8">
      <!-- ≥ £32,277 and &lt; £43,325 -->
      <g transform="translate(10.8 123.676844)scale(0.1 -0.1)">
       <use xlink:href="#Helvetica-2265"/>
       <use xlink:href="#Helvetica-20" x="54.882812"/>
       <use xlink:href="#Helvetica-a3" x="82.666016"/>
       <use xlink:href="#Helvetica-33" x="138.28125"/>
       <use xlink:href="#Helvetica-32" x="193.896484"/>
       <use xlink:href="#Helvetica-2c" x="249.511719"/>
       <use xlink:href="#Helvetica-32" x="277.294922"/>
       <use xlink:href="#Helvetica-37" x="332.910156"/>
       <use xlink:href="#Helvetica-37" x="388.525391"/>
       <use xlink:href="#Helvetica-20" x="444.140625"/>
       <use xlink:href="#Helvetica-61" x="471.923828"/>
       <use xlink:href="#Helvetica-6e" x="527.539062"/>
       <use xlink:href="#Helvetica-64" x="583.154297"/>
       <use xlink:href="#Helvetica-20" x="638.769531"/>
       <use xlink:href="#Helvetica-3c" x="666.552734"/>
       <use xlink:href="#Helvetica-20" x="724.951172"/>
       <use xlink:href="#Helvetica-a3" x="752.734375"/>
       <use xlink:href="#Helvetica-34" x="808.349609"/>
       <use xlink:href="#Helvetica-33" x="863.964844"/>
       <use xlink:href="#Helvetica-2c" x="919.580078"/>
       <use xlink:href="#Helvetica-33" x="947.363281"/>
       <use xlink:href="#Helvetica-32" x="1002.978516"/>
       <use xlink:href="#Helvetica-35" x="1058.59375"/>
      </g>
     </g>
    </g>
    <g id="ytick_4">
     <g id="line2d_9">
      <g>
       <use xlink:href="#m8e343aef83" x="129.2125" y="94.494563" style="stroke: #000000; stroke-width: 0.8"/>
      </g>
     </g>
     <g id="text_9">
      <!-- ≥ £24,057 and &lt; £32,277 -->
      <g transform="translate(10.8 98.081281)scale(0.1 -0.1)">
       <use xlink:href="#Helvetica-2265"/>
       <use xlink:href="#Helvetica-20" x="54.882812"/>
       <use xlink:href="#Helvetica-a3" x="82.666016"/>
       <use xlink:href="#Helvetica-32" x="138.28125"/>
       <use xlink:href="#Helvetica-34" x="193.896484"/>
       <use xlink:href="#Helvetica-2c" x="249.511719"/>
       <use xlink:href="#Helvetica-30" x="277.294922"/>
       <use xlink:href="#Helvetica-35" x="332.910156"/>
       <use xlink:href="#Helvetica-37" x="388.525391"/>
       <use xlink:href="#Helvetica-20" x="444.140625"/>
       <use xlink:href="#Helvetica-61" x="471.923828"/>
       <use xlink:href="#Helvetica-6e" x="527.539062"/>
       <use xlink:href="#Helvetica-64" x="583.154297"/>
       <use xlink:href="#Helvetica-20" x="638.769531"/>
       <use xlink:href="#Helvetica-3c" x="666.552734"/>
       <use xlink:href="#Helvetica-20" x="724.951172"/>
       <use xlink:href="#Helvetica-a3" x="752.734375"/>
       <use xlink:href="#Helvetica-33" x="808.349609"/>
       <use xlink:href="#Helvetica-32" x="863.964844"/>
       <use xlink:href="#Helvetica-2c" x="919.580078"/>
       <use xlink:href="#Helvetica-32" x="947.363281"/>
       <use xlink:href="#Helvetica-37" x="1002.978516"/>
       <use xlink:href="#Helvetica-37" x="1058.59375"/>
      </g>
     </g>
    </g>
    <g id="ytick_5">
     <g id="line2d_10">
      <g>
       <use xlink:href="#m8e343aef83" x="129.2125" y="68.899" style="stroke: #000000; stroke-width: 0.8"/>
      </g>
     </g>
     <g id="text_10">
      <!-- ≥ £18,031 and &lt; £24,057 -->
      <g transform="translate(10.8 72.485719)scale(0.1 -0.1)">
       <use xlink:href="#Helvetica-2265"/>
       <use xlink:href="#Helvetica-20" x="54.882812"/>
       <use xlink:href="#Helvetica-a3" x="82.666016"/>
       <use xlink:href="#Helvetica-31" x="138.28125"/>
       <use xlink:href="#Helvetica-38" x="193.896484"/>
       <use xlink:href="#Helvetica-2c" x="249.511719"/>
       <use xlink:href="#Helvetica-30" x="277.294922"/>
       <use xlink:href="#Helvetica-33" x="332.910156"/>
       <use xlink:href="#Helvetica-31" x="388.525391"/>
       <use xlink:href="#Helvetica-20" x="444.140625"/>
       <use xlink:href="#Helvetica-61" x="471.923828"/>
       <use xlink:href="#Helvetica-6e" x="527.539062"/>
       <use xlink:href="#Helvetica-64" x="583.154297"/>
       <use xlink:href="#Helvetica-20" x="638.769531"/>
       <use xlink:href="#Helvetica-3c" x="666.552734"/>
       <use xlink:href="#Helvetica-20" x="724.951172"/>
       <use xlink:href="#Helvetica-a3" x="752.734375"/>
       <use xlink:href="#Helvetica-32" x="808.349609"/>
       <use xlink:href="#Helvetica-34" x="863.964844"/>
       <use xlink:href="#Helvetica-2c" x="919.580078"/>
       <use xlink:href="#Helvetica-30" x="947.363281"/>
       <use xlink:href="#Helvetica-35" x="1002.978516"/>
       <use xlink:href="#Helvetica-37" x="1058.59375"/>
      </g>
     </g>
    </g>
    <g id="ytick_6">
     <g id="line2d_11">
      <g>
       <use xlink:href="#m8e343aef83" x="129.2125" y="43.303438" style="stroke: #000000; stroke-width: 0.8"/>
      </g>
     </g>
     <g id="text_11">
      <!-- &lt; £18,031 -->
      <g transform="translate(77.45 46.890157)scale(0.1 -0.1)">
       <use xlink:href="#Helvetica-3c"/>
       <use xlink:href="#Helvetica-20" x="58.398438"/>
       <use xlink:href="#Helvetica-a3" x="86.181641"/>
       <use xlink:href="#Helvetica-31" x="141.796875"/>
       <use xlink:href="#Helvetica-38" x="197.412109"/>
       <use xlink:href="#Helvetica-2c" x="253.027344"/>
       <use xlink:href="#Helvetica-30" x="280.810547"/>
       <use xlink:href="#Helvetica-33" x="336.425781"/>
       <use xlink:href="#Helvetica-31" x="392.041016"/>
      </g>
     </g>
    </g>
   </g>
   <g id="patch_9">
    <path d="M 129.2125 188.942187 
L 389.388078 188.942187 
" style="fill: none; stroke: #000000; stroke-width: 0.8; stroke-linejoin: miter; stroke-linecap: square"/>
   </g>
   <g id="text_12">
    <!-- 14% -->
    <g transform="translate(215.510337 173.825781)scale(0.1 -0.1)">
     <defs>
      <path id="Helvetica-25" d="M 4363 2175 
Q 4813 2175 5131 1856 
Q 5450 1538 5450 1088 
Q 5450 638 5131 319 
Q 4813 0 4363 0 
Q 3909 0 3590 319 
Q 3272 638 3272 1088 
Q 3272 1538 3590 1856 
Q 3909 2175 4363 2175 
z
M 3909 4456 
L 4256 4456 
L 1753 -119 
L 1406 -119 
L 3909 4456 
z
M 1294 2606 
Q 1563 2606 1752 2795 
Q 1941 2984 1941 3250 
Q 1941 3516 1752 3705 
Q 1563 3894 1294 3894 
Q 1028 3894 839 3706 
Q 650 3519 650 3250 
Q 650 2984 839 2795 
Q 1028 2606 1294 2606 
z
M 1294 4341 
Q 1747 4341 2065 4020 
Q 2384 3700 2384 3250 
Q 2384 2800 2065 2481 
Q 1747 2163 1294 2163 
Q 844 2163 525 2481 
Q 206 2800 206 3250 
Q 206 3700 525 4020 
Q 844 4341 1294 4341 
z
M 4363 444 
Q 4628 444 4817 633 
Q 5006 822 5006 1088 
Q 5006 1353 4817 1542 
Q 4628 1731 4363 1731 
Q 4094 1731 3905 1542 
Q 3716 1353 3716 1088 
Q 3716 822 3905 633 
Q 4094 444 4363 444 
z
" transform="scale(0.015625)"/>
     </defs>
     <use xlink:href="#Helvetica-31"/>
     <use xlink:href="#Helvetica-34" x="55.615234"/>
     <use xlink:href="#Helvetica-25" x="111.230469"/>
    </g>
   </g>
   <g id="text_13">
    <!-- 27% -->
    <g transform="translate(289.071884 148.230218)scale(0.1 -0.1)">
     <use xlink:href="#Helvetica-32"/>
     <use xlink:href="#Helvetica-37" x="55.615234"/>
     <use xlink:href="#Helvetica-25" x="111.230469"/>
    </g>
   </g>
   <g id="text_14">
    <!-- 44% -->
    <g transform="translate(381.991734 122.634656)scale(0.1 -0.1)">
     <use xlink:href="#Helvetica-34"/>
     <use xlink:href="#Helvetica-34" x="55.615234"/>
     <use xlink:href="#Helvetica-25" x="111.230469"/>
    </g>
   </g>
   <g id="text_15">
    <!-- 6% -->
    <g transform="translate(171.830881 97.039094)scale(0.1 -0.1)">
     <defs>
      <path id="Helvetica-36" d="M 1872 4494 
Q 2622 4494 2917 4105 
Q 3213 3716 3213 3303 
L 2656 3303 
Q 2606 3569 2497 3719 
Q 2294 4000 1881 4000 
Q 1409 4000 1131 3564 
Q 853 3128 822 2316 
Q 1016 2600 1309 2741 
Q 1578 2866 1909 2866 
Q 2472 2866 2890 2506 
Q 3309 2147 3309 1434 
Q 3309 825 2912 354 
Q 2516 -116 1781 -116 
Q 1153 -116 697 361 
Q 241 838 241 1966 
Q 241 2800 444 3381 
Q 834 4494 1872 4494 
z
M 1831 384 
Q 2275 384 2495 682 
Q 2716 981 2716 1388 
Q 2716 1731 2519 2042 
Q 2322 2353 1803 2353 
Q 1441 2353 1167 2112 
Q 894 1872 894 1388 
Q 894 963 1142 673 
Q 1391 384 1831 384 
z
" transform="scale(0.015625)"/>
     </defs>
     <use xlink:href="#Helvetica-36"/>
     <use xlink:href="#Helvetica-25" x="55.615234"/>
    </g>
   </g>
   <g id="text_16">
    <!-- 1% -->
    <g transform="translate(140.857598 71.443532)scale(0.1 -0.1)">
     <use xlink:href="#Helvetica-31"/>
     <use xlink:href="#Helvetica-25" x="55.615234"/>
    </g>
   </g>
   <g id="text_17">
    <!-- 3% -->
    <g transform="translate(152.472579 45.847969)scale(0.1 -0.1)">
     <use xlink:href="#Helvetica-33"/>
     <use xlink:href="#Helvetica-25" x="55.615234"/>
    </g>
   </g>
   <g id="text_18">
    <!-- Salary, United Kingdom -->
    <g transform="translate(196.271227 19.6425)scale(0.12 -0.12)">
     <defs>
      <path id="Helvetica-53" d="M 894 1481 
Q 916 1091 1078 847 
Q 1388 391 2169 391 
Q 2519 391 2806 491 
Q 3363 684 3363 1184 
Q 3363 1559 3128 1719 
Q 2891 1875 2384 1991 
L 1763 2131 
Q 1153 2269 900 2434 
Q 463 2722 463 3294 
Q 463 3913 891 4309 
Q 1319 4706 2103 4706 
Q 2825 4706 3329 4357 
Q 3834 4009 3834 3244 
L 3250 3244 
Q 3203 3613 3050 3809 
Q 2766 4169 2084 4169 
Q 1534 4169 1293 3937 
Q 1053 3706 1053 3400 
Q 1053 3063 1334 2906 
Q 1519 2806 2169 2656 
L 2813 2509 
Q 3278 2403 3531 2219 
Q 3969 1897 3969 1284 
Q 3969 522 3414 194 
Q 2859 -134 2125 -134 
Q 1269 -134 784 303 
Q 300 738 309 1481 
L 894 1481 
z
M 2150 4716 
L 2150 4716 
z
" transform="scale(0.015625)"/>
      <path id="Helvetica-6c" d="M 428 4591 
L 991 4591 
L 991 0 
L 428 0 
L 428 4591 
z
" transform="scale(0.015625)"/>
      <path id="Helvetica-72" d="M 428 3347 
L 963 3347 
L 963 2769 
Q 1028 2938 1284 3180 
Q 1541 3422 1875 3422 
Q 1891 3422 1928 3419 
Q 1966 3416 2056 3406 
L 2056 2813 
Q 2006 2822 1964 2825 
Q 1922 2828 1872 2828 
Q 1447 2828 1219 2554 
Q 991 2281 991 1925 
L 991 0 
L 428 0 
L 428 3347 
z
" transform="scale(0.015625)"/>
      <path id="Helvetica-79" d="M 2503 3347 
L 3125 3347 
Q 3006 3025 2597 1878 
Q 2291 1016 2084 472 
Q 1597 -809 1397 -1090 
Q 1197 -1372 709 -1372 
Q 591 -1372 527 -1362 
Q 463 -1353 369 -1328 
L 369 -816 
Q 516 -856 581 -865 
Q 647 -875 697 -875 
Q 853 -875 926 -823 
Q 1000 -772 1050 -697 
Q 1066 -672 1162 -440 
Q 1259 -209 1303 -97 
L 66 3347 
L 703 3347 
L 1600 622 
L 2503 3347 
z
M 1597 3428 
L 1597 3428 
z
" transform="scale(0.015625)"/>
      <path id="Helvetica-55" d="M 1163 4591 
L 1163 1753 
Q 1163 1253 1350 922 
Q 1628 422 2288 422 
Q 3078 422 3363 963 
Q 3516 1256 3516 1753 
L 3516 4591 
L 4147 4591 
L 4147 2013 
Q 4147 1166 3919 709 
Q 3500 -122 2338 -122 
Q 1175 -122 759 709 
Q 531 1166 531 2013 
L 531 4591 
L 1163 4591 
z
M 2341 4591 
L 2341 4591 
z
" transform="scale(0.015625)"/>
      <path id="Helvetica-69" d="M 413 3331 
L 984 3331 
L 984 0 
L 413 0 
L 413 3331 
z
M 413 4591 
L 984 4591 
L 984 3953 
L 413 3953 
L 413 4591 
z
" transform="scale(0.015625)"/>
      <path id="Helvetica-74" d="M 525 4281 
L 1094 4281 
L 1094 3347 
L 1628 3347 
L 1628 2888 
L 1094 2888 
L 1094 703 
Q 1094 528 1213 469 
Q 1278 434 1431 434 
Q 1472 434 1519 436 
Q 1566 438 1628 444 
L 1628 0 
Q 1531 -28 1426 -40 
Q 1322 -53 1200 -53 
Q 806 -53 665 148 
Q 525 350 525 672 
L 525 2888 
L 72 2888 
L 72 3347 
L 525 3347 
L 525 4281 
z
" transform="scale(0.015625)"/>
      <path id="Helvetica-65" d="M 1806 3422 
Q 2163 3422 2497 3255 
Q 2831 3088 3006 2822 
Q 3175 2569 3231 2231 
Q 3281 2000 3281 1494 
L 828 1494 
Q 844 984 1069 676 
Q 1294 369 1766 369 
Q 2206 369 2469 659 
Q 2619 828 2681 1050 
L 3234 1050 
Q 3213 866 3089 639 
Q 2966 413 2813 269 
Q 2556 19 2178 -69 
Q 1975 -119 1719 -119 
Q 1094 -119 659 336 
Q 225 791 225 1609 
Q 225 2416 662 2919 
Q 1100 3422 1806 3422 
z
M 2703 1941 
Q 2669 2306 2544 2525 
Q 2313 2931 1772 2931 
Q 1384 2931 1121 2651 
Q 859 2372 844 1941 
L 2703 1941 
z
M 1753 3428 
L 1753 3428 
z
" transform="scale(0.015625)"/>
      <path id="Helvetica-4b" d="M 488 4591 
L 1094 4591 
L 1094 2353 
L 3331 4591 
L 4191 4591 
L 2281 2741 
L 4244 0 
L 3434 0 
L 1828 2303 
L 1094 1600 
L 1094 0 
L 488 0 
L 488 4591 
z
" transform="scale(0.015625)"/>
      <path id="Helvetica-67" d="M 1594 3406 
Q 1988 3406 2281 3213 
Q 2441 3103 2606 2894 
L 2606 3316 
L 3125 3316 
L 3125 272 
Q 3125 -366 2938 -734 
Q 2588 -1416 1616 -1416 
Q 1075 -1416 706 -1173 
Q 338 -931 294 -416 
L 866 -416 
Q 906 -641 1028 -763 
Q 1219 -950 1628 -950 
Q 2275 -950 2475 -494 
Q 2594 -225 2584 466 
Q 2416 209 2178 84 
Q 1941 -41 1550 -41 
Q 1006 -41 598 345 
Q 191 731 191 1622 
Q 191 2463 602 2934 
Q 1013 3406 1594 3406 
z
M 2606 1688 
Q 2606 2309 2350 2609 
Q 2094 2909 1697 2909 
Q 1103 2909 884 2353 
Q 769 2056 769 1575 
Q 769 1009 998 714 
Q 1228 419 1616 419 
Q 2222 419 2469 966 
Q 2606 1275 2606 1688 
z
M 1659 3428 
L 1659 3428 
z
" transform="scale(0.015625)"/>
      <path id="Helvetica-6f" d="M 1741 363 
Q 2300 363 2508 786 
Q 2716 1209 2716 1728 
Q 2716 2197 2566 2491 
Q 2328 2953 1747 2953 
Q 1231 2953 997 2559 
Q 763 2166 763 1609 
Q 763 1075 997 719 
Q 1231 363 1741 363 
z
M 1763 3444 
Q 2409 3444 2856 3012 
Q 3303 2581 3303 1744 
Q 3303 934 2909 406 
Q 2516 -122 1688 -122 
Q 997 -122 590 345 
Q 184 813 184 1600 
Q 184 2444 612 2944 
Q 1041 3444 1763 3444 
z
M 1744 3428 
L 1744 3428 
z
" transform="scale(0.015625)"/>
      <path id="Helvetica-6d" d="M 413 3347 
L 969 3347 
L 969 2872 
Q 1169 3119 1331 3231 
Q 1609 3422 1963 3422 
Q 2363 3422 2606 3225 
Q 2744 3113 2856 2894 
Q 3044 3163 3297 3292 
Q 3550 3422 3866 3422 
Q 4541 3422 4784 2934 
Q 4916 2672 4916 2228 
L 4916 0 
L 4331 0 
L 4331 2325 
Q 4331 2659 4164 2784 
Q 3997 2909 3756 2909 
Q 3425 2909 3186 2687 
Q 2947 2466 2947 1947 
L 2947 0 
L 2375 0 
L 2375 2184 
Q 2375 2525 2294 2681 
Q 2166 2916 1816 2916 
Q 1497 2916 1236 2669 
Q 975 2422 975 1775 
L 975 0 
L 413 0 
L 413 3347 
z
" transform="scale(0.015625)"/>
     </defs>
     <use xlink:href="#Helvetica-53"/>
     <use xlink:href="#Helvetica-61" x="66.699219"/>
     <use xlink:href="#Helvetica-6c" x="122.314453"/>
     <use xlink:href="#Helvetica-61" x="144.53125"/>
     <use xlink:href="#Helvetica-72" x="200.146484"/>
     <use xlink:href="#Helvetica-79" x="233.447266"/>
     <use xlink:href="#Helvetica-2c" x="283.447266"/>
     <use xlink:href="#Helvetica-20" x="311.230469"/>
     <use xlink:href="#Helvetica-55" x="339.013672"/>
     <use xlink:href="#Helvetica-6e" x="411.230469"/>
     <use xlink:href="#Helvetica-69" x="466.845703"/>
     <use xlink:href="#Helvetica-74" x="489.0625"/>
     <use xlink:href="#Helvetica-65" x="516.845703"/>
     <use xlink:href="#Helvetica-64" x="572.460938"/>
     <use xlink:href="#Helvetica-20" x="628.076172"/>
     <use xlink:href="#Helvetica-4b" x="655.859375"/>
     <use xlink:href="#Helvetica-69" x="722.558594"/>
     <use xlink:href="#Helvetica-6e" x="744.775391"/>
     <use xlink:href="#Helvetica-67" x="800.390625"/>
     <use xlink:href="#Helvetica-64" x="856.005859"/>
     <use xlink:href="#Helvetica-6f" x="911.621094"/>
     <use xlink:href="#Helvetica-6d" x="967.236328"/>
    </g>
   </g>
  </g>
  <g id="axes_2">
   <g id="patch_10">
    <path d="M 412.83206 188.942187 
L 450 188.942187 
L 450 25.6425 
L 412.83206 25.6425 
z
" style="fill: #ffffff"/>
   </g>
   <g id="patch_11">
    <path d="M 433.322121 181.519474 
L 448.310548 181.519474 
L 448.310548 161.043025 
L 433.322121 161.043025 
z
" clip-path="url(#p8dbdf240ec)" style="fill: #008000"/>
   </g>
   <g id="patch_12">
    <path d="M 433.322121 155.923912 
L 441.47549 155.923912 
L 441.47549 135.447462 
L 433.322121 135.447462 
z
" clip-path="url(#p8dbdf240ec)" style="fill: #008000"/>
   </g>
   <g id="patch_13">
    <path d="M 433.322121 130.32835 
L 414.521512 130.32835 
L 414.521512 109.8519 
L 433.322121 109.8519 
z
" clip-path="url(#p8dbdf240ec)" style="fill: #ffa500"/>
   </g>
   <g id="patch_14">
    <path d="M 433.322121 104.732788 
L 422.288624 104.732788 
L 422.288624 84.256338 
L 433.322121 84.256338 
z
" clip-path="url(#p8dbdf240ec)" style="fill: #ffa500"/>
   </g>
   <g id="patch_15">
    <path d="M 433.322121 79.137225 
L 430.038942 79.137225 
L 430.038942 58.660775 
L 433.322121 58.660775 
z
" clip-path="url(#p8dbdf240ec)" style="fill: #ffa500"/>
   </g>
   <g id="patch_16">
    <path d="M 433.322121 53.541663 
L 430.064133 53.541663 
L 430.064133 33.065213 
L 433.322121 33.065213 
z
" clip-path="url(#p8dbdf240ec)" style="fill: #ffa500"/>
   </g>
   <g id="matplotlib.axis_3">
    <g id="xtick_6">
     <g id="line2d_12">
      <g>
       <use xlink:href="#m4c99cd72f3" x="421.163862" y="188.942187" style="stroke: #000000; stroke-width: 0.8"/>
      </g>
     </g>
     <g id="text_19">
      <!-- −5 -->
      <g transform="translate(415.463081 203.115625)scale(0.1 -0.1)">
       <defs>
        <path id="Helvetica-2212" d="M 3547 1894 
L 3547 1369 
L 288 1369 
L 288 1894 
L 3547 1894 
z
" transform="scale(0.015625)"/>
       </defs>
       <use xlink:href="#Helvetica-2212"/>
       <use xlink:href="#Helvetica-35" x="58.398438"/>
      </g>
     </g>
    </g>
    <g id="xtick_7">
     <g id="line2d_13">
      <g>
       <use xlink:href="#m4c99cd72f3" x="433.322121" y="188.942187" style="stroke: #000000; stroke-width: 0.8"/>
      </g>
     </g>
     <g id="text_20">
      <!-- 0 -->
      <g transform="translate(430.541653 203.115625)scale(0.1 -0.1)">
       <use xlink:href="#Helvetica-30"/>
      </g>
     </g>
    </g>
    <g id="xtick_8">
     <g id="line2d_14">
      <g>
       <use xlink:href="#m4c99cd72f3" x="445.480381" y="188.942187" style="stroke: #000000; stroke-width: 0.8"/>
      </g>
     </g>
     <g id="text_21">
      <!-- 5 -->
      <g transform="translate(442.699912 203.115625)scale(0.1 -0.1)">
       <use xlink:href="#Helvetica-35"/>
      </g>
     </g>
    </g>
   </g>
   <g id="matplotlib.axis_4">
    <g id="ytick_7">
     <g id="line2d_15">
      <g>
       <use xlink:href="#m8e343aef83" x="412.83206" y="171.28125" style="stroke: #000000; stroke-width: 0.8"/>
      </g>
     </g>
    </g>
    <g id="ytick_8">
     <g id="line2d_16">
      <g>
       <use xlink:href="#m8e343aef83" x="412.83206" y="145.685687" style="stroke: #000000; stroke-width: 0.8"/>
      </g>
     </g>
    </g>
    <g id="ytick_9">
     <g id="line2d_17">
      <g>
       <use xlink:href="#m8e343aef83" x="412.83206" y="120.090125" style="stroke: #000000; stroke-width: 0.8"/>
      </g>
     </g>
    </g>
    <g id="ytick_10">
     <g id="line2d_18">
      <g>
       <use xlink:href="#m8e343aef83" x="412.83206" y="94.494563" style="stroke: #000000; stroke-width: 0.8"/>
      </g>
     </g>
    </g>
    <g id="ytick_11">
     <g id="line2d_19">
      <g>
       <use xlink:href="#m8e343aef83" x="412.83206" y="68.899" style="stroke: #000000; stroke-width: 0.8"/>
      </g>
     </g>
    </g>
    <g id="ytick_12">
     <g id="line2d_20">
      <g>
       <use xlink:href="#m8e343aef83" x="412.83206" y="43.303438" style="stroke: #000000; stroke-width: 0.8"/>
      </g>
     </g>
    </g>
   </g>
   <g id="patch_17">
    <path d="M 412.83206 188.942187 
L 450 188.942187 
" style="fill: none; stroke: #000000; stroke-width: 0.8; stroke-linejoin: miter; stroke-linecap: square"/>
   </g>
   <g id="text_22">
    <!-- Δ -->
    <g transform="translate(427.082905 19.6425)scale(0.12 -0.12)">
     <defs>
      <path id="Helvetica-394" d="M 922 500 
L 3672 500 
L 2278 3941 
L 922 500 
z
M 1966 4519 
L 2631 4519 
L 4494 0 
L 128 0 
L 1966 4519 
z
" transform="scale(0.015625)"/>
     </defs>
     <use xlink:href="#Helvetica-394"/>
    </g>
   </g>
  </g>
 </g>
 <defs>
  <clipPath id="pb4798ea36c">
   <rect x="129.2125" y="25.6425" width="260.175578" height="163.299688"/>
  </clipPath>
  <clipPath id="p8dbdf240ec">
   <rect x="412.83206" y="25.6425" width="37.16794" height="163.299688"/>
  </clipPath>
 </defs>
</svg>
