<?xml version="1.0" encoding="utf-8" standalone="no"?>
<!DOCTYPE svg PUBLIC "-//W3C//DTD SVG 1.1//EN"
  "http://www.w3.org/Graphics/SVG/1.1/DTD/svg11.dtd">
<svg xmlns:xlink="http://www.w3.org/1999/xlink" width="460.8pt" height="216pt" viewBox="0 0 460.8 216" xmlns="http://www.w3.org/2000/svg" version="1.1">
 <metadata>
  <rdf:RDF xmlns:dc="http://purl.org/dc/elements/1.1/" xmlns:cc="http://creativecommons.org/ns#" xmlns:rdf="http://www.w3.org/1999/02/22-rdf-syntax-ns#">
   <cc:Work>
    <dc:type rdf:resource="http://purl.org/dc/dcmitype/StillImage"/>
    <dc:date>2022-05-19T12:21:30.311877</dc:date>
    <dc:format>image/svg+xml</dc:format>
    <dc:creator>
     <cc:Agent>
      <dc:title>Matplotlib v3.5.1, https://matplotlib.org/</dc:title>
     </cc:Agent>
    </dc:creator>
   </cc:Work>
  </rdf:RDF>
 </metadata>
 <defs>
  <style type="text/css">*{stroke-linejoin: round; stroke-linecap: butt}</style>
 </defs>
 <g id="figure_1">
  <g id="patch_1">
   <path d="M 0 216 
L 460.8 216 
L 460.8 0 
L 0 0 
z
" style="fill: #ffffff"/>
  </g>
  <g id="axes_1">
   <g id="patch_2">
    <path d="M 131.389063 188.942187 
L 384.971697 188.942187 
L 384.971697 25.6425 
L 131.389063 25.6425 
z
" style="fill: #ffffff"/>
   </g>
   <g id="patch_3">
    <path d="M 131.389063 181.993265 
L 303.894256 181.993265 
L 303.894256 158.830188 
L 131.389063 158.830188 
z
" clip-path="url(#p37cb62dcd1)" style="fill: #1f77b4"/>
   </g>
   <g id="patch_4">
    <path d="M 131.389063 153.039419 
L 234.892179 153.039419 
L 234.892179 129.876343 
L 131.389063 129.876343 
z
" clip-path="url(#p37cb62dcd1)" style="fill: #1f77b4"/>
   </g>
   <g id="patch_5">
    <path d="M 131.389063 124.085574 
L 372.896333 124.085574 
L 372.896333 100.922498 
L 131.389063 100.922498 
z
" clip-path="url(#p37cb62dcd1)" style="fill: #1f77b4"/>
   </g>
   <g id="patch_6">
    <path d="M 131.389063 95.131729 
L 338.395295 95.131729 
L 338.395295 71.968652 
L 131.389063 71.968652 
z
" clip-path="url(#p37cb62dcd1)" style="fill: #1f77b4"/>
   </g>
   <g id="patch_7">
    <path d="M 131.389063 66.177883 
L 234.892179 66.177883 
L 234.892179 43.014807 
L 131.389063 43.014807 
z
" clip-path="url(#p37cb62dcd1)" style="fill: #1f77b4"/>
   </g>
   <g id="patch_8">
    <path d="M 0 0 
z
" clip-path="url(#p37cb62dcd1)" style="fill: #1f77b4"/>
   </g>
   <g id="matplotlib.axis_1">
    <g id="xtick_1">
     <g id="line2d_1">
      <defs>
       <path id="m4c99cd72f3" d="M 0 0 
L 0 3.5 
" style="stroke: #000000; stroke-width: 0.8"/>
      </defs>
      <g>
       <use xlink:href="#m4c99cd72f3" x="131.389063" y="188.942187" style="stroke: #000000; stroke-width: 0.8"/>
      </g>
     </g>
     <g id="text_1">
      <!-- 0 -->
      <g transform="translate(128.608594 203.115625)scale(0.1 -0.1)">
       <defs>
        <path id="Helvetica-30" d="M 1731 4475 
Q 2600 4475 2988 3759 
Q 3288 3206 3288 2244 
Q 3288 1331 3016 734 
Q 2622 -122 1728 -122 
Q 922 -122 528 578 
Q 200 1163 200 2147 
Q 200 2909 397 3456 
Q 766 4475 1731 4475 
z
M 1725 391 
Q 2163 391 2422 778 
Q 2681 1166 2681 2222 
Q 2681 2984 2493 3476 
Q 2306 3969 1766 3969 
Q 1269 3969 1039 3501 
Q 809 3034 809 2125 
Q 809 1441 956 1025 
Q 1181 391 1725 391 
z
" transform="scale(0.015625)"/>
       </defs>
       <use xlink:href="#Helvetica-30"/>
      </g>
     </g>
    </g>
    <g id="xtick_2">
     <g id="line2d_2">
      <g>
       <use xlink:href="#m4c99cd72f3" x="176.240413" y="188.942187" style="stroke: #000000; stroke-width: 0.8"/>
      </g>
     </g>
     <g id="text_2">
      <!-- 5 -->
      <g transform="translate(173.459944 203.115625)scale(0.1 -0.1)">
       <defs>
        <path id="Helvetica-35" d="M 791 1141 
Q 847 659 1238 475 
Q 1438 381 1700 381 
Q 2200 381 2440 700 
Q 2681 1019 2681 1406 
Q 2681 1875 2395 2131 
Q 2109 2388 1709 2388 
Q 1419 2388 1211 2275 
Q 1003 2163 856 1963 
L 369 1991 
L 709 4400 
L 3034 4400 
L 3034 3856 
L 1131 3856 
L 941 2613 
Q 1097 2731 1238 2791 
Q 1488 2894 1816 2894 
Q 2431 2894 2859 2497 
Q 3288 2100 3288 1491 
Q 3288 856 2895 371 
Q 2503 -113 1644 -113 
Q 1097 -113 676 195 
Q 256 503 206 1141 
L 791 1141 
z
" transform="scale(0.015625)"/>
       </defs>
       <use xlink:href="#Helvetica-35"/>
      </g>
     </g>
    </g>
    <g id="xtick_3">
     <g id="line2d_3">
      <g>
       <use xlink:href="#m4c99cd72f3" x="221.091763" y="188.942187" style="stroke: #000000; stroke-width: 0.8"/>
      </g>
     </g>
     <g id="text_3">
      <!-- 10 -->
      <g transform="translate(215.530826 203.115625)scale(0.1 -0.1)">
       <defs>
        <path id="Helvetica-31" d="M 613 3169 
L 613 3600 
Q 1222 3659 1462 3798 
Q 1703 3938 1822 4456 
L 2266 4456 
L 2266 0 
L 1666 0 
L 1666 3169 
L 613 3169 
z
" transform="scale(0.015625)"/>
       </defs>
       <use xlink:href="#Helvetica-31"/>
       <use xlink:href="#Helvetica-30" x="55.615234"/>
      </g>
     </g>
    </g>
    <g id="xtick_4">
     <g id="line2d_4">
      <g>
       <use xlink:href="#m4c99cd72f3" x="265.943113" y="188.942187" style="stroke: #000000; stroke-width: 0.8"/>
      </g>
     </g>
     <g id="text_4">
      <!-- 15 -->
      <g transform="translate(260.382176 203.115625)scale(0.1 -0.1)">
       <use xlink:href="#Helvetica-31"/>
       <use xlink:href="#Helvetica-35" x="55.615234"/>
      </g>
     </g>
    </g>
    <g id="xtick_5">
     <g id="line2d_5">
      <g>
       <use xlink:href="#m4c99cd72f3" x="310.794464" y="188.942187" style="stroke: #000000; stroke-width: 0.8"/>
      </g>
     </g>
     <g id="text_5">
      <!-- 20 -->
      <g transform="translate(305.233526 203.115625)scale(0.1 -0.1)">
       <defs>
        <path id="Helvetica-32" d="M 200 0 
Q 231 578 439 1006 
Q 647 1434 1250 1784 
L 1850 2131 
Q 2253 2366 2416 2531 
Q 2672 2791 2672 3125 
Q 2672 3516 2437 3745 
Q 2203 3975 1813 3975 
Q 1234 3975 1013 3538 
Q 894 3303 881 2888 
L 309 2888 
Q 319 3472 525 3841 
Q 891 4491 1816 4491 
Q 2584 4491 2939 4075 
Q 3294 3659 3294 3150 
Q 3294 2613 2916 2231 
Q 2697 2009 2131 1694 
L 1703 1456 
Q 1397 1288 1222 1134 
Q 909 863 828 531 
L 3272 531 
L 3272 0 
L 200 0 
z
" transform="scale(0.015625)"/>
       </defs>
       <use xlink:href="#Helvetica-32"/>
       <use xlink:href="#Helvetica-30" x="55.615234"/>
      </g>
     </g>
    </g>
    <g id="xtick_6">
     <g id="line2d_6">
      <g>
       <use xlink:href="#m4c99cd72f3" x="355.645814" y="188.942187" style="stroke: #000000; stroke-width: 0.8"/>
      </g>
     </g>
     <g id="text_6">
      <!-- 25 -->
      <g transform="translate(350.084877 203.115625)scale(0.1 -0.1)">
       <use xlink:href="#Helvetica-32"/>
       <use xlink:href="#Helvetica-35" x="55.615234"/>
      </g>
     </g>
    </g>
   </g>
   <g id="matplotlib.axis_2">
    <g id="ytick_1">
     <g id="line2d_7">
      <defs>
       <path id="m8e343aef83" d="M 0 0 
L -3.5 0 
" style="stroke: #000000; stroke-width: 0.8"/>
      </defs>
      <g>
       <use xlink:href="#m8e343aef83" x="131.389063" y="170.411727" style="stroke: #000000; stroke-width: 0.8"/>
      </g>
     </g>
     <g id="text_7">
      <!-- ≥ NZD 120,000 -->
      <g transform="translate(56.648438 173.998445)scale(0.1 -0.1)">
       <defs>
        <path id="Helvetica-2265" d="M 288 3325 
L 3547 2222 
L 3547 1694 
L 288 591 
L 288 1153 
L 2881 1963 
L 288 2763 
L 288 3325 
z
M 3547 503 
L 3547 0 
L 288 0 
L 288 503 
L 3547 503 
z
" transform="scale(0.015625)"/>
        <path id="Helvetica-20" transform="scale(0.015625)"/>
        <path id="Helvetica-4e" d="M 488 4591 
L 1222 4591 
L 3541 872 
L 3541 4591 
L 4131 4591 
L 4131 0 
L 3434 0 
L 1081 3716 
L 1081 0 
L 488 0 
L 488 4591 
z
M 2269 4591 
L 2269 4591 
z
" transform="scale(0.015625)"/>
        <path id="Helvetica-5a" d="M 147 516 
L 2963 4044 
L 353 4044 
L 353 4591 
L 3763 4591 
L 3763 4056 
L 931 547 
L 3763 547 
L 3763 0 
L 147 0 
L 147 516 
z
M 2059 4591 
L 2059 4591 
z
" transform="scale(0.015625)"/>
        <path id="Helvetica-44" d="M 2250 531 
Q 2566 531 2769 597 
Q 3131 719 3363 1066 
Q 3547 1344 3628 1778 
Q 3675 2038 3675 2259 
Q 3675 3113 3336 3584 
Q 2997 4056 2244 4056 
L 1141 4056 
L 1141 531 
L 2250 531 
z
M 516 4591 
L 2375 4591 
Q 3322 4591 3844 3919 
Q 4309 3313 4309 2366 
Q 4309 1634 4034 1044 
Q 3550 0 2369 0 
L 516 0 
L 516 4591 
z
" transform="scale(0.015625)"/>
        <path id="Helvetica-2c" d="M 531 -653 
Q 747 -616 834 -350 
Q 881 -209 881 -78 
Q 881 -56 879 -39 
Q 878 -22 872 0 
L 531 0 
L 531 681 
L 1200 681 
L 1200 50 
Q 1200 -322 1050 -603 
Q 900 -884 531 -950 
L 531 -653 
z
" transform="scale(0.015625)"/>
       </defs>
       <use xlink:href="#Helvetica-2265"/>
       <use xlink:href="#Helvetica-20" x="54.882812"/>
       <use xlink:href="#Helvetica-4e" x="82.666016"/>
       <use xlink:href="#Helvetica-5a" x="154.882812"/>
       <use xlink:href="#Helvetica-44" x="215.966797"/>
       <use xlink:href="#Helvetica-20" x="288.183594"/>
       <use xlink:href="#Helvetica-31" x="315.966797"/>
       <use xlink:href="#Helvetica-32" x="371.582031"/>
       <use xlink:href="#Helvetica-30" x="427.197266"/>
       <use xlink:href="#Helvetica-2c" x="482.8125"/>
       <use xlink:href="#Helvetica-30" x="510.595703"/>
       <use xlink:href="#Helvetica-30" x="566.210938"/>
       <use xlink:href="#Helvetica-30" x="621.826172"/>
      </g>
     </g>
    </g>
    <g id="ytick_2">
     <g id="line2d_8">
      <g>
       <use xlink:href="#m8e343aef83" x="131.389063" y="141.457881" style="stroke: #000000; stroke-width: 0.8"/>
      </g>
     </g>
     <g id="text_8">
      <!-- ≥ NZD 105,000 and &lt; -->
      <g transform="translate(28.56875 140.415694)scale(0.1 -0.1)">
       <defs>
        <path id="Helvetica-61" d="M 844 891 
Q 844 647 1022 506 
Q 1200 366 1444 366 
Q 1741 366 2019 503 
Q 2488 731 2488 1250 
L 2488 1703 
Q 2384 1638 2221 1594 
Q 2059 1550 1903 1531 
L 1563 1488 
Q 1256 1447 1103 1359 
Q 844 1213 844 891 
z
M 2206 2028 
Q 2400 2053 2466 2191 
Q 2503 2266 2503 2406 
Q 2503 2694 2298 2823 
Q 2094 2953 1713 2953 
Q 1272 2953 1088 2716 
Q 984 2584 953 2325 
L 428 2325 
Q 444 2944 830 3186 
Q 1216 3428 1725 3428 
Q 2316 3428 2684 3203 
Q 3050 2978 3050 2503 
L 3050 575 
Q 3050 488 3086 434 
Q 3122 381 3238 381 
Q 3275 381 3322 386 
Q 3369 391 3422 400 
L 3422 -16 
Q 3291 -53 3222 -62 
Q 3153 -72 3034 -72 
Q 2744 -72 2613 134 
Q 2544 244 2516 444 
Q 2344 219 2022 53 
Q 1700 -113 1313 -113 
Q 847 -113 551 170 
Q 256 453 256 878 
Q 256 1344 547 1600 
Q 838 1856 1309 1916 
L 2206 2028 
z
M 1741 3428 
L 1741 3428 
z
" transform="scale(0.015625)"/>
        <path id="Helvetica-6e" d="M 413 3347 
L 947 3347 
L 947 2872 
Q 1184 3166 1450 3294 
Q 1716 3422 2041 3422 
Q 2753 3422 3003 2925 
Q 3141 2653 3141 2147 
L 3141 0 
L 2569 0 
L 2569 2109 
Q 2569 2416 2478 2603 
Q 2328 2916 1934 2916 
Q 1734 2916 1606 2875 
Q 1375 2806 1200 2600 
Q 1059 2434 1017 2257 
Q 975 2081 975 1753 
L 975 0 
L 413 0 
L 413 3347 
z
M 1734 3428 
L 1734 3428 
z
" transform="scale(0.015625)"/>
        <path id="Helvetica-64" d="M 769 1634 
Q 769 1097 997 734 
Q 1225 372 1728 372 
Q 2119 372 2370 708 
Q 2622 1044 2622 1672 
Q 2622 2306 2362 2611 
Q 2103 2916 1722 2916 
Q 1297 2916 1033 2591 
Q 769 2266 769 1634 
z
M 1616 3406 
Q 2000 3406 2259 3244 
Q 2409 3150 2600 2916 
L 2600 4606 
L 3141 4606 
L 3141 0 
L 2634 0 
L 2634 466 
Q 2438 156 2169 18 
Q 1900 -119 1553 -119 
Q 994 -119 584 351 
Q 175 822 175 1603 
Q 175 2334 548 2870 
Q 922 3406 1616 3406 
z
" transform="scale(0.015625)"/>
        <path id="Helvetica-3c" d="M 88 1894 
L 3741 3325 
L 3741 2763 
L 753 1634 
L 3741 503 
L 3741 -59 
L 88 1375 
L 88 1894 
z
" transform="scale(0.015625)"/>
       </defs>
       <use xlink:href="#Helvetica-2265"/>
       <use xlink:href="#Helvetica-20" x="54.882812"/>
       <use xlink:href="#Helvetica-4e" x="82.666016"/>
       <use xlink:href="#Helvetica-5a" x="154.882812"/>
       <use xlink:href="#Helvetica-44" x="215.966797"/>
       <use xlink:href="#Helvetica-20" x="288.183594"/>
       <use xlink:href="#Helvetica-31" x="315.966797"/>
       <use xlink:href="#Helvetica-30" x="371.582031"/>
       <use xlink:href="#Helvetica-35" x="427.197266"/>
       <use xlink:href="#Helvetica-2c" x="482.8125"/>
       <use xlink:href="#Helvetica-30" x="510.595703"/>
       <use xlink:href="#Helvetica-30" x="566.210938"/>
       <use xlink:href="#Helvetica-30" x="621.826172"/>
       <use xlink:href="#Helvetica-20" x="677.441406"/>
       <use xlink:href="#Helvetica-61" x="705.224609"/>
       <use xlink:href="#Helvetica-6e" x="760.839844"/>
       <use xlink:href="#Helvetica-64" x="816.455078"/>
       <use xlink:href="#Helvetica-20" x="872.070312"/>
       <use xlink:href="#Helvetica-3c" x="899.853516"/>
      </g>
      <!-- NZD 120,000 -->
      <g transform="translate(64.915625 151.108194)scale(0.1 -0.1)">
       <use xlink:href="#Helvetica-4e"/>
       <use xlink:href="#Helvetica-5a" x="72.216797"/>
       <use xlink:href="#Helvetica-44" x="133.300781"/>
       <use xlink:href="#Helvetica-20" x="205.517578"/>
       <use xlink:href="#Helvetica-31" x="233.300781"/>
       <use xlink:href="#Helvetica-32" x="288.916016"/>
       <use xlink:href="#Helvetica-30" x="344.53125"/>
       <use xlink:href="#Helvetica-2c" x="400.146484"/>
       <use xlink:href="#Helvetica-30" x="427.929688"/>
       <use xlink:href="#Helvetica-30" x="483.544922"/>
       <use xlink:href="#Helvetica-30" x="539.160156"/>
      </g>
     </g>
    </g>
    <g id="ytick_3">
     <g id="line2d_9">
      <g>
       <use xlink:href="#m8e343aef83" x="131.389063" y="112.504036" style="stroke: #000000; stroke-width: 0.8"/>
      </g>
     </g>
     <g id="text_9">
      <!-- ≥ NZD 85,000 and &lt; NZD -->
      <g transform="translate(10.8 111.461848)scale(0.1 -0.1)">
       <defs>
        <path id="Helvetica-38" d="M 1741 2600 
Q 2113 2600 2322 2808 
Q 2531 3016 2531 3303 
Q 2531 3553 2331 3762 
Q 2131 3972 1722 3972 
Q 1316 3972 1134 3762 
Q 953 3553 953 3272 
Q 953 2956 1187 2778 
Q 1422 2600 1741 2600 
z
M 1775 384 
Q 2166 384 2423 595 
Q 2681 806 2681 1225 
Q 2681 1659 2415 1884 
Q 2150 2109 1734 2109 
Q 1331 2109 1076 1879 
Q 822 1650 822 1244 
Q 822 894 1055 639 
Q 1288 384 1775 384 
z
M 975 2384 
Q 741 2484 609 2619 
Q 363 2869 363 3269 
Q 363 3769 725 4128 
Q 1088 4488 1753 4488 
Q 2397 4488 2762 4148 
Q 3128 3809 3128 3356 
Q 3128 2938 2916 2678 
Q 2797 2531 2547 2391 
Q 2825 2263 2984 2097 
Q 3281 1784 3281 1284 
Q 3281 694 2884 283 
Q 2488 -128 1763 -128 
Q 1109 -128 657 226 
Q 206 581 206 1256 
Q 206 1653 400 1942 
Q 594 2231 975 2384 
z
" transform="scale(0.015625)"/>
       </defs>
       <use xlink:href="#Helvetica-2265"/>
       <use xlink:href="#Helvetica-20" x="54.882812"/>
       <use xlink:href="#Helvetica-4e" x="82.666016"/>
       <use xlink:href="#Helvetica-5a" x="154.882812"/>
       <use xlink:href="#Helvetica-44" x="215.966797"/>
       <use xlink:href="#Helvetica-20" x="288.183594"/>
       <use xlink:href="#Helvetica-38" x="315.966797"/>
       <use xlink:href="#Helvetica-35" x="371.582031"/>
       <use xlink:href="#Helvetica-2c" x="427.197266"/>
       <use xlink:href="#Helvetica-30" x="454.980469"/>
       <use xlink:href="#Helvetica-30" x="510.595703"/>
       <use xlink:href="#Helvetica-30" x="566.210938"/>
       <use xlink:href="#Helvetica-20" x="621.826172"/>
       <use xlink:href="#Helvetica-61" x="649.609375"/>
       <use xlink:href="#Helvetica-6e" x="705.224609"/>
       <use xlink:href="#Helvetica-64" x="760.839844"/>
       <use xlink:href="#Helvetica-20" x="816.455078"/>
       <use xlink:href="#Helvetica-3c" x="844.238281"/>
       <use xlink:href="#Helvetica-20" x="902.636719"/>
       <use xlink:href="#Helvetica-4e" x="930.419922"/>
       <use xlink:href="#Helvetica-5a" x="1002.636719"/>
       <use xlink:href="#Helvetica-44" x="1063.720703"/>
      </g>
      <!-- 105,000 -->
      <g transform="translate(88.245313 122.154348)scale(0.1 -0.1)">
       <use xlink:href="#Helvetica-31"/>
       <use xlink:href="#Helvetica-30" x="55.615234"/>
       <use xlink:href="#Helvetica-35" x="111.230469"/>
       <use xlink:href="#Helvetica-2c" x="166.845703"/>
       <use xlink:href="#Helvetica-30" x="194.628906"/>
       <use xlink:href="#Helvetica-30" x="250.244141"/>
       <use xlink:href="#Helvetica-30" x="305.859375"/>
      </g>
     </g>
    </g>
    <g id="ytick_4">
     <g id="line2d_10">
      <g>
       <use xlink:href="#m8e343aef83" x="131.389063" y="83.550191" style="stroke: #000000; stroke-width: 0.8"/>
      </g>
     </g>
     <g id="text_10">
      <!-- ≥ NZD 65,000 and &lt; NZD -->
      <g transform="translate(10.8 82.508003)scale(0.1 -0.1)">
       <defs>
        <path id="Helvetica-36" d="M 1872 4494 
Q 2622 4494 2917 4105 
Q 3213 3716 3213 3303 
L 2656 3303 
Q 2606 3569 2497 3719 
Q 2294 4000 1881 4000 
Q 1409 4000 1131 3564 
Q 853 3128 822 2316 
Q 1016 2600 1309 2741 
Q 1578 2866 1909 2866 
Q 2472 2866 2890 2506 
Q 3309 2147 3309 1434 
Q 3309 825 2912 354 
Q 2516 -116 1781 -116 
Q 1153 -116 697 361 
Q 241 838 241 1966 
Q 241 2800 444 3381 
Q 834 4494 1872 4494 
z
M 1831 384 
Q 2275 384 2495 682 
Q 2716 981 2716 1388 
Q 2716 1731 2519 2042 
Q 2322 2353 1803 2353 
Q 1441 2353 1167 2112 
Q 894 1872 894 1388 
Q 894 963 1142 673 
Q 1391 384 1831 384 
z
" transform="scale(0.015625)"/>
       </defs>
       <use xlink:href="#Helvetica-2265"/>
       <use xlink:href="#Helvetica-20" x="54.882812"/>
       <use xlink:href="#Helvetica-4e" x="82.666016"/>
       <use xlink:href="#Helvetica-5a" x="154.882812"/>
       <use xlink:href="#Helvetica-44" x="215.966797"/>
       <use xlink:href="#Helvetica-20" x="288.183594"/>
       <use xlink:href="#Helvetica-36" x="315.966797"/>
       <use xlink:href="#Helvetica-35" x="371.582031"/>
       <use xlink:href="#Helvetica-2c" x="427.197266"/>
       <use xlink:href="#Helvetica-30" x="454.980469"/>
       <use xlink:href="#Helvetica-30" x="510.595703"/>
       <use xlink:href="#Helvetica-30" x="566.210938"/>
       <use xlink:href="#Helvetica-20" x="621.826172"/>
       <use xlink:href="#Helvetica-61" x="649.609375"/>
       <use xlink:href="#Helvetica-6e" x="705.224609"/>
       <use xlink:href="#Helvetica-64" x="760.839844"/>
       <use xlink:href="#Helvetica-20" x="816.455078"/>
       <use xlink:href="#Helvetica-3c" x="844.238281"/>
       <use xlink:href="#Helvetica-20" x="902.636719"/>
       <use xlink:href="#Helvetica-4e" x="930.419922"/>
       <use xlink:href="#Helvetica-5a" x="1002.636719"/>
       <use xlink:href="#Helvetica-44" x="1063.720703"/>
      </g>
      <!-- 85,000 -->
      <g transform="translate(93.80625 93.200503)scale(0.1 -0.1)">
       <use xlink:href="#Helvetica-38"/>
       <use xlink:href="#Helvetica-35" x="55.615234"/>
       <use xlink:href="#Helvetica-2c" x="111.230469"/>
       <use xlink:href="#Helvetica-30" x="139.013672"/>
       <use xlink:href="#Helvetica-30" x="194.628906"/>
       <use xlink:href="#Helvetica-30" x="250.244141"/>
      </g>
     </g>
    </g>
    <g id="ytick_5">
     <g id="line2d_11">
      <g>
       <use xlink:href="#m8e343aef83" x="131.389063" y="54.596345" style="stroke: #000000; stroke-width: 0.8"/>
      </g>
     </g>
     <g id="text_11">
      <!-- ≥ NZD 45,000 and &lt; NZD -->
      <g transform="translate(10.8 53.554158)scale(0.1 -0.1)">
       <defs>
        <path id="Helvetica-34" d="M 2116 1584 
L 2116 3613 
L 681 1584 
L 2116 1584 
z
M 2125 0 
L 2125 1094 
L 163 1094 
L 163 1644 
L 2213 4488 
L 2688 4488 
L 2688 1584 
L 3347 1584 
L 3347 1094 
L 2688 1094 
L 2688 0 
L 2125 0 
z
" transform="scale(0.015625)"/>
       </defs>
       <use xlink:href="#Helvetica-2265"/>
       <use xlink:href="#Helvetica-20" x="54.882812"/>
       <use xlink:href="#Helvetica-4e" x="82.666016"/>
       <use xlink:href="#Helvetica-5a" x="154.882812"/>
       <use xlink:href="#Helvetica-44" x="215.966797"/>
       <use xlink:href="#Helvetica-20" x="288.183594"/>
       <use xlink:href="#Helvetica-34" x="315.966797"/>
       <use xlink:href="#Helvetica-35" x="371.582031"/>
       <use xlink:href="#Helvetica-2c" x="427.197266"/>
       <use xlink:href="#Helvetica-30" x="454.980469"/>
       <use xlink:href="#Helvetica-30" x="510.595703"/>
       <use xlink:href="#Helvetica-30" x="566.210938"/>
       <use xlink:href="#Helvetica-20" x="621.826172"/>
       <use xlink:href="#Helvetica-61" x="649.609375"/>
       <use xlink:href="#Helvetica-6e" x="705.224609"/>
       <use xlink:href="#Helvetica-64" x="760.839844"/>
       <use xlink:href="#Helvetica-20" x="816.455078"/>
       <use xlink:href="#Helvetica-3c" x="844.238281"/>
       <use xlink:href="#Helvetica-20" x="902.636719"/>
       <use xlink:href="#Helvetica-4e" x="930.419922"/>
       <use xlink:href="#Helvetica-5a" x="1002.636719"/>
       <use xlink:href="#Helvetica-44" x="1063.720703"/>
      </g>
      <!-- 65,000 -->
      <g transform="translate(93.80625 64.246658)scale(0.1 -0.1)">
       <use xlink:href="#Helvetica-36"/>
       <use xlink:href="#Helvetica-35" x="55.615234"/>
       <use xlink:href="#Helvetica-2c" x="111.230469"/>
       <use xlink:href="#Helvetica-30" x="139.013672"/>
       <use xlink:href="#Helvetica-30" x="194.628906"/>
       <use xlink:href="#Helvetica-30" x="250.244141"/>
      </g>
     </g>
    </g>
    <g id="ytick_6">
     <g id="line2d_12">
      <g>
       <use xlink:href="#m8e343aef83" x="131.389063" y="25.6425" style="stroke: #000000; stroke-width: 0.8"/>
      </g>
     </g>
     <g id="text_12">
      <!-- &lt; NZD 45,000 -->
      <g transform="translate(61.857813 29.229219)scale(0.1 -0.1)">
       <use xlink:href="#Helvetica-3c"/>
       <use xlink:href="#Helvetica-20" x="58.398438"/>
       <use xlink:href="#Helvetica-4e" x="86.181641"/>
       <use xlink:href="#Helvetica-5a" x="158.398438"/>
       <use xlink:href="#Helvetica-44" x="219.482422"/>
       <use xlink:href="#Helvetica-20" x="291.699219"/>
       <use xlink:href="#Helvetica-34" x="319.482422"/>
       <use xlink:href="#Helvetica-35" x="375.097656"/>
       <use xlink:href="#Helvetica-2c" x="430.712891"/>
       <use xlink:href="#Helvetica-30" x="458.496094"/>
       <use xlink:href="#Helvetica-30" x="514.111328"/>
       <use xlink:href="#Helvetica-30" x="569.726562"/>
      </g>
     </g>
    </g>
   </g>
   <g id="patch_9">
    <path d="M 131.389063 188.942187 
L 384.971697 188.942187 
" style="fill: none; stroke: #000000; stroke-width: 0.8; stroke-linejoin: miter; stroke-linecap: square"/>
   </g>
   <g id="text_13">
    <!-- 19% -->
    <g transform="translate(308.887225 172.956258)scale(0.1 -0.1)">
     <defs>
      <path id="Helvetica-39" d="M 850 1081 
Q 875 616 1209 438 
Q 1381 344 1597 344 
Q 2000 344 2284 680 
Q 2569 1016 2688 2044 
Q 2500 1747 2223 1626 
Q 1947 1506 1628 1506 
Q 981 1506 604 1909 
Q 228 2313 228 2947 
Q 228 3556 600 4018 
Q 972 4481 1697 4481 
Q 2675 4481 3047 3600 
Q 3253 3116 3253 2388 
Q 3253 1566 3006 931 
Q 2597 -125 1619 -125 
Q 963 -125 622 219 
Q 281 563 281 1081 
L 850 1081 
z
M 1703 2000 
Q 2038 2000 2314 2220 
Q 2591 2441 2591 2991 
Q 2591 3484 2342 3726 
Q 2094 3969 1709 3969 
Q 1297 3969 1055 3692 
Q 813 3416 813 2953 
Q 813 2516 1025 2258 
Q 1238 2000 1703 2000 
z
" transform="scale(0.015625)"/>
      <path id="Helvetica-25" d="M 4363 2175 
Q 4813 2175 5131 1856 
Q 5450 1538 5450 1088 
Q 5450 638 5131 319 
Q 4813 0 4363 0 
Q 3909 0 3590 319 
Q 3272 638 3272 1088 
Q 3272 1538 3590 1856 
Q 3909 2175 4363 2175 
z
M 3909 4456 
L 4256 4456 
L 1753 -119 
L 1406 -119 
L 3909 4456 
z
M 1294 2606 
Q 1563 2606 1752 2795 
Q 1941 2984 1941 3250 
Q 1941 3516 1752 3705 
Q 1563 3894 1294 3894 
Q 1028 3894 839 3706 
Q 650 3519 650 3250 
Q 650 2984 839 2795 
Q 1028 2606 1294 2606 
z
M 1294 4341 
Q 1747 4341 2065 4020 
Q 2384 3700 2384 3250 
Q 2384 2800 2065 2481 
Q 1747 2163 1294 2163 
Q 844 2163 525 2481 
Q 206 2800 206 3250 
Q 206 3700 525 4020 
Q 844 4341 1294 4341 
z
M 4363 444 
Q 4628 444 4817 633 
Q 5006 822 5006 1088 
Q 5006 1353 4817 1542 
Q 4628 1731 4363 1731 
Q 4094 1731 3905 1542 
Q 3716 1353 3716 1088 
Q 3716 822 3905 633 
Q 4094 444 4363 444 
z
" transform="scale(0.015625)"/>
     </defs>
     <use xlink:href="#Helvetica-31"/>
     <use xlink:href="#Helvetica-39" x="55.615234"/>
     <use xlink:href="#Helvetica-25" x="111.230469"/>
    </g>
   </g>
   <g id="text_14">
    <!-- 12% -->
    <g transform="translate(239.885147 144.002412)scale(0.1 -0.1)">
     <use xlink:href="#Helvetica-31"/>
     <use xlink:href="#Helvetica-32" x="55.615234"/>
     <use xlink:href="#Helvetica-25" x="111.230469"/>
    </g>
   </g>
   <g id="text_15">
    <!-- 27% -->
    <g transform="translate(377.889302 115.048567)scale(0.1 -0.1)">
     <defs>
      <path id="Helvetica-37" d="M 3347 4400 
L 3347 3909 
Q 3131 3700 2773 3181 
Q 2416 2663 2141 2063 
Q 1869 1478 1728 997 
Q 1638 688 1494 0 
L 872 0 
Q 1084 1281 1809 2550 
Q 2238 3294 2709 3834 
L 234 3834 
L 234 4400 
L 3347 4400 
z
" transform="scale(0.015625)"/>
     </defs>
     <use xlink:href="#Helvetica-32"/>
     <use xlink:href="#Helvetica-37" x="55.615234"/>
     <use xlink:href="#Helvetica-25" x="111.230469"/>
    </g>
   </g>
   <g id="text_16">
    <!-- 23% -->
    <g transform="translate(343.388263 86.094722)scale(0.1 -0.1)">
     <defs>
      <path id="Helvetica-33" d="M 1663 -122 
Q 869 -122 511 314 
Q 153 750 153 1375 
L 741 1375 
Q 778 941 903 744 
Q 1122 391 1694 391 
Q 2138 391 2406 628 
Q 2675 866 2675 1241 
Q 2675 1703 2392 1887 
Q 2109 2072 1606 2072 
Q 1550 2072 1492 2070 
Q 1434 2069 1375 2066 
L 1375 2563 
Q 1463 2553 1522 2550 
Q 1581 2547 1650 2547 
Q 1966 2547 2169 2647 
Q 2525 2822 2525 3272 
Q 2525 3606 2287 3787 
Q 2050 3969 1734 3969 
Q 1172 3969 956 3594 
Q 838 3388 822 3006 
L 266 3006 
Q 266 3506 466 3856 
Q 809 4481 1675 4481 
Q 2359 4481 2734 4176 
Q 3109 3872 3109 3294 
Q 3109 2881 2888 2625 
Q 2750 2466 2531 2375 
Q 2884 2278 3082 2001 
Q 3281 1725 3281 1325 
Q 3281 684 2859 281 
Q 2438 -122 1663 -122 
z
" transform="scale(0.015625)"/>
     </defs>
     <use xlink:href="#Helvetica-32"/>
     <use xlink:href="#Helvetica-33" x="55.615234"/>
     <use xlink:href="#Helvetica-25" x="111.230469"/>
    </g>
   </g>
   <g id="text_17">
    <!-- 12% -->
    <g transform="translate(239.885147 57.140877)scale(0.1 -0.1)">
     <use xlink:href="#Helvetica-31"/>
     <use xlink:href="#Helvetica-32" x="55.615234"/>
     <use xlink:href="#Helvetica-25" x="111.230469"/>
    </g>
   </g>
   <g id="text_18">
    <!-- Salary, New Zealand -->
    <g transform="translate(202.490067 19.6425)scale(0.12 -0.12)">
     <defs>
      <path id="Helvetica-53" d="M 894 1481 
Q 916 1091 1078 847 
Q 1388 391 2169 391 
Q 2519 391 2806 491 
Q 3363 684 3363 1184 
Q 3363 1559 3128 1719 
Q 2891 1875 2384 1991 
L 1763 2131 
Q 1153 2269 900 2434 
Q 463 2722 463 3294 
Q 463 3913 891 4309 
Q 1319 4706 2103 4706 
Q 2825 4706 3329 4357 
Q 3834 4009 3834 3244 
L 3250 3244 
Q 3203 3613 3050 3809 
Q 2766 4169 2084 4169 
Q 1534 4169 1293 3937 
Q 1053 3706 1053 3400 
Q 1053 3063 1334 2906 
Q 1519 2806 2169 2656 
L 2813 2509 
Q 3278 2403 3531 2219 
Q 3969 1897 3969 1284 
Q 3969 522 3414 194 
Q 2859 -134 2125 -134 
Q 1269 -134 784 303 
Q 300 738 309 1481 
L 894 1481 
z
M 2150 4716 
L 2150 4716 
z
" transform="scale(0.015625)"/>
      <path id="Helvetica-6c" d="M 428 4591 
L 991 4591 
L 991 0 
L 428 0 
L 428 4591 
z
" transform="scale(0.015625)"/>
      <path id="Helvetica-72" d="M 428 3347 
L 963 3347 
L 963 2769 
Q 1028 2938 1284 3180 
Q 1541 3422 1875 3422 
Q 1891 3422 1928 3419 
Q 1966 3416 2056 3406 
L 2056 2813 
Q 2006 2822 1964 2825 
Q 1922 2828 1872 2828 
Q 1447 2828 1219 2554 
Q 991 2281 991 1925 
L 991 0 
L 428 0 
L 428 3347 
z
" transform="scale(0.015625)"/>
      <path id="Helvetica-79" d="M 2503 3347 
L 3125 3347 
Q 3006 3025 2597 1878 
Q 2291 1016 2084 472 
Q 1597 -809 1397 -1090 
Q 1197 -1372 709 -1372 
Q 591 -1372 527 -1362 
Q 463 -1353 369 -1328 
L 369 -816 
Q 516 -856 581 -865 
Q 647 -875 697 -875 
Q 853 -875 926 -823 
Q 1000 -772 1050 -697 
Q 1066 -672 1162 -440 
Q 1259 -209 1303 -97 
L 66 3347 
L 703 3347 
L 1600 622 
L 2503 3347 
z
M 1597 3428 
L 1597 3428 
z
" transform="scale(0.015625)"/>
      <path id="Helvetica-65" d="M 1806 3422 
Q 2163 3422 2497 3255 
Q 2831 3088 3006 2822 
Q 3175 2569 3231 2231 
Q 3281 2000 3281 1494 
L 828 1494 
Q 844 984 1069 676 
Q 1294 369 1766 369 
Q 2206 369 2469 659 
Q 2619 828 2681 1050 
L 3234 1050 
Q 3213 866 3089 639 
Q 2966 413 2813 269 
Q 2556 19 2178 -69 
Q 1975 -119 1719 -119 
Q 1094 -119 659 336 
Q 225 791 225 1609 
Q 225 2416 662 2919 
Q 1100 3422 1806 3422 
z
M 2703 1941 
Q 2669 2306 2544 2525 
Q 2313 2931 1772 2931 
Q 1384 2931 1121 2651 
Q 859 2372 844 1941 
L 2703 1941 
z
M 1753 3428 
L 1753 3428 
z
" transform="scale(0.015625)"/>
      <path id="Helvetica-77" d="M 672 3347 
L 1316 709 
L 1969 3347 
L 2600 3347 
L 3256 725 
L 3941 3347 
L 4503 3347 
L 3531 0 
L 2947 0 
L 2266 2591 
L 1606 0 
L 1022 0 
L 56 3347 
L 672 3347 
z
" transform="scale(0.015625)"/>
     </defs>
     <use xlink:href="#Helvetica-53"/>
     <use xlink:href="#Helvetica-61" x="66.699219"/>
     <use xlink:href="#Helvetica-6c" x="122.314453"/>
     <use xlink:href="#Helvetica-61" x="144.53125"/>
     <use xlink:href="#Helvetica-72" x="200.146484"/>
     <use xlink:href="#Helvetica-79" x="233.447266"/>
     <use xlink:href="#Helvetica-2c" x="283.447266"/>
     <use xlink:href="#Helvetica-20" x="311.230469"/>
     <use xlink:href="#Helvetica-4e" x="339.013672"/>
     <use xlink:href="#Helvetica-65" x="411.230469"/>
     <use xlink:href="#Helvetica-77" x="466.845703"/>
     <use xlink:href="#Helvetica-20" x="539.0625"/>
     <use xlink:href="#Helvetica-5a" x="566.845703"/>
     <use xlink:href="#Helvetica-65" x="627.929688"/>
     <use xlink:href="#Helvetica-61" x="683.544922"/>
     <use xlink:href="#Helvetica-6c" x="739.160156"/>
     <use xlink:href="#Helvetica-61" x="761.376953"/>
     <use xlink:href="#Helvetica-6e" x="816.992188"/>
     <use xlink:href="#Helvetica-64" x="872.607422"/>
    </g>
   </g>
  </g>
  <g id="axes_2">
   <g id="patch_10">
    <path d="M 413.773909 188.942187 
L 450 188.942187 
L 450 25.6425 
L 413.773909 25.6425 
z
" style="fill: #ffffff"/>
   </g>
   <g id="patch_11">
    <path d="M 430.527343 181.993265 
L 448.35336 181.993265 
L 448.35336 158.830188 
L 430.527343 158.830188 
z
" clip-path="url(#p8096eedaa9)" style="fill: #008000"/>
   </g>
   <g id="patch_12">
    <path d="M 430.527343 153.039419 
L 430.225207 153.039419 
L 430.225207 129.876343 
L 430.527343 129.876343 
z
" clip-path="url(#p8096eedaa9)" style="fill: #ffa500"/>
   </g>
   <g id="patch_13">
    <path d="M 430.527343 124.085574 
L 415.42055 124.085574 
L 415.42055 100.922498 
L 430.527343 100.922498 
z
" clip-path="url(#p8096eedaa9)" style="fill: #ffa500"/>
   </g>
   <g id="patch_14">
    <path d="M 430.527343 95.131729 
L 437.778604 95.131729 
L 437.778604 71.968652 
L 430.527343 71.968652 
z
" clip-path="url(#p8096eedaa9)" style="fill: #008000"/>
   </g>
   <g id="patch_15">
    <path d="M 430.527343 66.177883 
L 426.297441 66.177883 
L 426.297441 43.014807 
L 430.527343 43.014807 
z
" clip-path="url(#p8096eedaa9)" style="fill: #ffa500"/>
   </g>
   <g id="patch_16">
    <path d="M 0 0 
z
" clip-path="url(#p8096eedaa9)" style="fill: #ffa500"/>
   </g>
   <g id="matplotlib.axis_3">
    <g id="xtick_7">
     <g id="line2d_13">
      <g>
       <use xlink:href="#m4c99cd72f3" x="417.172938" y="188.942187" style="stroke: #000000; stroke-width: 0.8"/>
      </g>
     </g>
     <g id="text_19">
      <!-- −10 -->
      <g transform="translate(408.691688 203.115625)scale(0.1 -0.1)">
       <defs>
        <path id="Helvetica-2212" d="M 3547 1894 
L 3547 1369 
L 288 1369 
L 288 1894 
L 3547 1894 
z
" transform="scale(0.015625)"/>
       </defs>
       <use xlink:href="#Helvetica-2212"/>
       <use xlink:href="#Helvetica-31" x="58.398438"/>
       <use xlink:href="#Helvetica-30" x="114.013672"/>
      </g>
     </g>
    </g>
    <g id="xtick_8">
     <g id="line2d_14">
      <g>
       <use xlink:href="#m4c99cd72f3" x="430.527343" y="188.942187" style="stroke: #000000; stroke-width: 0.8"/>
      </g>
     </g>
     <g id="text_20">
      <!-- 0 -->
      <g transform="translate(427.746875 203.115625)scale(0.1 -0.1)">
       <use xlink:href="#Helvetica-30"/>
      </g>
     </g>
    </g>
    <g id="xtick_9">
     <g id="line2d_15">
      <g>
       <use xlink:href="#m4c99cd72f3" x="443.881749" y="188.942187" style="stroke: #000000; stroke-width: 0.8"/>
      </g>
     </g>
     <g id="text_21">
      <!-- 10 -->
      <g transform="translate(438.320811 203.115625)scale(0.1 -0.1)">
       <use xlink:href="#Helvetica-31"/>
       <use xlink:href="#Helvetica-30" x="55.615234"/>
      </g>
     </g>
    </g>
   </g>
   <g id="matplotlib.axis_4">
    <g id="ytick_7">
     <g id="line2d_16">
      <g>
       <use xlink:href="#m8e343aef83" x="413.773909" y="170.411727" style="stroke: #000000; stroke-width: 0.8"/>
      </g>
     </g>
    </g>
    <g id="ytick_8">
     <g id="line2d_17">
      <g>
       <use xlink:href="#m8e343aef83" x="413.773909" y="141.457881" style="stroke: #000000; stroke-width: 0.8"/>
      </g>
     </g>
    </g>
    <g id="ytick_9">
     <g id="line2d_18">
      <g>
       <use xlink:href="#m8e343aef83" x="413.773909" y="112.504036" style="stroke: #000000; stroke-width: 0.8"/>
      </g>
     </g>
    </g>
    <g id="ytick_10">
     <g id="line2d_19">
      <g>
       <use xlink:href="#m8e343aef83" x="413.773909" y="83.550191" style="stroke: #000000; stroke-width: 0.8"/>
      </g>
     </g>
    </g>
    <g id="ytick_11">
     <g id="line2d_20">
      <g>
       <use xlink:href="#m8e343aef83" x="413.773909" y="54.596345" style="stroke: #000000; stroke-width: 0.8"/>
      </g>
     </g>
    </g>
    <g id="ytick_12">
     <g id="line2d_21">
      <g>
       <use xlink:href="#m8e343aef83" x="413.773909" y="25.6425" style="stroke: #000000; stroke-width: 0.8"/>
      </g>
     </g>
    </g>
   </g>
   <g id="patch_17">
    <path d="M 413.773909 188.942187 
L 450 188.942187 
" style="fill: none; stroke: #000000; stroke-width: 0.8; stroke-linejoin: miter; stroke-linecap: square"/>
   </g>
   <g id="text_22">
    <!-- Δ -->
    <g transform="translate(427.55383 19.6425)scale(0.12 -0.12)">
     <defs>
      <path id="Helvetica-394" d="M 922 500 
L 3672 500 
L 2278 3941 
L 922 500 
z
M 1966 4519 
L 2631 4519 
L 4494 0 
L 128 0 
L 1966 4519 
z
" transform="scale(0.015625)"/>
     </defs>
     <use xlink:href="#Helvetica-394"/>
    </g>
   </g>
  </g>
 </g>
 <defs>
  <clipPath id="p37cb62dcd1">
   <rect x="131.389063" y="25.6425" width="253.582634" height="163.299688"/>
  </clipPath>
  <clipPath id="p8096eedaa9">
   <rect x="413.773909" y="25.6425" width="36.226091" height="163.299688"/>
  </clipPath>
 </defs>
</svg>
