<?xml version="1.0" encoding="utf-8" standalone="no"?>
<!DOCTYPE svg PUBLIC "-//W3C//DTD SVG 1.1//EN"
  "http://www.w3.org/Graphics/SVG/1.1/DTD/svg11.dtd">
<svg xmlns:xlink="http://www.w3.org/1999/xlink" width="576pt" height="432pt" viewBox="0 0 576 432" xmlns="http://www.w3.org/2000/svg" version="1.1">
 <metadata>
  <rdf:RDF xmlns:dc="http://purl.org/dc/elements/1.1/" xmlns:cc="http://creativecommons.org/ns#" xmlns:rdf="http://www.w3.org/1999/02/22-rdf-syntax-ns#">
   <cc:Work>
    <dc:type rdf:resource="http://purl.org/dc/dcmitype/StillImage"/>
    <dc:date>2022-08-10T14:13:21.819734</dc:date>
    <dc:format>image/svg+xml</dc:format>
    <dc:creator>
     <cc:Agent>
      <dc:title>Matplotlib v3.5.2, https://matplotlib.org/</dc:title>
     </cc:Agent>
    </dc:creator>
   </cc:Work>
  </rdf:RDF>
 </metadata>
 <defs>
  <style type="text/css">*{stroke-linejoin: round; stroke-linecap: butt}</style>
 </defs>
 <g id="figure_1">
  <g id="patch_1">
   <path d="M 0 432 
L 576 432 
L 576 0 
L 0 0 
z
" style="fill: #ffffff"/>
  </g>
  <g id="axes_1">
   <g id="patch_2">
    <path d="M 46.746875 381.55625 
L 279.883594 381.55625 
L 279.883594 33.00375 
L 46.746875 33.00375 
z
" style="fill: #ffffff"/>
   </g>
   <g id="patch_3">
    <path d="M 58.403711 365.712955 
L 151.658398 365.712955 
L 151.658398 275.179838 
L 58.403711 275.179838 
L 58.403711 365.712955 
z
" clip-path="url(#p2bf833cf98)" style="fill: #3274a1; stroke: #3f3f3f; stroke-width: 1.5; stroke-linejoin: miter"/>
   </g>
   <g id="patch_4">
    <path d="M 174.97207 365.712955 
L 268.226758 365.712955 
L 268.226758 275.179838 
L 174.97207 275.179838 
L 174.97207 365.712955 
z
" clip-path="url(#p2bf833cf98)" style="fill: #e1812c; stroke: #3f3f3f; stroke-width: 1.5; stroke-linejoin: miter"/>
   </g>
   <g id="matplotlib.axis_1">
    <g id="xtick_1">
     <g id="line2d_1">
      <defs>
       <path id="m4c99cd72f3" d="M 0 0 
L 0 3.5 
" style="stroke: #000000; stroke-width: 0.8"/>
      </defs>
      <g>
       <use xlink:href="#m4c99cd72f3" x="105.031055" y="391.55625" style="stroke: #000000; stroke-width: 0.8"/>
      </g>
     </g>
     <g id="text_1">
      <!-- 2018 -->
      <g transform="translate(93.90918 405.729688)scale(0.1 -0.1)">
       <defs>
        <path id="Helvetica-32" d="M 200 0 
Q 231 578 439 1006 
Q 647 1434 1250 1784 
L 1850 2131 
Q 2253 2366 2416 2531 
Q 2672 2791 2672 3125 
Q 2672 3516 2437 3745 
Q 2203 3975 1813 3975 
Q 1234 3975 1013 3538 
Q 894 3303 881 2888 
L 309 2888 
Q 319 3472 525 3841 
Q 891 4491 1816 4491 
Q 2584 4491 2939 4075 
Q 3294 3659 3294 3150 
Q 3294 2613 2916 2231 
Q 2697 2009 2131 1694 
L 1703 1456 
Q 1397 1288 1222 1134 
Q 909 863 828 531 
L 3272 531 
L 3272 0 
L 200 0 
z
" transform="scale(0.015625)"/>
        <path id="Helvetica-30" d="M 1731 4475 
Q 2600 4475 2988 3759 
Q 3288 3206 3288 2244 
Q 3288 1331 3016 734 
Q 2622 -122 1728 -122 
Q 922 -122 528 578 
Q 200 1163 200 2147 
Q 200 2909 397 3456 
Q 766 4475 1731 4475 
z
M 1725 391 
Q 2163 391 2422 778 
Q 2681 1166 2681 2222 
Q 2681 2984 2493 3476 
Q 2306 3969 1766 3969 
Q 1269 3969 1039 3501 
Q 809 3034 809 2125 
Q 809 1441 956 1025 
Q 1181 391 1725 391 
z
" transform="scale(0.015625)"/>
        <path id="Helvetica-31" d="M 613 3169 
L 613 3600 
Q 1222 3659 1462 3798 
Q 1703 3938 1822 4456 
L 2266 4456 
L 2266 0 
L 1666 0 
L 1666 3169 
L 613 3169 
z
" transform="scale(0.015625)"/>
        <path id="Helvetica-38" d="M 1741 2600 
Q 2113 2600 2322 2808 
Q 2531 3016 2531 3303 
Q 2531 3553 2331 3762 
Q 2131 3972 1722 3972 
Q 1316 3972 1134 3762 
Q 953 3553 953 3272 
Q 953 2956 1187 2778 
Q 1422 2600 1741 2600 
z
M 1775 384 
Q 2166 384 2423 595 
Q 2681 806 2681 1225 
Q 2681 1659 2415 1884 
Q 2150 2109 1734 2109 
Q 1331 2109 1076 1879 
Q 822 1650 822 1244 
Q 822 894 1055 639 
Q 1288 384 1775 384 
z
M 975 2384 
Q 741 2484 609 2619 
Q 363 2869 363 3269 
Q 363 3769 725 4128 
Q 1088 4488 1753 4488 
Q 2397 4488 2762 4148 
Q 3128 3809 3128 3356 
Q 3128 2938 2916 2678 
Q 2797 2531 2547 2391 
Q 2825 2263 2984 2097 
Q 3281 1784 3281 1284 
Q 3281 694 2884 283 
Q 2488 -128 1763 -128 
Q 1109 -128 657 226 
Q 206 581 206 1256 
Q 206 1653 400 1942 
Q 594 2231 975 2384 
z
" transform="scale(0.015625)"/>
       </defs>
       <use xlink:href="#Helvetica-32"/>
       <use xlink:href="#Helvetica-30" x="55.615234"/>
       <use xlink:href="#Helvetica-31" x="111.230469"/>
       <use xlink:href="#Helvetica-38" x="166.845703"/>
      </g>
     </g>
    </g>
    <g id="xtick_2">
     <g id="line2d_2">
      <g>
       <use xlink:href="#m4c99cd72f3" x="221.599414" y="391.55625" style="stroke: #000000; stroke-width: 0.8"/>
      </g>
     </g>
     <g id="text_2">
      <!-- 2022 -->
      <g transform="translate(210.477539 405.729688)scale(0.1 -0.1)">
       <use xlink:href="#Helvetica-32"/>
       <use xlink:href="#Helvetica-30" x="55.615234"/>
       <use xlink:href="#Helvetica-32" x="111.230469"/>
       <use xlink:href="#Helvetica-32" x="166.845703"/>
      </g>
     </g>
    </g>
    <g id="text_3">
     <!-- Year -->
     <g transform="translate(152.754297 418.9875)scale(0.1 -0.1)">
      <defs>
       <path id="Helvetica-59" d="M 131 4591 
L 856 4591 
L 2175 2384 
L 3494 4591 
L 4222 4591 
L 2488 1850 
L 2488 0 
L 1866 0 
L 1866 1850 
L 131 4591 
z
M 2184 4591 
L 2184 4591 
z
" transform="scale(0.015625)"/>
       <path id="Helvetica-65" d="M 1806 3422 
Q 2163 3422 2497 3255 
Q 2831 3088 3006 2822 
Q 3175 2569 3231 2231 
Q 3281 2000 3281 1494 
L 828 1494 
Q 844 984 1069 676 
Q 1294 369 1766 369 
Q 2206 369 2469 659 
Q 2619 828 2681 1050 
L 3234 1050 
Q 3213 866 3089 639 
Q 2966 413 2813 269 
Q 2556 19 2178 -69 
Q 1975 -119 1719 -119 
Q 1094 -119 659 336 
Q 225 791 225 1609 
Q 225 2416 662 2919 
Q 1100 3422 1806 3422 
z
M 2703 1941 
Q 2669 2306 2544 2525 
Q 2313 2931 1772 2931 
Q 1384 2931 1121 2651 
Q 859 2372 844 1941 
L 2703 1941 
z
M 1753 3428 
L 1753 3428 
z
" transform="scale(0.015625)"/>
       <path id="Helvetica-61" d="M 844 891 
Q 844 647 1022 506 
Q 1200 366 1444 366 
Q 1741 366 2019 503 
Q 2488 731 2488 1250 
L 2488 1703 
Q 2384 1638 2221 1594 
Q 2059 1550 1903 1531 
L 1563 1488 
Q 1256 1447 1103 1359 
Q 844 1213 844 891 
z
M 2206 2028 
Q 2400 2053 2466 2191 
Q 2503 2266 2503 2406 
Q 2503 2694 2298 2823 
Q 2094 2953 1713 2953 
Q 1272 2953 1088 2716 
Q 984 2584 953 2325 
L 428 2325 
Q 444 2944 830 3186 
Q 1216 3428 1725 3428 
Q 2316 3428 2684 3203 
Q 3050 2978 3050 2503 
L 3050 575 
Q 3050 488 3086 434 
Q 3122 381 3238 381 
Q 3275 381 3322 386 
Q 3369 391 3422 400 
L 3422 -16 
Q 3291 -53 3222 -62 
Q 3153 -72 3034 -72 
Q 2744 -72 2613 134 
Q 2544 244 2516 444 
Q 2344 219 2022 53 
Q 1700 -113 1313 -113 
Q 847 -113 551 170 
Q 256 453 256 878 
Q 256 1344 547 1600 
Q 838 1856 1309 1916 
L 2206 2028 
z
M 1741 3428 
L 1741 3428 
z
" transform="scale(0.015625)"/>
       <path id="Helvetica-72" d="M 428 3347 
L 963 3347 
L 963 2769 
Q 1028 2938 1284 3180 
Q 1541 3422 1875 3422 
Q 1891 3422 1928 3419 
Q 1966 3416 2056 3406 
L 2056 2813 
Q 2006 2822 1964 2825 
Q 1922 2828 1872 2828 
Q 1447 2828 1219 2554 
Q 991 2281 991 1925 
L 991 0 
L 428 0 
L 428 3347 
z
" transform="scale(0.015625)"/>
      </defs>
      <use xlink:href="#Helvetica-59"/>
      <use xlink:href="#Helvetica-65" x="66.699219"/>
      <use xlink:href="#Helvetica-61" x="122.314453"/>
      <use xlink:href="#Helvetica-72" x="177.929688"/>
     </g>
    </g>
   </g>
   <g id="matplotlib.axis_2">
    <g id="ytick_1">
     <g id="line2d_3">
      <defs>
       <path id="m8e343aef83" d="M 0 0 
L -3.5 0 
" style="stroke: #000000; stroke-width: 0.8"/>
      </defs>
      <g>
       <use xlink:href="#m8e343aef83" x="36.746875" y="365.712955" style="stroke: #000000; stroke-width: 0.8"/>
      </g>
     </g>
     <g id="text_4">
      <!-- 0 -->
      <g transform="translate(24.185938 369.299673)scale(0.1 -0.1)">
       <use xlink:href="#Helvetica-30"/>
      </g>
     </g>
    </g>
    <g id="ytick_2">
     <g id="line2d_4">
      <g>
       <use xlink:href="#m8e343aef83" x="36.746875" y="320.446396" style="stroke: #000000; stroke-width: 0.8"/>
      </g>
     </g>
     <g id="text_5">
      <!-- 1 -->
      <g transform="translate(24.185938 324.033115)scale(0.1 -0.1)">
       <use xlink:href="#Helvetica-31"/>
      </g>
     </g>
    </g>
    <g id="ytick_3">
     <g id="line2d_5">
      <g>
       <use xlink:href="#m8e343aef83" x="36.746875" y="275.179838" style="stroke: #000000; stroke-width: 0.8"/>
      </g>
     </g>
     <g id="text_6">
      <!-- 2 -->
      <g transform="translate(24.185938 278.766556)scale(0.1 -0.1)">
       <use xlink:href="#Helvetica-32"/>
      </g>
     </g>
    </g>
    <g id="ytick_4">
     <g id="line2d_6">
      <g>
       <use xlink:href="#m8e343aef83" x="36.746875" y="229.913279" style="stroke: #000000; stroke-width: 0.8"/>
      </g>
     </g>
     <g id="text_7">
      <!-- 3 -->
      <g transform="translate(24.185938 233.499998)scale(0.1 -0.1)">
       <defs>
        <path id="Helvetica-33" d="M 1663 -122 
Q 869 -122 511 314 
Q 153 750 153 1375 
L 741 1375 
Q 778 941 903 744 
Q 1122 391 1694 391 
Q 2138 391 2406 628 
Q 2675 866 2675 1241 
Q 2675 1703 2392 1887 
Q 2109 2072 1606 2072 
Q 1550 2072 1492 2070 
Q 1434 2069 1375 2066 
L 1375 2563 
Q 1463 2553 1522 2550 
Q 1581 2547 1650 2547 
Q 1966 2547 2169 2647 
Q 2525 2822 2525 3272 
Q 2525 3606 2287 3787 
Q 2050 3969 1734 3969 
Q 1172 3969 956 3594 
Q 838 3388 822 3006 
L 266 3006 
Q 266 3506 466 3856 
Q 809 4481 1675 4481 
Q 2359 4481 2734 4176 
Q 3109 3872 3109 3294 
Q 3109 2881 2888 2625 
Q 2750 2466 2531 2375 
Q 2884 2278 3082 2001 
Q 3281 1725 3281 1325 
Q 3281 684 2859 281 
Q 2438 -122 1663 -122 
z
" transform="scale(0.015625)"/>
       </defs>
       <use xlink:href="#Helvetica-33"/>
      </g>
     </g>
    </g>
    <g id="ytick_5">
     <g id="line2d_7">
      <g>
       <use xlink:href="#m8e343aef83" x="36.746875" y="184.646721" style="stroke: #000000; stroke-width: 0.8"/>
      </g>
     </g>
     <g id="text_8">
      <!-- 4 -->
      <g transform="translate(24.185938 188.23344)scale(0.1 -0.1)">
       <defs>
        <path id="Helvetica-34" d="M 2116 1584 
L 2116 3613 
L 681 1584 
L 2116 1584 
z
M 2125 0 
L 2125 1094 
L 163 1094 
L 163 1644 
L 2213 4488 
L 2688 4488 
L 2688 1584 
L 3347 1584 
L 3347 1094 
L 2688 1094 
L 2688 0 
L 2125 0 
z
" transform="scale(0.015625)"/>
       </defs>
       <use xlink:href="#Helvetica-34"/>
      </g>
     </g>
    </g>
    <g id="ytick_6">
     <g id="line2d_8">
      <g>
       <use xlink:href="#m8e343aef83" x="36.746875" y="139.380162" style="stroke: #000000; stroke-width: 0.8"/>
      </g>
     </g>
     <g id="text_9">
      <!-- 5 -->
      <g transform="translate(24.185938 142.966881)scale(0.1 -0.1)">
       <defs>
        <path id="Helvetica-35" d="M 791 1141 
Q 847 659 1238 475 
Q 1438 381 1700 381 
Q 2200 381 2440 700 
Q 2681 1019 2681 1406 
Q 2681 1875 2395 2131 
Q 2109 2388 1709 2388 
Q 1419 2388 1211 2275 
Q 1003 2163 856 1963 
L 369 1991 
L 709 4400 
L 3034 4400 
L 3034 3856 
L 1131 3856 
L 941 2613 
Q 1097 2731 1238 2791 
Q 1488 2894 1816 2894 
Q 2431 2894 2859 2497 
Q 3288 2100 3288 1491 
Q 3288 856 2895 371 
Q 2503 -113 1644 -113 
Q 1097 -113 676 195 
Q 256 503 206 1141 
L 791 1141 
z
" transform="scale(0.015625)"/>
       </defs>
       <use xlink:href="#Helvetica-35"/>
      </g>
     </g>
    </g>
    <g id="ytick_7">
     <g id="line2d_9">
      <g>
       <use xlink:href="#m8e343aef83" x="36.746875" y="94.113604" style="stroke: #000000; stroke-width: 0.8"/>
      </g>
     </g>
     <g id="text_10">
      <!-- 6 -->
      <g transform="translate(24.185938 97.700323)scale(0.1 -0.1)">
       <defs>
        <path id="Helvetica-36" d="M 1872 4494 
Q 2622 4494 2917 4105 
Q 3213 3716 3213 3303 
L 2656 3303 
Q 2606 3569 2497 3719 
Q 2294 4000 1881 4000 
Q 1409 4000 1131 3564 
Q 853 3128 822 2316 
Q 1016 2600 1309 2741 
Q 1578 2866 1909 2866 
Q 2472 2866 2890 2506 
Q 3309 2147 3309 1434 
Q 3309 825 2912 354 
Q 2516 -116 1781 -116 
Q 1153 -116 697 361 
Q 241 838 241 1966 
Q 241 2800 444 3381 
Q 834 4494 1872 4494 
z
M 1831 384 
Q 2275 384 2495 682 
Q 2716 981 2716 1388 
Q 2716 1731 2519 2042 
Q 2322 2353 1803 2353 
Q 1441 2353 1167 2112 
Q 894 1872 894 1388 
Q 894 963 1142 673 
Q 1391 384 1831 384 
z
" transform="scale(0.015625)"/>
       </defs>
       <use xlink:href="#Helvetica-36"/>
      </g>
     </g>
    </g>
    <g id="ytick_8">
     <g id="line2d_10">
      <g>
       <use xlink:href="#m8e343aef83" x="36.746875" y="48.847045" style="stroke: #000000; stroke-width: 0.8"/>
      </g>
     </g>
     <g id="text_11">
      <!-- 7 -->
      <g transform="translate(24.185938 52.433764)scale(0.1 -0.1)">
       <defs>
        <path id="Helvetica-37" d="M 3347 4400 
L 3347 3909 
Q 3131 3700 2773 3181 
Q 2416 2663 2141 2063 
Q 1869 1478 1728 997 
Q 1638 688 1494 0 
L 872 0 
Q 1084 1281 1809 2550 
Q 2238 3294 2709 3834 
L 234 3834 
L 234 4400 
L 3347 4400 
z
" transform="scale(0.015625)"/>
       </defs>
       <use xlink:href="#Helvetica-37"/>
      </g>
     </g>
    </g>
    <g id="text_12">
     <!-- Training events per year -->
     <g transform="translate(17.973438 261.191719)rotate(-90)scale(0.1 -0.1)">
      <defs>
       <path id="Helvetica-54" d="M 3828 4591 
L 3828 4044 
L 2281 4044 
L 2281 0 
L 1650 0 
L 1650 4044 
L 103 4044 
L 103 4591 
L 3828 4591 
z
" transform="scale(0.015625)"/>
       <path id="Helvetica-69" d="M 413 3331 
L 984 3331 
L 984 0 
L 413 0 
L 413 3331 
z
M 413 4591 
L 984 4591 
L 984 3953 
L 413 3953 
L 413 4591 
z
" transform="scale(0.015625)"/>
       <path id="Helvetica-6e" d="M 413 3347 
L 947 3347 
L 947 2872 
Q 1184 3166 1450 3294 
Q 1716 3422 2041 3422 
Q 2753 3422 3003 2925 
Q 3141 2653 3141 2147 
L 3141 0 
L 2569 0 
L 2569 2109 
Q 2569 2416 2478 2603 
Q 2328 2916 1934 2916 
Q 1734 2916 1606 2875 
Q 1375 2806 1200 2600 
Q 1059 2434 1017 2257 
Q 975 2081 975 1753 
L 975 0 
L 413 0 
L 413 3347 
z
M 1734 3428 
L 1734 3428 
z
" transform="scale(0.015625)"/>
       <path id="Helvetica-67" d="M 1594 3406 
Q 1988 3406 2281 3213 
Q 2441 3103 2606 2894 
L 2606 3316 
L 3125 3316 
L 3125 272 
Q 3125 -366 2938 -734 
Q 2588 -1416 1616 -1416 
Q 1075 -1416 706 -1173 
Q 338 -931 294 -416 
L 866 -416 
Q 906 -641 1028 -763 
Q 1219 -950 1628 -950 
Q 2275 -950 2475 -494 
Q 2594 -225 2584 466 
Q 2416 209 2178 84 
Q 1941 -41 1550 -41 
Q 1006 -41 598 345 
Q 191 731 191 1622 
Q 191 2463 602 2934 
Q 1013 3406 1594 3406 
z
M 2606 1688 
Q 2606 2309 2350 2609 
Q 2094 2909 1697 2909 
Q 1103 2909 884 2353 
Q 769 2056 769 1575 
Q 769 1009 998 714 
Q 1228 419 1616 419 
Q 2222 419 2469 966 
Q 2606 1275 2606 1688 
z
M 1659 3428 
L 1659 3428 
z
" transform="scale(0.015625)"/>
       <path id="Helvetica-20" transform="scale(0.015625)"/>
       <path id="Helvetica-76" d="M 688 3347 
L 1581 622 
L 2516 3347 
L 3131 3347 
L 1869 0 
L 1269 0 
L 34 3347 
L 688 3347 
z
" transform="scale(0.015625)"/>
       <path id="Helvetica-74" d="M 525 4281 
L 1094 4281 
L 1094 3347 
L 1628 3347 
L 1628 2888 
L 1094 2888 
L 1094 703 
Q 1094 528 1213 469 
Q 1278 434 1431 434 
Q 1472 434 1519 436 
Q 1566 438 1628 444 
L 1628 0 
Q 1531 -28 1426 -40 
Q 1322 -53 1200 -53 
Q 806 -53 665 148 
Q 525 350 525 672 
L 525 2888 
L 72 2888 
L 72 3347 
L 525 3347 
L 525 4281 
z
" transform="scale(0.015625)"/>
       <path id="Helvetica-73" d="M 747 1050 
Q 772 769 888 619 
Q 1100 347 1625 347 
Q 1938 347 2175 483 
Q 2413 619 2413 903 
Q 2413 1119 2222 1231 
Q 2100 1300 1741 1391 
L 1294 1503 
Q 866 1609 663 1741 
Q 300 1969 300 2372 
Q 300 2847 642 3140 
Q 984 3434 1563 3434 
Q 2319 3434 2653 2991 
Q 2863 2709 2856 2384 
L 2325 2384 
Q 2309 2575 2191 2731 
Q 1997 2953 1519 2953 
Q 1200 2953 1036 2831 
Q 872 2709 872 2509 
Q 872 2291 1088 2159 
Q 1213 2081 1456 2022 
L 1828 1931 
Q 2434 1784 2641 1647 
Q 2969 1431 2969 969 
Q 2969 522 2630 197 
Q 2291 -128 1597 -128 
Q 850 -128 539 211 
Q 228 550 206 1050 
L 747 1050 
z
M 1578 3428 
L 1578 3428 
z
" transform="scale(0.015625)"/>
       <path id="Helvetica-70" d="M 1825 378 
Q 2219 378 2480 708 
Q 2741 1038 2741 1694 
Q 2741 2094 2625 2381 
Q 2406 2934 1825 2934 
Q 1241 2934 1025 2350 
Q 909 2038 909 1556 
Q 909 1169 1025 897 
Q 1244 378 1825 378 
z
M 369 3331 
L 916 3331 
L 916 2888 
Q 1084 3116 1284 3241 
Q 1569 3428 1953 3428 
Q 2522 3428 2919 2992 
Q 3316 2556 3316 1747 
Q 3316 653 2744 184 
Q 2381 -113 1900 -113 
Q 1522 -113 1266 53 
Q 1116 147 931 375 
L 931 -1334 
L 369 -1334 
L 369 3331 
z
" transform="scale(0.015625)"/>
       <path id="Helvetica-79" d="M 2503 3347 
L 3125 3347 
Q 3006 3025 2597 1878 
Q 2291 1016 2084 472 
Q 1597 -809 1397 -1090 
Q 1197 -1372 709 -1372 
Q 591 -1372 527 -1362 
Q 463 -1353 369 -1328 
L 369 -816 
Q 516 -856 581 -865 
Q 647 -875 697 -875 
Q 853 -875 926 -823 
Q 1000 -772 1050 -697 
Q 1066 -672 1162 -440 
Q 1259 -209 1303 -97 
L 66 3347 
L 703 3347 
L 1600 622 
L 2503 3347 
z
M 1597 3428 
L 1597 3428 
z
" transform="scale(0.015625)"/>
      </defs>
      <use xlink:href="#Helvetica-54"/>
      <use xlink:href="#Helvetica-72" x="61.083984"/>
      <use xlink:href="#Helvetica-61" x="94.384766"/>
      <use xlink:href="#Helvetica-69" x="150"/>
      <use xlink:href="#Helvetica-6e" x="172.216797"/>
      <use xlink:href="#Helvetica-69" x="227.832031"/>
      <use xlink:href="#Helvetica-6e" x="250.048828"/>
      <use xlink:href="#Helvetica-67" x="305.664062"/>
      <use xlink:href="#Helvetica-20" x="361.279297"/>
      <use xlink:href="#Helvetica-65" x="389.0625"/>
      <use xlink:href="#Helvetica-76" x="444.677734"/>
      <use xlink:href="#Helvetica-65" x="494.677734"/>
      <use xlink:href="#Helvetica-6e" x="550.292969"/>
      <use xlink:href="#Helvetica-74" x="605.908203"/>
      <use xlink:href="#Helvetica-73" x="633.691406"/>
      <use xlink:href="#Helvetica-20" x="683.691406"/>
      <use xlink:href="#Helvetica-70" x="711.474609"/>
      <use xlink:href="#Helvetica-65" x="767.089844"/>
      <use xlink:href="#Helvetica-72" x="822.705078"/>
      <use xlink:href="#Helvetica-20" x="856.005859"/>
      <use xlink:href="#Helvetica-79" x="883.789062"/>
      <use xlink:href="#Helvetica-65" x="933.789062"/>
      <use xlink:href="#Helvetica-61" x="989.404297"/>
      <use xlink:href="#Helvetica-72" x="1045.019531"/>
     </g>
    </g>
   </g>
   <g id="line2d_11">
    <path d="M 105.031055 365.712955 
L 105.031055 365.712955 
" clip-path="url(#p2bf833cf98)" style="fill: none; stroke: #3f3f3f; stroke-width: 1.5; stroke-linecap: square"/>
   </g>
   <g id="line2d_12">
    <path d="M 105.031055 275.179838 
L 105.031055 139.380162 
" clip-path="url(#p2bf833cf98)" style="fill: none; stroke: #3f3f3f; stroke-width: 1.5; stroke-linecap: square"/>
   </g>
   <g id="line2d_13">
    <path d="M 81.717383 365.712955 
L 128.344727 365.712955 
" clip-path="url(#p2bf833cf98)" style="fill: none; stroke: #3f3f3f; stroke-width: 1.5; stroke-linecap: square"/>
   </g>
   <g id="line2d_14">
    <path d="M 81.717383 139.380162 
L 128.344727 139.380162 
" clip-path="url(#p2bf833cf98)" style="fill: none; stroke: #3f3f3f; stroke-width: 1.5; stroke-linecap: square"/>
   </g>
   <g id="line2d_15"/>
   <g id="line2d_16">
    <path d="M 221.599414 365.712955 
L 221.599414 365.712955 
" clip-path="url(#p2bf833cf98)" style="fill: none; stroke: #3f3f3f; stroke-width: 1.5; stroke-linecap: square"/>
   </g>
   <g id="line2d_17">
    <path d="M 221.599414 275.179838 
L 221.599414 139.380162 
" clip-path="url(#p2bf833cf98)" style="fill: none; stroke: #3f3f3f; stroke-width: 1.5; stroke-linecap: square"/>
   </g>
   <g id="line2d_18">
    <path d="M 198.285742 365.712955 
L 244.913086 365.712955 
" clip-path="url(#p2bf833cf98)" style="fill: none; stroke: #3f3f3f; stroke-width: 1.5; stroke-linecap: square"/>
   </g>
   <g id="line2d_19">
    <path d="M 198.285742 139.380162 
L 244.913086 139.380162 
" clip-path="url(#p2bf833cf98)" style="fill: none; stroke: #3f3f3f; stroke-width: 1.5; stroke-linecap: square"/>
   </g>
   <g id="line2d_20">
    <defs>
     <path id="m1b309634d9" d="M -0 3.535534 
L 2.12132 0 
L -0 -3.535534 
L -2.12132 -0 
z
" style="stroke: #3f3f3f; stroke-linejoin: miter"/>
    </defs>
    <g clip-path="url(#p2bf833cf98)">
     <use xlink:href="#m1b309634d9" x="221.599414" y="94.113604" style="fill: #3f3f3f; stroke: #3f3f3f; stroke-linejoin: miter"/>
     <use xlink:href="#m1b309634d9" x="221.599414" y="48.847045" style="fill: #3f3f3f; stroke: #3f3f3f; stroke-linejoin: miter"/>
     <use xlink:href="#m1b309634d9" x="221.599414" y="94.113604" style="fill: #3f3f3f; stroke: #3f3f3f; stroke-linejoin: miter"/>
    </g>
   </g>
   <g id="line2d_21">
    <path d="M 58.403711 320.446396 
L 151.658398 320.446396 
" clip-path="url(#p2bf833cf98)" style="fill: none; stroke: #3f3f3f; stroke-width: 1.5; stroke-linecap: square"/>
   </g>
   <g id="line2d_22">
    <path d="M 174.97207 320.446396 
L 268.226758 320.446396 
" clip-path="url(#p2bf833cf98)" style="fill: none; stroke: #3f3f3f; stroke-width: 1.5; stroke-linecap: square"/>
   </g>
   <g id="patch_5">
    <path d="M 36.746875 365.712955 
L 36.746875 48.847045 
" style="fill: none; stroke: #000000; stroke-width: 0.8; stroke-linejoin: miter; stroke-linecap: square"/>
   </g>
   <g id="patch_6">
    <path d="M 105.031055 391.55625 
L 221.599414 391.55625 
" style="fill: none; stroke: #000000; stroke-width: 0.8; stroke-linejoin: miter; stroke-linecap: square"/>
   </g>
   <g id="PathCollection_1">
    <defs>
     <path id="C0_0_77057b9605" d="M 0 2.5 
C 0.663008 2.5 1.29895 2.236584 1.767767 1.767767 
C 2.236584 1.29895 2.5 0.663008 2.5 -0 
C 2.5 -0.663008 2.236584 -1.29895 1.767767 -1.767767 
C 1.29895 -2.236584 0.663008 -2.5 0 -2.5 
C -0.663008 -2.5 -1.29895 -2.236584 -1.767767 -1.767767 
C -2.236584 -1.29895 -2.5 -0.663008 -2.5 0 
C -2.5 0.663008 -2.236584 1.29895 -1.767767 1.767767 
C -1.29895 2.236584 -0.663008 2.5 0 2.5 
z
"/>
    </defs>
    <g clip-path="url(#p2bf833cf98)">
     <use xlink:href="#C0_0_77057b9605" x="105.031055" y="365.712955" style="fill: #808080; fill-opacity: 0.75"/>
    </g>
    <g clip-path="url(#p2bf833cf98)">
     <use xlink:href="#C0_0_77057b9605" x="98.998955" y="365.712955" style="fill: #808080; fill-opacity: 0.75"/>
    </g>
    <g clip-path="url(#p2bf833cf98)">
     <use xlink:href="#C0_0_77057b9605" x="111.063154" y="365.712955" style="fill: #808080; fill-opacity: 0.75"/>
    </g>
    <g clip-path="url(#p2bf833cf98)">
     <use xlink:href="#C0_0_77057b9605" x="92.966856" y="365.712955" style="fill: #808080; fill-opacity: 0.75"/>
    </g>
    <g clip-path="url(#p2bf833cf98)">
     <use xlink:href="#C0_0_77057b9605" x="117.095253" y="365.712955" style="fill: #808080; fill-opacity: 0.75"/>
    </g>
    <g clip-path="url(#p2bf833cf98)">
     <use xlink:href="#C0_0_77057b9605" x="86.934757" y="365.712955" style="fill: #808080; fill-opacity: 0.75"/>
    </g>
    <g clip-path="url(#p2bf833cf98)">
     <use xlink:href="#C0_0_77057b9605" x="123.127352" y="365.712955" style="fill: #808080; fill-opacity: 0.75"/>
    </g>
    <g clip-path="url(#p2bf833cf98)">
     <use xlink:href="#C0_0_77057b9605" x="80.902658" y="365.712955" style="fill: #808080; fill-opacity: 0.75"/>
    </g>
    <g clip-path="url(#p2bf833cf98)">
     <use xlink:href="#C0_0_77057b9605" x="129.159452" y="365.712955" style="fill: #808080; fill-opacity: 0.75"/>
    </g>
    <g clip-path="url(#p2bf833cf98)">
     <use xlink:href="#C0_0_77057b9605" x="74.870558" y="365.712955" style="fill: #808080; fill-opacity: 0.75"/>
    </g>
    <g clip-path="url(#p2bf833cf98)">
     <use xlink:href="#C0_0_77057b9605" x="135.191551" y="365.712955" style="fill: #808080; fill-opacity: 0.75"/>
    </g>
    <g clip-path="url(#p2bf833cf98)">
     <use xlink:href="#C0_0_77057b9605" x="141.22365" y="365.712955" style="fill: #808080; fill-opacity: 0.75"/>
    </g>
    <g clip-path="url(#p2bf833cf98)">
     <use xlink:href="#C0_0_77057b9605" x="68.838459" y="365.712955" style="fill: #808080; fill-opacity: 0.75"/>
    </g>
    <g clip-path="url(#p2bf833cf98)">
     <use xlink:href="#C0_0_77057b9605" x="147.255749" y="365.712955" style="fill: #808080; fill-opacity: 0.75"/>
    </g>
    <g clip-path="url(#p2bf833cf98)">
     <use xlink:href="#C0_0_77057b9605" x="62.80636" y="365.712955" style="fill: #808080; fill-opacity: 0.75"/>
    </g>
    <g clip-path="url(#p2bf833cf98)">
     <use xlink:href="#C0_0_77057b9605" x="151.658398" y="365.712955" style="fill: #808080; fill-opacity: 0.75"/>
    </g>
    <g clip-path="url(#p2bf833cf98)">
     <use xlink:href="#C0_0_77057b9605" x="58.403711" y="365.712955" style="fill: #808080; fill-opacity: 0.75"/>
    </g>
    <g clip-path="url(#p2bf833cf98)">
     <use xlink:href="#C0_0_77057b9605" x="151.658398" y="365.712955" style="fill: #808080; fill-opacity: 0.75"/>
    </g>
    <g clip-path="url(#p2bf833cf98)">
     <use xlink:href="#C0_0_77057b9605" x="58.403711" y="365.712955" style="fill: #808080; fill-opacity: 0.75"/>
    </g>
    <g clip-path="url(#p2bf833cf98)">
     <use xlink:href="#C0_0_77057b9605" x="151.658398" y="365.712955" style="fill: #808080; fill-opacity: 0.75"/>
    </g>
    <g clip-path="url(#p2bf833cf98)">
     <use xlink:href="#C0_0_77057b9605" x="58.403711" y="365.712955" style="fill: #808080; fill-opacity: 0.75"/>
    </g>
    <g clip-path="url(#p2bf833cf98)">
     <use xlink:href="#C0_0_77057b9605" x="151.658398" y="365.712955" style="fill: #808080; fill-opacity: 0.75"/>
    </g>
    <g clip-path="url(#p2bf833cf98)">
     <use xlink:href="#C0_0_77057b9605" x="105.031055" y="320.446396" style="fill: #808080; fill-opacity: 0.75"/>
    </g>
    <g clip-path="url(#p2bf833cf98)">
     <use xlink:href="#C0_0_77057b9605" x="98.998955" y="320.446396" style="fill: #808080; fill-opacity: 0.75"/>
    </g>
    <g clip-path="url(#p2bf833cf98)">
     <use xlink:href="#C0_0_77057b9605" x="111.063154" y="320.446396" style="fill: #808080; fill-opacity: 0.75"/>
    </g>
    <g clip-path="url(#p2bf833cf98)">
     <use xlink:href="#C0_0_77057b9605" x="92.966856" y="320.446396" style="fill: #808080; fill-opacity: 0.75"/>
    </g>
    <g clip-path="url(#p2bf833cf98)">
     <use xlink:href="#C0_0_77057b9605" x="117.095253" y="320.446396" style="fill: #808080; fill-opacity: 0.75"/>
    </g>
    <g clip-path="url(#p2bf833cf98)">
     <use xlink:href="#C0_0_77057b9605" x="86.934757" y="320.446396" style="fill: #808080; fill-opacity: 0.75"/>
    </g>
    <g clip-path="url(#p2bf833cf98)">
     <use xlink:href="#C0_0_77057b9605" x="123.127352" y="320.446396" style="fill: #808080; fill-opacity: 0.75"/>
    </g>
    <g clip-path="url(#p2bf833cf98)">
     <use xlink:href="#C0_0_77057b9605" x="80.902658" y="320.446396" style="fill: #808080; fill-opacity: 0.75"/>
    </g>
    <g clip-path="url(#p2bf833cf98)">
     <use xlink:href="#C0_0_77057b9605" x="129.159452" y="320.446396" style="fill: #808080; fill-opacity: 0.75"/>
    </g>
    <g clip-path="url(#p2bf833cf98)">
     <use xlink:href="#C0_0_77057b9605" x="74.870558" y="320.446396" style="fill: #808080; fill-opacity: 0.75"/>
    </g>
    <g clip-path="url(#p2bf833cf98)">
     <use xlink:href="#C0_0_77057b9605" x="105.031055" y="275.179838" style="fill: #808080; fill-opacity: 0.75"/>
    </g>
    <g clip-path="url(#p2bf833cf98)">
     <use xlink:href="#C0_0_77057b9605" x="98.998955" y="275.179838" style="fill: #808080; fill-opacity: 0.75"/>
    </g>
    <g clip-path="url(#p2bf833cf98)">
     <use xlink:href="#C0_0_77057b9605" x="111.063154" y="275.179838" style="fill: #808080; fill-opacity: 0.75"/>
    </g>
    <g clip-path="url(#p2bf833cf98)">
     <use xlink:href="#C0_0_77057b9605" x="92.966856" y="275.179838" style="fill: #808080; fill-opacity: 0.75"/>
    </g>
    <g clip-path="url(#p2bf833cf98)">
     <use xlink:href="#C0_0_77057b9605" x="105.031055" y="229.913279" style="fill: #808080; fill-opacity: 0.75"/>
    </g>
    <g clip-path="url(#p2bf833cf98)">
     <use xlink:href="#C0_0_77057b9605" x="98.998955" y="229.913279" style="fill: #808080; fill-opacity: 0.75"/>
    </g>
    <g clip-path="url(#p2bf833cf98)">
     <use xlink:href="#C0_0_77057b9605" x="111.063154" y="229.913279" style="fill: #808080; fill-opacity: 0.75"/>
    </g>
    <g clip-path="url(#p2bf833cf98)">
     <use xlink:href="#C0_0_77057b9605" x="92.966856" y="229.913279" style="fill: #808080; fill-opacity: 0.75"/>
    </g>
    <g clip-path="url(#p2bf833cf98)">
     <use xlink:href="#C0_0_77057b9605" x="117.095253" y="229.913279" style="fill: #808080; fill-opacity: 0.75"/>
    </g>
    <g clip-path="url(#p2bf833cf98)">
     <use xlink:href="#C0_0_77057b9605" x="105.031055" y="184.646721" style="fill: #808080; fill-opacity: 0.75"/>
    </g>
    <g clip-path="url(#p2bf833cf98)">
     <use xlink:href="#C0_0_77057b9605" x="98.998955" y="184.646721" style="fill: #808080; fill-opacity: 0.75"/>
    </g>
    <g clip-path="url(#p2bf833cf98)">
     <use xlink:href="#C0_0_77057b9605" x="111.063154" y="184.646721" style="fill: #808080; fill-opacity: 0.75"/>
    </g>
    <g clip-path="url(#p2bf833cf98)">
     <use xlink:href="#C0_0_77057b9605" x="92.966856" y="184.646721" style="fill: #808080; fill-opacity: 0.75"/>
    </g>
    <g clip-path="url(#p2bf833cf98)">
     <use xlink:href="#C0_0_77057b9605" x="105.031055" y="139.380162" style="fill: #808080; fill-opacity: 0.75"/>
    </g>
    <g clip-path="url(#p2bf833cf98)">
     <use xlink:href="#C0_0_77057b9605" x="98.998955" y="139.380162" style="fill: #808080; fill-opacity: 0.75"/>
    </g>
   </g>
   <g id="PathCollection_2">
    <defs>
     <path id="C1_0_77057b9605" d="M 0 2.5 
C 0.663008 2.5 1.29895 2.236584 1.767767 1.767767 
C 2.236584 1.29895 2.5 0.663008 2.5 -0 
C 2.5 -0.663008 2.236584 -1.29895 1.767767 -1.767767 
C 1.29895 -2.236584 0.663008 -2.5 0 -2.5 
C -0.663008 -2.5 -1.29895 -2.236584 -1.767767 -1.767767 
C -2.236584 -1.29895 -2.5 -0.663008 -2.5 0 
C -2.5 0.663008 -2.236584 1.29895 -1.767767 1.767767 
C -1.29895 2.236584 -0.663008 2.5 0 2.5 
z
"/>
    </defs>
    <g clip-path="url(#p2bf833cf98)">
     <use xlink:href="#C1_0_77057b9605" x="221.599414" y="365.712955" style="fill: #808080; fill-opacity: 0.75"/>
    </g>
    <g clip-path="url(#p2bf833cf98)">
     <use xlink:href="#C1_0_77057b9605" x="215.567315" y="365.712955" style="fill: #808080; fill-opacity: 0.75"/>
    </g>
    <g clip-path="url(#p2bf833cf98)">
     <use xlink:href="#C1_0_77057b9605" x="227.631513" y="365.712955" style="fill: #808080; fill-opacity: 0.75"/>
    </g>
    <g clip-path="url(#p2bf833cf98)">
     <use xlink:href="#C1_0_77057b9605" x="209.535216" y="365.712955" style="fill: #808080; fill-opacity: 0.75"/>
    </g>
    <g clip-path="url(#p2bf833cf98)">
     <use xlink:href="#C1_0_77057b9605" x="233.663613" y="365.712955" style="fill: #808080; fill-opacity: 0.75"/>
    </g>
    <g clip-path="url(#p2bf833cf98)">
     <use xlink:href="#C1_0_77057b9605" x="203.503116" y="365.712955" style="fill: #808080; fill-opacity: 0.75"/>
    </g>
    <g clip-path="url(#p2bf833cf98)">
     <use xlink:href="#C1_0_77057b9605" x="239.695712" y="365.712955" style="fill: #808080; fill-opacity: 0.75"/>
    </g>
    <g clip-path="url(#p2bf833cf98)">
     <use xlink:href="#C1_0_77057b9605" x="197.471017" y="365.712955" style="fill: #808080; fill-opacity: 0.75"/>
    </g>
    <g clip-path="url(#p2bf833cf98)">
     <use xlink:href="#C1_0_77057b9605" x="245.727811" y="365.712955" style="fill: #808080; fill-opacity: 0.75"/>
    </g>
    <g clip-path="url(#p2bf833cf98)">
     <use xlink:href="#C1_0_77057b9605" x="191.438918" y="365.712955" style="fill: #808080; fill-opacity: 0.75"/>
    </g>
    <g clip-path="url(#p2bf833cf98)">
     <use xlink:href="#C1_0_77057b9605" x="251.75991" y="365.712955" style="fill: #808080; fill-opacity: 0.75"/>
    </g>
    <g clip-path="url(#p2bf833cf98)">
     <use xlink:href="#C1_0_77057b9605" x="185.406819" y="365.712955" style="fill: #808080; fill-opacity: 0.75"/>
    </g>
    <g clip-path="url(#p2bf833cf98)">
     <use xlink:href="#C1_0_77057b9605" x="257.79201" y="365.712955" style="fill: #808080; fill-opacity: 0.75"/>
    </g>
    <g clip-path="url(#p2bf833cf98)">
     <use xlink:href="#C1_0_77057b9605" x="179.374719" y="365.712955" style="fill: #808080; fill-opacity: 0.75"/>
    </g>
    <g clip-path="url(#p2bf833cf98)">
     <use xlink:href="#C1_0_77057b9605" x="263.824109" y="365.712955" style="fill: #808080; fill-opacity: 0.75"/>
    </g>
    <g clip-path="url(#p2bf833cf98)">
     <use xlink:href="#C1_0_77057b9605" x="174.97207" y="365.712955" style="fill: #808080; fill-opacity: 0.75"/>
    </g>
    <g clip-path="url(#p2bf833cf98)">
     <use xlink:href="#C1_0_77057b9605" x="268.226758" y="365.712955" style="fill: #808080; fill-opacity: 0.75"/>
    </g>
    <g clip-path="url(#p2bf833cf98)">
     <use xlink:href="#C1_0_77057b9605" x="174.97207" y="365.712955" style="fill: #808080; fill-opacity: 0.75"/>
    </g>
    <g clip-path="url(#p2bf833cf98)">
     <use xlink:href="#C1_0_77057b9605" x="268.226758" y="365.712955" style="fill: #808080; fill-opacity: 0.75"/>
    </g>
    <g clip-path="url(#p2bf833cf98)">
     <use xlink:href="#C1_0_77057b9605" x="174.97207" y="365.712955" style="fill: #808080; fill-opacity: 0.75"/>
    </g>
    <g clip-path="url(#p2bf833cf98)">
     <use xlink:href="#C1_0_77057b9605" x="268.226758" y="365.712955" style="fill: #808080; fill-opacity: 0.75"/>
    </g>
    <g clip-path="url(#p2bf833cf98)">
     <use xlink:href="#C1_0_77057b9605" x="174.97207" y="365.712955" style="fill: #808080; fill-opacity: 0.75"/>
    </g>
    <g clip-path="url(#p2bf833cf98)">
     <use xlink:href="#C1_0_77057b9605" x="268.226758" y="365.712955" style="fill: #808080; fill-opacity: 0.75"/>
    </g>
    <g clip-path="url(#p2bf833cf98)">
     <use xlink:href="#C1_0_77057b9605" x="174.97207" y="365.712955" style="fill: #808080; fill-opacity: 0.75"/>
    </g>
    <g clip-path="url(#p2bf833cf98)">
     <use xlink:href="#C1_0_77057b9605" x="268.226758" y="365.712955" style="fill: #808080; fill-opacity: 0.75"/>
    </g>
    <g clip-path="url(#p2bf833cf98)">
     <use xlink:href="#C1_0_77057b9605" x="221.599414" y="320.446396" style="fill: #808080; fill-opacity: 0.75"/>
    </g>
    <g clip-path="url(#p2bf833cf98)">
     <use xlink:href="#C1_0_77057b9605" x="215.567315" y="320.446396" style="fill: #808080; fill-opacity: 0.75"/>
    </g>
    <g clip-path="url(#p2bf833cf98)">
     <use xlink:href="#C1_0_77057b9605" x="227.631513" y="320.446396" style="fill: #808080; fill-opacity: 0.75"/>
    </g>
    <g clip-path="url(#p2bf833cf98)">
     <use xlink:href="#C1_0_77057b9605" x="209.535216" y="320.446396" style="fill: #808080; fill-opacity: 0.75"/>
    </g>
    <g clip-path="url(#p2bf833cf98)">
     <use xlink:href="#C1_0_77057b9605" x="233.663613" y="320.446396" style="fill: #808080; fill-opacity: 0.75"/>
    </g>
    <g clip-path="url(#p2bf833cf98)">
     <use xlink:href="#C1_0_77057b9605" x="203.503116" y="320.446396" style="fill: #808080; fill-opacity: 0.75"/>
    </g>
    <g clip-path="url(#p2bf833cf98)">
     <use xlink:href="#C1_0_77057b9605" x="239.695712" y="320.446396" style="fill: #808080; fill-opacity: 0.75"/>
    </g>
    <g clip-path="url(#p2bf833cf98)">
     <use xlink:href="#C1_0_77057b9605" x="197.471017" y="320.446396" style="fill: #808080; fill-opacity: 0.75"/>
    </g>
    <g clip-path="url(#p2bf833cf98)">
     <use xlink:href="#C1_0_77057b9605" x="245.727811" y="320.446396" style="fill: #808080; fill-opacity: 0.75"/>
    </g>
    <g clip-path="url(#p2bf833cf98)">
     <use xlink:href="#C1_0_77057b9605" x="221.599414" y="275.179838" style="fill: #808080; fill-opacity: 0.75"/>
    </g>
    <g clip-path="url(#p2bf833cf98)">
     <use xlink:href="#C1_0_77057b9605" x="215.567315" y="275.179838" style="fill: #808080; fill-opacity: 0.75"/>
    </g>
    <g clip-path="url(#p2bf833cf98)">
     <use xlink:href="#C1_0_77057b9605" x="227.631513" y="275.179838" style="fill: #808080; fill-opacity: 0.75"/>
    </g>
    <g clip-path="url(#p2bf833cf98)">
     <use xlink:href="#C1_0_77057b9605" x="209.535216" y="275.179838" style="fill: #808080; fill-opacity: 0.75"/>
    </g>
    <g clip-path="url(#p2bf833cf98)">
     <use xlink:href="#C1_0_77057b9605" x="233.663613" y="275.179838" style="fill: #808080; fill-opacity: 0.75"/>
    </g>
    <g clip-path="url(#p2bf833cf98)">
     <use xlink:href="#C1_0_77057b9605" x="203.503116" y="275.179838" style="fill: #808080; fill-opacity: 0.75"/>
    </g>
    <g clip-path="url(#p2bf833cf98)">
     <use xlink:href="#C1_0_77057b9605" x="239.695712" y="275.179838" style="fill: #808080; fill-opacity: 0.75"/>
    </g>
    <g clip-path="url(#p2bf833cf98)">
     <use xlink:href="#C1_0_77057b9605" x="197.471017" y="275.179838" style="fill: #808080; fill-opacity: 0.75"/>
    </g>
    <g clip-path="url(#p2bf833cf98)">
     <use xlink:href="#C1_0_77057b9605" x="245.727811" y="275.179838" style="fill: #808080; fill-opacity: 0.75"/>
    </g>
    <g clip-path="url(#p2bf833cf98)">
     <use xlink:href="#C1_0_77057b9605" x="191.438918" y="275.179838" style="fill: #808080; fill-opacity: 0.75"/>
    </g>
    <g clip-path="url(#p2bf833cf98)">
     <use xlink:href="#C1_0_77057b9605" x="221.599414" y="229.913279" style="fill: #808080; fill-opacity: 0.75"/>
    </g>
    <g clip-path="url(#p2bf833cf98)">
     <use xlink:href="#C1_0_77057b9605" x="221.599414" y="184.646721" style="fill: #808080; fill-opacity: 0.75"/>
    </g>
    <g clip-path="url(#p2bf833cf98)">
     <use xlink:href="#C1_0_77057b9605" x="215.567315" y="184.646721" style="fill: #808080; fill-opacity: 0.75"/>
    </g>
    <g clip-path="url(#p2bf833cf98)">
     <use xlink:href="#C1_0_77057b9605" x="227.631513" y="184.646721" style="fill: #808080; fill-opacity: 0.75"/>
    </g>
    <g clip-path="url(#p2bf833cf98)">
     <use xlink:href="#C1_0_77057b9605" x="209.535216" y="184.646721" style="fill: #808080; fill-opacity: 0.75"/>
    </g>
    <g clip-path="url(#p2bf833cf98)">
     <use xlink:href="#C1_0_77057b9605" x="233.663613" y="184.646721" style="fill: #808080; fill-opacity: 0.75"/>
    </g>
    <g clip-path="url(#p2bf833cf98)">
     <use xlink:href="#C1_0_77057b9605" x="221.599414" y="139.380162" style="fill: #808080; fill-opacity: 0.75"/>
    </g>
    <g clip-path="url(#p2bf833cf98)">
     <use xlink:href="#C1_0_77057b9605" x="215.567315" y="139.380162" style="fill: #808080; fill-opacity: 0.75"/>
    </g>
    <g clip-path="url(#p2bf833cf98)">
     <use xlink:href="#C1_0_77057b9605" x="221.599414" y="94.113604" style="fill: #808080; fill-opacity: 0.75"/>
    </g>
    <g clip-path="url(#p2bf833cf98)">
     <use xlink:href="#C1_0_77057b9605" x="215.567315" y="94.113604" style="fill: #808080; fill-opacity: 0.75"/>
    </g>
    <g clip-path="url(#p2bf833cf98)">
     <use xlink:href="#C1_0_77057b9605" x="221.599414" y="48.847045" style="fill: #808080; fill-opacity: 0.75"/>
    </g>
   </g>
  </g>
  <g id="axes_2">
   <g id="patch_7">
    <path d="M 332.063281 381.55625 
L 565.2 381.55625 
L 565.2 33.00375 
L 332.063281 33.00375 
z
" style="fill: #ffffff"/>
   </g>
   <g id="patch_8">
    <path d="M 354.434987 381.55625 
L 366.209568 381.55625 
L 366.209568 49.601488 
L 354.434987 49.601488 
z
" clip-path="url(#pb1a6c2159a)" style="fill: #2d1e3e; fill-opacity: 0.5; stroke: #000000; stroke-linejoin: miter"/>
   </g>
   <g id="patch_9">
    <path d="M 377.98415 381.55625 
L 389.758732 381.55625 
L 389.758732 262.052536 
L 377.98415 262.052536 
z
" clip-path="url(#pb1a6c2159a)" style="fill: #2d1e3e; fill-opacity: 0.5; stroke: #000000; stroke-linejoin: miter"/>
   </g>
   <g id="patch_10">
    <path d="M 401.533314 381.55625 
L 413.307895 381.55625 
L 413.307895 248.774345 
L 401.533314 248.774345 
z
" clip-path="url(#pb1a6c2159a)" style="fill: #2d1e3e; fill-opacity: 0.5; stroke: #000000; stroke-linejoin: miter"/>
   </g>
   <g id="patch_11">
    <path d="M 425.082477 381.55625 
L 436.857059 381.55625 
L 436.857059 368.27806 
L 425.082477 368.27806 
z
" clip-path="url(#pb1a6c2159a)" style="fill: #2d1e3e; fill-opacity: 0.5; stroke: #000000; stroke-linejoin: miter"/>
   </g>
   <g id="patch_12">
    <path d="M 448.631641 381.55625 
L 460.406222 381.55625 
L 460.406222 381.55625 
L 448.631641 381.55625 
z
" clip-path="url(#pb1a6c2159a)" style="fill: #2d1e3e; fill-opacity: 0.5; stroke: #000000; stroke-linejoin: miter"/>
   </g>
   <g id="patch_13">
    <path d="M 472.180804 381.55625 
L 483.955386 381.55625 
L 483.955386 315.165298 
L 472.180804 315.165298 
z
" clip-path="url(#pb1a6c2159a)" style="fill: #2d1e3e; fill-opacity: 0.5; stroke: #000000; stroke-linejoin: miter"/>
   </g>
   <g id="patch_14">
    <path d="M 495.729968 381.55625 
L 507.504549 381.55625 
L 507.504549 354.999869 
L 495.729968 354.999869 
z
" clip-path="url(#pb1a6c2159a)" style="fill: #2d1e3e; fill-opacity: 0.5; stroke: #000000; stroke-linejoin: miter"/>
   </g>
   <g id="patch_15">
    <path d="M 519.279131 381.55625 
L 531.053713 381.55625 
L 531.053713 354.999869 
L 519.279131 354.999869 
z
" clip-path="url(#pb1a6c2159a)" style="fill: #2d1e3e; fill-opacity: 0.5; stroke: #000000; stroke-linejoin: miter"/>
   </g>
   <g id="patch_16">
    <path d="M 542.828295 381.55625 
L 554.602876 381.55625 
L 554.602876 368.27806 
L 542.828295 368.27806 
z
" clip-path="url(#pb1a6c2159a)" style="fill: #2d1e3e; fill-opacity: 0.5; stroke: #000000; stroke-linejoin: miter"/>
   </g>
   <g id="patch_17">
    <path d="M 342.660405 381.55625 
L 354.434987 381.55625 
L 354.434987 89.43606 
L 342.660405 89.43606 
z
" clip-path="url(#pb1a6c2159a)" style="fill: #edd1cb; fill-opacity: 0.5; stroke: #000000; stroke-linejoin: miter"/>
   </g>
   <g id="patch_18">
    <path d="M 366.209568 381.55625 
L 377.98415 381.55625 
L 377.98415 248.774345 
L 366.209568 248.774345 
z
" clip-path="url(#pb1a6c2159a)" style="fill: #edd1cb; fill-opacity: 0.5; stroke: #000000; stroke-linejoin: miter"/>
   </g>
   <g id="patch_19">
    <path d="M 389.758732 381.55625 
L 401.533314 381.55625 
L 401.533314 328.443488 
L 389.758732 328.443488 
z
" clip-path="url(#pb1a6c2159a)" style="fill: #edd1cb; fill-opacity: 0.5; stroke: #000000; stroke-linejoin: miter"/>
   </g>
   <g id="patch_20">
    <path d="M 413.307895 381.55625 
L 425.082477 381.55625 
L 425.082477 315.165298 
L 413.307895 315.165298 
z
" clip-path="url(#pb1a6c2159a)" style="fill: #edd1cb; fill-opacity: 0.5; stroke: #000000; stroke-linejoin: miter"/>
   </g>
   <g id="patch_21">
    <path d="M 436.857059 381.55625 
L 448.631641 381.55625 
L 448.631641 381.55625 
L 436.857059 381.55625 
z
" clip-path="url(#pb1a6c2159a)" style="fill: #edd1cb; fill-opacity: 0.5; stroke: #000000; stroke-linejoin: miter"/>
   </g>
   <g id="patch_22">
    <path d="M 460.406222 381.55625 
L 472.180804 381.55625 
L 472.180804 328.443488 
L 460.406222 328.443488 
z
" clip-path="url(#pb1a6c2159a)" style="fill: #edd1cb; fill-opacity: 0.5; stroke: #000000; stroke-linejoin: miter"/>
   </g>
   <g id="patch_23">
    <path d="M 483.955386 381.55625 
L 495.729968 381.55625 
L 495.729968 354.999869 
L 483.955386 354.999869 
z
" clip-path="url(#pb1a6c2159a)" style="fill: #edd1cb; fill-opacity: 0.5; stroke: #000000; stroke-linejoin: miter"/>
   </g>
   <g id="patch_24">
    <path d="M 507.504549 381.55625 
L 519.279131 381.55625 
L 519.279131 381.55625 
L 507.504549 381.55625 
z
" clip-path="url(#pb1a6c2159a)" style="fill: #edd1cb; fill-opacity: 0.5; stroke: #000000; stroke-linejoin: miter"/>
   </g>
   <g id="patch_25">
    <path d="M 531.053713 381.55625 
L 542.828295 381.55625 
L 542.828295 381.55625 
L 531.053713 381.55625 
z
" clip-path="url(#pb1a6c2159a)" style="fill: #edd1cb; fill-opacity: 0.5; stroke: #000000; stroke-linejoin: miter"/>
   </g>
   <g id="matplotlib.axis_3">
    <g id="xtick_3">
     <g id="line2d_23">
      <g>
       <use xlink:href="#m4c99cd72f3" x="342.660405" y="391.55625" style="stroke: #000000; stroke-width: 0.8"/>
      </g>
     </g>
     <g id="text_13">
      <!-- 0 -->
      <g transform="translate(339.879936 405.729688)scale(0.1 -0.1)">
       <use xlink:href="#Helvetica-30"/>
      </g>
     </g>
    </g>
    <g id="xtick_4">
     <g id="line2d_24">
      <g>
       <use xlink:href="#m4c99cd72f3" x="403.215397" y="391.55625" style="stroke: #000000; stroke-width: 0.8"/>
      </g>
     </g>
     <g id="text_14">
      <!-- 2 -->
      <g transform="translate(400.434928 405.729688)scale(0.1 -0.1)">
       <use xlink:href="#Helvetica-32"/>
      </g>
     </g>
    </g>
    <g id="xtick_5">
     <g id="line2d_25">
      <g>
       <use xlink:href="#m4c99cd72f3" x="463.770389" y="391.55625" style="stroke: #000000; stroke-width: 0.8"/>
      </g>
     </g>
     <g id="text_15">
      <!-- 4 -->
      <g transform="translate(460.98992 405.729688)scale(0.1 -0.1)">
       <use xlink:href="#Helvetica-34"/>
      </g>
     </g>
    </g>
    <g id="xtick_6">
     <g id="line2d_26">
      <g>
       <use xlink:href="#m4c99cd72f3" x="524.32538" y="391.55625" style="stroke: #000000; stroke-width: 0.8"/>
      </g>
     </g>
     <g id="text_16">
      <!-- 6 -->
      <g transform="translate(521.544912 405.729688)scale(0.1 -0.1)">
       <use xlink:href="#Helvetica-36"/>
      </g>
     </g>
    </g>
    <g id="text_17">
     <!-- Training events per year -->
     <g transform="translate(394.719922 418.9875)scale(0.1 -0.1)">
      <use xlink:href="#Helvetica-54"/>
      <use xlink:href="#Helvetica-72" x="61.083984"/>
      <use xlink:href="#Helvetica-61" x="94.384766"/>
      <use xlink:href="#Helvetica-69" x="150"/>
      <use xlink:href="#Helvetica-6e" x="172.216797"/>
      <use xlink:href="#Helvetica-69" x="227.832031"/>
      <use xlink:href="#Helvetica-6e" x="250.048828"/>
      <use xlink:href="#Helvetica-67" x="305.664062"/>
      <use xlink:href="#Helvetica-20" x="361.279297"/>
      <use xlink:href="#Helvetica-65" x="389.0625"/>
      <use xlink:href="#Helvetica-76" x="444.677734"/>
      <use xlink:href="#Helvetica-65" x="494.677734"/>
      <use xlink:href="#Helvetica-6e" x="550.292969"/>
      <use xlink:href="#Helvetica-74" x="605.908203"/>
      <use xlink:href="#Helvetica-73" x="633.691406"/>
      <use xlink:href="#Helvetica-20" x="683.691406"/>
      <use xlink:href="#Helvetica-70" x="711.474609"/>
      <use xlink:href="#Helvetica-65" x="767.089844"/>
      <use xlink:href="#Helvetica-72" x="822.705078"/>
      <use xlink:href="#Helvetica-20" x="856.005859"/>
      <use xlink:href="#Helvetica-79" x="883.789062"/>
      <use xlink:href="#Helvetica-65" x="933.789062"/>
      <use xlink:href="#Helvetica-61" x="989.404297"/>
      <use xlink:href="#Helvetica-72" x="1045.019531"/>
     </g>
    </g>
   </g>
   <g id="matplotlib.axis_4">
    <g id="ytick_9">
     <g id="line2d_27">
      <g>
       <use xlink:href="#m8e343aef83" x="322.063281" y="381.55625" style="stroke: #000000; stroke-width: 0.8"/>
      </g>
     </g>
     <g id="text_18">
      <!-- 0 -->
      <g transform="translate(309.502344 385.142969)scale(0.1 -0.1)">
       <use xlink:href="#Helvetica-30"/>
      </g>
     </g>
    </g>
    <g id="ytick_10">
     <g id="line2d_28">
      <g>
       <use xlink:href="#m8e343aef83" x="322.063281" y="315.165298" style="stroke: #000000; stroke-width: 0.8"/>
      </g>
     </g>
     <g id="text_19">
      <!-- 5 -->
      <g transform="translate(309.502344 318.752016)scale(0.1 -0.1)">
       <use xlink:href="#Helvetica-35"/>
      </g>
     </g>
    </g>
    <g id="ytick_11">
     <g id="line2d_29">
      <g>
       <use xlink:href="#m8e343aef83" x="322.063281" y="248.774345" style="stroke: #000000; stroke-width: 0.8"/>
      </g>
     </g>
     <g id="text_20">
      <!-- 10 -->
      <g transform="translate(303.941406 252.361064)scale(0.1 -0.1)">
       <use xlink:href="#Helvetica-31"/>
       <use xlink:href="#Helvetica-30" x="55.615234"/>
      </g>
     </g>
    </g>
    <g id="ytick_12">
     <g id="line2d_30">
      <g>
       <use xlink:href="#m8e343aef83" x="322.063281" y="182.383393" style="stroke: #000000; stroke-width: 0.8"/>
      </g>
     </g>
     <g id="text_21">
      <!-- 15 -->
      <g transform="translate(303.941406 185.970112)scale(0.1 -0.1)">
       <use xlink:href="#Helvetica-31"/>
       <use xlink:href="#Helvetica-35" x="55.615234"/>
      </g>
     </g>
    </g>
    <g id="ytick_13">
     <g id="line2d_31">
      <g>
       <use xlink:href="#m8e343aef83" x="322.063281" y="115.99244" style="stroke: #000000; stroke-width: 0.8"/>
      </g>
     </g>
     <g id="text_22">
      <!-- 20 -->
      <g transform="translate(303.941406 119.579159)scale(0.1 -0.1)">
       <use xlink:href="#Helvetica-32"/>
       <use xlink:href="#Helvetica-30" x="55.615234"/>
      </g>
     </g>
    </g>
    <g id="ytick_14">
     <g id="line2d_32">
      <g>
       <use xlink:href="#m8e343aef83" x="322.063281" y="49.601488" style="stroke: #000000; stroke-width: 0.8"/>
      </g>
     </g>
     <g id="text_23">
      <!-- 25 -->
      <g transform="translate(303.941406 53.188207)scale(0.1 -0.1)">
       <use xlink:href="#Helvetica-32"/>
       <use xlink:href="#Helvetica-35" x="55.615234"/>
      </g>
     </g>
    </g>
    <g id="text_24">
     <!-- Count -->
     <g transform="translate(297.857031 220.621406)rotate(-90)scale(0.1 -0.1)">
      <defs>
       <path id="Helvetica-43" d="M 2422 4716 
Q 3294 4716 3775 4256 
Q 4256 3797 4309 3213 
L 3703 3213 
Q 3600 3656 3292 3915 
Q 2984 4175 2428 4175 
Q 1750 4175 1333 3698 
Q 916 3222 916 2238 
Q 916 1431 1292 929 
Q 1669 428 2416 428 
Q 3103 428 3463 956 
Q 3653 1234 3747 1688 
L 4353 1688 
Q 4272 963 3816 472 
Q 3269 -119 2341 -119 
Q 1541 -119 997 366 
Q 281 1006 281 2344 
Q 281 3359 819 4009 
Q 1400 4716 2422 4716 
z
M 2297 4716 
L 2297 4716 
z
" transform="scale(0.015625)"/>
       <path id="Helvetica-6f" d="M 1741 363 
Q 2300 363 2508 786 
Q 2716 1209 2716 1728 
Q 2716 2197 2566 2491 
Q 2328 2953 1747 2953 
Q 1231 2953 997 2559 
Q 763 2166 763 1609 
Q 763 1075 997 719 
Q 1231 363 1741 363 
z
M 1763 3444 
Q 2409 3444 2856 3012 
Q 3303 2581 3303 1744 
Q 3303 934 2909 406 
Q 2516 -122 1688 -122 
Q 997 -122 590 345 
Q 184 813 184 1600 
Q 184 2444 612 2944 
Q 1041 3444 1763 3444 
z
M 1744 3428 
L 1744 3428 
z
" transform="scale(0.015625)"/>
       <path id="Helvetica-75" d="M 975 3347 
L 975 1125 
Q 975 869 1056 706 
Q 1206 406 1616 406 
Q 2203 406 2416 931 
Q 2531 1213 2531 1703 
L 2531 3347 
L 3094 3347 
L 3094 0 
L 2563 0 
L 2569 494 
Q 2459 303 2297 172 
Q 1975 -91 1516 -91 
Q 800 -91 541 388 
Q 400 644 400 1072 
L 400 3347 
L 975 3347 
z
M 1747 3428 
L 1747 3428 
z
" transform="scale(0.015625)"/>
      </defs>
      <use xlink:href="#Helvetica-43"/>
      <use xlink:href="#Helvetica-6f" x="72.216797"/>
      <use xlink:href="#Helvetica-75" x="127.832031"/>
      <use xlink:href="#Helvetica-6e" x="183.447266"/>
      <use xlink:href="#Helvetica-74" x="239.0625"/>
     </g>
    </g>
   </g>
   <g id="line2d_33">
    <path d="M 342.660405 234.425945 
L 343.725442 233.142572 
L 344.79048 232.035072 
L 345.855517 231.103728 
L 346.920555 230.347938 
L 347.985593 229.766226 
L 349.05063 229.356273 
L 350.115668 229.114952 
L 351.180705 229.038363 
L 352.245743 229.121887 
L 353.31078 229.360234 
L 354.375818 229.747506 
L 355.440855 230.277255 
L 357.57093 231.736048 
L 359.701006 233.676645 
L 361.831081 236.034763 
L 363.961156 238.744111 
L 367.156268 243.322744 
L 370.351381 248.332157 
L 376.741606 258.929903 
L 384.196869 271.190042 
L 389.522057 279.521771 
L 395.912282 289.083785 
L 406.562658 304.505792 
L 414.01792 315.009539 
L 418.278071 320.724356 
L 422.538221 326.054776 
L 425.733333 329.70834 
L 428.928446 333.002784 
L 432.123559 335.89447 
L 434.253634 337.585017 
L 436.383709 339.082252 
L 438.513784 340.387992 
L 440.643859 341.508321 
L 442.773934 342.453368 
L 445.969047 343.5733 
L 449.164159 344.389593 
L 452.359272 344.971936 
L 456.619422 345.513512 
L 467.269798 346.695662 
L 471.529948 347.408944 
L 475.790098 348.343243 
L 480.050248 349.492877 
L 485.375436 351.170866 
L 496.025811 354.871469 
L 503.481074 357.353227 
L 509.8713 359.272759 
L 517.326562 361.286298 
L 546.082576 368.775992 
L 554.602876 371.203469 
L 554.602876 371.203469 
" clip-path="url(#pb1a6c2159a)" style="fill: none; stroke: #2d1e3e; stroke-width: 1.5; stroke-linecap: square"/>
   </g>
   <g id="line2d_34">
    <path d="M 342.660405 233.225276 
L 343.725442 231.799937 
L 344.79048 230.621771 
L 345.855517 229.691392 
L 346.920555 229.007855 
L 347.985593 228.56871 
L 349.05063 228.370069 
L 350.115668 228.406685 
L 351.180705 228.672056 
L 352.245743 229.158525 
L 353.31078 229.857403 
L 354.375818 230.759085 
L 355.440855 231.853188 
L 357.57093 234.573975 
L 359.701006 237.925947 
L 361.831081 241.810936 
L 363.961156 246.130096 
L 367.156268 253.2134 
L 371.416419 263.324574 
L 379.936719 283.694196 
L 383.131832 290.837856 
L 386.326944 297.519259 
L 389.522057 303.656763 
L 392.717169 309.19279 
L 394.847245 312.530727 
L 396.97732 315.579373 
L 399.107395 318.337105 
L 401.23747 320.806196 
L 403.367545 322.992743 
L 405.49762 324.906549 
L 407.627695 326.560924 
L 409.75777 327.972413 
L 411.887845 329.160418 
L 414.01792 330.146746 
L 416.147995 330.95507 
L 419.343108 331.888549 
L 422.538221 332.563949 
L 426.798371 333.208254 
L 439.578821 334.925114 
L 443.838972 335.783281 
L 448.099122 336.870082 
L 452.359272 338.197063 
L 456.619422 339.76245 
L 460.879572 341.557149 
L 465.139723 343.566835 
L 470.46491 346.350208 
L 475.790098 349.384942 
L 483.245361 353.930846 
L 505.611149 367.869743 
L 510.936337 370.830134 
L 515.196487 372.974136 
L 519.456637 374.875129 
L 523.716788 376.505868 
L 527.976938 377.855771 
L 532.237088 378.931955 
L 536.497238 379.757111 
L 540.757388 380.365032 
L 546.082576 380.879585 
L 552.472801 381.237794 
L 554.602876 381.313065 
L 554.602876 381.313065 
" clip-path="url(#pb1a6c2159a)" style="fill: none; stroke: #edd1cb; stroke-width: 1.5; stroke-linecap: square"/>
   </g>
   <g id="patch_26">
    <path d="M 322.063281 381.55625 
L 322.063281 49.601488 
" style="fill: none; stroke: #000000; stroke-width: 0.8; stroke-linejoin: miter; stroke-linecap: square"/>
   </g>
   <g id="patch_27">
    <path d="M 342.660405 391.55625 
L 524.32538 391.55625 
" style="fill: none; stroke: #000000; stroke-width: 0.8; stroke-linejoin: miter; stroke-linecap: square"/>
   </g>
   <g id="legend_1">
    <g id="patch_28">
     <path d="M 503.95625 83.777188 
L 558.2 83.777188 
Q 560.2 83.777188 560.2 81.777188 
L 560.2 40.00375 
Q 560.2 38.00375 558.2 38.00375 
L 503.95625 38.00375 
Q 501.95625 38.00375 501.95625 40.00375 
L 501.95625 81.777188 
Q 501.95625 83.777188 503.95625 83.777188 
z
" style="fill: #ffffff; opacity: 0.8; stroke: #cccccc; stroke-linejoin: miter"/>
    </g>
    <g id="text_25">
     <!-- Year -->
     <g transform="translate(520.517187 49.177188)scale(0.1 -0.1)">
      <use xlink:href="#Helvetica-59"/>
      <use xlink:href="#Helvetica-65" x="66.699219"/>
      <use xlink:href="#Helvetica-61" x="122.314453"/>
      <use xlink:href="#Helvetica-72" x="177.929688"/>
     </g>
    </g>
    <g id="patch_29">
     <path d="M 505.95625 63.435 
L 525.95625 63.435 
L 525.95625 56.435 
L 505.95625 56.435 
z
" style="fill: #edd1cb; fill-opacity: 0.5; stroke: #000000; stroke-linejoin: miter"/>
    </g>
    <g id="text_26">
     <!-- 2018 -->
     <g transform="translate(533.95625 63.435)scale(0.1 -0.1)">
      <use xlink:href="#Helvetica-32"/>
      <use xlink:href="#Helvetica-30" x="55.615234"/>
      <use xlink:href="#Helvetica-31" x="111.230469"/>
      <use xlink:href="#Helvetica-38" x="166.845703"/>
     </g>
    </g>
    <g id="patch_30">
     <path d="M 505.95625 77.692813 
L 525.95625 77.692813 
L 525.95625 70.692813 
L 505.95625 70.692813 
z
" style="fill: #2d1e3e; fill-opacity: 0.5; stroke: #000000; stroke-linejoin: miter"/>
    </g>
    <g id="text_27">
     <!-- 2022 -->
     <g transform="translate(533.95625 77.692813)scale(0.1 -0.1)">
      <use xlink:href="#Helvetica-32"/>
      <use xlink:href="#Helvetica-30" x="55.615234"/>
      <use xlink:href="#Helvetica-32" x="111.230469"/>
      <use xlink:href="#Helvetica-32" x="166.845703"/>
     </g>
    </g>
   </g>
  </g>
  <g id="text_28">
   <!-- Number of time per year providing training for Netherlands (without 95 percentile) -->
   <g transform="translate(72.578438 17.38875)scale(0.12 -0.12)">
    <defs>
     <path id="Helvetica-4e" d="M 488 4591 
L 1222 4591 
L 3541 872 
L 3541 4591 
L 4131 4591 
L 4131 0 
L 3434 0 
L 1081 3716 
L 1081 0 
L 488 0 
L 488 4591 
z
M 2269 4591 
L 2269 4591 
z
" transform="scale(0.015625)"/>
     <path id="Helvetica-6d" d="M 413 3347 
L 969 3347 
L 969 2872 
Q 1169 3119 1331 3231 
Q 1609 3422 1963 3422 
Q 2363 3422 2606 3225 
Q 2744 3113 2856 2894 
Q 3044 3163 3297 3292 
Q 3550 3422 3866 3422 
Q 4541 3422 4784 2934 
Q 4916 2672 4916 2228 
L 4916 0 
L 4331 0 
L 4331 2325 
Q 4331 2659 4164 2784 
Q 3997 2909 3756 2909 
Q 3425 2909 3186 2687 
Q 2947 2466 2947 1947 
L 2947 0 
L 2375 0 
L 2375 2184 
Q 2375 2525 2294 2681 
Q 2166 2916 1816 2916 
Q 1497 2916 1236 2669 
Q 975 2422 975 1775 
L 975 0 
L 413 0 
L 413 3347 
z
" transform="scale(0.015625)"/>
     <path id="Helvetica-62" d="M 369 4606 
L 916 4606 
L 916 2941 
Q 1100 3181 1356 3307 
Q 1613 3434 1913 3434 
Q 2538 3434 2927 3004 
Q 3316 2575 3316 1738 
Q 3316 944 2931 419 
Q 2547 -106 1866 -106 
Q 1484 -106 1222 78 
Q 1066 188 888 428 
L 888 0 
L 369 0 
L 369 4606 
z
M 1831 391 
Q 2288 391 2514 753 
Q 2741 1116 2741 1709 
Q 2741 2238 2514 2584 
Q 2288 2931 1847 2931 
Q 1463 2931 1173 2647 
Q 884 2363 884 1709 
Q 884 1238 1003 944 
Q 1225 391 1831 391 
z
" transform="scale(0.015625)"/>
     <path id="Helvetica-66" d="M 553 3856 
Q 566 4206 675 4369 
Q 872 4656 1434 4656 
Q 1488 4656 1544 4653 
Q 1600 4650 1672 4644 
L 1672 4131 
Q 1584 4138 1545 4139 
Q 1506 4141 1472 4141 
Q 1216 4141 1166 4008 
Q 1116 3875 1116 3331 
L 1672 3331 
L 1672 2888 
L 1109 2888 
L 1109 0 
L 553 0 
L 553 2888 
L 88 2888 
L 88 3331 
L 553 3331 
L 553 3856 
z
" transform="scale(0.015625)"/>
     <path id="Helvetica-64" d="M 769 1634 
Q 769 1097 997 734 
Q 1225 372 1728 372 
Q 2119 372 2370 708 
Q 2622 1044 2622 1672 
Q 2622 2306 2362 2611 
Q 2103 2916 1722 2916 
Q 1297 2916 1033 2591 
Q 769 2266 769 1634 
z
M 1616 3406 
Q 2000 3406 2259 3244 
Q 2409 3150 2600 2916 
L 2600 4606 
L 3141 4606 
L 3141 0 
L 2634 0 
L 2634 466 
Q 2438 156 2169 18 
Q 1900 -119 1553 -119 
Q 994 -119 584 351 
Q 175 822 175 1603 
Q 175 2334 548 2870 
Q 922 3406 1616 3406 
z
" transform="scale(0.015625)"/>
     <path id="Helvetica-68" d="M 413 4606 
L 975 4606 
L 975 2894 
Q 1175 3147 1334 3250 
Q 1606 3428 2013 3428 
Q 2741 3428 3000 2919 
Q 3141 2641 3141 2147 
L 3141 0 
L 2563 0 
L 2563 2109 
Q 2563 2478 2469 2650 
Q 2316 2925 1894 2925 
Q 1544 2925 1259 2684 
Q 975 2444 975 1775 
L 975 0 
L 413 0 
L 413 4606 
z
" transform="scale(0.015625)"/>
     <path id="Helvetica-6c" d="M 428 4591 
L 991 4591 
L 991 0 
L 428 0 
L 428 4591 
z
" transform="scale(0.015625)"/>
     <path id="Helvetica-28" d="M 1894 4666 
Q 1403 3713 1256 3263 
Q 1034 2578 1034 1681 
Q 1034 775 1288 25 
Q 1444 -438 1903 -1306 
L 1525 -1306 
Q 1069 -594 959 -397 
Q 850 -200 722 138 
Q 547 600 478 1125 
Q 444 1397 444 1644 
Q 444 2569 734 3291 
Q 919 3750 1503 4666 
L 1894 4666 
z
" transform="scale(0.015625)"/>
     <path id="Helvetica-77" d="M 672 3347 
L 1316 709 
L 1969 3347 
L 2600 3347 
L 3256 725 
L 3941 3347 
L 4503 3347 
L 3531 0 
L 2947 0 
L 2266 2591 
L 1606 0 
L 1022 0 
L 56 3347 
L 672 3347 
z
" transform="scale(0.015625)"/>
     <path id="Helvetica-39" d="M 850 1081 
Q 875 616 1209 438 
Q 1381 344 1597 344 
Q 2000 344 2284 680 
Q 2569 1016 2688 2044 
Q 2500 1747 2223 1626 
Q 1947 1506 1628 1506 
Q 981 1506 604 1909 
Q 228 2313 228 2947 
Q 228 3556 600 4018 
Q 972 4481 1697 4481 
Q 2675 4481 3047 3600 
Q 3253 3116 3253 2388 
Q 3253 1566 3006 931 
Q 2597 -125 1619 -125 
Q 963 -125 622 219 
Q 281 563 281 1081 
L 850 1081 
z
M 1703 2000 
Q 2038 2000 2314 2220 
Q 2591 2441 2591 2991 
Q 2591 3484 2342 3726 
Q 2094 3969 1709 3969 
Q 1297 3969 1055 3692 
Q 813 3416 813 2953 
Q 813 2516 1025 2258 
Q 1238 2000 1703 2000 
z
" transform="scale(0.015625)"/>
     <path id="Helvetica-63" d="M 1703 3444 
Q 2269 3444 2623 3169 
Q 2978 2894 3050 2222 
L 2503 2222 
Q 2453 2531 2275 2736 
Q 2097 2941 1703 2941 
Q 1166 2941 934 2416 
Q 784 2075 784 1575 
Q 784 1072 996 728 
Q 1209 384 1666 384 
Q 2016 384 2220 598 
Q 2425 813 2503 1184 
L 3050 1184 
Q 2956 519 2581 211 
Q 2206 -97 1622 -97 
Q 966 -97 575 383 
Q 184 863 184 1581 
Q 184 2463 612 2953 
Q 1041 3444 1703 3444 
z
M 1616 3428 
L 1616 3428 
z
" transform="scale(0.015625)"/>
     <path id="Helvetica-29" d="M 222 -1306 
Q 719 -338 863 106 
Q 1081 778 1081 1681 
Q 1081 2584 828 3334 
Q 672 3797 213 4666 
L 591 4666 
Q 1072 3897 1173 3717 
Q 1275 3538 1394 3222 
Q 1544 2831 1608 2450 
Q 1672 2069 1672 1716 
Q 1672 791 1378 66 
Q 1194 -400 613 -1306 
L 222 -1306 
z
" transform="scale(0.015625)"/>
    </defs>
    <use xlink:href="#Helvetica-4e"/>
    <use xlink:href="#Helvetica-75" x="72.216797"/>
    <use xlink:href="#Helvetica-6d" x="127.832031"/>
    <use xlink:href="#Helvetica-62" x="211.132812"/>
    <use xlink:href="#Helvetica-65" x="266.748047"/>
    <use xlink:href="#Helvetica-72" x="322.363281"/>
    <use xlink:href="#Helvetica-20" x="355.664062"/>
    <use xlink:href="#Helvetica-6f" x="383.447266"/>
    <use xlink:href="#Helvetica-66" x="439.0625"/>
    <use xlink:href="#Helvetica-20" x="466.845703"/>
    <use xlink:href="#Helvetica-74" x="494.628906"/>
    <use xlink:href="#Helvetica-69" x="522.412109"/>
    <use xlink:href="#Helvetica-6d" x="544.628906"/>
    <use xlink:href="#Helvetica-65" x="627.929688"/>
    <use xlink:href="#Helvetica-20" x="683.544922"/>
    <use xlink:href="#Helvetica-70" x="711.328125"/>
    <use xlink:href="#Helvetica-65" x="766.943359"/>
    <use xlink:href="#Helvetica-72" x="822.558594"/>
    <use xlink:href="#Helvetica-20" x="855.859375"/>
    <use xlink:href="#Helvetica-79" x="883.642578"/>
    <use xlink:href="#Helvetica-65" x="933.642578"/>
    <use xlink:href="#Helvetica-61" x="989.257812"/>
    <use xlink:href="#Helvetica-72" x="1044.873047"/>
    <use xlink:href="#Helvetica-20" x="1078.173828"/>
    <use xlink:href="#Helvetica-70" x="1105.957031"/>
    <use xlink:href="#Helvetica-72" x="1161.572266"/>
    <use xlink:href="#Helvetica-6f" x="1194.873047"/>
    <use xlink:href="#Helvetica-76" x="1250.488281"/>
    <use xlink:href="#Helvetica-69" x="1300.488281"/>
    <use xlink:href="#Helvetica-64" x="1322.705078"/>
    <use xlink:href="#Helvetica-69" x="1378.320312"/>
    <use xlink:href="#Helvetica-6e" x="1400.537109"/>
    <use xlink:href="#Helvetica-67" x="1456.152344"/>
    <use xlink:href="#Helvetica-20" x="1511.767578"/>
    <use xlink:href="#Helvetica-74" x="1539.550781"/>
    <use xlink:href="#Helvetica-72" x="1567.333984"/>
    <use xlink:href="#Helvetica-61" x="1600.634766"/>
    <use xlink:href="#Helvetica-69" x="1656.25"/>
    <use xlink:href="#Helvetica-6e" x="1678.466797"/>
    <use xlink:href="#Helvetica-69" x="1734.082031"/>
    <use xlink:href="#Helvetica-6e" x="1756.298828"/>
    <use xlink:href="#Helvetica-67" x="1811.914062"/>
    <use xlink:href="#Helvetica-20" x="1867.529297"/>
    <use xlink:href="#Helvetica-66" x="1895.3125"/>
    <use xlink:href="#Helvetica-6f" x="1923.095703"/>
    <use xlink:href="#Helvetica-72" x="1978.710938"/>
    <use xlink:href="#Helvetica-20" x="2012.011719"/>
    <use xlink:href="#Helvetica-4e" x="2039.794922"/>
    <use xlink:href="#Helvetica-65" x="2112.011719"/>
    <use xlink:href="#Helvetica-74" x="2167.626953"/>
    <use xlink:href="#Helvetica-68" x="2195.410156"/>
    <use xlink:href="#Helvetica-65" x="2251.025391"/>
    <use xlink:href="#Helvetica-72" x="2306.640625"/>
    <use xlink:href="#Helvetica-6c" x="2339.941406"/>
    <use xlink:href="#Helvetica-61" x="2362.158203"/>
    <use xlink:href="#Helvetica-6e" x="2417.773438"/>
    <use xlink:href="#Helvetica-64" x="2473.388672"/>
    <use xlink:href="#Helvetica-73" x="2529.003906"/>
    <use xlink:href="#Helvetica-20" x="2579.003906"/>
    <use xlink:href="#Helvetica-28" x="2606.787109"/>
    <use xlink:href="#Helvetica-77" x="2640.087891"/>
    <use xlink:href="#Helvetica-69" x="2712.304688"/>
    <use xlink:href="#Helvetica-74" x="2734.521484"/>
    <use xlink:href="#Helvetica-68" x="2762.304688"/>
    <use xlink:href="#Helvetica-6f" x="2817.919922"/>
    <use xlink:href="#Helvetica-75" x="2873.535156"/>
    <use xlink:href="#Helvetica-74" x="2929.150391"/>
    <use xlink:href="#Helvetica-20" x="2956.933594"/>
    <use xlink:href="#Helvetica-39" x="2984.716797"/>
    <use xlink:href="#Helvetica-35" x="3040.332031"/>
    <use xlink:href="#Helvetica-20" x="3095.947266"/>
    <use xlink:href="#Helvetica-70" x="3123.730469"/>
    <use xlink:href="#Helvetica-65" x="3179.345703"/>
    <use xlink:href="#Helvetica-72" x="3234.960938"/>
    <use xlink:href="#Helvetica-63" x="3268.261719"/>
    <use xlink:href="#Helvetica-65" x="3318.261719"/>
    <use xlink:href="#Helvetica-6e" x="3373.876953"/>
    <use xlink:href="#Helvetica-74" x="3429.492188"/>
    <use xlink:href="#Helvetica-69" x="3457.275391"/>
    <use xlink:href="#Helvetica-6c" x="3479.492188"/>
    <use xlink:href="#Helvetica-65" x="3501.708984"/>
    <use xlink:href="#Helvetica-29" x="3557.324219"/>
   </g>
  </g>
 </g>
 <defs>
  <clipPath id="p2bf833cf98">
   <rect x="46.746875" y="33.00375" width="233.136719" height="348.5525"/>
  </clipPath>
  <clipPath id="pb1a6c2159a">
   <rect x="332.063281" y="33.00375" width="233.136719" height="348.5525"/>
  </clipPath>
 </defs>
</svg>
