<?xml version="1.0" encoding="utf-8" standalone="no"?>
<!DOCTYPE svg PUBLIC "-//W3C//DTD SVG 1.1//EN"
  "http://www.w3.org/Graphics/SVG/1.1/DTD/svg11.dtd">
<svg xmlns:xlink="http://www.w3.org/1999/xlink" width="460.8pt" height="288pt" viewBox="0 0 460.8 288" xmlns="http://www.w3.org/2000/svg" version="1.1">
 <metadata>
  <rdf:RDF xmlns:dc="http://purl.org/dc/elements/1.1/" xmlns:cc="http://creativecommons.org/ns#" xmlns:rdf="http://www.w3.org/1999/02/22-rdf-syntax-ns#">
   <cc:Work>
    <dc:type rdf:resource="http://purl.org/dc/dcmitype/StillImage"/>
    <dc:date>2022-05-19T12:18:52.658906</dc:date>
    <dc:format>image/svg+xml</dc:format>
    <dc:creator>
     <cc:Agent>
      <dc:title>Matplotlib v3.5.1, https://matplotlib.org/</dc:title>
     </cc:Agent>
    </dc:creator>
   </cc:Work>
  </rdf:RDF>
 </metadata>
 <defs>
  <style type="text/css">*{stroke-linejoin: round; stroke-linecap: butt}</style>
 </defs>
 <g id="figure_1">
  <g id="patch_1">
   <path d="M 0 288 
L 460.8 288 
L 460.8 0 
L 0 0 
z
" style="fill: #ffffff"/>
  </g>
  <g id="axes_1">
   <g id="patch_2">
    <path d="M 148.401563 260.942187 
L 382.426417 260.942187 
L 382.426417 25.6425 
L 148.401563 25.6425 
z
" style="fill: #ffffff"/>
   </g>
   <g id="patch_3">
    <path d="M 148.401563 250.246747 
L 152.646911 250.246747 
L 152.646911 230.800492 
L 148.401563 230.800492 
z
" clip-path="url(#p8b17133a78)" style="fill: #1f77b4"/>
   </g>
   <g id="patch_4">
    <path d="M 148.401563 225.938928 
L 154.769586 225.938928 
L 154.769586 206.492673 
L 148.401563 206.492673 
z
" clip-path="url(#p8b17133a78)" style="fill: #1f77b4"/>
   </g>
   <g id="patch_5">
    <path d="M 148.401563 201.631109 
L 156.89226 201.631109 
L 156.89226 182.184854 
L 148.401563 182.184854 
z
" clip-path="url(#p8b17133a78)" style="fill: #1f77b4"/>
   </g>
   <g id="patch_6">
    <path d="M 148.401563 177.32329 
L 156.89226 177.32329 
L 156.89226 157.877035 
L 148.401563 157.877035 
z
" clip-path="url(#p8b17133a78)" style="fill: #1f77b4"/>
   </g>
   <g id="patch_7">
    <path d="M 148.401563 153.015471 
L 178.119004 153.015471 
L 178.119004 133.569216 
L 148.401563 133.569216 
z
" clip-path="url(#p8b17133a78)" style="fill: #1f77b4"/>
   </g>
   <g id="patch_8">
    <path d="M 148.401563 128.707652 
L 201.468423 128.707652 
L 201.468423 109.261397 
L 148.401563 109.261397 
z
" clip-path="url(#p8b17133a78)" style="fill: #1f77b4"/>
   </g>
   <g id="patch_9">
    <path d="M 148.401563 104.399833 
L 209.959121 104.399833 
L 209.959121 84.953578 
L 148.401563 84.953578 
z
" clip-path="url(#p8b17133a78)" style="fill: #1f77b4"/>
   </g>
   <g id="patch_10">
    <path d="M 148.401563 80.092014 
L 218.449818 80.092014 
L 218.449818 60.645759 
L 148.401563 60.645759 
z
" clip-path="url(#p8b17133a78)" style="fill: #1f77b4"/>
   </g>
   <g id="patch_11">
    <path d="M 148.401563 55.784196 
L 371.282377 55.784196 
L 371.282377 36.33794 
L 148.401563 36.33794 
z
" clip-path="url(#p8b17133a78)" style="fill: #1f77b4"/>
   </g>
   <g id="matplotlib.axis_1">
    <g id="xtick_1">
     <g id="line2d_1">
      <defs>
       <path id="m4c99cd72f3" d="M 0 0 
L 0 3.5 
" style="stroke: #000000; stroke-width: 0.8"/>
      </defs>
      <g>
       <use xlink:href="#m4c99cd72f3" x="148.401563" y="260.942187" style="stroke: #000000; stroke-width: 0.8"/>
      </g>
     </g>
     <g id="text_1">
      <!-- 0 -->
      <g transform="translate(145.621094 275.115625)scale(0.1 -0.1)">
       <defs>
        <path id="Helvetica-30" d="M 1731 4475 
Q 2600 4475 2988 3759 
Q 3288 3206 3288 2244 
Q 3288 1331 3016 734 
Q 2622 -122 1728 -122 
Q 922 -122 528 578 
Q 200 1163 200 2147 
Q 200 2909 397 3456 
Q 766 4475 1731 4475 
z
M 1725 391 
Q 2163 391 2422 778 
Q 2681 1166 2681 2222 
Q 2681 2984 2493 3476 
Q 2306 3969 1766 3969 
Q 1269 3969 1039 3501 
Q 809 3034 809 2125 
Q 809 1441 956 1025 
Q 1181 391 1725 391 
z
" transform="scale(0.015625)"/>
       </defs>
       <use xlink:href="#Helvetica-30"/>
      </g>
     </g>
    </g>
    <g id="xtick_2">
     <g id="line2d_2">
      <g>
       <use xlink:href="#m4c99cd72f3" x="194.888132" y="260.942187" style="stroke: #000000; stroke-width: 0.8"/>
      </g>
     </g>
     <g id="text_2">
      <!-- 10 -->
      <g transform="translate(189.327195 275.115625)scale(0.1 -0.1)">
       <defs>
        <path id="Helvetica-31" d="M 613 3169 
L 613 3600 
Q 1222 3659 1462 3798 
Q 1703 3938 1822 4456 
L 2266 4456 
L 2266 0 
L 1666 0 
L 1666 3169 
L 613 3169 
z
" transform="scale(0.015625)"/>
       </defs>
       <use xlink:href="#Helvetica-31"/>
       <use xlink:href="#Helvetica-30" x="55.615234"/>
      </g>
     </g>
    </g>
    <g id="xtick_3">
     <g id="line2d_3">
      <g>
       <use xlink:href="#m4c99cd72f3" x="241.374702" y="260.942187" style="stroke: #000000; stroke-width: 0.8"/>
      </g>
     </g>
     <g id="text_3">
      <!-- 20 -->
      <g transform="translate(235.813765 275.115625)scale(0.1 -0.1)">
       <defs>
        <path id="Helvetica-32" d="M 200 0 
Q 231 578 439 1006 
Q 647 1434 1250 1784 
L 1850 2131 
Q 2253 2366 2416 2531 
Q 2672 2791 2672 3125 
Q 2672 3516 2437 3745 
Q 2203 3975 1813 3975 
Q 1234 3975 1013 3538 
Q 894 3303 881 2888 
L 309 2888 
Q 319 3472 525 3841 
Q 891 4491 1816 4491 
Q 2584 4491 2939 4075 
Q 3294 3659 3294 3150 
Q 3294 2613 2916 2231 
Q 2697 2009 2131 1694 
L 1703 1456 
Q 1397 1288 1222 1134 
Q 909 863 828 531 
L 3272 531 
L 3272 0 
L 200 0 
z
" transform="scale(0.015625)"/>
       </defs>
       <use xlink:href="#Helvetica-32"/>
       <use xlink:href="#Helvetica-30" x="55.615234"/>
      </g>
     </g>
    </g>
    <g id="xtick_4">
     <g id="line2d_4">
      <g>
       <use xlink:href="#m4c99cd72f3" x="287.861272" y="260.942187" style="stroke: #000000; stroke-width: 0.8"/>
      </g>
     </g>
     <g id="text_4">
      <!-- 30 -->
      <g transform="translate(282.300334 275.115625)scale(0.1 -0.1)">
       <defs>
        <path id="Helvetica-33" d="M 1663 -122 
Q 869 -122 511 314 
Q 153 750 153 1375 
L 741 1375 
Q 778 941 903 744 
Q 1122 391 1694 391 
Q 2138 391 2406 628 
Q 2675 866 2675 1241 
Q 2675 1703 2392 1887 
Q 2109 2072 1606 2072 
Q 1550 2072 1492 2070 
Q 1434 2069 1375 2066 
L 1375 2563 
Q 1463 2553 1522 2550 
Q 1581 2547 1650 2547 
Q 1966 2547 2169 2647 
Q 2525 2822 2525 3272 
Q 2525 3606 2287 3787 
Q 2050 3969 1734 3969 
Q 1172 3969 956 3594 
Q 838 3388 822 3006 
L 266 3006 
Q 266 3506 466 3856 
Q 809 4481 1675 4481 
Q 2359 4481 2734 4176 
Q 3109 3872 3109 3294 
Q 3109 2881 2888 2625 
Q 2750 2466 2531 2375 
Q 2884 2278 3082 2001 
Q 3281 1725 3281 1325 
Q 3281 684 2859 281 
Q 2438 -122 1663 -122 
z
" transform="scale(0.015625)"/>
       </defs>
       <use xlink:href="#Helvetica-33"/>
       <use xlink:href="#Helvetica-30" x="55.615234"/>
      </g>
     </g>
    </g>
    <g id="xtick_5">
     <g id="line2d_5">
      <g>
       <use xlink:href="#m4c99cd72f3" x="334.347842" y="260.942187" style="stroke: #000000; stroke-width: 0.8"/>
      </g>
     </g>
     <g id="text_5">
      <!-- 40 -->
      <g transform="translate(328.786904 275.115625)scale(0.1 -0.1)">
       <defs>
        <path id="Helvetica-34" d="M 2116 1584 
L 2116 3613 
L 681 1584 
L 2116 1584 
z
M 2125 0 
L 2125 1094 
L 163 1094 
L 163 1644 
L 2213 4488 
L 2688 4488 
L 2688 1584 
L 3347 1584 
L 3347 1094 
L 2688 1094 
L 2688 0 
L 2125 0 
z
" transform="scale(0.015625)"/>
       </defs>
       <use xlink:href="#Helvetica-34"/>
       <use xlink:href="#Helvetica-30" x="55.615234"/>
      </g>
     </g>
    </g>
    <g id="xtick_6">
     <g id="line2d_6">
      <g>
       <use xlink:href="#m4c99cd72f3" x="380.834411" y="260.942187" style="stroke: #000000; stroke-width: 0.8"/>
      </g>
     </g>
     <g id="text_6">
      <!-- 50 -->
      <g transform="translate(375.273474 275.115625)scale(0.1 -0.1)">
       <defs>
        <path id="Helvetica-35" d="M 791 1141 
Q 847 659 1238 475 
Q 1438 381 1700 381 
Q 2200 381 2440 700 
Q 2681 1019 2681 1406 
Q 2681 1875 2395 2131 
Q 2109 2388 1709 2388 
Q 1419 2388 1211 2275 
Q 1003 2163 856 1963 
L 369 1991 
L 709 4400 
L 3034 4400 
L 3034 3856 
L 1131 3856 
L 941 2613 
Q 1097 2731 1238 2791 
Q 1488 2894 1816 2894 
Q 2431 2894 2859 2497 
Q 3288 2100 3288 1491 
Q 3288 856 2895 371 
Q 2503 -113 1644 -113 
Q 1097 -113 676 195 
Q 256 503 206 1141 
L 791 1141 
z
" transform="scale(0.015625)"/>
       </defs>
       <use xlink:href="#Helvetica-35"/>
       <use xlink:href="#Helvetica-30" x="55.615234"/>
      </g>
     </g>
    </g>
   </g>
   <g id="matplotlib.axis_2">
    <g id="ytick_1">
     <g id="line2d_7">
      <defs>
       <path id="m8e343aef83" d="M 0 0 
L -3.5 0 
" style="stroke: #000000; stroke-width: 0.8"/>
      </defs>
      <g>
       <use xlink:href="#m8e343aef83" x="148.401563" y="240.52362" style="stroke: #000000; stroke-width: 0.8"/>
      </g>
     </g>
     <g id="text_7">
      <!-- Fraunhofer Society -->
      <g transform="translate(56.920313 244.207995)scale(0.1 -0.1)">
       <defs>
        <path id="Helvetica-46" d="M 547 4591 
L 3731 4591 
L 3731 4028 
L 1169 4028 
L 1169 2634 
L 3422 2634 
L 3422 2088 
L 1169 2088 
L 1169 0 
L 547 0 
L 547 4591 
z
" transform="scale(0.015625)"/>
        <path id="Helvetica-72" d="M 428 3347 
L 963 3347 
L 963 2769 
Q 1028 2938 1284 3180 
Q 1541 3422 1875 3422 
Q 1891 3422 1928 3419 
Q 1966 3416 2056 3406 
L 2056 2813 
Q 2006 2822 1964 2825 
Q 1922 2828 1872 2828 
Q 1447 2828 1219 2554 
Q 991 2281 991 1925 
L 991 0 
L 428 0 
L 428 3347 
z
" transform="scale(0.015625)"/>
        <path id="Helvetica-61" d="M 844 891 
Q 844 647 1022 506 
Q 1200 366 1444 366 
Q 1741 366 2019 503 
Q 2488 731 2488 1250 
L 2488 1703 
Q 2384 1638 2221 1594 
Q 2059 1550 1903 1531 
L 1563 1488 
Q 1256 1447 1103 1359 
Q 844 1213 844 891 
z
M 2206 2028 
Q 2400 2053 2466 2191 
Q 2503 2266 2503 2406 
Q 2503 2694 2298 2823 
Q 2094 2953 1713 2953 
Q 1272 2953 1088 2716 
Q 984 2584 953 2325 
L 428 2325 
Q 444 2944 830 3186 
Q 1216 3428 1725 3428 
Q 2316 3428 2684 3203 
Q 3050 2978 3050 2503 
L 3050 575 
Q 3050 488 3086 434 
Q 3122 381 3238 381 
Q 3275 381 3322 386 
Q 3369 391 3422 400 
L 3422 -16 
Q 3291 -53 3222 -62 
Q 3153 -72 3034 -72 
Q 2744 -72 2613 134 
Q 2544 244 2516 444 
Q 2344 219 2022 53 
Q 1700 -113 1313 -113 
Q 847 -113 551 170 
Q 256 453 256 878 
Q 256 1344 547 1600 
Q 838 1856 1309 1916 
L 2206 2028 
z
M 1741 3428 
L 1741 3428 
z
" transform="scale(0.015625)"/>
        <path id="Helvetica-75" d="M 975 3347 
L 975 1125 
Q 975 869 1056 706 
Q 1206 406 1616 406 
Q 2203 406 2416 931 
Q 2531 1213 2531 1703 
L 2531 3347 
L 3094 3347 
L 3094 0 
L 2563 0 
L 2569 494 
Q 2459 303 2297 172 
Q 1975 -91 1516 -91 
Q 800 -91 541 388 
Q 400 644 400 1072 
L 400 3347 
L 975 3347 
z
M 1747 3428 
L 1747 3428 
z
" transform="scale(0.015625)"/>
        <path id="Helvetica-6e" d="M 413 3347 
L 947 3347 
L 947 2872 
Q 1184 3166 1450 3294 
Q 1716 3422 2041 3422 
Q 2753 3422 3003 2925 
Q 3141 2653 3141 2147 
L 3141 0 
L 2569 0 
L 2569 2109 
Q 2569 2416 2478 2603 
Q 2328 2916 1934 2916 
Q 1734 2916 1606 2875 
Q 1375 2806 1200 2600 
Q 1059 2434 1017 2257 
Q 975 2081 975 1753 
L 975 0 
L 413 0 
L 413 3347 
z
M 1734 3428 
L 1734 3428 
z
" transform="scale(0.015625)"/>
        <path id="Helvetica-68" d="M 413 4606 
L 975 4606 
L 975 2894 
Q 1175 3147 1334 3250 
Q 1606 3428 2013 3428 
Q 2741 3428 3000 2919 
Q 3141 2641 3141 2147 
L 3141 0 
L 2563 0 
L 2563 2109 
Q 2563 2478 2469 2650 
Q 2316 2925 1894 2925 
Q 1544 2925 1259 2684 
Q 975 2444 975 1775 
L 975 0 
L 413 0 
L 413 4606 
z
" transform="scale(0.015625)"/>
        <path id="Helvetica-6f" d="M 1741 363 
Q 2300 363 2508 786 
Q 2716 1209 2716 1728 
Q 2716 2197 2566 2491 
Q 2328 2953 1747 2953 
Q 1231 2953 997 2559 
Q 763 2166 763 1609 
Q 763 1075 997 719 
Q 1231 363 1741 363 
z
M 1763 3444 
Q 2409 3444 2856 3012 
Q 3303 2581 3303 1744 
Q 3303 934 2909 406 
Q 2516 -122 1688 -122 
Q 997 -122 590 345 
Q 184 813 184 1600 
Q 184 2444 612 2944 
Q 1041 3444 1763 3444 
z
M 1744 3428 
L 1744 3428 
z
" transform="scale(0.015625)"/>
        <path id="Helvetica-66" d="M 553 3856 
Q 566 4206 675 4369 
Q 872 4656 1434 4656 
Q 1488 4656 1544 4653 
Q 1600 4650 1672 4644 
L 1672 4131 
Q 1584 4138 1545 4139 
Q 1506 4141 1472 4141 
Q 1216 4141 1166 4008 
Q 1116 3875 1116 3331 
L 1672 3331 
L 1672 2888 
L 1109 2888 
L 1109 0 
L 553 0 
L 553 2888 
L 88 2888 
L 88 3331 
L 553 3331 
L 553 3856 
z
" transform="scale(0.015625)"/>
        <path id="Helvetica-65" d="M 1806 3422 
Q 2163 3422 2497 3255 
Q 2831 3088 3006 2822 
Q 3175 2569 3231 2231 
Q 3281 2000 3281 1494 
L 828 1494 
Q 844 984 1069 676 
Q 1294 369 1766 369 
Q 2206 369 2469 659 
Q 2619 828 2681 1050 
L 3234 1050 
Q 3213 866 3089 639 
Q 2966 413 2813 269 
Q 2556 19 2178 -69 
Q 1975 -119 1719 -119 
Q 1094 -119 659 336 
Q 225 791 225 1609 
Q 225 2416 662 2919 
Q 1100 3422 1806 3422 
z
M 2703 1941 
Q 2669 2306 2544 2525 
Q 2313 2931 1772 2931 
Q 1384 2931 1121 2651 
Q 859 2372 844 1941 
L 2703 1941 
z
M 1753 3428 
L 1753 3428 
z
" transform="scale(0.015625)"/>
        <path id="Helvetica-20" transform="scale(0.015625)"/>
        <path id="Helvetica-53" d="M 894 1481 
Q 916 1091 1078 847 
Q 1388 391 2169 391 
Q 2519 391 2806 491 
Q 3363 684 3363 1184 
Q 3363 1559 3128 1719 
Q 2891 1875 2384 1991 
L 1763 2131 
Q 1153 2269 900 2434 
Q 463 2722 463 3294 
Q 463 3913 891 4309 
Q 1319 4706 2103 4706 
Q 2825 4706 3329 4357 
Q 3834 4009 3834 3244 
L 3250 3244 
Q 3203 3613 3050 3809 
Q 2766 4169 2084 4169 
Q 1534 4169 1293 3937 
Q 1053 3706 1053 3400 
Q 1053 3063 1334 2906 
Q 1519 2806 2169 2656 
L 2813 2509 
Q 3278 2403 3531 2219 
Q 3969 1897 3969 1284 
Q 3969 522 3414 194 
Q 2859 -134 2125 -134 
Q 1269 -134 784 303 
Q 300 738 309 1481 
L 894 1481 
z
M 2150 4716 
L 2150 4716 
z
" transform="scale(0.015625)"/>
        <path id="Helvetica-63" d="M 1703 3444 
Q 2269 3444 2623 3169 
Q 2978 2894 3050 2222 
L 2503 2222 
Q 2453 2531 2275 2736 
Q 2097 2941 1703 2941 
Q 1166 2941 934 2416 
Q 784 2075 784 1575 
Q 784 1072 996 728 
Q 1209 384 1666 384 
Q 2016 384 2220 598 
Q 2425 813 2503 1184 
L 3050 1184 
Q 2956 519 2581 211 
Q 2206 -97 1622 -97 
Q 966 -97 575 383 
Q 184 863 184 1581 
Q 184 2463 612 2953 
Q 1041 3444 1703 3444 
z
M 1616 3428 
L 1616 3428 
z
" transform="scale(0.015625)"/>
        <path id="Helvetica-69" d="M 413 3331 
L 984 3331 
L 984 0 
L 413 0 
L 413 3331 
z
M 413 4591 
L 984 4591 
L 984 3953 
L 413 3953 
L 413 4591 
z
" transform="scale(0.015625)"/>
        <path id="Helvetica-74" d="M 525 4281 
L 1094 4281 
L 1094 3347 
L 1628 3347 
L 1628 2888 
L 1094 2888 
L 1094 703 
Q 1094 528 1213 469 
Q 1278 434 1431 434 
Q 1472 434 1519 436 
Q 1566 438 1628 444 
L 1628 0 
Q 1531 -28 1426 -40 
Q 1322 -53 1200 -53 
Q 806 -53 665 148 
Q 525 350 525 672 
L 525 2888 
L 72 2888 
L 72 3347 
L 525 3347 
L 525 4281 
z
" transform="scale(0.015625)"/>
        <path id="Helvetica-79" d="M 2503 3347 
L 3125 3347 
Q 3006 3025 2597 1878 
Q 2291 1016 2084 472 
Q 1597 -809 1397 -1090 
Q 1197 -1372 709 -1372 
Q 591 -1372 527 -1362 
Q 463 -1353 369 -1328 
L 369 -816 
Q 516 -856 581 -865 
Q 647 -875 697 -875 
Q 853 -875 926 -823 
Q 1000 -772 1050 -697 
Q 1066 -672 1162 -440 
Q 1259 -209 1303 -97 
L 66 3347 
L 703 3347 
L 1600 622 
L 2503 3347 
z
M 1597 3428 
L 1597 3428 
z
" transform="scale(0.015625)"/>
       </defs>
       <use xlink:href="#Helvetica-46"/>
       <use xlink:href="#Helvetica-72" x="61.083984"/>
       <use xlink:href="#Helvetica-61" x="94.384766"/>
       <use xlink:href="#Helvetica-75" x="150"/>
       <use xlink:href="#Helvetica-6e" x="205.615234"/>
       <use xlink:href="#Helvetica-68" x="261.230469"/>
       <use xlink:href="#Helvetica-6f" x="316.845703"/>
       <use xlink:href="#Helvetica-66" x="372.460938"/>
       <use xlink:href="#Helvetica-65" x="400.244141"/>
       <use xlink:href="#Helvetica-72" x="455.859375"/>
       <use xlink:href="#Helvetica-20" x="489.160156"/>
       <use xlink:href="#Helvetica-53" x="516.943359"/>
       <use xlink:href="#Helvetica-6f" x="583.642578"/>
       <use xlink:href="#Helvetica-63" x="639.257812"/>
       <use xlink:href="#Helvetica-69" x="689.257812"/>
       <use xlink:href="#Helvetica-65" x="711.474609"/>
       <use xlink:href="#Helvetica-74" x="767.089844"/>
       <use xlink:href="#Helvetica-79" x="794.873047"/>
      </g>
     </g>
    </g>
    <g id="ytick_2">
     <g id="line2d_8">
      <g>
       <use xlink:href="#m8e343aef83" x="148.401563" y="216.215801" style="stroke: #000000; stroke-width: 0.8"/>
      </g>
     </g>
     <g id="text_8">
      <!-- Government -->
      <g transform="translate(86.38125 219.802519)scale(0.1 -0.1)">
       <defs>
        <path id="Helvetica-47" d="M 2472 4709 
Q 3119 4709 3591 4459 
Q 4275 4100 4428 3200 
L 3813 3200 
Q 3700 3703 3347 3933 
Q 2994 4163 2456 4163 
Q 1819 4163 1383 3684 
Q 947 3206 947 2259 
Q 947 1441 1306 927 
Q 1666 413 2478 413 
Q 3100 413 3508 773 
Q 3916 1134 3925 1941 
L 2488 1941 
L 2488 2456 
L 4503 2456 
L 4503 0 
L 4103 0 
L 3953 591 
Q 3638 244 3394 109 
Q 2984 -122 2353 -122 
Q 1538 -122 950 406 
Q 309 1069 309 2225 
Q 309 3378 934 4059 
Q 1528 4709 2472 4709 
z
M 2369 4716 
L 2369 4716 
z
" transform="scale(0.015625)"/>
        <path id="Helvetica-76" d="M 688 3347 
L 1581 622 
L 2516 3347 
L 3131 3347 
L 1869 0 
L 1269 0 
L 34 3347 
L 688 3347 
z
" transform="scale(0.015625)"/>
        <path id="Helvetica-6d" d="M 413 3347 
L 969 3347 
L 969 2872 
Q 1169 3119 1331 3231 
Q 1609 3422 1963 3422 
Q 2363 3422 2606 3225 
Q 2744 3113 2856 2894 
Q 3044 3163 3297 3292 
Q 3550 3422 3866 3422 
Q 4541 3422 4784 2934 
Q 4916 2672 4916 2228 
L 4916 0 
L 4331 0 
L 4331 2325 
Q 4331 2659 4164 2784 
Q 3997 2909 3756 2909 
Q 3425 2909 3186 2687 
Q 2947 2466 2947 1947 
L 2947 0 
L 2375 0 
L 2375 2184 
Q 2375 2525 2294 2681 
Q 2166 2916 1816 2916 
Q 1497 2916 1236 2669 
Q 975 2422 975 1775 
L 975 0 
L 413 0 
L 413 3347 
z
" transform="scale(0.015625)"/>
       </defs>
       <use xlink:href="#Helvetica-47"/>
       <use xlink:href="#Helvetica-6f" x="77.783203"/>
       <use xlink:href="#Helvetica-76" x="133.398438"/>
       <use xlink:href="#Helvetica-65" x="183.398438"/>
       <use xlink:href="#Helvetica-72" x="239.013672"/>
       <use xlink:href="#Helvetica-6e" x="272.314453"/>
       <use xlink:href="#Helvetica-6d" x="327.929688"/>
       <use xlink:href="#Helvetica-65" x="411.230469"/>
       <use xlink:href="#Helvetica-6e" x="466.845703"/>
       <use xlink:href="#Helvetica-74" x="522.460938"/>
      </g>
     </g>
    </g>
    <g id="ytick_3">
     <g id="line2d_9">
      <g>
       <use xlink:href="#m8e343aef83" x="148.401563" y="191.907982" style="stroke: #000000; stroke-width: 0.8"/>
      </g>
     </g>
     <g id="text_9">
      <!-- Leibniz Association -->
      <g transform="translate(55.8 195.4947)scale(0.1 -0.1)">
       <defs>
        <path id="Helvetica-4c" d="M 488 4591 
L 1109 4591 
L 1109 547 
L 3434 547 
L 3434 0 
L 488 0 
L 488 4591 
z
" transform="scale(0.015625)"/>
        <path id="Helvetica-62" d="M 369 4606 
L 916 4606 
L 916 2941 
Q 1100 3181 1356 3307 
Q 1613 3434 1913 3434 
Q 2538 3434 2927 3004 
Q 3316 2575 3316 1738 
Q 3316 944 2931 419 
Q 2547 -106 1866 -106 
Q 1484 -106 1222 78 
Q 1066 188 888 428 
L 888 0 
L 369 0 
L 369 4606 
z
M 1831 391 
Q 2288 391 2514 753 
Q 2741 1116 2741 1709 
Q 2741 2238 2514 2584 
Q 2288 2931 1847 2931 
Q 1463 2931 1173 2647 
Q 884 2363 884 1709 
Q 884 1238 1003 944 
Q 1225 391 1831 391 
z
" transform="scale(0.015625)"/>
        <path id="Helvetica-7a" d="M 163 444 
L 2147 2844 
L 309 2844 
L 309 3347 
L 2903 3347 
L 2903 2888 
L 931 503 
L 2963 503 
L 2963 0 
L 163 0 
L 163 444 
z
M 1609 3428 
L 1609 3428 
z
" transform="scale(0.015625)"/>
        <path id="Helvetica-41" d="M 2844 1881 
L 2147 3909 
L 1406 1881 
L 2844 1881 
z
M 1822 4591 
L 2525 4591 
L 4191 0 
L 3509 0 
L 3044 1375 
L 1228 1375 
L 731 0 
L 94 0 
L 1822 4591 
z
M 2144 4591 
L 2144 4591 
z
" transform="scale(0.015625)"/>
        <path id="Helvetica-73" d="M 747 1050 
Q 772 769 888 619 
Q 1100 347 1625 347 
Q 1938 347 2175 483 
Q 2413 619 2413 903 
Q 2413 1119 2222 1231 
Q 2100 1300 1741 1391 
L 1294 1503 
Q 866 1609 663 1741 
Q 300 1969 300 2372 
Q 300 2847 642 3140 
Q 984 3434 1563 3434 
Q 2319 3434 2653 2991 
Q 2863 2709 2856 2384 
L 2325 2384 
Q 2309 2575 2191 2731 
Q 1997 2953 1519 2953 
Q 1200 2953 1036 2831 
Q 872 2709 872 2509 
Q 872 2291 1088 2159 
Q 1213 2081 1456 2022 
L 1828 1931 
Q 2434 1784 2641 1647 
Q 2969 1431 2969 969 
Q 2969 522 2630 197 
Q 2291 -128 1597 -128 
Q 850 -128 539 211 
Q 228 550 206 1050 
L 747 1050 
z
M 1578 3428 
L 1578 3428 
z
" transform="scale(0.015625)"/>
       </defs>
       <use xlink:href="#Helvetica-4c"/>
       <use xlink:href="#Helvetica-65" x="55.615234"/>
       <use xlink:href="#Helvetica-69" x="111.230469"/>
       <use xlink:href="#Helvetica-62" x="133.447266"/>
       <use xlink:href="#Helvetica-6e" x="189.0625"/>
       <use xlink:href="#Helvetica-69" x="244.677734"/>
       <use xlink:href="#Helvetica-7a" x="266.894531"/>
       <use xlink:href="#Helvetica-20" x="316.894531"/>
       <use xlink:href="#Helvetica-41" x="344.677734"/>
       <use xlink:href="#Helvetica-73" x="411.376953"/>
       <use xlink:href="#Helvetica-73" x="461.376953"/>
       <use xlink:href="#Helvetica-6f" x="511.376953"/>
       <use xlink:href="#Helvetica-63" x="566.992188"/>
       <use xlink:href="#Helvetica-69" x="616.992188"/>
       <use xlink:href="#Helvetica-61" x="639.208984"/>
       <use xlink:href="#Helvetica-74" x="694.824219"/>
       <use xlink:href="#Helvetica-69" x="722.607422"/>
       <use xlink:href="#Helvetica-6f" x="744.824219"/>
       <use xlink:href="#Helvetica-6e" x="800.439453"/>
      </g>
     </g>
    </g>
    <g id="ytick_4">
     <g id="line2d_10">
      <g>
       <use xlink:href="#m8e343aef83" x="148.401563" y="167.600163" style="stroke: #000000; stroke-width: 0.8"/>
      </g>
     </g>
     <g id="text_10">
      <!-- University of Applied -->
      <g transform="translate(50.253125 166.579069)scale(0.1 -0.1)">
       <defs>
        <path id="Helvetica-55" d="M 1163 4591 
L 1163 1753 
Q 1163 1253 1350 922 
Q 1628 422 2288 422 
Q 3078 422 3363 963 
Q 3516 1256 3516 1753 
L 3516 4591 
L 4147 4591 
L 4147 2013 
Q 4147 1166 3919 709 
Q 3500 -122 2338 -122 
Q 1175 -122 759 709 
Q 531 1166 531 2013 
L 531 4591 
L 1163 4591 
z
M 2341 4591 
L 2341 4591 
z
" transform="scale(0.015625)"/>
        <path id="Helvetica-70" d="M 1825 378 
Q 2219 378 2480 708 
Q 2741 1038 2741 1694 
Q 2741 2094 2625 2381 
Q 2406 2934 1825 2934 
Q 1241 2934 1025 2350 
Q 909 2038 909 1556 
Q 909 1169 1025 897 
Q 1244 378 1825 378 
z
M 369 3331 
L 916 3331 
L 916 2888 
Q 1084 3116 1284 3241 
Q 1569 3428 1953 3428 
Q 2522 3428 2919 2992 
Q 3316 2556 3316 1747 
Q 3316 653 2744 184 
Q 2381 -113 1900 -113 
Q 1522 -113 1266 53 
Q 1116 147 931 375 
L 931 -1334 
L 369 -1334 
L 369 3331 
z
" transform="scale(0.015625)"/>
        <path id="Helvetica-6c" d="M 428 4591 
L 991 4591 
L 991 0 
L 428 0 
L 428 4591 
z
" transform="scale(0.015625)"/>
        <path id="Helvetica-64" d="M 769 1634 
Q 769 1097 997 734 
Q 1225 372 1728 372 
Q 2119 372 2370 708 
Q 2622 1044 2622 1672 
Q 2622 2306 2362 2611 
Q 2103 2916 1722 2916 
Q 1297 2916 1033 2591 
Q 769 2266 769 1634 
z
M 1616 3406 
Q 2000 3406 2259 3244 
Q 2409 3150 2600 2916 
L 2600 4606 
L 3141 4606 
L 3141 0 
L 2634 0 
L 2634 466 
Q 2438 156 2169 18 
Q 1900 -119 1553 -119 
Q 994 -119 584 351 
Q 175 822 175 1603 
Q 175 2334 548 2870 
Q 922 3406 1616 3406 
z
" transform="scale(0.015625)"/>
       </defs>
       <use xlink:href="#Helvetica-55"/>
       <use xlink:href="#Helvetica-6e" x="72.216797"/>
       <use xlink:href="#Helvetica-69" x="127.832031"/>
       <use xlink:href="#Helvetica-76" x="150.048828"/>
       <use xlink:href="#Helvetica-65" x="200.048828"/>
       <use xlink:href="#Helvetica-72" x="255.664062"/>
       <use xlink:href="#Helvetica-73" x="288.964844"/>
       <use xlink:href="#Helvetica-69" x="338.964844"/>
       <use xlink:href="#Helvetica-74" x="361.181641"/>
       <use xlink:href="#Helvetica-79" x="388.964844"/>
       <use xlink:href="#Helvetica-20" x="438.964844"/>
       <use xlink:href="#Helvetica-6f" x="466.748047"/>
       <use xlink:href="#Helvetica-66" x="522.363281"/>
       <use xlink:href="#Helvetica-20" x="550.146484"/>
       <use xlink:href="#Helvetica-41" x="577.929688"/>
       <use xlink:href="#Helvetica-70" x="644.628906"/>
       <use xlink:href="#Helvetica-70" x="700.244141"/>
       <use xlink:href="#Helvetica-6c" x="755.859375"/>
       <use xlink:href="#Helvetica-69" x="778.076172"/>
       <use xlink:href="#Helvetica-65" x="800.292969"/>
       <use xlink:href="#Helvetica-64" x="855.908203"/>
      </g>
      <!-- Sciences -->
      <g transform="translate(100.826563 177.330944)scale(0.1 -0.1)">
       <use xlink:href="#Helvetica-53"/>
       <use xlink:href="#Helvetica-63" x="66.699219"/>
       <use xlink:href="#Helvetica-69" x="116.699219"/>
       <use xlink:href="#Helvetica-65" x="138.916016"/>
       <use xlink:href="#Helvetica-6e" x="194.53125"/>
       <use xlink:href="#Helvetica-63" x="250.146484"/>
       <use xlink:href="#Helvetica-65" x="300.146484"/>
       <use xlink:href="#Helvetica-73" x="355.761719"/>
      </g>
     </g>
    </g>
    <g id="ytick_5">
     <g id="line2d_11">
      <g>
       <use xlink:href="#m8e343aef83" x="148.401563" y="143.292344" style="stroke: #000000; stroke-width: 0.8"/>
      </g>
     </g>
     <g id="text_11">
      <!-- Max Planck Society -->
      <g transform="translate(54.148438 146.976719)scale(0.1 -0.1)">
       <defs>
        <path id="Helvetica-4d" d="M 472 4591 
L 1363 4591 
L 2681 709 
L 3991 4591 
L 4872 4591 
L 4872 0 
L 4281 0 
L 4281 2709 
Q 4281 2850 4287 3175 
Q 4294 3500 4294 3872 
L 2984 0 
L 2369 0 
L 1050 3872 
L 1050 3731 
Q 1050 3563 1058 3217 
Q 1066 2872 1066 2709 
L 1066 0 
L 472 0 
L 472 4591 
z
" transform="scale(0.015625)"/>
        <path id="Helvetica-78" d="M 94 3347 
L 822 3347 
L 1591 2169 
L 2369 3347 
L 3053 3331 
L 1925 1716 
L 3103 0 
L 2384 0 
L 1553 1256 
L 747 0 
L 34 0 
L 1213 1716 
L 94 3347 
z
" transform="scale(0.015625)"/>
        <path id="Helvetica-50" d="M 547 4591 
L 2613 4591 
Q 3225 4591 3600 4245 
Q 3975 3900 3975 3275 
Q 3975 2738 3640 2339 
Q 3306 1941 2613 1941 
L 1169 1941 
L 1169 0 
L 547 0 
L 547 4591 
z
M 3347 3272 
Q 3347 3778 2972 3959 
Q 2766 4056 2406 4056 
L 1169 4056 
L 1169 2466 
L 2406 2466 
Q 2825 2466 3086 2644 
Q 3347 2822 3347 3272 
z
" transform="scale(0.015625)"/>
        <path id="Helvetica-6b" d="M 400 4591 
L 941 4591 
L 941 1925 
L 2384 3347 
L 3103 3347 
L 1822 2094 
L 3175 0 
L 2456 0 
L 1413 1688 
L 941 1256 
L 941 0 
L 400 0 
L 400 4591 
z
" transform="scale(0.015625)"/>
       </defs>
       <use xlink:href="#Helvetica-4d"/>
       <use xlink:href="#Helvetica-61" x="83.300781"/>
       <use xlink:href="#Helvetica-78" x="138.916016"/>
       <use xlink:href="#Helvetica-20" x="188.916016"/>
       <use xlink:href="#Helvetica-50" x="216.699219"/>
       <use xlink:href="#Helvetica-6c" x="283.398438"/>
       <use xlink:href="#Helvetica-61" x="305.615234"/>
       <use xlink:href="#Helvetica-6e" x="361.230469"/>
       <use xlink:href="#Helvetica-63" x="416.845703"/>
       <use xlink:href="#Helvetica-6b" x="466.845703"/>
       <use xlink:href="#Helvetica-20" x="516.845703"/>
       <use xlink:href="#Helvetica-53" x="544.628906"/>
       <use xlink:href="#Helvetica-6f" x="611.328125"/>
       <use xlink:href="#Helvetica-63" x="666.943359"/>
       <use xlink:href="#Helvetica-69" x="716.943359"/>
       <use xlink:href="#Helvetica-65" x="739.160156"/>
       <use xlink:href="#Helvetica-74" x="794.775391"/>
       <use xlink:href="#Helvetica-79" x="822.558594"/>
      </g>
     </g>
    </g>
    <g id="ytick_6">
     <g id="line2d_12">
      <g>
       <use xlink:href="#m8e343aef83" x="148.401563" y="118.984525" style="stroke: #000000; stroke-width: 0.8"/>
      </g>
     </g>
     <g id="text_12">
      <!-- Other -->
      <g transform="translate(116.39375 122.571244)scale(0.1 -0.1)">
       <defs>
        <path id="Helvetica-4f" d="M 2469 4716 
Q 3684 4716 4269 3934 
Q 4725 3325 4725 2375 
Q 4725 1347 4203 666 
Q 3591 -134 2456 -134 
Q 1397 -134 791 566 
Q 250 1241 250 2272 
Q 250 3203 713 3866 
Q 1306 4716 2469 4716 
z
M 2531 422 
Q 3353 422 3720 1011 
Q 4088 1600 4088 2366 
Q 4088 3175 3664 3669 
Q 3241 4163 2506 4163 
Q 1794 4163 1344 3673 
Q 894 3184 894 2231 
Q 894 1469 1280 945 
Q 1666 422 2531 422 
z
M 2488 4716 
L 2488 4716 
z
" transform="scale(0.015625)"/>
       </defs>
       <use xlink:href="#Helvetica-4f"/>
       <use xlink:href="#Helvetica-74" x="77.783203"/>
       <use xlink:href="#Helvetica-68" x="105.566406"/>
       <use xlink:href="#Helvetica-65" x="161.181641"/>
       <use xlink:href="#Helvetica-72" x="216.796875"/>
      </g>
     </g>
    </g>
    <g id="ytick_7">
     <g id="line2d_13">
      <g>
       <use xlink:href="#m8e343aef83" x="148.401563" y="94.676706" style="stroke: #000000; stroke-width: 0.8"/>
      </g>
     </g>
     <g id="text_13">
      <!-- Helmholtz Association -->
      <g transform="translate(43.03125 93.634518)scale(0.1 -0.1)">
       <defs>
        <path id="Helvetica-48" d="M 503 4591 
L 1131 4591 
L 1131 2694 
L 3519 2694 
L 3519 4591 
L 4147 4591 
L 4147 0 
L 3519 0 
L 3519 2147 
L 1131 2147 
L 1131 0 
L 503 0 
L 503 4591 
z
" transform="scale(0.015625)"/>
       </defs>
       <use xlink:href="#Helvetica-48"/>
       <use xlink:href="#Helvetica-65" x="72.216797"/>
       <use xlink:href="#Helvetica-6c" x="127.832031"/>
       <use xlink:href="#Helvetica-6d" x="150.048828"/>
       <use xlink:href="#Helvetica-68" x="233.349609"/>
       <use xlink:href="#Helvetica-6f" x="288.964844"/>
       <use xlink:href="#Helvetica-6c" x="344.580078"/>
       <use xlink:href="#Helvetica-74" x="366.796875"/>
       <use xlink:href="#Helvetica-7a" x="394.580078"/>
       <use xlink:href="#Helvetica-20" x="444.580078"/>
       <use xlink:href="#Helvetica-41" x="472.363281"/>
       <use xlink:href="#Helvetica-73" x="539.0625"/>
       <use xlink:href="#Helvetica-73" x="589.0625"/>
       <use xlink:href="#Helvetica-6f" x="639.0625"/>
       <use xlink:href="#Helvetica-63" x="694.677734"/>
       <use xlink:href="#Helvetica-69" x="744.677734"/>
       <use xlink:href="#Helvetica-61" x="766.894531"/>
       <use xlink:href="#Helvetica-74" x="822.509766"/>
       <use xlink:href="#Helvetica-69" x="850.292969"/>
       <use xlink:href="#Helvetica-6f" x="872.509766"/>
       <use xlink:href="#Helvetica-6e" x="928.125"/>
      </g>
      <!-- of German Research Centres -->
      <g transform="translate(10.8 104.327018)scale(0.1 -0.1)">
       <defs>
        <path id="Helvetica-52" d="M 2622 2488 
Q 3059 2488 3314 2663 
Q 3569 2838 3569 3294 
Q 3569 3784 3213 3963 
Q 3022 4056 2703 4056 
L 1184 4056 
L 1184 2488 
L 2622 2488 
z
M 563 4591 
L 2688 4591 
Q 3213 4591 3553 4438 
Q 4200 4144 4200 3353 
Q 4200 2941 4029 2678 
Q 3859 2416 3553 2256 
Q 3822 2147 3958 1969 
Q 4094 1791 4109 1391 
L 4131 775 
Q 4141 513 4175 384 
Q 4231 166 4375 103 
L 4375 0 
L 3613 0 
Q 3581 59 3562 153 
Q 3544 247 3531 516 
L 3494 1281 
Q 3472 1731 3159 1884 
Q 2981 1969 2600 1969 
L 1184 1969 
L 1184 0 
L 563 0 
L 563 4591 
z
" transform="scale(0.015625)"/>
        <path id="Helvetica-43" d="M 2422 4716 
Q 3294 4716 3775 4256 
Q 4256 3797 4309 3213 
L 3703 3213 
Q 3600 3656 3292 3915 
Q 2984 4175 2428 4175 
Q 1750 4175 1333 3698 
Q 916 3222 916 2238 
Q 916 1431 1292 929 
Q 1669 428 2416 428 
Q 3103 428 3463 956 
Q 3653 1234 3747 1688 
L 4353 1688 
Q 4272 963 3816 472 
Q 3269 -119 2341 -119 
Q 1541 -119 997 366 
Q 281 1006 281 2344 
Q 281 3359 819 4009 
Q 1400 4716 2422 4716 
z
M 2297 4716 
L 2297 4716 
z
" transform="scale(0.015625)"/>
       </defs>
       <use xlink:href="#Helvetica-6f"/>
       <use xlink:href="#Helvetica-66" x="55.615234"/>
       <use xlink:href="#Helvetica-20" x="83.398438"/>
       <use xlink:href="#Helvetica-47" x="111.181641"/>
       <use xlink:href="#Helvetica-65" x="188.964844"/>
       <use xlink:href="#Helvetica-72" x="244.580078"/>
       <use xlink:href="#Helvetica-6d" x="277.880859"/>
       <use xlink:href="#Helvetica-61" x="361.181641"/>
       <use xlink:href="#Helvetica-6e" x="416.796875"/>
       <use xlink:href="#Helvetica-20" x="472.412109"/>
       <use xlink:href="#Helvetica-52" x="500.195312"/>
       <use xlink:href="#Helvetica-65" x="572.412109"/>
       <use xlink:href="#Helvetica-73" x="628.027344"/>
       <use xlink:href="#Helvetica-65" x="678.027344"/>
       <use xlink:href="#Helvetica-61" x="733.642578"/>
       <use xlink:href="#Helvetica-72" x="789.257812"/>
       <use xlink:href="#Helvetica-63" x="822.558594"/>
       <use xlink:href="#Helvetica-68" x="872.558594"/>
       <use xlink:href="#Helvetica-20" x="928.173828"/>
       <use xlink:href="#Helvetica-43" x="955.957031"/>
       <use xlink:href="#Helvetica-65" x="1028.173828"/>
       <use xlink:href="#Helvetica-6e" x="1083.789062"/>
       <use xlink:href="#Helvetica-74" x="1139.404297"/>
       <use xlink:href="#Helvetica-72" x="1167.1875"/>
       <use xlink:href="#Helvetica-65" x="1200.488281"/>
       <use xlink:href="#Helvetica-73" x="1256.103516"/>
      </g>
     </g>
    </g>
    <g id="ytick_8">
     <g id="line2d_14">
      <g>
       <use xlink:href="#m8e343aef83" x="148.401563" y="70.368887" style="stroke: #000000; stroke-width: 0.8"/>
      </g>
     </g>
     <g id="text_14">
      <!-- Private company -->
      <g transform="translate(66.928125 73.955606)scale(0.1 -0.1)">
       <use xlink:href="#Helvetica-50"/>
       <use xlink:href="#Helvetica-72" x="66.699219"/>
       <use xlink:href="#Helvetica-69" x="100"/>
       <use xlink:href="#Helvetica-76" x="122.216797"/>
       <use xlink:href="#Helvetica-61" x="172.216797"/>
       <use xlink:href="#Helvetica-74" x="227.832031"/>
       <use xlink:href="#Helvetica-65" x="255.615234"/>
       <use xlink:href="#Helvetica-20" x="311.230469"/>
       <use xlink:href="#Helvetica-63" x="339.013672"/>
       <use xlink:href="#Helvetica-6f" x="389.013672"/>
       <use xlink:href="#Helvetica-6d" x="444.628906"/>
       <use xlink:href="#Helvetica-70" x="527.929688"/>
       <use xlink:href="#Helvetica-61" x="583.544922"/>
       <use xlink:href="#Helvetica-6e" x="639.160156"/>
       <use xlink:href="#Helvetica-79" x="694.775391"/>
      </g>
     </g>
    </g>
    <g id="ytick_9">
     <g id="line2d_15">
      <g>
       <use xlink:href="#m8e343aef83" x="148.401563" y="46.061068" style="stroke: #000000; stroke-width: 0.8"/>
      </g>
     </g>
     <g id="text_15">
      <!-- University -->
      <g transform="translate(97.50625 49.647787)scale(0.1 -0.1)">
       <use xlink:href="#Helvetica-55"/>
       <use xlink:href="#Helvetica-6e" x="72.216797"/>
       <use xlink:href="#Helvetica-69" x="127.832031"/>
       <use xlink:href="#Helvetica-76" x="150.048828"/>
       <use xlink:href="#Helvetica-65" x="200.048828"/>
       <use xlink:href="#Helvetica-72" x="255.664062"/>
       <use xlink:href="#Helvetica-73" x="288.964844"/>
       <use xlink:href="#Helvetica-69" x="338.964844"/>
       <use xlink:href="#Helvetica-74" x="361.181641"/>
       <use xlink:href="#Helvetica-79" x="388.964844"/>
      </g>
     </g>
    </g>
   </g>
   <g id="patch_12">
    <path d="M 148.401563 260.942187 
L 382.426417 260.942187 
" style="fill: none; stroke: #000000; stroke-width: 0.8; stroke-linejoin: miter; stroke-linecap: square"/>
   </g>
   <g id="text_16">
    <!-- 1% -->
    <g transform="translate(160.420349 243.068151)scale(0.1 -0.1)">
     <defs>
      <path id="Helvetica-25" d="M 4363 2175 
Q 4813 2175 5131 1856 
Q 5450 1538 5450 1088 
Q 5450 638 5131 319 
Q 4813 0 4363 0 
Q 3909 0 3590 319 
Q 3272 638 3272 1088 
Q 3272 1538 3590 1856 
Q 3909 2175 4363 2175 
z
M 3909 4456 
L 4256 4456 
L 1753 -119 
L 1406 -119 
L 3909 4456 
z
M 1294 2606 
Q 1563 2606 1752 2795 
Q 1941 2984 1941 3250 
Q 1941 3516 1752 3705 
Q 1563 3894 1294 3894 
Q 1028 3894 839 3706 
Q 650 3519 650 3250 
Q 650 2984 839 2795 
Q 1028 2606 1294 2606 
z
M 1294 4341 
Q 1747 4341 2065 4020 
Q 2384 3700 2384 3250 
Q 2384 2800 2065 2481 
Q 1747 2163 1294 2163 
Q 844 2163 525 2481 
Q 206 2800 206 3250 
Q 206 3700 525 4020 
Q 844 4341 1294 4341 
z
M 4363 444 
Q 4628 444 4817 633 
Q 5006 822 5006 1088 
Q 5006 1353 4817 1542 
Q 4628 1731 4363 1731 
Q 4094 1731 3905 1542 
Q 3716 1353 3716 1088 
Q 3716 822 3905 633 
Q 4094 444 4363 444 
z
" transform="scale(0.015625)"/>
     </defs>
     <use xlink:href="#Helvetica-31"/>
     <use xlink:href="#Helvetica-25" x="55.615234"/>
    </g>
   </g>
   <g id="text_17">
    <!-- 1% -->
    <g transform="translate(162.543023 218.760332)scale(0.1 -0.1)">
     <use xlink:href="#Helvetica-31"/>
     <use xlink:href="#Helvetica-25" x="55.615234"/>
    </g>
   </g>
   <g id="text_18">
    <!-- 2% -->
    <g transform="translate(164.665698 194.452513)scale(0.1 -0.1)">
     <use xlink:href="#Helvetica-32"/>
     <use xlink:href="#Helvetica-25" x="55.615234"/>
    </g>
   </g>
   <g id="text_19">
    <!-- 2% -->
    <g transform="translate(164.665698 170.144694)scale(0.1 -0.1)">
     <use xlink:href="#Helvetica-32"/>
     <use xlink:href="#Helvetica-25" x="55.615234"/>
    </g>
   </g>
   <g id="text_20">
    <!-- 6% -->
    <g transform="translate(185.892442 145.836875)scale(0.1 -0.1)">
     <defs>
      <path id="Helvetica-36" d="M 1872 4494 
Q 2622 4494 2917 4105 
Q 3213 3716 3213 3303 
L 2656 3303 
Q 2606 3569 2497 3719 
Q 2294 4000 1881 4000 
Q 1409 4000 1131 3564 
Q 853 3128 822 2316 
Q 1016 2600 1309 2741 
Q 1578 2866 1909 2866 
Q 2472 2866 2890 2506 
Q 3309 2147 3309 1434 
Q 3309 825 2912 354 
Q 2516 -116 1781 -116 
Q 1153 -116 697 361 
Q 241 838 241 1966 
Q 241 2800 444 3381 
Q 834 4494 1872 4494 
z
M 1831 384 
Q 2275 384 2495 682 
Q 2716 981 2716 1388 
Q 2716 1731 2519 2042 
Q 2322 2353 1803 2353 
Q 1441 2353 1167 2112 
Q 894 1872 894 1388 
Q 894 963 1142 673 
Q 1391 384 1831 384 
z
" transform="scale(0.015625)"/>
     </defs>
     <use xlink:href="#Helvetica-36"/>
     <use xlink:href="#Helvetica-25" x="55.615234"/>
    </g>
   </g>
   <g id="text_21">
    <!-- 11% -->
    <g transform="translate(206.461392 121.529056)scale(0.1 -0.1)">
     <use xlink:href="#Helvetica-31"/>
     <use xlink:href="#Helvetica-31" x="55.615234"/>
     <use xlink:href="#Helvetica-25" x="111.230469"/>
    </g>
   </g>
   <g id="text_22">
    <!-- 13% -->
    <g transform="translate(214.952089 97.221237)scale(0.1 -0.1)">
     <use xlink:href="#Helvetica-31"/>
     <use xlink:href="#Helvetica-33" x="55.615234"/>
     <use xlink:href="#Helvetica-25" x="111.230469"/>
    </g>
   </g>
   <g id="text_23">
    <!-- 15% -->
    <g transform="translate(223.442787 72.913418)scale(0.1 -0.1)">
     <use xlink:href="#Helvetica-31"/>
     <use xlink:href="#Helvetica-35" x="55.615234"/>
     <use xlink:href="#Helvetica-25" x="111.230469"/>
    </g>
   </g>
   <g id="text_24">
    <!-- 48% -->
    <g transform="translate(376.275345 48.605599)scale(0.1 -0.1)">
     <defs>
      <path id="Helvetica-38" d="M 1741 2600 
Q 2113 2600 2322 2808 
Q 2531 3016 2531 3303 
Q 2531 3553 2331 3762 
Q 2131 3972 1722 3972 
Q 1316 3972 1134 3762 
Q 953 3553 953 3272 
Q 953 2956 1187 2778 
Q 1422 2600 1741 2600 
z
M 1775 384 
Q 2166 384 2423 595 
Q 2681 806 2681 1225 
Q 2681 1659 2415 1884 
Q 2150 2109 1734 2109 
Q 1331 2109 1076 1879 
Q 822 1650 822 1244 
Q 822 894 1055 639 
Q 1288 384 1775 384 
z
M 975 2384 
Q 741 2484 609 2619 
Q 363 2869 363 3269 
Q 363 3769 725 4128 
Q 1088 4488 1753 4488 
Q 2397 4488 2762 4148 
Q 3128 3809 3128 3356 
Q 3128 2938 2916 2678 
Q 2797 2531 2547 2391 
Q 2825 2263 2984 2097 
Q 3281 1784 3281 1284 
Q 3281 694 2884 283 
Q 2488 -128 1763 -128 
Q 1109 -128 657 226 
Q 206 581 206 1256 
Q 206 1653 400 1942 
Q 594 2231 975 2384 
z
" transform="scale(0.015625)"/>
     </defs>
     <use xlink:href="#Helvetica-34"/>
     <use xlink:href="#Helvetica-38" x="55.615234"/>
     <use xlink:href="#Helvetica-25" x="111.230469"/>
    </g>
   </g>
   <g id="text_25">
    <!-- Where the previous job was based, Germany -->
    <g transform="translate(145.363365 19.6425)scale(0.12 -0.12)">
     <defs>
      <path id="Helvetica-57" d="M 791 4591 
L 1656 856 
L 2694 4591 
L 3369 4591 
L 4406 856 
L 5272 4591 
L 5953 4591 
L 4747 0 
L 4094 0 
L 3034 3806 
L 1969 0 
L 1316 0 
L 116 4591 
L 791 4591 
z
" transform="scale(0.015625)"/>
      <path id="Helvetica-6a" d="M 975 3941 
L 413 3941 
L 413 4591 
L 975 4591 
L 975 3941 
z
M -119 -847 
Q 259 -834 336 -779 
Q 413 -725 413 -438 
L 413 3331 
L 975 3331 
L 975 -497 
Q 975 -863 856 -1044 
Q 659 -1350 109 -1350 
Q 69 -1350 23 -1347 
Q -22 -1344 -119 -1334 
L -119 -847 
z
" transform="scale(0.015625)"/>
      <path id="Helvetica-77" d="M 672 3347 
L 1316 709 
L 1969 3347 
L 2600 3347 
L 3256 725 
L 3941 3347 
L 4503 3347 
L 3531 0 
L 2947 0 
L 2266 2591 
L 1606 0 
L 1022 0 
L 56 3347 
L 672 3347 
z
" transform="scale(0.015625)"/>
      <path id="Helvetica-2c" d="M 531 -653 
Q 747 -616 834 -350 
Q 881 -209 881 -78 
Q 881 -56 879 -39 
Q 878 -22 872 0 
L 531 0 
L 531 681 
L 1200 681 
L 1200 50 
Q 1200 -322 1050 -603 
Q 900 -884 531 -950 
L 531 -653 
z
" transform="scale(0.015625)"/>
     </defs>
     <use xlink:href="#Helvetica-57"/>
     <use xlink:href="#Helvetica-68" x="94.384766"/>
     <use xlink:href="#Helvetica-65" x="150"/>
     <use xlink:href="#Helvetica-72" x="205.615234"/>
     <use xlink:href="#Helvetica-65" x="238.916016"/>
     <use xlink:href="#Helvetica-20" x="294.53125"/>
     <use xlink:href="#Helvetica-74" x="322.314453"/>
     <use xlink:href="#Helvetica-68" x="350.097656"/>
     <use xlink:href="#Helvetica-65" x="405.712891"/>
     <use xlink:href="#Helvetica-20" x="461.328125"/>
     <use xlink:href="#Helvetica-70" x="489.111328"/>
     <use xlink:href="#Helvetica-72" x="544.726562"/>
     <use xlink:href="#Helvetica-65" x="578.027344"/>
     <use xlink:href="#Helvetica-76" x="633.642578"/>
     <use xlink:href="#Helvetica-69" x="683.642578"/>
     <use xlink:href="#Helvetica-6f" x="705.859375"/>
     <use xlink:href="#Helvetica-75" x="761.474609"/>
     <use xlink:href="#Helvetica-73" x="817.089844"/>
     <use xlink:href="#Helvetica-20" x="867.089844"/>
     <use xlink:href="#Helvetica-6a" x="894.873047"/>
     <use xlink:href="#Helvetica-6f" x="917.089844"/>
     <use xlink:href="#Helvetica-62" x="972.705078"/>
     <use xlink:href="#Helvetica-20" x="1028.320312"/>
     <use xlink:href="#Helvetica-77" x="1056.103516"/>
     <use xlink:href="#Helvetica-61" x="1128.320312"/>
     <use xlink:href="#Helvetica-73" x="1183.935547"/>
     <use xlink:href="#Helvetica-20" x="1233.935547"/>
     <use xlink:href="#Helvetica-62" x="1261.71875"/>
     <use xlink:href="#Helvetica-61" x="1317.333984"/>
     <use xlink:href="#Helvetica-73" x="1372.949219"/>
     <use xlink:href="#Helvetica-65" x="1422.949219"/>
     <use xlink:href="#Helvetica-64" x="1478.564453"/>
     <use xlink:href="#Helvetica-2c" x="1534.179688"/>
     <use xlink:href="#Helvetica-20" x="1561.962891"/>
     <use xlink:href="#Helvetica-47" x="1589.746094"/>
     <use xlink:href="#Helvetica-65" x="1667.529297"/>
     <use xlink:href="#Helvetica-72" x="1723.144531"/>
     <use xlink:href="#Helvetica-6d" x="1756.445312"/>
     <use xlink:href="#Helvetica-61" x="1839.746094"/>
     <use xlink:href="#Helvetica-6e" x="1895.361328"/>
     <use xlink:href="#Helvetica-79" x="1950.976562"/>
    </g>
   </g>
  </g>
  <g id="axes_2">
   <g id="patch_13">
    <path d="M 416.512239 260.942187 
L 449.944362 260.942187 
L 449.944362 25.6425 
L 416.512239 25.6425 
z
" style="fill: #ffffff"/>
   </g>
   <g id="patch_14">
    <path d="M 429.990221 250.246747 
L 418.031881 250.246747 
L 418.031881 230.800492 
L 429.990221 230.800492 
z
" clip-path="url(#p1a93e1ba9e)" style="fill: #ffa500"/>
   </g>
   <g id="patch_15">
    <path d="M 429.990221 225.938928 
L 428.797445 225.938928 
L 428.797445 206.492673 
L 429.990221 206.492673 
z
" clip-path="url(#p1a93e1ba9e)" style="fill: #ffa500"/>
   </g>
   <g id="patch_16">
    <path d="M 429.990221 201.631109 
L 421.143802 201.631109 
L 421.143802 182.184854 
L 429.990221 182.184854 
z
" clip-path="url(#p1a93e1ba9e)" style="fill: #ffa500"/>
   </g>
   <g id="patch_17">
    <path d="M 429.990221 177.32329 
L 431.190642 177.32329 
L 431.190642 157.877035 
L 429.990221 157.877035 
z
" clip-path="url(#p1a93e1ba9e)" style="fill: #008000"/>
   </g>
   <g id="patch_18">
    <path d="M 429.990221 153.015471 
L 448.42472 153.015471 
L 448.42472 133.569216 
L 429.990221 133.569216 
z
" clip-path="url(#p1a93e1ba9e)" style="fill: #008000"/>
   </g>
   <g id="patch_19">
    <path d="M 429.990221 128.707652 
L 422.841213 128.707652 
L 422.841213 109.261397 
L 429.990221 109.261397 
z
" clip-path="url(#p1a93e1ba9e)" style="fill: #ffa500"/>
   </g>
   <g id="patch_20">
    <path d="M 429.990221 104.399833 
L 447.484262 104.399833 
L 447.484262 84.953578 
L 429.990221 84.953578 
z
" clip-path="url(#p1a93e1ba9e)" style="fill: #008000"/>
   </g>
   <g id="patch_21">
    <path d="M 0 0 
z
" clip-path="url(#p1a93e1ba9e)" style="fill: #ffa500"/>
   </g>
   <g id="patch_22">
    <path d="M 429.990221 55.784196 
L 440.151751 55.784196 
L 440.151751 36.33794 
L 429.990221 36.33794 
z
" clip-path="url(#p1a93e1ba9e)" style="fill: #008000"/>
   </g>
   <g id="matplotlib.axis_3">
    <g id="xtick_7">
     <g id="line2d_16">
      <g>
       <use xlink:href="#m4c99cd72f3" x="416.887467" y="260.942187" style="stroke: #000000; stroke-width: 0.8"/>
      </g>
     </g>
     <g id="text_26">
      <!-- −2.5 -->
      <g transform="translate(407.017154 275.115625)scale(0.1 -0.1)">
       <defs>
        <path id="Helvetica-2212" d="M 3547 1894 
L 3547 1369 
L 288 1369 
L 288 1894 
L 3547 1894 
z
" transform="scale(0.015625)"/>
        <path id="Helvetica-2e" d="M 547 681 
L 1200 681 
L 1200 0 
L 547 0 
L 547 681 
z
" transform="scale(0.015625)"/>
       </defs>
       <use xlink:href="#Helvetica-2212"/>
       <use xlink:href="#Helvetica-32" x="58.398438"/>
       <use xlink:href="#Helvetica-2e" x="114.013672"/>
       <use xlink:href="#Helvetica-35" x="141.796875"/>
      </g>
     </g>
    </g>
    <g id="xtick_8">
     <g id="line2d_17">
      <g>
       <use xlink:href="#m4c99cd72f3" x="429.990221" y="260.942187" style="stroke: #000000; stroke-width: 0.8"/>
      </g>
     </g>
     <g id="text_27">
      <!-- 0.0 -->
      <g transform="translate(423.040221 275.115625)scale(0.1 -0.1)">
       <use xlink:href="#Helvetica-30"/>
       <use xlink:href="#Helvetica-2e" x="55.615234"/>
       <use xlink:href="#Helvetica-30" x="83.398438"/>
      </g>
     </g>
    </g>
    <g id="xtick_9">
     <g id="line2d_18">
      <g>
       <use xlink:href="#m4c99cd72f3" x="443.092975" y="260.942187" style="stroke: #000000; stroke-width: 0.8"/>
      </g>
     </g>
     <g id="text_28">
      <!-- 2.5 -->
      <g transform="translate(436.142975 275.115625)scale(0.1 -0.1)">
       <use xlink:href="#Helvetica-32"/>
       <use xlink:href="#Helvetica-2e" x="55.615234"/>
       <use xlink:href="#Helvetica-35" x="83.398438"/>
      </g>
     </g>
    </g>
   </g>
   <g id="matplotlib.axis_4">
    <g id="ytick_10">
     <g id="line2d_19">
      <g>
       <use xlink:href="#m8e343aef83" x="416.512239" y="240.52362" style="stroke: #000000; stroke-width: 0.8"/>
      </g>
     </g>
    </g>
    <g id="ytick_11">
     <g id="line2d_20">
      <g>
       <use xlink:href="#m8e343aef83" x="416.512239" y="216.215801" style="stroke: #000000; stroke-width: 0.8"/>
      </g>
     </g>
    </g>
    <g id="ytick_12">
     <g id="line2d_21">
      <g>
       <use xlink:href="#m8e343aef83" x="416.512239" y="191.907982" style="stroke: #000000; stroke-width: 0.8"/>
      </g>
     </g>
    </g>
    <g id="ytick_13">
     <g id="line2d_22">
      <g>
       <use xlink:href="#m8e343aef83" x="416.512239" y="167.600163" style="stroke: #000000; stroke-width: 0.8"/>
      </g>
     </g>
    </g>
    <g id="ytick_14">
     <g id="line2d_23">
      <g>
       <use xlink:href="#m8e343aef83" x="416.512239" y="143.292344" style="stroke: #000000; stroke-width: 0.8"/>
      </g>
     </g>
    </g>
    <g id="ytick_15">
     <g id="line2d_24">
      <g>
       <use xlink:href="#m8e343aef83" x="416.512239" y="118.984525" style="stroke: #000000; stroke-width: 0.8"/>
      </g>
     </g>
    </g>
    <g id="ytick_16">
     <g id="line2d_25">
      <g>
       <use xlink:href="#m8e343aef83" x="416.512239" y="94.676706" style="stroke: #000000; stroke-width: 0.8"/>
      </g>
     </g>
    </g>
    <g id="ytick_17">
     <g id="line2d_26">
      <g>
       <use xlink:href="#m8e343aef83" x="416.512239" y="70.368887" style="stroke: #000000; stroke-width: 0.8"/>
      </g>
     </g>
    </g>
    <g id="ytick_18">
     <g id="line2d_27">
      <g>
       <use xlink:href="#m8e343aef83" x="416.512239" y="46.061068" style="stroke: #000000; stroke-width: 0.8"/>
      </g>
     </g>
    </g>
   </g>
   <g id="patch_23">
    <path d="M 416.512239 260.942187 
L 449.944362 260.942187 
" style="fill: none; stroke: #000000; stroke-width: 0.8; stroke-linejoin: miter; stroke-linecap: square"/>
   </g>
   <g id="text_29">
    <!-- Δ -->
    <g transform="translate(428.895175 19.6425)scale(0.12 -0.12)">
     <defs>
      <path id="Helvetica-394" d="M 922 500 
L 3672 500 
L 2278 3941 
L 922 500 
z
M 1966 4519 
L 2631 4519 
L 4494 0 
L 128 0 
L 1966 4519 
z
" transform="scale(0.015625)"/>
     </defs>
     <use xlink:href="#Helvetica-394"/>
    </g>
   </g>
  </g>
 </g>
 <defs>
  <clipPath id="p8b17133a78">
   <rect x="148.401563" y="25.6425" width="234.024855" height="235.299688"/>
  </clipPath>
  <clipPath id="p1a93e1ba9e">
   <rect x="416.512239" y="25.6425" width="33.432122" height="235.299688"/>
  </clipPath>
 </defs>
</svg>
