<?xml version="1.0" encoding="utf-8" standalone="no"?>
<!DOCTYPE svg PUBLIC "-//W3C//DTD SVG 1.1//EN"
  "http://www.w3.org/Graphics/SVG/1.1/DTD/svg11.dtd">
<svg xmlns:xlink="http://www.w3.org/1999/xlink" width="460.8pt" height="360pt" viewBox="0 0 460.8 360" xmlns="http://www.w3.org/2000/svg" version="1.1">
 <metadata>
  <rdf:RDF xmlns:dc="http://purl.org/dc/elements/1.1/" xmlns:cc="http://creativecommons.org/ns#" xmlns:rdf="http://www.w3.org/1999/02/22-rdf-syntax-ns#">
   <cc:Work>
    <dc:type rdf:resource="http://purl.org/dc/dcmitype/StillImage"/>
    <dc:date>2022-05-19T12:20:49.974340</dc:date>
    <dc:format>image/svg+xml</dc:format>
    <dc:creator>
     <cc:Agent>
      <dc:title>Matplotlib v3.5.1, https://matplotlib.org/</dc:title>
     </cc:Agent>
    </dc:creator>
   </cc:Work>
  </rdf:RDF>
 </metadata>
 <defs>
  <style type="text/css">*{stroke-linejoin: round; stroke-linecap: butt}</style>
 </defs>
 <g id="figure_1">
  <g id="patch_1">
   <path d="M 0 360 
L 460.8 360 
L 460.8 0 
L 0 0 
z
" style="fill: #ffffff"/>
  </g>
  <g id="axes_1">
   <g id="patch_2">
    <path d="M 149.525 332.942187 
L 450 332.942187 
L 450 25.43625 
L 149.525 25.43625 
z
" style="fill: #ffffff"/>
   </g>
   <g id="patch_3">
    <path d="M 149.525 318.964645 
L 435.691667 318.964645 
L 435.691667 300.012045 
L 149.525 300.012045 
z
" clip-path="url(#p1271f5cb50)" style="fill: #1f77b4"/>
   </g>
   <g id="patch_4">
    <path d="M 149.525 295.273895 
L 364.15 295.273895 
L 364.15 276.321295 
L 149.525 276.321295 
z
" clip-path="url(#p1271f5cb50)" style="fill: #1f77b4"/>
   </g>
   <g id="patch_5">
    <path d="M 149.525 271.583145 
L 364.15 271.583145 
L 364.15 252.630544 
L 149.525 252.630544 
z
" clip-path="url(#p1271f5cb50)" style="fill: #1f77b4"/>
   </g>
   <g id="patch_6">
    <path d="M 149.525 247.892394 
L 221.066667 247.892394 
L 221.066667 228.939794 
L 149.525 228.939794 
z
" clip-path="url(#p1271f5cb50)" style="fill: #1f77b4"/>
   </g>
   <g id="patch_7">
    <path d="M 149.525 224.201644 
L 221.066667 224.201644 
L 221.066667 205.249044 
L 149.525 205.249044 
z
" clip-path="url(#p1271f5cb50)" style="fill: #1f77b4"/>
   </g>
   <g id="patch_8">
    <path d="M 149.525 200.510894 
L 221.066667 200.510894 
L 221.066667 181.558294 
L 149.525 181.558294 
z
" clip-path="url(#p1271f5cb50)" style="fill: #1f77b4"/>
   </g>
   <g id="patch_9">
    <path d="M 149.525 176.820144 
L 221.066667 176.820144 
L 221.066667 157.867544 
L 149.525 157.867544 
z
" clip-path="url(#p1271f5cb50)" style="fill: #1f77b4"/>
   </g>
   <g id="patch_10">
    <path d="M 149.525 153.129394 
L 221.066667 153.129394 
L 221.066667 134.176793 
L 149.525 134.176793 
z
" clip-path="url(#p1271f5cb50)" style="fill: #1f77b4"/>
   </g>
   <g id="patch_11">
    <path d="M 149.525 129.438643 
L 221.066667 129.438643 
L 221.066667 110.486043 
L 149.525 110.486043 
z
" clip-path="url(#p1271f5cb50)" style="fill: #1f77b4"/>
   </g>
   <g id="patch_12">
    <path d="M 149.525 105.747893 
L 221.066667 105.747893 
L 221.066667 86.795293 
L 149.525 86.795293 
z
" clip-path="url(#p1271f5cb50)" style="fill: #1f77b4"/>
   </g>
   <g id="patch_13">
    <path d="M 149.525 82.057143 
L 221.066667 82.057143 
L 221.066667 63.104543 
L 149.525 63.104543 
z
" clip-path="url(#p1271f5cb50)" style="fill: #1f77b4"/>
   </g>
   <g id="patch_14">
    <path d="M 149.525 58.366393 
L 221.066667 58.366393 
L 221.066667 39.413793 
L 149.525 39.413793 
z
" clip-path="url(#p1271f5cb50)" style="fill: #1f77b4"/>
   </g>
   <g id="matplotlib.axis_1">
    <g id="xtick_1">
     <g id="line2d_1">
      <defs>
       <path id="m4c99cd72f3" d="M 0 0 
L 0 3.5 
" style="stroke: #000000; stroke-width: 0.8"/>
      </defs>
      <g>
       <use xlink:href="#m4c99cd72f3" x="149.525" y="332.942187" style="stroke: #000000; stroke-width: 0.8"/>
      </g>
     </g>
     <g id="text_1">
      <!-- 0.0 -->
      <g transform="translate(142.575 347.115625)scale(0.1 -0.1)">
       <defs>
        <path id="Helvetica-30" d="M 1731 4475 
Q 2600 4475 2988 3759 
Q 3288 3206 3288 2244 
Q 3288 1331 3016 734 
Q 2622 -122 1728 -122 
Q 922 -122 528 578 
Q 200 1163 200 2147 
Q 200 2909 397 3456 
Q 766 4475 1731 4475 
z
M 1725 391 
Q 2163 391 2422 778 
Q 2681 1166 2681 2222 
Q 2681 2984 2493 3476 
Q 2306 3969 1766 3969 
Q 1269 3969 1039 3501 
Q 809 3034 809 2125 
Q 809 1441 956 1025 
Q 1181 391 1725 391 
z
" transform="scale(0.015625)"/>
        <path id="Helvetica-2e" d="M 547 681 
L 1200 681 
L 1200 0 
L 547 0 
L 547 681 
z
" transform="scale(0.015625)"/>
       </defs>
       <use xlink:href="#Helvetica-30"/>
       <use xlink:href="#Helvetica-2e" x="55.615234"/>
       <use xlink:href="#Helvetica-30" x="83.398438"/>
      </g>
     </g>
    </g>
    <g id="xtick_2">
     <g id="line2d_2">
      <g>
       <use xlink:href="#m4c99cd72f3" x="183.507292" y="332.942187" style="stroke: #000000; stroke-width: 0.8"/>
      </g>
     </g>
     <g id="text_2">
      <!-- 2.5 -->
      <g transform="translate(176.557292 347.115625)scale(0.1 -0.1)">
       <defs>
        <path id="Helvetica-32" d="M 200 0 
Q 231 578 439 1006 
Q 647 1434 1250 1784 
L 1850 2131 
Q 2253 2366 2416 2531 
Q 2672 2791 2672 3125 
Q 2672 3516 2437 3745 
Q 2203 3975 1813 3975 
Q 1234 3975 1013 3538 
Q 894 3303 881 2888 
L 309 2888 
Q 319 3472 525 3841 
Q 891 4491 1816 4491 
Q 2584 4491 2939 4075 
Q 3294 3659 3294 3150 
Q 3294 2613 2916 2231 
Q 2697 2009 2131 1694 
L 1703 1456 
Q 1397 1288 1222 1134 
Q 909 863 828 531 
L 3272 531 
L 3272 0 
L 200 0 
z
" transform="scale(0.015625)"/>
        <path id="Helvetica-35" d="M 791 1141 
Q 847 659 1238 475 
Q 1438 381 1700 381 
Q 2200 381 2440 700 
Q 2681 1019 2681 1406 
Q 2681 1875 2395 2131 
Q 2109 2388 1709 2388 
Q 1419 2388 1211 2275 
Q 1003 2163 856 1963 
L 369 1991 
L 709 4400 
L 3034 4400 
L 3034 3856 
L 1131 3856 
L 941 2613 
Q 1097 2731 1238 2791 
Q 1488 2894 1816 2894 
Q 2431 2894 2859 2497 
Q 3288 2100 3288 1491 
Q 3288 856 2895 371 
Q 2503 -113 1644 -113 
Q 1097 -113 676 195 
Q 256 503 206 1141 
L 791 1141 
z
" transform="scale(0.015625)"/>
       </defs>
       <use xlink:href="#Helvetica-32"/>
       <use xlink:href="#Helvetica-2e" x="55.615234"/>
       <use xlink:href="#Helvetica-35" x="83.398438"/>
      </g>
     </g>
    </g>
    <g id="xtick_3">
     <g id="line2d_3">
      <g>
       <use xlink:href="#m4c99cd72f3" x="217.489583" y="332.942187" style="stroke: #000000; stroke-width: 0.8"/>
      </g>
     </g>
     <g id="text_3">
      <!-- 5.0 -->
      <g transform="translate(210.539583 347.115625)scale(0.1 -0.1)">
       <use xlink:href="#Helvetica-35"/>
       <use xlink:href="#Helvetica-2e" x="55.615234"/>
       <use xlink:href="#Helvetica-30" x="83.398438"/>
      </g>
     </g>
    </g>
    <g id="xtick_4">
     <g id="line2d_4">
      <g>
       <use xlink:href="#m4c99cd72f3" x="251.471875" y="332.942187" style="stroke: #000000; stroke-width: 0.8"/>
      </g>
     </g>
     <g id="text_4">
      <!-- 7.5 -->
      <g transform="translate(244.521875 347.115625)scale(0.1 -0.1)">
       <defs>
        <path id="Helvetica-37" d="M 3347 4400 
L 3347 3909 
Q 3131 3700 2773 3181 
Q 2416 2663 2141 2063 
Q 1869 1478 1728 997 
Q 1638 688 1494 0 
L 872 0 
Q 1084 1281 1809 2550 
Q 2238 3294 2709 3834 
L 234 3834 
L 234 4400 
L 3347 4400 
z
" transform="scale(0.015625)"/>
       </defs>
       <use xlink:href="#Helvetica-37"/>
       <use xlink:href="#Helvetica-2e" x="55.615234"/>
       <use xlink:href="#Helvetica-35" x="83.398438"/>
      </g>
     </g>
    </g>
    <g id="xtick_5">
     <g id="line2d_5">
      <g>
       <use xlink:href="#m4c99cd72f3" x="285.454167" y="332.942187" style="stroke: #000000; stroke-width: 0.8"/>
      </g>
     </g>
     <g id="text_5">
      <!-- 10.0 -->
      <g transform="translate(275.723698 347.115625)scale(0.1 -0.1)">
       <defs>
        <path id="Helvetica-31" d="M 613 3169 
L 613 3600 
Q 1222 3659 1462 3798 
Q 1703 3938 1822 4456 
L 2266 4456 
L 2266 0 
L 1666 0 
L 1666 3169 
L 613 3169 
z
" transform="scale(0.015625)"/>
       </defs>
       <use xlink:href="#Helvetica-31"/>
       <use xlink:href="#Helvetica-30" x="55.615234"/>
       <use xlink:href="#Helvetica-2e" x="111.230469"/>
       <use xlink:href="#Helvetica-30" x="139.013672"/>
      </g>
     </g>
    </g>
    <g id="xtick_6">
     <g id="line2d_6">
      <g>
       <use xlink:href="#m4c99cd72f3" x="319.436458" y="332.942187" style="stroke: #000000; stroke-width: 0.8"/>
      </g>
     </g>
     <g id="text_6">
      <!-- 12.5 -->
      <g transform="translate(309.70599 347.115625)scale(0.1 -0.1)">
       <use xlink:href="#Helvetica-31"/>
       <use xlink:href="#Helvetica-32" x="55.615234"/>
       <use xlink:href="#Helvetica-2e" x="111.230469"/>
       <use xlink:href="#Helvetica-35" x="139.013672"/>
      </g>
     </g>
    </g>
    <g id="xtick_7">
     <g id="line2d_7">
      <g>
       <use xlink:href="#m4c99cd72f3" x="353.41875" y="332.942187" style="stroke: #000000; stroke-width: 0.8"/>
      </g>
     </g>
     <g id="text_7">
      <!-- 15.0 -->
      <g transform="translate(343.688281 347.115625)scale(0.1 -0.1)">
       <use xlink:href="#Helvetica-31"/>
       <use xlink:href="#Helvetica-35" x="55.615234"/>
       <use xlink:href="#Helvetica-2e" x="111.230469"/>
       <use xlink:href="#Helvetica-30" x="139.013672"/>
      </g>
     </g>
    </g>
    <g id="xtick_8">
     <g id="line2d_8">
      <g>
       <use xlink:href="#m4c99cd72f3" x="387.401042" y="332.942187" style="stroke: #000000; stroke-width: 0.8"/>
      </g>
     </g>
     <g id="text_8">
      <!-- 17.5 -->
      <g transform="translate(377.670573 347.115625)scale(0.1 -0.1)">
       <use xlink:href="#Helvetica-31"/>
       <use xlink:href="#Helvetica-37" x="55.615234"/>
       <use xlink:href="#Helvetica-2e" x="111.230469"/>
       <use xlink:href="#Helvetica-35" x="139.013672"/>
      </g>
     </g>
    </g>
    <g id="xtick_9">
     <g id="line2d_9">
      <g>
       <use xlink:href="#m4c99cd72f3" x="421.383333" y="332.942187" style="stroke: #000000; stroke-width: 0.8"/>
      </g>
     </g>
     <g id="text_9">
      <!-- 20.0 -->
      <g transform="translate(411.652865 347.115625)scale(0.1 -0.1)">
       <use xlink:href="#Helvetica-32"/>
       <use xlink:href="#Helvetica-30" x="55.615234"/>
       <use xlink:href="#Helvetica-2e" x="111.230469"/>
       <use xlink:href="#Helvetica-30" x="139.013672"/>
      </g>
     </g>
    </g>
   </g>
   <g id="matplotlib.axis_2">
    <g id="ytick_1">
     <g id="line2d_10">
      <defs>
       <path id="m8e343aef83" d="M 0 0 
L -3.5 0 
" style="stroke: #000000; stroke-width: 0.8"/>
      </defs>
      <g>
       <use xlink:href="#m8e343aef83" x="149.525" y="309.488345" style="stroke: #000000; stroke-width: 0.8"/>
      </g>
     </g>
     <g id="text_10">
      <!-- Queensland University -->
      <g transform="translate(41.925 308.463345)scale(0.1 -0.1)">
       <defs>
        <path id="Helvetica-51" d="M 4688 13 
L 4375 -366 
L 3666 175 
Q 3409 34 3111 -50 
Q 2813 -134 2459 -134 
Q 1391 -134 784 566 
Q 250 1247 250 2272 
Q 250 3203 713 3866 
Q 1306 4716 2469 4716 
Q 3684 4716 4269 3934 
Q 4725 3325 4725 2375 
Q 4725 1931 4616 1522 
Q 4450 897 4056 503 
L 4688 13 
z
M 2534 422 
Q 2728 422 2897 448 
Q 3066 475 3191 553 
L 2688 947 
L 3000 1331 
L 3600 866 
Q 3884 1191 3986 1594 
Q 4088 1997 4088 2366 
Q 4088 3175 3664 3669 
Q 3241 4163 2506 4163 
Q 1763 4163 1328 3689 
Q 894 3216 894 2231 
Q 894 1403 1311 912 
Q 1728 422 2534 422 
z
" transform="scale(0.015625)"/>
        <path id="Helvetica-75" d="M 975 3347 
L 975 1125 
Q 975 869 1056 706 
Q 1206 406 1616 406 
Q 2203 406 2416 931 
Q 2531 1213 2531 1703 
L 2531 3347 
L 3094 3347 
L 3094 0 
L 2563 0 
L 2569 494 
Q 2459 303 2297 172 
Q 1975 -91 1516 -91 
Q 800 -91 541 388 
Q 400 644 400 1072 
L 400 3347 
L 975 3347 
z
M 1747 3428 
L 1747 3428 
z
" transform="scale(0.015625)"/>
        <path id="Helvetica-65" d="M 1806 3422 
Q 2163 3422 2497 3255 
Q 2831 3088 3006 2822 
Q 3175 2569 3231 2231 
Q 3281 2000 3281 1494 
L 828 1494 
Q 844 984 1069 676 
Q 1294 369 1766 369 
Q 2206 369 2469 659 
Q 2619 828 2681 1050 
L 3234 1050 
Q 3213 866 3089 639 
Q 2966 413 2813 269 
Q 2556 19 2178 -69 
Q 1975 -119 1719 -119 
Q 1094 -119 659 336 
Q 225 791 225 1609 
Q 225 2416 662 2919 
Q 1100 3422 1806 3422 
z
M 2703 1941 
Q 2669 2306 2544 2525 
Q 2313 2931 1772 2931 
Q 1384 2931 1121 2651 
Q 859 2372 844 1941 
L 2703 1941 
z
M 1753 3428 
L 1753 3428 
z
" transform="scale(0.015625)"/>
        <path id="Helvetica-6e" d="M 413 3347 
L 947 3347 
L 947 2872 
Q 1184 3166 1450 3294 
Q 1716 3422 2041 3422 
Q 2753 3422 3003 2925 
Q 3141 2653 3141 2147 
L 3141 0 
L 2569 0 
L 2569 2109 
Q 2569 2416 2478 2603 
Q 2328 2916 1934 2916 
Q 1734 2916 1606 2875 
Q 1375 2806 1200 2600 
Q 1059 2434 1017 2257 
Q 975 2081 975 1753 
L 975 0 
L 413 0 
L 413 3347 
z
M 1734 3428 
L 1734 3428 
z
" transform="scale(0.015625)"/>
        <path id="Helvetica-73" d="M 747 1050 
Q 772 769 888 619 
Q 1100 347 1625 347 
Q 1938 347 2175 483 
Q 2413 619 2413 903 
Q 2413 1119 2222 1231 
Q 2100 1300 1741 1391 
L 1294 1503 
Q 866 1609 663 1741 
Q 300 1969 300 2372 
Q 300 2847 642 3140 
Q 984 3434 1563 3434 
Q 2319 3434 2653 2991 
Q 2863 2709 2856 2384 
L 2325 2384 
Q 2309 2575 2191 2731 
Q 1997 2953 1519 2953 
Q 1200 2953 1036 2831 
Q 872 2709 872 2509 
Q 872 2291 1088 2159 
Q 1213 2081 1456 2022 
L 1828 1931 
Q 2434 1784 2641 1647 
Q 2969 1431 2969 969 
Q 2969 522 2630 197 
Q 2291 -128 1597 -128 
Q 850 -128 539 211 
Q 228 550 206 1050 
L 747 1050 
z
M 1578 3428 
L 1578 3428 
z
" transform="scale(0.015625)"/>
        <path id="Helvetica-6c" d="M 428 4591 
L 991 4591 
L 991 0 
L 428 0 
L 428 4591 
z
" transform="scale(0.015625)"/>
        <path id="Helvetica-61" d="M 844 891 
Q 844 647 1022 506 
Q 1200 366 1444 366 
Q 1741 366 2019 503 
Q 2488 731 2488 1250 
L 2488 1703 
Q 2384 1638 2221 1594 
Q 2059 1550 1903 1531 
L 1563 1488 
Q 1256 1447 1103 1359 
Q 844 1213 844 891 
z
M 2206 2028 
Q 2400 2053 2466 2191 
Q 2503 2266 2503 2406 
Q 2503 2694 2298 2823 
Q 2094 2953 1713 2953 
Q 1272 2953 1088 2716 
Q 984 2584 953 2325 
L 428 2325 
Q 444 2944 830 3186 
Q 1216 3428 1725 3428 
Q 2316 3428 2684 3203 
Q 3050 2978 3050 2503 
L 3050 575 
Q 3050 488 3086 434 
Q 3122 381 3238 381 
Q 3275 381 3322 386 
Q 3369 391 3422 400 
L 3422 -16 
Q 3291 -53 3222 -62 
Q 3153 -72 3034 -72 
Q 2744 -72 2613 134 
Q 2544 244 2516 444 
Q 2344 219 2022 53 
Q 1700 -113 1313 -113 
Q 847 -113 551 170 
Q 256 453 256 878 
Q 256 1344 547 1600 
Q 838 1856 1309 1916 
L 2206 2028 
z
M 1741 3428 
L 1741 3428 
z
" transform="scale(0.015625)"/>
        <path id="Helvetica-64" d="M 769 1634 
Q 769 1097 997 734 
Q 1225 372 1728 372 
Q 2119 372 2370 708 
Q 2622 1044 2622 1672 
Q 2622 2306 2362 2611 
Q 2103 2916 1722 2916 
Q 1297 2916 1033 2591 
Q 769 2266 769 1634 
z
M 1616 3406 
Q 2000 3406 2259 3244 
Q 2409 3150 2600 2916 
L 2600 4606 
L 3141 4606 
L 3141 0 
L 2634 0 
L 2634 466 
Q 2438 156 2169 18 
Q 1900 -119 1553 -119 
Q 994 -119 584 351 
Q 175 822 175 1603 
Q 175 2334 548 2870 
Q 922 3406 1616 3406 
z
" transform="scale(0.015625)"/>
        <path id="Helvetica-20" transform="scale(0.015625)"/>
        <path id="Helvetica-55" d="M 1163 4591 
L 1163 1753 
Q 1163 1253 1350 922 
Q 1628 422 2288 422 
Q 3078 422 3363 963 
Q 3516 1256 3516 1753 
L 3516 4591 
L 4147 4591 
L 4147 2013 
Q 4147 1166 3919 709 
Q 3500 -122 2338 -122 
Q 1175 -122 759 709 
Q 531 1166 531 2013 
L 531 4591 
L 1163 4591 
z
M 2341 4591 
L 2341 4591 
z
" transform="scale(0.015625)"/>
        <path id="Helvetica-69" d="M 413 3331 
L 984 3331 
L 984 0 
L 413 0 
L 413 3331 
z
M 413 4591 
L 984 4591 
L 984 3953 
L 413 3953 
L 413 4591 
z
" transform="scale(0.015625)"/>
        <path id="Helvetica-76" d="M 688 3347 
L 1581 622 
L 2516 3347 
L 3131 3347 
L 1869 0 
L 1269 0 
L 34 3347 
L 688 3347 
z
" transform="scale(0.015625)"/>
        <path id="Helvetica-72" d="M 428 3347 
L 963 3347 
L 963 2769 
Q 1028 2938 1284 3180 
Q 1541 3422 1875 3422 
Q 1891 3422 1928 3419 
Q 1966 3416 2056 3406 
L 2056 2813 
Q 2006 2822 1964 2825 
Q 1922 2828 1872 2828 
Q 1447 2828 1219 2554 
Q 991 2281 991 1925 
L 991 0 
L 428 0 
L 428 3347 
z
" transform="scale(0.015625)"/>
        <path id="Helvetica-74" d="M 525 4281 
L 1094 4281 
L 1094 3347 
L 1628 3347 
L 1628 2888 
L 1094 2888 
L 1094 703 
Q 1094 528 1213 469 
Q 1278 434 1431 434 
Q 1472 434 1519 436 
Q 1566 438 1628 444 
L 1628 0 
Q 1531 -28 1426 -40 
Q 1322 -53 1200 -53 
Q 806 -53 665 148 
Q 525 350 525 672 
L 525 2888 
L 72 2888 
L 72 3347 
L 525 3347 
L 525 4281 
z
" transform="scale(0.015625)"/>
        <path id="Helvetica-79" d="M 2503 3347 
L 3125 3347 
Q 3006 3025 2597 1878 
Q 2291 1016 2084 472 
Q 1597 -809 1397 -1090 
Q 1197 -1372 709 -1372 
Q 591 -1372 527 -1362 
Q 463 -1353 369 -1328 
L 369 -816 
Q 516 -856 581 -865 
Q 647 -875 697 -875 
Q 853 -875 926 -823 
Q 1000 -772 1050 -697 
Q 1066 -672 1162 -440 
Q 1259 -209 1303 -97 
L 66 3347 
L 703 3347 
L 1600 622 
L 2503 3347 
z
M 1597 3428 
L 1597 3428 
z
" transform="scale(0.015625)"/>
       </defs>
       <use xlink:href="#Helvetica-51"/>
       <use xlink:href="#Helvetica-75" x="77.783203"/>
       <use xlink:href="#Helvetica-65" x="133.398438"/>
       <use xlink:href="#Helvetica-65" x="189.013672"/>
       <use xlink:href="#Helvetica-6e" x="244.628906"/>
       <use xlink:href="#Helvetica-73" x="300.244141"/>
       <use xlink:href="#Helvetica-6c" x="350.244141"/>
       <use xlink:href="#Helvetica-61" x="372.460938"/>
       <use xlink:href="#Helvetica-6e" x="428.076172"/>
       <use xlink:href="#Helvetica-64" x="483.691406"/>
       <use xlink:href="#Helvetica-20" x="539.306641"/>
       <use xlink:href="#Helvetica-55" x="567.089844"/>
       <use xlink:href="#Helvetica-6e" x="639.306641"/>
       <use xlink:href="#Helvetica-69" x="694.921875"/>
       <use xlink:href="#Helvetica-76" x="717.138672"/>
       <use xlink:href="#Helvetica-65" x="767.138672"/>
       <use xlink:href="#Helvetica-72" x="822.753906"/>
       <use xlink:href="#Helvetica-73" x="856.054688"/>
       <use xlink:href="#Helvetica-69" x="906.054688"/>
       <use xlink:href="#Helvetica-74" x="928.271484"/>
       <use xlink:href="#Helvetica-79" x="956.054688"/>
      </g>
      <!-- of Technology -->
      <g transform="translate(79.7125 319.337095)scale(0.1 -0.1)">
       <defs>
        <path id="Helvetica-6f" d="M 1741 363 
Q 2300 363 2508 786 
Q 2716 1209 2716 1728 
Q 2716 2197 2566 2491 
Q 2328 2953 1747 2953 
Q 1231 2953 997 2559 
Q 763 2166 763 1609 
Q 763 1075 997 719 
Q 1231 363 1741 363 
z
M 1763 3444 
Q 2409 3444 2856 3012 
Q 3303 2581 3303 1744 
Q 3303 934 2909 406 
Q 2516 -122 1688 -122 
Q 997 -122 590 345 
Q 184 813 184 1600 
Q 184 2444 612 2944 
Q 1041 3444 1763 3444 
z
M 1744 3428 
L 1744 3428 
z
" transform="scale(0.015625)"/>
        <path id="Helvetica-66" d="M 553 3856 
Q 566 4206 675 4369 
Q 872 4656 1434 4656 
Q 1488 4656 1544 4653 
Q 1600 4650 1672 4644 
L 1672 4131 
Q 1584 4138 1545 4139 
Q 1506 4141 1472 4141 
Q 1216 4141 1166 4008 
Q 1116 3875 1116 3331 
L 1672 3331 
L 1672 2888 
L 1109 2888 
L 1109 0 
L 553 0 
L 553 2888 
L 88 2888 
L 88 3331 
L 553 3331 
L 553 3856 
z
" transform="scale(0.015625)"/>
        <path id="Helvetica-54" d="M 3828 4591 
L 3828 4044 
L 2281 4044 
L 2281 0 
L 1650 0 
L 1650 4044 
L 103 4044 
L 103 4591 
L 3828 4591 
z
" transform="scale(0.015625)"/>
        <path id="Helvetica-63" d="M 1703 3444 
Q 2269 3444 2623 3169 
Q 2978 2894 3050 2222 
L 2503 2222 
Q 2453 2531 2275 2736 
Q 2097 2941 1703 2941 
Q 1166 2941 934 2416 
Q 784 2075 784 1575 
Q 784 1072 996 728 
Q 1209 384 1666 384 
Q 2016 384 2220 598 
Q 2425 813 2503 1184 
L 3050 1184 
Q 2956 519 2581 211 
Q 2206 -97 1622 -97 
Q 966 -97 575 383 
Q 184 863 184 1581 
Q 184 2463 612 2953 
Q 1041 3444 1703 3444 
z
M 1616 3428 
L 1616 3428 
z
" transform="scale(0.015625)"/>
        <path id="Helvetica-68" d="M 413 4606 
L 975 4606 
L 975 2894 
Q 1175 3147 1334 3250 
Q 1606 3428 2013 3428 
Q 2741 3428 3000 2919 
Q 3141 2641 3141 2147 
L 3141 0 
L 2563 0 
L 2563 2109 
Q 2563 2478 2469 2650 
Q 2316 2925 1894 2925 
Q 1544 2925 1259 2684 
Q 975 2444 975 1775 
L 975 0 
L 413 0 
L 413 4606 
z
" transform="scale(0.015625)"/>
        <path id="Helvetica-67" d="M 1594 3406 
Q 1988 3406 2281 3213 
Q 2441 3103 2606 2894 
L 2606 3316 
L 3125 3316 
L 3125 272 
Q 3125 -366 2938 -734 
Q 2588 -1416 1616 -1416 
Q 1075 -1416 706 -1173 
Q 338 -931 294 -416 
L 866 -416 
Q 906 -641 1028 -763 
Q 1219 -950 1628 -950 
Q 2275 -950 2475 -494 
Q 2594 -225 2584 466 
Q 2416 209 2178 84 
Q 1941 -41 1550 -41 
Q 1006 -41 598 345 
Q 191 731 191 1622 
Q 191 2463 602 2934 
Q 1013 3406 1594 3406 
z
M 2606 1688 
Q 2606 2309 2350 2609 
Q 2094 2909 1697 2909 
Q 1103 2909 884 2353 
Q 769 2056 769 1575 
Q 769 1009 998 714 
Q 1228 419 1616 419 
Q 2222 419 2469 966 
Q 2606 1275 2606 1688 
z
M 1659 3428 
L 1659 3428 
z
" transform="scale(0.015625)"/>
       </defs>
       <use xlink:href="#Helvetica-6f"/>
       <use xlink:href="#Helvetica-66" x="55.615234"/>
       <use xlink:href="#Helvetica-20" x="83.398438"/>
       <use xlink:href="#Helvetica-54" x="111.181641"/>
       <use xlink:href="#Helvetica-65" x="172.265625"/>
       <use xlink:href="#Helvetica-63" x="227.880859"/>
       <use xlink:href="#Helvetica-68" x="277.880859"/>
       <use xlink:href="#Helvetica-6e" x="333.496094"/>
       <use xlink:href="#Helvetica-6f" x="389.111328"/>
       <use xlink:href="#Helvetica-6c" x="444.726562"/>
       <use xlink:href="#Helvetica-6f" x="466.943359"/>
       <use xlink:href="#Helvetica-67" x="522.558594"/>
       <use xlink:href="#Helvetica-79" x="578.173828"/>
      </g>
     </g>
    </g>
    <g id="ytick_2">
     <g id="line2d_11">
      <g>
       <use xlink:href="#m8e343aef83" x="149.525" y="285.797595" style="stroke: #000000; stroke-width: 0.8"/>
      </g>
     </g>
     <g id="text_11">
      <!-- The University of Melbourne -->
      <g transform="translate(17.479687 289.435095)scale(0.1 -0.1)">
       <defs>
        <path id="Helvetica-4d" d="M 472 4591 
L 1363 4591 
L 2681 709 
L 3991 4591 
L 4872 4591 
L 4872 0 
L 4281 0 
L 4281 2709 
Q 4281 2850 4287 3175 
Q 4294 3500 4294 3872 
L 2984 0 
L 2369 0 
L 1050 3872 
L 1050 3731 
Q 1050 3563 1058 3217 
Q 1066 2872 1066 2709 
L 1066 0 
L 472 0 
L 472 4591 
z
" transform="scale(0.015625)"/>
        <path id="Helvetica-62" d="M 369 4606 
L 916 4606 
L 916 2941 
Q 1100 3181 1356 3307 
Q 1613 3434 1913 3434 
Q 2538 3434 2927 3004 
Q 3316 2575 3316 1738 
Q 3316 944 2931 419 
Q 2547 -106 1866 -106 
Q 1484 -106 1222 78 
Q 1066 188 888 428 
L 888 0 
L 369 0 
L 369 4606 
z
M 1831 391 
Q 2288 391 2514 753 
Q 2741 1116 2741 1709 
Q 2741 2238 2514 2584 
Q 2288 2931 1847 2931 
Q 1463 2931 1173 2647 
Q 884 2363 884 1709 
Q 884 1238 1003 944 
Q 1225 391 1831 391 
z
" transform="scale(0.015625)"/>
       </defs>
       <use xlink:href="#Helvetica-54"/>
       <use xlink:href="#Helvetica-68" x="61.083984"/>
       <use xlink:href="#Helvetica-65" x="116.699219"/>
       <use xlink:href="#Helvetica-20" x="172.314453"/>
       <use xlink:href="#Helvetica-55" x="200.097656"/>
       <use xlink:href="#Helvetica-6e" x="272.314453"/>
       <use xlink:href="#Helvetica-69" x="327.929688"/>
       <use xlink:href="#Helvetica-76" x="350.146484"/>
       <use xlink:href="#Helvetica-65" x="400.146484"/>
       <use xlink:href="#Helvetica-72" x="455.761719"/>
       <use xlink:href="#Helvetica-73" x="489.0625"/>
       <use xlink:href="#Helvetica-69" x="539.0625"/>
       <use xlink:href="#Helvetica-74" x="561.279297"/>
       <use xlink:href="#Helvetica-79" x="589.0625"/>
       <use xlink:href="#Helvetica-20" x="639.0625"/>
       <use xlink:href="#Helvetica-6f" x="666.845703"/>
       <use xlink:href="#Helvetica-66" x="722.460938"/>
       <use xlink:href="#Helvetica-20" x="750.244141"/>
       <use xlink:href="#Helvetica-4d" x="778.027344"/>
       <use xlink:href="#Helvetica-65" x="861.328125"/>
       <use xlink:href="#Helvetica-6c" x="916.943359"/>
       <use xlink:href="#Helvetica-62" x="939.160156"/>
       <use xlink:href="#Helvetica-6f" x="994.775391"/>
       <use xlink:href="#Helvetica-75" x="1050.390625"/>
       <use xlink:href="#Helvetica-72" x="1106.005859"/>
       <use xlink:href="#Helvetica-6e" x="1139.306641"/>
       <use xlink:href="#Helvetica-65" x="1194.921875"/>
      </g>
     </g>
    </g>
    <g id="ytick_3">
     <g id="line2d_12">
      <g>
       <use xlink:href="#m8e343aef83" x="149.525" y="262.106844" style="stroke: #000000; stroke-width: 0.8"/>
      </g>
     </g>
     <g id="text_12">
      <!-- The Australian National -->
      <g transform="translate(38.585938 261.064657)scale(0.1 -0.1)">
       <defs>
        <path id="Helvetica-41" d="M 2844 1881 
L 2147 3909 
L 1406 1881 
L 2844 1881 
z
M 1822 4591 
L 2525 4591 
L 4191 0 
L 3509 0 
L 3044 1375 
L 1228 1375 
L 731 0 
L 94 0 
L 1822 4591 
z
M 2144 4591 
L 2144 4591 
z
" transform="scale(0.015625)"/>
        <path id="Helvetica-4e" d="M 488 4591 
L 1222 4591 
L 3541 872 
L 3541 4591 
L 4131 4591 
L 4131 0 
L 3434 0 
L 1081 3716 
L 1081 0 
L 488 0 
L 488 4591 
z
M 2269 4591 
L 2269 4591 
z
" transform="scale(0.015625)"/>
       </defs>
       <use xlink:href="#Helvetica-54"/>
       <use xlink:href="#Helvetica-68" x="61.083984"/>
       <use xlink:href="#Helvetica-65" x="116.699219"/>
       <use xlink:href="#Helvetica-20" x="172.314453"/>
       <use xlink:href="#Helvetica-41" x="200.097656"/>
       <use xlink:href="#Helvetica-75" x="266.796875"/>
       <use xlink:href="#Helvetica-73" x="322.412109"/>
       <use xlink:href="#Helvetica-74" x="372.412109"/>
       <use xlink:href="#Helvetica-72" x="400.195312"/>
       <use xlink:href="#Helvetica-61" x="433.496094"/>
       <use xlink:href="#Helvetica-6c" x="489.111328"/>
       <use xlink:href="#Helvetica-69" x="511.328125"/>
       <use xlink:href="#Helvetica-61" x="533.544922"/>
       <use xlink:href="#Helvetica-6e" x="589.160156"/>
       <use xlink:href="#Helvetica-20" x="644.775391"/>
       <use xlink:href="#Helvetica-4e" x="672.558594"/>
       <use xlink:href="#Helvetica-61" x="744.775391"/>
       <use xlink:href="#Helvetica-74" x="800.390625"/>
       <use xlink:href="#Helvetica-69" x="828.173828"/>
       <use xlink:href="#Helvetica-6f" x="850.390625"/>
       <use xlink:href="#Helvetica-6e" x="906.005859"/>
       <use xlink:href="#Helvetica-61" x="961.621094"/>
       <use xlink:href="#Helvetica-6c" x="1017.236328"/>
      </g>
      <!-- University -->
      <g transform="translate(98.629688 271.757157)scale(0.1 -0.1)">
       <use xlink:href="#Helvetica-55"/>
       <use xlink:href="#Helvetica-6e" x="72.216797"/>
       <use xlink:href="#Helvetica-69" x="127.832031"/>
       <use xlink:href="#Helvetica-76" x="150.048828"/>
       <use xlink:href="#Helvetica-65" x="200.048828"/>
       <use xlink:href="#Helvetica-72" x="255.664062"/>
       <use xlink:href="#Helvetica-73" x="288.964844"/>
       <use xlink:href="#Helvetica-69" x="338.964844"/>
       <use xlink:href="#Helvetica-74" x="361.181641"/>
       <use xlink:href="#Helvetica-79" x="388.964844"/>
      </g>
     </g>
    </g>
    <g id="ytick_4">
     <g id="line2d_13">
      <g>
       <use xlink:href="#m8e343aef83" x="149.525" y="238.416094" style="stroke: #000000; stroke-width: 0.8"/>
      </g>
     </g>
     <g id="text_13">
      <!-- University of Newcastle -->
      <g transform="translate(38.607812 242.053594)scale(0.1 -0.1)">
       <defs>
        <path id="Helvetica-77" d="M 672 3347 
L 1316 709 
L 1969 3347 
L 2600 3347 
L 3256 725 
L 3941 3347 
L 4503 3347 
L 3531 0 
L 2947 0 
L 2266 2591 
L 1606 0 
L 1022 0 
L 56 3347 
L 672 3347 
z
" transform="scale(0.015625)"/>
       </defs>
       <use xlink:href="#Helvetica-55"/>
       <use xlink:href="#Helvetica-6e" x="72.216797"/>
       <use xlink:href="#Helvetica-69" x="127.832031"/>
       <use xlink:href="#Helvetica-76" x="150.048828"/>
       <use xlink:href="#Helvetica-65" x="200.048828"/>
       <use xlink:href="#Helvetica-72" x="255.664062"/>
       <use xlink:href="#Helvetica-73" x="288.964844"/>
       <use xlink:href="#Helvetica-69" x="338.964844"/>
       <use xlink:href="#Helvetica-74" x="361.181641"/>
       <use xlink:href="#Helvetica-79" x="388.964844"/>
       <use xlink:href="#Helvetica-20" x="438.964844"/>
       <use xlink:href="#Helvetica-6f" x="466.748047"/>
       <use xlink:href="#Helvetica-66" x="522.363281"/>
       <use xlink:href="#Helvetica-20" x="550.146484"/>
       <use xlink:href="#Helvetica-4e" x="577.929688"/>
       <use xlink:href="#Helvetica-65" x="650.146484"/>
       <use xlink:href="#Helvetica-77" x="705.761719"/>
       <use xlink:href="#Helvetica-63" x="777.978516"/>
       <use xlink:href="#Helvetica-61" x="827.978516"/>
       <use xlink:href="#Helvetica-73" x="883.59375"/>
       <use xlink:href="#Helvetica-74" x="933.59375"/>
       <use xlink:href="#Helvetica-6c" x="961.376953"/>
       <use xlink:href="#Helvetica-65" x="983.59375"/>
      </g>
     </g>
    </g>
    <g id="ytick_5">
     <g id="line2d_14">
      <g>
       <use xlink:href="#m8e343aef83" x="149.525" y="214.725344" style="stroke: #000000; stroke-width: 0.8"/>
      </g>
     </g>
     <g id="text_14">
      <!-- The University of Sydney -->
      <g transform="translate(31.373437 218.409719)scale(0.1 -0.1)">
       <defs>
        <path id="Helvetica-53" d="M 894 1481 
Q 916 1091 1078 847 
Q 1388 391 2169 391 
Q 2519 391 2806 491 
Q 3363 684 3363 1184 
Q 3363 1559 3128 1719 
Q 2891 1875 2384 1991 
L 1763 2131 
Q 1153 2269 900 2434 
Q 463 2722 463 3294 
Q 463 3913 891 4309 
Q 1319 4706 2103 4706 
Q 2825 4706 3329 4357 
Q 3834 4009 3834 3244 
L 3250 3244 
Q 3203 3613 3050 3809 
Q 2766 4169 2084 4169 
Q 1534 4169 1293 3937 
Q 1053 3706 1053 3400 
Q 1053 3063 1334 2906 
Q 1519 2806 2169 2656 
L 2813 2509 
Q 3278 2403 3531 2219 
Q 3969 1897 3969 1284 
Q 3969 522 3414 194 
Q 2859 -134 2125 -134 
Q 1269 -134 784 303 
Q 300 738 309 1481 
L 894 1481 
z
M 2150 4716 
L 2150 4716 
z
" transform="scale(0.015625)"/>
       </defs>
       <use xlink:href="#Helvetica-54"/>
       <use xlink:href="#Helvetica-68" x="61.083984"/>
       <use xlink:href="#Helvetica-65" x="116.699219"/>
       <use xlink:href="#Helvetica-20" x="172.314453"/>
       <use xlink:href="#Helvetica-55" x="200.097656"/>
       <use xlink:href="#Helvetica-6e" x="272.314453"/>
       <use xlink:href="#Helvetica-69" x="327.929688"/>
       <use xlink:href="#Helvetica-76" x="350.146484"/>
       <use xlink:href="#Helvetica-65" x="400.146484"/>
       <use xlink:href="#Helvetica-72" x="455.761719"/>
       <use xlink:href="#Helvetica-73" x="489.0625"/>
       <use xlink:href="#Helvetica-69" x="539.0625"/>
       <use xlink:href="#Helvetica-74" x="561.279297"/>
       <use xlink:href="#Helvetica-79" x="589.0625"/>
       <use xlink:href="#Helvetica-20" x="639.0625"/>
       <use xlink:href="#Helvetica-6f" x="666.845703"/>
       <use xlink:href="#Helvetica-66" x="722.460938"/>
       <use xlink:href="#Helvetica-20" x="750.244141"/>
       <use xlink:href="#Helvetica-53" x="778.027344"/>
       <use xlink:href="#Helvetica-79" x="844.726562"/>
       <use xlink:href="#Helvetica-64" x="894.726562"/>
       <use xlink:href="#Helvetica-6e" x="950.341797"/>
       <use xlink:href="#Helvetica-65" x="1005.957031"/>
       <use xlink:href="#Helvetica-79" x="1061.572266"/>
      </g>
     </g>
    </g>
    <g id="ytick_6">
     <g id="line2d_15">
      <g>
       <use xlink:href="#m8e343aef83" x="149.525" y="191.034594" style="stroke: #000000; stroke-width: 0.8"/>
      </g>
     </g>
     <g id="text_15">
      <!-- Macquarie University -->
      <g transform="translate(49.165625 194.621313)scale(0.1 -0.1)">
       <defs>
        <path id="Helvetica-71" d="M 775 1628 
Q 775 1194 897 900 
Q 1113 378 1669 378 
Q 2256 378 2478 928 
Q 2600 1231 2600 1703 
Q 2600 2138 2466 2428 
Q 2238 2925 1663 2925 
Q 1297 2925 1036 2608 
Q 775 2291 775 1628 
z
M 1606 3422 
Q 2022 3422 2306 3213 
Q 2463 3100 2606 2881 
L 2606 3347 
L 3141 3347 
L 3141 -1334 
L 2575 -1334 
L 2575 384 
Q 2434 159 2186 26 
Q 1938 -106 1566 -106 
Q 1031 -106 609 312 
Q 188 731 188 1588 
Q 188 2391 583 2906 
Q 978 3422 1606 3422 
z
" transform="scale(0.015625)"/>
       </defs>
       <use xlink:href="#Helvetica-4d"/>
       <use xlink:href="#Helvetica-61" x="83.300781"/>
       <use xlink:href="#Helvetica-63" x="138.916016"/>
       <use xlink:href="#Helvetica-71" x="188.916016"/>
       <use xlink:href="#Helvetica-75" x="244.53125"/>
       <use xlink:href="#Helvetica-61" x="300.146484"/>
       <use xlink:href="#Helvetica-72" x="355.761719"/>
       <use xlink:href="#Helvetica-69" x="389.0625"/>
       <use xlink:href="#Helvetica-65" x="411.279297"/>
       <use xlink:href="#Helvetica-20" x="466.894531"/>
       <use xlink:href="#Helvetica-55" x="494.677734"/>
       <use xlink:href="#Helvetica-6e" x="566.894531"/>
       <use xlink:href="#Helvetica-69" x="622.509766"/>
       <use xlink:href="#Helvetica-76" x="644.726562"/>
       <use xlink:href="#Helvetica-65" x="694.726562"/>
       <use xlink:href="#Helvetica-72" x="750.341797"/>
       <use xlink:href="#Helvetica-73" x="783.642578"/>
       <use xlink:href="#Helvetica-69" x="833.642578"/>
       <use xlink:href="#Helvetica-74" x="855.859375"/>
       <use xlink:href="#Helvetica-79" x="883.642578"/>
      </g>
     </g>
    </g>
    <g id="ytick_7">
     <g id="line2d_16">
      <g>
       <use xlink:href="#m8e343aef83" x="149.525" y="167.343844" style="stroke: #000000; stroke-width: 0.8"/>
      </g>
     </g>
     <g id="text_16">
      <!-- University of Tasmania -->
      <g transform="translate(40.83125 170.981344)scale(0.1 -0.1)">
       <defs>
        <path id="Helvetica-6d" d="M 413 3347 
L 969 3347 
L 969 2872 
Q 1169 3119 1331 3231 
Q 1609 3422 1963 3422 
Q 2363 3422 2606 3225 
Q 2744 3113 2856 2894 
Q 3044 3163 3297 3292 
Q 3550 3422 3866 3422 
Q 4541 3422 4784 2934 
Q 4916 2672 4916 2228 
L 4916 0 
L 4331 0 
L 4331 2325 
Q 4331 2659 4164 2784 
Q 3997 2909 3756 2909 
Q 3425 2909 3186 2687 
Q 2947 2466 2947 1947 
L 2947 0 
L 2375 0 
L 2375 2184 
Q 2375 2525 2294 2681 
Q 2166 2916 1816 2916 
Q 1497 2916 1236 2669 
Q 975 2422 975 1775 
L 975 0 
L 413 0 
L 413 3347 
z
" transform="scale(0.015625)"/>
       </defs>
       <use xlink:href="#Helvetica-55"/>
       <use xlink:href="#Helvetica-6e" x="72.216797"/>
       <use xlink:href="#Helvetica-69" x="127.832031"/>
       <use xlink:href="#Helvetica-76" x="150.048828"/>
       <use xlink:href="#Helvetica-65" x="200.048828"/>
       <use xlink:href="#Helvetica-72" x="255.664062"/>
       <use xlink:href="#Helvetica-73" x="288.964844"/>
       <use xlink:href="#Helvetica-69" x="338.964844"/>
       <use xlink:href="#Helvetica-74" x="361.181641"/>
       <use xlink:href="#Helvetica-79" x="388.964844"/>
       <use xlink:href="#Helvetica-20" x="438.964844"/>
       <use xlink:href="#Helvetica-6f" x="466.748047"/>
       <use xlink:href="#Helvetica-66" x="522.363281"/>
       <use xlink:href="#Helvetica-20" x="550.146484"/>
       <use xlink:href="#Helvetica-54" x="577.929688"/>
       <use xlink:href="#Helvetica-61" x="639.013672"/>
       <use xlink:href="#Helvetica-73" x="694.628906"/>
       <use xlink:href="#Helvetica-6d" x="744.628906"/>
       <use xlink:href="#Helvetica-61" x="827.929688"/>
       <use xlink:href="#Helvetica-6e" x="883.544922"/>
       <use xlink:href="#Helvetica-69" x="939.160156"/>
       <use xlink:href="#Helvetica-61" x="961.376953"/>
      </g>
     </g>
    </g>
    <g id="ytick_8">
     <g id="line2d_17">
      <g>
       <use xlink:href="#m8e343aef83" x="149.525" y="143.653093" style="stroke: #000000; stroke-width: 0.8"/>
      </g>
     </g>
     <g id="text_17">
      <!-- Curtin University of -->
      <g transform="translate(58.060937 142.667156)scale(0.1 -0.1)">
       <defs>
        <path id="Helvetica-43" d="M 2422 4716 
Q 3294 4716 3775 4256 
Q 4256 3797 4309 3213 
L 3703 3213 
Q 3600 3656 3292 3915 
Q 2984 4175 2428 4175 
Q 1750 4175 1333 3698 
Q 916 3222 916 2238 
Q 916 1431 1292 929 
Q 1669 428 2416 428 
Q 3103 428 3463 956 
Q 3653 1234 3747 1688 
L 4353 1688 
Q 4272 963 3816 472 
Q 3269 -119 2341 -119 
Q 1541 -119 997 366 
Q 281 1006 281 2344 
Q 281 3359 819 4009 
Q 1400 4716 2422 4716 
z
M 2297 4716 
L 2297 4716 
z
" transform="scale(0.015625)"/>
       </defs>
       <use xlink:href="#Helvetica-43"/>
       <use xlink:href="#Helvetica-75" x="72.216797"/>
       <use xlink:href="#Helvetica-72" x="127.832031"/>
       <use xlink:href="#Helvetica-74" x="161.132812"/>
       <use xlink:href="#Helvetica-69" x="188.916016"/>
       <use xlink:href="#Helvetica-6e" x="211.132812"/>
       <use xlink:href="#Helvetica-20" x="266.748047"/>
       <use xlink:href="#Helvetica-55" x="294.53125"/>
       <use xlink:href="#Helvetica-6e" x="366.748047"/>
       <use xlink:href="#Helvetica-69" x="422.363281"/>
       <use xlink:href="#Helvetica-76" x="444.580078"/>
       <use xlink:href="#Helvetica-65" x="494.580078"/>
       <use xlink:href="#Helvetica-72" x="550.195312"/>
       <use xlink:href="#Helvetica-73" x="583.496094"/>
       <use xlink:href="#Helvetica-69" x="633.496094"/>
       <use xlink:href="#Helvetica-74" x="655.712891"/>
       <use xlink:href="#Helvetica-79" x="683.496094"/>
       <use xlink:href="#Helvetica-20" x="733.496094"/>
       <use xlink:href="#Helvetica-6f" x="761.279297"/>
       <use xlink:href="#Helvetica-66" x="816.894531"/>
      </g>
      <!-- Technology -->
      <g transform="translate(90.829688 153.447156)scale(0.1 -0.1)">
       <use xlink:href="#Helvetica-54"/>
       <use xlink:href="#Helvetica-65" x="61.083984"/>
       <use xlink:href="#Helvetica-63" x="116.699219"/>
       <use xlink:href="#Helvetica-68" x="166.699219"/>
       <use xlink:href="#Helvetica-6e" x="222.314453"/>
       <use xlink:href="#Helvetica-6f" x="277.929688"/>
       <use xlink:href="#Helvetica-6c" x="333.544922"/>
       <use xlink:href="#Helvetica-6f" x="355.761719"/>
       <use xlink:href="#Helvetica-67" x="411.376953"/>
       <use xlink:href="#Helvetica-79" x="466.992188"/>
      </g>
     </g>
    </g>
    <g id="ytick_9">
     <g id="line2d_18">
      <g>
       <use xlink:href="#m8e343aef83" x="149.525" y="119.962343" style="stroke: #000000; stroke-width: 0.8"/>
      </g>
     </g>
     <g id="text_18">
      <!-- The University of Queensland -->
      <g transform="translate(10.8 123.646718)scale(0.1 -0.1)">
       <use xlink:href="#Helvetica-54"/>
       <use xlink:href="#Helvetica-68" x="61.083984"/>
       <use xlink:href="#Helvetica-65" x="116.699219"/>
       <use xlink:href="#Helvetica-20" x="172.314453"/>
       <use xlink:href="#Helvetica-55" x="200.097656"/>
       <use xlink:href="#Helvetica-6e" x="272.314453"/>
       <use xlink:href="#Helvetica-69" x="327.929688"/>
       <use xlink:href="#Helvetica-76" x="350.146484"/>
       <use xlink:href="#Helvetica-65" x="400.146484"/>
       <use xlink:href="#Helvetica-72" x="455.761719"/>
       <use xlink:href="#Helvetica-73" x="489.0625"/>
       <use xlink:href="#Helvetica-69" x="539.0625"/>
       <use xlink:href="#Helvetica-74" x="561.279297"/>
       <use xlink:href="#Helvetica-79" x="589.0625"/>
       <use xlink:href="#Helvetica-20" x="639.0625"/>
       <use xlink:href="#Helvetica-6f" x="666.845703"/>
       <use xlink:href="#Helvetica-66" x="722.460938"/>
       <use xlink:href="#Helvetica-20" x="750.244141"/>
       <use xlink:href="#Helvetica-51" x="778.027344"/>
       <use xlink:href="#Helvetica-75" x="855.810547"/>
       <use xlink:href="#Helvetica-65" x="911.425781"/>
       <use xlink:href="#Helvetica-65" x="967.041016"/>
       <use xlink:href="#Helvetica-6e" x="1022.65625"/>
       <use xlink:href="#Helvetica-73" x="1078.271484"/>
       <use xlink:href="#Helvetica-6c" x="1128.271484"/>
       <use xlink:href="#Helvetica-61" x="1150.488281"/>
       <use xlink:href="#Helvetica-6e" x="1206.103516"/>
       <use xlink:href="#Helvetica-64" x="1261.71875"/>
      </g>
     </g>
    </g>
    <g id="ytick_10">
     <g id="line2d_19">
      <g>
       <use xlink:href="#m8e343aef83" x="149.525" y="96.271593" style="stroke: #000000; stroke-width: 0.8"/>
      </g>
     </g>
     <g id="text_19">
      <!-- University of Western -->
      <g transform="translate(47.504688 95.152843)scale(0.1 -0.1)">
       <defs>
        <path id="Helvetica-57" d="M 791 4591 
L 1656 856 
L 2694 4591 
L 3369 4591 
L 4406 856 
L 5272 4591 
L 5953 4591 
L 4747 0 
L 4094 0 
L 3034 3806 
L 1969 0 
L 1316 0 
L 116 4591 
L 791 4591 
z
" transform="scale(0.015625)"/>
       </defs>
       <use xlink:href="#Helvetica-55"/>
       <use xlink:href="#Helvetica-6e" x="72.216797"/>
       <use xlink:href="#Helvetica-69" x="127.832031"/>
       <use xlink:href="#Helvetica-76" x="150.048828"/>
       <use xlink:href="#Helvetica-65" x="200.048828"/>
       <use xlink:href="#Helvetica-72" x="255.664062"/>
       <use xlink:href="#Helvetica-73" x="288.964844"/>
       <use xlink:href="#Helvetica-69" x="338.964844"/>
       <use xlink:href="#Helvetica-74" x="361.181641"/>
       <use xlink:href="#Helvetica-79" x="388.964844"/>
       <use xlink:href="#Helvetica-20" x="438.964844"/>
       <use xlink:href="#Helvetica-6f" x="466.748047"/>
       <use xlink:href="#Helvetica-66" x="522.363281"/>
       <use xlink:href="#Helvetica-20" x="550.146484"/>
       <use xlink:href="#Helvetica-57" x="577.929688"/>
       <use xlink:href="#Helvetica-65" x="672.314453"/>
       <use xlink:href="#Helvetica-73" x="727.929688"/>
       <use xlink:href="#Helvetica-74" x="777.929688"/>
       <use xlink:href="#Helvetica-65" x="805.712891"/>
       <use xlink:href="#Helvetica-72" x="861.328125"/>
       <use xlink:href="#Helvetica-6e" x="894.628906"/>
      </g>
      <!-- Sydney -->
      <g transform="translate(109.171875 106.139093)scale(0.1 -0.1)">
       <use xlink:href="#Helvetica-53"/>
       <use xlink:href="#Helvetica-79" x="66.699219"/>
       <use xlink:href="#Helvetica-64" x="116.699219"/>
       <use xlink:href="#Helvetica-6e" x="172.314453"/>
       <use xlink:href="#Helvetica-65" x="227.929688"/>
       <use xlink:href="#Helvetica-79" x="283.544922"/>
      </g>
     </g>
    </g>
    <g id="ytick_11">
     <g id="line2d_20">
      <g>
       <use xlink:href="#m8e343aef83" x="149.525" y="72.580843" style="stroke: #000000; stroke-width: 0.8"/>
      </g>
     </g>
     <g id="text_20">
      <!-- Swinburne University -->
      <g transform="translate(48.603125 71.555843)scale(0.1 -0.1)">
       <use xlink:href="#Helvetica-53"/>
       <use xlink:href="#Helvetica-77" x="66.699219"/>
       <use xlink:href="#Helvetica-69" x="138.916016"/>
       <use xlink:href="#Helvetica-6e" x="161.132812"/>
       <use xlink:href="#Helvetica-62" x="216.748047"/>
       <use xlink:href="#Helvetica-75" x="272.363281"/>
       <use xlink:href="#Helvetica-72" x="327.978516"/>
       <use xlink:href="#Helvetica-6e" x="361.279297"/>
       <use xlink:href="#Helvetica-65" x="416.894531"/>
       <use xlink:href="#Helvetica-20" x="472.509766"/>
       <use xlink:href="#Helvetica-55" x="500.292969"/>
       <use xlink:href="#Helvetica-6e" x="572.509766"/>
       <use xlink:href="#Helvetica-69" x="628.125"/>
       <use xlink:href="#Helvetica-76" x="650.341797"/>
       <use xlink:href="#Helvetica-65" x="700.341797"/>
       <use xlink:href="#Helvetica-72" x="755.957031"/>
       <use xlink:href="#Helvetica-73" x="789.257812"/>
       <use xlink:href="#Helvetica-69" x="839.257812"/>
       <use xlink:href="#Helvetica-74" x="861.474609"/>
       <use xlink:href="#Helvetica-79" x="889.257812"/>
      </g>
      <!-- of Technology -->
      <g transform="translate(79.7125 82.429593)scale(0.1 -0.1)">
       <use xlink:href="#Helvetica-6f"/>
       <use xlink:href="#Helvetica-66" x="55.615234"/>
       <use xlink:href="#Helvetica-20" x="83.398438"/>
       <use xlink:href="#Helvetica-54" x="111.181641"/>
       <use xlink:href="#Helvetica-65" x="172.265625"/>
       <use xlink:href="#Helvetica-63" x="227.880859"/>
       <use xlink:href="#Helvetica-68" x="277.880859"/>
       <use xlink:href="#Helvetica-6e" x="333.496094"/>
       <use xlink:href="#Helvetica-6f" x="389.111328"/>
       <use xlink:href="#Helvetica-6c" x="444.726562"/>
       <use xlink:href="#Helvetica-6f" x="466.943359"/>
       <use xlink:href="#Helvetica-67" x="522.558594"/>
       <use xlink:href="#Helvetica-79" x="578.173828"/>
      </g>
     </g>
    </g>
    <g id="ytick_12">
     <g id="line2d_21">
      <g>
       <use xlink:href="#m8e343aef83" x="149.525" y="48.890093" style="stroke: #000000; stroke-width: 0.8"/>
      </g>
     </g>
     <g id="text_21">
      <!-- University of Canberra -->
      <g transform="translate(43.048438 52.574468)scale(0.1 -0.1)">
       <use xlink:href="#Helvetica-55"/>
       <use xlink:href="#Helvetica-6e" x="72.216797"/>
       <use xlink:href="#Helvetica-69" x="127.832031"/>
       <use xlink:href="#Helvetica-76" x="150.048828"/>
       <use xlink:href="#Helvetica-65" x="200.048828"/>
       <use xlink:href="#Helvetica-72" x="255.664062"/>
       <use xlink:href="#Helvetica-73" x="288.964844"/>
       <use xlink:href="#Helvetica-69" x="338.964844"/>
       <use xlink:href="#Helvetica-74" x="361.181641"/>
       <use xlink:href="#Helvetica-79" x="388.964844"/>
       <use xlink:href="#Helvetica-20" x="438.964844"/>
       <use xlink:href="#Helvetica-6f" x="466.748047"/>
       <use xlink:href="#Helvetica-66" x="522.363281"/>
       <use xlink:href="#Helvetica-20" x="550.146484"/>
       <use xlink:href="#Helvetica-43" x="577.929688"/>
       <use xlink:href="#Helvetica-61" x="650.146484"/>
       <use xlink:href="#Helvetica-6e" x="705.761719"/>
       <use xlink:href="#Helvetica-62" x="761.376953"/>
       <use xlink:href="#Helvetica-65" x="816.992188"/>
       <use xlink:href="#Helvetica-72" x="872.607422"/>
       <use xlink:href="#Helvetica-72" x="905.908203"/>
       <use xlink:href="#Helvetica-61" x="939.208984"/>
      </g>
     </g>
    </g>
   </g>
   <g id="text_22">
    <!-- Which university, Australia -->
    <g transform="translate(229.40875 19.43625)scale(0.12 -0.12)">
     <defs>
      <path id="Helvetica-2c" d="M 531 -653 
Q 747 -616 834 -350 
Q 881 -209 881 -78 
Q 881 -56 879 -39 
Q 878 -22 872 0 
L 531 0 
L 531 681 
L 1200 681 
L 1200 50 
Q 1200 -322 1050 -603 
Q 900 -884 531 -950 
L 531 -653 
z
" transform="scale(0.015625)"/>
     </defs>
     <use xlink:href="#Helvetica-57"/>
     <use xlink:href="#Helvetica-68" x="94.384766"/>
     <use xlink:href="#Helvetica-69" x="150"/>
     <use xlink:href="#Helvetica-63" x="172.216797"/>
     <use xlink:href="#Helvetica-68" x="222.216797"/>
     <use xlink:href="#Helvetica-20" x="277.832031"/>
     <use xlink:href="#Helvetica-75" x="305.615234"/>
     <use xlink:href="#Helvetica-6e" x="361.230469"/>
     <use xlink:href="#Helvetica-69" x="416.845703"/>
     <use xlink:href="#Helvetica-76" x="439.0625"/>
     <use xlink:href="#Helvetica-65" x="489.0625"/>
     <use xlink:href="#Helvetica-72" x="544.677734"/>
     <use xlink:href="#Helvetica-73" x="577.978516"/>
     <use xlink:href="#Helvetica-69" x="627.978516"/>
     <use xlink:href="#Helvetica-74" x="650.195312"/>
     <use xlink:href="#Helvetica-79" x="677.978516"/>
     <use xlink:href="#Helvetica-2c" x="727.978516"/>
     <use xlink:href="#Helvetica-20" x="755.761719"/>
     <use xlink:href="#Helvetica-41" x="783.544922"/>
     <use xlink:href="#Helvetica-75" x="850.244141"/>
     <use xlink:href="#Helvetica-73" x="905.859375"/>
     <use xlink:href="#Helvetica-74" x="955.859375"/>
     <use xlink:href="#Helvetica-72" x="983.642578"/>
     <use xlink:href="#Helvetica-61" x="1016.943359"/>
     <use xlink:href="#Helvetica-6c" x="1072.558594"/>
     <use xlink:href="#Helvetica-69" x="1094.775391"/>
     <use xlink:href="#Helvetica-61" x="1116.992188"/>
    </g>
   </g>
  </g>
 </g>
 <defs>
  <clipPath id="p1271f5cb50">
   <rect x="149.525" y="25.43625" width="300.475" height="307.505937"/>
  </clipPath>
 </defs>
</svg>
